<svg width="24" height="24" viewBox="0 0 24 24" fill="none" xmlns="http://www.w3.org/2000/svg">
<path d="M18 2H6C4.34 2 3 3.33083 3 4.97186V15.8887C3 17.5297 4.34 18.8605 6 18.8605H6.76C7.56 18.8605 8.32 19.1707 8.88 19.7311L10.59 21.4221C11.37 22.1926 12.64 22.1926 13.42 21.4221L15.13 19.7311C15.69 19.1707 16.46 18.8605 17.25 18.8605H18C19.66 18.8605 21 17.5297 21 15.8887V4.97186C21 3.33083 19.66 2 18 2ZM10.38 13.0169C10.79 13.0169 11.13 13.3571 11.13 13.7674C11.13 14.1776 10.79 14.5178 10.38 14.5178H7.7C7.26 14.5178 6.85 14.3077 6.59 13.9475C6.34 13.6073 6.28 13.187 6.4 12.7867C6.75 11.7161 7.61 11.1357 8.37 10.6154C9.17 10.075 9.62 9.73483 9.62 9.15447C9.62 8.63415 9.2 8.21388 8.68 8.21388C8.16 8.21388 7.75 8.64415 7.75 9.16448C7.75 9.57473 7.41 9.91495 7 9.91495C6.59 9.91495 6.25 9.57473 6.25 9.16448C6.25 7.82364 7.34 6.72295 8.69 6.72295C10.04 6.72295 11.13 7.81363 11.13 9.16448C11.13 10.5754 10.07 11.2958 9.22 11.8762C8.69 12.2364 8.19 12.5766 7.94 13.0269H10.38V13.0169ZM17 13.0869H16.79V13.7774C16.79 14.1876 16.45 14.5278 16.04 14.5278C15.63 14.5278 15.29 14.1876 15.29 13.7774V13.0869H13.33C13.33 13.0869 13.33 13.0869 13.32 13.0869C12.83 13.0869 12.38 12.8268 12.13 12.4065C11.88 11.9762 11.88 11.4459 12.13 11.0256C12.81 9.85491 13.6 8.52408 14.32 7.36335C14.64 6.85303 15.25 6.62289 15.82 6.78299C16.39 6.9531 16.79 7.47342 16.78 8.0738V11.596H17C17.41 11.596 17.75 11.9362 17.75 12.3465C17.75 12.7567 17.41 13.0869 17 13.0869Z" fill="#141414"/>
<path d="M15.29 11.586V8.64415C14.7 9.60475 14.09 10.6354 13.54 11.576H15.29V11.586Z" fill="#141414"/>
</svg>
