<svg width="24" height="24" viewBox="0 0 24 24" fill="none" xmlns="http://www.w3.org/2000/svg">
<path d="M21.2772 18.5985L19.6268 18.9915C19.2567 19.0822 18.9667 19.3644 18.8866 19.7373L18.5366 21.2188C18.3465 22.025 17.3263 22.277 16.7961 21.6421L13.8054 18.1752C13.5654 17.893 13.6954 17.4496 14.0555 17.3589C15.8259 16.9255 17.4163 15.9278 18.5866 14.5068C18.7766 14.275 19.1167 14.2448 19.3267 14.4564L21.5473 16.6938C22.3074 17.4597 22.0374 18.4171 21.2772 18.5985Z" fill="#141414"/>
<path d="M2.7228 18.5985L4.37319 18.9915C4.74328 19.0822 5.03334 19.3644 5.11336 19.7373L5.46345 21.2188C5.65349 22.025 6.67373 22.277 7.20386 21.6421L10.1946 18.1752C10.4346 17.893 10.3046 17.4496 9.94451 17.3589C8.17409 16.9255 6.58371 15.9278 5.41343 14.5068C5.22339 14.275 4.88331 14.2448 4.67326 14.4564L2.45273 16.6938C1.69255 17.4597 1.96261 18.4171 2.7228 18.5985Z" fill="#141414"/>
<path d="M12.025 2C8.15409 2 5.02334 5.15442 5.02334 9.05461C5.02334 10.5159 5.45344 11.8563 6.19362 12.975C7.27388 14.5874 8.98428 15.7263 10.9748 16.0185C11.3148 16.079 11.6649 16.1092 12.025 16.1092C12.3851 16.1092 12.7352 16.079 13.0753 16.0185C15.0657 15.7263 16.7761 14.5874 17.8564 12.975C18.5966 11.8563 19.0267 10.5159 19.0267 9.05461C19.0267 5.15442 15.8959 2 12.025 2ZM15.0857 8.8329L14.2555 9.66937C14.1155 9.81046 14.0355 10.0826 14.0855 10.2841L14.3256 11.3222C14.5156 12.1385 14.0855 12.461 13.3653 12.0276L12.3651 11.433C12.185 11.3222 11.885 11.3222 11.7049 11.433L10.7047 12.0276C9.98452 12.4509 9.55442 12.1385 9.74446 11.3222L9.98452 10.2841C10.0245 10.0926 9.95451 9.81046 9.81448 9.66937L8.96428 8.8329C8.47416 8.33907 8.6342 7.84525 9.31436 7.73439L10.3846 7.55299C10.5647 7.52275 10.7747 7.36151 10.8547 7.20026L11.4449 6.01105C11.7649 5.36606 12.2851 5.36606 12.6051 6.01105L13.1953 7.20026C13.2753 7.36151 13.4854 7.52275 13.6754 7.55299L14.7457 7.73439C15.4158 7.84525 15.5758 8.33907 15.0857 8.8329Z" fill="#141414"/>
</svg>
