<svg width="24" height="24" viewBox="0 0 24 24" fill="none" xmlns="http://www.w3.org/2000/svg">
<path d="M15.6091 5.32047V15.765C15.6091 16.1762 15.4891 16.5772 15.269 16.9164L12.5386 21.0901C12.1086 21.7583 11.0384 22.2312 10.1283 21.8817C9.14813 21.5425 8.49803 20.4116 8.70806 19.4042L9.22814 16.0426C9.26815 15.7342 9.18813 15.4566 9.01811 15.2408C8.84808 15.0454 8.59805 14.9221 8.32801 14.9221H4.21741C3.42729 14.9221 2.74719 14.5931 2.34714 14.0174C1.96708 13.4623 1.89707 12.7427 2.14711 12.0128L4.60747 4.31302C4.91751 3.03829 6.26771 2 7.6079 2H11.5085C12.1786 2 13.1187 2.23644 13.5488 2.67849L14.829 3.69622C15.319 4.08686 15.6091 4.6831 15.6091 5.32047Z" fill="#141414"/>
<path d="M18.7895 17.7697H19.8197C21.3699 17.7697 22 17.1529 22 15.6314V5.29991C22 3.77846 21.3699 3.16165 19.8197 3.16165H18.7895C17.2393 3.16165 16.6092 3.77846 16.6092 5.29991V15.6417C16.6092 17.1529 17.2393 17.7697 18.7895 17.7697Z" fill="#141414"/>
</svg>
