<svg width="24" height="24" viewBox="0 0 24 24" fill="none" xmlns="http://www.w3.org/2000/svg">
<path d="M21.3045 8.91941C21.3045 10.0265 21.1277 11.0499 20.8207 11.9988C19.3505 16.6505 14.8193 19.4323 12.5769 20.1951C12.2605 20.3068 11.7395 20.3068 11.4231 20.1951C10.8276 19.9905 10.074 19.6462 9.26448 19.1625C8.74343 18.8554 8.65969 18.1298 9.08769 17.7018L19.5832 7.20758C20.0856 6.7052 20.9695 6.91918 21.1463 7.60763C21.2487 8.02628 21.3045 8.46354 21.3045 8.91941Z" fill="#141414"/>
<path d="M21.7976 2.20235C21.5278 1.93255 21.0812 1.93255 20.8113 2.20235L18.6341 4.37935C17.899 3.96069 17.043 3.7188 16.1312 3.7188C14.4471 3.7188 12.9398 4.5375 12 5.79346C11.0602 4.5375 9.55292 3.7188 7.86881 3.7188C5.01233 3.7188 2.69551 6.04466 2.69551 8.91941C2.69551 10.0265 2.8723 11.0499 3.17934 11.9988C3.78414 13.9246 4.91928 15.5341 6.2033 16.8087L2.20237 20.8092C1.93254 21.079 1.93254 21.5255 2.20237 21.7953C2.34194 21.9349 2.51873 22 2.69551 22C2.8723 22 3.04908 21.9349 3.18865 21.7953L21.7976 3.18851C22.0675 2.91871 22.0675 2.47215 21.7976 2.20235Z" fill="#141414"/>
</svg>
