<svg width="24" height="24" viewBox="0 0 24 24" fill="none" xmlns="http://www.w3.org/2000/svg">
<path d="M16.44 3C14.63 3 13.01 3.88989 12 5.25506C10.99 3.88989 9.37 3 7.56 3C4.49 3 2 5.52809 2 8.65281C2 9.85618 2.19 10.9685 2.52 12C4.1 17.0562 8.97 20.0798 11.38 20.909C11.72 21.0303 12.28 21.0303 12.62 20.909C15.03 20.0798 19.9 17.0562 21.48 12C21.81 10.9685 22 9.85618 22 8.65281C22 5.52809 19.51 3 16.44 3ZM14.84 11.373L11.3 14.9528C11.16 15.0944 10.9 15.2258 10.71 15.2562L9.36 15.4382C8.87 15.509 8.53 15.1652 8.6 14.6697L8.79 13.3045C8.82 13.1124 8.95 12.8393 9.09 12.7079L12.63 9.12809C13.24 8.51124 13.95 8.21798 14.85 9.12809C15.74 10.0382 15.45 10.7562 14.84 11.373Z" fill="#141414"/>
</svg>
