<svg width="24" height="24" viewBox="0 0 24 24" fill="none" xmlns="http://www.w3.org/2000/svg">
<path d="M15.6293 5.58425L16.9883 8.2459C17.1715 8.61401 17.6631 8.96323 18.0775 9.03874L20.5354 9.43515C22.1066 9.68999 22.4728 10.8037 21.3451 11.9175L19.427 13.7957C19.1089 14.1072 18.9257 14.7207 19.0318 15.1643L19.5812 17.4862C20.0149 19.3173 19.0125 20.0346 17.3643 19.0719L15.0606 17.7316C14.6461 17.4862 13.9521 17.4862 13.5377 17.7316L11.234 19.0719C9.58574 20.0251 8.58331 19.3173 9.01705 17.4862L9.56646 15.1643C9.65321 14.7113 9.47008 14.0978 9.152 13.7863L7.23387 11.908C6.10613 10.8037 6.47241 9.68999 8.04353 9.42572L10.5014 9.0293C10.9159 8.96323 11.4075 8.60457 11.5906 8.23647L12.9497 5.57481C13.6919 4.14016 14.8871 4.14016 15.6293 5.58425Z" fill="#141414"/>
<path d="M8.5062 6.09393H2.72291C2.32772 6.09393 2 5.77302 2 5.38604C2 4.99906 2.32772 4.67815 2.72291 4.67815H8.5062C8.90139 4.67815 9.22911 4.99906 9.22911 5.38604C9.22911 5.77302 8.90139 6.09393 8.5062 6.09393Z" fill="#141414"/>
<path d="M5.61455 19.3078H2.72291C2.32772 19.3078 2 18.9869 2 18.5999C2 18.213 2.32772 17.892 2.72291 17.892H5.61455C6.00974 17.892 6.33746 18.213 6.33746 18.5999C6.33746 18.9869 6.00974 19.3078 5.61455 19.3078Z" fill="#141414"/>
<path d="M3.68679 12.7009H2.72291C2.32772 12.7009 2 12.38 2 11.993C2 11.606 2.32772 11.2851 2.72291 11.2851H3.68679C4.08198 11.2851 4.4097 11.606 4.4097 11.993C4.4097 12.38 4.08198 12.7009 3.68679 12.7009Z" fill="#141414"/>
</svg>
