<svg width="24" height="24" viewBox="0 0 24 24" fill="none" xmlns="http://www.w3.org/2000/svg">
<path d="M21.735 19.9897L20.8752 19.1237C21.3251 18.4391 21.5851 17.6235 21.5851 16.7475C21.5851 14.3612 19.6655 12.4179 17.2861 12.4179C14.9067 12.4179 12.9972 14.3612 12.9972 16.7576C12.9972 19.1539 14.9167 21.0872 17.2961 21.0872C18.1659 21.0872 18.9757 20.8254 19.6555 20.3723L20.5153 21.2382C20.6853 21.4094 20.9052 21.5 21.1352 21.5C21.3651 21.5 21.5851 21.4094 21.755 21.2382C22.0849 20.8858 22.0849 20.332 21.735 19.9897Z" fill="#141414"/>
<path d="M21.9949 8.12851C21.9949 9.32671 21.805 10.4343 21.4751 11.4613C21.4151 11.6728 21.1652 11.7332 20.9852 11.6023C19.8955 10.7867 18.5658 10.3537 17.1962 10.3537C13.727 10.3537 10.8978 13.2032 10.8978 16.6971C10.8978 17.7846 11.1777 18.8519 11.7075 19.7984C11.8675 20.0803 11.6776 20.4428 11.3776 20.332C8.96824 19.5064 4.09947 16.4958 2.51987 11.4613C2.18995 10.4343 2 9.32671 2 8.12851C2 5.01722 4.48937 2.5 7.5586 2.5C9.36814 2.5 10.9877 3.38606 11.9975 4.74536C13.0072 3.38606 14.6268 2.5 16.4364 2.5C19.5056 2.5 21.9949 5.01722 21.9949 8.12851Z" fill="#141414"/>
</svg>
