<svg width="24" height="24" viewBox="0 0 24 24" fill="none" xmlns="http://www.w3.org/2000/svg">
<path d="M17.2 11.8287C14.55 11.8287 12.4 13.9947 12.4 16.6644C12.4 17.571 12.65 18.4274 13.1 19.1527C13.93 20.553 15.45 21.5 17.2 21.5C18.95 21.5 20.48 20.553 21.3 19.1527C21.74 18.4274 22 17.571 22 16.6644C22 13.9947 19.85 11.8287 17.2 11.8287ZM19.58 16.0297L17.02 18.4072C16.88 18.5382 16.69 18.6087 16.51 18.6087C16.32 18.6087 16.13 18.5382 15.98 18.3871L14.8 17.1983C14.51 16.9061 14.51 16.4226 14.8 16.1304C15.09 15.8383 15.57 15.8383 15.86 16.1304L16.53 16.8054L18.56 14.9115C18.86 14.6294 19.34 14.6495 19.62 14.9517C19.9 15.264 19.88 15.7476 19.58 16.0297Z" fill="#141414"/>
<path d="M22 8.13149C22 9.33033 21.81 10.4385 21.48 11.4661C21.42 11.6776 21.17 11.7381 20.99 11.6071C19.9 10.7911 18.57 10.3579 17.2 10.3579C13.73 10.3579 10.9 13.2089 10.9 16.7047C10.9 17.7927 11.18 18.8605 11.71 19.8075C11.87 20.0896 11.68 20.4523 11.38 20.3415C8.97 19.5154 4.1 16.5032 2.52 11.4661C2.19 10.4385 2 9.33033 2 8.13149C2 5.01856 4.49 2.5 7.56 2.5C9.37 2.5 10.99 3.38653 12 4.74655C13.01 3.38653 14.63 2.5 16.44 2.5C19.51 2.5 22 5.01856 22 8.13149Z" fill="#141414"/>
</svg>
