<svg width="24" height="24" viewBox="0 0 24 24" fill="none" xmlns="http://www.w3.org/2000/svg">
<path d="M17 2H7C4 2 2 4.09061 2 7.22652V13.4984C2 16.6343 4 18.7249 7 18.7249V20.9514C7 21.7876 7.89 22.2894 8.55 21.819L13 18.7249H17C20 18.7249 22 16.6343 22 13.4984V7.22652C22 4.09061 20 2 17 2ZM12 14.7214C11.58 14.7214 11.25 14.366 11.25 13.9374C11.25 13.5088 11.58 13.1534 12 13.1534C12.42 13.1534 12.75 13.5088 12.75 13.9374C12.75 14.366 12.42 14.7214 12 14.7214ZM13.26 10.3833C12.87 10.6551 12.75 10.8328 12.75 11.1255V11.345C12.75 11.7736 12.41 12.129 12 12.129C11.59 12.129 11.25 11.7736 11.25 11.345V11.1255C11.25 9.91296 12.1 9.31713 12.42 9.08717C12.79 8.82584 12.91 8.64814 12.91 8.37636C12.91 7.85371 12.5 7.42513 12 7.42513C11.5 7.42513 11.09 7.85371 11.09 8.37636C11.09 8.80493 10.75 9.16034 10.34 9.16034C9.93 9.16034 9.59 8.80493 9.59 8.37636C9.59 6.9861 10.67 5.85717 12 5.85717C13.33 5.85717 14.41 6.9861 14.41 8.37636C14.41 9.56801 13.57 10.1638 13.26 10.3833Z" fill="#141414"/>
</svg>
