<svg width="24" height="24" viewBox="0 0 24 24" fill="none" xmlns="http://www.w3.org/2000/svg">
<path d="M21.9999 8.68994C21.9999 9.87994 21.8099 10.9799 21.4799 11.9999C19.8999 16.9999 15.0299 19.9899 12.6199 20.8099C12.2799 20.9299 11.7199 20.9299 11.3799 20.8099C10.7399 20.5899 9.92994 20.2199 9.05994 19.6999C8.49994 19.3699 8.40994 18.5899 8.86994 18.1299L20.1499 6.84994C20.6899 6.30994 21.6399 6.53994 21.8299 7.27994C21.9399 7.72994 21.9999 8.19994 21.9999 8.68994Z" fill="#141414"/>
<path d="M22.5299 1.46994C22.2399 1.17994 21.7599 1.17994 21.4699 1.46994L19.1299 3.80994C18.3399 3.35994 17.4199 3.09994 16.4399 3.09994C14.6299 3.09994 13.0099 3.97994 11.9999 5.32994C10.9899 3.97994 9.36994 3.09994 7.55994 3.09994C4.48994 3.09994 1.99994 5.59994 1.99994 8.68994C1.99994 9.87994 2.18994 10.9799 2.51994 11.9999C3.16994 14.0699 4.38994 15.7999 5.76994 17.1699L1.46994 21.4699C1.17994 21.7599 1.17994 22.2399 1.46994 22.5299C1.61994 22.6799 1.80994 22.7499 1.99994 22.7499C2.18994 22.7499 2.37994 22.6799 2.52994 22.5299L22.5299 2.52994C22.8199 2.23994 22.8199 1.75994 22.5299 1.46994Z" fill="#141414"/>
</svg>
