<svg width="24" height="24" viewBox="0 0 24 24" fill="none" xmlns="http://www.w3.org/2000/svg">
<path d="M18 2H6C4.34 2 3 3.33083 3 4.97186V15.8887C3 17.5297 4.34 18.8605 6 18.8605H6.76C7.56 18.8605 8.32 19.1707 8.88 19.7311L10.59 21.4221C11.37 22.1926 12.64 22.1926 13.42 21.4221L15.13 19.7311C15.69 19.1707 16.46 18.8605 17.25 18.8605H18C19.66 18.8605 21 17.5297 21 15.8887V4.97186C21 3.33083 19.66 2 18 2ZM12.28 14.9681C12.13 15.0181 11.88 15.0181 11.72 14.9681C10.42 14.5178 7.5 12.6667 7.5 9.5147C7.51 8.12383 8.62 7.00313 10 7.00313C10.82 7.00313 11.54 7.39337 12 8.00375C12.46 7.39337 13.18 7.00313 14 7.00313C15.38 7.00313 16.5 8.12383 16.5 9.5147C16.49 12.6667 13.58 14.5178 12.28 14.9681Z" fill="#141414"/>
</svg>
