<svg width="24" height="24" viewBox="0 0 24 24" fill="none" xmlns="http://www.w3.org/2000/svg">
<path d="M8.39093 18.6795V8.23496C8.39093 7.82376 8.51095 7.42283 8.73098 7.08359L11.4614 2.90987C11.8914 2.24167 12.9616 1.76878 13.8717 2.11831C14.8519 2.45755 15.502 3.58836 15.2919 4.59581L14.7719 7.9574C14.7319 8.2658 14.8119 8.54336 14.9819 8.75924C15.1519 8.95457 15.402 9.07793 15.672 9.07793H19.7826C20.5727 9.07793 21.2528 9.40689 21.6529 9.98257C22.0329 10.5377 22.1029 11.2573 21.8529 11.9872L19.3925 19.687C19.0825 20.9617 17.7323 22 16.3921 22H12.4915C11.8214 22 10.8813 21.7636 10.4512 21.3215L9.17105 20.3038C8.68097 19.9234 8.39093 19.3169 8.39093 18.6795Z" fill="#141414"/>
<path d="M5.21047 6.23034H4.18032C2.63009 6.23034 2 6.84715 2 8.3686V18.7104C2 20.2318 2.63009 20.8486 4.18032 20.8486H5.21047C6.76069 20.8486 7.39079 20.2318 7.39079 18.7104V8.3686C7.39079 6.84715 6.76069 6.23034 5.21047 6.23034Z" fill="#141414"/>
</svg>
