<svg width="24" height="24" viewBox="0 0 24 24" fill="none" xmlns="http://www.w3.org/2000/svg">
<path d="M13.15 15.37C12.93 15.05 12.54 14.87 12.09 14.87H9.76C9.61 14.87 9.46 14.81 9.37 14.69C9.27 14.57 9.23 14.42 9.25 14.25L9.54 12.39C9.66 11.84 9.29 11.21 8.74 11.02C8.22 10.83 7.62 11.09 7.37 11.46L5.06 14.9V14.47C5.06 13.63 4.7 13.29 3.82 13.29H3.24C2.36 13.3 2 13.64 2 14.48V20.19C2 21.03 2.36 21.37 3.24 21.37H3.82C4.66 21.37 5.01 21.04 5.04 20.28L6.79 21.63C7.04 21.87 7.57 22 7.95 22H10.16C10.92 22 11.68 21.43 11.86 20.73L13.26 16.48C13.41 16.07 13.37 15.68 13.15 15.37Z" fill="#141414"/>
<path d="M21.11 2.60998H20.53C19.69 2.60998 19.34 2.93998 19.3 3.69998L17.55 2.34998C17.31 2.10998 16.77 1.97998 16.39 1.97998H14.18C13.42 1.97998 12.66 2.54998 12.48 3.24998L11.08 7.49998C10.93 7.90998 10.98 8.29998 11.19 8.60998C11.41 8.92998 11.8 9.10998 12.25 9.10998H14.58C14.73 9.10998 14.88 9.16998 14.97 9.28998C15.07 9.40998 15.11 9.55998 15.09 9.72998L14.8 11.59C14.68 12.14 15.05 12.77 15.6 12.96C16.12 13.15 16.72 12.89 16.97 12.52L19.28 9.07998V9.50998C19.28 10.35 19.64 10.69 20.52 10.69H21.1C21.98 10.69 22.34 10.35 22.34 9.50998V3.77998C22.35 2.94998 21.99 2.60998 21.11 2.60998Z" fill="#141414"/>
</svg>
