<svg width="24" height="24" viewBox="0 0 24 24" fill="none" xmlns="http://www.w3.org/2000/svg">
<path d="M18 2H6C4.34 2 3 3.33083 3 4.97186V15.8887C3 17.5297 4.34 18.8605 6 18.8605H6.76C7.56 18.8605 8.32 19.1707 8.88 19.7311L10.59 21.4221C11.37 22.1926 12.64 22.1926 13.42 21.4221L15.13 19.7311C15.69 19.1707 16.46 18.8605 17.25 18.8605H18C19.66 18.8605 21 17.5297 21 15.8887V4.97186C21 3.33083 19.66 2 18 2ZM16.68 10.5053L15.51 14.0675C15.36 14.6579 14.73 15.1382 14.09 15.1382H12.24C11.92 15.1382 11.47 15.0281 11.27 14.828L9.8 13.6773C9.77 14.3177 9.48 14.5879 8.77 14.5879H8.29C7.55 14.5879 7.25 14.2977 7.25 13.5972V8.82426C7.25 8.12383 7.55 7.83365 8.29 7.83365H8.78C9.52 7.83365 9.82 8.12383 9.82 8.82426V9.18449L11.76 6.30269C11.96 5.9925 12.47 5.77236 12.9 5.94246C13.37 6.10256 13.67 6.62289 13.57 7.08318L13.33 8.64415C13.3 8.77423 13.33 8.91432 13.42 9.00438C13.5 9.09443 13.62 9.15447 13.75 9.15447H15.7C16.08 9.15447 16.4 9.30456 16.59 9.57473C16.77 9.8349 16.8 10.1651 16.68 10.5053Z" fill="#141414"/>
</svg>
