<svg width="24" height="24" viewBox="0 0 24 24" fill="none" xmlns="http://www.w3.org/2000/svg">
<path d="M12.9635 15.3766C12.7472 15.0569 12.3637 14.8771 11.9212 14.8771H9.63021C9.48272 14.8771 9.33523 14.8172 9.24673 14.6973C9.14841 14.5774 9.10907 14.4276 9.12874 14.2577L9.41389 12.3996C9.53188 11.8502 9.16807 11.2208 8.62727 11.031C8.11597 10.8412 7.526 11.1009 7.28018 11.4705L5.00882 14.9071V14.4775C5.00882 13.6384 4.65484 13.2987 3.78956 13.2987H3.21926C2.35398 13.3087 2 13.6484 2 14.4875V20.1918C2 21.031 2.35398 21.3706 3.21926 21.3706H3.78956C4.61551 21.3706 4.95966 21.041 4.98915 20.2817L6.70988 21.6304C6.9557 21.8701 7.47684 22 7.85048 22H10.0235C10.7708 22 11.5181 21.4306 11.6951 20.7313L13.0717 16.4855C13.2192 16.0759 13.1798 15.6863 12.9635 15.3766Z" fill="#141414"/>
<path d="M20.7904 2.62937H20.2201C19.3941 2.62937 19.05 2.95904 19.0106 3.71828L17.2899 2.36963C17.0539 2.12987 16.523 2 16.1493 2H13.9763C13.229 2 12.4817 2.56943 12.3047 3.26873L10.9281 7.51449C10.7806 7.92408 10.8298 8.31369 11.0363 8.62338C11.2526 8.94306 11.6361 9.12288 12.0786 9.12288H14.3696C14.5171 9.12288 14.6646 9.18282 14.7531 9.3027C14.8514 9.42258 14.8907 9.57243 14.8711 9.74226L14.5859 11.6004C14.4679 12.1499 14.8317 12.7792 15.3725 12.969C15.8838 13.1588 16.4738 12.8991 16.7196 12.5295L18.991 9.09291V9.52248C18.991 10.3616 19.345 10.7013 20.2102 10.7013H20.7805C21.6458 10.7013 21.9998 10.3616 21.9998 9.52248V3.7982C22.0096 2.96903 21.6557 2.62937 20.7904 2.62937Z" fill="#141414"/>
</svg>
