<svg width="24" height="24" viewBox="0 0 24 24" fill="none" xmlns="http://www.w3.org/2000/svg">
<path d="M12 14.9927C15.866 14.9927 19 12.0842 19 8.49634C19 4.90851 15.866 2 12 2C8.13401 2 5 4.90851 5 8.49634C5 12.0842 8.13401 14.9927 12 14.9927Z" fill="#141414"/>
<path d="M15.9304 15.6023C16.2726 15.4324 16.6667 15.6823 16.6667 16.0521V20.8993C16.6667 21.7988 16.0133 22.2386 15.2044 21.8688L12.4252 20.5995C12.1867 20.4996 11.8133 20.4996 11.5748 20.5995L8.79556 21.8688C7.98667 22.2286 7.33333 21.7888 7.33333 20.8894L7.35407 16.0521C7.35407 15.6823 7.75852 15.4424 8.09037 15.6023C9.26222 16.172 10.5896 16.4918 12 16.4918C13.4104 16.4918 14.7481 16.172 15.9304 15.6023Z" fill="#141414"/>
</svg>
