<svg width="24" height="24" viewBox="0 0 24 24" fill="none" xmlns="http://www.w3.org/2000/svg">
<path d="M17.5334 4.16584L17.4618 8.00152C17.4516 8.52779 17.7891 9.2261 18.2186 9.53984L20.7549 11.4425C22.381 12.657 22.1151 14.1447 20.1719 14.7519L16.8686 15.7741C16.3164 15.9461 15.7334 16.5432 15.5903 17.0999L14.8028 20.0753C14.179 22.4233 12.6245 22.6561 11.3359 20.5915L9.53593 17.7071C9.20867 17.1808 8.43142 16.7861 7.8178 16.8165L4.40201 16.9886C1.95777 17.11 1.26234 15.7134 2.85774 13.8714L4.88267 11.5437C5.26107 11.1085 5.43493 10.2989 5.26107 9.75237L4.21792 6.47332C3.61453 4.55042 4.69859 3.48776 6.63148 4.11524L9.64842 5.09693C10.1598 5.25886 10.9268 5.14753 11.3563 4.83379L14.5062 2.58704C16.2141 1.38269 17.5743 2.09113 17.5334 4.16584Z" fill="#141414"/>
<path d="M21.7776 20.6927L18.6788 17.6261C18.3822 17.3327 17.8913 17.3327 17.5947 17.6261C17.2982 17.9196 17.2982 18.4054 17.5947 18.6989L20.6935 21.7654C20.8469 21.9173 21.0412 21.9881 21.2355 21.9881C21.4298 21.9881 21.6242 21.9173 21.7776 21.7654C22.0741 21.472 22.0741 20.9862 21.7776 20.6927Z" fill="#141414"/>
</svg>
