<svg width="24" height="24" viewBox="0 0 24 24" fill="none" xmlns="http://www.w3.org/2000/svg">
<path d="M20.69 13.36C20.68 13.36 20.68 13.3499 20.68 13.3499V13.3399C19.8 12.413 18.57 11.8287 17.2 11.8287C14.55 11.8287 12.4 13.9947 12.4 16.6644C12.4 17.9035 12.87 19.0318 13.63 19.8881C14.51 20.8754 15.78 21.5 17.2 21.5C19.85 21.5 22 19.334 22 16.6644C22 15.3849 21.5 14.2264 20.69 13.36ZM19.01 18.5482C18.87 18.6893 18.67 18.7699 18.48 18.7699C18.29 18.7699 18.1 18.6893 17.95 18.5482L17.21 17.8028L16.45 18.5785C16.3 18.7195 16.11 18.8001 15.92 18.8001C15.82 18.8001 15.73 18.78 15.64 18.7397C15.55 18.7094 15.46 18.649 15.39 18.5785C15.09 18.2762 15.09 17.8028 15.39 17.5106L16.15 16.7349L15.42 15.9894C15.12 15.6972 15.12 15.2137 15.42 14.9215C15.71 14.6294 16.18 14.6294 16.48 14.9215L17.21 15.667L17.92 14.9517C18.22 14.6596 18.69 14.6596 18.98 14.9517C19.15 15.123 19.22 15.3446 19.19 15.5663C19.18 15.7375 19.11 15.8987 18.98 16.0196L18.27 16.7349L19.01 17.4804C19.31 17.7725 19.31 18.246 19.01 18.5482Z" fill="#141414"/>
<path d="M22 8.13149C22 9.33033 21.81 10.4385 21.48 11.4661C21.42 11.6776 21.17 11.7381 20.99 11.6071C19.9 10.7911 18.57 10.3579 17.2 10.3579C13.73 10.3579 10.9 13.2089 10.9 16.7047C10.9 17.7927 11.18 18.8605 11.71 19.8075C11.87 20.0896 11.68 20.4523 11.38 20.3415C8.97 19.5154 4.1 16.5032 2.52 11.4661C2.19 10.4385 2 9.33033 2 8.13149C2 5.01856 4.49 2.5 7.56 2.5C9.37 2.5 10.99 3.38653 12 4.74655C13.01 3.38653 14.63 2.5 16.44 2.5C19.51 2.5 22 5.01856 22 8.13149Z" fill="#141414"/>
</svg>
