<svg width="24" height="24" viewBox="0 0 24 24" fill="none" xmlns="http://www.w3.org/2000/svg">
<path d="M18.5926 9.85092C17.4765 9.85092 16.479 10.4042 15.8568 11.2493C15.2345 10.4042 14.237 9.85092 13.121 9.85092C11.2345 9.85092 9.70369 11.4203 9.70369 13.3518C9.70369 14.0963 9.8222 14.7904 10.0197 15.4242C10.9876 18.5529 13.9901 20.4341 15.4716 20.9472C15.679 21.0176 16.0247 21.0176 16.2321 20.9472C17.7135 20.4341 20.716 18.5629 21.6839 15.4242C21.8913 14.7804 22 14.0963 22 13.3518C22.0098 11.4203 20.479 9.85092 18.5926 9.85092Z" fill="#141414"/>
<path d="M20.5185 8.27148C20.5185 8.50286 20.2913 8.65377 20.074 8.59341C18.7407 8.2413 17.279 8.53304 16.1728 9.33785C15.9555 9.49881 15.6592 9.49881 15.4518 9.33785C14.6716 8.75437 13.7234 8.43244 12.7259 8.43244C10.1778 8.43244 8.10369 10.5551 8.10369 13.1707C8.10369 16.0077 9.43702 18.1304 10.7802 19.5488C10.8494 19.6193 10.7901 19.74 10.7012 19.6997C8.00492 18.7641 2 14.881 2 8.27148C2 5.35406 4.30123 3 7.14567 3C8.83455 3 10.3259 3.82493 11.2642 5.10256C12.2123 3.82493 13.7037 3 15.3827 3C18.2172 3 20.5185 5.35406 20.5185 8.27148Z" fill="#141414"/>
</svg>
