<svg width="24" height="24" viewBox="0 0 24 24" fill="none" xmlns="http://www.w3.org/2000/svg">
<path d="M13.2137 8.6339L14.446 11.1869C14.614 11.535 15.0621 11.8832 15.4356 11.9412L17.6668 12.328C19.0952 12.5794 19.4313 13.6432 18.4044 14.7069L16.6679 16.5153C16.3785 16.8151 16.2104 17.405 16.3038 17.8305L16.7986 20.0643C17.1907 21.8243 16.2851 22.5109 14.7821 21.5922L12.6908 20.3061C12.3081 20.074 11.6919 20.074 11.3092 20.3061L9.2086 21.5826C7.70553 22.5013 6.79996 21.8147 7.19206 20.0546L7.68686 17.8208C7.78022 17.405 7.61217 16.8151 7.32277 16.5056L5.59564 14.7166C4.5687 13.6528 4.90479 12.5794 6.33317 12.3377L8.56443 11.9508C8.93786 11.8832 9.38598 11.5447 9.55402 11.1966L10.7863 8.64357C11.4492 7.25103 12.5508 7.25103 13.2137 8.6339Z" fill="#141414"/>
<path d="M6.39852 10.2198C6.01575 10.2198 5.69834 9.89105 5.69834 9.49456V2.72528C5.69834 2.32879 6.01575 2 6.39852 2C6.78129 2 7.09871 2.32879 7.09871 2.72528V9.49456C7.09871 9.89105 6.78129 10.2198 6.39852 10.2198Z" fill="#141414"/>
<path d="M17.6015 10.2198C17.2187 10.2198 16.9013 9.89105 16.9013 9.49456V2.72528C16.9013 2.32879 17.2187 2 17.6015 2C17.9842 2 18.3017 2.32879 18.3017 2.72528V9.49456C18.3017 9.89105 17.9842 10.2198 17.6015 10.2198Z" fill="#141414"/>
<path d="M12 5.38464C11.6172 5.38464 11.2998 5.05585 11.2998 4.65936V2.72528C11.2998 2.32879 11.6172 2 12 2C12.3828 2 12.7002 2.32879 12.7002 2.72528V4.65936C12.7002 5.05585 12.3828 5.38464 12 5.38464Z" fill="#141414"/>
</svg>
