<svg width="24" height="24" viewBox="0 0 24 24" fill="none" xmlns="http://www.w3.org/2000/svg">
<path d="M21.555 10.7424L20.195 9.16244C19.935 8.86244 19.725 8.30244 19.725 7.90244V6.20244C19.725 5.14244 18.855 4.27244 17.795 4.27244H16.095C15.705 4.27244 15.135 4.06244 14.835 3.80244L13.255 2.44244C12.565 1.85244 11.435 1.85244 10.735 2.44244L9.165 3.81244C8.865 4.06244 8.295 4.27244 7.905 4.27244H6.175C5.115 4.27244 4.245 5.14244 4.245 6.20244V7.91244C4.245 8.30244 4.035 8.86244 3.785 9.16244L2.435 10.7524C1.855 11.4424 1.855 12.5624 2.435 13.2524L3.785 14.8424C4.035 15.1424 4.245 15.7024 4.245 16.0924V17.8024C4.245 18.8624 5.115 19.7324 6.175 19.7324H7.905C8.295 19.7324 8.865 19.9424 9.165 20.2024L10.745 21.5624C11.435 22.1524 12.565 22.1524 13.265 21.5624L14.845 20.2024C15.145 19.9424 15.705 19.7324 16.105 19.7324H17.805C18.865 19.7324 19.735 18.8624 19.735 17.8024V16.1024C19.735 15.7124 19.945 15.1424 20.205 14.8424L21.565 13.2624C22.145 12.5724 22.145 11.4324 21.555 10.7424ZM16.675 12.0024L15.505 15.5624C15.355 16.1524 14.725 16.6324 14.085 16.6324H12.235C11.915 16.6324 11.465 16.5224 11.265 16.3224L9.795 15.1724C9.765 15.8124 9.475 16.0824 8.765 16.0824H8.285C7.545 16.0824 7.245 15.7924 7.245 15.0924V10.3124C7.245 9.61244 7.545 9.32244 8.285 9.32244H8.775C9.515 9.32244 9.815 9.61244 9.815 10.3124V10.6724L11.755 7.79244C11.955 7.48244 12.465 7.26244 12.895 7.43244C13.365 7.59244 13.665 8.11244 13.565 8.57244L13.325 10.1324C13.305 10.2724 13.335 10.4024 13.425 10.5024C13.505 10.5924 13.625 10.6524 13.755 10.6524H15.705C16.085 10.6524 16.405 10.8024 16.595 11.0724C16.765 11.3324 16.795 11.6624 16.675 12.0024Z" fill="#141414"/>
</svg>
