<svg width="24" height="24" viewBox="0 0 24 24" fill="none" xmlns="http://www.w3.org/2000/svg">
<path d="M18.7001 14.46C18.3501 14.81 18.1501 15.51 18.2601 15.99L18.9501 19.01C19.2401 20.26 19.0601 21.2 18.4401 21.65C18.1901 21.83 17.8901 21.92 17.5401 21.92C17.0301 21.92 16.4301 21.73 15.7701 21.34L12.8401 19.6C12.3801 19.33 11.6201 19.33 11.1601 19.6L8.2301 21.34C7.1201 21.99 6.1701 22.1 5.5601 21.65C5.5201 21.62 5.4801 21.59 5.4501 21.55L18.0701 8.93C18.5301 8.47 19.1801 8.26 19.8201 8.37L19.9701 8.4C21.0301 8.58 21.7401 9.06 21.9701 9.76C22.1901 10.46 21.8901 11.27 21.1301 12.03L18.7001 14.46Z" fill="#141414"/>
<path d="M5.7401 16C5.8501 15.52 5.6501 14.81 5.3001 14.46L2.8701 12.03C2.1101 11.27 1.8101 10.46 2.0301 9.76C2.2601 9.06 2.9701 8.58 4.0301 8.4L7.1501 7.88C7.6001 7.8 8.1501 7.4 8.3601 6.99L10.0801 3.54C10.5801 2.55 11.2601 2 12.0001 2C12.7401 2 13.4201 2.55 13.9201 3.54L15.6401 6.99C15.7701 7.25 16.0401 7.5 16.3301 7.67L5.0701 18.93L5.7401 16Z" fill="#141414"/>
<path d="M21.7701 2.23C21.4701 1.93 20.9801 1.93 20.6801 2.23L2.2301 20.69C1.9301 20.99 1.9301 21.48 2.2301 21.78C2.3801 21.92 2.5701 22 2.7701 22C2.9701 22 3.1601 21.92 3.3101 21.77L21.7701 3.31C22.0801 3.01 22.0801 2.53 21.7701 2.23Z" fill="#141414"/>
</svg>
