<svg width="24" height="24" viewBox="0 0 24 24" fill="none" xmlns="http://www.w3.org/2000/svg">
<path d="M21.1721 11.3577L18.5141 14.0691C18.1492 14.4408 17.9146 15.1755 18.0069 15.6967L18.5178 18.8103C18.849 20.8027 17.6486 21.6905 15.8537 20.7913L12.8093 19.2552C12.2995 18.9992 11.479 19.0281 10.9988 19.3302L8.41631 20.9301C6.37668 22.191 5.11273 21.2895 5.59941 18.9174L6.27955 15.6036C6.40446 14.9998 6.11987 14.1812 5.66276 13.781L3.1161 11.5558C1.29493 9.96221 1.74954 8.47877 4.13632 8.25028L7.15882 7.96756C7.72377 7.91459 8.39774 7.45144 8.64553 6.93854L10.1323 3.86116C11.01 2.06225 12.5034 2.04297 13.4518 3.82385L14.9306 6.6052C15.1843 7.0734 15.8055 7.52077 16.3243 7.59036L20.092 8.13957C22.1254 8.44734 22.6114 9.89263 21.1721 11.3577Z" fill="#141414"/>
</svg>
