<svg width="24" height="24" viewBox="0 0 24 24" fill="none" xmlns="http://www.w3.org/2000/svg">
<path d="M10.5714 2.5H4.85714C3.27619 2.5 2 3.71238 2 5.21429V10.6429C2 12.1448 3.27619 13.3571 4.85714 13.3571H9.14286C9.14286 11.1133 11.0667 9.28571 13.4286 9.28571V5.21429C13.4286 3.71238 12.1524 2.5 10.5714 2.5ZM4.6381 5.45857C5.37143 4.96095 6.37143 4.9519 7.12381 5.44048C7.44762 5.64857 7.53333 6.07381 7.31429 6.38143C7.09524 6.68905 6.64762 6.77048 6.32381 6.56238C6.06667 6.39048 5.71429 6.39048 5.45714 6.57143C5.33333 6.65286 5.19048 6.68905 5.04762 6.68905C4.82857 6.68905 4.6 6.58952 4.46667 6.40857C4.2381 6.10095 4.31429 5.67571 4.6381 5.45857ZM9.87619 9.05048C9.62857 9.34905 9.18095 9.39429 8.87619 9.15905C8.54286 8.90571 8.14286 8.77 7.71429 8.77C6.7619 8.77 5.97143 9.45762 5.86667 10.3443H7.86667C8.25714 10.3443 8.58095 10.6519 8.58095 11.0229C8.58095 11.3938 8.25714 11.7014 7.86667 11.7014H5.65714C4.98095 11.7014 4.42857 11.1767 4.42857 10.5343C4.42857 8.81524 5.90476 7.41286 7.71429 7.41286C8.45714 7.41286 9.19048 7.65714 9.77143 8.10048C10.0762 8.33571 10.1238 8.76095 9.87619 9.05048ZM11.1238 6.38143C10.9048 6.68905 10.4571 6.77048 10.1333 6.56238C9.87619 6.39048 9.52381 6.39048 9.26667 6.57143C9.14286 6.65286 9 6.68905 8.85714 6.68905C8.63809 6.68905 8.40952 6.58952 8.27619 6.40857C8.04762 6.10095 8.12381 5.67571 8.44762 5.45857C9.18095 4.96095 10.181 4.9519 10.9333 5.44048C11.2571 5.64857 11.3429 6.07381 11.1238 6.38143Z" fill="#141414"/>
<path d="M18.4 16.6867C18.3333 16.6143 18.2381 16.5781 18.1333 16.5781H14.4381C14.3333 16.5781 14.2381 16.6143 14.1714 16.6867C14.1048 16.759 14.0667 16.8586 14.0857 16.949C14.2095 18.0167 15.1524 18.831 16.2857 18.831C17.419 18.831 18.3619 18.0257 18.4857 16.949C18.4952 16.8495 18.4667 16.759 18.4 16.6867Z" fill="#141414"/>
<path d="M19.1429 10.6429H13.4286C11.8571 10.6429 10.5714 11.8643 10.5714 13.3571V18.7857C10.5714 20.2786 11.8571 21.5 13.4286 21.5H19.1429C20.7143 21.5 22 20.2786 22 18.7857V13.3571C22 11.8643 20.7143 10.6429 19.1429 10.6429ZM13.0381 13.511C13.2667 13.2033 13.7143 13.131 14.0381 13.3481C14.2952 13.52 14.6381 13.52 14.8952 13.3571C15.219 13.14 15.6667 13.2214 15.8857 13.5381C16.1048 13.8457 16.0286 14.271 15.6952 14.479C15.3238 14.7143 14.8952 14.841 14.4667 14.841C14.019 14.841 13.581 14.7143 13.2095 14.461C12.8857 14.2348 12.8095 13.8095 13.0381 13.511ZM16.2857 19.8443C14.4762 19.8443 13 18.4419 13 16.7229C13 16.0805 13.5524 15.5557 14.2286 15.5557H18.3429C19.019 15.5557 19.5714 16.0805 19.5714 16.7229C19.5714 18.4419 18.0952 19.8443 16.2857 19.8443ZM19.5048 14.47C19.1333 14.7052 18.7048 14.8319 18.2762 14.8319C17.8286 14.8319 17.3905 14.7052 17.019 14.4519C16.6952 14.2348 16.619 13.8095 16.8476 13.5019C17.0762 13.1943 17.5238 13.1219 17.8476 13.339C18.1048 13.511 18.4476 13.511 18.7048 13.3481C19.0286 13.131 19.4762 13.2124 19.6952 13.529C19.9143 13.8457 19.8286 14.2619 19.5048 14.47Z" fill="#141414"/>
</svg>
