<svg width="24" height="24" viewBox="0 0 24 24" fill="none" xmlns="http://www.w3.org/2000/svg">
<path d="M20.68 13.3499V13.3399C19.8 12.403 18.57 11.8287 17.2 11.8287C14.55 11.8287 12.4 13.9947 12.4 16.6644C12.4 17.9035 12.87 19.0318 13.63 19.8881C14.51 20.8754 15.78 21.5 17.2 21.5C19.85 21.5 22 19.334 22 16.6644C22 15.3849 21.5 14.2163 20.68 13.3499ZM18.99 17.4804H17.95V18.5785C17.95 18.9915 17.61 19.334 17.2 19.334C16.79 19.334 16.45 18.9915 16.45 18.5785V17.4804H15.41C14.99 17.4804 14.66 17.1479 14.66 16.7248C14.66 16.3118 14.98 15.9793 15.4 15.9692H16.45V14.9618C16.45 14.9417 16.45 14.9215 16.46 14.9014C16.48 14.5186 16.81 14.2063 17.2 14.2063C17.6 14.2063 17.93 14.5286 17.95 14.9316V15.9692H18.99C19.41 15.9692 19.74 16.3118 19.74 16.7248C19.74 17.1479 19.41 17.4804 18.99 17.4804Z" fill="#141414"/>
<path d="M22 8.13149C22 9.33033 21.81 10.4385 21.48 11.4661C21.42 11.6776 21.17 11.7381 20.99 11.6071C19.9 10.7911 18.57 10.3579 17.2 10.3579C13.73 10.3579 10.9 13.2089 10.9 16.7047C10.9 17.7927 11.18 18.8605 11.71 19.8075C11.87 20.0896 11.68 20.4523 11.38 20.3415C8.97 19.5154 4.1 16.5032 2.52 11.4661C2.19 10.4385 2 9.33033 2 8.13149C2 5.01856 4.49 2.5 7.56 2.5C9.37 2.5 10.99 3.38653 12 4.74655C13.01 3.38653 14.63 2.5 16.44 2.5C19.51 2.5 22 5.01856 22 8.13149Z" fill="#141414"/>
</svg>
