<svg width="24" height="24" viewBox="0 0 24 24" fill="none" xmlns="http://www.w3.org/2000/svg">
<path d="M17.0651 17C15.5037 17 14.0632 16.2568 13.1245 14.9492C12.9015 14.6388 12.9665 14.1966 13.2732 13.9614C13.5799 13.7262 14.0167 13.8015 14.2491 14.1119C14.9275 15.0433 15.9498 15.5795 17.0651 15.5795C19.0074 15.5795 20.5967 13.9802 20.5967 12.0047C20.5967 10.0292 19.0167 8.42991 17.0651 8.42991C15.7454 8.42991 14.5 9.14487 13.8216 10.2832L11.3587 14.4318C10.4294 16.0028 8.72862 16.9718 6.92565 16.9718C4.2119 16.9718 2 14.7328 2 11.9859C2 9.23895 4.2119 7 6.92565 7C8.48699 7 9.92751 7.74318 10.8662 9.0508C11.0892 9.36124 11.0242 9.80339 10.7175 10.0386C10.4015 10.2738 9.97398 10.1985 9.74164 9.88805C9.07249 8.97554 8.05019 8.43932 6.93494 8.43932C4.99257 8.43932 3.40335 10.0386 3.40335 12.0141C3.40335 13.9897 4.98327 15.5889 6.93494 15.5889C8.25465 15.5889 9.5 14.8739 10.1784 13.7357L12.6413 9.58702C13.5706 8.01599 15.2714 7.04704 17.0743 7.04704C19.7881 7.04704 22 9.28598 22 12.0329C22 14.7799 19.7788 17 17.0651 17Z" fill="#141414"/>
<path d="M6.88848 13.8956C7.91503 13.8956 8.74721 13.0532 8.74721 12.0141C8.74721 10.975 7.91503 10.1326 6.88848 10.1326C5.86192 10.1326 5.02974 10.975 5.02974 12.0141C5.02974 13.0532 5.86192 13.8956 6.88848 13.8956Z" fill="#141414"/>
<path d="M17.1115 13.8956C18.1381 13.8956 18.9703 13.0532 18.9703 12.0141C18.9703 10.975 18.1381 10.1326 17.1115 10.1326C16.085 10.1326 15.2528 10.975 15.2528 12.0141C15.2528 13.0532 16.085 13.8956 17.1115 13.8956Z" fill="#141414"/>
</svg>
