<svg width="24" height="24" viewBox="0 0 24 24" fill="none" xmlns="http://www.w3.org/2000/svg">
<path d="M18.6731 14.46C18.3245 14.81 18.1253 15.51 18.2348 15.99L18.922 19.01C19.2109 20.26 19.0316 21.2 18.4141 21.65C18.1651 21.83 17.8663 21.92 17.5177 21.92C17.0098 21.92 16.4122 21.73 15.7548 21.34L12.8366 19.6C12.3785 19.33 11.6215 19.33 11.1634 19.6L8.24516 21.34C7.13963 21.99 6.19345 22.1 5.5859 21.65C5.54607 21.62 5.50623 21.59 5.47635 21.55L18.0456 8.93C18.5037 8.47 19.1511 8.26 19.7885 8.37L19.9379 8.4C20.9937 8.58 21.7008 9.06 21.9299 9.76C22.149 10.46 21.8502 11.27 21.0933 12.03L18.6731 14.46Z" fill="#141414"/>
<path d="M5.76518 16C5.87474 15.52 5.67554 14.81 5.32695 14.46L2.90672 12.03C2.14978 11.27 1.85099 10.46 2.0701 9.76C2.29918 9.06 3.00632 8.58 4.06206 8.4L7.16951 7.88C7.6177 7.8 8.16549 7.4 8.37464 6.99L10.0877 3.54C10.5857 2.55 11.263 2 12 2C12.737 2 13.4143 2.55 13.9123 3.54L15.6254 6.99C15.7548 7.25 16.0237 7.5 16.3126 7.67L5.09788 18.93L5.76518 16Z" fill="#141414"/>
<path d="M21.7307 2.23C21.4319 1.93 20.9439 1.93 20.6451 2.23L2.2693 20.69C1.97051 20.99 1.97051 21.48 2.2693 21.78C2.4187 21.92 2.60793 22 2.80713 22C3.00632 22 3.19556 21.92 3.34495 21.77L21.7307 3.31C22.0395 3.01 22.0395 2.53 21.7307 2.23Z" fill="#141414"/>
</svg>
