<svg width="24" height="24" viewBox="0 0 24 24" fill="none" xmlns="http://www.w3.org/2000/svg">
<path d="M8.02 5H6.98C5.39 5 4.75 5.56911 4.75 7.01084V18.2791H10.25V7.01084C10.24 5.56911 9.6 5 8.02 5Z" fill="#141414"/>
<path d="M16.52 9.74255H15.48C13.89 9.74255 13.25 10.3211 13.25 11.7534V18.2791H18.75V11.7534C18.75 10.3211 18.1 9.74255 16.52 9.74255Z" fill="#141414"/>
<path d="M2.75 17.5772H21.25C21.66 17.5772 22 17.8997 22 18.2886C22 18.6775 21.66 19 21.25 19H2.75C2.34 19 2 18.6775 2 18.2791C2 17.8808 2.34 17.5772 2.75 17.5772Z" fill="#141414"/>
</svg>
