<svg width="24" height="24" viewBox="0 0 24 24" fill="none" xmlns="http://www.w3.org/2000/svg">
<path d="M20.1395 16.186V7.81395C21.2465 7.34884 22 6.26047 22 5.02326C22 3.35814 20.6419 2 18.9767 2C17.7488 2 16.6512 2.75349 16.186 3.86047H7.81395C7.34884 2.75349 6.26047 2 5.02326 2C3.35814 2 2 3.35814 2 5.02326C2 6.25116 2.75349 7.34884 3.86047 7.81395V16.186C2.75349 16.6512 2 17.7395 2 18.9767C2 20.6419 3.35814 22 5.02326 22C6.25116 22 7.34884 21.2465 7.81395 20.1395H16.186C16.6512 21.2465 17.7395 22 18.9767 22C20.6419 22 22 20.6419 22 18.9767C22 17.7488 21.2465 16.6512 20.1395 16.186ZM18.6605 15.9721C18.5581 15.9814 18.4651 16 18.3628 16.0186C18.1116 16.0651 17.8698 16.1488 17.6372 16.2698C17.5814 16.2977 17.5256 16.3256 17.4698 16.3628C17.0047 16.6233 16.6233 17.0047 16.3628 17.4698C16.3256 17.5256 16.2977 17.5814 16.2698 17.6372C16.1488 17.8698 16.0651 18.1116 16.0186 18.3628C16 18.4651 15.9814 18.5581 15.9721 18.6605C15.9628 18.6884 15.9628 18.7163 15.9628 18.7442H8.03721C8.0186 18.5116 7.97209 18.2884 7.90698 18.0744C7.88837 18 7.86047 17.9163 7.82326 17.8419C7.79535 17.7767 7.76744 17.7116 7.73023 17.6372C7.70233 17.5814 7.67442 17.5256 7.63721 17.4698C7.37674 17.0047 6.99535 16.6233 6.53023 16.3628C6.47442 16.3256 6.4186 16.2977 6.36279 16.2698C6.28837 16.2326 6.22326 16.2047 6.15814 16.1767C6.08372 16.1395 6 16.1116 5.92558 16.093C5.71163 16.0279 5.48837 15.9814 5.25581 15.9628V8.03721C5.49767 8.0186 5.72093 7.97209 5.94419 7.89767C6.02791 7.87907 6.12093 7.84186 6.20465 7.80465C6.25116 7.78605 6.30698 7.75814 6.36279 7.73023C6.4186 7.70233 6.47442 7.67442 6.53023 7.63721C6.99535 7.37674 7.37674 6.99535 7.63721 6.53023C7.67442 6.47442 7.70233 6.4186 7.73023 6.36279C7.75814 6.30698 7.78605 6.25116 7.80465 6.20465C7.84186 6.12093 7.87907 6.02791 7.89767 5.94419C7.97209 5.72093 8.0186 5.49767 8.03721 5.25581H15.9628C15.9814 5.50698 16.0279 5.73953 16.1116 5.97209C16.1302 6.04651 16.1581 6.13023 16.1953 6.20465C16.214 6.26047 16.2419 6.30698 16.2698 6.36279C16.2977 6.4186 16.3256 6.47442 16.3628 6.53023C16.6233 6.99535 17.0047 7.37674 17.4698 7.63721C17.5256 7.67442 17.5814 7.70233 17.6372 7.73023C17.693 7.75814 17.7395 7.78605 17.7953 7.80465C17.8698 7.84186 17.9535 7.86977 18.0279 7.88837C18.2605 7.97209 18.493 8.0186 18.7442 8.03721V15.9628C18.7163 15.9628 18.6884 15.9628 18.6605 15.9721Z" fill="#141414"/>
</svg>
