<svg width="24" height="24" viewBox="0 0 24 24" fill="none" xmlns="http://www.w3.org/2000/svg">
<path d="M8.02 4.62012H6.98C5.39 4.62012 4.75 5.22012 4.75 6.74012V18.6201H10.25V6.74012C10.24 5.22012 9.6 4.62012 8.02 4.62012Z" fill="#141414"/>
<path d="M16.52 9.62012H15.48C13.89 9.62012 13.25 10.2301 13.25 11.7401V18.6201H18.75V11.7401C18.75 10.2301 18.1 9.62012 16.52 9.62012Z" fill="#141414"/>
<path d="M2.75 17.8801H21.25C21.66 17.8801 22 18.2201 22 18.6301C22 19.0401 21.66 19.3801 21.25 19.3801H2.75C2.34 19.3801 2 19.0401 2 18.6201C2 18.2001 2.34 17.8801 2.75 17.8801Z" fill="#141414"/>
</svg>
