<svg width="24" height="24" viewBox="0 0 24 24" fill="none" xmlns="http://www.w3.org/2000/svg">
<path d="M16.1971 2H7.8129C4.17108 2 2 4.17 2 7.81V16.18C2 19.83 4.17108 22 7.8129 22H16.1871C19.8289 22 22 19.83 22 16.19V7.81C22.01 4.17 19.8389 2 16.1971 2ZM10.2241 21H7.91295C5.2016 21 3.0005 18.8 3.0005 16.09V13.78C3.0005 13.37 3.34067 13.03 3.75087 13.03C4.16108 13.03 4.50125 13.37 4.50125 13.78V16.09C4.50125 17.97 6.03201 19.5 7.91295 19.5H10.2241C10.6343 19.5 10.9745 19.84 10.9745 20.25C10.9745 20.66 10.6443 21 10.2241 21ZM10.2241 4.5H7.91295C6.03201 4.5 4.50125 6.03 4.50125 7.91V10.22C4.50125 10.63 4.16108 10.97 3.75087 10.97C3.34067 10.97 3.0005 10.64 3.0005 10.22V7.91C3.0005 5.2 5.2016 3 7.91295 3H10.2241C10.6343 3 10.9745 3.34 10.9745 3.75C10.9745 4.16 10.6443 4.5 10.2241 4.5ZM21.0095 16.09C21.0095 18.8 18.8084 21 16.097 21H14.7063C14.2961 21 13.956 20.66 13.956 20.25C13.956 19.84 14.2961 19.5 14.7063 19.5H16.097C17.978 19.5 19.5087 17.97 19.5087 16.09V14.7C19.5087 14.29 19.8489 13.95 20.2591 13.95C20.6693 13.95 21.0095 14.29 21.0095 14.7V16.09ZM21.0095 10.22C21.0095 10.63 20.6693 10.97 20.2591 10.97C19.8489 10.97 19.5087 10.63 19.5087 10.22V7.91C19.5087 6.03 17.978 4.5 16.097 4.5H13.7859C13.3757 4.5 13.0355 4.16 13.0355 3.75C13.0355 3.34 13.3657 3 13.7859 3H16.097C18.8084 3 21.0095 5.2 21.0095 7.91V10.22Z" fill="#141414"/>
</svg>
