<svg width="24" height="24" viewBox="0 0 24 24" fill="none" xmlns="http://www.w3.org/2000/svg">
<path d="M19 15.98V17.02C19 18.61 18.4305 19.25 16.9878 19.25H5.71206V13.75H16.9878C18.4305 13.75 19 14.39 19 15.98Z" fill="#141414"/>
<path d="M14.2543 7.48V8.52C14.2543 10.11 13.6753 10.75 12.2421 10.75H5.71206V5.25H12.2421C13.6753 5.25 14.2543 5.89 14.2543 7.48Z" fill="#141414"/>
<path d="M5.71206 22C5.32291 22 5.0002 21.66 5.0002 21.25V2.75C4.99071 2.33 5.31342 2 5.71206 2C6.1107 2 6.42391 2.34 6.42391 2.75V21.25C6.41442 21.66 6.10121 22 5.71206 22Z" fill="#141414"/>
</svg>
