<svg width="24" height="24" viewBox="0 0 24 24" fill="none" xmlns="http://www.w3.org/2000/svg">
<path d="M16.1971 2H7.8129C4.17108 2 2 4.17 2 7.81V16.18C2 19.83 4.17108 22 7.8129 22H16.1871C19.8289 22 22 19.83 22 16.19V7.81C22.01 4.17 19.8389 2 16.1971 2ZM18.7584 14C18.7584 14.41 18.4182 14.75 18.008 14.75C17.5978 14.75 17.2576 14.41 17.2576 14V12.75H12.7554V17.25H14.006C14.4162 17.25 14.7564 17.59 14.7564 18C14.7564 18.41 14.4162 18.75 14.006 18.75H10.004C9.59378 18.75 9.25361 18.41 9.25361 18C9.25361 17.59 9.59378 17.25 10.004 17.25H11.2546V12.75H6.75237V14C6.75237 14.41 6.4122 14.75 6.00199 14.75C5.59179 14.75 5.25162 14.41 5.25162 14V10C5.25162 9.59 5.59179 9.25 6.00199 9.25C6.4122 9.25 6.75237 9.59 6.75237 10V11.25H11.2546V6.75H10.004C9.59378 6.75 9.25361 6.41 9.25361 6C9.25361 5.59 9.59378 5.25 10.004 5.25H14.006C14.4162 5.25 14.7564 5.59 14.7564 6C14.7564 6.41 14.4162 6.75 14.006 6.75H12.7554V11.25H17.2576V10C17.2576 9.59 17.5978 9.25 18.008 9.25C18.4182 9.25 18.7584 9.59 18.7584 10V14Z" fill="#141414"/>
</svg>
