<svg width="24" height="24" viewBox="0 0 24 24" fill="none" xmlns="http://www.w3.org/2000/svg">
<path d="M18 19.8095L16.1905 21.6286C15.6952 22.1238 14.8762 22.1238 14.3619 21.6286L12.8571 20.1143C12.3619 19.6095 12.3619 18.8 12.8571 18.2857L14.6762 16.4857L18 19.8095Z" fill="#141414"/>
<path d="M21.6286 16.1905L18.9524 18.8571L15.6286 15.5333L18.2952 12.8476C18.8 12.3524 19.619 12.3524 20.1238 12.8476L21.6286 14.3619C22.1238 14.8667 22.1238 15.6952 21.6286 16.1905Z" fill="#141414"/>
<path d="M6.52079 2.06237C7.04446 1.99452 7.47619 2.42963 7.47619 2.95769V6.57143C7.47619 7.09741 7.04979 7.52381 6.52381 7.52381H2.95238C2.4264 7.52381 1.9922 7.09549 2.05587 6.57338C2.36793 4.01474 3.97321 2.39243 6.52079 2.06237Z" fill="#141414"/>
<path d="M20.0286 7.52381H16.5238C15.9978 7.52381 15.5714 7.09741 15.5714 6.57143V2.95833C15.5714 2.43003 16.0039 1.99485 16.5278 2.06317C19.036 2.39027 20.6329 3.96962 20.981 6.45714C21.0571 7.01905 20.6 7.52381 20.0286 7.52381Z" fill="#141414"/>
<path d="M6.52381 15.619C7.04979 15.619 7.47619 16.0454 7.47619 16.5714V20.019C7.47619 20.5905 6.97143 21.0476 6.4 20.9714C3.95322 20.6074 2.4096 19.0391 2.07022 16.5811C1.99763 16.0554 2.43381 15.619 2.96451 15.619H6.52381Z" fill="#141414"/>
<path d="M7.47619 9.90476C7.47619 9.37878 7.04979 8.95238 6.52381 8.95238H2.95238C2.4264 8.95238 2 9.37878 2 9.90476V13.2381C2 13.7641 2.4264 14.1905 2.95238 14.1905H6.52381C7.04979 14.1905 7.47619 13.7641 7.47619 13.2381V9.90476Z" fill="#141414"/>
<path d="M14.1429 9.90476C14.1429 9.37878 13.7165 8.95238 13.1905 8.95238H9.85714C9.33116 8.95238 8.90476 9.37878 8.90476 9.90476V13.2381C8.90476 13.7641 9.33116 14.1905 9.85714 14.1905H13.1905C13.7143 14.1905 14.1429 13.7619 14.1429 13.2381V9.90476Z" fill="#141414"/>
<path d="M14.1429 2.95238C14.1429 2.4264 13.7165 2 13.1905 2H9.85714C9.33116 2 8.90476 2.4264 8.90476 2.95238V6.57143C8.90476 7.09741 9.33116 7.52381 9.85714 7.52381H13.1905C13.7165 7.52381 14.1429 7.09741 14.1429 6.57143V2.95238Z" fill="#141414"/>
</svg>
