<svg width="24" height="24" viewBox="0 0 24 24" fill="none" xmlns="http://www.w3.org/2000/svg">
<path d="M16.9896 2H7C4.79275 2 3 3.73944 3 5.85875V19.9442C3 21.7436 4.33679 22.5034 5.97409 21.6337L11.0311 18.9245C11.5699 18.6346 12.4404 18.6346 12.9689 18.9245L18.0259 21.6337C19.6632 22.5134 21 21.7536 21 19.9442V5.85875C20.9896 3.73944 19.1969 2 16.9896 2ZM14.5855 11.397H12.772V13.2064C12.772 13.6163 12.4197 13.9561 11.9948 13.9561C11.5699 13.9561 11.2176 13.6163 11.2176 13.2064V11.397H9.40415C8.97927 11.397 8.62694 11.0571 8.62694 10.6472C8.62694 10.2373 8.97927 9.89745 9.40415 9.89745H11.2176V8.208C11.2176 7.79813 11.5699 7.45824 11.9948 7.45824C12.4197 7.45824 12.772 7.79813 12.772 8.208V9.89745H14.5855C15.0104 9.89745 15.3627 10.2373 15.3627 10.6472C15.3627 11.0571 15.0104 11.397 14.5855 11.397Z" fill="#141414"/>
</svg>
