<svg width="24" height="24" viewBox="0 0 24 24" fill="none" xmlns="http://www.w3.org/2000/svg">
<path d="M20.12 3.88L3.39 20.61C3.34 20.41 3.32 20.19 3.32 19.95V5.86C3.32 3.74 5.05 2 7.18 2H16.82C18.22 2 19.45 2.75 20.12 3.88Z" fill="#141414"/>
<path d="M21.77 2.23C21.47 1.93 20.98 1.93 20.68 2.23L2.23 20.69C1.93 20.99 1.93 21.48 2.23 21.78C2.38 21.92 2.57 22 2.77 22C2.97 22 3.16 21.92 3.31 21.77L21.77 3.31C22.08 3.01 22.08 2.53 21.77 2.23Z" fill="#141414"/>
<path d="M19.29 7.71L11.9 15.1C11.44 15.56 11.53 16.33 12.09 16.66L19.48 21.09C20.15 21.49 20.99 21.01 20.99 20.23V8.41C21 7.52 19.92 7.08 19.29 7.71Z" fill="#141414"/>
</svg>
