<svg width="24" height="24" viewBox="0 0 24 24" fill="none" xmlns="http://www.w3.org/2000/svg">
<path d="M16.9896 2H7C4.80311 2 3 3.73944 3 5.85875V19.9442C3 21.7436 4.33679 22.5034 5.97409 21.6337L11.0311 18.9245C11.5699 18.6346 12.4404 18.6346 12.9689 18.9245L18.0259 21.6337C19.6632 22.5134 21 21.7536 21 19.9442V5.85875C20.9896 3.73944 19.1969 2 16.9896 2ZM15.7461 9.1177L11.601 13.1164C11.4456 13.2664 11.2487 13.3363 11.0518 13.3363C10.8549 13.3363 10.658 13.2664 10.5026 13.1164L8.94819 11.6169C8.64767 11.327 8.64767 10.8471 8.94819 10.5572C9.24871 10.2673 9.74611 10.2673 10.0466 10.5572L11.0518 11.5269L14.6477 8.05804C14.9482 7.76814 15.4456 7.76814 15.7461 8.05804C16.0466 8.34795 16.0466 8.8278 15.7461 9.1177Z" fill="#141414"/>
</svg>
