<svg width="24" height="24" viewBox="0 0 24 24" fill="none" xmlns="http://www.w3.org/2000/svg">
<path d="M20.115 3.88L3.385 20.61C3.335 20.41 3.315 20.19 3.315 19.95V5.86C3.315 3.74 5.045 2 7.175 2H16.815C18.215 2 19.445 2.75 20.115 3.88Z" fill="#141414"/>
<path d="M21.765 2.23C21.465 1.93 20.975 1.93 20.675 2.23L2.225 20.69C1.925 20.99 1.925 21.48 2.225 21.78C2.375 21.92 2.565 22 2.765 22C2.965 22 3.155 21.92 3.305 21.77L21.765 3.31C22.075 3.01 22.075 2.53 21.765 2.23Z" fill="#141414"/>
<path d="M19.285 7.71L11.895 15.1C11.435 15.56 11.525 16.33 12.085 16.66L19.475 21.09C20.145 21.49 20.985 21.01 20.985 20.23V8.41C20.995 7.52 19.915 7.08 19.285 7.71Z" fill="#141414"/>
</svg>
