<svg width="24" height="24" viewBox="0 0 24 24" fill="none" xmlns="http://www.w3.org/2000/svg">
<path d="M16.9896 2H7C4.79275 2 3 3.73944 3 5.85875V19.9442C3 21.7436 4.33679 22.5034 5.97409 21.6337L11.0311 18.9245C11.5699 18.6346 12.4404 18.6346 12.9689 18.9245L18.0259 21.6337C19.6632 22.5134 21 21.7536 21 19.9442V5.85875C20.9896 3.73944 19.1969 2 16.9896 2ZM15.114 9.7475C14.1088 10.0974 13.0518 10.2773 11.9948 10.2773C10.9378 10.2773 9.88083 10.0974 8.87565 9.7475C8.4715 9.60754 8.26425 9.17768 8.40933 8.78781C8.56477 8.39793 9.01036 8.198 9.41451 8.33795C11.0829 8.91777 12.9171 8.91777 14.5855 8.33795C14.9896 8.198 15.4352 8.39793 15.5803 8.78781C15.7254 9.17768 15.5181 9.60754 15.114 9.7475Z" fill="#141414"/>
</svg>
