<svg width="24" height="24" viewBox="0 0 24 24" fill="none" xmlns="http://www.w3.org/2000/svg">
<path d="M11.25 5.94697V19.9854C11.25 20.702 10.53 21.1965 9.88 20.924C8.02 20.1368 5.71 19.4505 4.07 19.2285L3.76 19.1881C2.79 19.067 2 18.1688 2 17.1898V5.19004C2 3.97896 2.97 3 4.17 3H4.24C6.12 3.16148 8.89 4.0496 10.72 5.04875C11.05 5.23041 11.25 5.56346 11.25 5.94697Z" fill="#141414"/>
<path d="M19.83 3H19.77C19.53 3.02018 19.27 3.05046 19 3.10092C17.77 3.30277 16.31 3.72665 15 4.25145C14.38 4.50376 13.8 4.77625 13.29 5.04875C12.96 5.23041 12.75 5.57355 12.75 5.94697V19.9854C12.75 20.702 13.47 21.1965 14.12 20.924C15.98 20.1368 18.29 19.4505 19.93 19.2285L20.24 19.1881C21.21 19.067 22 18.1688 22 17.1898V5.19004C22 3.97896 21.03 3 19.83 3ZM19.27 13.7483C19.27 14.142 18.99 14.3135 18.65 14.1218L17.59 13.5263C17.48 13.4658 17.3 13.4658 17.18 13.5263L16.12 14.1218C15.78 14.3135 15.5 14.142 15.5 13.7483V10.65C15.5 10.1858 15.88 9.80224 16.34 9.80224H18.44C18.9 9.80224 19.28 10.1858 19.28 10.65V13.7483H19.27Z" fill="#141414"/>
</svg>
