<svg width="24" height="24" viewBox="0 0 24 24" fill="none" xmlns="http://www.w3.org/2000/svg">
<path d="M16.1971 2H7.8129C4.17108 2 2 4.17 2 7.81V16.18C2 19.83 4.17108 22 7.8129 22H16.1871C19.8289 22 22 19.83 22 16.19V7.81C22.01 4.17 19.8389 2 16.1971 2ZM11.5047 17.25C11.5047 17.61 11.1446 17.85 10.8144 17.71C9.60379 17.19 8.023 16.71 6.92245 16.57L6.73236 16.55C6.12205 16.47 5.6218 15.9 5.6218 15.28V7.58C5.6218 6.81 6.24211 6.24 7.00249 6.3C8.25312 6.4 10.104 7 11.2646 7.66C11.4247 7.75 11.5047 7.92 11.5047 8.09V17.25ZM18.3882 15.27C18.3882 15.89 17.8879 16.46 17.2776 16.54L17.0675 16.56C15.977 16.71 14.4062 17.18 13.1956 17.69C12.8654 17.83 12.5052 17.59 12.5052 17.23V8.08C12.5052 7.9 12.5953 7.73 12.7554 7.64C13.9159 6.99 15.7268 6.41 16.9575 6.3H16.9975C17.7679 6.3 18.3882 6.92 18.3882 7.69V15.27Z" fill="#141414"/>
</svg>
