<svg width="24" height="24" viewBox="0 0 24 24" fill="none" xmlns="http://www.w3.org/2000/svg">
<path d="M16.1971 2H7.8129C4.17108 2 2 4.17 2 7.81V16.18C2 19.83 4.17108 22 7.8129 22H16.1871C19.8289 22 22 19.83 22 16.19V7.81C22.01 4.17 19.8389 2 16.1971 2ZM17.0075 15.71C17.0075 17.28 16.147 17.65 15.1065 16.53C14.6263 16.02 13.8859 16.06 13.4657 16.62L12.8754 17.41C12.4052 18.04 11.6248 18.04 11.1546 17.41L10.5543 16.61C10.1341 16.05 9.39368 16.01 8.91344 16.52C7.86292 17.64 7.00249 17.27 7.00249 15.71V9.08C7.00249 6.71 7.56277 6.12 9.78388 6.12H14.2261C16.4472 6.12 17.0075 6.71 17.0075 9.08V15.71Z" fill="#141414"/>
<path d="M14.5062 8H9.50374C9.22746 8 9.00349 8.22386 9.00349 8.5C9.00349 8.77614 9.22746 9 9.50374 9H14.5062C14.7825 9 15.0065 8.77614 15.0065 8.5C15.0065 8.22386 14.7825 8 14.5062 8Z" fill="#141414"/>
</svg>
