<svg width="24" height="24" viewBox="0 0 24 24" fill="none" xmlns="http://www.w3.org/2000/svg">
<path d="M16.1971 2H7.8129C4.17108 2 2 4.17 2 7.81V16.18C2 19.83 4.17108 22 7.8129 22H16.1871C19.8289 22 22 19.83 22 16.19V7.81C22.01 4.17 19.8389 2 16.1971 2ZM16.4172 9.83C15.8069 11.57 14.1661 12.74 12.3251 12.74C12.3151 12.74 12.3151 12.74 12.3051 12.74L10.2441 12.73C10.2441 12.73 10.2441 12.73 10.2341 12.73C9.47372 12.73 8.81339 13.24 8.6133 13.97C9.50374 14.25 10.1541 15.08 10.1541 16.06C10.1541 17.27 9.16357 18.26 7.95297 18.26C6.74236 18.26 5.75187 17.27 5.75187 16.06C5.75187 15.17 6.29214 14.4 7.05252 14.06V9.7C6.29214 9.4 5.75187 8.66 5.75187 7.8C5.75187 6.67 6.67233 5.75 7.80289 5.75C8.93345 5.75 9.85391 6.67 9.85391 7.8C9.85391 8.67 9.31364 9.4 8.55327 9.7V11.72C9.04351 11.41 9.6238 11.23 10.2341 11.23H10.2441L12.3051 11.24C13.4857 11.28 14.5362 10.52 14.9565 9.42C14.4662 9.04 14.1461 8.46 14.1461 7.8C14.1461 6.67 15.0665 5.75 16.1971 5.75C17.3276 5.75 18.2481 6.67 18.2481 7.8C18.2581 8.86 17.4477 9.72 16.4172 9.83Z" fill="#141414"/>
</svg>
