<svg width="24" height="24" viewBox="0 0 24 24" fill="none" xmlns="http://www.w3.org/2000/svg">
<path d="M16.1971 2H7.8129C4.17108 2 2 4.17 2 7.81V16.18C2 19.83 4.17108 22 7.8129 22H16.1871C19.8289 22 22 19.83 22 16.19V7.81C22.01 4.17 19.8389 2 16.1971 2ZM10.1341 14.5C10.4242 14.79 10.4242 15.27 10.1341 15.56C9.98398 15.71 9.79388 15.78 9.60379 15.78C9.41369 15.78 9.2236 15.71 9.07352 15.56L6.58228 13.07C5.99199 12.48 5.99199 11.53 6.58228 10.94L9.07352 8.45C9.36367 8.16 9.84391 8.16 10.1341 8.45C10.4242 8.74 10.4242 9.22 10.1341 9.51L7.64281 12L10.1341 14.5ZM17.4277 13.06L14.9364 15.55C14.7864 15.7 14.5963 15.77 14.4062 15.77C14.2161 15.77 14.026 15.7 13.8759 15.55C13.5858 15.26 13.5858 14.78 13.8759 14.49L16.3672 12L13.8759 9.5C13.5858 9.21 13.5858 8.73 13.8759 8.44C14.1661 8.15 14.6463 8.15 14.9364 8.44L17.4277 10.93C18.018 11.52 18.018 12.48 17.4277 13.06Z" fill="#141414"/>
</svg>
