<svg width="24" height="24" viewBox="0 0 24 24" fill="none" xmlns="http://www.w3.org/2000/svg">
<path d="M6.0625 16.3231V8.40043C7.288 8.08237 8.2 6.96434 8.2 5.61498C8.2 4.01503 6.927 2.72351 5.35 2.72351C3.773 2.72351 2.5 4.01503 2.5 5.61498C2.5 6.96434 3.412 8.08237 4.6375 8.40043V16.3134C3.412 16.6411 2.5 17.7592 2.5 19.1085C2.5 20.7085 3.773 22 5.35 22C6.927 22 8.2 20.7085 8.2 19.1085C8.2 17.7592 7.288 16.6411 6.0625 16.3231Z" fill="#141414"/>
<path d="M19.3625 16.3231V7.06072C19.3625 5.59571 18.194 4.4102 16.75 4.4102H13.9665L15.306 3.28253C15.61 3.02229 15.648 2.5693 15.401 2.26087C15.1445 1.95245 14.698 1.9139 14.394 2.16449L11.544 4.57405C11.3825 4.70899 11.2875 4.91139 11.2875 5.13307C11.2875 5.35475 11.3825 5.54751 11.544 5.69209L14.394 8.10165C14.527 8.21731 14.6885 8.2655 14.85 8.2655C15.0495 8.2655 15.2585 8.17876 15.401 8.00527C15.6575 7.69684 15.61 7.24385 15.306 6.98361L13.9665 5.85594H16.75C17.4055 5.85594 17.9375 6.39568 17.9375 7.06072V16.3231C16.712 16.6411 15.8 17.7592 15.8 19.1085C15.8 20.7085 17.073 22 18.65 22C20.227 22 21.5 20.7085 21.5 19.1085C21.5 17.7592 20.588 16.6411 19.3625 16.3231Z" fill="#141414"/>
</svg>
