<svg width="24" height="24" viewBox="0 0 24 24" fill="none" xmlns="http://www.w3.org/2000/svg">
<path d="M16.75 12.4762C14.128 12.4762 12 14.6095 12 17.2381C12 19.8667 14.128 22 16.75 22C19.372 22 21.5 19.8667 21.5 17.2381C21.5 14.6095 19.372 12.4762 16.75 12.4762ZM15.952 18.4476C16.1895 18.6857 16.1895 19.0762 15.952 19.3238C15.8285 19.4476 15.6765 19.5048 15.515 19.5048C15.3535 19.5048 15.2015 19.4476 15.078 19.3238L13.4345 17.6762C13.197 17.4381 13.197 17.0476 13.4345 16.8L15.078 15.1524C15.3155 14.9143 15.705 14.9143 15.952 15.1524C16.1895 15.3905 16.1895 15.781 15.952 16.0286L14.7455 17.2381L15.952 18.4476ZM20.056 17.6762L18.4125 19.3238C18.289 19.4476 18.137 19.5048 17.9755 19.5048C17.814 19.5048 17.662 19.4476 17.5385 19.3238C17.301 19.0857 17.301 18.6952 17.5385 18.4476L18.7545 17.2381L17.548 16.0286C17.3105 15.7905 17.3105 15.4 17.548 15.1524C17.7855 14.9143 18.175 14.9143 18.422 15.1524L20.0655 16.8C20.2935 17.0476 20.2935 17.4286 20.056 17.6762Z" fill="#141414"/>
<path d="M19.6 6.7619V11.019C19.6 11.3524 19.277 11.581 18.973 11.4667C17.9185 11.0571 16.7405 10.9238 15.5055 11.1714C13.0355 11.6667 11.069 13.6952 10.6605 16.1905C10.4135 17.7143 10.7175 19.1524 11.411 20.3238C11.601 20.6476 11.373 21.0476 11.0025 21.0476H7.25C3.925 21.0476 2.5 19.1429 2.5 16.2857V6.7619C2.5 4.22857 3.621 2.44762 6.1955 2.07619C6.471 2.0381 6.718 2.25714 6.7275 2.54286L6.756 3.50476C6.7845 5.02857 8.067 6.28571 9.606 6.28571H12.475C14.0425 6.28571 15.325 5 15.325 3.42857V2.54286C15.325 2.25714 15.572 2.02857 15.8475 2.06667C18.46 2.41905 19.6 4.20952 19.6 6.7619Z" fill="#141414"/>
<path d="M13.9 2.95238V3.42857C13.9 4.20952 13.254 4.85714 12.475 4.85714H9.5965C8.827 4.85714 8.1905 4.2381 8.1715 3.46667L8.162 2.98095C8.143 2.4381 8.5705 2 9.112 2H12.95C13.4725 2 13.9 2.42857 13.9 2.95238Z" fill="#141414"/>
</svg>
