<svg width="24" height="24" viewBox="0 0 24 24" fill="none" xmlns="http://www.w3.org/2000/svg">
<path d="M16 2H8C4 2 2 3.99402 2 7.98205V12.9671C2 17.9521 4 18.9492 8 18.9492H8.5C8.78 18.9492 9.14 19.1286 9.3 19.348L10.8 21.342C11.46 22.2193 12.54 22.2193 13.2 21.342L14.7 19.348C14.89 19.0987 15.19 18.9492 15.5 18.9492H16C20 18.9492 22 16.9551 22 12.9671V7.98205C22 3.99402 20 2 16 2ZM8.53 12.1695C8.82 12.4586 8.82 12.9372 8.53 13.2263C8.38 13.3759 8.19 13.4457 8 13.4457C7.81 13.4457 7.62 13.3759 7.47 13.2263L5.47 11.2323C5.18 10.9432 5.18 10.4646 5.47 10.1755L7.47 8.18146C7.76 7.89232 8.24 7.89232 8.53 8.18146C8.82 8.47059 8.82 8.94915 8.53 9.23828L7.06 10.7039L8.53 12.1695ZM13.69 8.66999L11.69 13.326C11.57 13.6052 11.29 13.7747 11 13.7747C10.9 13.7747 10.8 13.7547 10.7 13.7149C10.32 13.5553 10.14 13.1166 10.31 12.7278L12.31 8.07178C12.47 7.69292 12.91 7.51346 13.3 7.68295C13.68 7.85244 13.85 8.29113 13.69 8.66999ZM18.53 11.2323L16.53 13.2263C16.38 13.3759 16.19 13.4457 16 13.4457C15.81 13.4457 15.62 13.3759 15.47 13.2263C15.18 12.9372 15.18 12.4586 15.47 12.1695L16.94 10.7039L15.47 9.23828C15.18 8.94915 15.18 8.47059 15.47 8.18146C15.76 7.89232 16.24 7.89232 16.53 8.18146L18.53 10.1755C18.82 10.4646 18.82 10.9432 18.53 11.2323Z" fill="#141414"/>
</svg>
