<svg width="24" height="24" viewBox="0 0 24 24" fill="none" xmlns="http://www.w3.org/2000/svg">
<path d="M16.1971 2H7.8129C4.17108 2 2 4.17 2 7.81V16.18C2 19.83 4.17108 22 7.8129 22H16.1871C19.8289 22 22 19.83 22 16.19V7.81C22.01 4.17 19.8389 2 16.1971 2ZM9.60379 16.2C9.60379 17.19 8.79339 18 7.80289 18C6.8124 18 6.00199 17.19 6.00199 16.2C6.00199 15.21 6.8124 14.4 7.80289 14.4H8.60329C9.15356 14.4 9.60379 14.85 9.60379 15.4V16.2ZM9.60379 8.6C9.60379 9.15 9.15356 9.6 8.60329 9.6H7.80289C6.8124 9.6 6.00199 8.79 6.00199 7.8C6.00199 6.81 6.8124 6 7.80289 6C8.79339 6 9.60379 6.81 9.60379 7.8V8.6ZM14.1561 13.25C14.1561 13.74 13.7559 14.15 13.2556 14.15H10.7444C10.2541 14.15 9.84391 13.75 9.84391 13.25V10.74C9.84391 10.25 10.2441 9.84 10.7444 9.84H13.2556C13.7459 9.84 14.1561 10.24 14.1561 10.74V13.25ZM16.2071 18C15.2166 18 14.4062 17.19 14.4062 16.2V15.4C14.4062 14.85 14.8564 14.4 15.4067 14.4H16.2071C17.1976 14.4 18.008 15.21 18.008 16.2C18.008 17.19 17.1976 18 16.2071 18ZM16.2071 9.6H15.4067C14.8564 9.6 14.4062 9.15 14.4062 8.6V7.8C14.4062 6.81 15.2166 6 16.2071 6C17.1976 6 18.008 6.81 18.008 7.8C18.008 8.79 17.1976 9.6 16.2071 9.6Z" fill="#141414"/>
</svg>
