<svg width="24" height="24" viewBox="0 0 24 24" fill="none" xmlns="http://www.w3.org/2000/svg">
<path d="M12.0251 2.00007C9.64672 1.99087 7.34324 2.85288 5.52906 4.43102C3.71487 6.00916 2.50909 8.19982 2.12863 10.6089C1.74818 13.0179 2.21804 15.4872 3.45367 17.5725C4.6893 19.6578 6.60959 21.2221 8.86905 21.9841C9.36842 22.0661 9.52822 21.7484 9.52822 21.4717V19.7398C6.76172 20.3547 6.17246 18.3972 6.17246 18.3972C5.98595 17.7608 5.58161 17.2148 5.0339 16.86C4.12505 16.2246 5.10382 16.2451 5.10382 16.2451C5.41732 16.2867 5.7176 16.4005 5.98221 16.578C6.24682 16.7555 6.46891 16.992 6.63188 17.2699C6.90931 17.7761 7.37027 18.1494 7.91452 18.3087C8.45877 18.468 9.0423 18.4004 9.53821 18.1205C9.58371 17.601 9.80655 17.1147 10.1674 16.7473C8.03012 16.5218 5.65312 15.6405 5.65312 11.7359C5.62423 10.7126 5.9821 9.71741 6.65186 8.95862C6.34778 8.07669 6.38351 7.10889 6.75173 6.25309C6.75173 6.25309 7.59067 5.97639 9.49826 7.27791C11.1338 6.82676 12.8564 6.82676 14.4919 7.27791C16.3995 5.95589 17.2385 6.25309 17.2385 6.25309C17.6067 7.10889 17.6424 8.07669 17.3383 8.95862C18.0081 9.71741 18.366 10.7126 18.3371 11.7359C18.3371 15.6507 16 16.5116 13.7729 16.7678C14.0127 17.0152 14.1983 17.3123 14.3171 17.6393C14.436 17.9663 14.4854 18.3155 14.462 18.6637V21.4717C14.462 21.7484 14.6218 22.0764 15.1311 21.9841C17.3865 21.2235 19.304 19.6633 20.5399 17.5834C21.7758 15.5035 22.2492 13.0399 21.8753 10.6342C21.5014 8.2286 20.3046 6.03829 18.4995 4.45605C16.6944 2.87381 14.3991 2.00311 12.0251 2.00007Z" fill="#141414"/>
</svg>
