<svg width="24" height="24" viewBox="0 0 24 24" fill="none" xmlns="http://www.w3.org/2000/svg">
<path d="M19.3435 15.8141C19.3435 15.7862 19.3625 15.7583 19.3625 15.7211V6.88419C19.3625 5.47028 18.194 4.32613 16.75 4.32613H13.0165L14.356 3.23779C14.66 2.98663 14.698 2.54944 14.451 2.25177C14.1945 1.95411 13.748 1.9169 13.444 2.15875L10.594 4.48426C10.4325 4.61449 10.3375 4.80983 10.3375 5.02378C10.3375 5.23773 10.4325 5.42377 10.594 5.5633L13.444 7.88881C13.577 8.00043 13.7385 8.04694 13.9 8.04694C14.0995 8.04694 14.3085 7.96322 14.451 7.79579C14.7075 7.49812 14.66 7.06093 14.356 6.80977L13.0165 5.72143H16.75C17.4055 5.72143 17.9375 6.24235 17.9375 6.88419V15.7211C17.9375 15.7583 17.9565 15.7862 17.9565 15.8141C16.7215 16.1211 15.8 17.2095 15.8 18.5117C15.8 20.0559 17.073 21.3023 18.65 21.3023C20.227 21.3023 21.5 20.0559 21.5 18.5117C21.5 17.2095 20.5785 16.1211 19.3435 15.8141Z" fill="#141414"/>
<path d="M13.406 18.4373L10.556 16.1118C10.252 15.8607 9.8055 15.9072 9.549 16.2048C9.2925 16.5025 9.34 16.9397 9.644 17.1908L10.9835 18.2792H7.25C6.5945 18.2792 6.0625 17.7583 6.0625 17.1164V8.27949C6.0625 8.24229 6.0435 8.21438 6.0435 8.18647C7.2785 7.87951 8.2 6.79117 8.2 5.48888C8.2 3.94474 6.927 2.69827 5.35 2.69827C3.773 2.69827 2.5 3.94474 2.5 5.48888C2.5 6.79117 3.4215 7.87951 4.6565 8.18647C4.6565 8.21438 4.6375 8.24229 4.6375 8.27949V17.1164C4.6375 18.5303 5.806 19.6745 7.25 19.6745H10.9835L9.644 20.7628C9.34 21.014 9.302 21.4512 9.549 21.7488C9.6915 21.9163 9.891 22 10.1 22C10.2615 22 10.423 21.9442 10.556 21.8419L13.406 19.5164C13.5675 19.3861 13.6625 19.1908 13.6625 18.9768C13.6625 18.7629 13.5675 18.5769 13.406 18.4373Z" fill="#141414"/>
</svg>
