<svg width="24" height="24" viewBox="0 0 24 24" fill="none" xmlns="http://www.w3.org/2000/svg">
<path d="M16.1971 2H7.8129C4.17108 2 2 4.17 2 7.81V16.18C2 19.83 4.17108 22 7.8129 22H16.1871C19.8289 22 22 19.83 22 16.19V7.81C22.01 4.17 19.8389 2 16.1971 2ZM9.85391 16.45C9.85391 17.58 8.93345 18.5 7.80289 18.5C6.67233 18.5 5.75187 17.58 5.75187 16.45C5.75187 15.58 6.29214 14.85 7.05252 14.55V10.26C6.2121 9.95 5.60179 9.15 5.60179 8.2C5.60179 6.99 6.59229 6 7.80289 6C9.01349 6 10.004 6.99 10.004 8.2C10.004 9.15 9.39368 9.95 8.55327 10.26V14.55C9.31364 14.85 9.85391 15.59 9.85391 16.45ZM16.7574 18.5C15.6268 18.5 14.7063 17.58 14.7063 16.45C14.7063 15.58 15.2466 14.85 16.007 14.55V8.75C16.007 8.61 15.8969 8.5 15.7569 8.5H14.6263L14.8364 8.67C15.1566 8.94 15.1966 9.41 14.9364 9.73C14.7864 9.91 14.5663 10 14.3562 10C14.1861 10 14.016 9.94 13.8759 9.83L12.075 8.33C11.9049 8.18 11.8049 7.97 11.8049 7.75C11.8049 7.53 11.9049 7.32 12.075 7.17L13.8759 5.67C14.1961 5.41 14.6663 5.45 14.9364 5.77C15.2066 6.09 15.1566 6.56 14.8364 6.83L14.6263 7H15.7569C16.7173 7 17.5077 7.79 17.5077 8.75V14.55C18.2681 14.85 18.8084 15.59 18.8084 16.45C18.8084 17.58 17.8879 18.5 16.7574 18.5Z" fill="#141414"/>
</svg>
