<svg width="24" height="24" viewBox="0 0 24 24" fill="none" xmlns="http://www.w3.org/2000/svg">
<path d="M9.69524 11.3619H11.2667L11.4476 9.78095H9.87619L9.69524 11.3619Z" fill="#141414"/>
<path d="M21.019 6.96191C20.8286 4.02857 19.019 2.21905 16.0857 2.02857C15.8952 2.00952 15.7048 2 15.5143 2H7.53333C7.34286 2 7.15238 2.00952 6.96191 2.02857C4.02857 2.21905 2.21905 4.02857 2.02857 6.96191C2.00952 7.15238 2 7.34286 2 7.53333V15.5143C2 15.7048 2.00952 15.8952 2.02857 16.0857C2.21905 19.019 4.02857 20.8286 6.96191 21.019C7.15238 21.0381 7.34286 21.0476 7.53333 21.0476H12.9524C13.4762 21.0476 13.9048 20.619 13.9048 20.0952V17.2667C13.9048 15.4095 15.4095 13.9048 17.2667 13.9048H20.0952C20.619 13.9048 21.0476 13.4762 21.0476 12.9524V7.53333C21.0476 7.34286 21.0381 7.15238 21.019 6.96191ZM15.3333 9.78095H12.8857L12.7048 11.3619H14.8286C15.2286 11.3619 15.5429 11.6857 15.5429 12.0762C15.5429 12.4667 15.2286 12.7905 14.8286 12.7905H12.5524L12.2857 15.1619C12.2476 15.5238 11.9333 15.8 11.5714 15.8C11.5524 15.8 11.5238 15.8 11.4952 15.7905C11.1048 15.7524 10.819 15.4 10.8667 15L11.1143 12.7905H9.54286L9.27619 15.1619C9.2381 15.5238 8.92381 15.8 8.57143 15.8C8.54286 15.8 8.51429 15.8 8.48571 15.7905C8.09524 15.7524 7.80952 15.4 7.85714 15L8.10476 12.7905H5.80952C5.41905 12.7905 5.09524 12.4667 5.09524 12.0762C5.09524 11.6857 5.41905 11.3619 5.80952 11.3619H8.25714L8.4381 9.78095H6.31429C5.91429 9.78095 5.6 9.45714 5.6 9.06667C5.6 8.67619 5.91429 8.35238 6.31429 8.35238H8.59048L8.85714 5.98095C8.90476 5.59048 9.25714 5.30476 9.64762 5.35238C10.0381 5.39048 10.3238 5.74286 10.2762 6.14286L10.0286 8.35238H11.6L11.8667 5.98095C11.9143 5.59048 12.2667 5.30476 12.6571 5.35238C13.0476 5.39048 13.3333 5.74286 13.2857 6.14286L13.0381 8.35238H15.3333C15.7238 8.35238 16.0476 8.67619 16.0476 9.06667C16.0476 9.45714 15.7238 9.78095 15.3333 9.78095Z" fill="#141414"/>
<path d="M20.0667 22H17.2667C16.0571 22 15.3333 21.2762 15.3333 20.0667V17.2667C15.3333 16.0571 16.0571 15.3333 17.2667 15.3333H20.0667C21.2762 15.3333 22 16.0571 22 17.2667V20.0667C22 21.2762 21.2762 22 20.0667 22ZM20.2762 18.8476C20.1619 18.7333 20.0095 18.6762 19.8571 18.6762C19.7048 18.6762 19.5524 18.7333 19.4381 18.8476L19.2667 19.019V16.8857C19.2667 16.5524 19 16.2857 18.6667 16.2857C18.3333 16.2857 18.0667 16.5524 18.0667 16.8857V19.019L17.8952 18.8476C17.6667 18.619 17.2857 18.619 17.0571 18.8476C16.8286 19.0762 16.8286 19.4571 17.0571 19.6857L18.2476 20.8762C18.2952 20.9238 18.3619 20.9619 18.4286 20.9905C18.4476 21 18.4667 21 18.4857 21.0095C18.5333 21.0286 18.581 21.0381 18.6381 21.0381C18.6571 21.0381 18.6762 21.0381 18.6952 21.0381C18.7619 21.0381 18.819 21.0286 18.8857 21C18.8952 21 18.8952 21 18.9048 21C18.9714 20.9714 19.0286 20.9333 19.0762 20.8857C19.0857 20.8762 19.0857 20.8762 19.0952 20.8762L20.2857 19.6857C20.5143 19.4571 20.5143 19.0762 20.2762 18.8476Z" fill="#141414"/>
</svg>
