<svg width="24" height="24" viewBox="0 0 24 24" fill="none" xmlns="http://www.w3.org/2000/svg">
<path d="M10.4242 13.42H13.2656L13.5858 10.58H10.7444L10.4242 13.42Z" fill="#141414"/>
<path d="M16.1971 2H7.8129C4.17108 2 2 4.17 2 7.81V16.18C2 19.83 4.17108 22 7.8129 22H16.1871C19.8289 22 22 19.83 22 16.19V7.81C22.01 4.17 19.8389 2 16.1971 2ZM18.8284 10.58H15.0565L14.7363 13.43H18.108C18.5082 13.43 18.8384 13.76 18.8384 14.16C18.8384 14.56 18.5082 14.89 18.108 14.89H14.5763L14.1661 18.55C14.126 18.92 13.8059 19.2 13.4357 19.2C13.4057 19.2 13.3857 19.2 13.3557 19.2C12.9555 19.16 12.6653 18.79 12.7053 18.39L13.0955 14.89H10.2541L9.84391 18.55C9.80389 18.92 9.48373 19.2 9.11354 19.2C9.08353 19.2 9.06352 19.2 9.0335 19.2C8.63331 19.16 8.34316 18.79 8.38318 18.39L8.77338 14.89H5.18159C4.78139 14.89 4.45122 14.56 4.45122 14.16C4.45122 13.76 4.78139 13.43 5.18159 13.43H8.95346L9.27362 10.58H5.90194C5.50174 10.58 5.17158 10.25 5.17158 9.85C5.17158 9.45 5.50174 9.12 5.90194 9.12H9.4337L9.84391 5.46C9.88393 5.06 10.2541 4.77 10.6543 4.81C11.0545 4.85 11.3447 5.22 11.3046 5.62L10.9144 9.12H13.7559L14.1661 5.46C14.2161 5.06 14.5763 4.77 14.9765 4.81C15.3767 4.85 15.6668 5.22 15.6268 5.62L15.2366 9.12H18.8484C19.2486 9.12 19.5788 9.45 19.5788 9.85C19.5788 10.25 19.2286 10.58 18.8284 10.58Z" fill="#141414"/>
</svg>
