<svg width="24" height="24" viewBox="0 0 24 24" fill="none" xmlns="http://www.w3.org/2000/svg">
<path d="M9.69524 11.3619H11.2667L11.4476 9.78095H9.87619L9.69524 11.3619Z" fill="#141414"/>
<path d="M21.019 6.96191C20.8286 4.02857 19.019 2.21905 16.0857 2.02857C15.8952 2.00952 15.7048 2 15.5143 2H7.53333C7.34286 2 7.15238 2.00952 6.96191 2.02857C4.02857 2.21905 2.21905 4.02857 2.02857 6.96191C2.00952 7.15238 2 7.34286 2 7.53333V15.5143C2 15.7048 2.00952 15.8952 2.02857 16.0857C2.21905 19.019 4.02857 20.8286 6.96191 21.019C7.15238 21.0381 7.34286 21.0476 7.53333 21.0476H12.9524C13.4762 21.0476 13.9048 20.619 13.9048 20.0952V17.2667C13.9048 15.4095 15.4095 13.9048 17.2667 13.9048H20.0952C20.619 13.9048 21.0476 13.4762 21.0476 12.9524V7.53333C21.0476 7.34286 21.0381 7.15238 21.019 6.96191ZM15.3333 9.78095H12.8857L12.7048 11.3619H14.8286C15.2286 11.3619 15.5429 11.6857 15.5429 12.0762C15.5429 12.4667 15.2286 12.7905 14.8286 12.7905H12.5524L12.2857 15.1619C12.2476 15.5238 11.9333 15.8 11.5714 15.8C11.5524 15.8 11.5238 15.8 11.4952 15.7905C11.1048 15.7524 10.819 15.4 10.8667 15L11.1143 12.7905H9.54286L9.27619 15.1619C9.2381 15.5238 8.92381 15.8 8.57143 15.8C8.54286 15.8 8.51429 15.8 8.48571 15.7905C8.09524 15.7524 7.80952 15.4 7.85714 15L8.10476 12.7905H5.80952C5.41905 12.7905 5.09524 12.4667 5.09524 12.0762C5.09524 11.6857 5.41905 11.3619 5.80952 11.3619H8.25714L8.4381 9.78095H6.31429C5.91429 9.78095 5.6 9.45714 5.6 9.06667C5.6 8.67619 5.91429 8.35238 6.31429 8.35238H8.59048L8.85714 5.98095C8.90476 5.59048 9.25714 5.30476 9.64762 5.35238C10.0381 5.39048 10.3238 5.74286 10.2762 6.14286L10.0286 8.35238H11.6L11.8667 5.98095C11.9143 5.59048 12.2667 5.30476 12.6571 5.35238C13.0476 5.39048 13.3333 5.74286 13.2857 6.14286L13.0381 8.35238H15.3333C15.7238 8.35238 16.0476 8.67619 16.0476 9.06667C16.0476 9.45714 15.7238 9.78095 15.3333 9.78095Z" fill="#141414"/>
<path d="M20.0667 15.3333H17.2667C16.0571 15.3333 15.3333 16.0571 15.3333 17.2667V20.0667C15.3333 21.2762 16.0571 22 17.2667 22H20.0667C21.2762 22 22 21.2762 22 20.0667V17.2667C22 16.0571 21.2762 15.3333 20.0667 15.3333ZM20.2762 18.4857C20.1619 18.6 20.0095 18.6571 19.8571 18.6571C19.7048 18.6571 19.5524 18.6 19.4381 18.4857L19.2667 18.3143V20.4476C19.2667 20.781 19 21.0476 18.6667 21.0476C18.3333 21.0476 18.0667 20.781 18.0667 20.4476V18.3143L17.8952 18.4857C17.6667 18.7143 17.2857 18.7143 17.0571 18.4857C16.8286 18.2571 16.8286 17.8762 17.0571 17.6476L18.2476 16.4571C18.2952 16.4095 18.3619 16.3714 18.4286 16.3429C18.4476 16.3333 18.4667 16.3333 18.4857 16.3238C18.5333 16.3048 18.581 16.2952 18.6381 16.2952C18.6571 16.2952 18.6762 16.2952 18.6952 16.2952C18.7619 16.2952 18.819 16.3048 18.8857 16.3333C18.8952 16.3333 18.8952 16.3333 18.9048 16.3333C18.9714 16.3619 19.0286 16.4 19.0762 16.4476C19.0857 16.4571 19.0857 16.4571 19.0952 16.4571L20.2857 17.6476C20.5143 17.8762 20.5143 18.2571 20.2762 18.4857Z" fill="#141414"/>
</svg>
