<svg width="24" height="24" viewBox="0 0 24 24" fill="none" xmlns="http://www.w3.org/2000/svg">
<path d="M15.1764 16.4761H13.4713C12.1267 16.4761 11.0354 15.4202 11.0354 14.1192C11.0354 13.7327 11.3667 13.4122 11.7662 13.4122C12.1656 13.4122 12.4969 13.7327 12.4969 14.1192C12.4969 14.6377 12.9354 15.062 13.4713 15.062H15.1764C15.7123 15.062 16.1508 14.6377 16.1508 14.1192C16.1508 13.6007 15.7123 13.1765 15.1764 13.1765H13.4713C12.1267 13.1765 11.0354 12.1207 11.0354 10.8197C11.0354 9.51872 12.1267 8.46286 13.4713 8.46286H15.1764C16.521 8.46286 17.6123 9.51872 17.6123 10.8197C17.6123 11.2062 17.281 11.5267 16.8815 11.5267C16.4821 11.5267 16.1508 11.2062 16.1508 10.8197C16.1508 10.3012 15.7123 9.87696 15.1764 9.87696H13.4713C12.9354 9.87696 12.4969 10.3012 12.4969 10.8197C12.4969 11.3382 12.9354 11.7624 13.4713 11.7624H15.1764C16.521 11.7624 17.6123 12.8183 17.6123 14.1192C17.6123 15.4202 16.521 16.4761 15.1764 16.4761Z" fill="#141414"/>
<path d="M12.0097 22C11.7272 22 11.4446 21.9341 11.1815 21.7927L9.73947 21.1233C9.37896 20.9536 9.22309 20.5293 9.39848 20.1805C9.57386 19.8317 10.0026 19.6809 10.3728 19.8506L11.8441 20.5388C11.9513 20.5953 12.0487 20.5953 12.1169 20.5576L19.9118 16.372C19.9897 16.3343 20.0385 16.2494 20.0385 16.1645V7.84965C20.0385 7.76481 19.9897 7.68939 19.9118 7.64225L12.1169 3.45653C12.039 3.41882 11.9513 3.41882 11.8831 3.45653L4.08821 7.64225C4.01027 7.67996 3.96154 7.76481 3.96154 7.84965V16.1645C3.96154 16.2494 4.01027 16.3249 4.08821 16.372L6.53385 17.6823C6.91385 17.8897 7.36206 17.8803 7.74206 17.6634C8.12205 17.4466 8.34615 17.0695 8.34615 16.6453L8.3559 9.16948C8.3559 8.78296 8.68719 8.46243 9.08667 8.46243C9.48616 8.46243 9.81744 8.78296 9.81744 9.16948L9.80769 16.6453C9.80769 17.5692 9.31078 18.4082 8.48257 18.8796C7.65437 19.3509 6.66054 19.3604 5.82259 18.9078L3.37694 17.5974C2.8313 17.3052 2.5 16.749 2.5 16.1551V7.84022C2.5 7.2463 2.8313 6.69008 3.37694 6.39784L11.1718 2.21211C11.6882 1.9293 12.3118 1.9293 12.8282 2.21211L20.6231 6.39784C21.1687 6.69008 21.5 7.2463 21.5 7.84022V16.1551C21.5 16.749 21.1687 17.3052 20.6231 17.5974L12.8282 21.7832C12.5749 21.9246 12.2923 22 12.0097 22Z" fill="#141414"/>
</svg>
