<svg width="24" height="24" viewBox="0 0 24 24" fill="none" xmlns="http://www.w3.org/2000/svg">
<path d="M15.0167 2.23244C13.0172 1.92252 10.9778 1.92252 8.9783 2.23244C8.15851 2.36241 7.55865 3.06223 7.55865 3.88202V7.5611H3.87957C3.05978 7.5611 2.35997 8.16097 2.23 8.98077C1.92008 10.9802 1.92008 13.0197 2.23 15.0192C2.35997 15.839 3.05978 16.4389 3.87957 16.4389H5.55915C5.83908 16.4389 6.05903 16.2189 6.05903 15.939V14.2194C6.05903 12.1699 7.72861 10.5003 9.77809 10.5003H14.2169C14.6168 10.5003 14.9368 10.1804 14.9368 9.78055V6.56135C14.9368 6.28142 15.1568 6.06147 15.4367 6.06147H15.9366C16.2164 6.06147 16.4365 5.84153 16.4365 5.5616V3.88202C16.4365 3.06223 15.8365 2.36241 15.0167 2.23244ZM10.3279 5.58158C9.91803 5.58158 9.52815 5.19169 9.52815 4.78179C9.52815 4.3619 9.91803 3.972 10.3279 3.972C10.5278 3.972 10.7479 4.06199 10.8879 4.20196C11.0378 4.34192 11.1378 4.57184 11.1378 4.78179C11.1378 5.19169 10.7478 5.58158 10.3279 5.58158Z" fill="#141414"/>
<path d="M21.7651 8.98078C21.635 8.16099 20.9353 7.56112 20.1155 7.56112H16.9363C16.6564 7.56112 16.4365 7.78107 16.4365 8.061V9.78057C16.4365 11.0002 15.4467 12 14.217 12H9.7781C8.54841 12 7.55866 12.9898 7.55866 14.2195V20.118C7.55866 20.9378 8.15852 21.6376 8.97831 21.7676C10.9778 22.0775 13.0173 22.0775 15.0168 21.7676C15.8365 21.6376 16.4365 20.9378 16.4365 20.118V16.439H20.1155C20.9353 16.439 21.635 15.839 21.7651 15.0192C22.075 13.0197 22.075 10.9803 21.7651 8.98078ZM13.6672 20.028C13.2573 20.028 12.8573 19.6382 12.8573 19.2183C12.8573 18.7984 13.2473 18.4085 13.6672 18.4085C13.8571 18.4085 14.0871 18.4985 14.227 18.6284C14.377 18.7684 14.477 19.0082 14.477 19.2082C14.467 19.6381 14.0771 20.028 13.6672 20.028Z" fill="#141414"/>
</svg>
