<svg width="24" height="24" viewBox="0 0 24 24" fill="none" xmlns="http://www.w3.org/2000/svg">
<path d="M16.75 2H9.15C5.825 2 4.4 3.90476 4.4 6.7619V11.019C4.4 11.3524 4.723 11.581 5.027 11.4667C6.072 11.0571 7.2595 10.9238 8.485 11.1714C10.955 11.6667 12.9215 13.7048 13.33 16.1905C13.577 17.7048 13.273 19.1429 12.5795 20.3333C12.3895 20.6476 12.6175 21.0476 12.988 21.0476H16.75C20.075 21.0476 21.5 19.1429 21.5 16.2857V6.7619C21.5 3.90476 20.075 2 16.75 2ZM19.125 8.90476H17.225C15.781 8.90476 14.6125 7.73333 14.6125 6.28571V4.38095C14.6125 3.99048 14.9355 3.66667 15.325 3.66667C15.7145 3.66667 16.0375 3.99048 16.0375 4.38095V6.28571C16.0375 6.94286 16.5695 7.47619 17.225 7.47619H19.125C19.5145 7.47619 19.8375 7.8 19.8375 8.19048C19.8375 8.58095 19.5145 8.90476 19.125 8.90476Z" fill="#141414"/>
<path d="M7.25 12.4762C4.628 12.4762 2.5 14.6095 2.5 17.2381C2.5 19.8667 4.628 22 7.25 22C9.872 22 12 19.8667 12 17.2381C12 14.6095 9.872 12.4762 7.25 12.4762ZM6.452 18.4476C6.6895 18.6857 6.6895 19.0762 6.452 19.3238C6.3285 19.4476 6.1765 19.5048 6.015 19.5048C5.8535 19.5048 5.7015 19.4476 5.578 19.3238L3.9345 17.6762C3.697 17.4381 3.697 17.0476 3.9345 16.8L5.578 15.1524C5.8155 14.9143 6.205 14.9143 6.452 15.1524C6.6895 15.3905 6.6895 15.781 6.452 16.0286L5.2455 17.2381L6.452 18.4476ZM10.556 17.6762L8.9125 19.3238C8.789 19.4476 8.637 19.5048 8.4755 19.5048C8.314 19.5048 8.162 19.4476 8.0385 19.3238C7.801 19.0857 7.801 18.6952 8.0385 18.4476L9.2545 17.2381L8.048 16.0286C7.8105 15.7905 7.8105 15.4 8.048 15.1524C8.2855 14.9143 8.675 14.9143 8.922 15.1524L10.5655 16.8C10.7935 17.0476 10.7935 17.4286 10.556 17.6762Z" fill="#141414"/>
</svg>
