<svg width="24" height="24" viewBox="0 0 24 24" fill="none" xmlns="http://www.w3.org/2000/svg">
<path d="M16.1971 2H7.8129C4.17108 2 2 4.17 2 7.81V16.18C2 19.83 4.17108 22 7.8129 22H16.1871C19.8289 22 22 19.83 22 16.19V7.81C22.01 4.17 19.8389 2 16.1971 2ZM16.2071 18.25C15.0765 18.25 14.1561 17.33 14.1561 16.2C14.1561 15.54 14.4762 14.96 14.9665 14.58C14.5463 13.48 13.4957 12.72 12.3151 12.76L10.2541 12.77H10.2441C9.6338 12.77 9.05351 12.59 8.56327 12.28V14.3C9.32365 14.6 9.86392 15.34 9.86392 16.2C9.86392 17.33 8.94346 18.25 7.8129 18.25C6.68233 18.25 5.76187 17.33 5.76187 16.2C5.76187 15.33 6.30214 14.6 7.06252 14.3V9.95C6.30214 9.6 5.76187 8.84 5.76187 7.95C5.76187 6.74 6.75237 5.75 7.96297 5.75C9.17357 5.75 10.1641 6.74 10.1641 7.95C10.1641 8.93 9.51374 9.75 8.6233 10.04C8.8234 10.77 9.48373 11.28 10.2441 11.28C10.2441 11.28 10.2441 11.28 10.2541 11.28L12.3151 11.27C12.3251 11.27 12.3251 11.27 12.3351 11.27C14.1761 11.27 15.8269 12.44 16.4272 14.18C17.4577 14.29 18.2681 15.15 18.2681 16.21C18.2581 17.33 17.3376 18.25 16.2071 18.25Z" fill="#141414"/>
</svg>
