<svg width="24" height="24" viewBox="0 0 24 24" fill="none" xmlns="http://www.w3.org/2000/svg">
<path d="M19.8049 14.1951C21.0172 14.1951 22 13.2123 22 12C22 10.7877 21.0172 9.80488 19.8049 9.80488C18.5925 9.80488 17.6098 10.7877 17.6098 12C17.6098 13.2123 18.5925 14.1951 19.8049 14.1951Z" fill="#141414"/>
<path d="M19.8049 6.39024C21.0172 6.39024 22 5.40745 22 4.19512C22 2.98279 21.0172 2 19.8049 2C18.5925 2 17.6098 2.98279 17.6098 4.19512C17.6098 5.40745 18.5925 6.39024 19.8049 6.39024Z" fill="#141414"/>
<path d="M19.8049 22C21.0172 22 22 21.0172 22 19.8049C22 18.5925 21.0172 17.6098 19.8049 17.6098C18.5925 17.6098 17.6098 18.5925 17.6098 19.8049C17.6098 21.0172 18.5925 22 19.8049 22Z" fill="#141414"/>
<path d="M4.19512 14.1951C5.40745 14.1951 6.39024 13.2123 6.39024 12C6.39024 10.7877 5.40745 9.80488 4.19512 9.80488C2.98279 9.80488 2 10.7877 2 12C2 13.2123 2.98279 14.1951 4.19512 14.1951Z" fill="#141414"/>
<path d="M18.8293 12.7317C19.2293 12.7317 19.561 12.4 19.561 12C19.561 11.6 19.2293 11.2683 18.8293 11.2683H11.7561V7.12195C11.7561 5.58049 12.4098 4.92683 13.9512 4.92683H18.8293C19.2293 4.92683 19.561 4.59512 19.561 4.19512C19.561 3.79512 19.2293 3.46341 18.8293 3.46341H13.9512C11.5902 3.46341 10.2927 4.76098 10.2927 7.12195V11.2683H5.17073C4.77073 11.2683 4.43902 11.6 4.43902 12C4.43902 12.4 4.77073 12.7317 5.17073 12.7317H10.2927V16.878C10.2927 19.239 11.5902 20.5366 13.9512 20.5366H18.8293C19.2293 20.5366 19.561 20.2049 19.561 19.8049C19.561 19.4049 19.2293 19.0732 18.8293 19.0732H13.9512C12.4098 19.0732 11.7561 18.4195 11.7561 16.878V12.7317H18.8293Z" fill="#141414"/>
</svg>
