<svg width="24" height="24" viewBox="0 0 24 24" fill="none" xmlns="http://www.w3.org/2000/svg">
<path d="M11.9385 2.20403L9.46926 7.81572H7C6.59016 7.81572 6.19057 7.84573 5.80123 7.92576L6.82582 5.52503L6.8668 5.43501L6.92828 5.27496C6.95902 5.20494 6.97951 5.14492 7.01025 5.0949C8.19877 2.40409 9.53074 1.56384 11.9385 2.20403Z" fill="#141414"/>
<path d="M18.8955 8.08581L18.875 8.0758C18.2602 7.90575 17.6352 7.81572 17 7.81572H10.5861L12.8914 2.58415L12.9221 2.51413C13.0656 2.56414 13.2193 2.63416 13.373 2.68418L15.6373 3.61446C16.8975 4.12461 17.7787 4.65477 18.3217 5.29497C18.4139 5.415 18.4959 5.52503 18.5779 5.65507C18.6701 5.79512 18.7418 5.93516 18.7828 6.0852C18.8238 6.17523 18.8545 6.25525 18.875 6.34528C19.0287 6.85544 19.0389 7.43561 18.8955 8.08581Z" fill="#141414"/>
<path d="M18.4447 9.51624C17.9836 9.3862 17.502 9.31618 17 9.31618H7C6.30328 9.31618 5.64754 9.44622 5.03279 9.7063C3.25 10.4565 2 12.187 2 14.1976V16.1482C2 16.3883 2.02049 16.6184 2.05123 16.8585C2.27664 20.0394 4.01844 21.7399 7.27664 21.95C7.51229 21.98 7.74795 22 8.0041 22H15.9959C19.7869 22 21.7848 20.2395 21.9795 16.7384C21.9898 16.5484 22 16.3483 22 16.1482V14.1976C22 11.987 20.4939 10.1264 18.4447 9.51624ZM14.5615 16.1883H12.7684V17.9988C12.7684 18.4089 12.4201 18.749 12 18.749C11.5799 18.749 11.2316 18.4089 11.2316 17.9988V16.1883H9.43852C9.01844 16.1883 8.67008 15.8581 8.67008 15.438C8.67008 15.0279 9.01844 14.6878 9.43852 14.6878H11.2316V12.9973C11.2316 12.5872 11.5799 12.2471 12 12.2471C12.4201 12.2471 12.7684 12.5872 12.7684 12.9973V14.6878H14.5615C14.9816 14.6878 15.3299 15.0279 15.3299 15.438C15.3299 15.8581 14.9816 16.1883 14.5615 16.1883Z" fill="#141414"/>
</svg>
