<svg width="24" height="24" viewBox="0 0 24 24" fill="none" xmlns="http://www.w3.org/2000/svg">
<path d="M2 12.1634V17.271C2 19.6102 3.85 21.5 6.14 21.5H17.85C20.14 21.5 22 19.6 22 17.2608V12.1634C22 11.479 21.46 10.9274 20.79 10.9274H3.21C2.54 10.9274 2 11.479 2 12.1634ZM8 18.078H6C5.59 18.078 5.25 17.7306 5.25 17.3118C5.25 16.893 5.59 16.5457 6 16.5457H8C8.41 16.5457 8.75 16.893 8.75 17.3118C8.75 17.7306 8.41 18.078 8 18.078ZM14.5 18.078H10.5C10.09 18.078 9.75 17.7306 9.75 17.3118C9.75 16.893 10.09 16.5457 10.5 16.5457H14.5C14.91 16.5457 15.25 16.893 15.25 17.3118C15.25 17.7306 14.91 18.078 14.5 18.078Z" fill="#141414"/>
<path d="M13.5 5.16613V8.15914C13.5 8.84355 12.96 9.39516 12.29 9.39516H3.21C2.53 9.39516 2 8.82312 2 8.13871C2.01 6.98441 2.46 5.93226 3.21 5.16613C3.96 4.4 5 3.93011 6.14 3.93011H12.29C12.96 3.93011 13.5 4.48172 13.5 5.16613Z" fill="#141414"/>
<path d="M19.97 2.5H17.03C15.76 2.5 15 3.27634 15 4.57366V7.57688C15 8.87419 15.76 9.65054 17.03 9.65054H19.97C21.24 9.65054 22 8.87419 22 7.57688V4.57366C22 3.27634 21.24 2.5 19.97 2.5ZM20.91 6.51452C20.81 6.61667 20.66 6.68817 20.5 6.69839H19.09L19.1 8.11828C19.09 8.29194 19.03 8.43495 18.91 8.55753C18.81 8.65968 18.66 8.73118 18.5 8.73118C18.17 8.73118 17.9 8.45538 17.9 8.11828V6.68817L16.5 6.69839C16.17 6.69839 15.9 6.41237 15.9 6.07527C15.9 5.73817 16.17 5.46237 16.5 5.46237L17.9 5.47258V4.04247C17.9 3.70538 18.17 3.41935 18.5 3.41935C18.83 3.41935 19.1 3.70538 19.1 4.04247L19.09 5.46237H20.5C20.83 5.46237 21.1 5.73817 21.1 6.07527C21.09 6.24892 21.02 6.39194 20.91 6.51452Z" fill="#141414"/>
</svg>
