<svg width="24" height="24" viewBox="0 0 24 24" fill="none" xmlns="http://www.w3.org/2000/svg">
<path d="M11.9385 2.20403L9.46926 7.81572H7C6.59016 7.81572 6.19057 7.84573 5.80123 7.92576L6.82582 5.52503L6.8668 5.43501L6.92828 5.27496C6.95902 5.20494 6.97951 5.14492 7.01025 5.0949C8.19877 2.40409 9.53074 1.56384 11.9385 2.20403Z" fill="#141414"/>
<path d="M18.8955 8.08581L18.875 8.0758C18.2602 7.90575 17.6352 7.81572 17 7.81572H10.5861L12.8914 2.58415L12.9221 2.51413C13.0656 2.56414 13.2193 2.63416 13.373 2.68418L15.6373 3.61446C16.8975 4.12461 17.7787 4.65477 18.3217 5.29497C18.4139 5.415 18.4959 5.52503 18.5779 5.65507C18.6701 5.79512 18.7418 5.93516 18.7828 6.0852C18.8238 6.17523 18.8545 6.25525 18.875 6.34528C19.0287 6.85544 19.0389 7.43561 18.8955 8.08581Z" fill="#141414"/>
<path d="M12.5328 17.6587H12.7889C13.0963 17.6587 13.3525 17.3886 13.3525 17.0585C13.3525 16.6384 13.2295 16.5784 12.9631 16.4783L12.5328 16.3283V17.6587Z" fill="#141414"/>
<path d="M18.4447 9.51624C17.9836 9.3862 17.502 9.31618 17 9.31618H7C6.30328 9.31618 5.64754 9.44622 5.03279 9.7063C3.25 10.4565 2 12.187 2 14.1976V16.1482C2 16.3883 2.02049 16.6184 2.05123 16.8585C2.27664 20.0394 4.01844 21.7399 7.27664 21.95C7.51229 21.98 7.74795 22 8.0041 22H15.9959C19.7869 22 21.7848 20.2395 21.9795 16.7384C21.9898 16.5484 22 16.3483 22 16.1482V14.1976C22 11.987 20.4939 10.1264 18.4447 9.51624ZM13.3115 15.498C13.7828 15.6581 14.418 15.9982 14.418 17.0585C14.418 17.9688 13.6906 18.699 12.7889 18.699H12.5328V18.9191C12.5328 19.2092 12.2971 19.4392 12 19.4392C11.7029 19.4392 11.4672 19.2092 11.4672 18.9191V18.699H11.375C10.3914 18.699 9.58197 17.8888 9.58197 16.8885C9.58197 16.5984 9.81762 16.3683 10.1148 16.3683C10.4119 16.3683 10.6475 16.5984 10.6475 16.8885C10.6475 17.3086 10.9754 17.6587 11.375 17.6587H11.4672V15.9682L10.6885 15.6981C10.2172 15.5381 9.58197 15.198 9.58197 14.1376C9.58197 13.2274 10.3094 12.4971 11.2111 12.4971H11.4672V12.2771C11.4672 11.987 11.7029 11.7569 12 11.7569C12.2971 11.7569 12.5328 11.987 12.5328 12.2771V12.4971H12.625C13.6086 12.4971 14.418 13.3074 14.418 14.3077C14.418 14.5978 14.1824 14.8278 13.8852 14.8278C13.5881 14.8278 13.3525 14.5978 13.3525 14.3077C13.3525 13.8876 13.0246 13.5375 12.625 13.5375H12.5328V15.228L13.3115 15.498Z" fill="#141414"/>
<path d="M10.6475 14.1376C10.6475 14.5578 10.7705 14.6178 11.0369 14.7178L11.4672 14.8679V13.5375H11.2111C10.8934 13.5375 10.6475 13.8075 10.6475 14.1376Z" fill="#141414"/>
</svg>
