<svg width="24" height="24" viewBox="0 0 24 24" fill="none" xmlns="http://www.w3.org/2000/svg">
<path d="M16.0099 2H8.00057C3.99588 2 3 3.01088 3 7.04441V18.3143C3 20.9766 4.54679 21.6072 6.422 19.7055L6.43259 19.6955C7.30133 18.8247 8.62564 18.8948 9.37784 19.8456L10.4479 21.1968C11.306 22.2677 12.6939 22.2677 13.552 21.1968L14.6221 19.8456C15.3849 18.8848 16.7092 18.8147 17.5779 19.6955C19.4637 21.5971 20.9999 20.9666 20.9999 18.3043V7.04441C21.0105 3.01088 20.0146 2 16.0099 2ZM7.53441 12.0088C6.95172 12.0088 6.47497 11.5584 6.47497 11.0079C6.47497 10.4574 6.95172 10.007 7.53441 10.007C8.11711 10.007 8.59385 10.4574 8.59385 11.0079C8.59385 11.5584 8.11711 12.0088 7.53441 12.0088ZM7.53441 8.00525C6.95172 8.00525 6.47497 7.55486 6.47497 7.00438C6.47497 6.4539 6.95172 6.0035 7.53441 6.0035C8.11711 6.0035 8.59385 6.4539 8.59385 7.00438C8.59385 7.55486 8.11711 8.00525 7.53441 8.00525ZM16.4867 11.7585H10.6598C10.2254 11.7585 9.86518 11.4182 9.86518 11.0079C9.86518 10.5975 10.2254 10.2572 10.6598 10.2572H16.4867C16.9211 10.2572 17.2813 10.5975 17.2813 11.0079C17.2813 11.4182 16.9211 11.7585 16.4867 11.7585ZM16.4867 7.75504H10.6598C10.2254 7.75504 9.86518 7.41474 9.86518 7.00438C9.86518 6.59402 10.2254 6.25372 10.6598 6.25372H16.4867C16.9211 6.25372 17.2813 6.59402 17.2813 7.00438C17.2813 7.41474 16.9211 7.75504 16.4867 7.75504Z" fill="#141414"/>
</svg>
