<svg width="24" height="24" viewBox="0 0 24 24" fill="none" xmlns="http://www.w3.org/2000/svg">
<path d="M16.1971 2H7.8129C4.17108 2 2 4.17 2 7.81V16.18C2 19.83 4.17108 22 7.8129 22H16.1871C19.8289 22 22 19.83 22 16.19V7.81C22.01 4.17 19.8389 2 16.1971 2ZM9.11354 16.9C9.11354 17.18 8.89343 17.4 8.6133 17.4H5.8219C5.54176 17.4 5.32166 17.18 5.32166 16.9V12.28C5.32166 11.65 5.83191 11.14 6.46222 11.14H8.6133C8.89343 11.14 9.11354 11.36 9.11354 11.64V16.9ZM13.8959 16.9C13.8959 17.18 13.6758 17.4 13.3957 17.4H10.6043C10.3241 17.4 10.104 17.18 10.104 16.9V7.74C10.104 7.11 10.6143 6.6 11.2446 6.6H12.7654C13.3957 6.6 13.9059 7.11 13.9059 7.74V16.9H13.8959ZM18.6883 16.9C18.6883 17.18 18.4682 17.4 18.1881 17.4H15.3967C15.1165 17.4 14.8964 17.18 14.8964 16.9V13.35C14.8964 13.07 15.1165 12.85 15.3967 12.85H17.5477C18.1781 12.85 18.6883 13.36 18.6883 13.99V16.9Z" fill="#141414"/>
</svg>
