<svg width="24" height="24" viewBox="0 0 24 24" fill="none" xmlns="http://www.w3.org/2000/svg">
<path d="M15.7872 2H8.22276C4.44055 2 3.5 3.01088 3.5 7.04441V18.3143C3.5 20.9766 4.96085 21.6072 6.73189 19.7055L6.74189 19.6955C7.56237 18.8247 8.8131 18.8948 9.52352 19.8456L10.5341 21.1968C11.3446 22.2677 12.6553 22.2677 13.4658 21.1968L14.4764 19.8456C15.1968 18.8848 16.4476 18.8147 17.268 19.6955C19.0491 21.5971 20.4999 20.9666 20.4999 18.3043V7.04441C20.5099 3.01088 19.5694 2 15.7872 2ZM15.0067 11.7585H9.00321C8.59297 11.7585 8.25277 11.4182 8.25277 11.0079C8.25277 10.5975 8.59297 10.2572 9.00321 10.2572H15.0067C15.417 10.2572 15.7572 10.5975 15.7572 11.0079C15.7572 11.4182 15.417 11.7585 15.0067 11.7585ZM16.0073 7.75504H8.00263C7.59239 7.75504 7.25219 7.41474 7.25219 7.00438C7.25219 6.59402 7.59239 6.25372 8.00263 6.25372H16.0073C16.4175 6.25372 16.7577 6.59402 16.7577 7.00438C16.7577 7.41474 16.4175 7.75504 16.0073 7.75504Z" fill="#141414"/>
</svg>
