<svg width="24" height="24" viewBox="0 0 24 24" fill="none" xmlns="http://www.w3.org/2000/svg">
<path d="M16.6667 8.72472V8.25C16.6667 6.1125 13.5142 4.5 9.33333 4.5C5.1525 4.5 2 6.1125 2 8.25V11.6591C2 13.4395 4.1875 14.8543 7.33333 15.2778V15.75C7.33333 17.8875 10.4858 19.5 14.6667 19.5C18.8475 19.5 22 17.8875 22 15.75V12.3409C22 10.5767 19.8817 9.16023 16.6667 8.72472ZM6 13.6082C4.3675 13.142 3.33333 12.3741 3.33333 11.6591V10.4599C4.01333 10.9526 4.92417 11.3497 6 11.6165V13.6082ZM12.6667 11.6165C13.7425 11.3497 14.6533 10.9526 15.3333 10.4599V11.6591C15.3333 12.3741 14.2992 13.142 12.6667 13.6082V11.6165ZM11.3333 17.6991C9.70083 17.233 8.66667 16.4651 8.66667 15.75V15.3946C8.88583 15.4031 9.1075 15.4091 9.33333 15.4091C9.65667 15.4091 9.9725 15.398 10.2825 15.3793C10.6269 15.5053 10.9777 15.6123 11.3333 15.6997V17.6991ZM11.3333 13.8963C10.6712 13.9964 10.0027 14.0462 9.33333 14.0455C8.66398 14.0462 7.9955 13.9964 7.33333 13.8963V11.8688C7.99648 11.9571 8.66458 12.001 9.33333 12C10.0021 12.001 10.6702 11.9571 11.3333 11.8688V13.8963ZM16.6667 17.9872C15.3404 18.1861 13.9929 18.1861 12.6667 17.9872V15.9545C13.3296 16.0457 13.9978 16.0912 14.6667 16.0909C15.3354 16.0919 16.0035 16.048 16.6667 15.9597V17.9872ZM20.6667 15.75C20.6667 16.4651 19.6325 17.233 18 17.6991V15.7074C19.0758 15.4406 19.9867 15.0435 20.6667 14.5509V15.75Z" fill="#141414"/>
</svg>
