<svg width="24" height="24" viewBox="0 0 24 24" fill="none" xmlns="http://www.w3.org/2000/svg">
<path d="M19.2682 3.65229L14.1695 8.75166H3.2022C2.54236 8.75166 2.0025 8.21172 2.0025 7.55181V7.54181C2.0025 5.25209 3.85204 3.40232 6.14146 3.40232H17.8485C18.3484 3.40232 18.8283 3.49231 19.2682 3.65229Z" fill="#141414"/>
<path d="M12.6698 10.2515L7.17121 15.7508H6.0015C5.5916 15.7508 5.25169 16.0907 5.25169 16.5007C5.25169 16.8106 5.45164 17.0906 5.73157 17.1906L3.38215 19.5403C2.53237 18.7904 2.0025 17.6905 2.0025 16.4607V11.4513C2.0025 10.7914 2.54236 10.2515 3.2022 10.2515H12.6698Z" fill="#141414"/>
<path d="M21.9975 11.0014V16.4607C21.9975 18.7504 20.148 20.6002 17.8585 20.6002H8.8108C7.92102 20.6002 7.47113 19.5203 8.10098 18.8904L9.45064 17.5406C9.64059 17.3506 9.89053 17.2506 10.1605 17.2506H14.4994C14.9093 17.2506 15.2492 16.9106 15.2492 16.5007C15.2492 16.0907 14.9093 15.7508 14.4994 15.7508H13.6596C12.7698 15.7508 12.3199 14.6709 12.9498 14.041L16.4089 10.5814C16.7888 10.2115 17.2987 10.0015 17.8285 10.0015H20.9977C21.5476 10.0015 21.9975 10.4514 21.9975 11.0014Z" fill="#141414"/>
<path d="M21.7676 2.23247C21.4676 1.93251 20.9778 1.93251 20.6778 2.23247L2.23244 20.6902C1.93252 20.9901 1.93252 21.4801 2.23244 21.78C2.3824 21.92 2.57236 22 2.77231 22C2.97226 22 3.16221 21.92 3.31217 21.77L21.7676 3.31234C22.0775 3.01237 22.0775 2.53243 21.7676 2.23247Z" fill="#141414"/>
<path d="M21.7676 3.31234L3.31217 21.77C3.16221 21.92 2.97226 22 2.77231 22C2.57236 22 2.3824 21.92 2.23244 21.77C1.92252 21.4701 1.92252 20.9901 2.23244 20.6902L3.38215 19.5403L5.73157 17.1906L19.2682 3.65229L20.6878 2.23247C20.9878 1.92251 21.4676 1.92251 21.7676 2.23247C22.0775 2.53243 22.0775 3.01237 21.7676 3.31234Z" fill="#141414"/>
<path d="M21.9975 7.41182C21.9975 6.52193 20.9178 6.07199 20.2879 6.70191L19.998 7.00187L19.7081 7.29184C19.0782 7.92176 19.5181 9.00162 20.4079 9.00162H20.9977C21.5476 9.00162 21.9975 8.55168 21.9975 8.00175V7.41182Z" fill="#141414"/>
<path d="M21.7676 2.23247C21.4676 1.93251 20.9778 1.93251 20.6778 2.23247L2.23244 20.6902C1.93252 20.9901 1.93252 21.4801 2.23244 21.78C2.3824 21.92 2.57236 22 2.77231 22C2.97226 22 3.16221 21.92 3.31217 21.77L21.7676 3.31234C22.0775 3.01237 22.0775 2.53243 21.7676 2.23247Z" fill="#141414"/>
</svg>
