<svg width="24" height="24" viewBox="0 0 24 24" fill="none" xmlns="http://www.w3.org/2000/svg">
<path d="M17.6843 7.589C16.2036 6.87675 14.2379 6.5 12 6.5C9.76214 6.5 7.79643 6.87675 6.31571 7.589C4.835 8.30125 4 9.30363 4 10.35V13.65C4 14.6964 4.84429 15.7022 6.31571 16.411C7.78714 17.1198 9.76214 17.5 12 17.5C14.2379 17.5 16.2036 17.1233 17.6843 16.411C19.165 15.6988 20 14.6964 20 13.65V10.35C20 9.30363 19.1557 8.29781 17.6843 7.589ZM11.4286 14.189V16.389C10.0714 16.3464 8.92857 16.1539 8 15.8741V13.7222C9.11938 14.0092 10.2704 14.1664 11.4286 14.1904V14.189ZM12.5714 14.189C13.7296 14.165 14.8806 14.0079 16 13.7208V15.8734C15.0714 16.1532 13.9286 16.3457 12.5714 16.3883V14.189ZM5.14286 13.65V12.3802C5.50247 12.6675 5.89616 12.9128 6.31571 13.111C6.48929 13.1942 6.67286 13.2726 6.85714 13.3468V15.4375C5.72643 14.8985 5.14286 14.2199 5.14286 13.65ZM17.1429 15.4375V13.3468C17.3293 13.2726 17.5107 13.1942 17.6843 13.111C18.1038 12.9128 18.4975 12.6675 18.8571 12.3802V13.65C18.8571 14.2199 18.2736 14.8985 17.1429 15.4375Z" fill="#141414"/>
</svg>
