<svg width="24" height="24" viewBox="0 0 24 24" fill="none" xmlns="http://www.w3.org/2000/svg">
<path d="M2 12.1634V17.271C2 19.6102 3.85 21.5 6.14 21.5H17.85C20.14 21.5 22 19.6 22 17.2608V12.1634C22 11.479 21.46 10.9274 20.79 10.9274H3.21C2.54 10.9274 2 11.479 2 12.1634ZM8 18.078H6C5.59 18.078 5.25 17.7306 5.25 17.3118C5.25 16.893 5.59 16.5457 6 16.5457H8C8.41 16.5457 8.75 16.893 8.75 17.3118C8.75 17.7306 8.41 18.078 8 18.078ZM14.5 18.078H10.5C10.09 18.078 9.75 17.7306 9.75 17.3118C9.75 16.893 10.09 16.5457 10.5 16.5457H14.5C14.91 16.5457 15.25 16.893 15.25 17.3118C15.25 17.7306 14.91 18.078 14.5 18.078Z" fill="#141414"/>
<path d="M13.5 5.16613V8.15914C13.5 8.84355 12.96 9.39516 12.29 9.39516H3.21C2.53 9.39516 2 8.82312 2 8.13871C2.01 6.98441 2.46 5.93226 3.21 5.16613C3.96 4.4 5 3.93011 6.14 3.93011H12.29C12.96 3.93011 13.5 4.48172 13.5 5.16613Z" fill="#141414"/>
<path d="M19.97 2.5H17.03C15.76 2.5 15 3.27634 15 4.57366V7.57688C15 8.87419 15.76 9.65054 17.03 9.65054H19.97C21.24 9.65054 22 8.87419 22 7.57688V4.57366C22 3.27634 21.24 2.5 19.97 2.5ZM20.63 5.00269L18.26 7.83226C18.17 7.94462 18.03 8.01613 17.89 8.01613C17.88 8.01613 17.88 8.01613 17.87 8.01613C17.73 8.01613 17.6 7.96505 17.5 7.8629L16.4 6.75968C16.2 6.55538 16.2 6.21828 16.4 6.01398C16.6 5.80968 16.93 5.79946 17.13 6.01398L17.83 6.71882L19.83 4.32849C20.02 4.10376 20.34 4.08333 20.56 4.2672C20.79 4.45108 20.81 4.78817 20.63 5.00269Z" fill="#141414"/>
</svg>
