<svg width="24" height="24" viewBox="0 0 24 24" fill="none" xmlns="http://www.w3.org/2000/svg">
<path d="M18.1722 13.7567C16.0574 13.7567 14.3445 15.4893 14.3445 17.6284C14.3445 19.7674 16.0574 21.5 18.1722 21.5C20.2871 21.5 22 19.7674 22 17.6284C22 15.4893 20.2871 13.7567 18.1722 13.7567ZM19.7034 19.2254C19.5598 19.3706 19.378 19.4384 19.1962 19.4384C19.0144 19.4384 18.8325 19.3706 18.689 19.2254L18.1818 18.7124L17.6555 19.2448C17.512 19.39 17.3301 19.4577 17.1483 19.4577C16.9665 19.4577 16.7847 19.39 16.6411 19.2448C16.3636 18.9641 16.3636 18.4995 16.6411 18.2188L17.1675 17.6864L16.6603 17.1735C16.3828 16.8928 16.3828 16.4282 16.6603 16.1475C16.9378 15.8668 17.3971 15.8668 17.6746 16.1475L18.1818 16.6605L18.6603 16.1765C18.9378 15.8958 19.3971 15.8958 19.6746 16.1765C19.9522 16.4572 19.9522 16.9218 19.6746 17.2025L19.1962 17.6864L19.7034 18.1994C19.9809 18.4801 19.9809 18.9447 19.7034 19.2254Z" fill="#141414"/>
<path d="M21.1388 6.51681V6.95237C21.1388 7.48472 20.7081 7.92027 20.1818 7.92027H2.95694C2.43062 7.92027 2 7.48472 2 6.95237V6.50713C2 4.29063 3.77033 2.5 5.96172 2.5H17.1675C19.3589 2.5 21.1388 4.30031 21.1388 6.51681Z" fill="#141414"/>
<path d="M2 10.34V15.1409C2 17.3574 3.77033 19.148 5.96172 19.148H11.9522C12.5072 19.148 12.9856 18.6737 12.9378 18.1123C12.8038 16.6314 13.2727 15.0247 14.5742 13.7471C15.11 13.2147 15.7703 12.8082 16.488 12.5759C17.6842 12.1887 18.8421 12.2371 19.866 12.5856C20.488 12.7985 21.1388 12.3436 21.1388 11.6758V10.3304C21.1388 9.79801 20.7081 9.36245 20.1818 9.36245H2.95694C2.43062 9.37213 2 9.80769 2 10.34ZM7.74163 15.9055H5.82775C5.43541 15.9055 5.11005 15.5764 5.11005 15.1796C5.11005 14.7827 5.43541 14.4536 5.82775 14.4536H7.74163C8.13397 14.4536 8.45933 14.7827 8.45933 15.1796C8.45933 15.5764 8.13397 15.9055 7.74163 15.9055Z" fill="#141414"/>
</svg>
