<svg width="24" height="24" viewBox="0 0 24 24" fill="none" xmlns="http://www.w3.org/2000/svg">
<path d="M22 7.34302C22 8.03372 21.46 8.59884 20.8 8.59884H3.2C2.54 8.59884 2 8.03372 2 7.34302V7.33256C2 4.93605 3.85 3 6.14 3H17.85C20.14 3 22 4.94651 22 7.34302Z" fill="#141414"/>
<path d="M2 11.4244V16.6674C2 19.064 3.85 21 6.14 21H17.85C20.14 21 22 19.0535 22 16.657V11.4244C22 10.7337 21.46 10.1686 20.8 10.1686H3.2C2.54 10.1686 2 10.7337 2 11.4244ZM8 17.4942H6C5.59 17.4942 5.25 17.1384 5.25 16.7093C5.25 16.2802 5.59 15.9244 6 15.9244H8C8.41 15.9244 8.75 16.2802 8.75 16.7093C8.75 17.1384 8.41 17.4942 8 17.4942ZM14.5 17.4942H10.5C10.09 17.4942 9.75 17.1384 9.75 16.7093C9.75 16.2802 10.09 15.9244 10.5 15.9244H14.5C14.91 15.9244 15.25 16.2802 15.25 16.7093C15.25 17.1384 14.91 17.4942 14.5 17.4942Z" fill="#141414"/>
</svg>
