<svg width="24" height="24" viewBox="0 0 24 24" fill="none" xmlns="http://www.w3.org/2000/svg">
<path d="M18.9597 6.4434C18.542 4.39623 16.9781 3.5 14.8023 3.5H6.27392C3.70957 3.5 2 4.74528 2 7.65094V12.5094C2 14.6038 2.88392 15.8302 4.34094 16.3585C4.55464 16.434 4.78776 16.5 5.0306 16.5377C5.41914 16.6226 5.83681 16.6604 6.27392 16.6604H14.812C17.3764 16.6604 19.086 15.4151 19.086 12.5094V7.65094C19.086 7.20755 19.0471 6.81132 18.9597 6.4434ZM5.71054 11.5C5.71054 11.8868 5.38028 12.2075 4.98203 12.2075C4.58378 12.2075 4.25352 11.8868 4.25352 11.5V8.66981C4.25352 8.28302 4.58378 7.96226 4.98203 7.96226C5.38028 7.96226 5.71054 8.28302 5.71054 8.66981V11.5ZM10.5381 12.5755C9.11996 12.5755 7.97377 11.4623 7.97377 10.0849C7.97377 8.70755 9.11996 7.59434 10.5381 7.59434C11.9563 7.59434 13.1025 8.70755 13.1025 10.0849C13.1025 11.4623 11.9563 12.5755 10.5381 12.5755ZM16.813 11.5C16.813 11.8868 16.4828 12.2075 16.0845 12.2075C15.6863 12.2075 15.356 11.8868 15.356 11.5V8.66981C15.356 8.28302 15.6863 7.96226 16.0845 7.96226C16.4828 7.96226 16.813 8.28302 16.813 8.66981V11.5Z" fill="#141414"/>
<path d="M22 10.4811V15.3396C22 18.2453 20.2904 19.5 17.7164 19.5H9.18795C8.45945 19.5 7.80864 19.3962 7.24526 19.1887C6.78873 19.0283 6.39048 18.7925 6.06994 18.4906C5.89509 18.3302 6.03108 18.0755 6.27392 18.0755H14.8023C18.3963 18.0755 20.5333 16 20.5333 12.5189V7.65094C20.5333 7.42453 20.7955 7.28302 20.9607 7.45283C21.6212 8.13208 22 9.12264 22 10.4811Z" fill="#141414"/>
</svg>
