<svg width="24" height="24" viewBox="0 0 24 24" fill="none" xmlns="http://www.w3.org/2000/svg">
<path d="M19.97 9.5557H17.03C15.76 9.5557 15 8.78966 15 7.50955V4.54615C15 3.26605 15.76 2.5 17.03 2.5H19.97C21.24 2.5 22 3.26605 22 4.54615V7.50955C22 8.78966 21.24 9.5557 19.97 9.5557ZM20.19 6.21936C20.07 6.09841 19.91 6.03793 19.75 6.03793C19.59 6.03793 19.43 6.09841 19.31 6.21936L19.13 6.4008V4.14297C19.13 3.79019 18.85 3.50796 18.5 3.50796C18.15 3.50796 17.87 3.79019 17.87 4.14297V6.4008L17.69 6.21936C17.45 5.97745 17.05 5.97745 16.81 6.21936C16.57 6.46127 16.57 6.86446 16.81 7.10637L18.06 8.36631C18.11 8.41671 18.18 8.45703 18.25 8.48727C18.27 8.49735 18.29 8.49735 18.31 8.50743C18.36 8.52759 18.41 8.53767 18.47 8.53767C18.49 8.53767 18.51 8.53767 18.53 8.53767C18.6 8.53767 18.66 8.52759 18.73 8.49735C18.74 8.49735 18.74 8.49735 18.75 8.49735C18.82 8.46711 18.88 8.42679 18.93 8.37639C18.94 8.36631 18.94 8.36631 18.95 8.36631L20.2 7.10637C20.44 6.86446 20.44 6.46127 20.19 6.21936Z" fill="#141414"/>
<path d="M2 12.2873V17.3271C2 19.6353 3.85 21.5 6.14 21.5H17.85C20.14 21.5 22 19.6252 22 17.317V12.2873C22 11.6119 21.46 11.0676 20.79 11.0676H3.21C2.54 11.0676 2 11.6119 2 12.2873ZM8 18.1233H6C5.59 18.1233 5.25 17.7806 5.25 17.3674C5.25 16.9541 5.59 16.6114 6 16.6114H8C8.41 16.6114 8.75 16.9541 8.75 17.3674C8.75 17.7806 8.41 18.1233 8 18.1233ZM14.5 18.1233H10.5C10.09 18.1233 9.75 17.7806 9.75 17.3674C9.75 16.9541 10.09 16.6114 10.5 16.6114H14.5C14.91 16.6114 15.25 16.9541 15.25 17.3674C15.25 17.7806 14.91 18.1233 14.5 18.1233Z" fill="#141414"/>
<path d="M13.5 5.38276V8.33607C13.5 9.01141 12.96 9.5557 12.29 9.5557H3.21C2.53 9.5557 2 8.99125 2 8.31592C2.01 7.17692 2.46 6.13873 3.21 5.38276C3.96 4.62679 5 4.16313 6.14 4.16313H12.29C12.96 4.16313 13.5 4.70743 13.5 5.38276Z" fill="#141414"/>
</svg>
