<svg width="24" height="24" viewBox="0 0 24 24" fill="none" xmlns="http://www.w3.org/2000/svg">
<path d="M22 4.2V4.31C22 4.59 21.78 4.81 21.5 4.81H12.5C12.22 4.81 12 4.59 12 4.31V4.2C12 2.44 12.44 2 14.22 2H19.78C21.56 2 22 2.44 22 4.2Z" fill="#141414"/>
<path d="M12.5 5.81C12.22 5.81 12 6.03 12 6.31V8.3C12 10.06 12.44 10.5 14.22 10.5H19.78C21.56 10.5 22 10.06 22 8.3V6.31C22 6.03 21.78 5.81 21.5 5.81H12.5Z" fill="#141414"/>
<path d="M12 15.7V15.81C12 16.09 11.78 16.31 11.5 16.31H2.5C2.22 16.31 2 16.09 2 15.81V15.7C2 13.94 2.44 13.5 4.22 13.5H9.78C11.56 13.5 12 13.94 12 15.7Z" fill="#141414"/>
<path d="M2.5 17.31C2.22 17.31 2 17.53 2 17.81V19.8C2 21.56 2.44 22 4.22 22H9.78C11.56 22 12 21.56 12 19.8V17.81C12 17.53 11.78 17.31 11.5 17.31H2.5Z" fill="#141414"/>
<path d="M9.1101 2C5.19266 2 2 5.20736 2 9.14283C2 9.52071 2.31193 9.83407 2.68807 9.83407C3.06422 9.83407 3.37615 9.52071 3.37615 9.14283C3.37615 6.41473 5.26606 4.12902 7.80734 3.52995L7.55964 3.94469C7.36698 4.27649 7.46789 4.70045 7.79817 4.894C8.11927 5.08755 8.55046 4.98616 8.74312 4.65437L9.70643 3.04147C9.82569 2.82949 9.83487 2.57143 9.70643 2.35023C9.58716 2.13825 9.3578 2 9.1101 2Z" fill="#141414"/>
<path d="M21.3159 14.1658C20.9397 14.1658 20.6278 14.4791 20.6278 14.857C20.6278 17.5851 18.7379 19.8708 16.1966 20.4699L16.4443 20.0552C16.637 19.7234 16.5361 19.2994 16.2058 19.1058C15.8847 18.9123 15.4535 19.0137 15.2608 19.3455L14.2975 20.9584C14.1691 21.1704 14.1691 21.4376 14.2883 21.6496C14.4076 21.8708 14.637 21.9998 14.8847 21.9998C18.8021 21.9998 21.9948 18.7925 21.9948 14.857C22.0039 14.4791 21.692 14.1658 21.3159 14.1658Z" fill="#141414"/>
</svg>
