<svg width="24" height="24" viewBox="0 0 24 24" fill="none" xmlns="http://www.w3.org/2000/svg">
<path d="M22 21.2496C22 21.6598 21.66 22 21.25 22H2.75C2.34 22 2 21.6598 2 21.2496C2 20.8394 2.34 20.4992 2.75 20.4992H21.25C21.66 20.4992 22 20.8394 22 21.2496Z" fill="#141414"/>
<path d="M15.39 4.51126L4.65 15.2566C4.24 15.6668 3.58 15.6668 3.18 15.2566H3.17C1.78 13.8559 1.78 11.5948 3.17 10.2041L10.32 3.05053C11.72 1.64982 13.98 1.64982 15.38 3.05053C15.79 3.44072 15.79 4.11106 15.39 4.51126Z" fill="#141414"/>
<path d="M20.82 8.4833L17.77 5.43178C17.36 5.02157 16.7 5.02157 16.3 5.43178L5.56 16.1772C5.15 16.5774 5.15 17.2377 5.56 17.6479L8.61 20.7094C10.01 22.1001 12.27 22.1001 13.67 20.7094L20.81 13.5558C22.23 12.1551 22.23 9.884 20.82 8.4833ZM12.76 17.5178L11.55 18.7384C11.3 18.9886 10.89 18.9886 10.63 18.7384C10.38 18.4883 10.38 18.0781 10.63 17.818L11.85 16.5974C12.09 16.3572 12.51 16.3572 12.76 16.5974C13.01 16.8475 13.01 17.2777 12.76 17.5178ZM16.73 13.5458L14.29 15.9971C14.04 16.2372 13.63 16.2372 13.37 15.9971C13.12 15.7469 13.12 15.3367 13.37 15.0766L15.82 12.6254C16.06 12.3853 16.48 12.3853 16.73 12.6254C16.98 12.8855 16.98 13.2957 16.73 13.5458Z" fill="#141414"/>
</svg>
