<svg width="24" height="24" viewBox="0 0 24 24" fill="none" xmlns="http://www.w3.org/2000/svg">
<path d="M21.9521 16.7738C21.6216 19.4381 19.4381 21.6216 16.7738 21.9522C15.1612 22.1525 13.6588 21.7118 12.4869 20.8504C11.8158 20.3596 11.9761 19.3179 12.7774 19.0775C15.7922 18.1661 18.166 15.7822 19.0875 12.7674C19.3279 11.9761 20.3696 11.8158 20.8604 12.4769C21.7117 13.6588 22.1525 15.1612 21.9521 16.7738Z" fill="#141414"/>
<path d="M10.0029 2C5.58577 2 2 5.58578 2 10.0029C2 14.42 5.58577 18.0058 10.0029 18.0058C14.42 18.0058 18.0058 14.42 18.0058 10.0029C17.9958 5.58578 14.42 2 10.0029 2ZM9.06137 8.8811L11.4753 9.72245C12.3467 10.033 12.7673 10.6439 12.7673 11.5855C12.7673 12.6672 11.906 13.5586 10.8543 13.5586H10.7641V13.6087C10.7641 14.0194 10.4236 14.3599 10.0129 14.3599C9.60224 14.3599 9.26169 14.0194 9.26169 13.6087V13.5486C8.1499 13.4985 7.25847 12.567 7.25847 11.4052C7.25847 10.9945 7.59902 10.654 8.00968 10.654C8.42034 10.654 8.76089 10.9945 8.76089 11.4052C8.76089 11.7657 9.02131 12.0562 9.34182 12.0562H10.8442C11.0746 12.0562 11.2549 11.8459 11.2549 11.5855C11.2549 11.2349 11.1948 11.2149 10.9644 11.1347L8.55055 10.2934C7.68916 9.99289 7.25847 9.3819 7.25847 8.43037C7.25847 7.34862 8.11986 6.45719 9.17155 6.45719H9.26169V6.41712C9.26169 6.00646 9.60224 5.66591 10.0129 5.66591C10.4236 5.66591 10.7641 6.00646 10.7641 6.41712V6.47722C11.8759 6.5273 12.7673 7.4588 12.7673 8.62068C12.7673 9.03134 12.4268 9.37189 12.0161 9.37189C11.6055 9.37189 11.2649 9.03134 11.2649 8.62068C11.2649 8.26009 11.0045 7.96963 10.684 7.96963H9.18157C8.95119 7.96963 8.7709 8.17997 8.7709 8.44038C8.76089 8.78093 8.82099 8.80097 9.06137 8.8811Z" fill="#141414"/>
</svg>
