<svg width="24" height="24" viewBox="0 0 24 24" fill="none" xmlns="http://www.w3.org/2000/svg">
<path d="M15.22 6.38218H5.78C5.5 6.38218 5.24 6.39195 5 6.40172C2.63 6.53851 2 7.38851 2 10.0264V10.5931C2 11.1305 2.45 11.5701 3 11.5701H18C18.55 11.5701 19 11.1305 19 10.5931V10.0264C19 7.11494 18.24 6.38218 15.22 6.38218Z" fill="#141414"/>
<path d="M3 13.0356C2.45 13.0356 2 13.4753 2 14.0126V16.8557C2 19.7672 2.76 20.5 5.78 20.5H15.22C18.19 20.5 18.97 19.7966 19 17.0121V14.0126C19 13.4753 18.55 13.0356 18 13.0356H3ZM6.96 18.1161H5.25C4.84 18.1161 4.5 17.7839 4.5 17.3833C4.5 16.9828 4.84 16.6506 5.25 16.6506H6.97C7.38 16.6506 7.72 16.9828 7.72 17.3833C7.72 17.7839 7.38 18.1161 6.96 18.1161ZM12.55 18.1161H9.11C8.7 18.1161 8.36 17.7839 8.36 17.3833C8.36 16.9828 8.7 16.6506 9.11 16.6506H12.55C12.96 16.6506 13.3 16.9828 13.3 17.3833C13.3 17.7839 12.97 18.1161 12.55 18.1161Z" fill="#141414"/>
<path d="M22 13.0063V7.88678C22 4.82874 20.21 3.5 17.51 3.5H8.58C7.82 3.5 7.14 3.60747 6.54 3.83218C6.07 3.99828 5.65 4.24253 5.31 4.56494C5.13 4.73103 5.27 5.0046 5.53 5.0046H16.4C18.65 5.0046 20.47 6.78276 20.47 8.98103V15.9862C20.47 16.2305 20.74 16.3672 20.92 16.1914C21.61 15.4782 22 14.4328 22 13.0063Z" fill="#141414"/>
</svg>
