<svg width="24" height="24" viewBox="0 0 24 24" fill="none" xmlns="http://www.w3.org/2000/svg">
<path d="M12.75 16.0201H13.4C14.05 16.0201 14.59 15.4401 14.59 14.7401C14.59 13.8701 14.28 13.7001 13.77 13.5201L12.76 13.1701V16.0201H12.75Z" fill="#141414"/>
<path d="M11.97 2.00014C6.45001 2.02014 1.98001 6.51014 2.00001 12.0301C2.02001 17.5501 6.51001 22.0201 12.03 22.0001C17.55 21.9801 22.02 17.4901 22 11.9701C21.98 6.45014 17.49 1.99014 11.97 2.00014ZM14.26 12.1001C15.04 12.3701 16.09 12.9501 16.09 14.7401C16.09 16.2801 14.88 17.5201 13.4 17.5201H12.75V18.1001C12.75 18.5101 12.41 18.8501 12 18.8501C11.59 18.8501 11.25 18.5101 11.25 18.1001V17.5201H10.89C9.25001 17.5201 7.92001 16.1401 7.92001 14.4401C7.92001 14.0301 8.26001 13.6901 8.67001 13.6901C9.08001 13.6901 9.42001 14.0301 9.42001 14.4401C9.42001 15.3101 10.08 16.0201 10.89 16.0201H11.25V12.6401L9.74001 12.1001C8.96001 11.8301 7.91001 11.2501 7.91001 9.46014C7.91001 7.92014 9.12001 6.68014 10.6 6.68014H11.25V6.10014C11.25 5.69014 11.59 5.35014 12 5.35014C12.41 5.35014 12.75 5.69014 12.75 6.10014V6.68014H13.11C14.75 6.68014 16.08 8.06014 16.08 9.76014C16.08 10.1701 15.74 10.5101 15.33 10.5101C14.92 10.5101 14.58 10.1701 14.58 9.76014C14.58 8.89014 13.92 8.18014 13.11 8.18014H12.75V11.5601L14.26 12.1001Z" fill="#141414"/>
<path d="M9.42001 9.47014C9.42001 10.3401 9.73001 10.5101 10.24 10.6901L11.25 11.0401V8.18014H10.6C9.95001 8.18014 9.42001 8.76014 9.42001 9.47014Z" fill="#141414"/>
</svg>
