<svg width="24" height="24" viewBox="0 0 24 24" fill="none" xmlns="http://www.w3.org/2000/svg">
<path d="M6.3 2C3.45 2 2.5 3.73934 2.5 5.8868V20.4623C2.5 21.2688 3.393 21.7255 4.02 21.2396L5.6445 19.9959C6.0245 19.7044 6.5565 19.7432 6.8985 20.093L8.4755 21.7158C8.846 22.0947 9.454 22.0947 9.8245 21.7158L11.4205 20.0833C11.753 19.7432 12.285 19.7044 12.6555 19.9959L14.28 21.2396C14.907 21.7158 15.8 21.2591 15.8 20.4623V3.9434C15.8 2.87453 16.655 2 17.7 2H6.3ZM6.8415 7.85935C7.364 7.85935 7.7915 8.29661 7.7915 8.83105C7.7915 9.36548 7.364 9.80274 6.8415 9.80274C6.319 9.80274 5.8915 9.36548 5.8915 8.83105C5.8915 8.29661 6.319 7.85935 6.8415 7.85935ZM11.4585 13.7381C10.9265 13.7381 10.5085 13.3009 10.5085 12.7664C10.5085 12.232 10.936 11.7947 11.4585 11.7947C11.981 11.7947 12.4085 12.232 12.4085 12.7664C12.4085 13.3009 11.981 13.7381 11.4585 13.7381ZM12.247 8.60755L7.06 13.913C6.9175 14.0588 6.737 14.1268 6.5565 14.1268C6.376 14.1268 6.1955 14.0588 6.053 13.913C5.7775 13.6312 5.7775 13.1648 6.053 12.883L11.24 7.57755C11.5155 7.29576 11.9715 7.29576 12.247 7.57755C12.5225 7.85935 12.5225 8.32576 12.247 8.60755Z" fill="#141414"/>
<path d="M17.7095 3.45755C18.3365 3.45755 18.935 3.71991 19.372 4.15717C19.828 4.6333 20.075 5.24548 20.075 5.8868V8.23831C20.075 8.95737 19.7615 9.28774 19.049 9.28774H17.225V3.95312C17.225 3.68104 17.4435 3.45755 17.7095 3.45755ZM17.7095 2C16.655 2 15.8 2.87453 15.8 3.95312V10.7453H19.049C20.55 10.7453 21.5 9.77359 21.5 8.23831V5.8868C21.5 4.81793 21.0725 3.84623 20.3885 3.13689C19.695 2.43726 18.7545 2.00972 17.7095 2Z" fill="#141414"/>
</svg>
