<svg width="24" height="24" viewBox="0 0 24 24" fill="none" xmlns="http://www.w3.org/2000/svg">
<path d="M15.5122 3.81384V7.44153H14.0488V3.81384C14.0488 3.55609 13.8146 3.43198 13.6585 3.43198C13.6098 3.43198 13.561 3.44153 13.5122 3.46062L5.77561 6.31504C5.25854 6.50597 4.92683 6.98329 4.92683 7.52745V8.16706C4.03902 8.81623 3.46341 9.8568 3.46341 11.031V7.52745C3.46341 6.39141 4.17561 5.37948 5.25854 4.97852L13.0049 2.11456C13.2195 2.03819 13.4439 2 13.6585 2C14.6341 2 15.5122 2.77327 15.5122 3.81384Z" fill="#141414"/>
<path d="M22 13.8854V14.8401C22 15.0979 21.7951 15.3079 21.522 15.3174H20.0976C19.5805 15.3174 19.1122 14.9451 19.0732 14.4487C19.0439 14.1527 19.161 13.8759 19.3561 13.685C19.5317 13.5036 19.7756 13.4081 20.039 13.4081H21.5122C21.7951 13.4177 22 13.6277 22 13.8854Z" fill="#141414"/>
<path d="M5.90244 14.3628C4.98537 14.3628 4.13659 14.6778 3.46341 15.2029C2.56585 15.8998 2 16.9785 2 18.1814C2 18.8974 2.20488 19.5752 2.56585 20.148C3.23902 21.2554 4.47805 22 5.90244 22C6.8878 22 7.78537 21.6468 8.46829 21.0453C8.77073 20.7971 9.03415 20.4916 9.23902 20.148C9.6 19.5752 9.80488 18.8974 9.80488 18.1814C9.80488 16.0716 8.05854 14.3628 5.90244 14.3628ZM4.36098 17.6659C4.07805 17.389 4.07805 16.9308 4.36098 16.6539C4.65366 16.3771 5.1122 16.3771 5.40488 16.6539L5.9122 17.1599L6.4 16.673C6.69268 16.3962 7.15122 16.3962 7.4439 16.673C7.72683 16.9594 7.72683 17.4081 7.4439 17.6945L6.94634 18.1718L7.46341 18.6683C7.74634 18.9547 7.74634 19.4033 7.46341 19.6897C7.31707 19.8234 7.13171 19.8902 6.94634 19.8902C6.76098 19.8902 6.57561 19.8234 6.42927 19.6897L5.9122 19.1838L5.37561 19.7088C5.22927 19.852 5.0439 19.9189 4.85854 19.9189C4.67317 19.9189 4.48781 19.852 4.34146 19.7088C4.05854 19.432 4.05854 18.9737 4.34146 18.6969L4.87805 18.1718L4.36098 17.6659Z" fill="#141414"/>
<path d="M20.0293 12.4057H21.0244C21.561 12.4057 22 11.9761 22 11.4511V11.031C22 9.05489 20.3512 7.44153 18.3317 7.44153H7.13171C6.30244 7.44153 5.54146 7.70883 4.92683 8.16706C4.03902 8.81623 3.46341 9.8568 3.46341 11.031V12.7303C3.46341 13.0931 3.85366 13.3222 4.20488 13.2076C4.75122 13.0263 5.32683 12.9308 5.90244 12.9308C8.85854 12.9308 11.2683 15.2888 11.2683 18.1814C11.2683 18.8687 11.0829 19.6229 10.7902 20.2912C10.6341 20.6348 10.878 21.0453 11.2585 21.0453H18.3317C20.3512 21.0453 22 19.432 22 17.4558V17.2745C22 16.7494 21.561 16.3198 21.0244 16.3198H20.1756C19.239 16.3198 18.3415 15.7566 18.0976 14.8687C17.9024 14.1432 18.1366 13.4368 18.6244 12.9785C18.9854 12.6158 19.4829 12.4057 20.0293 12.4057ZM14.6829 12.2148H9.80488C9.40488 12.2148 9.07317 11.8902 9.07317 11.4988C9.07317 11.1074 9.40488 10.7828 9.80488 10.7828H14.6829C15.0829 10.7828 15.4146 11.1074 15.4146 11.4988C15.4146 11.8902 15.0829 12.2148 14.6829 12.2148Z" fill="#141414"/>
</svg>
