<svg width="24" height="24" viewBox="0 0 24 24" fill="none" xmlns="http://www.w3.org/2000/svg">
<path d="M5.90244 14.3628C4.90732 14.3628 3.99024 14.7351 3.29756 15.3461C3.14146 15.4797 2.99512 15.6229 2.86829 15.7852C2.32195 16.4439 2 17.2745 2 18.1814C2 20.2912 3.7561 22 5.90244 22C6.83902 22 7.68781 21.6754 8.36098 21.1504C8.90732 20.7017 9.33659 20.1193 9.57073 19.4511C9.72683 19.0597 9.80488 18.6301 9.80488 18.1814C9.80488 16.0811 8.05854 14.3628 5.90244 14.3628ZM8.2439 17.4463C8.2439 17.7136 8.02927 17.9141 7.76585 17.9141C7.50244 17.9141 7.28781 17.7136 7.28781 17.4463V17.3508C7.28781 17.2458 7.20976 17.1599 7.10244 17.1599H5.15122C5.24878 17.3413 5.22927 17.5609 5.07317 17.7136C4.98537 17.7995 4.86829 17.8473 4.73171 17.8473C4.61463 17.8473 4.4878 17.7995 4.4 17.7136L3.69756 17.0263C3.65854 16.9881 3.61951 16.9308 3.59024 16.8735C3.55122 16.7589 3.55122 16.6348 3.59024 16.5203C3.61951 16.4726 3.64878 16.4057 3.69756 16.3675L4.4 15.6897C4.58537 15.4988 4.8878 15.4988 5.06341 15.6897C5.21951 15.8329 5.23902 16.0621 5.14146 16.2339H7.10244C7.72683 16.2339 8.23415 16.7303 8.23415 17.3508V17.4463H8.2439ZM7.07317 20.8162C6.94634 20.8162 6.81951 20.778 6.73171 20.6826C6.57561 20.5394 6.5561 20.3103 6.65366 20.1384H4.69268C4.06829 20.1384 3.56098 19.642 3.56098 19.0215V18.926C3.56098 18.6587 3.77561 18.4582 4.03902 18.4582C4.30244 18.4582 4.51707 18.6587 4.51707 18.926V19.0215C4.51707 19.1265 4.59512 19.2124 4.70244 19.2124H6.66341C6.56585 19.031 6.58537 18.8115 6.74146 18.6587C6.92683 18.4773 7.22927 18.4773 7.40488 18.6587L8.10732 19.3461C8.14634 19.3842 8.18537 19.4415 8.21463 19.4988C8.25366 19.6134 8.25366 19.7375 8.21463 19.852C8.18537 19.8998 8.14634 19.957 8.10732 19.9952L7.40488 20.673C7.31707 20.7685 7.19024 20.8162 7.07317 20.8162Z" fill="#141414"/>
<path d="M15.5122 3.81384V7.44153H14.0488V3.81384C14.0488 3.55609 13.8146 3.43198 13.6585 3.43198C13.6098 3.43198 13.561 3.44153 13.5122 3.46062L5.77561 6.31504C5.25854 6.50597 4.92683 6.98329 4.92683 7.52745V8.16706C4.03902 8.81623 3.46341 9.8568 3.46341 11.031V7.52745C3.46341 6.39141 4.17561 5.37948 5.25854 4.97852L13.0049 2.11456C13.2195 2.03819 13.4439 2 13.6585 2C14.6341 2 15.5122 2.77327 15.5122 3.81384Z" fill="#141414"/>
<path d="M22 13.8854V14.8401C22 15.0979 21.7951 15.3079 21.522 15.3174H20.0976C19.5805 15.3174 19.1122 14.9451 19.0732 14.4487C19.0439 14.1527 19.161 13.8759 19.3561 13.685C19.5317 13.5036 19.7756 13.4081 20.039 13.4081H21.5122C21.7951 13.4177 22 13.6277 22 13.8854Z" fill="#141414"/>
<path d="M20.0293 12.4057H21.0244C21.561 12.4057 22 11.9761 22 11.4511V11.031C22 9.05489 20.3512 7.44153 18.3317 7.44153H7.13171C6.30244 7.44153 5.54146 7.70883 4.92683 8.16706C4.03902 8.81623 3.46341 9.8568 3.46341 11.031V12.7303C3.46341 13.0931 3.85366 13.3222 4.20488 13.2076C4.75122 13.0263 5.32683 12.9308 5.90244 12.9308C8.85854 12.9308 11.2683 15.2888 11.2683 18.1814C11.2683 18.8687 11.0829 19.6229 10.7902 20.2912C10.6341 20.6348 10.878 21.0453 11.2585 21.0453H18.3317C20.3512 21.0453 22 19.432 22 17.4558V17.2745C22 16.7494 21.561 16.3198 21.0244 16.3198H20.1756C19.239 16.3198 18.3415 15.7566 18.0976 14.8687C17.9024 14.1432 18.1366 13.4368 18.6244 12.9785C18.9854 12.6158 19.4829 12.4057 20.0293 12.4057ZM14.6829 12.2148H9.80488C9.40488 12.2148 9.07317 11.8902 9.07317 11.4988C9.07317 11.1074 9.40488 10.7828 9.80488 10.7828H14.6829C15.0829 10.7828 15.4146 11.1074 15.4146 11.4988C15.4146 11.8902 15.0829 12.2148 14.6829 12.2148Z" fill="#141414"/>
</svg>
