<svg width="24" height="24" viewBox="0 0 24 24" fill="none" xmlns="http://www.w3.org/2000/svg">
<path d="M8.25936 21.2448C8.90633 20.5978 9.278 19.7719 9.37435 18.9185C9.50513 17.7828 9.12658 16.6059 8.25936 15.7387C7.74315 15.2225 7.10995 14.8783 6.44233 14.72C5.16903 14.3965 3.75807 14.7338 2.7532 15.7387C2.05805 16.4338 1.6795 17.3217 1.63132 18.2371C1.59691 18.6294 1.63132 19.0355 1.73456 19.4278C1.89286 20.0954 2.237 20.7286 2.7532 21.2448C4.27428 22.7659 6.73828 22.7659 8.25936 21.2448ZM6.96541 17.7759C7.36461 17.7759 7.69498 18.1063 7.69498 18.5055C7.68809 18.9116 7.36461 19.2351 6.95853 19.2419L6.23584 19.2351L6.24273 19.9302C6.23584 20.3363 5.91236 20.6598 5.50628 20.6667C5.1002 20.6598 4.77671 20.3363 4.76983 19.9302L4.77671 19.2351L4.05403 19.2419C3.64795 19.2351 3.32446 18.9116 3.31758 18.5055C3.32446 18.3059 3.40706 18.127 3.53783 17.9962C3.6686 17.8654 3.84755 17.7828 4.04715 17.7759L4.77671 17.7759L4.77671 17.0188C4.77671 16.8124 4.8593 16.6334 4.99008 16.5026C5.12085 16.3719 5.2998 16.2893 5.50628 16.2893C5.90547 16.2893 6.23584 16.6196 6.23584 17.0188L6.23584 17.7759H6.96541Z" fill="#141414"/>
<path d="M15.0953 3.84553V7.5443H13.6353V3.84553C13.6353 3.58273 13.4017 3.45619 13.2459 3.45619C13.1973 3.45619 13.1486 3.46592 13.0999 3.48539L5.38119 6.39574C4.86531 6.59041 4.53437 7.07709 4.53437 7.6319V8.28406C3.64861 8.94594 3.07433 10.0069 3.07433 11.2041V7.6319C3.07433 6.47361 3.78488 5.44184 4.86531 5.03303L12.5938 2.11295C12.8079 2.03508 13.0318 1.99615 13.2459 1.99615C14.2193 1.99615 15.0953 2.78457 15.0953 3.84553Z" fill="#141414"/>
<path d="M21.5696 14.1153V15.0886C21.5696 15.3514 21.3652 15.5656 21.0926 15.5753H19.6715C19.1557 15.5753 18.6884 15.1957 18.6495 14.6895C18.6203 14.3878 18.7371 14.1055 18.9318 13.9108C19.107 13.7259 19.3503 13.6286 19.6131 13.6286H21.0829C21.3652 13.6383 21.5696 13.8524 21.5696 14.1153Z" fill="#141414"/>
<path d="M19.602 12.605H20.5948C21.1302 12.605 21.5682 12.167 21.5682 11.6317V11.2034C21.5682 9.18852 19.9232 7.54354 17.9083 7.54354H6.73417C5.90681 7.54354 5.14759 7.81684 4.53437 8.28406C3.64861 8.94594 3.07433 10.0069 3.07433 11.2041V12.936C3.07433 13.3058 3.46367 13.5394 3.81408 13.4226C4.35917 13.2377 4.93345 13.1404 5.50773 13.1404C8.45701 13.1404 10.8612 15.5446 10.8612 18.4938C10.8612 19.1947 10.6763 19.9636 10.3843 20.645C10.2285 20.9954 10.4719 21.4139 10.8515 21.4139H17.9083C19.9232 21.4139 21.5682 19.7689 21.5682 17.7541V17.5692C21.5682 17.0338 21.1302 16.5958 20.5948 16.5958H19.748C18.8136 16.5958 17.9181 16.0215 17.6747 15.1163C17.4801 14.3765 17.7137 13.6562 18.2003 13.189C18.5605 12.8192 19.0569 12.605 19.602 12.605ZM14.268 12.4103H9.40117C9.00209 12.4103 8.67115 12.0794 8.67115 11.6803C8.67115 11.2812 9.00209 10.9503 9.40117 10.9503H14.268C14.6671 10.9503 14.998 11.2812 14.998 11.6803C14.998 12.0794 14.6671 12.4103 14.268 12.4103Z" fill="#141414"/>
</svg>
