<svg width="24" height="24" viewBox="0 0 24 24" fill="none" xmlns="http://www.w3.org/2000/svg">
<path d="M14.881 3.90476V7.71429H13.3772V3.90476C13.3772 3.63409 13.1366 3.50376 12.9762 3.50376C12.9261 3.50376 12.8759 3.51378 12.8258 3.53383L4.87594 6.53133C4.34461 6.73183 4.00376 7.23308 4.00376 7.80451V8.47619C3.09148 9.15789 2.5 10.2506 2.5 11.4837V7.80451C2.5 6.61153 3.23183 5.54887 4.34461 5.12782L12.3045 2.1203C12.5251 2.0401 12.7556 2 12.9762 2C13.9787 2 14.881 2.81203 14.881 3.90476Z" fill="#141414"/>
<path d="M21.5476 14.4812V15.4837C21.5476 15.7544 21.3371 15.9749 21.0564 15.985H19.5927C19.0614 15.985 18.5802 15.594 18.5401 15.0727C18.51 14.7619 18.6303 14.4712 18.8308 14.2707C19.0113 14.0802 19.2619 13.9799 19.5326 13.9799H21.0464C21.3371 13.99 21.5476 14.2105 21.5476 14.4812Z" fill="#141414"/>
<path d="M19.5226 12.9273H20.5451C21.0965 12.9273 21.5476 12.4762 21.5476 11.9248V11.4837C21.5476 9.40852 19.8534 7.71429 17.7782 7.71429H6.26942C5.41729 7.71429 4.63534 7.99499 4.00376 8.47619C3.09148 9.15789 2.5 10.2506 2.5 11.4837V18.2306C2.5 20.3058 4.19424 22 6.26942 22H17.7782C19.8534 22 21.5476 20.3058 21.5476 18.2306V18.0401C21.5476 17.4887 21.0965 17.0376 20.5451 17.0376H19.6729C18.7105 17.0376 17.7882 16.4461 17.5376 15.5138C17.3271 14.7519 17.5777 14.0201 18.0789 13.5288C18.4499 13.1479 18.9612 12.9273 19.5226 12.9273ZM14.0288 12.7268H7.01128C6.60025 12.7268 6.2594 12.386 6.2594 11.9749C6.2594 11.5639 6.60025 11.2231 7.01128 11.2231H14.0288C14.4398 11.2231 14.7807 11.5639 14.7807 11.9749C14.7807 12.386 14.4398 12.7268 14.0288 12.7268Z" fill="#141414"/>
</svg>
