<svg width="24" height="24" viewBox="0 0 24 24" fill="none" xmlns="http://www.w3.org/2000/svg">
<path d="M5.90244 14.3628C4.98537 14.3628 4.13659 14.6778 3.46341 15.2029C2.56585 15.8998 2 16.9785 2 18.1814C2 20.2912 3.74634 22 5.90244 22C6.8878 22 7.78537 21.6372 8.47805 21.0453C9.28781 20.3484 9.80488 19.327 9.80488 18.1814C9.80488 16.0716 8.05854 14.3628 5.90244 14.3628ZM6.87805 18.42C6.87805 18.6683 6.74146 18.9069 6.52683 19.031L5.30732 19.747C5.19024 19.8234 5.05366 19.852 4.92683 19.852C4.68293 19.852 4.43902 19.7279 4.30244 19.5084C4.09756 19.1647 4.20488 18.7255 4.5561 18.5251L5.42439 18.0191V16.9881C5.41463 16.5967 5.74634 16.2721 6.14634 16.2721C6.54634 16.2721 6.87805 16.5967 6.87805 16.9881V18.42Z" fill="#141414"/>
<path d="M15.5122 3.81384V7.44153H14.0488V3.81384C14.0488 3.55609 13.8146 3.43198 13.6585 3.43198C13.6098 3.43198 13.561 3.44153 13.5122 3.46062L5.77561 6.31504C5.25854 6.50597 4.92683 6.98329 4.92683 7.52745V8.16706C4.03902 8.81623 3.46341 9.8568 3.46341 11.031V7.52745C3.46341 6.39141 4.17561 5.37948 5.25854 4.97852L13.0049 2.11456C13.2195 2.03819 13.4439 2 13.6585 2C14.6341 2 15.5122 2.77327 15.5122 3.81384Z" fill="#141414"/>
<path d="M22 13.8854V14.8401C22 15.0979 21.7951 15.3079 21.522 15.3174H20.0976C19.5805 15.3174 19.1122 14.9451 19.0732 14.4487C19.0439 14.1527 19.161 13.8759 19.3561 13.685C19.5317 13.5036 19.7756 13.4081 20.039 13.4081H21.5122C21.7951 13.4177 22 13.6277 22 13.8854Z" fill="#141414"/>
<path d="M20.0293 12.4057H21.0244C21.561 12.4057 22 11.9761 22 11.4511V11.031C22 9.05489 20.3512 7.44153 18.3317 7.44153H7.13171C6.30244 7.44153 5.54146 7.70883 4.92683 8.16706C4.03902 8.81623 3.46341 9.8568 3.46341 11.031V12.7303C3.46341 13.0931 3.85366 13.3222 4.20488 13.2076C4.75122 13.0263 5.32683 12.9308 5.90244 12.9308C8.85854 12.9308 11.2683 15.2888 11.2683 18.1814C11.2683 18.8687 11.0829 19.6229 10.7902 20.2912C10.6341 20.6348 10.878 21.0453 11.2585 21.0453H18.3317C20.3512 21.0453 22 19.432 22 17.4558V17.2745C22 16.7494 21.561 16.3198 21.0244 16.3198H20.1756C19.239 16.3198 18.3415 15.7566 18.0976 14.8687C17.9024 14.1432 18.1366 13.4368 18.6244 12.9785C18.9854 12.6158 19.4829 12.4057 20.0293 12.4057ZM14.6829 12.2148H9.80488C9.40488 12.2148 9.07317 11.8902 9.07317 11.4988C9.07317 11.1074 9.40488 10.7828 9.80488 10.7828H14.6829C15.0829 10.7828 15.4146 11.1074 15.4146 11.4988C15.4146 11.8902 15.0829 12.2148 14.6829 12.2148Z" fill="#141414"/>
</svg>
