<svg width="24" height="24" viewBox="0 0 24 24" fill="none" xmlns="http://www.w3.org/2000/svg">
<path d="M16.1971 2H7.8129C4.17108 2 2 4.17 2 7.81V16.18C2 19.83 4.17108 22 7.8129 22H16.1871C19.8289 22 22 19.83 22 16.19V7.81C22.01 4.17 19.8389 2 16.1971 2ZM15.7569 15.75H8.25312C7.84291 15.75 7.50274 15.41 7.50274 15C7.50274 14.59 7.84291 14.25 8.25312 14.25H15.7569C16.1671 14.25 16.5072 14.59 16.5072 15C16.5072 15.41 16.1671 15.75 15.7569 15.75ZM15.7569 9.75H8.25312C7.84291 9.75 7.50274 9.41 7.50274 9C7.50274 8.59 7.84291 8.25 8.25312 8.25H15.7569C16.1671 8.25 16.5072 8.59 16.5072 9C16.5072 9.41 16.1671 9.75 15.7569 9.75Z" fill="#141414"/>
</svg>
