<svg width="24" height="24" viewBox="0 0 24 24" fill="none" xmlns="http://www.w3.org/2000/svg">
<path d="M8.82433 20.88C9.44046 20.2454 9.79441 19.4352 9.88617 18.5981C10.0107 17.4841 9.65021 16.3297 8.82433 15.479C8.33274 14.9727 7.72972 14.6351 7.09393 14.4798C5.88134 14.1625 4.53765 14.4933 3.58068 15.479C2.91867 16.1609 2.55817 17.0318 2.51229 17.9297C2.47952 18.3145 2.51229 18.7129 2.61061 19.0977C2.76136 19.7526 3.08909 20.3737 3.58068 20.88C5.02924 22.372 7.37577 22.372 8.82433 20.88ZM7.59208 17.4774C7.97224 17.4774 8.28686 17.8014 8.28686 18.193C8.2803 18.5913 7.97224 18.9087 7.58552 18.9154L6.89729 18.9087L6.90385 19.5905C6.89729 19.9888 6.58923 20.3062 6.20251 20.3129C5.81579 20.3062 5.50772 19.9888 5.50117 19.5905L5.50772 18.9087L4.8195 18.9154C4.43278 18.9086 4.12471 18.5913 4.11816 18.193C4.12471 17.9972 4.20337 17.8217 4.3279 17.6934C4.45244 17.5652 4.62286 17.4841 4.81294 17.4774L5.50772 17.4774L5.50772 16.7348C5.50772 16.5322 5.58638 16.3567 5.71092 16.2284C5.83545 16.1001 6.00587 16.0191 6.20251 16.0191C6.58267 16.0191 6.89729 16.3432 6.89729 16.7348L6.89729 17.4774H7.59208Z" fill="#141414"/>
<path d="M15.3344 3.81308V7.4412H13.944V3.81308C13.944 3.55529 13.7215 3.43117 13.5732 3.43117C13.5268 3.43117 13.4805 3.44072 13.4341 3.45982L6.08339 6.31457C5.5921 6.50553 5.27694 6.98291 5.27694 7.52713V8.16682C4.43341 8.81606 3.8865 9.85676 3.8865 11.0311V7.52713C3.8865 6.39095 4.56318 5.3789 5.5921 4.9779L12.9521 2.1136C13.1561 2.03721 13.3693 1.99902 13.5732 1.99902C14.5001 1.99902 15.3344 2.77239 15.3344 3.81308Z" fill="#141414"/>
<path d="M21.5 13.8866V14.8414C21.5 15.0992 21.3053 15.3092 21.0458 15.3188H19.6924C19.2012 15.3188 18.7562 14.9464 18.7191 14.4499C18.6913 14.154 18.8026 13.8771 18.988 13.6861C19.1548 13.5047 19.3865 13.4092 19.6368 13.4092H21.0365C21.3053 13.4188 21.5 13.6288 21.5 13.8866Z" fill="#141414"/>
<path d="M19.6262 12.4052H20.5717C21.0815 12.4052 21.4986 11.9756 21.4986 11.4505V11.0304C21.4986 9.05401 19.9321 7.44045 18.0133 7.44045H7.37186C6.58394 7.44045 5.86092 7.70853 5.27694 8.16682C4.43341 8.81606 3.8865 9.85676 3.8865 11.0311V12.7299C3.8865 13.0927 4.25729 13.3218 4.59099 13.2072C5.11008 13.0258 5.65699 12.9304 6.20389 12.9304C9.01257 12.9304 11.3021 15.2886 11.3021 18.1816C11.3021 18.869 11.126 19.6233 10.8479 20.2916C10.6996 20.6353 10.9314 21.0459 11.2929 21.0459H18.0133C19.9321 21.0459 21.4986 19.4323 21.4986 17.456V17.2746C21.4986 16.7494 21.0815 16.3198 20.5717 16.3198H19.7652C18.8754 16.3198 18.0226 15.7565 17.7908 14.8685C17.6054 14.1429 17.8279 13.4364 18.2914 12.9781C18.6344 12.6153 19.1071 12.4052 19.6262 12.4052ZM14.5465 12.2143H9.91171C9.53166 12.2143 9.2165 11.8897 9.2165 11.4982C9.2165 11.1068 9.53166 10.7821 9.91171 10.7821H14.5465C14.9265 10.7821 15.2417 11.1068 15.2417 11.4982C15.2417 11.8897 14.9265 12.2143 14.5465 12.2143Z" fill="#141414"/>
</svg>
