<svg width="24" height="24" viewBox="0 0 24 24" fill="none" xmlns="http://www.w3.org/2000/svg">
<path d="M13.5 5.38276V8.33607C13.5 9.01141 12.96 9.5557 12.29 9.5557H3.21C2.53 9.5557 2 8.99125 2 8.31592C2.01 7.17692 2.46 6.13873 3.21 5.38276C3.96 4.62679 5 4.16313 6.14 4.16313H12.29C12.96 4.16313 13.5 4.70743 13.5 5.38276Z" fill="#141414"/>
<path d="M2 12.2873V17.3271C2 19.6353 3.85 21.5 6.14 21.5H17.85C20.14 21.5 22 19.6252 22 17.317V12.2873C22 11.6119 21.46 11.0676 20.79 11.0676H3.21C2.54 11.0676 2 11.6119 2 12.2873ZM8 18.1233H6C5.59 18.1233 5.25 17.7806 5.25 17.3674C5.25 16.9541 5.59 16.6114 6 16.6114H8C8.41 16.6114 8.75 16.9541 8.75 17.3674C8.75 17.7806 8.41 18.1233 8 18.1233ZM14.5 18.1233H10.5C10.09 18.1233 9.75 17.7806 9.75 17.3674C9.75 16.9541 10.09 16.6114 10.5 16.6114H14.5C14.91 16.6114 15.25 16.9541 15.25 17.3674C15.25 17.7806 14.91 18.1233 14.5 18.1233Z" fill="#141414"/>
<path d="M19.97 2.5H17.03C15.76 2.5 15 3.26605 15 4.54615V7.50955C15 8.78966 15.76 9.5557 17.03 9.5557H19.97C21.24 9.5557 22 8.78966 22 7.50955V4.54615C22 3.26605 21.24 2.5 19.97 2.5ZM18.01 8.11432C17.98 8.14456 17.91 8.18488 17.86 8.18488L16.82 8.33607C16.79 8.34615 16.75 8.34615 16.72 8.34615C16.57 8.34615 16.44 8.29576 16.35 8.19496C16.23 8.07401 16.18 7.90265 16.21 7.72122L16.36 6.67294C16.37 6.62255 16.4 6.55199 16.43 6.52175L18.13 4.80822C18.16 4.87878 18.19 4.95942 18.22 5.04005C18.26 5.12069 18.3 5.19125 18.34 5.2618C18.37 5.32228 18.41 5.38276 18.45 5.42308C18.49 5.48355 18.53 5.54403 18.56 5.57427C18.58 5.60451 18.59 5.61459 18.6 5.62467C18.69 5.73554 18.79 5.83634 18.88 5.9069C18.9 5.92706 18.92 5.94722 18.93 5.94722C18.98 5.98753 19.04 6.03793 19.08 6.06817C19.14 6.10849 19.19 6.14881 19.25 6.17905C19.32 6.21936 19.4 6.25968 19.48 6.3C19.56 6.34032 19.64 6.37056 19.71 6.39072L18.01 8.11432ZM20.4 5.7053L20.07 6.03793C20.06 6.05809 20.03 6.06817 20 6.06817C19.99 6.06817 19.98 6.06817 19.97 6.06817C19.25 5.8565 18.68 5.28196 18.47 4.55623C18.46 4.51592 18.47 4.4756 18.5 4.44536L18.83 4.11273C19.37 3.56843 19.88 3.57851 20.41 4.11273C20.68 4.38488 20.81 4.64695 20.81 4.90902C20.8 5.17109 20.67 5.43316 20.4 5.7053Z" fill="#141414"/>
</svg>
