<svg width="24" height="24" viewBox="0 0 24 24" fill="none" xmlns="http://www.w3.org/2000/svg">
<path d="M15.7872 2H8.22276C4.44055 2 3.5 3.01088 3.5 7.04441V18.3143C3.5 20.9766 4.96085 21.6072 6.73189 19.7055L6.74189 19.6955C7.56237 18.8247 8.8131 18.8948 9.52352 19.8456L10.5341 21.1968C11.3446 22.2677 12.6553 22.2677 13.4658 21.1968L14.4764 19.8456C15.1968 18.8848 16.4476 18.8147 17.268 19.6955C19.0491 21.5971 20.4999 20.9666 20.4999 18.3043V7.04441C20.5099 3.01088 19.5694 2 15.7872 2ZM14.8466 9.997L14.3463 10.5074H14.3363L11.3046 13.5401C11.1745 13.6702 10.9043 13.8103 10.7142 13.8304L9.36342 14.0305C8.87314 14.1006 8.53294 13.7503 8.60298 13.2699L8.79309 11.9087C8.82311 11.7185 8.95318 11.4583 9.08326 11.3182L12.125 8.2855L12.6253 7.77505C12.9555 7.44476 13.3257 7.20455 13.726 7.20455C14.0662 7.20455 14.4364 7.36469 14.8466 7.77505C15.7471 8.67584 15.457 9.38646 14.8466 9.997Z" fill="#141414"/>
</svg>
