<svg width="24" height="24" viewBox="0 0 24 24" fill="none" xmlns="http://www.w3.org/2000/svg">
<path d="M20.4811 8.42725L15.5751 3.51439C14.5463 2.48409 13.1276 1.93099 11.6764 2.00691L6.2614 2.26719C4.09542 2.3648 2.37346 4.08918 2.26516 6.24737L2.00524 11.67C1.94026 13.1232 2.48176 14.5439 3.5106 15.5742L8.41656 20.4871C10.4309 22.5043 13.7016 22.5043 15.7268 20.4871L20.4811 15.7261C22.5063 13.7197 22.5063 10.4445 20.4811 8.42725ZM9.29378 12.4183C7.58265 12.4183 6.17476 11.0193 6.17476 9.29487C6.17476 7.57048 7.58265 6.17145 9.29378 6.17145C11.0049 6.17145 12.4128 7.57048 12.4128 9.29487C12.4128 11.0193 11.0049 12.4183 9.29378 12.4183ZM17.9902 13.6655L13.6582 18.0035C13.4958 18.1662 13.29 18.2421 13.0843 18.2421C12.8785 18.2421 12.6727 18.1662 12.5103 18.0035C12.1962 17.689 12.1962 17.1685 12.5103 16.854L16.8422 12.5159C17.1563 12.2014 17.6762 12.2014 17.9902 12.5159C18.3043 12.8304 18.3043 13.351 17.9902 13.6655Z" fill="#141414"/>
</svg>
