<svg width="24" height="24" viewBox="0 0 24 24" fill="none" xmlns="http://www.w3.org/2000/svg">
<path d="M2.66667 18.8378C2.67619 18.8283 2.67619 18.8189 2.67619 18.8189L7.91429 13.6244C7.92381 13.615 7.93333 13.615 7.94286 13.6056C7.34286 13.19 6.60952 12.9444 5.80952 12.9444C3.70476 12.9444 2 14.635 2 16.7222C2 17.4306 2.2 18.1011 2.55238 18.6678C2.59048 18.7244 2.62857 18.7811 2.66667 18.8378Z" fill="#141414"/>
<path d="M8.95238 14.5972C8.94286 14.6067 8.94286 14.6161 8.93333 14.6256L3.69524 19.82C3.68571 19.8294 3.67619 19.8294 3.66667 19.8389C4.27619 20.2544 5.00952 20.5 5.80952 20.5C7.2 20.5 8.40952 19.7633 9.06667 18.6678C9.41905 18.1011 9.61905 17.4306 9.61905 16.7222C9.61905 15.9289 9.37143 15.2017 8.95238 14.5972Z" fill="#141414"/>
<path d="M17.2381 3.5H7.71429C4.85714 3.5 2.95238 4.91667 2.95238 8.22222V11.5844C2.95238 11.9339 3.31429 12.1511 3.62857 12.0094C4.5619 11.5844 5.6381 11.4239 6.77143 11.6222C9.27619 12.0661 11.1143 14.3706 11.0476 16.8922C11.0381 17.2889 10.981 17.6761 10.8762 18.0539C10.8 18.3467 11.0381 18.6206 11.3429 18.6206H17.2381C20.0952 18.6206 22 17.2039 22 13.8983V8.22222C22 4.91667 20.0952 3.5 17.2381 3.5ZM12.4762 13.4167C11.1619 13.4167 10.0952 12.3589 10.0952 11.0556C10.0952 9.75222 11.1619 8.69444 12.4762 8.69444C13.7905 8.69444 14.8571 9.75222 14.8571 11.0556C14.8571 12.3589 13.7905 13.4167 12.4762 13.4167ZM19.381 12.9444C19.381 13.3317 19.0571 13.6528 18.6667 13.6528C18.2762 13.6528 17.9524 13.3317 17.9524 12.9444V9.16667C17.9524 8.77944 18.2762 8.45833 18.6667 8.45833C19.0571 8.45833 19.381 8.77944 19.381 9.16667V12.9444Z" fill="#141414"/>
</svg>
