<svg width="24" height="24" viewBox="0 0 24 24" fill="none" xmlns="http://www.w3.org/2000/svg">
<path d="M22 12.6098V14.6361C22 15.1869 21.54 15.6393 20.97 15.6393H19.04C17.96 15.6393 16.97 14.8623 16.88 13.8C16.82 13.1803 17.06 12.6 17.48 12.1967C17.85 11.823 18.36 11.6066 18.92 11.6066H20.97C21.54 11.6066 22 12.059 22 12.6098Z" fill="#141414"/>
<path d="M15.38 13.9279C15.29 12.8951 15.67 11.882 16.43 11.1443C17.07 10.5049 17.96 10.1311 18.92 10.1311H19.49C19.77 10.1311 20 9.90492 19.96 9.62951C19.69 7.72131 18.01 6.2459 16 6.2459H6C3.79 6.2459 2 8.00656 2 10.1803V17.0656C2 19.2393 3.79 21 6 21H16C18.02 21 19.69 19.5246 19.96 17.6164C20 17.341 19.77 17.1148 19.49 17.1148H19.04C17.14 17.1148 15.54 15.718 15.38 13.9279ZM13 11.9016H7C6.59 11.9016 6.25 11.577 6.25 11.1639C6.25 10.7508 6.59 10.4262 7 10.4262H13C13.41 10.4262 13.75 10.7607 13.75 11.1639C13.75 11.5672 13.41 11.9016 13 11.9016Z" fill="#141414"/>
<path d="M14.21 4.11148C14.47 4.37705 14.24 4.77049 13.86 4.77049H6.03C4.94 4.77049 3.92 5.08525 3.07 5.62623C2.68 5.87213 2.15 5.60656 2.34 5.18361C2.9 3.89508 4.21 3 5.72 3H11.34C12.5 3 13.53 3.40328 14.21 4.11148Z" fill="#141414"/>
</svg>
