<svg width="24" height="24" viewBox="0 0 24 24" fill="none" xmlns="http://www.w3.org/2000/svg">
<path d="M16.1971 2H7.8129C4.17108 2 2 4.17 2 7.81V16.18C2 19.83 4.17108 22 7.8129 22H16.1871C19.8289 22 22 19.83 22 16.19V7.81C22.01 4.17 19.8389 2 16.1971 2ZM11.0345 17.66C11.3246 17.95 11.3246 18.43 11.0345 18.72C10.8844 18.87 10.6943 18.94 10.5042 18.94C10.3141 18.94 10.124 18.87 9.97397 18.72L8.25312 17L6.53226 18.72C6.38218 18.86 6.19209 18.94 6.00199 18.94C5.8119 18.94 5.6218 18.87 5.47173 18.72C5.18159 18.43 5.18159 17.95 5.47173 17.66L7.19259 15.94L5.47173 14.22C5.18159 13.93 5.18159 13.45 5.47173 13.16C5.76187 12.87 6.24211 12.87 6.53226 13.16L8.25312 14.88L9.97397 13.16C10.2641 12.87 10.7444 12.87 11.0345 13.16C11.3246 13.45 11.3246 13.93 11.0345 14.22L9.31364 15.94L11.0345 17.66ZM10.5042 8.81H6.00199C5.59179 8.81 5.25162 8.47 5.25162 8.06C5.25162 7.65 5.59179 7.31 6.00199 7.31H10.5042C10.9144 7.31 11.2546 7.65 11.2546 8.06C11.2546 8.47 10.9144 8.81 10.5042 8.81ZM18.008 18.56H13.5057C13.0955 18.56 12.7554 18.22 12.7554 17.81C12.7554 17.4 13.0955 17.06 13.5057 17.06H18.008C18.4182 17.06 18.7584 17.4 18.7584 17.81C18.7584 18.22 18.4182 18.56 18.008 18.56ZM18.008 14.81H13.5057C13.0955 14.81 12.7554 14.47 12.7554 14.06C12.7554 13.65 13.0955 13.31 13.5057 13.31H18.008C18.4182 13.31 18.7584 13.65 18.7584 14.06C18.7584 14.47 18.4182 14.81 18.008 14.81ZM18.008 8.81H16.5272V10.31C16.5272 10.72 16.1871 11.06 15.7769 11.06C15.3667 11.06 15.0265 10.72 15.0265 10.31V8.81H13.5057C13.0955 8.81 12.7554 8.47 12.7554 8.06C12.7554 7.65 13.0955 7.31 13.5057 7.31H15.0265V5.81C15.0265 5.4 15.3667 5.06 15.7769 5.06C16.1871 5.06 16.5272 5.4 16.5272 5.81V7.31H18.008C18.4182 7.31 18.7584 7.65 18.7584 8.06C18.7584 8.47 18.4182 8.81 18.008 8.81Z" fill="#141414"/>
</svg>
