<svg width="24" height="24" viewBox="0 0 24 24" fill="none" xmlns="http://www.w3.org/2000/svg">
<path d="M17.2381 3.5H7.71429C4.85714 3.5 2.95238 4.91667 2.95238 8.22222V11.5844C2.95238 11.9339 3.31429 12.1511 3.62857 12.0094C4.5619 11.5844 5.6381 11.4239 6.77143 11.6222C9.27619 12.0661 11.1143 14.3706 11.0476 16.8922C11.0381 17.2889 10.981 17.6761 10.8762 18.0539C10.8 18.3467 11.0381 18.6206 11.3429 18.6206H17.2381C20.0952 18.6206 22 17.2039 22 13.8983V8.22222C22 4.91667 20.0952 3.5 17.2381 3.5ZM12.4762 13.4167C11.1619 13.4167 10.0952 12.3589 10.0952 11.0556C10.0952 9.75222 11.1619 8.69444 12.4762 8.69444C13.7905 8.69444 14.8571 9.75222 14.8571 11.0556C14.8571 12.3589 13.7905 13.4167 12.4762 13.4167ZM19.381 12.9444C19.381 13.3317 19.0571 13.6528 18.6667 13.6528C18.2762 13.6528 17.9524 13.3317 17.9524 12.9444V9.16667C17.9524 8.77944 18.2762 8.45833 18.6667 8.45833C19.0571 8.45833 19.381 8.77944 19.381 9.16667V12.9444Z" fill="#141414"/>
<path d="M5.80952 12.9444C3.70476 12.9444 2 14.635 2 16.7222C2 17.4306 2.2 18.1011 2.55238 18.6678C3.20952 19.7633 4.41905 20.5 5.80952 20.5C7.2 20.5 8.40952 19.7633 9.06667 18.6678C9.41905 18.1011 9.61905 17.4306 9.61905 16.7222C9.61905 14.635 7.91429 12.9444 5.80952 12.9444ZM7.68571 16.4106L5.65714 18.2711C5.52381 18.3939 5.34286 18.46 5.17143 18.46C4.99048 18.46 4.80952 18.3939 4.66667 18.2522L3.72381 17.3172C3.44762 17.0433 3.44762 16.59 3.72381 16.3161C4 16.0422 4.45714 16.0422 4.73333 16.3161L5.19048 16.7694L6.71429 15.3717C7 15.1072 7.45714 15.1261 7.72381 15.4094C7.99048 15.6928 7.97143 16.1461 7.68571 16.4106Z" fill="#141414"/>
</svg>
