<svg width="24" height="24" viewBox="0 0 24 24" fill="none" xmlns="http://www.w3.org/2000/svg">
<path d="M17.2381 3.5H7.71429C4.85714 3.5 2.95238 4.91667 2.95238 8.22222V11.5844C2.95238 11.9339 3.31429 12.1511 3.62857 12.0094C4.5619 11.5844 5.6381 11.4239 6.77143 11.6222C9.27619 12.0661 11.1143 14.3706 11.0476 16.8922C11.0381 17.2889 10.981 17.6761 10.8762 18.0539C10.8 18.3467 11.0381 18.6206 11.3429 18.6206H17.2381C20.0952 18.6206 22 17.2039 22 13.8983V8.22222C22 4.91667 20.0952 3.5 17.2381 3.5ZM12.4762 13.4167C11.1619 13.4167 10.0952 12.3589 10.0952 11.0556C10.0952 9.75222 11.1619 8.69444 12.4762 8.69444C13.7905 8.69444 14.8571 9.75222 14.8571 11.0556C14.8571 12.3589 13.7905 13.4167 12.4762 13.4167ZM19.381 12.9444C19.381 13.3317 19.0571 13.6528 18.6667 13.6528C18.2762 13.6528 17.9524 13.3317 17.9524 12.9444V9.16667C17.9524 8.77944 18.2762 8.45833 18.6667 8.45833C19.0571 8.45833 19.381 8.77944 19.381 9.16667V12.9444Z" fill="#141414"/>
<path d="M5.80952 12.9444C4.61905 12.9444 3.54286 13.5017 2.84762 14.3517C2.31429 15.0033 2 15.825 2 16.7222C2 18.8094 3.71429 20.5 5.80952 20.5C7.46667 20.5 8.88572 19.4517 9.4 17.9783C9.54286 17.5911 9.61905 17.1661 9.61905 16.7222C9.61905 14.6444 7.91429 12.9444 5.80952 12.9444ZM8.05714 18.3656C8.0381 18.4222 8 18.4789 7.96191 18.5167L7.27619 19.1872C7.19048 19.2817 7.07619 19.3194 6.95238 19.3194C6.82857 19.3194 6.70476 19.2817 6.61905 19.1872C6.46667 19.0456 6.44762 18.8189 6.54286 18.6489H4.62857C4.01905 18.6489 3.52381 18.1578 3.52381 17.5439V17.4494C3.52381 17.185 3.73333 16.9867 3.99048 16.9867C4.24762 16.9867 4.45714 17.185 4.45714 17.4494V17.5439C4.45714 17.6478 4.53333 17.7328 4.6381 17.7328H6.55238C6.45714 17.5533 6.47619 17.3361 6.62857 17.185C6.80952 17.0056 7.10476 17.0056 7.27619 17.185L7.96191 17.865C8 17.9028 8.03809 17.9594 8.06667 18.0161C8.10476 18.12 8.10476 18.2522 8.05714 18.3656ZM8.09524 15.995C8.09524 16.2594 7.88571 16.4578 7.62857 16.4578C7.37143 16.4578 7.1619 16.2594 7.1619 15.995V15.9006C7.1619 15.7967 7.08571 15.7117 6.98095 15.7117H5.07619C5.17143 15.8911 5.15238 16.1083 5 16.2594C4.91429 16.3444 4.8 16.3917 4.66667 16.3917C4.55238 16.3917 4.42857 16.3444 4.34286 16.2594L3.65714 15.5794C3.61905 15.5417 3.58095 15.485 3.55238 15.4283C3.51429 15.315 3.51429 15.1922 3.55238 15.0789C3.58095 15.0317 3.60952 14.9656 3.65714 14.9278L4.34286 14.2572C4.52381 14.0683 4.81905 14.0683 4.99048 14.2572C5.14286 14.3989 5.1619 14.6256 5.06667 14.7956H6.98095C7.59048 14.7956 8.08571 15.2867 8.08571 15.9006V15.995H8.09524Z" fill="#141414"/>
</svg>
