<svg width="24" height="24" viewBox="0 0 24 24" fill="none" xmlns="http://www.w3.org/2000/svg">
<path d="M21.5299 10.8783L20.0095 9.35603C19.7494 9.09564 19.5394 8.58488 19.5394 8.22434V6.06109C19.5394 5.17977 18.8192 4.45869 17.939 4.45869H15.7884C15.4283 4.45869 14.9182 4.24837 14.6581 3.98798L13.1378 2.4657C12.5176 1.84477 11.4974 1.84477 10.8772 2.4657L9.33682 3.98798C9.08676 4.24837 8.57663 4.45869 8.20654 4.45869H6.05601C5.17579 4.45869 4.45561 5.17977 4.45561 6.06109V8.21432C4.45561 8.57486 4.24556 9.08563 3.98549 9.34602L2.46512 10.8683C1.84496 11.4892 1.84496 12.5108 2.46512 13.1317L3.98549 14.654C4.24556 14.9144 4.45561 15.4251 4.45561 15.7857V17.9389C4.45561 18.8202 5.17579 19.5413 6.05601 19.5413H8.20654C8.56663 19.5413 9.07676 19.7516 9.33682 20.012L10.8572 21.5343C11.4774 22.1552 12.4976 22.1552 13.1178 21.5343L14.6381 20.012C14.8982 19.7516 15.4083 19.5413 15.7684 19.5413H17.919C18.7992 19.5413 19.5194 18.8202 19.5194 17.9389V15.7857C19.5194 15.4251 19.7294 14.9144 19.9895 14.654L21.5099 13.1317C22.16 12.5208 22.16 11.4992 21.5299 10.8783ZM7.99649 9.00551C7.99649 8.45468 8.4466 8.004 8.99674 8.004C9.54688 8.004 9.99699 8.45468 9.99699 9.00551C9.99699 9.55633 9.55688 10.007 8.99674 10.007C8.4466 10.007 7.99649 9.55633 7.99649 9.00551ZM9.52687 15.5453C9.37683 15.6955 9.18679 15.7656 8.99674 15.7656C8.80669 15.7656 8.61664 15.6955 8.46661 15.5453C8.17654 15.2549 8.17654 14.7742 8.46661 14.4837L14.4681 8.47471C14.7582 8.18428 15.2383 8.18428 15.5284 8.47471C15.8184 8.76515 15.8184 9.24587 15.5284 9.5363L9.52687 15.5453ZM14.9982 16.016C14.4381 16.016 13.988 15.5653 13.988 15.0145C13.988 14.4637 14.4381 14.013 14.9882 14.013C15.5384 14.013 15.9885 14.4637 15.9885 15.0145C15.9885 15.5653 15.5484 16.016 14.9982 16.016Z" fill="#141414"/>
</svg>
