<svg width="24" height="24" viewBox="0 0 24 24" fill="none" xmlns="http://www.w3.org/2000/svg">
<path d="M15.7872 2H8.22276C4.44055 2 3.5 3.01088 3.5 7.04441V18.3143C3.5 20.9766 4.96085 21.6072 6.73189 19.7055L6.74189 19.6955C7.56237 18.8247 8.8131 18.8948 9.52352 19.8456L10.5341 21.1968C11.3446 22.2677 12.6553 22.2677 13.4658 21.1968L14.4764 19.8456C15.1968 18.8848 16.4476 18.8147 17.268 19.6955C19.0491 21.5971 20.4999 20.9666 20.4999 18.3043V7.04441C20.5099 3.01088 19.5694 2 15.7872 2ZM9.00321 7.00438C9.55353 7.00438 10.0038 7.45477 10.0038 8.00525C10.0038 8.55574 9.56354 9.00613 9.00321 9.00613C8.44288 9.00613 8.00263 8.55574 8.00263 8.00525C8.00263 7.45477 8.44288 7.00438 9.00321 7.00438ZM15.0067 14.0105C14.4464 14.0105 14.0061 13.5601 14.0061 13.0096C14.0061 12.4592 14.4564 12.0088 15.0067 12.0088C15.557 12.0088 16.0073 12.4592 16.0073 13.0096C16.0073 13.5601 15.567 14.0105 15.0067 14.0105ZM15.9072 7.5949L9.17331 14.3308C9.02322 14.4809 8.83311 14.551 8.643 14.551C8.45289 14.551 8.26278 14.4809 8.11269 14.3308C7.82252 14.0405 7.82252 13.5601 8.11269 13.2699L14.8466 6.53397C15.1368 6.24371 15.6171 6.24371 15.9072 6.53397C16.1974 6.82422 16.1974 7.30464 15.9072 7.5949Z" fill="#141414"/>
</svg>
