<svg width="24" height="24" viewBox="0 0 24 24" fill="none" xmlns="http://www.w3.org/2000/svg">
<path d="M16.1971 2H7.8129C4.17108 2 2 4.17 2 7.81V16.18C2 19.83 4.17108 22 7.8129 22H16.1871C19.8289 22 22 19.83 22 16.19V7.81C22.01 4.17 19.8389 2 16.1971 2ZM7.75287 9.14C7.75287 8.33 8.4132 7.66 9.2336 7.66C10.044 7.66 10.7143 8.32 10.7143 9.14C10.7143 9.95 10.054 10.62 9.2336 10.62C8.4132 10.61 7.75287 9.95 7.75287 9.14ZM8.8234 16.02C8.63331 16.02 8.44321 15.95 8.29314 15.8C8.00299 15.51 8.00299 15.04 8.29314 14.74L14.8464 8.19C15.1365 7.9 15.6168 7.9 15.9069 8.19C16.1971 8.48 16.1971 8.96 15.9069 9.25L9.35366 15.8C9.20359 15.95 9.01349 16.02 8.8234 16.02ZM15.7769 16.34C14.9665 16.34 14.2961 15.68 14.2961 14.86C14.2961 14.05 14.9565 13.38 15.7769 13.38C16.5873 13.38 17.2576 14.04 17.2576 14.86C17.2576 15.68 16.5973 16.34 15.7769 16.34Z" fill="#141414"/>
</svg>
