<svg width="24" height="24" viewBox="0 0 24 24" fill="none" xmlns="http://www.w3.org/2000/svg">
<path d="M17.2381 3.5H7.71429C4.85714 3.5 2.95238 4.91667 2.95238 8.22222V11.5844C2.95238 11.9339 3.31429 12.1511 3.62857 12.0094C4.5619 11.5844 5.6381 11.4239 6.77143 11.6222C9.27619 12.0661 11.1143 14.3706 11.0476 16.8922C11.0381 17.2889 10.981 17.6761 10.8762 18.0539C10.8 18.3467 11.0381 18.6206 11.3429 18.6206H17.2381C20.0952 18.6206 22 17.2039 22 13.8983V8.22222C22 4.91667 20.0952 3.5 17.2381 3.5ZM12.4762 13.4167C11.1619 13.4167 10.0952 12.3589 10.0952 11.0556C10.0952 9.75222 11.1619 8.69444 12.4762 8.69444C13.7905 8.69444 14.8571 9.75222 14.8571 11.0556C14.8571 12.3589 13.7905 13.4167 12.4762 13.4167ZM19.381 12.9444C19.381 13.3317 19.0571 13.6528 18.6667 13.6528C18.2762 13.6528 17.9524 13.3317 17.9524 12.9444V9.16667C17.9524 8.77944 18.2762 8.45833 18.6667 8.45833C19.0571 8.45833 19.381 8.77944 19.381 9.16667V12.9444Z" fill="#141414"/>
<path d="M5.80952 12.9444C4.66667 12.9444 3.64762 13.445 2.95238 14.2289C2.3619 14.8994 2 15.7683 2 16.7222C2 17.4306 2.2 18.1011 2.55238 18.6678C3.20952 19.7633 4.41905 20.5 5.80952 20.5C6.77143 20.5 7.64762 20.1506 8.31429 19.5556C8.60952 19.31 8.86667 19.0078 9.06667 18.6678C9.41905 18.1011 9.61905 17.4306 9.61905 16.7222C9.61905 14.635 7.91429 12.9444 5.80952 12.9444ZM7.33333 18.2144C7.19048 18.3561 7.00952 18.4222 6.82857 18.4222C6.64762 18.4222 6.46667 18.3561 6.32381 18.2144L5.81905 17.7139L5.29524 18.2333C5.15238 18.375 4.97143 18.4411 4.79048 18.4411C4.60952 18.4411 4.42857 18.375 4.28571 18.2333C4.00952 17.9594 4.00952 17.5061 4.28571 17.2322L4.80952 16.7128L4.30476 16.2122C4.02857 15.9383 4.02857 15.485 4.30476 15.2111C4.58095 14.9372 5.0381 14.9372 5.31429 15.2111L5.81905 15.7117L6.29524 15.2394C6.57143 14.9656 7.02857 14.9656 7.30476 15.2394C7.58095 15.5133 7.58095 15.9667 7.30476 16.2406L6.82857 16.7128L7.33333 17.2133C7.60952 17.4872 7.60952 17.9311 7.33333 18.2144Z" fill="#141414"/>
</svg>
