<svg width="24" height="24" viewBox="0 0 24 24" fill="none" xmlns="http://www.w3.org/2000/svg">
<path d="M2.5 20.4623C2.5 21.2688 3.4134 21.7255 4.05472 21.2396L5.71632 19.9959C6.105 19.7044 6.64916 19.7432 6.99897 20.093L8.61199 21.7158C8.99095 22.0947 9.61284 22.0947 9.9918 21.7158L11.6243 20.0833C11.9644 19.7432 12.5085 19.7044 12.8875 19.9959L14.5491 21.2396C15.1904 21.7158 16.1038 21.2591 16.1038 20.4623V3.9434C16.1038 2.87453 16.9783 2 18.0472 2H6.3868C3.4717 2 2.5 3.73934 2.5 5.8868V20.4623Z" fill="#141414"/>
<path d="M18.0569 3.45755C18.6982 3.45755 19.3104 3.71991 19.7574 4.15717C20.2238 4.6333 20.4764 5.24548 20.4764 5.8868V8.23831C20.4764 8.95737 20.1558 9.28774 19.427 9.28774H17.5613V3.95312C17.5613 3.68104 17.7848 3.45755 18.0569 3.45755ZM18.0569 2C16.9783 2 16.1038 2.87453 16.1038 3.95312V10.7453H19.427C20.9623 10.7453 21.934 9.77359 21.934 8.23831V5.8868C21.934 4.81793 21.4967 3.84623 20.7971 3.13689C20.0878 2.43726 19.1258 2.00972 18.0569 2Z" fill="#141414"/>
</svg>
