<svg width="24" height="24" viewBox="0 0 24 24" fill="none" xmlns="http://www.w3.org/2000/svg">
<path d="M18.2044 6.81745H19.5154C19.3322 6.55718 19.1394 6.31618 18.937 6.07519L18.2044 6.81745Z" fill="#141414"/>
<path d="M17.9248 5.05338C17.6838 4.85095 17.4428 4.65815 17.1826 4.475V5.786L17.9248 5.05338Z" fill="#141414"/>
<path d="M18.9466 6.07519L21.7903 3.23147C22.0699 2.95192 22.0699 2.48922 21.7903 2.20966C21.5108 1.93011 21.0481 1.93011 20.7685 2.20966L17.9248 5.05338C18.2911 5.37149 18.6285 5.71852 18.9466 6.07519Z" fill="#141414"/>
<path d="M17.1826 3.68454C17.1826 3.28931 16.8548 2.96156 16.4596 2.96156C16.074 2.96156 15.7655 3.27003 15.7462 3.64598C16.2475 3.88697 16.7295 4.15689 17.1826 4.475V3.68454Z" fill="#141414"/>
<path d="M21.0384 7.54043C21.0384 7.1452 20.7107 6.81745 20.3155 6.81745H19.5154C19.8335 7.27051 20.113 7.7525 20.3444 8.25377C20.73 8.23449 21.0384 7.92602 21.0384 7.54043Z" fill="#141414"/>
<path d="M12.3627 15.0112H12.6519C13.0278 15.0112 13.3267 14.6738 13.3267 14.2593C13.3267 13.7388 13.1821 13.6616 12.8543 13.546L12.3627 13.3725V15.0112Z" fill="#141414"/>
<path d="M20.354 8.25377C20.3444 8.25377 20.3347 8.26341 20.3155 8.26341H16.4596C16.3632 8.26341 16.2764 8.24413 16.18 8.20557C16.0065 8.12845 15.8619 7.99349 15.7848 7.81034C15.7559 7.72358 15.7366 7.63682 15.7366 7.54043V3.68454C15.7366 3.6749 15.7462 3.66526 15.7462 3.64598C14.4931 3.05796 13.105 2.72057 11.6397 2.72057C6.31859 2.72057 2 7.03916 2 12.3603C2 17.6814 6.31859 22 11.6397 22C16.9608 22 21.2794 17.6814 21.2794 12.3603C21.2794 10.895 20.942 9.50693 20.354 8.25377ZM13.3267 12.1868C13.9436 12.3988 14.7726 12.8519 14.7726 14.2689C14.7726 15.4739 13.8183 16.4668 12.6519 16.4668H12.3627V16.7078C12.3627 17.103 12.0349 17.4308 11.6397 17.4308C11.2445 17.4308 10.9167 17.103 10.9167 16.7078V16.4668H10.8396C9.55754 16.4668 8.50681 15.3872 8.50681 14.0569C8.50681 13.652 8.83456 13.3243 9.22979 13.3243C9.62501 13.3243 9.95276 13.652 9.95276 14.0472C9.95276 14.5774 10.348 15.0112 10.8396 15.0112H10.9167V12.8712L9.95276 12.5338C9.33582 12.3217 8.50681 11.8687 8.50681 10.4516C8.50681 9.24666 9.46114 8.25377 10.6275 8.25377H10.9167V8.02241C10.9167 7.62718 11.2445 7.29943 11.6397 7.29943C12.0349 7.29943 12.3627 7.62718 12.3627 8.02241V8.26341H12.4398C13.7219 8.26341 14.7726 9.34305 14.7726 10.6733C14.7726 11.0686 14.4449 11.3963 14.0496 11.3963C13.6544 11.3963 13.3267 11.0686 13.3267 10.6733C13.3267 10.1432 12.9314 9.70936 12.4398 9.70936H12.3627V11.8494L13.3267 12.1868Z" fill="#141414"/>
<path d="M9.95276 10.4613C9.95276 10.9818 10.0974 11.0589 10.4251 11.1746L10.9167 11.3481V9.70936H10.6275C10.2612 9.70936 9.95276 10.0468 9.95276 10.4613Z" fill="#141414"/>
</svg>
