<svg width="24" height="24" viewBox="0 0 24 24" fill="none" xmlns="http://www.w3.org/2000/svg">
<path d="M6.3 2C3.45 2 2.5 3.73934 2.5 5.8868V20.4623C2.5 21.2688 3.393 21.7255 4.02 21.2396L5.6445 19.9959C6.0245 19.7044 6.5565 19.7432 6.8985 20.093L8.4755 21.7158C8.846 22.0947 9.454 22.0947 9.8245 21.7158L11.4205 20.0833C11.753 19.7432 12.285 19.7044 12.6555 19.9959L14.28 21.2396C14.907 21.7158 15.8 21.2591 15.8 20.4623V3.9434C15.8 2.87453 16.655 2 17.7 2H6.3ZM11.2875 13.4175H7.0125C6.623 13.4175 6.3 13.0871 6.3 12.6887C6.3 12.2903 6.623 11.9599 7.0125 11.9599H11.2875C11.677 11.9599 12 12.2903 12 12.6887C12 13.0871 11.677 13.4175 11.2875 13.4175ZM12 9.53067H6.3C5.9105 9.53067 5.5875 9.20029 5.5875 8.80189C5.5875 8.4035 5.9105 8.07312 6.3 8.07312H12C12.3895 8.07312 12.7125 8.4035 12.7125 8.80189C12.7125 9.20029 12.3895 9.53067 12 9.53067Z" fill="#141414"/>
<path d="M17.7095 3.45755C18.3365 3.45755 18.935 3.71991 19.372 4.15717C19.828 4.6333 20.075 5.24548 20.075 5.8868V8.23831C20.075 8.95737 19.7615 9.28774 19.049 9.28774H17.225V3.95312C17.225 3.68104 17.4435 3.45755 17.7095 3.45755ZM17.7095 2C16.655 2 15.8 2.87453 15.8 3.95312V10.7453H19.049C20.55 10.7453 21.5 9.77359 21.5 8.23831V5.8868C21.5 4.81793 21.0725 3.84623 20.3885 3.13689C19.695 2.43726 18.7545 2.00972 17.7095 2Z" fill="#141414"/>
</svg>
