<svg width="24" height="24" viewBox="0 0 24 24" fill="none" xmlns="http://www.w3.org/2000/svg">
<path d="M15.7872 2H8.22276C4.44055 2 3.5 3.01088 3.5 7.04441V18.3143C3.5 20.9766 4.96085 21.6072 6.73189 19.7055L6.74189 19.6955C7.56237 18.8247 8.8131 18.8948 9.52352 19.8456L10.5341 21.1968C11.3446 22.2677 12.6553 22.2677 13.4658 21.1968L14.4764 19.8456C15.1968 18.8848 16.4476 18.8147 17.268 19.6955C19.0491 21.5971 20.4999 20.9666 20.4999 18.3043V7.04441C20.5099 3.01088 19.5694 2 15.7872 2ZM14.7566 10.7577H9.25336C8.84312 10.7577 8.50292 10.4174 8.50292 10.007C8.50292 9.59665 8.84312 9.25635 9.25336 9.25635H14.7566C15.1668 9.25635 15.507 9.59665 15.507 10.007C15.507 10.4174 15.1668 10.7577 14.7566 10.7577Z" fill="#141414"/>
</svg>
