<svg width="24" height="24" viewBox="0 0 24 24" fill="none" xmlns="http://www.w3.org/2000/svg">
<path d="M15.7908 2H8.22413C4.44082 2 3.5 3.01088 3.5 7.04441V18.3143C3.5 20.9766 4.96128 21.6072 6.73283 19.7055L6.74284 19.6955C7.56356 18.8247 8.81465 18.8948 9.52527 19.8456L10.5362 21.1968C11.3469 22.2677 12.658 22.2677 13.4687 21.1968L14.4796 19.8456C15.2002 18.8848 16.4513 18.8147 17.272 19.6955C19.0536 21.5971 20.5049 20.9666 20.5049 18.3043V7.04441C20.5149 3.01088 19.5741 2 15.7908 2ZM15.6706 14.541C15.5205 14.6911 15.3304 14.7612 15.1402 14.7612C14.95 14.7612 14.7599 14.6911 14.6097 14.541L13.8691 13.8003C13.2886 14.1807 12.588 14.4109 11.8373 14.4109C9.79551 14.4109 8.13405 12.7494 8.13405 10.7076C8.13405 8.66583 9.7855 7.00438 11.8373 7.00438C13.8891 7.00438 15.5405 8.66583 15.5405 10.7076C15.5405 11.4583 15.3103 12.1589 14.93 12.7394L15.6706 13.48C15.9609 13.7703 15.9609 14.2507 15.6706 14.541Z" fill="#141414"/>
</svg>
