<svg width="24" height="24" viewBox="0 0 24 24" fill="none" xmlns="http://www.w3.org/2000/svg">
<path d="M13.4162 13.3181H11.0574C10.7732 13.3181 10.5459 13.5568 10.5459 13.8553C10.5459 14.1537 10.7732 14.3924 11.0574 14.3924H13.4162C13.7004 14.3924 13.9277 14.1537 13.9277 13.8553C13.9277 13.5568 13.7004 13.3181 13.4162 13.3181Z" fill="#141414"/>
<path d="M9.5796 13.3181H8.39548C8.11129 13.3181 7.88394 13.5568 7.88394 13.8553C7.88394 14.1537 8.11129 14.3924 8.39548 14.3924H9.5796C9.86379 14.3924 10.0911 14.1537 10.0911 13.8553C10.0911 13.5568 9.86379 13.3181 9.5796 13.3181Z" fill="#141414"/>
<path d="M18.2 4.20592L12.9899 2.15668C12.4499 1.94777 11.5689 1.94777 11.029 2.15668L5.81882 4.20592C4.81468 4.60383 4 5.83735 4 6.96145V15.0192C4 15.8249 4.50207 16.8893 5.11782 17.3668L10.328 21.4554C11.2469 22.1815 12.7531 22.1815 13.6719 21.4554L18.8821 17.3668C19.4978 16.8794 19.9999 15.8249 19.9999 15.0192V6.96145C20.0094 5.83735 19.1947 4.60383 18.2 4.20592ZM17.8495 13.5867C17.8306 15.6459 17.2906 16.1631 15.2539 16.1631H8.76493C6.69034 16.1631 6.16932 15.626 6.16932 13.4673V11.1495C6.16932 10.8709 6.37773 10.6521 6.64297 10.6521H17.3759C17.6411 10.6521 17.8495 10.8709 17.8495 11.1495V13.5867ZM17.8495 9.07038C17.8495 9.34892 17.6411 9.56777 17.3759 9.56777H6.64297C6.37773 9.56777 6.16932 9.34892 6.16932 9.07038V8.43372C6.16932 6.48396 6.60508 5.85725 8.22496 5.74782C8.39548 5.74782 8.57546 5.73788 8.76493 5.73788H15.2539C17.3285 5.73788 17.8495 6.27506 17.8495 8.43372V9.07038Z" fill="#141414"/>
</svg>
