<svg width="24" height="24" viewBox="0 0 24 24" fill="none" xmlns="http://www.w3.org/2000/svg">
<path d="M9.95181 10.4627C9.95181 10.9831 10.0964 11.0602 10.4241 11.1759L10.9157 11.3494V9.71084H10.6265C10.2602 9.71084 9.95181 10.0482 9.95181 10.4627Z" fill="#141414"/>
<path d="M12.3614 15.012H12.6506C13.0265 15.012 13.3253 14.6747 13.3253 14.2602C13.3253 13.7398 13.1807 13.6627 12.853 13.547L12.3614 13.3735V15.012Z" fill="#141414"/>
<path d="M18.9446 6.07711L16.9687 8.05301C16.8241 8.19759 16.641 8.26506 16.4578 8.26506C16.2747 8.26506 16.0916 8.19759 15.947 8.05301C15.6675 7.77349 15.6675 7.31084 15.947 7.03133L17.9229 5.05542C16.2265 3.60964 14.0386 2.72289 11.6386 2.72289C6.31807 2.72289 2 7.04096 2 12.3614C2 17.6819 6.31807 22 11.6386 22C16.959 22 21.2771 17.6819 21.2771 12.3614C21.2771 9.96145 20.3904 7.77349 18.9446 6.07711ZM13.3253 12.188C13.9422 12.4096 14.7711 12.853 14.7711 14.2699C14.7711 15.4747 13.8169 16.4675 12.6506 16.4675H12.3614V16.7084C12.3614 17.1036 12.0337 17.4313 11.6386 17.4313C11.2434 17.4313 10.9157 17.1036 10.9157 16.7084V16.4675H10.8386C9.55663 16.4675 8.50602 15.388 8.50602 14.0578C8.50602 13.653 8.83374 13.3253 9.22892 13.3253C9.6241 13.3253 9.95181 13.653 9.95181 14.0482C9.95181 14.5783 10.347 15.012 10.8386 15.012H10.9157V12.8723L9.95181 12.5349C9.33494 12.3133 8.50602 11.8699 8.50602 10.453C8.50602 9.24819 9.46024 8.25542 10.6265 8.25542H10.9157V8.0241C10.9157 7.62892 11.2434 7.30121 11.6386 7.30121C12.0337 7.30121 12.3614 7.62892 12.3614 8.0241V8.26506H12.4386C13.7205 8.26506 14.7711 9.34458 14.7711 10.6747C14.7711 11.0699 14.4434 11.3976 14.0482 11.3976C13.653 11.3976 13.3253 11.0699 13.3253 10.6747C13.3253 10.1446 12.9301 9.71084 12.4386 9.71084H12.3614V11.8506L13.3253 12.188Z" fill="#141414"/>
<path d="M21.9422 2.44337C21.8651 2.26988 21.7301 2.1253 21.547 2.04819C21.4602 2.01928 21.3735 2 21.2771 2H17.4217C17.0265 2 16.6988 2.32771 16.6988 2.72289C16.6988 3.11807 17.0265 3.44578 17.4217 3.44578H19.5325L17.9229 5.05542C18.2892 5.37349 18.6265 5.71084 18.9446 6.07711L20.5542 4.46747V6.57831C20.5542 6.97349 20.8819 7.30121 21.2771 7.30121C21.6723 7.30121 22 6.97349 22 6.57831V2.72289C22 2.62651 21.9807 2.53976 21.9422 2.44337Z" fill="#141414"/>
</svg>
