<svg width="24" height="24" viewBox="0 0 24 24" fill="none" xmlns="http://www.w3.org/2000/svg">
<path d="M16.1971 2H7.8129C4.17108 2 2 4.17 2 7.81V16.18C2 19.83 4.17108 22 7.8129 22H16.1871C19.8289 22 22 19.83 22 16.19V7.81C22.01 4.17 19.8389 2 16.1971 2ZM19.0085 8.24C19.0085 8.79 18.5583 9.24 18.008 9.24H16.007C15.5968 9.24 15.2566 9.58 15.2566 9.99C15.2566 10.41 15.5968 10.74 16.007 10.74H18.008C18.5583 10.74 19.0085 11.19 19.0085 11.74V12.25C19.0085 12.8 18.5583 13.25 18.008 13.25H16.007C15.5968 13.25 15.2566 13.59 15.2566 14C15.2566 14.41 15.5968 14.75 16.007 14.75H18.008C18.5583 14.75 19.0085 15.2 19.0085 15.75V16C19.0085 17.66 17.6678 19 16.007 19H8.00299C6.34216 19 5.0015 17.66 5.0015 16V15.5C5.0015 14.95 5.45172 14.5 6.00199 14.5H7.48273C8.95346 14.5 10.124 13.24 9.97397 11.74C9.84391 10.44 8.65332 9.5 7.34266 9.5H6.00199C5.45172 9.5 5.0015 9.05 5.0015 8.5V8C5.0015 6.34 6.34216 5 8.00299 5H16.007C17.6678 5 19.0085 6.34 19.0085 8V8.24ZM5.0015 12C5.0015 11.45 5.45172 11 6.00199 11H7.00249C7.55277 11 8.00299 11.45 8.00299 12C8.00299 12.55 7.55277 13 7.00249 13H6.00199C5.45172 13 5.0015 12.55 5.0015 12Z" fill="#141414"/>
</svg>
