<svg width="24" height="24" viewBox="0 0 24 24" fill="none" xmlns="http://www.w3.org/2000/svg">
<path d="M21.3023 10.7857C21.6837 10.7857 22 10.4554 22 10.0571V9.08571C22 4.80171 20.7535 3.5 16.6512 3.5H10.8372V5.68571C10.8372 6.084 10.5209 6.41429 10.1395 6.41429C9.75814 6.41429 9.44186 6.084 9.44186 5.68571V3.5H7.34884C3.24651 3.5 2 4.80171 2 9.08571V9.57143C2 9.96971 2.31628 10.3 2.69767 10.3C3.5907 10.3 4.32558 11.0674 4.32558 12C4.32558 12.9326 3.5907 13.7 2.69767 13.7C2.31628 13.7 2 14.0303 2 14.4286V14.9143C2 19.1983 3.24651 20.5 7.34884 20.5H9.44186V18.3143C9.44186 17.916 9.75814 17.5857 10.1395 17.5857C10.5209 17.5857 10.8372 17.916 10.8372 18.3143V20.5H16.6512C20.7535 20.5 22 19.1983 22 14.9143C22 14.516 21.6837 14.1857 21.3023 14.1857C20.4093 14.1857 19.6744 13.4183 19.6744 12.4857C19.6744 11.5531 20.4093 10.7857 21.3023 10.7857ZM10.8372 14.108C10.8372 14.5063 10.5209 14.8366 10.1395 14.8366C9.75814 14.8366 9.44186 14.5063 9.44186 14.108V9.892C9.44186 9.49371 9.75814 9.16343 10.1395 9.16343C10.5209 9.16343 10.8372 9.49371 10.8372 9.892V14.108Z" fill="#141414"/>
</svg>
