<svg width="24" height="24" viewBox="0 0 24 24" fill="none" xmlns="http://www.w3.org/2000/svg">
<path d="M20.4811 8.42725L15.5751 3.51439C14.5463 2.48409 13.1276 1.93099 11.6764 2.00691L6.2614 2.26719C4.09542 2.3648 2.37346 4.08918 2.26516 6.24737L2.00524 11.67C1.94026 13.1232 2.48176 14.5439 3.5106 15.5742L8.41656 20.4871C10.4309 22.5043 13.7016 22.5043 15.7268 20.4871L20.4811 15.7261C22.5063 13.7197 22.5063 10.4445 20.4811 8.42725ZM9.29378 12.4183C7.57182 12.4183 6.17476 11.0193 6.17476 9.29487C6.17476 7.57048 7.57182 6.17145 9.29378 6.17145C11.0157 6.17145 12.4128 7.57048 12.4128 9.29487C12.4128 11.0193 11.0157 12.4183 9.29378 12.4183Z" fill="#141414"/>
</svg>
