<svg width="24" height="24" viewBox="0 0 24 24" fill="none" xmlns="http://www.w3.org/2000/svg">
<path d="M16.6475 4H9.90446V6.96806C9.90446 7.35135 9.58431 7.65602 9.20414 7.65602C8.82397 7.65602 8.50382 7.35135 8.50382 6.96806V4H7.34329C3.39148 4 2.09088 5.15971 2.00084 8.78624C1.99084 8.96315 2.07087 9.14988 2.20093 9.27764C2.33099 9.41523 2.50107 9.48403 2.70116 9.48403C4.1018 9.48403 5.25233 10.6241 5.25233 12C5.25233 13.3759 4.1018 14.516 2.70116 14.516C2.51107 14.516 2.33099 14.5848 2.20093 14.7224C2.07087 14.8501 1.99084 15.0369 2.00084 15.2138C2.09088 18.8403 3.39148 20 7.34329 20H8.50382V17.0319C8.50382 16.6487 8.82397 16.344 9.20414 16.344C9.58431 16.344 9.90446 16.6487 9.90446 17.0319V20H16.6475C20.7494 20 22 18.7715 22 14.742V9.25799C22 5.2285 20.7494 4 16.6475 4ZM18.4684 11.9017L17.538 12.7862C17.4979 12.8157 17.4879 12.8747 17.4979 12.9238L17.718 14.172C17.7581 14.398 17.668 14.6339 17.4679 14.7715C17.2778 14.9091 17.0277 14.9287 16.8176 14.8206L15.6671 14.231C15.6271 14.2113 15.5671 14.2113 15.527 14.231L14.3765 14.8206C14.2865 14.8698 14.1864 14.8894 14.0864 14.8894C13.9563 14.8894 13.8363 14.8501 13.7262 14.7715C13.5361 14.6339 13.4361 14.4079 13.4761 14.172L13.6962 12.9238C13.7062 12.8747 13.6862 12.8256 13.6562 12.7862L12.7258 11.9017C12.5557 11.7445 12.4956 11.4988 12.5657 11.2826C12.6357 11.0565 12.8258 10.8993 13.0659 10.8698L14.3465 10.683C14.3965 10.6732 14.4365 10.6437 14.4665 10.6044L15.0368 9.46437C15.1469 9.25799 15.357 9.13022 15.5971 9.13022C15.8372 9.13022 16.0473 9.25799 16.1473 9.46437L16.7176 10.6044C16.7376 10.6536 16.7776 10.683 16.8276 10.683L18.1082 10.8698C18.3483 10.8993 18.5384 11.0663 18.6084 11.2826C18.6985 11.4988 18.6385 11.7346 18.4684 11.9017Z" fill="#141414"/>
</svg>
