<svg width="24" height="24" viewBox="0 0 24 24" fill="none" xmlns="http://www.w3.org/2000/svg">
<path d="M19.8496 12.9315C19.8496 13.7224 20.4997 14.3749 21.2999 14.3749C21.6799 14.3749 22 14.6813 22 15.057C22 18.8532 20.8398 20 16.999 20H11.748V18.4281C11.748 18.0426 11.448 17.7262 11.0679 17.6966C11.0479 17.6867 11.0179 17.6867 10.9979 17.6867C10.5878 17.6867 10.2478 18.0228 10.2478 18.4281V20H8.48742C6.60706 20 5.63688 18.6061 4.75671 16.5004L4.58668 16.0852C4.44665 15.7293 4.61668 15.3239 4.97675 15.1855C5.34682 15.0471 5.63688 14.7604 5.78691 14.3848C5.94694 14.019 5.94694 13.6137 5.79691 13.2479C5.47685 12.4867 4.59668 12.1209 3.81653 12.4273C3.6465 12.5064 3.44646 12.5064 3.27643 12.4273C3.1064 12.3581 2.97637 12.2197 2.89636 12.0418L2.74633 11.6463C1.25604 8.06763 1.90617 6.5353 5.52686 5.0524L7.97732 4.05392C8.33739 3.90563 8.74747 4.07369 8.8875 4.42959L11.0679 9.12543C10.6578 9.12543 10.2478 9.45166 10.2478 9.85699V14.1475C10.2478 14.5528 10.5878 14.889 10.9979 14.889C11.0179 14.889 11.0479 14.889 11.0679 14.8791C11.448 14.8494 11.748 14.5331 11.748 14.1475V9.85699C11.748 9.47143 11.448 9.15508 11.0679 9.12543V5.01286H16.999C20.8398 5.01286 22 6.15963 22 9.95585V10.7962C22 11.1817 21.6799 11.4882 21.2999 11.4882C20.4997 11.4882 19.8496 12.1308 19.8496 12.9315Z" fill="#141414"/>
</svg>
