<svg width="24" height="24" viewBox="0 0 24 24" fill="none" xmlns="http://www.w3.org/2000/svg">
<path d="M21.3 10.8557C21.69 10.8557 22 10.5513 22 10.1682V9.25476C22 5.22775 20.75 4 16.65 4H7.35C3.25 4 2 5.22775 2 9.25476V9.71639C2 10.0994 2.31 10.4039 2.7 10.4039C3.6 10.4039 4.33 11.1209 4.33 12.0049C4.33 12.8889 3.6 13.5961 2.7 13.5961C2.31 13.5961 2 13.9006 2 14.2836V14.7452C2 18.7723 3.25 20 7.35 20H16.65C20.75 20 22 18.7723 22 14.7452C22 14.3622 21.69 14.0577 21.3 14.0577C20.4 14.0577 19.67 13.3407 19.67 12.4567C19.67 11.5727 20.4 10.8557 21.3 10.8557ZM9 8.93063C9.55 8.93063 10 9.37262 10 9.91283C10 10.453 9.56 10.895 9 10.895C8.45 10.895 8 10.453 8 9.91283C8 9.37262 8.44 8.93063 9 8.93063ZM15 15.806C14.44 15.806 13.99 15.364 13.99 14.8238C13.99 14.2836 14.44 13.8416 14.99 13.8416C15.54 13.8416 15.99 14.2836 15.99 14.8238C15.99 15.364 15.56 15.806 15 15.806ZM15.9 9.51995L9.17 16.1301C9.02 16.2775 8.83 16.3462 8.64 16.3462C8.45 16.3462 8.26 16.2775 8.11 16.1301C7.82 15.8453 7.82 15.3738 8.11 15.089L14.84 8.47882C15.13 8.19398 15.61 8.19398 15.9 8.47882C16.19 8.76366 16.19 9.23511 15.9 9.51995Z" fill="#141414"/>
</svg>
