<svg width="24" height="24" viewBox="0 0 24 24" fill="none" xmlns="http://www.w3.org/2000/svg">
<path d="M21.5238 11.8317H19.1429C18.0952 11.8317 17.2381 12.7033 17.2381 13.7686C17.2381 14.8338 18.0952 15.7054 19.1429 15.7054H21.5238C21.7905 15.7054 22 15.4923 22 15.2212V12.3159C22 12.0448 21.7905 11.8317 21.5238 11.8317Z" fill="#141414"/>
<path d="M5.80952 14.2528C4.66667 14.2528 3.64762 14.766 2.95238 15.5698C2.3619 16.2574 2 17.1483 2 18.1264C2 18.8527 2.2 19.5402 2.55238 20.1213C3.20952 21.2446 4.41905 22 5.80952 22C6.77143 22 7.64762 21.6417 8.31429 21.0316C8.60952 20.7798 8.86667 20.4699 9.06667 20.1213C9.41905 19.5402 9.61905 18.8527 9.61905 18.1264C9.61905 15.9862 7.91429 14.2528 5.80952 14.2528ZM7.33333 19.6565C7.19048 19.8017 7.00952 19.8695 6.82857 19.8695C6.64762 19.8695 6.46667 19.8017 6.32381 19.6565L5.81905 19.1432L5.29524 19.6758C5.15238 19.8211 4.97143 19.8889 4.79048 19.8889C4.60952 19.8889 4.42857 19.8211 4.28571 19.6758C4.00952 19.395 4.00952 18.9302 4.28571 18.6493L4.80952 18.1167L4.30476 17.6034C4.02857 17.3226 4.02857 16.8578 4.30476 16.5769C4.58095 16.2961 5.0381 16.2961 5.31429 16.5769L5.81905 17.0902L6.29524 16.606C6.57143 16.3251 7.02857 16.3251 7.30476 16.606C7.58095 16.8868 7.58095 17.3517 7.30476 17.6325L6.82857 18.1167L7.33333 18.6299C7.60952 18.9108 7.60952 19.3659 7.33333 19.6565Z" fill="#141414"/>
<path d="M16.7905 4.95606C17.0762 5.2369 16.8381 5.67268 16.4381 5.67268L8.55238 5.66299C8.09524 5.66299 7.86667 5.10132 8.19048 4.77206L9.85714 3.06767C11.2667 1.64411 13.5429 1.64411 14.9524 3.06767L16.7524 4.91732C16.7619 4.92701 16.781 4.94637 16.7905 4.95606Z" fill="#141414"/>
<path d="M21.8762 17.7971C21.2952 19.792 19.619 21.0316 17.3333 21.0316H11.1429C10.7714 21.0316 10.5333 20.6152 10.6857 20.2666C10.9714 19.5887 11.1524 18.8236 11.1524 18.1264C11.1524 15.1921 8.8 12.8001 5.91429 12.8001C5.19048 12.8001 4.48571 12.9551 3.8381 13.2456C3.48571 13.4006 3.05714 13.1585 3.05714 12.7711V11.3475C3.05714 8.71347 4.61905 6.8735 7.04762 6.56361C7.28571 6.52488 7.54286 6.50551 7.80952 6.50551H17.3333C17.581 6.50551 17.819 6.51519 18.0476 6.55393C19.9714 6.77666 21.3619 7.9678 21.8762 9.73998C21.9714 10.0596 21.7429 10.3791 21.419 10.3791H19.2381C17.1714 10.3791 15.5333 12.2966 15.981 14.4755C16.2952 16.0637 17.7429 17.158 19.3333 17.158H21.419C21.7524 17.158 21.9714 17.4872 21.8762 17.7971Z" fill="#141414"/>
</svg>
