<svg width="24" height="24" viewBox="0 0 24 24" fill="none" xmlns="http://www.w3.org/2000/svg">
<path d="M2 12.6634V17.771C2 20.1102 3.85 22 6.14 22H17.85C20.14 22 22 20.1 22 17.7608V12.6634C22 11.979 21.46 11.4274 20.79 11.4274H3.21C2.54 11.4274 2 11.979 2 12.6634ZM8 18.578H6C5.59 18.578 5.25 18.2306 5.25 17.8118C5.25 17.393 5.59 17.0457 6 17.0457H8C8.41 17.0457 8.75 17.393 8.75 17.8118C8.75 18.2306 8.41 18.578 8 18.578ZM14.5 18.578H10.5C10.09 18.578 9.75 18.2306 9.75 17.8118C9.75 17.393 10.09 17.0457 10.5 17.0457H14.5C14.91 17.0457 15.25 17.393 15.25 17.8118C15.25 18.2306 14.91 18.578 14.5 18.578Z" fill="#141414"/>
<path d="M13.5 5.66613V8.65914C13.5 9.34355 12.96 9.89516 12.29 9.89516H3.21C2.53 9.89516 2 9.32312 2 8.63871C2.01 7.48441 2.46 6.43226 3.21 5.66613C3.96 4.9 5 4.43011 6.14 4.43011H12.29C12.96 4.43011 13.5 4.98172 13.5 5.66613Z" fill="#141414"/>
<path d="M19.97 3H17.03C15.76 3 15 3.77634 15 5.07366V8.07688C15 9.37419 15.76 10.1505 17.03 10.1505H19.97C21.24 10.1505 22 9.37419 22 8.07688V5.07366C22 3.77634 21.24 3 19.97 3ZM20.34 7.58656C20.45 7.71935 20.51 7.86237 20.51 8.03602C20.51 8.17903 20.45 8.34247 20.34 8.45484C20.11 8.68979 19.72 8.68979 19.49 8.45484L18.5 7.44355L17.52 8.46505C17.29 8.7 16.9 8.7 16.66 8.45484C16.43 8.21989 16.43 7.82151 16.66 7.58656L17.66 6.58548L16.67 5.57419C16.44 5.33925 16.43 4.94086 16.66 4.6957C16.89 4.45054 17.28 4.46075 17.52 4.70591L18.5 5.7172L19.5 4.6957C19.73 4.46075 20.12 4.46075 20.35 4.6957C20.46 4.82849 20.51 4.98172 20.52 5.14516C20.52 5.28817 20.46 5.45161 20.36 5.57419L19.36 6.5957L20.34 7.58656Z" fill="#141414"/>
</svg>
