<svg width="24" height="24" viewBox="0 0 24 24" fill="none" xmlns="http://www.w3.org/2000/svg">
<path d="M5.80952 14.2528C3.70476 14.2528 2 15.9862 2 18.1264C2 18.8527 2.2 19.5402 2.55238 20.1213C3.20952 21.2446 4.41905 22 5.80952 22C7.2 22 8.40952 21.2446 9.06667 20.1213C9.41905 19.5402 9.61905 18.8527 9.61905 18.1264C9.61905 15.9862 7.91429 14.2528 5.80952 14.2528ZM7.22857 18.8333H6.52381V19.5887C6.52381 19.9857 6.2 20.315 5.80952 20.315C5.41905 20.315 5.09524 19.9857 5.09524 19.5887V18.8333H4.39048C4 18.8333 3.67619 18.5041 3.67619 18.107C3.67619 17.71 4 17.3807 4.39048 17.3807H5.09524V16.6931C5.09524 16.2961 5.41905 15.9668 5.80952 15.9668C6.2 15.9668 6.52381 16.2961 6.52381 16.6931V17.3807H7.22857C7.61905 17.3807 7.94286 17.71 7.94286 18.107C7.94286 18.5041 7.62857 18.8333 7.22857 18.8333Z" fill="#141414"/>
<path d="M21.5238 11.8317H19.1429C18.0952 11.8317 17.2381 12.7033 17.2381 13.7686C17.2381 14.8338 18.0952 15.7054 19.1429 15.7054H21.5238C21.7905 15.7054 22 15.4923 22 15.2212V12.3159C22 12.0448 21.7905 11.8317 21.5238 11.8317Z" fill="#141414"/>
<path d="M16.7905 4.95606C17.0762 5.2369 16.8381 5.67268 16.4381 5.67268L8.55238 5.66299C8.09524 5.66299 7.86667 5.10132 8.19048 4.77206L9.85714 3.06767C11.2667 1.64411 13.5429 1.64411 14.9524 3.06767L16.7524 4.91732C16.7619 4.92701 16.781 4.94637 16.7905 4.95606Z" fill="#141414"/>
<path d="M21.8762 17.7971C21.2952 19.792 19.619 21.0316 17.3333 21.0316H11.1429C10.7714 21.0316 10.5333 20.6152 10.6857 20.2666C10.9714 19.5887 11.1524 18.8236 11.1524 18.1264C11.1524 15.1921 8.8 12.8001 5.91429 12.8001C5.19048 12.8001 4.48571 12.9551 3.8381 13.2456C3.48571 13.4006 3.05714 13.1585 3.05714 12.7711V11.3475C3.05714 8.71347 4.61905 6.8735 7.04762 6.56361C7.28571 6.52488 7.54286 6.50551 7.80952 6.50551H17.3333C17.581 6.50551 17.819 6.51519 18.0476 6.55393C19.9714 6.77666 21.3619 7.9678 21.8762 9.73998C21.9714 10.0596 21.7429 10.3791 21.419 10.3791H19.2381C17.1714 10.3791 15.5333 12.2966 15.981 14.4755C16.2952 16.0637 17.7429 17.158 19.3333 17.158H21.419C21.7524 17.158 21.9714 17.4872 21.8762 17.7971Z" fill="#141414"/>
</svg>
