<svg width="24" height="24" viewBox="0 0 24 24" fill="none" xmlns="http://www.w3.org/2000/svg">
<path d="M1.22986 21.6817L1.98986 20.9217C1.58986 20.3217 1.35986 19.6017 1.35986 18.8317C1.35986 16.7217 3.06986 15.0117 5.17986 15.0117C7.28986 15.0117 8.99986 16.7117 8.99986 18.8217C8.99986 20.9317 7.28986 22.6417 5.17986 22.6417C4.40986 22.6417 3.68986 22.4117 3.08986 22.0117L2.32986 22.7717C2.16986 22.9217 1.96986 23.0017 1.76986 23.0017C1.56986 23.0017 1.36986 22.9217 1.21986 22.7717C0.919859 22.4717 0.919859 21.9817 1.22986 21.6817Z" fill="#141414"/>
<path d="M21.5 12.5H19C17.9 12.5 17 13.4 17 14.5C17 15.6 17.9 16.5 19 16.5H21.5C21.78 16.5 22 16.28 22 16V13C22 12.72 21.78 12.5 21.5 12.5Z" fill="#141414"/>
<path d="M16.53 5.4C16.83 5.69 16.58 6.14 16.16 6.14L7.88 6.13C7.4 6.13 7.16 5.55 7.5 5.21L9.25 3.45C10.73 1.98 13.12 1.98 14.6 3.45L16.49 5.36C16.5 5.37 16.52 5.39 16.53 5.4Z" fill="#141414"/>
<path d="M21.87 18.66C21.26 20.72 19.5 22 17.1 22H10.6C10.21 22 9.96 21.57 10.12 21.21C10.42 20.51 10.61 19.72 10.61 19C10.61 15.97 8.14 13.5 5.11 13.5C4.35 13.5 3.61 13.66 2.93 13.96C2.56 14.12 2.11 13.87 2.11 13.47V12C2.11 9.28 3.75 7.38 6.3 7.06C6.55 7.02 6.82 7 7.1 7H17.1C17.36 7 17.61 7.01 17.85 7.05C19.87 7.28 21.33 8.51 21.87 10.34C21.97 10.67 21.73 11 21.39 11H19.1C16.93 11 15.21 12.98 15.68 15.23C16.01 16.87 17.53 18 19.2 18H21.39C21.74 18 21.97 18.34 21.87 18.66Z" fill="#141414"/>
</svg>
