<svg width="24" height="24" viewBox="0 0 24 24" fill="none" xmlns="http://www.w3.org/2000/svg">
<path d="M19.97 2.5H17.03C15.76 2.5 15 3.26605 15 4.54615V7.50955C15 8.78966 15.76 9.5557 17.03 9.5557H19.97C21.24 9.5557 22 8.78966 22 7.50955V4.54615C22 3.26605 21.24 2.5 19.97 2.5ZM20.19 5.83634C20.07 5.95729 19.91 6.01777 19.75 6.01777C19.59 6.01777 19.43 5.95729 19.31 5.83634L19.13 5.65491V7.91273C19.13 8.26552 18.85 8.54775 18.5 8.54775C18.15 8.54775 17.87 8.26552 17.87 7.91273V5.65491L17.69 5.83634C17.45 6.07825 17.05 6.07825 16.81 5.83634C16.57 5.59443 16.57 5.19125 16.81 4.94934L18.06 3.68939C18.11 3.63899 18.18 3.59867 18.25 3.56843C18.27 3.55836 18.29 3.55836 18.31 3.54828C18.36 3.52812 18.41 3.51804 18.47 3.51804C18.49 3.51804 18.51 3.51804 18.53 3.51804C18.6 3.51804 18.66 3.52812 18.73 3.55836C18.74 3.55836 18.74 3.55836 18.75 3.55836C18.82 3.58859 18.88 3.62891 18.93 3.67931C18.94 3.68939 18.94 3.68939 18.95 3.68939L20.2 4.94934C20.44 5.19125 20.44 5.59443 20.19 5.83634Z" fill="#141414"/>
<path d="M2 12.2873V17.3271C2 19.6353 3.85 21.5 6.14 21.5H17.85C20.14 21.5 22 19.6252 22 17.317V12.2873C22 11.6119 21.46 11.0676 20.79 11.0676H3.21C2.54 11.0676 2 11.6119 2 12.2873ZM8 18.1233H6C5.59 18.1233 5.25 17.7806 5.25 17.3674C5.25 16.9541 5.59 16.6114 6 16.6114H8C8.41 16.6114 8.75 16.9541 8.75 17.3674C8.75 17.7806 8.41 18.1233 8 18.1233ZM14.5 18.1233H10.5C10.09 18.1233 9.75 17.7806 9.75 17.3674C9.75 16.9541 10.09 16.6114 10.5 16.6114H14.5C14.91 16.6114 15.25 16.9541 15.25 17.3674C15.25 17.7806 14.91 18.1233 14.5 18.1233Z" fill="#141414"/>
<path d="M13.5 5.38276V8.33607C13.5 9.01141 12.96 9.5557 12.29 9.5557H3.21C2.53 9.5557 2 8.99125 2 8.31592C2.01 7.17692 2.46 6.13873 3.21 5.38276C3.96 4.62679 5 4.16313 6.14 4.16313H12.29C12.96 4.16313 13.5 4.70743 13.5 5.38276Z" fill="#141414"/>
</svg>
