<svg width="24" height="24" viewBox="0 0 24 24" fill="none" xmlns="http://www.w3.org/2000/svg">
<path d="M2.22113 20.7218L2.9448 19.9859C2.56392 19.4049 2.34491 18.7077 2.34491 17.9621C2.34491 15.9189 3.97318 14.2631 5.98233 14.2631C7.99148 14.2631 9.61975 15.9092 9.61975 17.9524C9.61975 19.9956 7.99148 21.6514 5.98233 21.6514C5.24914 21.6514 4.56355 21.4287 3.99223 21.0414L3.26855 21.7773C3.1162 21.9225 2.92576 22 2.73532 22C2.54488 22 2.35444 21.9225 2.21161 21.7773C1.92594 21.4868 1.92594 21.0123 2.22113 20.7218Z" fill="#141414"/>
<path d="M21.5224 11.8309H19.1419C18.0945 11.8309 17.2375 12.7024 17.2375 13.7676C17.2375 14.8327 18.0945 15.7042 19.1419 15.7042H21.5224C21.789 15.7042 21.9985 15.4912 21.9985 15.2201V12.3151C21.9985 12.044 21.789 11.8309 21.5224 11.8309Z" fill="#141414"/>
<path d="M16.79 4.95581C17.0756 5.23663 16.8376 5.67237 16.4377 5.67237L8.55342 5.66269C8.09636 5.66269 7.86783 5.10106 8.19158 4.77183L9.85794 3.06758C11.2672 1.64414 13.543 1.64414 14.9522 3.06758L16.7519 4.91708C16.7614 4.92676 16.7805 4.94613 16.79 4.95581Z" fill="#141414"/>
<path d="M21.8747 17.7958C21.2939 19.7906 19.618 21.03 17.3327 21.03H11.1434C10.7721 21.03 10.534 20.6136 10.6864 20.265C10.972 19.5872 11.1529 18.8222 11.1529 18.125C11.1529 15.191 8.80099 12.7992 5.91581 12.7992C5.19214 12.7992 4.48751 12.9542 3.84001 13.2447C3.48769 13.3996 3.0592 13.1575 3.0592 12.7702V11.3468C3.0592 8.71291 4.62082 6.8731 7.04893 6.56323C7.28699 6.5245 7.54408 6.50513 7.8107 6.50513H17.3327C17.5803 6.50513 17.8184 6.51482 18.0469 6.55355C19.9703 6.77626 21.3606 7.9673 21.8747 9.73934C21.97 10.0589 21.7414 10.3784 21.4177 10.3784H19.2371C17.1709 10.3784 15.5331 12.2957 15.9806 14.4744C16.2948 16.0625 17.7422 17.1567 19.3324 17.1567H21.4177C21.751 17.1567 21.97 17.4859 21.8747 17.7958Z" fill="#141414"/>
</svg>
