<svg width="24" height="24" viewBox="0 0 24 24" fill="none" xmlns="http://www.w3.org/2000/svg">
<path d="M19.5 9.2093C19.5 5.23721 16.1323 2 12 2C7.86774 2 4.5 5.23721 4.5 9.2093C4.5 9.5907 4.82903 9.90698 5.22581 9.90698C5.62258 9.90698 5.95161 9.5907 5.95161 9.2093C5.95161 6 8.66129 3.39535 12 3.39535C15.3387 3.39535 18.0484 6 18.0484 9.2093C18.0484 12.4186 15.3387 15.0233 12 15.0233C11.6032 15.0233 11.2742 15.3395 11.2742 15.7209V21.3023C11.2742 21.6837 11.6032 22 12 22C12.3968 22 12.7258 21.6837 12.7258 21.3023V16.3814C16.5194 16.0279 19.5 12.9488 19.5 9.2093Z" fill="#141414"/>
<path d="M14.9032 19.2093H9.09677C8.7 19.2093 8.37097 18.893 8.37097 18.5116C8.37097 18.1302 8.7 17.814 9.09677 17.814H14.9032C15.3 17.814 15.629 18.1302 15.629 18.5116C15.629 18.893 15.3 19.2093 14.9032 19.2093Z" fill="#141414"/>
</svg>
