<svg width="24" height="24" viewBox="0 0 24 24" fill="none" xmlns="http://www.w3.org/2000/svg">
<path d="M21.9392 2.46582C21.8684 2.28354 21.7165 2.13165 21.5342 2.06076C21.4329 2.02025 21.3418 2 21.2405 2H14.6582C14.243 2 13.8987 2.3443 13.8987 2.75949C13.8987 3.17468 14.243 3.51899 14.6582 3.51899H19.4076L14.8405 8.0962H14.8304C13.4734 6.97215 11.7418 6.3038 9.8481 6.3038C5.51392 6.3038 2 9.81772 2 14.1519C2 18.4861 5.51392 22 9.8481 22C14.1823 22 17.6962 18.4861 17.6962 14.1519C17.6962 12.2582 17.0278 10.5266 15.9038 9.16962L20.481 4.59241V9.34177C20.481 9.75696 20.8253 10.1013 21.2405 10.1013C21.6557 10.1013 22 9.75696 22 9.34177V2.75949C22 2.65823 21.9797 2.56709 21.9392 2.46582Z" fill="#141414"/>
</svg>
