<svg width="24" height="24" viewBox="0 0 24 24" fill="none" xmlns="http://www.w3.org/2000/svg">
<path d="M21.9385 2.47179C21.8564 2.28718 21.7128 2.13333 21.5179 2.05128C21.4256 2.02051 21.3332 2 21.2307 2H11.9987C11.5782 2 11.2294 2.34872 11.2294 2.76923C11.2294 3.18974 11.5782 3.53846 11.9987 3.53846H19.374L2.22311 20.6872C1.92563 20.9846 1.92563 21.4769 2.22311 21.7744C2.37697 21.9282 2.57187 22 2.76676 22C2.96166 22 3.15656 21.9282 3.31042 21.7744L20.4613 4.62564V12C20.4613 12.4205 20.8101 12.7692 21.2307 12.7692C21.6512 12.7692 22 12.4205 22 12V2.76923C22 2.66667 21.9795 2.57436 21.9385 2.47179Z" fill="#141414"/>
<path d="M17.5379 18.3077C17.343 18.3077 17.1481 18.2359 16.9942 18.0821L5.91589 7.00513C5.61841 6.70769 5.61841 6.21538 5.91589 5.91795C6.21336 5.62051 6.70573 5.62051 7.00321 5.91795L18.0815 16.9949C18.379 17.2923 18.379 17.7846 18.0815 18.0821C17.9277 18.2359 17.7328 18.3077 17.5379 18.3077Z" fill="#141414"/>
</svg>
