<svg width="24" height="24" viewBox="0 0 24 24" fill="none" xmlns="http://www.w3.org/2000/svg">
<path d="M18.5 8.74699C18.5 5.01687 15.5936 2 12 2C8.40643 2 5.5 5.01687 5.5 8.74699C5.5 12.2361 8.04429 15.0988 11.3036 15.4554V17.6627H9.21429C8.83357 17.6627 8.51786 17.9904 8.51786 18.3855C8.51786 18.7807 8.83357 19.1084 9.21429 19.1084H11.3036V21.2771C11.3036 21.6723 11.6193 22 12 22C12.3807 22 12.6964 21.6723 12.6964 21.2771V19.1084H14.7857C15.1664 19.1084 15.4821 18.7807 15.4821 18.3855C15.4821 17.9904 15.1664 17.6627 14.7857 17.6627H12.6964V15.4554C15.9557 15.0988 18.5 12.2361 18.5 8.74699Z" fill="#141414"/>
</svg>
