<svg width="24" height="24" viewBox="0 0 24 24" fill="none" xmlns="http://www.w3.org/2000/svg">
<path d="M16.1971 2H7.8129C4.17108 2 2 4.17 2 7.81V16.18C2 19.83 4.17108 22 7.8129 22H16.1871C19.8289 22 22 19.83 22 16.19V7.81C22.01 4.17 19.8389 2 16.1971 2ZM10.4942 16.72C10.1541 17.06 9.70384 17.29 9.15356 17.36L7.80289 17.51C7.06252 17.59 6.43221 16.96 6.51225 16.21L6.66232 14.85C6.79239 13.64 7.80289 12.87 8.87343 12.85C8.97347 12.84 9.09353 12.85 9.20359 12.86C9.67382 12.92 10.124 13.14 10.5042 13.51C10.8744 13.88 11.0845 14.32 11.1446 14.77C11.1546 14.88 11.1646 14.99 11.1646 15.09C11.1646 15.71 10.9345 16.28 10.4942 16.72ZM17.4477 7.55C16.7273 9.35 15.0765 11.71 13.5057 13.25C13.2756 11.83 12.1451 10.71 10.7043 10.51C12.2451 8.93 14.6263 7.26 16.4372 6.53C16.7574 6.41 17.0775 6.5 17.2776 6.7C17.4777 6.92 17.5778 7.23 17.4477 7.55Z" fill="#141414"/>
</svg>
