<svg width="24" height="24" viewBox="0 0 24 24" fill="none" xmlns="http://www.w3.org/2000/svg">
<path d="M21.891 3.93801C20.5772 7.20779 17.5785 11.4775 14.7202 14.2673C14.309 11.6875 12.243 9.66763 9.63539 9.30765C12.4436 6.44784 16.7561 3.41804 20.0457 2.09813C20.6273 1.87814 21.209 2.04813 21.5701 2.40811C21.9512 2.78808 22.1317 3.35805 21.891 3.93801Z" fill="#141414"/>
<path d="M13.8376 15.0873C13.637 15.2573 13.4364 15.4272 13.2359 15.5872L11.4406 17.0171C11.4406 16.9871 11.4306 16.9471 11.4306 16.9071C11.2902 15.8372 10.7887 14.8473 9.97639 14.0373C9.154 13.2174 8.13102 12.7174 7.00776 12.5774C6.97767 12.5774 6.93755 12.5674 6.90747 12.5674L8.36169 10.7376C8.5021 10.5576 8.65254 10.3876 8.813 10.2076L9.49499 10.2976C11.6513 10.5976 13.3863 12.2874 13.7273 14.4273L13.8376 15.0873Z" fill="#141414"/>
<path d="M10.4778 17.6171C10.4778 18.717 10.0566 19.7669 9.25429 20.5569C8.64251 21.1769 7.82012 21.5968 6.8172 21.7168L4.36006 21.9868C3.01616 22.1368 1.8628 20.9869 2.01324 19.637L2.28403 17.1771C2.52473 14.9873 4.36006 13.5874 6.30572 13.5474C6.49627 13.5374 6.70688 13.5474 6.90747 13.5674C7.75994 13.6774 8.58233 14.0673 9.27434 14.7473C9.9463 15.4172 10.3274 16.2072 10.4377 17.0371C10.4578 17.2371 10.4778 17.4271 10.4778 17.6171Z" fill="#141414"/>
</svg>
