<svg width="24" height="24" viewBox="0 0 24 24" fill="none" xmlns="http://www.w3.org/2000/svg">
<path d="M13.5488 6.7852L16.1319 5.51436C16.4469 5.35682 16.5309 4.94721 16.2894 4.69514C15.3549 3.66587 14.4098 2.80464 13.6538 2.15346C13.3073 1.85938 12.7928 2.10095 12.7928 2.55257V6.31258C12.7928 6.70118 13.2023 6.95325 13.5488 6.7852Z" fill="#141414"/>
<path d="M12.7928 19.7352V21.4681C12.7928 21.7832 13.0763 22.0458 13.3913 21.9933C16.2579 21.5207 18.652 19.5986 19.786 17.0149C19.9855 16.5738 19.5025 16.1327 19.0615 16.3428L13.0868 19.273C12.9083 19.3571 12.7928 19.5356 12.7928 19.7352Z" fill="#141414"/>
<path d="M11.2178 2.53156C11.2178 2.07994 10.7033 1.83838 10.3567 2.12195C7.87868 4.20151 3.47907 8.58118 3.50007 13.6015C3.50007 17.8237 6.58715 21.3211 10.6193 21.9933C10.9343 22.0458 11.2178 21.7832 11.2178 21.4681V2.53156Z" fill="#141414"/>
<path d="M13.5173 12.0996L19.072 9.768C19.3555 9.64197 19.492 9.31638 19.3555 9.04331C18.967 8.2766 18.5154 7.5309 18.0219 6.83772C17.8749 6.62766 17.6019 6.56464 17.3709 6.66967L13.0763 8.75973C12.8978 8.84375 12.7823 9.03281 12.7823 9.23236V11.6165C12.7928 11.9841 13.1708 12.2467 13.5173 12.0996Z" fill="#141414"/>
<path d="M20.227 14.0321C20.395 13.9481 20.5 13.7906 20.5 13.612C20.5 12.9399 20.416 12.2782 20.269 11.627C20.1955 11.3119 19.849 11.1439 19.555 11.2699L13.1078 14.0216C12.9188 14.1057 12.7928 14.2947 12.7928 14.5048V16.8154C12.7928 17.204 13.2023 17.4561 13.5488 17.288L19.744 14.2737L20.227 14.0321Z" fill="#141414"/>
</svg>
