<svg width="24" height="24" viewBox="0 0 24 24" fill="none" xmlns="http://www.w3.org/2000/svg">
<path d="M15.93 8.07C15.48 4.64 12.55 2 9 2C5.13 2 2 5.13 2 9C2 12.55 4.64 15.48 8.07 15.93C8.37 15.98 8.68 16 9 16C9.11637 16 9.23124 15.997 9.34519 15.991C9.56556 15.9793 9.65604 15.716 9.5 15.56C9.21 15.26 9.21 14.79 9.5 14.5C9.79 14.2 10.27 14.2 10.56 14.5L11.3395 15.2795C11.4796 15.4196 11.6899 15.4653 11.8709 15.3847C12.2534 15.2145 12.6152 15.0103 12.9564 14.7743C13.2006 14.6053 13.2161 14.2581 13.0049 14.0493L12.5 13.55C12.21 13.26 12.2 12.79 12.5 12.49C12.79 12.2 13.26 12.19 13.56 12.48L14.0686 12.9829C14.2784 13.1904 14.6229 13.1728 14.7909 12.9302C15.0217 12.5969 15.2225 12.2431 15.3875 11.869C15.4669 11.689 15.4206 11.4806 15.2815 11.3415L14.5 10.56C14.21 10.26 14.21 9.79 14.5 9.5C14.79 9.2 15.27 9.2 15.56 9.5C15.716 9.65604 15.9793 9.56556 15.991 9.34519C15.997 9.23124 16 9.11637 16 9C16 8.68 15.98 8.37 15.93 8.07Z" fill="#141414"/>
<path d="M22 15C22 18.87 18.87 22 15 22C12.0698 22 9.55572 20.2 8.52159 17.6328C8.39638 17.3219 8.66488 17 9 17C9.35 17 9.68 16.98 10.02 16.93L10.5251 16.8627C10.6795 16.8421 10.8346 16.8946 10.9447 17.0047L11.47 17.53C11.62 17.68 11.81 17.75 12 17.75C12.2 17.75 12.39 17.68 12.53 17.53C12.83 17.24 12.83 16.76 12.53 16.47C12.4337 16.3737 12.4639 16.2103 12.5858 16.1495C12.9848 15.9507 13.3936 15.6973 13.7616 15.4238C13.9694 15.2694 14.2611 15.2794 14.4453 15.4613L14.93 15.94C15.08 16.08 15.27 16.16 15.46 16.16C15.65 16.16 15.85 16.08 15.99 15.93C16.28 15.64 16.28 15.16 15.98 14.87L15.502 14.3979C15.3192 14.2174 15.304 13.9286 15.4554 13.721C15.7188 13.3598 15.9662 12.9667 16.1628 12.5817C16.222 12.4658 16.378 12.438 16.47 12.53C16.62 12.68 16.81 12.75 17 12.75C17.2 12.75 17.39 12.68 17.53 12.53C17.83 12.24 17.83 11.76 17.53 11.47L17.0047 10.9447C16.8946 10.8346 16.8421 10.6795 16.8627 10.5251L16.93 10.02C16.98 9.68 17 9.35 17 9C17 8.66504 17.322 8.39678 17.6325 8.52229C20.1924 9.55686 22 12.0705 22 15Z" fill="#141414"/>
</svg>
