<svg width="24" height="24" viewBox="0 0 24 24" fill="none" xmlns="http://www.w3.org/2000/svg">
<path d="M22 4.59459V7.51351C22 9.5027 21.3946 10.1081 19.4054 10.1081H16.4865C14.4973 10.1081 13.8919 9.5027 13.8919 7.51351V4.59459C13.8919 2.60541 14.4973 2 16.4865 2H19.4054C21.3946 2 22 2.60541 22 4.59459Z" fill="#141414"/>
<path d="M10.1081 16.4865V19.4054C10.1081 21.3946 9.5027 22 7.51351 22H4.59459C2.60541 22 2 21.3946 2 19.4054V16.4865C2 14.4973 2.60541 13.8919 4.59459 13.8919H7.51351C9.5027 13.8919 10.1081 14.4973 10.1081 16.4865Z" fill="#141414"/>
<path d="M16.4865 11.7297C16.7731 11.7297 17.0054 11.9621 17.0054 12.2486V13.7514C17.0054 16.2162 16.2162 17.0054 13.7514 17.0054H12.2486C11.9621 17.0054 11.7297 16.7731 11.7297 16.4865C11.7297 13.6108 10.3892 12.2703 7.51351 12.2703C7.22692 12.2703 6.99459 12.0379 6.99459 11.7514V10.2486C6.99459 7.78378 7.78378 6.99459 10.2486 6.99459H11.7514C12.0379 6.99459 12.2703 7.22692 12.2703 7.51351C12.2703 10.3892 13.6108 11.7297 16.4865 11.7297Z" fill="#141414"/>
</svg>
