<svg width="24" height="24" viewBox="0 0 24 24" fill="none" xmlns="http://www.w3.org/2000/svg">
<path d="M18.4909 7.9875C18.7545 8.69062 19.4091 9.1875 20.1818 9.1875C21.1818 9.1875 22 8.34375 22 7.3125C22 6.28125 21.1818 5.4375 20.1818 5.4375C19.4091 5.4375 18.7545 5.93438 18.4909 6.6375C18.4455 6.62813 18.4091 6.60938 18.3636 6.60938H14.7273V5.90625C14.7273 5.1375 14.1091 4.5 13.3636 4.5H10.6364C9.89091 4.5 9.27273 5.1375 9.27273 5.90625V6.60938H5.63636C5.59091 6.60938 5.55455 6.62813 5.50909 6.6375C5.24545 5.93438 4.59091 5.4375 3.81818 5.4375C2.81818 5.4375 2 6.28125 2 7.3125C2 8.34375 2.81818 9.1875 3.81818 9.1875C4.59091 9.1875 5.24545 8.69062 5.50909 7.9875C5.55455 7.99687 5.59091 8.01562 5.63636 8.01562H7.97273C6.10909 9.44063 4.95455 11.8031 4.95455 14.3438C4.95455 14.5031 4.96364 14.6531 4.98182 14.8125H4.72727C3.97273 14.8125 3.36364 15.4406 3.36364 16.2188V18.0938C3.36364 18.8719 3.97273 19.5 4.72727 19.5H6.54545C6.74545 19.5 6.92727 19.4531 7.1 19.3688C7.57273 19.1625 7.90909 18.6656 7.90909 18.0938V16.2188C7.90909 15.4406 7.3 14.8125 6.54545 14.8125H6.33636C6.33636 14.7844 6.34545 14.7562 6.34545 14.7281C6.32727 14.5969 6.32727 14.475 6.32727 14.3438C6.32727 12.0281 7.48182 9.90938 9.29091 8.8125C9.32727 9.53438 9.91818 10.125 10.6364 10.125H13.3636C14.0818 10.125 14.6727 9.53438 14.7182 8.8125C16.5273 9.90938 17.6818 12.0375 17.6818 14.3438C17.6818 14.475 17.6727 14.5969 17.6636 14.7281C17.6636 14.7562 17.6727 14.7844 17.6727 14.8125H17.4545C16.7 14.8125 16.0909 15.4406 16.0909 16.2188V18.0938C16.0909 18.6656 16.4273 19.1625 16.9 19.3688C17.0727 19.4531 17.2545 19.5 17.4545 19.5H19.2727C20.0273 19.5 20.6364 18.8719 20.6364 18.0938V16.2188C20.6364 15.4406 20.0273 14.8125 19.2727 14.8125H19.0182C19.0364 14.6531 19.0455 14.5031 19.0455 14.3438C19.0455 11.8031 17.8909 9.44063 16.0273 8.01562H18.3636C18.4091 8.01562 18.4455 7.99687 18.4909 7.9875Z" fill="#141414"/>
</svg>
