<svg width="24" height="24" viewBox="0 0 24 24" fill="none" xmlns="http://www.w3.org/2000/svg">
<path d="M16.1971 2H7.8129C4.17108 2 2 4.17 2 7.81V16.18C2 19.83 4.17108 22 7.8129 22H16.1871C19.8289 22 22 19.83 22 16.19V7.81C22.01 4.17 19.8389 2 16.1971 2ZM9.06352 16.25L6.50224 13.68C6.06202 13.24 5.85192 12.8 5.86192 12.35C5.87193 11.93 6.09204 11.52 6.50224 11.11L10.104 7.51L9.54376 6.96C9.35366 6.77 9.35366 6.47 9.54376 6.28C9.73385 6.09 10.034 6.09 10.2241 6.28L15.4767 11.53C15.5768 11.63 15.6468 11.78 15.6468 11.92C15.6568 12.09 15.6068 12.26 15.4767 12.39L11.6248 16.24C10.7844 17.1 9.92395 17.1 9.06352 16.25ZM16.6473 17.86C15.8169 17.86 15.1466 17.19 15.1466 16.36C15.1466 15.52 16.137 14.41 16.3371 14.19C16.4972 14.01 16.8074 14.01 16.9775 14.19C17.1776 14.4 18.1681 15.52 18.1681 16.36C18.148 17.19 17.4777 17.86 16.6473 17.86Z" fill="#141414"/>
</svg>
