<svg width="24" height="24" viewBox="0 0 24 24" fill="none" xmlns="http://www.w3.org/2000/svg">
<path d="M16.1971 2H7.8129C4.17108 2 2 4.17 2 7.81V16.18C2 19.83 4.17108 22 7.8129 22H16.1871C19.8289 22 22 19.83 22 16.19V7.81C22.01 4.17 19.8389 2 16.1971 2ZM12.005 6C13.996 6 15.6068 7.61 15.6068 9.6C15.6068 10.07 15.5167 10.52 15.3567 10.93C14.9465 11.97 14.056 12.78 12.9555 13.08C12.6553 13.16 12.3351 13.21 12.005 13.21C11.6748 13.21 11.3547 13.17 11.0545 13.08C9.95396 12.78 9.06352 11.98 8.65332 10.93C8.49324 10.52 8.40319 10.07 8.40319 9.6C8.40319 7.61 10.014 6 12.005 6ZM9.60379 18C7.6128 18 6.00199 16.39 6.00199 14.4C6.00199 13.2675 6.53087 12.2563 7.34699 11.5961C7.58383 11.4045 7.92211 11.5252 8.07047 11.7912C8.65552 12.8402 9.64935 13.6195 10.8144 13.93C11.1946 14.04 11.5848 14.09 12.005 14.09C12.254 14.09 12.492 14.0716 12.7234 14.0347C12.9608 13.9969 13.2056 14.1497 13.2056 14.39C13.2056 15.45 12.7454 16.41 12.005 17.07C11.3647 17.65 10.5242 18 9.60379 18ZM14.4062 18C14.0575 18 13.7158 17.9511 13.3934 17.8576C13.0668 17.7628 13.007 17.3559 13.2115 17.0843C13.7868 16.3202 14.106 15.3764 14.106 14.4C14.106 14.2 14.086 13.99 14.056 13.8C14.0381 13.6868 14.0958 13.5756 14.1959 13.5197C14.9204 13.1155 15.5272 12.5224 15.9312 11.7942C16.0793 11.5272 16.4178 11.4042 16.656 11.5953C17.4787 12.2555 18.008 13.267 18.008 14.4C18.008 16.39 16.3972 18 14.4062 18Z" fill="#141414"/>
</svg>
