<svg width="24" height="24" viewBox="0 0 24 24" fill="none" xmlns="http://www.w3.org/2000/svg">
<path d="M17.3835 10.2127L9.24949 2.2117C8.96252 1.92943 8.48754 1.92943 8.20058 2.2117C7.91361 2.49398 7.91361 2.96119 8.20058 3.24346L9.06148 4.09028L3.49037 9.57026C2.85706 10.1932 2.52062 10.8259 2.50083 11.4586C2.48103 12.1302 2.81748 12.8018 3.49037 13.4734L7.45842 17.3766C8.78441 18.6711 10.1104 18.6711 11.4265 17.3766L17.3835 11.517C17.5814 11.3223 17.6705 11.0595 17.6507 10.8064C17.6408 10.5923 17.5418 10.3684 17.3835 10.2127Z" fill="#141414"/>
<path d="M16.3544 22H3.49037C3.08465 22 2.74821 21.6691 2.74821 21.27C2.74821 20.8709 3.08465 20.54 3.49037 20.54H16.3544C16.7601 20.54 17.0965 20.8709 17.0965 21.27C17.0965 21.6691 16.7601 22 16.3544 22Z" fill="#141414"/>
<path d="M19.6693 14.2424C19.4121 13.9698 18.9371 13.9698 18.6798 14.2424C18.3731 14.5733 16.8492 16.2572 16.8492 17.542C16.8492 18.8074 17.8882 19.8294 19.1746 19.8294C20.461 19.8294 21.5 18.8074 21.5 17.542C21.5 16.2669 19.9761 14.5733 19.6693 14.2424Z" fill="#141414"/>
</svg>
