<svg width="24" height="24" viewBox="0 0 24 24" fill="none" xmlns="http://www.w3.org/2000/svg">
<path d="M20.835 13.2642L19.9363 12.3848L12.3651 19.948L13.2737 20.8567C14.0357 21.6189 14.827 22 15.6085 22C16.39 22 17.1813 21.6189 17.9433 20.8567L20.835 17.9643C22.3883 16.4009 22.3883 14.8277 20.835 13.2642Z" fill="#141414"/>
<path d="M10.7239 3.1506C9.19013 1.61647 7.57821 1.61647 6.04445 3.1506L3.143 6.04299C1.619 7.57713 1.619 9.18945 3.143 10.7236L4.04176 11.6226L11.6129 4.04959L10.7239 3.1506Z" fill="#141414"/>
<path d="M21.5872 4.13754C20.3075 7.33284 17.3865 11.5053 14.6023 14.2316C14.2017 11.7105 12.1893 9.73666 9.64928 9.38488C12.3847 6.5902 16.5854 3.62941 19.7897 2.33956C20.3563 2.12459 20.9229 2.2907 21.2746 2.64248C21.6459 3.0138 21.8217 3.57078 21.5872 4.13754Z" fill="#141414"/>
<path d="M13.7426 15.0329C13.5472 15.199 13.3518 15.3651 13.1564 15.5214L11.4077 16.9188C11.4077 16.8895 11.398 16.8504 11.398 16.8113C11.2612 15.7657 10.7727 14.7983 9.98144 14.0068C9.18036 13.2056 8.1839 12.717 7.08975 12.5802C7.06045 12.5802 7.02137 12.5704 6.99206 12.5704L8.4086 10.7822C8.54536 10.6063 8.6919 10.4402 8.84821 10.2643L9.51252 10.3523C11.6129 10.6454 13.303 12.2968 13.6351 14.3879L13.7426 15.0329Z" fill="#141414"/>
<path d="M10.4699 17.5051C10.4699 18.5799 10.0596 19.606 9.27806 20.3779C8.68213 20.9838 7.88106 21.3942 6.90414 21.5114L4.51068 21.7753C3.20161 21.9218 2.07815 20.7981 2.22469 19.4789L2.48846 17.0751C2.72292 14.9351 4.51069 13.5671 6.40591 13.528C6.59153 13.5183 6.79668 13.528 6.99206 13.5476C7.82244 13.6551 8.62352 14.0362 9.29759 14.7006C9.95213 15.3553 10.3234 16.1273 10.4308 16.9383C10.4504 17.1337 10.4699 17.3194 10.4699 17.5051Z" fill="#141414"/>
</svg>
