<svg width="24" height="24" viewBox="0 0 24 24" fill="none" xmlns="http://www.w3.org/2000/svg">
<path d="M15.3757 20.8959L6.4331 21.9734C5.81208 22.0518 5.25795 21.9538 4.7898 21.7187C4.29298 21.4641 3.90126 21.0722 3.65286 20.5531C3.42356 20.0731 3.33757 19.5147 3.40445 18.8878L4.21655 11.8839C4.29298 11.9132 4.36942 11.9426 4.44585 11.9622C5.02865 12.1777 5.64966 12.2855 6.29934 12.2855C7.69424 12.2855 9.04137 11.7663 10.0637 10.8357C10.5031 10.4439 10.8949 9.9737 11.2101 9.43494C11.4777 8.97454 11.6783 8.48475 11.8121 8.00476C11.8789 7.75008 11.9363 7.4758 11.9745 7.20152C11.984 7.15254 11.984 7.10356 11.984 7.05458L12.1464 7.06438L17.9553 13.03L18.2037 17.3597C18.4426 19.789 17.6209 20.6314 15.3757 20.8959Z" fill="#141414"/>
<path d="M6.29934 2C5.28661 2 4.35031 2.36244 3.61464 2.96977C2.62102 3.77302 2 5.01708 2 6.40806C2 7.2309 2.2293 8.01456 2.62102 8.68067C3.0414 9.39575 3.65286 9.9835 4.39808 10.3557C4.5605 10.4439 4.74203 10.5223 4.92355 10.581C5.35349 10.7378 5.81208 10.8161 6.29934 10.8161C7.38851 10.8161 8.37258 10.4047 9.12735 9.71901C9.46175 9.42514 9.74837 9.07249 9.97767 8.68067C10.1783 8.33782 10.3312 7.97538 10.4363 7.58355C10.4936 7.38763 10.5318 7.18192 10.5605 6.96642C10.5891 6.7803 10.5987 6.59418 10.5987 6.40806C10.5987 3.96894 8.67831 2 6.29934 2ZM7.9522 8.08313C7.81844 8.22027 7.62736 8.29864 7.44583 8.29864C7.26431 8.29864 7.08278 8.22027 6.93947 8.08313L6.3089 7.43661L5.65922 8.10272C5.51591 8.24966 5.33438 8.31823 5.15285 8.31823C4.97132 8.31823 4.78024 8.24966 4.64648 8.10272C4.36942 7.81865 4.36942 7.34845 4.64648 7.06438L5.30572 6.38847L4.66559 5.75175C4.38852 5.46768 4.38852 4.99748 4.66559 4.71341C4.94266 4.42933 5.40126 4.42933 5.67833 4.71341L6.3089 5.35992L6.9108 4.7428C7.18787 4.45872 7.64647 4.45872 7.92354 4.7428C8.20061 5.02687 8.20061 5.49707 7.92354 5.78114L7.32163 6.39827L7.9522 7.04479C8.23882 7.32886 8.23882 7.78926 7.9522 8.08313Z" fill="#141414"/>
<path d="M21.1082 10.1108L19.1305 11.3941C18.7579 11.6292 18.2802 11.5802 17.9744 11.2569L13.742 6.91744C13.4363 6.60398 13.3789 6.11419 13.6082 5.73216L14.8598 3.70445C15.6241 2.47019 17.1528 2.41142 18.2897 3.55752L21.2611 6.60398C22.3025 7.6913 22.2356 9.37616 21.1082 10.1108Z" fill="#141414"/>
</svg>
