<svg width="24" height="24" viewBox="0 0 24 24" fill="none" xmlns="http://www.w3.org/2000/svg">
<path d="M19.2416 4.89428L13.4876 2.28493C12.6432 1.90502 11.3667 1.90502 10.5222 2.28493L4.76822 4.89428C3.31499 5.55411 3.09897 6.45389 3.09897 6.93377C3.09897 7.41365 3.31499 8.31342 4.76822 8.97326L10.5222 11.5826C10.9444 11.7726 11.4747 11.8725 12.0049 11.8725C12.5351 11.8725 13.0654 11.7726 13.4876 11.5826L19.2416 8.97326C20.6948 8.31342 20.9109 7.41365 20.9109 6.93377C20.9109 6.45389 20.7047 5.55411 19.2416 4.89428Z" fill="#141414"/>
<path d="M12.0049 17.0412C11.6318 17.0412 11.2587 16.9613 10.915 16.8113L4.2969 13.812C3.28553 13.3522 2.5 12.1225 2.5 10.9928C2.5 10.5829 2.82403 10.2529 3.22662 10.2529C3.6292 10.2529 3.95323 10.5829 3.95323 10.9928C3.95323 11.5326 4.39509 12.2324 4.88605 12.4524L11.5041 15.4516C11.8183 15.5916 12.1817 15.5916 12.4959 15.4516L19.114 12.4524C19.6049 12.2324 20.0468 11.5426 20.0468 10.9928C20.0468 10.5829 20.3708 10.2529 20.7734 10.2529C21.176 10.2529 21.5 10.5829 21.5 10.9928C21.5 12.1125 20.7145 13.3522 19.7031 13.812L13.085 16.8113C12.7512 16.9613 12.378 17.0412 12.0049 17.0412Z" fill="#141414"/>
<path d="M12.0049 22C11.6318 22 11.2587 21.92 10.915 21.7701L4.2969 18.7708C3.20698 18.2809 2.5 17.1712 2.5 15.9515C2.5 15.5416 2.82403 15.2117 3.22662 15.2117C3.6292 15.2117 3.95323 15.5416 3.95323 15.9515C3.95323 16.5814 4.31654 17.1512 4.88605 17.4111L11.5041 20.4104C11.8183 20.5504 12.1817 20.5504 12.4959 20.4104L19.114 17.4111C19.6736 17.1612 20.0468 16.5814 20.0468 15.9515C20.0468 15.5416 20.3708 15.2117 20.7734 15.2117C21.176 15.2117 21.5 15.5416 21.5 15.9515C21.5 17.1712 20.793 18.2709 19.7031 18.7708L13.085 21.7701C12.7512 21.92 12.378 22 12.0049 22Z" fill="#141414"/>
</svg>
