<svg width="24" height="24" viewBox="0 0 24 24" fill="none" xmlns="http://www.w3.org/2000/svg">
<path d="M22 5.26486V8.75676C22 11.0428 21.2349 11.8908 19.1684 12.0073C18.8703 12.0241 18.627 11.7796 18.627 11.4811V10.2486C18.627 6.87568 17.1243 5.37297 13.7514 5.37297H12.5189C12.2204 5.37297 11.9759 5.12967 11.9927 4.83161C12.1092 2.76511 12.9572 2 15.2432 2H18.7351C21.2108 2 22 2.78919 22 5.26486Z" fill="#141414"/>
<path d="M17.0054 10.2486V13.7514C17.0054 16.2162 16.2162 17.0054 13.7514 17.0054H10.2486C7.78378 17.0054 6.99459 16.2162 6.99459 13.7514V10.2486C6.99459 7.78378 7.78378 6.99459 10.2486 6.99459H13.7514C16.2162 6.99459 17.0054 7.78378 17.0054 10.2486Z" fill="#141414"/>
<path d="M11.4811 18.627C11.7796 18.627 12.0241 18.8703 12.0073 19.1684C11.8908 21.2349 11.0428 22 8.75676 22H5.26486C2.78919 22 2 21.2108 2 18.7351V15.2432C2 12.9572 2.76511 12.1092 4.83161 11.9927C5.12967 11.9759 5.37297 12.2204 5.37297 12.5189V13.7514C5.37297 17.1243 6.87568 18.627 10.2486 18.627H11.4811Z" fill="#141414"/>
</svg>
