<svg width="24" height="24" viewBox="0 0 24 24" fill="none" xmlns="http://www.w3.org/2000/svg">
<path d="M15.7998 22H8.21133C4.07129 22 3.25119 19.47 4.59497 16.39L6.0178 13.12C6.0178 13.12 9.04132 13 12.0055 14C14.9698 15 17.766 13.11 17.766 13.11L17.9538 12.99L19.426 16.4C20.75 19.48 19.8805 22 15.7998 22Z" fill="#141414"/>
<path d="M15.4045 6.74H15.2464L17.351 11.6L16.9459 11.86C16.9262 11.87 14.6931 13.32 12.4699 12.58C10.148 11.79 7.8161 11.65 6.66993 11.63L8.78442 6.74H8.48799C7.84574 6.74 7.2529 6.48 6.82802 6.05C6.40315 5.62 6.14625 5.02 6.14625 4.37C6.14625 3.07 7.19361 2 8.48799 2H15.5132C16.1653 2 16.7483 2.27 17.1732 2.7C17.7265 3.26 18.0131 4.08 17.7957 4.95C17.5388 6.03 16.5112 6.74 15.4045 6.74Z" fill="#141414"/>
</svg>
