<svg width="24" height="24" viewBox="0 0 24 24" fill="none" xmlns="http://www.w3.org/2000/svg">
<path d="M13.0704 14.682H4.32474C2.56206 14.682 1.43859 12.7794 2.29088 11.2182L6.65884 3.20746C7.54019 1.59751 9.84523 1.59751 10.7266 3.20746L12.8476 7.08111L15.1042 11.2182C15.9565 12.7794 14.833 14.682 13.0704 14.682Z" fill="#141414"/>
<path d="M22 15.6578C22 19.1606 19.1816 22 15.7047 22C12.7508 22 10.2811 19.9607 9.59342 17.1897C9.52563 16.8969 9.74838 16.6335 10.0486 16.6335H13.6999C15.0461 16.6335 16.2664 15.931 16.9541 14.7699C17.632 13.599 17.6611 12.1939 17.0025 11.0035L16.5182 10.1059C16.3342 9.77412 16.5957 9.37407 16.9638 9.44237C19.8305 10.0278 22 12.5842 22 15.6578Z" fill="#141414"/>
</svg>
