<svg width="24" height="24" viewBox="0 0 24 24" fill="none" xmlns="http://www.w3.org/2000/svg">
<path d="M7.53 12C7.53 11.3369 7.67791 10.7072 7.94077 10.1372C8.14428 9.69595 8.10926 9.15926 7.76566 8.81566L5.18859 6.23859C4.77853 5.82853 4.10241 5.85006 3.77142 6.32624C2.65098 7.93819 2 9.89398 2 12C2 14.1044 2.64997 16.0588 3.76277 17.67C4.09278 18.1478 4.76993 18.171 5.18107 17.7609L7.76414 15.1844C8.10851 14.8408 8.14393 14.3035 7.94032 13.8618C7.67774 13.2921 7.53 12.6627 7.53 12Z" fill="#141414"/>
<path d="M12.03 7.5C12.6931 7.5 13.3228 7.64791 13.8928 7.91078C14.334 8.11428 14.8707 8.07926 15.2143 7.73566L17.7636 5.18643C18.1728 4.77717 18.1523 4.10256 17.6777 3.77141C16.0716 2.65097 14.1145 2 12 2C9.89581 2 7.94872 2.64985 6.33978 3.76248C5.86216 4.09277 5.83904 4.76993 6.24914 5.18107L8.81021 7.74868C9.15611 8.09546 9.69807 8.12873 10.1417 7.92105C10.7155 7.6524 11.3537 7.5 12.03 7.5Z" fill="#141414"/>
<path d="M19.9201 5.90609C19.7424 5.67647 19.405 5.66452 19.1995 5.86956L15.9807 9.0801C15.8073 9.25305 15.7874 9.52475 15.9113 9.73599C16.3017 10.4014 16.53 11.1722 16.53 12C16.53 12.828 16.3016 13.5989 15.911 14.2645C15.7872 14.4755 15.8069 14.7469 15.9799 14.9199L19.1995 18.1395C19.4049 18.3449 19.7427 18.3332 19.9205 18.1033C21.2257 16.415 22 14.2968 22 12C22 9.70297 21.2256 7.59316 19.9201 5.90609Z" fill="#141414"/>
<path d="M12.03 16.5C11.202 16.5 10.4311 16.2716 9.76551 15.881C9.5545 15.7572 9.28311 15.7769 9.11011 15.9499L5.86054 19.1995C5.65505 19.4049 5.6668 19.7427 5.8967 19.9204C7.58502 21.2257 9.70317 22 12 22C14.3071 22 16.4269 21.225 18.1078 19.9108C18.3358 19.7325 18.3464 19.3964 18.1418 19.1918L14.9172 15.9672C14.7454 15.7954 14.4763 15.7746 14.2659 15.896C13.6028 16.2785 12.8414 16.5 12.03 16.5Z" fill="#141414"/>
</svg>
