<svg width="24" height="24" viewBox="0 0 24 24" fill="none" xmlns="http://www.w3.org/2000/svg">
<path d="M5.32999 19.4323C7.09529 21.0371 9.4323 22 12 22C17.5165 22 22 17.5165 22 12C22 6.48345 17.5165 2 12 2C9.4323 2 7.09529 2.96289 5.32999 4.5677C3.28385 6.38315 2 9.05115 2 12C2 14.9488 3.28385 17.6169 5.32999 19.4323ZM12.0301 7.59679C12.0501 5.94182 13.2839 5.54062 14.4373 6.00201C16.8144 6.95486 18.4895 9.28184 18.4895 12C18.4895 14.7182 16.8144 17.0451 14.4373 18.008C13.2839 18.4694 12.0501 18.0582 12.0301 16.4132V7.59679Z" fill="#141414"/>
</svg>
