<svg width="24" height="24" viewBox="0 0 24 24" fill="none" xmlns="http://www.w3.org/2000/svg">
<path d="M16.241 9.52552L20.9502 14.2367C21.2301 14.5168 21.72 14.3668 21.8 13.9767C21.93 13.3365 22 12.6763 22 12.0062C22 9.71557 21.2201 7.60502 19.9304 5.92459C19.7504 5.68453 19.3905 5.67452 19.1805 5.88458L16.241 8.82534C16.0511 9.01538 16.0511 9.33547 16.241 9.52552Z" fill="#141414"/>
<path d="M14.4813 10.5858L12.7117 12.3562C12.5117 12.5563 12.5117 12.8664 12.7117 13.0664L18.5306 18.8879C18.7306 19.088 19.0505 19.088 19.2405 18.8879C19.8604 18.2378 20.3903 17.5076 20.8202 16.7174C20.9202 16.5273 20.8802 16.2773 20.7302 16.1272L15.1912 10.5858C14.9913 10.3957 14.6713 10.3957 14.4813 10.5858Z" fill="#141414"/>
<path d="M10.942 14.1267L9.18229 15.8872C8.98233 16.0872 8.98233 16.3973 9.18229 16.5973L14.1014 21.5286C14.2314 21.6586 14.4214 21.7087 14.5913 21.6586C15.5212 21.4086 16.401 21.0285 17.2009 20.5284C17.4708 20.3583 17.5108 19.9782 17.2808 19.7482L11.6518 14.1167C11.4519 13.9367 11.1319 13.9367 10.942 14.1267Z" fill="#141414"/>
<path d="M18.0807 4.07411C16.1011 2.54372 13.5315 1.74351 10.772 2.07359C6.26281 2.61373 2.61347 6.27468 2.07356 10.7758C1.74362 13.5366 2.54348 16.0972 4.0732 18.0877C4.25317 18.3278 4.61311 18.3378 4.82307 18.1277L18.1207 4.8243C18.3307 4.61425 18.3207 4.25416 18.0807 4.07411Z" fill="#141414"/>
<path d="M7.40261 17.6776L5.88288 19.198C5.67292 19.4081 5.68292 19.7682 5.92287 19.9482C7.4326 21.1185 9.28227 21.8587 11.3119 21.9987C11.7418 22.0287 11.9518 21.5186 11.6419 21.2085L8.11248 17.6776C7.92252 17.4776 7.60257 17.4776 7.40261 17.6776Z" fill="#141414"/>
</svg>
