<svg width="24" height="24" viewBox="0 0 24 24" fill="none" xmlns="http://www.w3.org/2000/svg">
<path d="M8 6C9.54 6 10.94 6.58004 12 7.54004C13.23 8.63004 14 10.23 14 12C14 13.77 13.23 15.37 12 16.46C10.94 17.42 9.54 18 8 18C4.69 18 2 15.31 2 12C2 8.69 4.69 6 8 6ZM16 6C19.31 6 22 8.69 22 12C22 15.31 19.31 18 16 18C15.2555 18 14.539 17.8644 13.8809 17.6143C13.5623 17.4931 13.5029 17.085 13.7246 16.8262C14.8666 15.4937 15.5 13.786 15.5 12C15.5 10.2082 14.8608 8.49446 13.7275 7.1748C13.505 6.91556 13.5643 6.50602 13.8838 6.38477C14.5412 6.13524 15.2565 6 16 6Z" fill="#141414"/>
</svg>
