<svg width="24" height="24" viewBox="0 0 24 24" fill="none" xmlns="http://www.w3.org/2000/svg">
<path d="M20.089 8.02678L18.5801 9.55514L15.5422 6.4779L17.051 4.94954C17.4763 4.51872 18.0232 4.31358 18.57 4.31358C19.1168 4.31358 19.6637 4.51872 20.089 4.94954C20.9295 5.80091 20.9295 7.17541 20.089 8.02678Z" fill="#141414"/>
<path d="M17.8713 10.2834L6.92453 21.3615C6.08403 22.2128 4.72708 22.2128 3.88658 21.3615C3.04608 20.5101 3.04608 19.1356 3.88658 18.2842L14.8333 7.20618L17.8713 10.2834Z" fill="#141414"/>
<path d="M10.4182 3.92379L10.8334 2.498C10.8739 2.36466 10.8334 2.22105 10.7422 2.11848C10.6511 2.0159 10.4891 1.97487 10.3574 2.0159L8.94983 2.43646L7.54225 2.0159C7.4106 1.97487 7.26883 2.0159 7.16757 2.10822C7.0663 2.2108 7.03592 2.3544 7.07643 2.48775L7.48149 3.92379L7.0663 5.34958C7.0258 5.48293 7.0663 5.62653 7.15744 5.72911C7.25871 5.83168 7.40048 5.86245 7.53212 5.82142L8.94983 5.41112L10.3574 5.83168C10.3979 5.84194 10.4283 5.85219 10.4688 5.85219C10.5701 5.85219 10.6612 5.81116 10.7422 5.73936C10.8435 5.63679 10.8739 5.49318 10.8334 5.35984L10.4182 3.92379Z" fill="#141414"/>
<path d="M6.36757 10.0783L6.78276 8.65248C6.82327 8.51913 6.78276 8.37553 6.69162 8.27295C6.59036 8.17038 6.44859 8.13961 6.31694 8.18064L4.89923 8.59094L3.49165 8.17038C3.36 8.12935 3.21823 8.17038 3.11697 8.2627C3.0157 8.36527 2.98532 8.50888 3.02583 8.64222L3.43089 10.0783L3.0157 11.5041C2.9752 11.6374 3.0157 11.781 3.10684 11.8836C3.2081 11.9862 3.34988 12.0169 3.48152 11.9759L4.8891 11.5553L6.29669 11.9759C6.32707 11.9862 6.36757 11.9862 6.40808 11.9862C6.50934 11.9862 6.60048 11.9451 6.68149 11.8733C6.78276 11.7707 6.81314 11.6271 6.77263 11.4938L6.36757 10.0783Z" fill="#141414"/>
<path d="M21.5573 15.207L21.9725 13.7812C22.013 13.6479 21.9725 13.5043 21.8814 13.4017C21.7801 13.2991 21.6383 13.2683 21.5067 13.3094L20.0991 13.7299L18.6915 13.3094C18.5599 13.2683 18.4181 13.3094 18.3168 13.4017C18.2156 13.5043 18.1852 13.6479 18.2257 13.7812L18.6409 15.207L18.2257 16.6328C18.1852 16.7661 18.2257 16.9097 18.3168 17.0123C18.4181 17.1149 18.5599 17.1457 18.6915 17.1046L20.0991 16.6841L21.5067 17.1046C21.5371 17.1149 21.5776 17.1149 21.6181 17.1149C21.7193 17.1149 21.8105 17.0739 21.8915 17.0021C21.9928 16.8995 22.0231 16.7559 21.9826 16.6225L21.5573 15.207Z" fill="#141414"/>
</svg>
