<svg width="24" height="24" viewBox="0 0 24 24" fill="none" xmlns="http://www.w3.org/2000/svg">
<path d="M16.1971 2H7.8129C4.17108 2 2 4.17 2 7.81V16.18C2 19.83 4.17108 22 7.8129 22H16.1871C19.8289 22 22 19.83 22 16.19V7.81C22.01 4.17 19.8389 2 16.1971 2ZM17.0075 17.5H13.9059C13.6058 17.5 13.3356 17.33 13.2156 17.05C13.0955 16.77 13.1456 16.46 13.3457 16.24L14.9665 14.45C15.6368 13.7 16.017 12.75 16.017 11.77C16.017 10.77 15.6068 9.83 14.8564 9.12C14.106 8.41 13.0655 8 12.005 8C10.9445 8 9.90394 8.41 9.15356 9.12C8.40319 9.83 7.99299 10.77 7.99299 11.77C7.99299 12.75 8.36317 13.7 9.04351 14.45L10.6643 16.24C10.8644 16.46 10.9144 16.78 10.7944 17.05C10.6743 17.32 10.4042 17.5 10.104 17.5H7.00249C6.59229 17.5 6.25212 17.16 6.25212 16.75C6.25212 16.34 6.59229 16 7.00249 16H8.4132L7.92295 15.46C7.00249 14.44 6.49224 13.13 6.49224 11.77C6.49224 10.38 7.08253 9.01 8.12305 8.03C9.16357 7.04 10.5343 6.5 12.005 6.5C13.4757 6.5 14.8464 7.04 15.8869 8.03C16.9174 9.01 17.5177 10.38 17.5177 11.77C17.5177 13.12 17.0075 14.43 16.087 15.46L15.5968 16H17.0075C17.4177 16 17.7579 16.34 17.7579 16.75C17.7579 17.16 17.4177 17.5 17.0075 17.5Z" fill="#141414"/>
</svg>
