<svg width="24" height="24" viewBox="0 0 24 24" fill="none" xmlns="http://www.w3.org/2000/svg">
<path d="M20.7781 10.9756C20.563 7.17073 17.738 4 13.9648 3.3561C13.9062 2.60488 13.2805 2 12.5083 2H11.5308C10.7586 2 10.1427 2.59512 10.0743 3.34634C6.28152 3.97073 3.43695 7.15122 3.2219 10.9756C2.52786 11.0927 2 11.6878 2 12.4098V13.3854C2 14.1951 2.65494 14.8488 3.46628 14.8488H4.44379C5.25513 14.8488 5.91007 14.1951 5.91007 13.3854V12.4098C5.91007 11.6878 5.38221 11.0927 4.68817 10.9756C4.89345 7.93171 7.13196 5.40488 10.1232 4.81951C10.2893 5.4439 10.8563 5.90244 11.5308 5.90244H12.5083C13.1828 5.90244 13.74 5.4439 13.9159 4.82927C16.8876 5.42439 19.1065 7.95122 19.3118 10.9756C18.6178 11.0927 18.0899 11.6878 18.0899 12.4098V13.3854C18.0899 14.1951 18.7449 14.8488 19.5562 14.8488H20.5337C21.3451 14.8488 22 14.1951 22 13.3854V12.4098C22 11.6878 21.4721 11.0829 20.7781 10.9756Z" fill="#141414"/>
<path d="M15.6852 16.6829L14.0821 18.0976H9.92766L8.32454 16.6829C7.39589 15.922 7.3959 15.3366 8.09971 14.439L10.9247 10.8683C11.1202 10.6244 11.3451 10.4585 11.5992 10.3707C11.8631 10.2829 12.1466 10.2829 12.4203 10.3707C12.6647 10.4585 12.8895 10.6244 13.0948 10.8683L15.9101 14.4293C16.6237 15.3268 16.5846 15.8829 15.6852 16.6829Z" fill="#141414"/>
<path d="M13.2903 22H10.7586C9.85924 22 9.18475 21.2683 9.3607 20.4878L9.66373 19.1317C9.72238 18.8585 9.96676 18.6732 10.2405 18.6732H13.8084C14.0821 18.6732 14.3167 18.8585 14.3851 19.1317L14.6882 20.4878C14.8739 21.3171 14.2483 22 13.2903 22Z" fill="#141414"/>
</svg>
