<svg width="24" height="24" viewBox="0 0 24 24" fill="none" xmlns="http://www.w3.org/2000/svg">
<path d="M5.9975 2H17.9825C19.0811 2 19.98 2.9 19.98 4V7.32C19.98 7.87 19.5306 8.32 18.9813 8.32H4.99875C4.44944 8.32 4 7.87 4 7.32V4C4 2.9 4.89888 2 5.9975 2Z" fill="#141414"/>
<path d="M4 10.32V11.88C4 12.96 4.57928 13.96 5.52809 14.49L8.48439 16.16C9.11361 16.51 9.50312 17.18 9.50312 17.9V20C9.50312 21.1 10.402 22 11.5006 22H12.4994C13.598 22 14.4969 21.1 14.4969 20V17.9C14.4969 17.18 14.8864 16.51 15.5156 16.16L18.4719 14.49C19.4107 13.96 20 12.96 20 11.88V10.32C20 9.77 19.5506 9.32 19.0012 9.32H4.99875C4.44944 9.32 4 9.76 4 10.32Z" fill="#141414"/>
</svg>
