<svg width="24" height="24" viewBox="0 0 24 24" fill="none" xmlns="http://www.w3.org/2000/svg">
<path d="M19.2503 7.6975L15.897 4.35374C12.8867 1.36146 11.3054 2.46338 9.4001 4.35374L4.00823 9.73035C2.91271 10.8228 2.31255 11.5257 2.09345 12.3047C2.09345 12.3142 2.08392 12.3142 2.08392 12.3142C2.08392 12.3237 2.08392 12.3237 2.08392 12.3237C2.08392 12.3332 2.08392 12.3332 2.08392 12.3332V12.3617C1.69334 13.7486 2.72218 14.9265 4.00823 16.2089L7.371 19.5431C8.57131 20.7496 9.54299 21.5 10.6195 21.5C11.6959 21.5 12.62 20.7781 13.8584 19.5431L19.2503 14.176C19.717 13.7011 20.06 13.3116 20.3267 12.9411C20.3267 12.9316 20.3267 12.9316 20.3267 12.9316C20.3267 12.9316 20.3267 12.9316 20.3363 12.9316C21.5556 11.2312 21.2317 9.66386 19.2503 7.6975ZM18.2691 11.4022H18.2595C17.9737 11.3357 17.6784 11.2787 17.3831 11.2217C17.3641 11.2217 17.345 11.2122 17.3164 11.2122C16.6496 11.0888 15.9732 10.9843 15.2873 10.8988H15.2492C14.5633 10.8133 13.8679 10.7468 13.1725 10.7088H13.0963C12.4866 10.6708 11.8674 10.6518 11.2577 10.6518C10.5147 10.6518 9.77162 10.6898 9.0381 10.7373C8.91426 10.7468 8.79994 10.7563 8.68563 10.7658C8.1331 10.8038 7.58058 10.8608 7.03758 10.9273C6.88516 10.9463 6.74227 10.9653 6.59937 10.9843C6.04685 11.0698 5.50385 11.1553 4.96086 11.2597C4.83701 11.2882 4.7227 11.3072 4.59886 11.3262C4.55123 11.3357 4.49407 11.3452 4.44644 11.3547C4.61791 11.1648 4.81796 10.9653 5.03707 10.7468L10.4194 5.37967C12.1532 3.66979 12.7438 3.26132 14.8777 5.37967L18.2214 8.72343C18.7358 9.22689 19.0788 9.65436 19.2884 10.0248C19.2884 10.0248 19.2884 10.0343 19.2979 10.0343C19.698 10.7278 19.0502 11.5542 18.2691 11.4022Z" fill="#141414"/>
<path d="M21.0031 16.6269C20.6411 16.1804 20.3267 15.8004 19.6218 15.8004C18.9168 15.8004 18.6025 16.1804 18.25 16.6269C17.4879 17.5673 17.145 18.5932 17.2688 19.5811C17.4117 20.7116 18.3834 21.5 19.6218 21.5C20.8602 21.5 21.8319 20.7116 21.9748 19.5716C22.0986 18.5837 21.7652 17.5673 21.0031 16.6269Z" fill="#141414"/>
</svg>
