<svg width="24" height="24" viewBox="0 0 24 24" fill="none" xmlns="http://www.w3.org/2000/svg">
<path d="M14.2441 22H9.73367C8.12578 22 6.93552 20.7146 7.24875 19.3469L7.79167 16.9612C7.89608 16.4881 8.32416 16.159 8.81488 16.159H15.1734C15.6641 16.159 16.0817 16.4881 16.1966 16.9612L16.7395 19.3366C17.0736 20.8071 15.9564 22 14.2441 22Z" fill="#141414"/>
<path d="M19.12 13.4545L18.0028 14.4212C17.6165 14.7502 17.1258 14.9353 16.6246 14.9353H7.39492C6.88332 14.9353 6.38216 14.7502 6.00628 14.4109L4.90999 13.4442C3.11416 11.9943 3.10372 10.8837 4.48192 9.17664L9.94249 2.37934C9.98063 2.32889 10.0198 2.28035 10.0599 2.23369C10.5203 1.69791 11.2372 2.15811 11.2372 2.86001V6.43099C11.2267 6.87317 11.5817 7.22281 12.0202 7.21252C12.4587 7.22281 12.8033 6.87317 12.8137 6.43099V2.86001C12.8137 2.15811 13.5199 1.70846 13.9925 2.23381C14.0316 2.2773 14.0703 2.32238 14.1084 2.36906L19.5481 9.17664C20.9054 10.8837 20.8532 11.9429 19.12 13.4545Z" fill="#141414"/>
</svg>
