<svg width="24" height="24" viewBox="0 0 24 24" fill="none" xmlns="http://www.w3.org/2000/svg">
<path d="M20.0096 9.90709H18.9785C18.8379 9.90709 18.6973 9.93597 18.5661 9.97449L13.8888 5.17006C14.3387 4.57311 14.3012 3.71621 13.7669 3.17704L13.0358 2.42604C12.4827 1.85799 11.5079 1.85799 10.9455 2.42604L10.2144 3.17704C9.68944 3.71621 9.65195 4.57311 10.1019 5.17006L5.42452 9.97449C5.29329 9.93597 5.15269 9.90709 5.01209 9.90709H3.98101C3.16552 9.90709 2.5 10.5907 2.5 11.4283V12.4874C2.5 13.3251 3.16552 14.0087 3.98101 14.0087H5.01209C5.82758 14.0087 6.49309 13.3251 6.49309 12.4874V11.4283C6.49309 11.2839 6.46497 11.1395 6.42748 11.0047L11.1048 6.20027C11.3579 6.40246 11.6766 6.50836 11.9953 6.50836C12.314 6.50836 12.6327 6.39283 12.8952 6.19064L17.5725 10.9951C17.535 11.1299 17.5069 11.2743 17.5069 11.4187V12.4778C17.5069 13.3154 18.1724 13.999 18.9879 13.999H20.019C20.8345 13.999 21.5 13.3154 21.5 12.4778V11.4187C21.4813 10.5811 20.8251 9.90709 20.0096 9.90709Z" fill="#141414"/>
<path d="M15.5104 16.7527L13.9731 18.1488H9.98002L8.44277 16.7527C7.55229 16.0017 7.55229 15.424 8.22718 14.5382L10.9361 11.0143C11.1236 10.7736 11.3392 10.6099 11.5829 10.5233C11.836 10.4366 12.1078 10.4366 12.3703 10.5233C12.6046 10.6099 12.8202 10.7736 13.017 11.0143L15.726 14.5382C16.4008 15.4144 16.3727 15.9632 15.5104 16.7527Z" fill="#141414"/>
<path d="M13.2045 22H10.7768C9.91441 22 9.26764 21.2779 9.43636 20.5076L9.72694 19.1693C9.78318 18.8997 10.0175 18.7168 10.28 18.7168H13.7013C13.9637 18.7168 14.1887 18.8997 14.2543 19.1693L14.5449 20.5076C14.7324 21.326 14.1231 22 13.2045 22Z" fill="#141414"/>
</svg>
