<svg width="24" height="24" viewBox="0 0 24 24" fill="none" xmlns="http://www.w3.org/2000/svg">
<path d="M16.1971 2H7.8129C4.17108 2 2 4.17 2 7.81V16.18C2 19.83 4.17108 22 7.8129 22H16.1871C19.8289 22 22 19.83 22 16.19V7.81C22.01 4.17 19.8389 2 16.1971 2ZM16.6673 11.25L15.0465 12.27L15.1866 14.67C15.3166 16.01 14.8564 16.47 13.5858 16.62L8.51325 17.22C8.23487 17.2579 8.14038 16.9427 8.33904 16.7441L9.88393 15.2C10.1741 14.91 10.1741 14.43 9.88393 14.14C9.58378 13.85 9.11355 13.85 8.8134 14.14L7.27741 15.683C7.07952 15.8818 6.76448 15.7879 6.80239 15.51L7.39269 10.44C7.55277 9.17 8.013 8.76 9.35366 8.84L11.7449 8.98L12.7754 7.35C13.2456 6.61 14.2061 6.57 14.9064 7.27L16.7574 9.12C17.4177 9.77 17.3777 10.8 16.6673 11.25Z" fill="#141414"/>
</svg>
