<svg width="24" height="24" viewBox="0 0 24 24" fill="none" xmlns="http://www.w3.org/2000/svg">
<path d="M20.9347 10.5589L18.572 12.0482C18.1262 12.3261 17.5579 12.2594 17.1901 11.8926L12.1415 6.85763C11.7738 6.49084 11.7069 5.92398 11.9855 5.47939L13.4789 3.12305C14.3928 1.68924 16.2205 1.62255 17.569 2.95633L21.113 6.49084C22.3612 7.74681 22.2832 9.70302 20.9347 10.5589Z" fill="#141414"/>
<path d="M15.0169 20.8401L5.29868 21.9738C5.21212 21.9853 5.12667 21.9934 5.04242 21.9984C4.27886 22.0432 4.08954 21.1457 4.63039 20.6063L7.51648 17.7279C7.87311 17.3833 7.87311 16.8387 7.51648 16.4942C7.18214 16.1496 6.63605 16.1496 6.27942 16.4942L3.39333 19.3725C2.85248 19.9119 1.96076 19.7223 2.00134 18.9605C2.0056 18.8806 2.01251 18.7995 2.02214 18.7171L3.17005 9.02501C3.45981 6.60198 4.35138 5.80172 6.91467 5.95733L8.58637 6.05736C9.13246 6.0907 9.64512 6.32412 10.0352 6.71313L17.335 13.9933C17.725 14.3823 17.9591 14.8936 17.9814 15.4383L18.0817 17.1055C18.338 19.673 17.4576 20.5622 15.0169 20.8401Z" fill="#141414"/>
</svg>
