<svg width="24" height="24" viewBox="0 0 24 24" fill="none" xmlns="http://www.w3.org/2000/svg">
<path d="M18.67 4.5677C16.9047 2.96289 14.5677 2 12 2C6.48345 2 2 6.48345 2 12C2 17.5166 6.48345 22 12 22C14.5677 22 16.9047 21.0371 18.67 19.4323C20.7161 17.6169 22 14.9488 22 12C22 9.05115 20.7161 6.38315 18.67 4.5677ZM11.9699 16.4032C11.9499 18.0582 10.7161 18.4594 9.56269 17.998C7.18556 17.0451 5.51053 14.7182 5.51053 12C5.51053 9.28185 7.18556 6.95486 9.56269 5.99198C10.7161 5.53059 11.9499 5.94183 11.9699 7.58676V16.4032Z" fill="#141414"/>
</svg>
