<svg width="24" height="24" viewBox="0 0 24 24" fill="none" xmlns="http://www.w3.org/2000/svg">
<path d="M16.5775 4.7914H16.3022C16.2038 4.001 15.9187 3.37069 15.4663 2.90045C14.8763 2.30015 14.0207 2 12.9193 2H7.43202C5.2194 2 4 3.24062 4 5.49175C4 6.61231 4.29502 7.48274 4.88505 8.08304C5.47508 8.68334 6.33063 8.98349 7.43202 8.98349H12.9193C14.8861 8.98349 16.0662 7.993 16.3022 6.1921H16.5775C18.6328 6.1921 18.6328 6.47224 18.6328 8.28314V10.1441C18.6328 11.955 18.6328 12.2351 16.5775 12.2351H12.9193C9.979 12.2351 9.55614 13.6558 9.49714 15.0365C8.61209 15.0965 7.6582 15.5168 7.6582 17.1176V19.909C7.6582 21.6398 8.77927 22 9.71349 22H10.628C11.5623 22 12.6833 21.6398 12.6833 19.909V17.1176C12.6833 15.5368 11.7491 15.0965 10.864 15.0365C10.9132 14.026 11.1984 13.6258 12.9095 13.6258H16.5677C19.7637 13.6258 19.9997 12.3052 19.9997 10.1341V8.28314C20.0096 6.11206 19.7735 4.7914 16.5775 4.7914Z" fill="#141414"/>
</svg>
