<svg width="24" height="24" viewBox="0 0 24 24" fill="none" xmlns="http://www.w3.org/2000/svg">
<path d="M14.7848 22C14.5337 22 14.3013 21.8605 14.1804 21.6465C14.0595 21.4233 14.0595 21.1628 14.1897 20.9395L15.166 19.3116C15.3612 18.9767 15.7982 18.8744 16.1237 19.0698C16.4584 19.2651 16.5607 19.693 16.3654 20.0279L16.1144 20.4465C18.6806 19.8419 20.6053 17.5349 20.6053 14.7814C20.6053 14.4 20.9214 14.0837 21.3027 14.0837C21.6839 14.0837 22 14.4 22 14.7814C21.9907 18.7628 18.755 22 14.7848 22Z" fill="#141414"/>
<path d="M2.69735 9.90698C2.31613 9.90698 2 9.5907 2 9.2093C2 5.23721 5.2357 2 9.20595 2C9.457 2 9.68945 2.13953 9.81032 2.35349C9.93119 2.57674 9.9312 2.83721 9.80102 3.06047L8.82473 4.68837C8.62947 5.01395 8.20177 5.12558 7.86704 4.92093C7.54161 4.72558 7.43003 4.29767 7.63459 3.96279L7.88563 3.54419C5.31009 4.14884 3.3947 6.45581 3.3947 9.2093C3.3947 9.5907 3.07857 9.90698 2.69735 9.90698Z" fill="#141414"/>
<path d="M14.5988 12.586V15.3209C14.5988 17.6 13.6876 18.5116 11.4096 18.5116H8.67596C6.39795 18.5116 5.48675 17.6 5.48675 15.3209V12.586C5.48675 10.307 6.39795 9.39535 8.67596 9.39535H11.4096C13.6876 9.39535 14.5988 10.307 14.5988 12.586Z" fill="#141414"/>
<path d="M15.3147 5.48837H12.5811C10.3403 5.48837 9.4291 6.3814 9.40121 8.57674H11.4096C14.1432 8.57674 15.4077 9.85116 15.4077 12.5767V14.586C17.6113 14.5581 18.4947 13.6465 18.4947 11.4047V8.67907C18.504 6.4 17.5927 5.48837 15.3147 5.48837Z" fill="#141414"/>
</svg>
