<svg width="24" height="24" viewBox="0 0 24 24" fill="none" xmlns="http://www.w3.org/2000/svg">
<path d="M18.4905 2H14.4778C12.9803 2 11.7424 3.28581 11.5082 4.75204C11.4646 5.02475 11.6929 5.25 11.9699 5.25H16.4842C16.8955 5.25 17.2365 5.59 17.2365 6C17.2365 6.41 16.8955 6.75 16.4842 6.75H11.9699C11.6929 6.75 11.4683 6.97386 11.4683 7.25V8.75C11.4683 9.02614 11.6929 9.25 11.9699 9.25H14.2872C14.6985 9.25 15.0396 9.59 15.0396 10C15.0396 10.41 14.6985 10.75 14.2872 10.75H11.9699C11.6929 10.75 11.4683 10.9739 11.4683 11.25V12.705C11.4683 12.9792 11.6898 13.2022 11.9649 13.2049L16.4842 13.25C16.9055 13.25 17.2365 13.59 17.2365 14.01C17.2265 14.42 16.8955 14.75 16.4842 14.75C16.4741 14.75 16.4741 14.75 16.4741 14.75L11.9749 14.7051C11.696 14.7023 11.4683 14.9269 11.4683 15.205V16.75C11.4683 17.0261 11.6929 17.25 11.9699 17.25H15.3807C15.802 17.25 16.1331 17.59 16.1331 18C16.1331 18.41 15.802 18.75 15.3807 18.75H11.9699C11.6929 18.75 11.4646 18.9753 11.5082 19.248C11.7424 20.7142 12.9803 22 14.4778 22H18.4905C20.1457 22 21.5 20.66 21.5 19V5C21.5 3.34 20.1457 2 18.4905 2Z" fill="#141414"/>
<path d="M8.42872 4.95V5.75C8.42872 6.02614 8.20416 6.25 7.92714 6.25H3.00158C2.72457 6.25 2.5 6.02614 2.5 5.75V4.95C2.5 3.33 3.83421 2 5.46938 2C7.09451 2 8.42872 3.33 8.42872 4.95Z" fill="#141414"/>
<path d="M2.5 17.91C2.5 18.36 2.6906 19.05 2.93136 19.43L3.74393 20.79C4.69694 22.37 6.24182 22.37 7.18479 20.79L8.00739 19.43C8.23812 19.05 8.42872 18.36 8.42872 17.91V8.25C8.42872 7.97386 8.20416 7.75 7.92714 7.75H3.00158C2.72457 7.75 2.5 7.97386 2.5 8.25V17.91Z" fill="#141414"/>
</svg>
