<svg width="24" height="24" viewBox="0 0 24 24" fill="none" xmlns="http://www.w3.org/2000/svg">
<path d="M22 5.5V9.5C22 11.2615 20.7004 12.7232 18.9985 12.9649C18.7251 13.0038 18.5 12.7761 18.5 12.5V12.25C18.5 8.53 15.48 5.5 11.75 5.5H11.5C11.2239 5.5 10.9962 5.27486 11.0354 5.0015C11.2781 3.30678 12.7392 2 14.5 2H18.5C20.44 2 22 3.57 22 5.5Z" fill="#141414"/>
<path d="M11.75 7H7C4.24 7 2 9.24 2 12V17C2 19.76 4.24 22 7 22H12C14.76 22 17 19.76 17 17V12.25C17 9.35 14.65 7 11.75 7Z" fill="#141414"/>
</svg>
