<svg width="24" height="24" viewBox="0 0 24 24" fill="none" xmlns="http://www.w3.org/2000/svg">
<path d="M5.37345 10.1111C7.23655 10.1111 8.7469 8.63116 8.7469 6.80556C8.7469 4.97995 7.23655 3.5 5.37345 3.5C3.51034 3.5 2 4.97995 2 6.80556C2 8.63116 3.51034 10.1111 5.37345 10.1111Z" fill="#141414"/>
<path d="M5.37345 20.5C7.23655 20.5 8.7469 19.0201 8.7469 17.1944C8.7469 15.3688 7.23655 13.8889 5.37345 13.8889C3.51034 13.8889 2 15.3688 2 17.1944C2 19.0201 3.51034 20.5 5.37345 20.5Z" fill="#141414"/>
<path d="M14.7709 11.9811L21.7106 6.9C22.0287 6.66389 22.0961 6.22 21.8552 5.90833C21.6142 5.59667 21.1612 5.53056 20.8431 5.76667L13.5661 11.1028L8.21679 7.17389C7.89872 6.94722 7.44571 7.00389 7.20475 7.31556C6.96379 7.62722 7.03126 8.07111 7.34933 8.30722L12.3613 11.9811L6.67464 16.1556C6.35657 16.3917 6.2891 16.8356 6.53006 17.1472C6.67464 17.3361 6.88668 17.4306 7.10837 17.4306C7.26258 17.4306 7.40716 17.3833 7.5421 17.2889L13.5661 12.8689L20.8431 18.205C20.9684 18.2994 21.1226 18.3467 21.2769 18.3467C21.4985 18.3467 21.7106 18.2522 21.8552 18.0633C22.0961 17.7517 22.0287 17.3078 21.7106 17.0717L14.7709 11.9811Z" fill="#141414"/>
</svg>
