<svg width="24" height="24" viewBox="0 0 24 24" fill="none" xmlns="http://www.w3.org/2000/svg">
<path d="M23.53 12.05C23.24 11.76 22.76 11.76 22.47 12.05L22.01 12.51V12C22.01 6.47999 17.52 1.98999 12 1.98999C8.95 1.98999 6.1 3.35999 4.19 5.73999C3.93 6.05999 3.98 6.53999 4.31 6.79999C4.63 7.04999 5.1 6.99999 5.36 6.67999C6.99 4.64999 9.41 3.48999 12 3.48999C16.69 3.48999 20.51 7.30999 20.51 12V12.5L20.05 12.04C19.76 11.75 19.28 11.75 18.99 12.04C18.7 12.33 18.7 12.81 18.99 13.1L20.73 14.84C20.8 14.91 20.88 14.96 20.97 15C21.06 15.04 21.16 15.06 21.26 15.06C21.36 15.06 21.45 15.04 21.55 15C21.64 14.96 21.72 14.91 21.79 14.84L23.53 13.1C23.82 12.82 23.82 12.34 23.53 12.05Z" fill="#141414"/>
<path d="M19.69 17.2C19.37 16.94 18.89 16.99 18.64 17.32C17.01 19.35 14.59 20.51 12 20.51C7.31 20.51 3.49 16.69 3.49 12V11.5L3.95 11.96C4.1 12.11 4.29 12.18 4.48 12.18C4.67 12.18 4.86 12.1 5 11.95C5.29 11.66 5.29 11.18 5 10.89L3.27 9.14999C3.2 9.08999 3.11 9.02999 3.02 8.98999C2.84 8.90999 2.63 8.90999 2.45 8.98999C2.36 9.02999 2.28 9.08999 2.21 9.14999L0.470002 10.89C0.180002 11.18 0.180002 11.66 0.470002 11.95C0.760002 12.24 1.24 12.24 1.53 11.95L1.99 11.49V12C1.99 17.52 6.48 22.01 12 22.01C15.05 22.01 17.9 20.64 19.81 18.26C20.07 17.94 20.02 17.46 19.69 17.2Z" fill="#141414"/>
<path d="M15.45 11.64C15.72 11.24 15.87 10.77 15.87 10.25C15.87 8.91999 14.7 7.74999 13.37 7.74999H12.55V6.74999C12.55 6.33999 12.21 5.99999 11.8 5.99999C11.39 5.99999 11.05 6.33999 11.05 6.74999V7.74999H9C8.59 7.74999 8.25 8.08999 8.25 8.49999V15.5C8.25 15.91 8.59 16.25 9 16.25H11.05V17.25C11.05 17.66 11.39 18 11.8 18C12.21 18 12.55 17.66 12.55 17.25V16.25H14C15.52 16.25 16.75 15.13 16.75 13.75C16.75 12.86 16.23 12.08 15.45 11.64ZM9.75 9.24999H13.37C13.92 9.24999 14.37 9.79999 14.37 10.25C14.37 10.8 13.92 11.25 13.37 11.25H9.75V9.24999ZM14 14.75H9.75V12.75H14C14.69 12.75 15.25 13.2 15.25 13.75C15.25 14.3 14.69 14.75 14 14.75Z" fill="#141414"/>
</svg>
