<svg width="24" height="24" viewBox="0 0 24 24" fill="none" xmlns="http://www.w3.org/2000/svg">
<path d="M17.38 10.7645C17.38 10.5471 17.14 10.2703 16.88 10.2703H14.5V11.2587H16.88C17.15 11.2587 17.38 11.0413 17.38 10.7645Z" fill="#141414"/>
<path d="M17.32 12.7413H14.5V13.7297H17.32C17.69 13.7297 18 13.5023 18 13.2355C18 12.9686 17.69 12.7413 17.32 12.7413Z" fill="#141414"/>
<path d="M17.85 3.5H6.15C3.86 3.5 2 5.32849 2 7.59186V16.4081C2 18.6715 3.86 20.5 6.15 20.5H17.85C20.14 20.5 22 18.6715 22 16.4081V7.59186C22 5.32849 20.14 3.5 17.85 3.5ZM9.25 12.7413H5.25C4.84 12.7413 4.5 12.4052 4.5 12C4.5 11.5948 4.84 11.2587 5.25 11.2587H9.25C9.66 11.2587 10 11.5948 10 12C10 12.4052 9.66 12.7413 9.25 12.7413ZM17.32 15.2122H16.26V15.7064C16.26 16.1116 15.92 16.4477 15.51 16.4477C15.1 16.4477 14.76 16.1116 14.76 15.7064V15.2122H12.75C12.34 15.2122 12 14.8762 12 14.4709C12 14.0657 12.34 13.7297 12.75 13.7297H13V10.2703H12.75C12.34 10.2703 12 9.9343 12 9.52907C12 9.12384 12.34 8.78779 12.75 8.78779H14.76V8.2936C14.76 7.88837 15.1 7.55233 15.51 7.55233C15.92 7.55233 16.26 7.88837 16.26 8.2936V8.78779H16.87C17.94 8.78779 18.87 9.70698 18.87 10.7645C18.87 11.0907 18.78 11.3971 18.64 11.6738C19.16 12.0395 19.5 12.6029 19.5 13.2355C19.5 14.3227 18.52 15.2122 17.32 15.2122Z" fill="#141414"/>
</svg>
