<svg width="24" height="24" viewBox="0 0 24 24" fill="none" xmlns="http://www.w3.org/2000/svg">
<path d="M21.3698 14.766C21.0207 14.766 20.7312 15.0553 20.7312 15.4043C20.7312 17.9234 18.9773 20.034 16.6189 20.5872L16.8487 20.2043C17.0275 19.8979 16.9339 19.5064 16.6274 19.3277C16.3294 19.1489 15.9292 19.2426 15.7504 19.5489L14.8564 21.0383C14.7372 21.234 14.7372 21.4809 14.8479 21.6766C14.9586 21.8809 15.1714 22 15.4013 22C19.0369 22 21.9998 19.0383 21.9998 15.4043C22.0083 15.0553 21.7188 14.766 21.3698 14.766Z" fill="#141414"/>
<path d="M8.59849 2C4.96294 2 2 4.9617 2 8.59574C2 8.94468 2.28948 9.23404 2.63856 9.23404C2.98765 9.23404 3.27713 8.94468 3.27713 8.59574C3.27713 6.0766 5.03105 3.96596 7.38948 3.41277L7.1596 3.79574C6.9808 4.10213 7.07445 4.49362 7.38096 4.67234C7.67896 4.85106 8.07913 4.75745 8.25792 4.45106L9.15191 2.9617C9.2626 2.76596 9.27111 2.52766 9.15191 2.3234C9.04123 2.12766 8.82838 2 8.59849 2Z" fill="#141414"/>
<path d="M20.0926 9.19149C20.0926 11.8128 18.1855 13.9745 15.6908 14.3745C15.6908 14.366 15.6908 14.366 15.6908 14.3574C15.4439 11.183 12.8726 8.59575 9.65425 8.34043C10.0544 5.84681 12.217 3.94043 14.8394 3.94043C17.7427 3.94043 20.0926 6.28936 20.0926 9.19149Z" fill="#141414"/>
<path d="M10.1396 13.8979C10.1396 13.7702 9.99482 13.5745 9.81602 13.5745H8.0621V14.2128H9.81602C9.99482 14.2213 10.1396 14.0766 10.1396 13.8979Z" fill="#141414"/>
<path d="M10.1566 15.4979H8.0621V16.1362H10.1651C10.4376 16.1362 10.6249 15.966 10.6249 15.8128C10.6249 15.6596 10.429 15.4979 10.1566 15.4979Z" fill="#141414"/>
<path d="M14.4137 14.4511C14.2179 11.8723 12.1574 9.81277 9.57762 9.61702C9.4414 9.60851 9.31368 9.6 9.16894 9.6C6.26561 9.6 3.91569 11.9489 3.91569 14.8596C3.91569 17.7617 6.26561 20.1106 9.16894 20.1106C12.0723 20.1106 14.4307 17.7617 14.4307 14.8596C14.4307 14.7149 14.4222 14.5872 14.4137 14.4511ZM10.1566 17.4128H9.59465V17.7362C9.59465 18.0851 9.30517 18.3745 8.95609 18.3745C8.60701 18.3745 8.31752 18.0851 8.31752 17.7362V17.4128H7.42353C7.07445 17.4128 6.78497 17.1234 6.78497 16.7745V12.9447C6.78497 12.5957 7.07445 12.3064 7.42353 12.3064H8.31752V11.983C8.31752 11.634 8.60701 11.3447 8.95609 11.3447C9.30517 11.3447 9.59465 11.634 9.59465 11.983V12.3064H9.81602C10.6674 12.3064 11.4167 13.0553 11.4167 13.9064C11.4167 14.1532 11.3571 14.383 11.2549 14.5957C11.6466 14.8851 11.8935 15.3277 11.8935 15.8213C11.8935 16.6979 11.1187 17.4128 10.1566 17.4128Z" fill="#141414"/>
</svg>
