<svg width="24" height="24" viewBox="0 0 24 24" fill="none" xmlns="http://www.w3.org/2000/svg">
<path d="M23 15.22C22.59 15.22 22.25 15.56 22.25 15.97C22.25 18.93 20.19 21.41 17.42 22.06L17.69 21.61C17.9 21.25 17.79 20.79 17.43 20.58C17.08 20.37 16.61 20.48 16.4 20.84L15.35 22.59C15.21 22.82 15.21 23.11 15.34 23.34C15.47 23.58 15.72 23.72 15.99 23.72C20.26 23.72 23.74 20.24 23.74 15.97C23.75 15.56 23.41 15.22 23 15.22Z" fill="#141414"/>
<path d="M8 0.219971C3.73 0.219971 0.25 3.69997 0.25 7.96997C0.25 8.37997 0.59 8.71997 1 8.71997C1.41 8.71997 1.75 8.37997 1.75 7.96997C1.75 5.00997 3.81 2.52997 6.58 1.87997L6.31 2.32997C6.1 2.68997 6.21 3.14997 6.57 3.35997C6.92 3.56997 7.39 3.45997 7.6 3.09997L8.65 1.34997C8.78 1.11997 8.79 0.839971 8.65 0.599971C8.52 0.369971 8.27 0.219971 8 0.219971Z" fill="#141414"/>
<path d="M21.5 8.66997C21.5 11.75 19.26 14.29 16.33 14.76C16.33 14.75 16.33 14.75 16.33 14.74C16.04 11.01 13.02 7.96997 9.24 7.66997C9.71 4.73997 12.25 2.49997 15.33 2.49997C18.74 2.49997 21.5 5.25997 21.5 8.66997Z" fill="#141414"/>
<path d="M9.81 14.2C9.81 14.05 9.64 13.82 9.43 13.82H7.37V14.57H9.43C9.64 14.58 9.81 14.41 9.81 14.2Z" fill="#141414"/>
<path d="M9.83 16.08H7.37V16.83H9.84C10.16 16.83 10.38 16.63 10.38 16.45C10.38 16.27 10.15 16.08 9.83 16.08Z" fill="#141414"/>
<path d="M14.83 14.85C14.6 11.82 12.18 9.39997 9.15 9.16997C8.99 9.15997 8.84 9.14997 8.67 9.14997C5.26 9.14997 2.5 11.91 2.5 15.33C2.5 18.74 5.26 21.5 8.67 21.5C12.08 21.5 14.85 18.74 14.85 15.33C14.85 15.16 14.84 15.01 14.83 14.85ZM9.83 18.33H9.17V18.71C9.17 19.12 8.83 19.46 8.42 19.46C8.01 19.46 7.67 19.12 7.67 18.71V18.33H6.62C6.21 18.33 5.87 17.99 5.87 17.58V13.08C5.87 12.67 6.21 12.33 6.62 12.33H7.67V11.95C7.67 11.54 8.01 11.2 8.42 11.2C8.83 11.2 9.17 11.54 9.17 11.95V12.33H9.43C10.43 12.33 11.31 13.21 11.31 14.21C11.31 14.5 11.24 14.77 11.12 15.02C11.58 15.36 11.87 15.88 11.87 16.46C11.87 17.49 10.96 18.33 9.83 18.33Z" fill="#141414"/>
</svg>
