<svg width="24" height="24" viewBox="0 0 24 24" fill="none" xmlns="http://www.w3.org/2000/svg">
<path d="M21.8149 12.0425C21.568 11.7962 21.1594 11.7962 20.9125 12.0425L20.521 12.4331V12C20.521 7.31269 16.6989 3.5 12 3.5C9.4037 3.5 6.97765 4.66334 5.35178 6.68432C5.13045 6.95604 5.17302 7.36364 5.45393 7.58442C5.72632 7.7967 6.12641 7.75425 6.34773 7.48252C7.73526 5.75874 9.79528 4.77373 12 4.77373C15.9923 4.77373 19.2441 8.01748 19.2441 12V12.4246L18.8525 12.034C18.6057 11.7877 18.1971 11.7877 17.9502 12.034C17.7033 12.2802 17.7033 12.6878 17.9502 12.9341L19.4314 14.4116C19.491 14.471 19.5591 14.5135 19.6357 14.5475C19.7123 14.5814 19.7974 14.5984 19.8825 14.5984C19.9677 14.5984 20.0443 14.5814 20.1294 14.5475C20.206 14.5135 20.2741 14.471 20.3337 14.4116L21.8149 12.9341C22.0617 12.6963 22.0617 12.2887 21.8149 12.0425Z" fill="#141414"/>
<path d="M18.5461 16.4156C18.2737 16.1948 17.8651 16.2373 17.6523 16.5175C16.2647 18.2413 14.2047 19.2263 12 19.2263C8.00766 19.2263 4.75591 15.9825 4.75591 12V11.5754L5.14748 11.966C5.27516 12.0934 5.4369 12.1528 5.59864 12.1528C5.76037 12.1528 5.92211 12.0849 6.04129 11.9575C6.28815 11.7113 6.28815 11.3037 6.04129 11.0574L4.56863 9.57992C4.50904 9.52897 4.43243 9.47802 4.35582 9.44406C4.2026 9.37612 4.02383 9.37612 3.87061 9.44406C3.794 9.47802 3.7259 9.52897 3.66631 9.57992L2.18515 11.0574C1.93828 11.3037 1.93828 11.7113 2.18515 11.9575C2.43201 12.2038 2.8406 12.2038 3.08747 11.9575L3.47904 11.5669V12C3.47904 16.6873 7.30113 20.5 12 20.5C14.5963 20.5 17.0223 19.3367 18.6482 17.3157C18.8695 17.044 18.827 16.6364 18.5461 16.4156Z" fill="#141414"/>
<path d="M14.9368 11.6943C15.1666 11.3546 15.2943 10.9555 15.2943 10.514C15.2943 9.38462 14.2984 8.39111 13.1662 8.39111H12.4682V7.54196C12.4682 7.19381 12.1788 6.9051 11.8298 6.9051C11.4807 6.9051 11.1913 7.19381 11.1913 7.54196V8.39111H9.44627C9.09725 8.39111 8.80783 8.67982 8.80783 9.02797V14.972C8.80783 15.3202 9.09725 15.6089 9.44627 15.6089H11.1913V16.458C11.1913 16.8062 11.4807 17.0949 11.8298 17.0949C12.1788 17.0949 12.4682 16.8062 12.4682 16.458V15.6089H13.7025C14.9964 15.6089 16.0434 14.6578 16.0434 13.486C16.0434 12.7303 15.6008 12.0679 14.9368 11.6943ZM10.0847 9.66484H13.1662C13.6344 9.66484 14.0175 10.1319 14.0175 10.514C14.0175 10.981 13.6344 11.3631 13.1662 11.3631H10.0847V9.66484ZM13.7025 14.3352H10.0847V12.6369H13.7025C14.2898 12.6369 14.7665 13.019 14.7665 13.486C14.7665 13.953 14.2898 14.3352 13.7025 14.3352Z" fill="#141414"/>
</svg>
