<svg width="24" height="24" viewBox="0 0 24 24" fill="none" xmlns="http://www.w3.org/2000/svg">
<path d="M11.9083 15.3641V15.4654C11.9083 15.7235 11.7064 15.9263 11.4495 15.9263H3.19265C2.93577 15.9263 2.73393 15.7235 2.73393 15.4654V15.3641C2.73393 13.7419 3.1376 13.3364 4.77063 13.3364H9.87155C11.5046 13.3364 11.9083 13.7419 11.9083 15.3641Z" fill="#141414"/>
<path d="M3.19265 16.8479C2.93577 16.8479 2.73393 17.0507 2.73393 17.3087V19.1428C2.73393 20.765 3.1376 21.1705 4.77063 21.1705H9.87155C11.5046 21.1705 11.9083 20.765 11.9083 19.1428V17.3087C11.9083 17.0507 11.7064 16.8479 11.4495 16.8479H3.19265Z" fill="#141414"/>
<path d="M21.0425 14.1659C20.6663 14.1659 20.3544 14.4793 20.3544 14.8572C20.3544 17.5853 18.4645 19.871 15.9232 20.4701L16.1709 20.0553C16.3636 19.7235 16.2627 19.2995 15.9324 19.106C15.6113 18.9125 15.1801 19.0138 14.9874 19.3456L14.0241 20.9585C13.8957 21.1705 13.8957 21.4378 14.0149 21.6498C14.1342 21.871 14.3636 22 14.6113 22C18.5287 22 21.7214 18.7926 21.7214 14.8572C21.7305 14.4793 21.4186 14.1659 21.0425 14.1659Z" fill="#141414"/>
<path d="M17.8716 11.0323C20.1516 11.0323 22 9.1754 22 6.88482C22 4.59425 20.1516 2.73737 17.8716 2.73737C15.5915 2.73737 13.7431 4.59425 13.7431 6.88482C13.7431 9.1754 15.5915 11.0323 17.8716 11.0323Z" fill="#141414"/>
<path d="M9.1101 2C5.19266 2 2 5.20736 2 9.14283C2 9.52071 2.31193 9.83407 2.68807 9.83407C3.06422 9.83407 3.37615 9.52071 3.37615 9.14283C3.37615 6.41473 5.26606 4.12902 7.80734 3.52995L7.55964 3.94469C7.36698 4.27649 7.46789 4.70045 7.79817 4.894C8.11927 5.08755 8.55046 4.98616 8.74312 4.65437L9.70643 3.04147C9.82569 2.82949 9.83487 2.57143 9.70643 2.35023C9.58716 2.13825 9.3578 2 9.1101 2Z" fill="#141414"/>
</svg>
