<svg width="24" height="24" viewBox="0 0 24 24" fill="none" xmlns="http://www.w3.org/2000/svg">
<path d="M3.39934 14.8893C3.72836 14.5603 4.27145 14.5604 4.60051 14.8893L9.61027 19.8991C9.93933 20.2281 9.93933 20.7712 9.61027 21.1003L9.60832 21.1032C9.44188 21.2585 9.22772 21.3503 9.00969 21.3503C8.7947 21.3502 8.57876 21.2699 8.4091 21.1003L3.39934 16.0905C3.07037 15.7614 3.07031 15.2184 3.39934 14.8893Z" fill="#141414"/>
<path d="M9.01001 2.65039C9.47524 2.65039 9.85962 3.03477 9.85962 3.5V20.5C9.85962 20.9652 9.47524 21.3496 9.01001 21.3496C8.54478 21.3496 8.1604 20.9652 8.1604 20.5V3.5C8.1604 3.03477 8.54478 2.65039 9.01001 2.65039Z" fill="#141414"/>
<path d="M14.3993 2.89934C14.7284 2.57031 15.2714 2.57036 15.6005 2.89934L20.6103 7.9091C20.9393 8.23815 20.9393 8.78122 20.6103 9.11027C20.4405 9.28002 20.2248 9.36027 20.0097 9.36027C19.7947 9.3602 19.5788 9.27993 19.4091 9.11027L14.3993 4.10051C14.0704 3.77145 14.0703 3.22836 14.3993 2.89934Z" fill="#141414"/>
<path d="M14.99 2.65039C15.4552 2.65039 15.8396 3.03477 15.8396 3.5V20.5C15.8396 20.9644 15.4661 21.3496 14.99 21.3496C14.5248 21.3496 14.1404 20.9652 14.1404 20.5V3.5C14.1404 3.03477 14.5248 2.65039 14.99 2.65039Z" fill="#141414"/>
</svg>
