<svg width="24" height="24" viewBox="0 0 24 24" fill="none" xmlns="http://www.w3.org/2000/svg">
<path d="M11.3492 2.26385C11.706 1.91213 12.2949 1.91197 12.6516 2.26385L19.2332 8.75714C19.5889 9.10837 19.5886 9.68678 19.2343 10.0389L19.2354 10.0399C19.0598 10.2253 18.8118 10.3084 18.581 10.3084C18.348 10.3083 18.1137 10.2235 17.9298 10.042L11.9993 4.19116L6.06989 10.042C5.71311 10.3939 5.12428 10.394 4.76753 10.042C4.4108 9.69006 4.41085 9.10913 4.76753 8.75714L11.3492 2.26385Z" fill="#141414"/>
<path d="M12.0001 2.17959C12.5046 2.17959 12.9213 2.59075 12.9213 3.0884V21.0912C12.9213 21.5888 12.5045 22 12.0001 22C11.4957 22 11.079 21.5888 11.079 21.0912V3.0884C11.079 2.59075 11.4957 2.17959 12.0001 2.17959Z" fill="#141414"/>
</svg>
