<svg width="24" height="24" viewBox="0 0 24 24" fill="none" xmlns="http://www.w3.org/2000/svg">
<path d="M17.9293 13.9563C18.2861 13.6044 18.876 13.6044 19.2327 13.9563C19.5892 14.3081 19.589 14.8891 19.2327 15.2411L12.6513 21.7337C12.4673 21.9151 12.2332 21.9999 12.0001 22C11.7669 22 11.533 21.9151 11.3489 21.7337L4.76746 15.2411C4.41092 14.8891 4.41077 14.3082 4.76746 13.9563C5.12416 13.6046 5.71304 13.6047 6.06978 13.9563L11.999 19.8055L17.9293 13.9563Z" fill="#141414"/>
<path d="M11.9998 2C12.5042 2 12.921 2.41112 12.921 2.90871V20.9096C12.9209 21.4071 12.5042 21.8183 11.9998 21.8183C11.4955 21.8183 11.0787 21.4071 11.0787 20.9096V2.90871C11.0787 2.41112 11.4954 2 11.9998 2Z" fill="#141414"/>
</svg>
