<svg width="24" height="24" viewBox="0 0 24 24" fill="none" xmlns="http://www.w3.org/2000/svg">
<path d="M17.4691 13.8291C17.7982 13.5 18.3422 13.5 18.6712 13.8291C19 14.158 18.9998 14.7012 18.6712 15.0302L12.6009 21.1005C12.4313 21.2702 12.2154 21.3495 12.0003 21.3496C11.7853 21.3496 11.5695 21.2702 11.3998 21.1005L5.32945 15.0302C5.0006 14.7012 5.00047 14.158 5.32945 13.8291C5.65845 13.5002 6.20159 13.5003 6.53062 13.8291L11.9994 19.2978L17.4691 13.8291Z" fill="#141414"/>
<path d="M12 2.65039C12.4652 2.65039 12.8496 3.03477 12.8496 3.5V20.3301C12.8496 20.7953 12.4652 21.1797 12 21.1797C11.5348 21.1797 11.1504 20.7953 11.1504 20.3301V3.5C11.1504 3.03477 11.5348 2.65039 12 2.65039Z" fill="#141414"/>
</svg>
