<svg width="24" height="24" viewBox="0 0 24 24" fill="none" xmlns="http://www.w3.org/2000/svg">
<path d="M13.9583 5.24965C14.3102 4.91676 14.8909 4.91681 15.2429 5.24965L21.7361 11.3911C22.0879 11.724 22.088 12.2732 21.7361 12.6061L15.2429 18.7475C15.0615 18.9189 14.8309 18.9999 14.6011 19C14.3711 19 14.1398 18.9191 13.9583 18.7475C13.6064 18.4146 13.6063 17.8645 13.9583 17.5316L18.8991 12.8576H2.90875C2.41113 12.8576 2 12.4688 2 11.9981C2.00018 11.5276 2.41124 11.1387 2.90875 11.1386H18.8991L13.9583 6.46463C13.6064 6.13172 13.6064 5.58254 13.9583 5.24965Z" fill="#141414"/>
</svg>
