<svg width="24" height="24" viewBox="0 0 24 24" fill="none" xmlns="http://www.w3.org/2000/svg">
<path d="M8.75726 4.76739C9.10927 4.41095 9.69024 4.41079 10.0421 4.76739C10.394 5.124 10.3939 5.71275 10.0421 6.06947L4.19126 11.9977L10.0421 17.9269C10.3941 18.2836 10.3941 18.8734 10.0421 19.2301L10.0411 19.229C9.86808 19.4151 9.62627 19.4999 9.3997 19.5C9.16976 19.5 8.93878 19.4138 8.75726 19.2301L2.26394 12.6498C1.912 12.2931 1.91204 11.7044 2.26394 11.3477L8.75726 4.76739Z" fill="#141414"/>
<path d="M21.0912 11.0777C21.5888 11.0777 22 11.4944 22 11.9987C22 12.5029 21.5888 12.9196 21.0912 12.9196H3.08831C2.59067 12.9196 2.1795 12.503 2.1795 11.9987C2.1795 11.4943 2.59067 11.0777 3.08831 11.0777H21.0912Z" fill="#141414"/>
</svg>
