<svg width="24" height="24" viewBox="0 0 24 24" fill="none" xmlns="http://www.w3.org/2000/svg">
<path d="M8.30925 3.47929C8.63827 3.15027 9.18136 3.15032 9.51042 3.47929L16.0309 9.99882C16.5595 10.5274 16.86 11.2431 16.86 11.9998C16.86 12.7553 16.5693 13.4704 16.03 13.9998L9.51042 20.5203L9.50847 20.5232C9.34203 20.6786 9.12787 20.7703 8.90983 20.7703C8.69477 20.7703 8.47897 20.69 8.30925 20.5203C7.98036 20.1912 7.98025 19.6481 8.30925 19.3191L14.8288 12.7996C15.2697 12.3587 15.2697 11.6419 14.8288 11.201L8.30925 4.68046C7.98028 4.3514 7.98022 3.80832 8.30925 3.47929Z" fill="#141414"/>
</svg>
