<svg width="24" height="24" viewBox="0 0 24 24" fill="none" xmlns="http://www.w3.org/2000/svg">
<path d="M11.3996 2.89913C11.7287 2.57032 12.2718 2.57017 12.6008 2.89913L18.6711 8.96944C18.9991 9.29779 18.9988 9.83852 18.672 10.1677L18.673 10.1687C18.5111 10.342 18.2823 10.4196 18.0695 10.4196C17.8546 10.4195 17.6385 10.3402 17.4689 10.1706L11.9992 4.70089L6.53044 10.1706C6.20138 10.4996 5.6583 10.4996 5.32927 10.1706C5.00025 9.84159 5.00029 9.2985 5.32927 8.96944L11.3996 2.89913Z" fill="#141414"/>
<path d="M12 2.82043C12.4652 2.82043 12.8496 3.20482 12.8496 3.67004V20.5001C12.8496 20.9653 12.4652 21.3497 12 21.3497C11.5348 21.3497 11.1504 20.9653 11.1504 20.5001V3.67004C11.1504 3.20482 11.5348 2.82043 12 2.82043Z" fill="#141414"/>
</svg>
