<svg width="24" height="24" viewBox="0 0 24 24" fill="none" xmlns="http://www.w3.org/2000/svg">
<path d="M13.8293 5.32939C14.1583 5.00037 14.7014 5.00042 15.0305 5.32939L21.1008 11.3997C21.4296 11.7288 21.4298 12.2719 21.1008 12.6009L15.0305 18.6712C14.8608 18.8407 14.6449 18.9202 14.4299 18.9202C14.2149 18.9202 13.999 18.8407 13.8293 18.6712C13.5003 18.3421 13.5003 17.7981 13.8293 17.469L19.2981 11.9993L13.8293 6.53056C13.5003 6.2015 13.5003 5.65842 13.8293 5.32939Z" fill="#141414"/>
<path d="M20.3301 11.1504C20.7953 11.1504 21.1797 11.5348 21.1797 12C21.1797 12.4652 20.7953 12.8496 20.3301 12.8496H3.5C3.03477 12.8496 2.65039 12.4652 2.65039 12C2.65039 11.5348 3.03477 11.1504 3.5 11.1504H20.3301Z" fill="#141414"/>
</svg>
