<svg width="24" height="24" viewBox="0 0 24 24" fill="none" xmlns="http://www.w3.org/2000/svg">
<path d="M8.96965 5.32919C9.29872 5.00037 9.84185 5.00022 10.1708 5.32919C10.4998 5.65816 10.4996 6.20128 10.1708 6.53036L4.70109 11.9991L10.1708 17.4688C10.4999 17.7979 10.4999 18.3419 10.1708 18.671L10.1698 18.67C10.0081 18.8417 9.78204 18.9199 9.57024 18.92C9.35527 18.92 9.13934 18.8405 8.96965 18.671L2.89934 12.6007C2.57032 12.2716 2.57036 11.7286 2.89934 11.3995L8.96965 5.32919Z" fill="#141414"/>
<path d="M20.5 11.1504C20.9652 11.1504 21.3496 11.5348 21.3496 12C21.3496 12.4652 20.9652 12.8496 20.5 12.8496H3.66992C3.20469 12.8496 2.82031 12.4652 2.82031 12C2.82031 11.5348 3.20469 11.1504 3.66992 11.1504H20.5Z" fill="#141414"/>
</svg>
