<svg width="24" height="24" viewBox="0 0 24 24" fill="none" xmlns="http://www.w3.org/2000/svg">
<path d="M19.8991 14.3993C20.2281 14.0703 20.7712 14.0704 21.1003 14.3993C21.4294 14.7283 21.4294 15.2714 21.1003 15.6004L16.0886 20.6131C15.9221 20.7685 15.708 20.8602 15.49 20.8602C15.275 20.8602 15.0591 20.7807 14.8894 20.6112C14.5603 20.2821 14.5603 19.7381 14.8894 19.409L19.8991 14.3993Z" fill="#141414"/>
<path d="M20.5 14.1404C20.9652 14.1404 21.3496 14.5248 21.3496 14.99C21.3496 15.4552 20.9652 15.8396 20.5 15.8396H3.5C3.03477 15.8396 2.65039 15.4552 2.65039 14.99C2.65039 14.5248 3.03477 14.1404 3.5 14.1404H20.5Z" fill="#141414"/>
<path d="M7.90914 3.39926C8.23812 3.07029 8.78124 3.07044 9.11031 3.39926C9.43937 3.72832 9.43937 4.27138 9.11031 4.60044L4.10055 9.61118C3.94153 9.77002 3.71594 9.8602 3.49996 9.8602C3.285 9.86019 3.06907 9.78073 2.89938 9.61118C2.57032 9.28213 2.57032 8.73808 2.89938 8.40903L7.90914 3.39926Z" fill="#141414"/>
<path d="M20.5 8.1604C20.9652 8.1604 21.3496 8.54478 21.3496 9.01001C21.3496 9.47524 20.9652 9.85962 20.5 9.85962H3.5C3.03477 9.85962 2.65039 9.47524 2.65039 9.01001C2.65039 8.54478 3.03477 8.1604 3.5 8.1604H20.5Z" fill="#141414"/>
</svg>
