<svg width="24" height="24" viewBox="0 0 24 24" fill="none" xmlns="http://www.w3.org/2000/svg">
<path d="M12 2C10.05 2 8.23 2.56 6.7 3.52L13.56 10.39L13.57 7.65C13.57 7.24 13.91 6.9 14.32 6.9C14.74 6.9 15.07 7.24 15.07 7.65L15.06 12.2C15.06 12.51 14.87 12.78 14.59 12.89C14.5 12.93 14.4 12.95 14.31 12.95C14.11 12.95 13.92 12.87 13.78 12.73L5.59 4.53C5.55 4.49 5.52 4.45 5.49 4.41C3.35 6.25 2 8.97 2 12C2 17.52 6.48 22 12 22C13.95 22 15.77 21.44 17.3 20.48L10.44 13.61L10.43 16.35C10.43 16.76 10.09 17.1 9.68 17.1C9.26 17.1 8.93 16.76 8.93 16.35L8.94 11.8C8.94 11.49 9.13 11.22 9.41 11.11C9.68 10.99 10.01 11.05 10.22 11.27L18.41 19.47C18.45 19.51 18.48 19.55 18.51 19.59C20.65 17.75 22 15.03 22 12C22 6.48 17.52 2 12 2Z" fill="#141414"/>
</svg>
