<svg width="24" height="24" viewBox="0 0 24 24" fill="none" xmlns="http://www.w3.org/2000/svg">
<path d="M17.4151 11.1726C17.2203 11.1726 17.0254 11.1007 16.8715 10.9468C16.5741 10.6491 16.5741 10.1565 16.8715 9.85888L20.1433 6.58499L16.8715 3.31109C16.5741 3.01347 16.5741 2.52085 16.8715 2.22322C17.169 1.92559 17.6613 1.92559 17.9587 2.22322L21.7741 6.04108C21.9177 6.18476 21.9997 6.37973 21.9997 6.58499C21.9997 6.79025 21.9177 6.98527 21.7741 7.12895L17.9587 10.9468C17.8048 11.0904 17.61 11.1726 17.4151 11.1726Z" fill="#141414"/>
<path d="M21.2308 7.35474H2.76923C2.34872 7.35474 2 7.0058 2 6.58502C2 6.16423 2.34872 5.81529 2.76923 5.81529H21.2308C21.6513 5.81529 21.9997 6.1642 21.9997 6.58499C21.9997 7.00577 21.6513 7.35474 21.2308 7.35474Z" fill="#141414"/>
<path d="M6.58459 22C6.38971 22 6.19487 21.9282 6.04103 21.7742L2.22561 17.9564C2.08202 17.8127 2 17.6177 2 17.4125C2 17.2072 2.08202 17.0122 2.22561 16.8685L6.04103 13.0507C6.33846 12.7531 6.83077 12.7531 7.12821 13.0507C7.42564 13.3483 7.42564 13.841 7.12821 14.1386L3.85641 17.4125L7.12821 20.6863C7.42564 20.9839 7.42564 21.4766 7.12821 21.7742C6.98462 21.9282 6.78971 22 6.58459 22Z" fill="#141414"/>
<path d="M21.2308 18.172H2.76923C2.34872 18.172 2 17.823 2 17.4022C2 16.9815 2.34872 16.6325 2.76923 16.6325H21.2308C21.6513 16.6325 22 16.9815 22 17.4022C22 17.823 21.6513 18.172 21.2308 18.172Z" fill="#141414"/>
</svg>
