<svg width="24" height="24" viewBox="0 0 24 24" fill="none" xmlns="http://www.w3.org/2000/svg">
<path d="M16.1971 2H7.8129C4.17108 2 2 4.17 2 7.81V16.18C2 19.83 4.17108 22 7.8129 22H16.1871C19.8289 22 22 19.83 22 16.19V7.81C22.01 4.17 19.8389 2 16.1971 2ZM8.47323 10.98C8.76337 10.69 9.24361 10.69 9.53375 10.98L11.2546 12.7V6.51C11.2546 6.1 11.5948 5.76 12.005 5.76C12.4152 5.76 12.7554 6.1 12.7554 6.51V12.7L14.4762 10.98C14.7664 10.69 15.2466 10.69 15.5367 10.98C15.8269 11.27 15.8269 11.75 15.5367 12.04L12.5352 15.04C12.4652 15.11 12.3852 15.16 12.2951 15.2C12.2051 15.24 12.105 15.26 12.005 15.26C11.9049 15.26 11.8149 15.24 11.7148 15.2C11.6248 15.16 11.5448 15.11 11.4747 15.04L8.47323 12.04C8.18308 11.75 8.18308 11.28 8.47323 10.98ZM18.2481 17.22C16.2371 17.89 14.126 18.23 12.005 18.23C9.88393 18.23 7.77288 17.89 5.76187 17.22C5.37168 17.09 5.16158 16.66 5.29164 16.27C5.42171 15.88 5.84191 15.66 6.24211 15.8C9.96397 17.04 14.056 17.04 17.7779 15.8C18.1681 15.67 18.5983 15.88 18.7283 16.27C18.8484 16.67 18.6383 17.09 18.2481 17.22Z" fill="#141414"/>
</svg>
