<svg width="24" height="24" viewBox="0 0 24 24" fill="none" xmlns="http://www.w3.org/2000/svg">
<path fill-rule="evenodd" clip-rule="evenodd" d="M16.1973 2C19.8387 2.00014 22.0098 4.16995 22 7.80957V16.1904C21.9998 19.8302 19.8282 22 16.1865 22H7.8125C4.17093 21.9999 2 19.8296 2 16.1797V7.80957C2.00017 4.16994 4.17107 2.00013 7.8125 2H16.1973ZM16.0664 10.1104C15.7763 9.8204 15.296 9.82037 15.0059 10.1104L12.0049 13.1104L9.00293 10.1104C8.7128 9.82043 8.23349 9.82043 7.94336 10.1104C7.65322 10.4004 7.65322 10.8799 7.94336 11.1699L11.4746 14.7002C11.6247 14.8501 11.8148 14.9199 12.0049 14.9199C12.1949 14.9199 12.3851 14.8501 12.5352 14.7002L16.0664 11.1699C16.3565 10.8699 16.3565 10.4004 16.0664 10.1104Z" fill="#141414"/>
</svg>
