<svg width="24" height="24" viewBox="0 0 24 24" fill="none" xmlns="http://www.w3.org/2000/svg">
<path d="M19.9255 2.9668C20.2288 2.66361 20.7293 2.66355 21.0325 2.9668C21.3358 3.27006 21.3357 3.77062 21.0325 4.07391L13.4748 11.632C13.3183 11.7884 13.1194 11.8615 12.9212 11.8615C12.723 11.8615 12.5241 11.7884 12.3677 11.632C12.0644 11.3287 12.0645 10.8282 12.3677 10.5249L19.9255 2.9668Z" fill="#141414"/>
<path d="M21.216 2C21.6448 2 22 2.35428 22 2.78308V7.20702C22 7.63582 21.6448 7.991 21.216 7.991C20.7873 7.9909 20.433 7.63576 20.433 7.20702V3.56616H16.7923C16.3635 3.56616 16.0092 3.21188 16.0092 2.78308C16.0092 2.35428 16.3635 2 16.7923 2H21.216Z" fill="#141414"/>
<path d="M11.078 2C11.5068 2 11.861 2.35428 11.861 2.78308C11.861 3.21188 11.5068 3.56616 11.078 3.56616H9.23466C7.11674 3.56616 5.70837 3.94406 4.82618 4.82628C3.94399 5.7085 3.5661 7.11693 3.5661 9.23492V14.7651C3.5661 16.8831 3.94399 18.2915 4.82618 19.1737C5.70837 20.0559 7.11674 20.4338 9.23466 20.4338H14.7646C16.8825 20.4338 18.2909 20.0559 19.1731 19.1737C20.0553 18.2915 20.4332 16.8831 20.4332 14.7651V12.9217C20.4332 12.4929 20.7874 12.1386 21.2162 12.1386C21.645 12.1386 21.9993 12.4929 21.9993 12.9217V14.7651C21.9993 17.2781 21.4636 19.0938 20.2784 20.279C19.0931 21.4643 17.2775 22 14.7646 22H9.23466C6.72178 22 4.90614 21.4643 3.72091 20.279C2.53568 19.0938 2 17.2781 2 14.7651V9.23492C2 6.72195 2.53568 4.90625 3.72091 3.72097C4.90614 2.5357 6.72178 2 9.23466 2H11.078Z" fill="#141414"/>
</svg>
