<svg width="24" height="24" viewBox="0 0 24 24" fill="none" xmlns="http://www.w3.org/2000/svg">
<path d="M12 2C12.4288 2 12.783 2.35428 12.783 2.78308C12.783 3.21188 12.4288 3.56616 12 3.56616C7.35025 3.56616 3.56615 7.35027 3.56615 12C3.56615 16.6497 7.35025 20.4338 12 20.4338C16.6497 20.4338 20.4338 16.6497 20.4338 12C20.4338 11.5712 20.7881 11.2169 21.2169 11.2169C21.6456 11.2169 21.9999 11.5712 21.9999 12C21.9999 17.5165 17.5165 22 12 22C6.48345 22 2 17.5165 2 12C2 6.48346 6.48345 2 12 2Z" fill="#141414"/>
<path d="M19.9261 2.9668C20.2293 2.66361 20.7299 2.66355 21.0332 2.9668C21.3364 3.27006 21.3363 3.77062 21.0332 4.07391L13.4751 11.632C13.3187 11.7884 13.1198 11.8615 12.9216 11.8615C12.7234 11.8615 12.5245 11.7884 12.368 11.632C12.0648 11.3287 12.0648 10.8282 12.368 10.5249L19.9261 2.9668Z" fill="#141414"/>
<path d="M21.2169 2C21.6457 2.00004 22 2.3543 22 2.78308V7.23492C22 7.66366 21.6457 8.01796 21.2169 8.018C20.7882 8.018 20.4339 7.66369 20.4338 7.23492V3.56616H16.7651C16.3363 3.56616 15.982 3.21188 15.982 2.78308C15.982 2.35428 16.3363 2 16.7651 2H21.2169Z" fill="#141414"/>
</svg>
