<svg width="24" height="24" viewBox="0 0 24 24" fill="none" xmlns="http://www.w3.org/2000/svg">
<path d="M14.44 7.25C14.25 7.25 14.06 7.18001 13.91 7.03L11.88 5L9.85001 7.03C9.56001 7.32 9.08001 7.32 8.79001 7.03C8.50001 6.74001 8.50001 6.26 8.79001 5.97L11.35 3.41C11.64 3.12 12.12 3.12 12.41 3.41L14.97 5.97C15.26 6.26 15.26 6.74001 14.97 7.03C14.82 7.18001 14.63 7.25 14.44 7.25Z" fill="#141414"/>
<path d="M11.8799 3.24048C12.3009 3.24048 12.6494 3.58896 12.6494 4.01001V14.1799C12.6494 14.6112 12.3008 14.9495 11.8799 14.9495C11.4588 14.9495 11.1104 14.601 11.1104 14.1799V4.01001C11.1104 3.58896 11.4588 3.24048 11.8799 3.24048Z" fill="#141414"/>
<path d="M20 11.0508C20.5205 11.0508 20.9492 11.4795 20.9492 12C20.9492 14.6228 20.0321 16.8625 18.4473 18.4473C16.8625 20.0321 14.6228 20.9492 12 20.9492C9.37718 20.9492 7.13753 20.0321 5.55273 18.4473C3.96794 16.8625 3.05078 14.6228 3.05078 12C3.05078 11.4795 3.47954 11.0508 4 11.0508C4.52046 11.0508 4.94922 11.4795 4.94922 12C4.94922 14.0872 5.67736 15.8473 6.91504 17.085C8.15272 18.3226 9.91279 19.0508 12 19.0508C14.0872 19.0508 15.8473 18.3226 17.085 17.085C18.3226 15.8473 19.0508 14.0872 19.0508 12C19.0508 11.4795 19.4795 11.0508 20 11.0508Z" fill="#141414"/>
</svg>
