<svg width="24" height="24" viewBox="0 0 24 24" fill="none" xmlns="http://www.w3.org/2000/svg">
<path d="M12 1.15039C12.4652 1.15039 12.8496 1.53477 12.8496 2C12.8496 2.46523 12.4652 2.84961 12 2.84961C6.95523 2.84961 2.84961 6.95523 2.84961 12C2.84961 17.0448 6.95523 21.1504 12 21.1504C17.0448 21.1504 21.1504 17.0448 21.1504 12C21.1504 11.5348 21.5348 11.1504 22 11.1504C22.4652 11.1504 22.8496 11.5348 22.8496 12C22.8496 17.9852 17.9852 22.8496 12 22.8496C6.01477 22.8496 1.15039 17.9852 1.15039 12C1.15039 6.01477 6.01477 1.15039 12 1.15039Z" fill="#141414"/>
<path d="M20.5995 2.19938C20.9286 1.87042 21.4717 1.87036 21.8007 2.19938C22.1297 2.5284 22.1296 3.07149 21.8007 3.40055L13.6005 11.6007C13.4308 11.7704 13.215 11.8498 12.9999 11.8498C12.7849 11.8497 12.569 11.7705 12.3993 11.6007C12.0703 11.2717 12.0704 10.7286 12.3993 10.3996L20.5995 2.19938Z" fill="#141414"/>
<path d="M22 1.15039C22.4652 1.15043 22.8496 1.5348 22.8496 2V6.83008C22.8496 7.29525 22.4652 7.67964 22 7.67969C21.5348 7.67969 21.1504 7.29527 21.1504 6.83008V2.84961H17.1699C16.7047 2.84961 16.3203 2.46523 16.3203 2C16.3203 1.53477 16.7047 1.15039 17.1699 1.15039H22Z" fill="#141414"/>
</svg>
