<svg width="24" height="24" viewBox="0 0 24 24" fill="none" xmlns="http://www.w3.org/2000/svg">
<path d="M14.7265 6.5701C14.5142 6.5701 14.3019 6.49126 14.1343 6.32231L11.8659 4.03585L9.59756 6.32231C9.27351 6.64894 8.73715 6.64894 8.4131 6.32231C8.08905 5.99567 8.08905 5.45503 8.4131 5.12839L11.2737 2.24498C11.5977 1.91834 12.1341 1.91834 12.4581 2.24498L15.3187 5.12839C15.6428 5.45503 15.6428 5.99567 15.3187 6.32231C15.1511 6.49126 14.9388 6.5701 14.7265 6.5701Z" fill="#141414"/>
<path d="M11.8659 2.05403C12.3364 2.05403 12.7258 2.44654 12.7258 2.92078V14.3755C12.7258 14.8612 12.3362 15.2423 11.8659 15.2423C11.3954 15.2423 11.006 14.8497 11.006 14.3755V2.92078C11.006 2.44654 11.3954 2.05403 11.8659 2.05403Z" fill="#141414"/>
<path d="M20.9393 10.8511C21.5209 10.8511 22 11.334 22 11.9202C22 14.8744 20.9752 17.397 19.2043 19.182C17.4334 20.967 14.9308 22 12 22C9.06921 22 6.5666 20.967 4.79572 19.182C3.02485 17.397 2 14.8744 2 11.9202C2 11.334 2.47911 10.8511 3.06067 10.8511C3.64224 10.8511 4.12134 11.334 4.12134 11.9202C4.12134 14.2711 4.93498 16.2535 6.31798 17.6476C7.70099 19.0416 9.66771 19.8617 12 19.8617C14.3323 19.8617 16.299 19.0416 17.682 17.6476C19.065 16.2535 19.8787 14.2711 19.8787 11.9202C19.8787 11.334 20.3578 10.8511 20.9393 10.8511Z" fill="#141414"/>
</svg>
