<svg width="24" height="24" viewBox="0 0 24 24" fill="none" xmlns="http://www.w3.org/2000/svg">
<path d="M20.5995 2.19938C20.9286 1.87042 21.4717 1.87036 21.8007 2.19938C22.1297 2.5284 22.1296 3.07149 21.8007 3.40055L13.6005 11.6007C13.4308 11.7704 13.215 11.8498 12.9999 11.8498C12.7849 11.8497 12.569 11.7705 12.3993 11.6007C12.0703 11.2717 12.0704 10.7286 12.3993 10.3996L20.5995 2.19938Z" fill="#141414"/>
<path d="M21.9998 1.15039C22.465 1.15039 22.8503 1.53477 22.8503 2V6.7998C22.8503 7.26503 22.465 7.65039 21.9998 7.65039C21.5346 7.65028 21.1501 7.26497 21.1501 6.7998V2.84961H17.2C16.7347 2.84961 16.3503 2.46523 16.3503 2C16.3503 1.53477 16.7347 1.15039 17.2 1.15039H21.9998Z" fill="#141414"/>
<path d="M11 1.15039C11.4652 1.15039 11.8496 1.53477 11.8496 2C11.8496 2.46523 11.4652 2.84961 11 2.84961H9C6.70205 2.84961 5.17397 3.25962 4.2168 4.2168C3.25962 5.17397 2.84961 6.70205 2.84961 9V15C2.84961 17.2979 3.25962 18.826 4.2168 19.7832C5.17397 20.7404 6.70205 21.1504 9 21.1504H15C17.2979 21.1504 18.826 20.7404 19.7832 19.7832C20.7404 18.826 21.1504 17.2979 21.1504 15V13C21.1504 12.5348 21.5348 12.1504 22 12.1504C22.4652 12.1504 22.8496 12.5348 22.8496 13V15C22.8496 17.7265 22.2684 19.6964 20.9824 20.9824C19.6964 22.2684 17.7265 22.8496 15 22.8496H9C6.27352 22.8496 4.30355 22.2684 3.01758 20.9824C1.7316 19.6964 1.15039 17.7265 1.15039 15V9C1.15039 6.27352 1.7316 4.30355 3.01758 3.01758C4.30355 1.7316 6.27352 1.15039 9 1.15039H11Z" fill="#141414"/>
</svg>
