<svg width="24" height="24" viewBox="0 0 24 24" fill="none" xmlns="http://www.w3.org/2000/svg">
<path d="M16.8074 8.99837H12.7554V15.2492C12.7554 15.6592 12.4152 15.9992 12.005 15.9992C11.5948 15.9992 11.2546 15.6592 11.2546 15.2492V8.99837H7.20259C4.001 8.99837 2 10.9986 2 14.199V16.7893C2 19.9998 4.001 22 7.20259 22H16.7974C19.999 22 22 19.9997 22 16.7993V14.199C22.01 10.9986 20.009 8.99837 16.8074 8.99837Z" fill="#141414"/>
<path d="M12.7554 4.55782L14.8264 6.62808C14.9765 6.7781 15.1666 6.84811 15.3567 6.84811C15.5467 6.84811 15.7368 6.7781 15.8869 6.62808C16.1771 6.33804 16.1771 5.85798 15.8869 5.56795L12.5352 2.21753C12.2451 1.92749 11.7649 1.92749 11.4747 2.21753L8.12305 5.56795C7.8329 5.85798 7.8329 6.33804 8.12305 6.62808C8.41319 6.91812 8.89343 6.91812 9.18358 6.62808L11.2546 4.55782V8.99837H12.7554V4.55782Z" fill="#141414"/>
</svg>
