<svg width="24" height="24" viewBox="0 0 24 24" fill="none" xmlns="http://www.w3.org/2000/svg">
<path d="M20.6635 2.22945C20.9668 1.92625 21.4673 1.92619 21.7706 2.22945C22.0738 2.53271 22.0738 3.03327 21.7706 3.33656L14.2125 10.8946C14.0664 11.0407 13.868 11.1241 13.659 11.1241C13.4608 11.1241 13.2618 11.051 13.1054 10.8946C12.8022 10.5914 12.8022 10.0908 13.1054 9.78751L20.6635 2.22945Z" fill="#141414"/>
<path d="M12.9217 5.84346C13.3505 5.84346 13.7048 6.19774 13.7048 6.62653V10.2953H17.3735C17.8023 10.2953 18.1566 10.6496 18.1566 11.0784C18.1566 11.5071 17.8023 11.8614 17.3735 11.8615H12.9217C12.4929 11.8615 12.1387 11.5071 12.1386 11.0784V6.62653C12.1386 6.19774 12.4929 5.84346 12.9217 5.84346Z" fill="#141414"/>
<path d="M11.0783 2C11.5071 2 11.8614 2.35428 11.8614 2.78308C11.8614 3.21188 11.5071 3.56616 11.0783 3.56616H9.23492C7.11693 3.56616 5.7085 3.94406 4.82628 4.82628C3.94406 5.7085 3.56616 7.11693 3.56616 9.23492V14.7651C3.56616 16.8831 3.94406 18.2915 4.82628 19.1737C5.7085 20.0559 7.11693 20.4338 9.23492 20.4338H14.7651C16.8831 20.4338 18.2915 20.0559 19.1737 19.1737C20.0559 18.2915 20.4338 16.8831 20.4338 14.7651V12.9217C20.4338 12.4929 20.7881 12.1386 21.2169 12.1386C21.6457 12.1386 22 12.4929 22 12.9217V14.7651C22 17.2781 21.4643 19.0938 20.279 20.279C19.0938 21.4643 17.2781 22 14.7651 22H9.23492C6.72195 22 4.90625 21.4643 3.72097 20.279C2.5357 19.0938 2 17.2781 2 14.7651V9.23492C2 6.72195 2.5357 4.90625 3.72097 3.72097C4.90625 2.5357 6.72195 2 9.23492 2H11.0783Z" fill="#141414"/>
</svg>
