<svg width="24" height="24" viewBox="0 0 24 24" fill="none" xmlns="http://www.w3.org/2000/svg">
<path d="M21.3996 1.39933C21.7286 1.07037 22.2717 1.07031 22.6007 1.39933C22.9297 1.72835 22.9297 2.27144 22.6007 2.6005L14.4005 10.8007C14.242 10.9592 14.0267 11.0497 13.8 11.0497C13.5849 11.0497 13.3691 10.9704 13.1994 10.8007C12.8704 10.4717 12.8704 9.92859 13.1994 9.59952L21.3996 1.39933Z" fill="#141414"/>
<path d="M13 5.32043C13.4652 5.32043 13.8496 5.70482 13.8496 6.17004V10.1505H17.8301C18.2953 10.1506 18.6797 10.5349 18.6797 11.0001C18.6796 11.4653 18.2952 11.8497 17.8301 11.8497H13C12.5348 11.8497 12.1504 11.4653 12.1504 11.0001V6.17004C12.1504 5.70482 12.5348 5.32043 13 5.32043Z" fill="#141414"/>
<path d="M11 1.15039C11.4652 1.15039 11.8496 1.53477 11.8496 2C11.8496 2.46523 11.4652 2.84961 11 2.84961H9C6.70205 2.84961 5.17397 3.25962 4.2168 4.2168C3.25962 5.17397 2.84961 6.70205 2.84961 9V15C2.84961 17.2979 3.25962 18.826 4.2168 19.7832C5.17397 20.7404 6.70205 21.1504 9 21.1504H15C17.2979 21.1504 18.826 20.7404 19.7832 19.7832C20.7404 18.826 21.1504 17.2979 21.1504 15V13C21.1504 12.5348 21.5348 12.1504 22 12.1504C22.4652 12.1504 22.8496 12.5348 22.8496 13V15C22.8496 17.7265 22.2684 19.6964 20.9824 20.9824C19.6964 22.2684 17.7265 22.8496 15 22.8496H9C6.27352 22.8496 4.30355 22.2684 3.01758 20.9824C1.7316 19.6964 1.15039 17.7265 1.15039 15V9C1.15039 6.27352 1.7316 4.30355 3.01758 3.01758C4.30355 1.7316 6.27352 1.15039 9 1.15039H11Z" fill="#141414"/>
</svg>
