<svg width="24" height="24" viewBox="0 0 24 24" fill="none" xmlns="http://www.w3.org/2000/svg">
<path d="M11.8644 15.304C11.6497 15.304 11.435 15.2264 11.2655 15.0601L8.37272 12.2218C8.04502 11.9003 8.04502 11.3681 8.37272 11.0466C8.70042 10.7251 9.24282 10.7251 9.57051 11.0466L11.8644 13.2972L14.1583 11.0466C14.486 10.7251 15.0284 10.7251 15.3561 11.0466C15.6838 11.3681 15.6838 11.9003 15.3561 12.2218L12.4633 15.0601C12.2938 15.2264 12.0791 15.304 11.8644 15.304Z" fill="#141414"/>
<path d="M11.7175 2C12.187 2 12.576 2.38166 12.576 2.84234V14.1176C12.576 14.5783 12.187 14.9599 11.7175 14.9599C11.248 14.9599 10.859 14.5783 10.859 14.1176V2.84234C10.859 2.38166 11.248 2 11.7175 2Z" fill="#141414"/>
<path d="M21.0399 11.2466C21.5657 11.2466 22 11.6728 22 12.1886C22 15.0699 20.9735 17.5243 19.2059 19.2586C17.4383 20.9929 14.9368 22 12 22C9.06324 22 6.5617 20.9929 4.79409 19.2586C3.02647 17.5243 2 15.0699 2 12.1886C2 11.6728 2.43435 11.2466 2.96005 11.2466C3.48576 11.2466 3.92011 11.6728 3.92011 12.1886C3.92011 14.5291 4.75281 16.5092 6.17457 17.9041C7.59634 19.2991 9.61445 20.1161 12 20.1161C14.3856 20.1161 16.4037 19.2991 17.8254 17.9041C19.2472 16.5092 20.0799 14.5291 20.0799 12.1886C20.0799 11.6728 20.5142 11.2466 21.0399 11.2466Z" fill="#141414"/>
</svg>
