<svg width="24" height="24" viewBox="0 0 24 24" fill="none" xmlns="http://www.w3.org/2000/svg">
<path d="M11.88 14.99C11.69 14.99 11.5 14.92 11.35 14.77L8.79001 12.21C8.50001 11.92 8.50001 11.44 8.79001 11.15C9.08001 10.86 9.56001 10.86 9.85001 11.15L11.88 13.18L13.91 11.15C14.2 10.86 14.68 10.86 14.97 11.15C15.26 11.44 15.26 11.92 14.97 12.21L12.41 14.77C12.26 14.92 12.07 14.99 11.88 14.99Z" fill="#141414"/>
<path d="M11.75 2.99023C12.1655 2.99023 12.5098 3.33448 12.5098 3.75V13.9199C12.5098 14.3354 12.1655 14.6797 11.75 14.6797C11.3345 14.6797 10.9902 14.3354 10.9902 13.9199V3.75C10.9902 3.33448 11.3345 2.99023 11.75 2.99023Z" fill="#141414"/>
<path d="M20 11.3304C20.4652 11.3304 20.8496 11.7148 20.8496 12.1801C20.8496 14.779 19.9412 16.9927 18.377 18.557C16.8127 20.1213 14.5989 21.0297 12 21.0297C9.40108 21.0297 7.18731 20.1213 5.62305 18.557C4.05878 16.9927 3.15039 14.779 3.15039 12.1801C3.15039 11.7148 3.53477 11.3304 4 11.3304C4.46523 11.3304 4.84961 11.7148 4.84961 12.1801C4.84961 14.2912 5.58652 16.0771 6.84473 17.3353C8.10293 18.5935 9.88888 19.3304 12 19.3304C14.1111 19.3304 15.8971 18.5935 17.1553 17.3353C18.4135 16.0771 19.1504 14.2912 19.1504 12.1801C19.1504 11.7148 19.5348 11.3304 20 11.3304Z" fill="#141414"/>
</svg>
