<svg width="24" height="24" viewBox="0 0 24 24" fill="none" xmlns="http://www.w3.org/2000/svg">
<path d="M12 2C12.4288 2 12.7831 2.35428 12.7831 2.78308C12.7831 3.21188 12.4288 3.56616 12 3.56616C7.35027 3.56616 3.56616 7.35027 3.56616 12C3.56616 16.6497 7.35027 20.4338 12 20.4338C16.6497 20.4338 20.4338 16.6497 20.4338 12C20.4338 11.5712 20.7881 11.2169 21.2169 11.2169C21.6457 11.2169 22 11.5712 22 12C22 17.5165 17.5165 22 12 22C6.48346 22 2 17.5165 2 12C2 6.48346 6.48346 2 12 2Z" fill="#141414"/>
<path d="M20.6635 2.22945C20.9668 1.92625 21.4673 1.92619 21.7706 2.22945C22.0738 2.53271 22.0738 3.03327 21.7706 3.33656L14.2125 10.8946C14.0664 11.0407 13.868 11.1241 13.659 11.1241C13.4608 11.1241 13.2618 11.051 13.1054 10.8946C12.8022 10.5914 12.8022 10.0908 13.1054 9.78751L20.6635 2.22945Z" fill="#141414"/>
<path d="M12.9217 5.84346C13.3505 5.84346 13.7048 6.19774 13.7048 6.62653V10.2953H17.3735C17.8023 10.2953 18.1566 10.6496 18.1566 11.0784C18.1566 11.5071 17.8023 11.8614 17.3735 11.8615H12.9217C12.4929 11.8615 12.1387 11.5071 12.1386 11.0784V6.62653C12.1386 6.19774 12.4929 5.84346 12.9217 5.84346Z" fill="#141414"/>
</svg>
