<svg width="24" height="24" viewBox="0 0 24 24" fill="none" xmlns="http://www.w3.org/2000/svg">
<path d="M12 1.15039C12.4652 1.15039 12.8496 1.53477 12.8496 2C12.8496 2.46523 12.4652 2.84961 12 2.84961C6.95523 2.84961 2.84961 6.95523 2.84961 12C2.84961 17.0448 6.95523 21.1504 12 21.1504C17.0448 21.1504 21.1504 17.0448 21.1504 12C21.1504 11.5348 21.5348 11.1504 22 11.1504C22.4652 11.1504 22.8496 11.5348 22.8496 12C22.8496 17.9852 17.9852 22.8496 12 22.8496C6.01477 22.8496 1.15039 17.9852 1.15039 12C1.15039 6.01477 6.01477 1.15039 12 1.15039Z" fill="#141414"/>
<path d="M21.3996 1.39933C21.7286 1.07037 22.2717 1.07031 22.6007 1.39933C22.9297 1.72835 22.9297 2.27144 22.6007 2.6005L14.4005 10.8007C14.242 10.9592 14.0267 11.0497 13.8 11.0497C13.5849 11.0497 13.3691 10.9704 13.1994 10.8007C12.8704 10.4717 12.8704 9.92859 13.1994 9.59952L21.3996 1.39933Z" fill="#141414"/>
<path d="M13 5.32043C13.4652 5.32043 13.8496 5.70482 13.8496 6.17004V10.1505H17.8301C18.2953 10.1506 18.6797 10.5349 18.6797 11.0001C18.6796 11.4653 18.2952 11.8497 17.8301 11.8497H13C12.5348 11.8497 12.1504 11.4653 12.1504 11.0001V6.17004C12.1504 5.70482 12.5348 5.32043 13 5.32043Z" fill="#141414"/>
</svg>
