<svg width="24" height="24" viewBox="0 0 24 24" fill="none" xmlns="http://www.w3.org/2000/svg">
<path d="M11.6801 15.3699C11.4901 15.3699 11.3001 15.2999 11.1501 15.1499C10.8601 14.8599 10.8601 14.3799 11.1501 14.0899L13.1801 12.0599L11.1501 10.0299C10.8601 9.73994 10.8601 9.25994 11.1501 8.96994C11.4401 8.67994 11.9201 8.67994 12.2101 8.96994L14.7701 11.5299C15.0601 11.8199 15.0601 12.2999 14.7701 12.5899L12.2101 15.1499C12.0701 15.2999 11.8701 15.3699 11.6801 15.3699Z" fill="#141414"/>
<path d="M14.1699 11.3003C14.5854 11.3003 14.9297 11.6445 14.9297 12.0601C14.9297 12.4756 14.5854 12.8198 14.1699 12.8198H4C3.58448 12.8198 3.24023 12.4756 3.24023 12.0601C3.24023 11.6445 3.58448 11.3003 4 11.3003H14.1699Z" fill="#141414"/>
<path d="M12 3.15039C14.5989 3.15039 16.8127 4.05878 18.377 5.62305C19.9412 7.18731 20.8496 9.40108 20.8496 12C20.8496 14.5989 19.9412 16.8127 18.377 18.377C16.8127 19.9412 14.5989 20.8496 12 20.8496C11.5348 20.8496 11.1504 20.4652 11.1504 20C11.1504 19.5348 11.5348 19.1504 12 19.1504C14.1111 19.1504 15.8971 18.4135 17.1553 17.1553C18.4135 15.8971 19.1504 14.1111 19.1504 12C19.1504 9.88888 18.4135 8.10293 17.1553 6.84473C15.8971 5.58652 14.1111 4.84961 12 4.84961C11.5348 4.84961 11.1504 4.46523 11.1504 4C11.1504 3.53477 11.5348 3.15039 12 3.15039Z" fill="#141414"/>
</svg>
