<svg width="24" height="24" viewBox="0 0 24 24" fill="none" xmlns="http://www.w3.org/2000/svg">
<path d="M17.4399 15.3699C17.2499 15.3699 17.0599 15.2999 16.9099 15.1499C16.6199 14.8599 16.6199 14.3799 16.9099 14.0899L18.9399 12.0599L16.9099 10.0299C16.6199 9.73994 16.6199 9.25994 16.9099 8.96994C17.1999 8.67994 17.6799 8.67994 17.9699 8.96994L20.5299 11.5299C20.8199 11.8199 20.8199 12.2999 20.5299 12.5899L17.9699 15.1499C17.8199 15.2999 17.6299 15.3699 17.4399 15.3699Z" fill="#141414"/>
<path d="M19.9299 11.3003C20.3455 11.3003 20.6897 11.6445 20.6897 12.0601C20.6897 12.4756 20.3455 12.8198 19.9299 12.8198H9.76001C9.34449 12.8198 9.00024 12.4756 9.00024 12.0601C9.00024 11.6445 9.34449 11.3003 9.76001 11.3003H19.9299Z" fill="#141414"/>
<path d="M11.76 3.15039C12.2252 3.15039 12.6096 3.53477 12.6096 4C12.6096 4.46523 12.2252 4.84961 11.76 4.84961C9.64889 4.84961 7.86294 5.58652 6.60474 6.84473C5.34653 8.10293 4.60962 9.88888 4.60962 12C4.60962 14.1111 5.34653 15.8971 6.60474 17.1553C7.86294 18.4135 9.64889 19.1504 11.76 19.1504C12.2252 19.1504 12.6096 19.5348 12.6096 20C12.6096 20.4652 12.2252 20.8496 11.76 20.8496C9.16109 20.8496 6.94732 19.9412 5.38306 18.377C3.81879 16.8127 2.9104 14.5989 2.9104 12C2.9104 9.40108 3.81879 7.18731 5.38306 5.62305C6.94732 4.05878 9.16109 3.15039 11.76 3.15039Z" fill="#141414"/>
</svg>
