<svg width="24" height="24" viewBox="0 0 24 24" fill="none" xmlns="http://www.w3.org/2000/svg">
<path d="M18.2914 15.8081C18.0784 15.8081 17.8654 15.729 17.6972 15.5595C17.372 15.2318 17.372 14.6894 17.6972 14.3617L19.9733 12.0678L17.6972 9.77391C17.372 9.44621 17.372 8.90382 17.6972 8.57612C18.0223 8.24842 18.5605 8.24842 18.8857 8.57612L21.7561 11.4689C22.0813 11.7966 22.0813 12.339 21.7561 12.6667L18.8857 15.5595C18.7175 15.729 18.5045 15.8081 18.2914 15.8081Z" fill="#141414"/>
<path d="M21.0833 11.2093C21.5492 11.2093 21.9352 11.5983 21.9352 12.0678C21.9352 12.5373 21.5492 12.9263 21.0833 12.9263H9.68018C9.21427 12.9263 8.82829 12.5373 8.82829 12.0678C8.82829 11.5983 9.21427 11.2093 9.68018 11.2093H21.0833Z" fill="#141414"/>
<path d="M11.9227 2C12.4443 2 12.8753 2.43435 12.8753 2.96005C12.8753 3.48576 12.4443 3.92011 11.9227 3.92011C9.55558 3.92011 7.55308 4.75281 6.1423 6.17457C4.73153 7.59634 3.90526 9.61445 3.90526 12C3.90526 14.3856 4.73153 16.4037 6.1423 17.8254C7.55308 19.2472 9.55558 20.0799 11.9227 20.0799C12.4443 20.0799 12.8753 20.5142 12.8753 21.0399C12.8753 21.5657 12.4443 22 11.9227 22C9.00864 22 6.52643 20.9735 4.77249 19.2059C3.01854 17.4383 2 14.9368 2 12C2 9.06324 3.01854 6.5617 4.77249 4.79409C6.52643 3.02647 9.00864 2 11.9227 2Z" fill="#141414"/>
</svg>
