<svg width="24" height="24" viewBox="0 0 24 24" fill="none" xmlns="http://www.w3.org/2000/svg">
<path d="M11.5855 15.8081C11.3697 15.8081 11.1539 15.729 10.9836 15.5595C10.6542 15.2318 10.6542 14.6894 10.9836 14.3617L13.2892 12.0678L10.9836 9.77391C10.6542 9.44621 10.6542 8.90382 10.9836 8.57612C11.313 8.24842 11.8581 8.24842 12.1875 8.57612L15.095 11.4689C15.4244 11.7966 15.4244 12.339 15.095 12.6667L12.1875 15.5595C12.0285 15.729 11.8013 15.8081 11.5855 15.8081Z" fill="#141414"/>
<path d="M14.4135 11.2093C14.8854 11.2093 15.2764 11.5983 15.2764 12.0678C15.2764 12.5373 14.8854 12.9263 14.4135 12.9263H2.86291C2.39098 12.9263 2 12.5373 2 12.0678C2 11.5983 2.39098 11.2093 2.86291 11.2093H14.4135Z" fill="#141414"/>
<path d="M11.949 2C14.9007 2 17.415 3.02647 19.1917 4.79409C20.9683 6.5617 22 9.06324 22 12C22 14.9368 20.9683 17.4383 19.1917 19.2059C17.415 20.9735 14.9007 22 11.949 22C11.4206 22 10.984 21.5657 10.984 21.0399C10.984 20.5142 11.4206 20.0799 11.949 20.0799C14.3467 20.0799 16.3751 19.2472 17.8041 17.8254C19.2331 16.4037 20.0701 14.3856 20.0701 12C20.0701 9.61445 19.2331 7.59634 17.8041 6.17457C16.3751 4.75281 14.3467 3.92011 11.949 3.92011C11.4206 3.92011 10.984 3.48576 10.984 2.96005C10.984 2.43435 11.4206 2 11.949 2Z" fill="#141414"/>
</svg>
