<svg width="24" height="24" viewBox="0 0 24 24" fill="none" xmlns="http://www.w3.org/2000/svg">
<path d="M16.8074 2H14.2061C11.0045 2 9.00349 4 9.00349 7.2V11.25H13.4457L11.3747 9.18C11.2246 9.03 11.1546 8.84 11.1546 8.65C11.1546 8.46 11.2246 8.27 11.3747 8.12C11.6648 7.83 12.1451 7.83 12.4352 8.12L15.7869 11.47C16.077 11.76 16.077 12.24 15.7869 12.53L12.4352 15.88C12.1451 16.17 11.6648 16.17 11.3747 15.88C11.0845 15.59 11.0845 15.11 11.3747 14.82L13.4457 12.75H9.00349V16.8C9.00349 20 11.0045 22 14.2061 22H16.7974C19.999 22 22 20 22 16.8V7.2C22.01 4 20.009 2 16.8074 2Z" fill="#141414"/>
<path d="M2.75037 11.25C2.34017 11.25 2 11.59 2 12C2 12.41 2.34017 12.75 2.75037 12.75H9.00349V11.25H2.75037Z" fill="#141414"/>
</svg>
