<svg width="24" height="24" viewBox="0 0 24 24" fill="none" xmlns="http://www.w3.org/2000/svg">
<path d="M16.8067 2H14.2051C11.0031 2 9.00186 4 9.00186 7.2V11.25H15.2558C15.666 11.25 16.0062 11.59 16.0062 12C16.0062 12.41 15.666 12.75 15.2558 12.75H9.00186V16.8C9.00186 20 11.0031 22 14.2051 22H16.7967C19.9987 22 22 20 22 16.8V7.2C22.01 4 20.0087 2 16.8067 2Z" fill="#141414"/>
<path d="M4.55909 11.25L6.63038 9.18C6.78048 9.03 6.85052 8.84 6.85052 8.65C6.85052 8.46 6.78048 8.26 6.63038 8.12C6.3402 7.83 5.85991 7.83 5.56972 8.12L2.21764 11.47C1.92745 11.76 1.92745 12.24 2.21764 12.53L5.56972 15.88C5.85991 16.17 6.3402 16.17 6.63038 15.88C6.92057 15.59 6.92057 15.11 6.63038 14.82L4.55909 12.75H9.00186V11.25H4.55909Z" fill="#141414"/>
</svg>
