<svg width="24" height="24" viewBox="0 0 24 24" fill="none" xmlns="http://www.w3.org/2000/svg">
<path fill-rule="evenodd" clip-rule="evenodd" d="M16.1973 2C19.8388 2.00008 22.0098 4.16989 22 7.80957V16.1904C21.9998 19.83 19.8289 21.9998 16.1875 22H7.8125C4.17092 21.9998 2 19.8296 2 16.1797V7.80957C2.00017 4.16996 4.17107 2.00016 7.8125 2H16.1973ZM13.7959 7.94043C13.5058 7.65043 13.0255 7.65043 12.7354 7.94043L9.20312 11.4697C8.91311 11.7597 8.91311 12.2403 9.20312 12.5303L12.7354 16.0596C12.8854 16.2096 13.0755 16.2803 13.2656 16.2803C13.4557 16.2803 13.6458 16.2096 13.7959 16.0596C14.0858 15.7696 14.086 15.2899 13.7959 15L10.7939 12L13.7959 9C14.086 8.71007 14.0858 8.23045 13.7959 7.94043Z" fill="#141414"/>
</svg>
