<svg width="24" height="24" viewBox="0 0 24 24" fill="none" xmlns="http://www.w3.org/2000/svg">
<path d="M18.3993 2.89906C18.7283 2.57024 19.2714 2.5703 19.6004 2.89906C19.9295 3.22811 19.9295 3.77215 19.6004 4.10121L5.60045 18.1012C5.43076 18.2707 5.21481 18.3502 4.99986 18.3502C4.7849 18.3502 4.56896 18.2708 4.39927 18.1012C4.07022 17.7722 4.07022 17.2281 4.39927 16.8991L18.3993 2.89906Z" fill="#141414"/>
<path d="M5 6.38041C5.46523 6.38041 5.84961 6.76479 5.84961 7.23002V16.6499H15.2695C15.7346 16.6499 16.1199 17.0345 16.1201 17.4995C16.1201 17.9648 15.7348 18.3501 15.2695 18.3501L4.99986 18.3502C4.53463 18.3502 4.15039 17.9648 4.15039 17.4995V7.23002C4.15039 6.76479 4.53477 6.38041 5 6.38041Z" fill="#141414"/>
<path d="M20.5 21.1504C20.9652 21.1504 21.3496 21.5348 21.3496 22C21.3496 22.4653 20.9652 22.8496 20.5 22.8496H3.5C3.03477 22.8496 2.65039 22.4653 2.65039 22C2.65039 21.5348 3.03477 21.1504 3.5 21.1504H20.5Z" fill="#141414"/>
</svg>
