<svg width="24" height="24" viewBox="0 0 24 24" fill="none" xmlns="http://www.w3.org/2000/svg">
<path d="M6.62599 2.22733C6.92771 1.92427 7.42574 1.92417 7.72739 2.22733C8.02904 2.53057 8.02889 3.0312 7.72739 3.33453L6.16036 4.9107H16.9693C18.9179 4.9107 20.4999 6.50023 20.5 8.45912V11.5196C20.4999 11.9484 20.1466 12.3028 19.7201 12.3028C19.2936 12.3027 18.9411 11.9484 18.941 11.5196V8.45912C18.941 7.36711 18.0556 6.47787 16.9693 6.47787H6.16036L7.72739 8.05315C8.02902 8.35644 8.02901 8.85705 7.72739 9.16034C7.57179 9.31676 7.37387 9.38984 7.17669 9.38988C6.9795 9.38988 6.78163 9.31675 6.62599 9.16034L3.72834 6.24743C3.65456 6.17324 3.60278 6.08961 3.56268 5.99899C3.52045 5.90348 3.5 5.79804 3.5 5.69384C3.50002 5.58977 3.52055 5.48498 3.56268 5.38958C3.60281 5.29883 3.65445 5.21452 3.72834 5.14024L6.62599 2.22733Z" fill="#141414"/>
<path d="M4.27904 11.695C4.70562 11.695 5.05807 12.0493 5.05807 12.4781V15.5387C5.05823 16.6306 5.94358 17.5199 7.02984 17.5199H17.8387L16.2717 15.9446C15.9701 15.6414 15.9702 15.1408 16.2717 14.8375C16.5734 14.5342 17.0714 14.5342 17.3731 14.8375L20.2708 17.7504C20.3446 17.8246 20.3963 17.9082 20.4364 17.9988C20.4787 18.0943 20.5 18.1998 20.5 18.304C20.5 18.408 20.4786 18.5128 20.4364 18.6082C20.3963 18.699 20.3447 18.7833 20.2708 18.8576L17.3731 21.7705C17.2175 21.9267 17.0195 22 16.8224 22C16.6253 21.9999 16.4273 21.9268 16.2717 21.7705C15.97 21.4672 15.97 20.9657 16.2717 20.6624L17.8387 19.0871H7.02984C5.08124 19.0871 3.50016 17.4975 3.5 15.5387V12.4781C3.5 12.0493 3.85245 11.695 4.27904 11.695Z" fill="#141414"/>
</svg>
