<svg width="24" height="24" viewBox="0 0 24 24" fill="none" xmlns="http://www.w3.org/2000/svg">
<path d="M18.16 2.24418C18.4767 1.91858 18.9995 1.91863 19.3162 2.24418C19.633 2.57002 19.633 3.10876 19.3162 3.4346L5.83974 17.2979C5.6764 17.4658 5.46853 17.5445 5.26162 17.5445C5.0547 17.5445 4.84683 17.4658 4.68349 17.2979C4.36674 16.9721 4.36674 16.4333 4.68349 16.1075L18.16 2.24418Z" fill="#141414"/>
<path d="M5.26175 5.69155C5.70958 5.69155 6.07959 6.07217 6.07959 6.53286V15.8608H15.1473C15.595 15.8608 15.9658 16.2417 15.9661 16.7021C15.9661 17.1628 15.5951 17.5444 15.1473 17.5444L5.26162 17.5445C4.81378 17.5445 4.44391 17.1628 4.44391 16.7021V6.53286C4.44391 6.07217 4.81392 5.69155 5.26175 5.69155Z" fill="#141414"/>
<path d="M20.1822 20.3174C20.63 20.3174 21 20.698 21 21.1587C21 21.6194 20.63 22 20.1822 22H3.81784C3.37001 22 3 21.6194 3 21.1587C3 20.698 3.37001 20.3174 3.81784 20.3174H20.1822Z" fill="#141414"/>
</svg>
