<svg width="24" height="24" viewBox="0 0 24 24" fill="none" xmlns="http://www.w3.org/2000/svg">
<path d="M22.0996 12C22.0996 17.5752 17.5752 22.0996 12 22.0996C9.20528 22.0996 6.95992 20.6925 5.41797 19.2939C4.64642 18.5941 4.04842 17.8948 3.64355 17.3701C3.45788 17.1295 3.31295 16.925 3.20996 16.7744V21.54H3.00977V16.3398H7.73047V16.54H3.29395C3.3103 16.5648 3.32824 16.5929 3.34863 16.623C3.45053 16.7735 3.60217 16.9894 3.80176 17.248C4.20118 17.7657 4.79115 18.4556 5.55176 19.1455C7.07481 20.5269 9.27473 21.9004 12 21.9004C17.4648 21.9004 21.9004 17.4648 21.9004 12V11.9004H22.0996V12ZM12 1.90039C15.3647 1.90039 17.8867 3.30271 19.5654 4.70312C20.4046 5.40319 21.0334 6.10358 21.4531 6.62891C21.6466 6.87109 21.7958 7.07642 21.9004 7.22754V2.45996H22.0996V7.66016H17.46V7.45996H21.8164C21.8001 7.43542 21.7822 7.4078 21.7617 7.37793C21.6589 7.22772 21.5034 7.01242 21.2969 6.75391C20.8838 6.23677 20.2644 5.54625 19.4375 4.85645C17.7837 3.47686 15.3053 2.09961 12 2.09961C6.49549 2.09961 2.09961 6.53497 2.09961 12V12.0996H1.90039V12C1.90039 6.42503 6.38451 1.90039 12 1.90039Z" stroke="#141414" stroke-width="1.5" stroke-linecap="round" stroke-linejoin="round"/>
</svg>
