<svg width="24" height="24" viewBox="0 0 24 24" fill="none" xmlns="http://www.w3.org/2000/svg">
<path d="M12 1.15039C17.9852 1.15039 22.8496 6.01477 22.8496 12C22.8496 16.9252 19.5297 21.2454 14.7656 22.4971L14.7568 22.499C14.6965 22.5091 14.6188 22.5195 14.5498 22.5195C14.177 22.5194 13.8261 22.2719 13.7236 21.8867L13.7051 21.8008C13.6339 21.3743 13.9013 20.9599 14.334 20.8438C18.3497 19.7853 21.1503 16.1447 21.1504 11.9902C21.1504 6.94546 17.0448 2.83984 12 2.83984C7.86483 2.83984 5.10074 5.17069 3.72363 6.7002H6.44043C6.9054 6.70043 7.28993 7.08481 7.29004 7.5498C7.29004 8.01229 6.91802 8.40992 6.44043 8.41016H2.00977C1.95135 8.41013 1.85212 8.39874 1.77246 8.37598L1.76855 8.375C1.67006 8.34217 1.58085 8.29757 1.50195 8.24121C1.39908 8.17185 1.31915 8.08013 1.2627 7.97852C1.20752 7.87921 1.16192 7.75572 1.15039 7.62891L1.14941 7.62012L1.15039 3C1.15039 2.53477 1.53477 2.15039 2 2.15039C2.46523 2.15039 2.84961 2.53477 2.84961 3V5.14258C4.52979 3.40169 7.5671 1.15039 12 1.15039Z" fill="#141414"/>
<path d="M7.57715 21.0137C7.74756 20.582 8.2555 20.3673 8.67578 20.5264L8.67676 20.5273C9.53695 20.8635 10.4372 21.0606 11.3477 21.1299C11.7932 21.1536 12.1396 21.5407 12.1396 21.9902V22.002L12.1367 22.0146L12.1279 22.0479C12.0987 22.4855 11.7284 22.8301 11.29 22.8301C11.265 22.8301 11.2431 22.8241 11.2334 22.8213C11.2264 22.8193 11.2258 22.8189 11.2236 22.8184C10.1366 22.7469 9.06972 22.5057 8.06348 22.1133C7.73651 21.9886 7.51037 21.6622 7.52051 21.3096C7.52057 21.2054 7.54291 21.1034 7.57617 21.0146L7.57715 21.0137ZM11.2266 22.8193C11.2277 22.8195 11.2302 22.8191 11.2334 22.8193C11.2301 22.8191 11.2269 22.8186 11.2236 22.8184C11.2236 22.8184 11.2249 22.819 11.2266 22.8193ZM3.33496 16.9033C3.70505 16.6999 4.19646 16.8107 4.44141 17.1514L4.45996 17.1777V17.1875L4.46094 17.1895L4.4668 17.1953L4.47266 17.2031C4.98689 17.9448 5.6096 18.6074 6.31152 19.1611L6.31348 19.1631C6.50445 19.3204 6.62988 19.5579 6.62988 19.8203C6.62982 20.0096 6.5737 20.2016 6.44824 20.3613L6.44727 20.3643C6.27884 20.5664 6.04064 20.6796 5.78027 20.6797C5.58596 20.6797 5.40585 20.6109 5.25195 20.501L5.24707 20.498C4.4 19.8123 3.6537 19.0146 3.04785 18.126C2.94836 17.9823 2.88974 17.8238 2.88965 17.6504C2.88965 17.3684 3.02551 17.1073 3.2627 16.9482L3.33496 16.9033ZM2 11.1504C2.46523 11.1504 2.84961 11.5348 2.84961 12C2.84961 12.8136 2.95585 13.6119 3.16113 14.375L3.25586 14.7002L3.25684 14.7061C3.27843 14.7925 3.29004 14.8706 3.29004 14.96C3.29004 15.3242 3.05071 15.6527 2.68945 15.7656L2.6875 15.7666C2.60846 15.7892 2.52923 15.7998 2.44043 15.7998C2.06824 15.7998 1.73684 15.5628 1.63379 15.208C1.3113 14.1691 1.15039 13.089 1.15039 12V11.9873C1.16182 11.5246 1.53441 11.1504 2 11.1504Z" fill="#141414"/>
</svg>
