<svg width="24" height="24" viewBox="0 0 24 24" fill="none" xmlns="http://www.w3.org/2000/svg">
<path d="M16.1971 2H7.8129C4.17108 2 2 4.17 2 7.81V16.18C2 19.83 4.17108 22 7.8129 22H16.1871C19.8289 22 22 19.83 22 16.19V7.81C22.01 4.17 19.8389 2 16.1971 2ZM12.005 18.01C8.83341 18.01 6.25212 15.43 6.25212 12.26C6.25212 11.12 6.58228 10.01 7.2226 9.07C7.45272 8.72 7.92295 8.63 8.26312 8.86C8.60329 9.09 8.70334 9.56 8.46322 9.9C8.00299 10.6 7.75287 11.42 7.75287 12.26C7.75287 14.6 9.66382 16.51 12.005 16.51C14.3462 16.51 16.2571 14.6 16.2571 12.26C16.2571 9.92 14.3462 8.01 12.005 8.01C11.8149 8.01 11.6348 8.03 11.4447 8.05L12.005 8.46C12.3351 8.7 12.4152 9.17 12.1651 9.51C12.015 9.71 11.7849 9.82 11.5548 9.82C11.4047 9.82 11.2446 9.77 11.1145 9.68L9.17357 8.25C9.17357 8.25 9.16357 8.24 9.15356 8.23C9.14356 8.22 9.13355 8.22 9.12355 8.21C9.09353 8.19 9.08353 8.15 9.05351 8.12C9.0235 8.08 8.99348 8.05 8.96347 8C8.94346 7.96 8.93345 7.91 8.91344 7.87C8.90344 7.82 8.88343 7.78 8.88343 7.73C8.88343 7.68 8.88343 7.64 8.89344 7.59C8.89344 7.54 8.89343 7.5 8.91344 7.45C8.91344 7.4 8.94346 7.36 8.96347 7.31C8.98348 7.28 8.98348 7.24 9.01349 7.2C9.0235 7.2 9.0335 7.19 9.04351 7.18C9.05351 7.17 9.05351 7.16 9.06352 7.15L10.7344 5.24C11.0045 4.93 11.4847 4.89 11.7949 5.17C12.105 5.44 12.135 5.92 11.8649 6.23L11.5848 6.55C11.7248 6.54 11.8649 6.52 12.015 6.52C15.1866 6.52 17.7679 9.1 17.7679 12.27C17.7679 15.44 15.1766 18.01 12.005 18.01Z" fill="#141414"/>
</svg>
