<svg width="24" height="24" viewBox="0 0 24 24" fill="none" xmlns="http://www.w3.org/2000/svg">
<path d="M6.13965 1.3991C6.4687 1.07031 7.01184 1.0702 7.34082 1.3991C7.66979 1.72807 7.66963 2.27119 7.34082 2.60027L5.63184 4.31023H17.4199C19.5451 4.31023 21.2704 6.03468 21.2705 8.15984V11.4802C21.2704 11.9453 20.8851 12.3298 20.4199 12.3298C19.9548 12.3297 19.5704 11.9453 19.5703 11.4802V8.15984C19.5702 6.97514 18.6046 6.01042 17.4199 6.01042H5.63184L7.34082 7.71941C7.66977 8.04844 7.66977 8.59154 7.34082 8.92058C7.17112 9.09028 6.95527 9.16957 6.74023 9.1696C6.52518 9.1696 6.30938 9.09027 6.13965 8.92058L2.97949 5.76042C2.89903 5.67994 2.84256 5.58921 2.79883 5.49089C2.75278 5.38727 2.73047 5.27289 2.73047 5.15984C2.73049 5.04693 2.75288 4.93326 2.79883 4.82976C2.84259 4.7313 2.89891 4.63983 2.97949 4.55925L6.13965 1.3991Z" fill="#141414"/>
<path d="M3.58008 11.6704C4.04531 11.6704 4.42969 12.0548 4.42969 12.52V15.8403C4.42986 17.0249 5.39541 17.9897 6.58008 17.9897H18.3682L16.6592 16.2807C16.3303 15.9518 16.3304 15.4086 16.6592 15.0796C16.9882 14.7505 17.5313 14.7506 17.8604 15.0796L21.0205 18.2397C21.101 18.3202 21.1574 18.4109 21.2012 18.5093C21.2472 18.6129 21.2705 18.7273 21.2705 18.8403C21.2705 18.9532 21.2472 19.0669 21.2012 19.1704C21.1574 19.2689 21.1011 19.3603 21.0205 19.4409L17.8604 22.6011C17.6907 22.7705 17.4747 22.8501 17.2598 22.8501C17.0448 22.85 16.8288 22.7707 16.6592 22.6011C16.3301 22.272 16.3301 21.728 16.6592 21.3989L18.3682 19.6899H6.58008C4.45495 19.6899 2.73064 17.9654 2.73047 15.8403V12.52C2.73047 12.0548 3.11485 11.6704 3.58008 11.6704Z" fill="#141414"/>
</svg>
