<svg width="24" height="24" viewBox="0 0 24 24" fill="none" xmlns="http://www.w3.org/2000/svg">
<path d="M12.0005 2C17.5167 2 22 6.4875 22 12.009C22 16.5527 18.9402 20.5381 14.5494 21.6928L14.5413 21.6946C14.4857 21.7039 14.4141 21.7135 14.3505 21.7135C14.0069 21.7134 13.6835 21.4851 13.589 21.1297L13.5719 21.0505C13.5063 20.657 13.7528 20.2747 14.1516 20.1676C17.8527 19.1911 20.4338 15.8326 20.4339 12C20.4339 7.34609 16.65 3.55856 12.0005 3.55856C8.18927 3.55856 5.64174 5.70881 4.37253 7.11982H6.87647C7.30501 7.12004 7.65941 7.47463 7.65951 7.9036C7.65951 8.33026 7.31664 8.69708 6.87647 8.6973H2.79294C2.73911 8.69727 2.64765 8.68676 2.57423 8.66577L2.57063 8.66487C2.47985 8.63458 2.39763 8.59343 2.32492 8.54144C2.2301 8.47746 2.15644 8.39284 2.10441 8.2991C2.05356 8.20749 2.01153 8.09356 2.0009 7.97658L2 7.96847L2.0009 3.70631C2.0009 3.27712 2.35516 2.92252 2.78394 2.92252C3.21272 2.92252 3.56699 3.27712 3.56699 3.70631V5.68288C5.11552 4.07687 7.91487 2 12.0005 2Z" fill="#141414"/>
<path d="M7.92413 20.3243C8.08118 19.9261 8.54933 19.7281 8.93668 19.8748L8.93758 19.8757C9.73038 20.1857 10.5601 20.3676 11.3992 20.4315C11.8098 20.4534 12.1292 20.8105 12.1292 21.2252V21.236L12.1265 21.2477L12.1184 21.2784C12.0914 21.6821 11.7501 22 11.3461 22C11.3231 22 11.3029 21.9944 11.2939 21.9919C11.2875 21.99 11.287 21.9897 11.2849 21.9892C10.283 21.9232 9.29976 21.7008 8.37235 21.3387C8.071 21.2237 7.86258 20.9226 7.87192 20.5973C7.87198 20.5012 7.89257 20.4071 7.92323 20.3252L7.92413 20.3243ZM11.2876 21.9901C11.2876 21.9901 11.291 21.9899 11.2939 21.9901C11.2909 21.9899 11.2879 21.9894 11.2849 21.9892L11.2876 21.9901ZM4.01431 16.5324C4.35541 16.3448 4.80831 16.4469 5.03407 16.7613L5.05117 16.7856V16.7946L5.05207 16.7964L5.05747 16.8018L5.06287 16.809C5.53682 17.4932 6.11073 18.1045 6.75766 18.6153L6.75946 18.6171C6.93548 18.7622 7.05108 18.9814 7.05108 19.2234C7.05102 19.3981 6.9993 19.5752 6.88367 19.7225L6.88277 19.7252C6.72754 19.9117 6.508 20.0161 6.26803 20.0162C6.08895 20.0162 5.92295 19.9528 5.78111 19.8514L5.77661 19.8486C4.99591 19.2161 4.30807 18.4801 3.7497 17.6604C3.658 17.5278 3.60397 17.3816 3.60389 17.2216C3.60389 16.9615 3.72911 16.7206 3.94771 16.5739L4.01431 16.5324ZM2.78394 11.2252C3.21272 11.2252 3.56699 11.5798 3.56699 12.009C3.56699 12.7596 3.6649 13.4961 3.8541 14.2L3.94141 14.5L3.94231 14.5054C3.96221 14.5852 3.97291 14.6572 3.97291 14.7396C3.97291 15.0757 3.75233 15.3787 3.41938 15.4829L3.41758 15.4838C3.34473 15.5046 3.27171 15.5144 3.18987 15.5144C2.84684 15.5144 2.5414 15.2958 2.44642 14.9685C2.1492 14.01 2.0009 13.0136 2.0009 12.009V11.9973C2.01143 11.5704 2.35483 11.2252 2.78394 11.2252Z" fill="#141414"/>
</svg>
