<svg width="24" height="24" viewBox="0 0 24 24" fill="none" xmlns="http://www.w3.org/2000/svg">
<path d="M12 3.80042C13.0794 3.80042 14.1295 3.95116 15.1396 4.26428C15.5938 4.40052 15.8415 4.87713 15.7061 5.32874C15.5698 5.78279 15.0931 6.03139 14.6416 5.89612C13.8009 5.63896 12.9098 5.49963 12 5.49963C7.68529 5.49968 4.17973 9.00524 4.17969 13.3199C4.17969 17.6347 7.68526 21.1402 12 21.1403C16.3148 21.1403 19.8203 17.6347 19.8203 13.3199C19.8203 11.7596 19.3657 10.2586 18.5068 8.97522C18.2622 8.61342 18.3368 8.12307 18.6738 7.84827L18.7451 7.79651C19.131 7.53633 19.6633 7.63848 19.9238 8.03479C20.9748 9.60123 21.5302 11.4302 21.5303 13.3297C21.5199 18.5745 17.2552 22.8502 12 22.8502C6.74474 22.8502 2.48047 18.5748 2.48047 13.3297C2.48064 8.08486 6.74471 3.80046 12 3.80042Z" fill="#141414"/>
<path d="M12.7331 1.42278C13.047 1.14931 13.5336 1.17923 13.8073 1.49309L16.6979 4.8134C16.9714 5.12751 16.9408 5.61397 16.6266 5.88762C16.4945 6.01937 16.3123 6.07991 16.1305 6.08C15.9177 6.08 15.7043 5.9885 15.5524 5.81633L12.6628 2.49699C12.3893 2.18302 12.4192 1.69652 12.7331 1.42278Z" fill="#141414"/>
<path d="M15.6746 4.70153C16.0092 4.44862 16.4851 4.52993 16.738 4.86364C16.9758 5.1775 16.919 5.61622 16.6355 5.87829L16.5759 5.92809L13.2058 8.39782C13.0738 8.49937 12.9212 8.5404 12.7595 8.5404C12.5556 8.54026 12.3523 8.45419 12.2029 8.29724L12.1423 8.22595C11.8991 7.89149 11.9702 7.41572 12.3044 7.16247L15.6746 4.70153Z" fill="#141414"/>
</svg>
