<svg width="24" height="24" viewBox="0 0 24 24" fill="none" xmlns="http://www.w3.org/2000/svg">
<path d="M11.9949 4.37283C13.0148 4.37283 14.0071 4.51232 14.9616 4.80206C15.3907 4.92813 15.6247 5.36914 15.4967 5.78702C15.368 6.20717 14.9176 6.4372 14.491 6.31203C13.6966 6.07408 12.8546 5.94516 11.9949 5.94516C7.91799 5.94519 4.60562 9.18896 4.60558 13.1814C4.60558 17.174 7.91797 20.4177 11.9949 20.4177C16.0719 20.4177 19.3843 17.174 19.3843 13.1814C19.3843 11.7376 18.9547 10.3487 18.1432 9.16118C17.912 8.82641 17.9825 8.37267 18.301 8.11839L18.3683 8.0705C18.7329 7.82975 19.2359 7.92427 19.4821 8.29099C20.4751 9.74044 20.9999 11.4328 21 13.1905C20.9902 18.0436 16.9605 22 11.9949 22C7.02927 22 3 18.0439 3 13.1905C3.00016 8.33732 7.02924 4.37287 11.9949 4.37283Z" fill="#141414"/>
<path d="M12.6876 2.17275C12.9842 1.91971 13.4439 1.94739 13.7026 2.23781L16.4339 5.31016C16.6923 5.60082 16.6634 6.05095 16.3666 6.30416C16.2418 6.42607 16.0695 6.48209 15.8978 6.48217C15.6967 6.48217 15.4951 6.39751 15.3515 6.23819L12.6211 3.16675C12.3627 2.87622 12.391 2.42605 12.6876 2.17275Z" fill="#141414"/>
<path d="M15.4671 5.20662C15.7832 4.9726 16.2329 5.04783 16.4719 5.35663C16.6966 5.64705 16.6429 6.053 16.375 6.2955L16.3187 6.34159L13.1344 8.62687C13.0096 8.72084 12.8654 8.75881 12.7127 8.75881C12.52 8.75868 12.3279 8.67903 12.1867 8.5338L12.1295 8.46784C11.8996 8.15836 11.9668 7.71812 12.2827 7.48378L15.4671 5.20662Z" fill="#141414"/>
</svg>
