<svg width="24" height="24" viewBox="0 0 24 24" fill="none" xmlns="http://www.w3.org/2000/svg">
<path d="M11.9995 4.35867C16.9677 4.35867 21 8.31501 21 13.1698C21 18.0245 16.968 22 11.9995 22C7.03147 22 3.00022 18.0435 3 13.1888C3 11.4396 3.5252 9.74605 4.51869 8.287C4.76416 7.93187 5.26667 7.82495 5.63302 8.06735C5.97322 8.29267 6.0907 8.73914 5.89983 9.08966L5.85736 9.15835C5.04562 10.3461 4.61661 11.744 4.61656 13.1789C4.61656 17.1725 7.92982 20.4171 12.0088 20.4173C16.0879 20.4173 19.4019 17.1726 19.4019 13.1789C19.4017 9.18546 16.0787 5.94139 11.9995 5.94139C11.1387 5.9414 10.2973 6.0606 9.50315 6.29843C9.07633 6.42355 8.62468 6.19349 8.49592 5.77327C8.36791 5.35529 8.60301 4.91413 9.03231 4.78802C9.98616 4.50785 10.9785 4.35868 11.9995 4.35867Z" fill="#141414"/>
<path d="M10.2818 2.24172C10.5404 1.95131 11.0003 1.91396 11.2973 2.17664C11.5943 2.42991 11.6223 2.87929 11.3638 3.17002L8.63198 6.23423C8.4885 6.39344 8.2873 6.47817 8.09559 6.47828C7.93277 6.47828 7.75985 6.42184 7.62568 6.30925C7.31934 6.04682 7.29047 5.6058 7.54905 5.31497L10.2818 2.24172Z" fill="#141414"/>
<path d="M7.51051 5.36147C7.74059 5.0425 8.19138 4.97747 8.51682 5.20238L11.7029 7.47929C12.0189 7.70445 12.0956 8.14571 11.8561 8.46454L11.8552 8.46364C11.7208 8.66071 11.5009 8.75469 11.2809 8.75469C11.1731 8.75466 11.0601 8.72843 10.9578 8.67967L10.86 8.62363L7.66377 6.33767C7.34759 6.11244 7.28064 5.67093 7.51051 5.36147Z" fill="#141414"/>
</svg>
