<svg width="24" height="24" viewBox="0 0 24 24" fill="none" xmlns="http://www.w3.org/2000/svg">
<path d="M16.1971 2H7.8129C4.17108 2 2 4.17 2 7.81V16.18C2 19.83 4.17108 22 7.8129 22H16.1871C19.8289 22 22 19.83 22 16.19V7.81C22.01 4.17 19.8389 2 16.1971 2ZM12.005 18.01C8.83341 18.01 6.25212 15.43 6.25212 12.26C6.25212 9.09 8.83341 6.51 12.005 6.51C12.1451 6.51 12.2951 6.53 12.4352 6.54L12.1551 6.22C11.8849 5.91 11.9149 5.43 12.2251 5.16C12.5352 4.89 13.0155 4.92 13.2856 5.23L14.9565 7.14C14.9665 7.15 14.9665 7.16 14.9765 7.17C14.9865 7.18 14.9965 7.18 14.9965 7.19C15.0165 7.22 15.0265 7.26 15.0465 7.3C15.0665 7.35 15.0965 7.39 15.1065 7.44C15.1165 7.49 15.1165 7.53 15.1265 7.58C15.1265 7.63 15.1365 7.67 15.1365 7.72C15.1365 7.77 15.1165 7.81 15.0965 7.86C15.0765 7.91 15.0665 7.96 15.0465 8C15.0265 8.04 14.9865 8.08 14.9565 8.12C14.9264 8.15 14.9164 8.19 14.8864 8.21C14.8764 8.22 14.8664 8.22 14.8564 8.23C14.8464 8.24 14.8464 8.25 14.8364 8.25L12.8954 9.67C12.7654 9.77 12.6053 9.81 12.4552 9.81C12.2251 9.81 11.995 9.7 11.8449 9.5C11.6048 9.17 11.6748 8.7 12.005 8.45L12.5653 8.04C12.3752 8.03 12.1951 8.01 12.005 8.01C9.66382 8.01 7.75287 9.92 7.75287 12.26C7.75287 14.6 9.66382 16.51 12.005 16.51C14.3462 16.51 16.2571 14.6 16.2571 12.26C16.2571 11.41 16.007 10.6 15.5468 9.9C15.3166 9.56 15.4067 9.09 15.7569 8.86C16.097 8.63 16.5673 8.72 16.7974 9.07C17.4277 10.02 17.7679 11.12 17.7679 12.26C17.7579 15.44 15.1766 18.01 12.005 18.01Z" fill="#141414"/>
</svg>
