<svg width="24" height="24" viewBox="0 0 24 24" fill="none" xmlns="http://www.w3.org/2000/svg">
<path d="M7.28048 2.28139C7.65447 1.90617 8.27179 1.90623 8.64583 2.28139L16.0576 9.71624C16.6584 10.319 17 11.1352 17 11.9981C17 12.8598 16.6695 13.6752 16.0565 14.2789L8.64583 21.7149L8.64361 21.7182C8.45441 21.8954 8.21098 22 7.96315 22C7.71869 22 7.47339 21.9084 7.28048 21.7149C6.90663 21.3396 6.90651 20.7203 7.28048 20.3451L14.6911 12.9102C15.1923 12.4074 15.1923 11.59 14.6911 11.0872L7.28048 3.6512C6.90654 3.27594 6.90648 2.65661 7.28048 2.28139Z" fill="#141414"/>
</svg>
