<svg width="24" height="24" viewBox="0 0 24 24" fill="none" xmlns="http://www.w3.org/2000/svg">
<path d="M12 3.79041C17.2553 3.79041 21.5205 8.06481 21.5205 13.3099C21.5205 18.5548 17.2556 22.85 12 22.85C6.74488 22.8499 2.4807 18.5754 2.48047 13.3304C2.48047 11.4406 3.03602 9.61089 4.08691 8.03455C4.34656 7.65087 4.87811 7.53535 5.26562 7.79724C5.62548 8.04067 5.74975 8.52304 5.54785 8.90173L5.50293 8.97595C4.64428 10.2591 4.19049 11.7695 4.19043 13.3197C4.19043 17.6344 7.69514 21.1398 12.0098 21.14C16.3245 21.14 19.8301 17.6345 19.8301 13.3197C19.8299 9.00524 16.3148 5.50037 12 5.50037C11.0894 5.50037 10.1994 5.62916 9.35938 5.88611C8.90789 6.02128 8.43015 5.77274 8.29395 5.31873C8.15854 4.86715 8.40722 4.39052 8.86133 4.25427C9.87029 3.95158 10.92 3.79041 12 3.79041Z" fill="#141414"/>
<path d="M10.1828 1.50322C10.4564 1.18946 10.9428 1.14911 11.257 1.43291C11.5712 1.70654 11.6008 2.19204 11.3274 2.50615L8.4377 5.8167C8.28593 5.9887 8.07311 6.08025 7.87032 6.08037C7.69809 6.08037 7.51517 6.0194 7.37325 5.89775C7.04922 5.61422 7.01868 5.13775 7.2922 4.82353L10.1828 1.50322Z" fill="#141414"/>
<path d="M7.25148 4.87383C7.49485 4.52922 7.97169 4.45896 8.31593 4.70195L11.686 7.16192C12.0204 7.40517 12.1014 7.88191 11.8482 8.22637L11.8472 8.22539C11.705 8.43831 11.4725 8.53984 11.2398 8.53984C11.1257 8.53981 11.0061 8.51148 10.898 8.45879L10.7944 8.39824L7.41359 5.92852C7.07915 5.68518 7.00832 5.20817 7.25148 4.87383Z" fill="#141414"/>
</svg>
