<svg width="24" height="24" viewBox="0 0 24 24" fill="none" xmlns="http://www.w3.org/2000/svg">
<path d="M16.1971 2H7.8129C4.17108 2 2 4.17 2 7.81V16.18C2 19.83 4.17108 22 7.8129 22H16.1871C19.8289 22 22 19.83 22 16.19V7.81C22.01 4.17 19.8389 2 16.1971 2ZM8.64331 7.15C8.93345 6.86 9.41369 6.86 9.70384 7.15L14.086 11.53V9.1C14.086 8.69 14.4262 8.35 14.8364 8.35C15.2466 8.35 15.5868 8.69 15.5868 9.1V13.34C15.5868 13.44 15.5668 13.53 15.5267 13.63C15.4467 13.81 15.3066 13.96 15.1165 14.04C15.0265 14.08 14.9264 14.1 14.8264 14.1H10.5843C10.1741 14.1 9.8339 13.76 9.8339 13.35C9.8339 12.94 10.1741 12.6 10.5843 12.6H13.0155L8.64331 8.21C8.35317 7.92 8.35317 7.45 8.64331 7.15ZM18.2481 17.22C16.2371 17.89 14.126 18.23 12.005 18.23C9.88393 18.23 7.77288 17.89 5.76187 17.22C5.37168 17.09 5.16158 16.66 5.29164 16.27C5.42171 15.88 5.84191 15.66 6.24211 15.8C9.96397 17.04 14.056 17.04 17.7779 15.8C18.1681 15.67 18.5983 15.88 18.7283 16.27C18.8484 16.67 18.6383 17.09 18.2481 17.22Z" fill="#141414"/>
</svg>
