<svg width="24" height="24" viewBox="0 0 24 24" fill="none" xmlns="http://www.w3.org/2000/svg">
<path d="M19.8701 7.46045C20.3353 7.46045 20.7197 7.84483 20.7197 8.31006C20.7197 8.77529 20.3353 9.15967 19.8701 9.15967H8.87012C6.58535 9.15967 4.71973 11.0253 4.71973 13.3101C4.71973 15.5948 6.58535 17.4604 8.87012 17.4604H16.8701C17.3353 17.4604 17.7197 17.8448 17.7197 18.3101C17.7197 18.7744 17.3462 19.1597 16.8701 19.1597H8.87012C5.64489 19.1597 3.02051 16.5353 3.02051 13.3101C3.02051 10.0848 5.64489 7.46045 8.87012 7.46045H19.8701Z" fill="#141414"/>
<path d="M17.57 11.56C17.38 11.56 17.19 11.49 17.04 11.34C16.75 11.05 16.75 10.57 17.04 10.28L19.07 8.25001L17.04 6.22C16.75 5.93 16.75 5.45 17.04 5.16C17.33 4.87 17.81 4.87 18.1 5.16L20.66 7.72C20.95 8.01 20.95 8.49 20.66 8.78L18.1 11.34C17.95 11.49 17.76 11.56 17.57 11.56Z" fill="#141414"/>
</svg>
