<svg width="24" height="24" viewBox="0 0 24 24" fill="none" xmlns="http://www.w3.org/2000/svg">
<path fill-rule="evenodd" clip-rule="evenodd" d="M16.1973 2C19.8388 2.00008 22.0098 4.16989 22 7.80957V16.1904C21.9998 19.83 19.8289 21.9998 16.1875 22H7.8125C4.17092 21.9998 2 19.8296 2 16.1797V7.80957C2.00017 4.16996 4.17107 2.00016 7.8125 2H16.1973ZM11.2646 7.94043C10.9745 7.65043 10.4942 7.65043 10.2041 7.94043C9.91417 8.23045 9.91403 8.71007 10.2041 9L13.2061 12L10.2041 15C9.91403 15.2899 9.91416 15.7695 10.2041 16.0596C10.3542 16.2096 10.5443 16.2803 10.7344 16.2803C10.9245 16.2803 11.1146 16.2096 11.2646 16.0596L14.7959 12.5303C15.096 12.2403 15.096 11.7597 14.7959 11.4697L11.2646 7.94043Z" fill="#141414"/>
</svg>
