<svg width="24" height="24" viewBox="0 0 24 24" fill="none" xmlns="http://www.w3.org/2000/svg">
<path d="M20.8716 6.83365C21.3927 6.83365 21.8232 7.26623 21.8232 7.7898C21.8232 8.31337 21.3927 8.74595 20.8716 8.74595H8.55158C5.99263 8.74595 3.90313 10.8455 3.90313 13.4168C3.90313 15.9881 5.99263 18.0877 8.55158 18.0877H17.5116C18.0326 18.0877 18.4632 18.5203 18.4632 19.0438C18.4632 19.5664 18.0448 20 17.5116 20H8.55158C4.93931 20 2 17.0465 2 13.4168C2 9.78714 4.93931 6.83365 8.55158 6.83365H20.8716Z" fill="#141414"/>
<path d="M18.2956 11.4474C18.0828 11.4474 17.87 11.3686 17.702 11.1998C17.3772 10.8734 17.3772 10.3332 17.702 10.0068L19.9756 7.72228L17.702 5.4377C17.3772 5.11134 17.3772 4.57114 17.702 4.24478C18.0268 3.91841 18.5644 3.91841 18.8892 4.24478L21.7564 7.12581C22.0812 7.45218 22.0812 7.99237 21.7564 8.31874L18.8892 11.1998C18.7212 11.3686 18.5084 11.4474 18.2956 11.4474Z" fill="#141414"/>
</svg>
