<svg width="24" height="24" viewBox="0 0 24 24" fill="none" xmlns="http://www.w3.org/2000/svg">
<path d="M16.1971 2H7.8129C4.17108 2 2 4.17 2 7.81V16.18C2 19.83 4.17108 22 7.8129 22H16.1871C19.8289 22 22 19.83 22 16.19V7.81C22.01 4.17 19.8389 2 16.1971 2ZM17.5377 9.72L15.967 11.29C15.8169 11.44 15.6268 11.51 15.4367 11.51C15.2466 11.51 15.0565 11.44 14.9064 11.29C14.6163 11 14.6163 10.52 14.9064 10.23L15.1666 9.97H10.084C8.80339 9.97 7.75287 11.01 7.75287 12.3C7.75287 13.59 8.79339 14.63 10.084 14.63H15.0065C15.4167 14.63 15.7569 14.97 15.7569 15.38C15.7569 15.79 15.4167 16.13 15.0065 16.13H10.084C7.97298 16.13 6.25212 14.41 6.25212 12.3C6.25212 10.19 7.97298 8.47 10.084 8.47H15.2366L14.9064 8.15C14.6163 7.86 14.6163 7.38 14.9064 7.09C15.1966 6.8 15.6768 6.8 15.967 7.09L17.5377 8.66C17.8279 8.96 17.8279 9.43 17.5377 9.72Z" fill="#141414"/>
</svg>
