<svg width="24" height="24" viewBox="0 0 24 24" fill="none" xmlns="http://www.w3.org/2000/svg">
<path d="M16.1971 2H7.8129C4.17108 2 2 4.17 2 7.81V16.18C2 19.83 4.17108 22 7.8129 22H16.1871C19.8289 22 22 19.83 22 16.19V7.81C22.01 4.17 19.8389 2 16.1971 2ZM5.25162 11.89C5.28164 10.13 5.98198 8.47 7.2226 7.23C8.50324 5.95 10.2041 5.25 12.005 5.25C13.8059 5.25 15.5067 5.95 16.7774 7.23C16.8074 7.26 16.8374 7.3 16.8674 7.34V6.48C16.8674 6.07 17.2076 5.73 17.6178 5.73C18.028 5.73 18.3682 6.07 18.3682 6.48V9.13C18.3682 9.54 18.028 9.88 17.6178 9.88H14.9665C14.5563 9.88 14.2161 9.54 14.2161 9.13C14.2161 8.72 14.5563 8.38 14.9665 8.38H15.7969C15.7669 8.35 15.7469 8.32 15.7168 8.29C14.7263 7.3 13.4057 6.75 12.005 6.75C10.6043 6.75 9.28363 7.3 8.29314 8.29C7.32265 9.26 6.78238 10.55 6.76237 11.92C6.75237 12.32 6.4122 12.65 6.00199 12.65H5.99199C5.58178 12.65 5.25162 12.3 5.25162 11.89ZM16.7774 16.77C15.5067 18.04 13.8059 18.75 12.005 18.75C10.2041 18.75 8.50324 18.05 7.23261 16.77C7.20259 16.74 7.17258 16.7 7.14256 16.66V17.51C7.14256 17.92 6.80239 18.26 6.39219 18.26C5.98198 18.26 5.64181 17.92 5.64181 17.51V14.86C5.64181 14.45 5.98198 14.11 6.39219 14.11H9.04351C9.45371 14.11 9.79388 14.45 9.79388 14.86C9.79388 15.27 9.45371 15.61 9.04351 15.61H8.2131C8.24311 15.64 8.26312 15.67 8.29314 15.7C9.28363 16.69 10.6043 17.24 12.005 17.24C13.4057 17.24 14.7263 16.69 15.7168 15.7C16.6973 14.72 17.2476 13.41 17.2476 12.01C17.2476 11.6 17.5878 11.26 17.998 11.26C18.4082 11.26 18.7483 11.6 18.7483 12.01C18.7483 13.82 18.048 15.51 16.7774 16.77Z" fill="#141414"/>
</svg>
