<svg width="24" height="24" viewBox="0 0 24 24" fill="none" xmlns="http://www.w3.org/2000/svg">
<path d="M22 12C22 17.5202 17.5202 22 12 22C9.23285 22 7.00962 20.6068 5.48289 19.222C4.71895 18.5291 4.12685 17.8367 3.72597 17.3172C3.54213 17.0789 3.39863 16.8765 3.29665 16.7273V21.4459H3.09843V16.297H7.77258V16.4953H3.37981C3.396 16.5198 3.41377 16.5476 3.43396 16.5775C3.53485 16.7265 3.685 16.9402 3.88261 17.1963C4.2781 17.7088 4.86225 18.3919 5.61535 19.075C7.12339 20.4428 9.30161 21.8027 12 21.8027C17.4109 21.8027 21.8027 17.4109 21.8027 12V11.9014H22V12ZM12 2C15.3315 2 17.8286 3.38849 19.4908 4.77509C20.3217 5.46825 20.9443 6.16173 21.3599 6.68188C21.5515 6.92167 21.6992 7.12498 21.8027 7.27461V2.55405H22V7.70296H17.4061V7.50474H21.7196C21.7034 7.48043 21.6857 7.45309 21.6654 7.42352C21.5636 7.27479 21.4097 7.06162 21.2052 6.80565C20.7961 6.29361 20.1829 5.6099 19.3641 4.9269C17.7267 3.56092 15.2727 2.19725 12 2.19725C6.54978 2.19725 2.19725 6.58887 2.19725 12V12.0986H2V12C2 6.48002 6.43989 2 12 2Z" stroke="#141414" stroke-width="1.5" stroke-linecap="round" stroke-linejoin="round"/>
</svg>
