<svg width="24" height="24" viewBox="0 0 24 24" fill="none" xmlns="http://www.w3.org/2000/svg">
<path d="M16.1971 2H7.8129C4.17108 2 2 4.17 2 7.81V16.18C2 19.83 4.17108 22 7.8129 22H16.1871C19.8289 22 22 19.83 22 16.19V7.81C22.01 4.17 19.8389 2 16.1971 2ZM10.9345 17.15C10.9345 17.25 10.9144 17.34 10.8744 17.44C10.7944 17.62 10.6543 17.77 10.4642 17.85C10.3742 17.89 10.2741 17.91 10.1741 17.91C10.074 17.91 9.98398 17.89 9.88393 17.85C9.79388 17.81 9.71384 17.76 9.64381 17.69L6.60229 14.65C6.31215 14.36 6.31215 13.88 6.60229 13.59C6.89244 13.3 7.37268 13.3 7.66282 13.59L9.4237 15.35V6.85C9.4237 6.44 9.76387 6.1 10.1741 6.1C10.5843 6.1 10.9244 6.44 10.9244 6.85V17.15H10.9345ZM17.3977 10.42C17.2476 10.57 17.0575 10.64 16.8674 10.64C16.6773 10.64 16.4872 10.57 16.3371 10.42L14.5763 8.66V17.16C14.5763 17.57 14.2361 17.91 13.8259 17.91C13.4157 17.91 13.0755 17.57 13.0755 17.16V6.85C13.0755 6.75 13.0955 6.66 13.1355 6.56C13.2156 6.38 13.3557 6.23 13.5458 6.15C13.7258 6.07 13.9359 6.07 14.116 6.15C14.2061 6.19 14.2861 6.24 14.3562 6.31L17.3977 9.35C17.6878 9.65 17.6878 10.12 17.3977 10.42Z" fill="#141414"/>
</svg>
