<svg width="24" height="24" viewBox="0 0 24 24" fill="none" xmlns="http://www.w3.org/2000/svg">
<path d="M20.4486 14.5675C20.8005 14.2145 21.3814 14.2147 21.7333 14.5675C22.0853 14.9206 22.0853 15.5033 21.7333 15.8564L16.373 21.2349C16.195 21.4016 15.9659 21.5 15.7327 21.5C15.5028 21.5 15.2718 21.4147 15.0904 21.2328C14.7384 20.8797 14.7384 20.296 15.0904 19.9429L20.4486 14.5675Z" fill="#141414"/>
<path d="M21.0913 14.2898C21.5889 14.2898 22 14.7022 22 15.2014C22 15.7006 21.5889 16.113 21.0913 16.113H2.90871C2.41112 16.113 2 15.7006 2 15.2014C2 14.7022 2.41112 14.2898 2.90871 14.2898H21.0913Z" fill="#141414"/>
<path d="M7.62455 2.76468C7.97641 2.41169 8.55732 2.41185 8.90928 2.76468C9.26123 3.11775 9.26123 3.70045 8.90928 4.05352L3.55102 9.42997C3.38094 9.6004 3.13966 9.69717 2.90866 9.69717C2.67874 9.69715 2.44778 9.61189 2.26629 9.42997C1.91435 9.0769 1.91435 8.49315 2.26629 8.14008L7.62455 2.76468Z" fill="#141414"/>
<path d="M21.0913 7.87331C21.5889 7.87331 22 8.28575 22 8.78493C22 9.28412 21.5889 9.69655 21.0913 9.69655L2.90866 9.69717C2.41106 9.69717 2 9.28412 2 8.78493C2 8.28575 2.41112 7.87331 2.90871 7.87331H21.0913Z" fill="#141414"/>
</svg>
