<svg width="24" height="24" viewBox="0 0 24 24" fill="none" xmlns="http://www.w3.org/2000/svg">
<path d="M20.5 21.1504C20.9652 21.1504 21.3496 21.5348 21.3496 22C21.3496 22.4652 20.9652 22.8496 20.5 22.8496H3.5C3.03477 22.8496 2.65039 22.4652 2.65039 22C2.65039 21.5348 3.03477 21.1504 3.5 21.1504H20.5Z" fill="#141414"/>
<path d="M4.39927 2.89934C4.7283 2.57031 5.27139 2.57036 5.60045 2.89934L19.6004 16.8993C19.9295 17.2284 19.9295 17.7715 19.6004 18.1005C19.4307 18.2702 19.215 18.3495 18.9999 18.3495C18.7848 18.3495 18.569 18.2702 18.3993 18.1005L4.39927 4.10051C4.0703 3.77145 4.07025 3.22836 4.39927 2.89934Z" fill="#141414"/>
<path d="M15.2695 2.65039C15.7348 2.65039 16.1201 3.03477 16.1201 3.5C16.1201 3.96523 15.7348 4.34961 15.2695 4.34961H5.84961V13.7695C5.84961 14.2348 5.46523 14.6201 5 14.6201C4.53477 14.6201 4.15039 14.2348 4.15039 13.7695V3.5C4.15039 3.03477 4.53477 2.65039 5 2.65039H15.2695Z" fill="#141414"/>
</svg>
