<svg width="24" height="24" viewBox="0 0 24 24" fill="none" xmlns="http://www.w3.org/2000/svg">
<path d="M16.1971 2H7.8129C4.17108 2 2 4.17 2 7.81V16.18C2 19.83 4.17108 22 7.8129 22H16.1871C19.8289 22 22 19.83 22 16.19V7.81C22.01 4.17 19.8389 2 16.1971 2ZM17.8579 14.1C17.8179 14.19 17.7679 14.27 17.6978 14.34L14.6563 17.38C14.5062 17.53 14.3161 17.6 14.126 17.6C13.9359 17.6 13.7459 17.53 13.5958 17.38C13.3056 17.09 13.3056 16.61 13.5958 16.32L15.3567 14.56H6.85242C6.44221 14.56 6.10204 14.22 6.10204 13.81C6.10204 13.4 6.44221 13.06 6.85242 13.06H17.1676C17.2676 13.06 17.3577 13.08 17.4577 13.12C17.6378 13.2 17.7879 13.34 17.8679 13.53C17.9279 13.71 17.9279 13.92 17.8579 14.1ZM17.1576 10.93H6.85242C6.75237 10.93 6.66232 10.91 6.56227 10.87C6.38218 10.79 6.23211 10.65 6.15207 10.46C6.07203 10.28 6.07203 10.07 6.15207 9.89C6.19209 9.8 6.24211 9.72 6.31215 9.65L9.35366 6.61C9.64381 6.32 10.124 6.32 10.4142 6.61C10.7043 6.9 10.7043 7.38 10.4142 7.67L8.66332 9.43H17.1676C17.5778 9.43 17.9179 9.77 17.9179 10.18C17.9179 10.59 17.5778 10.93 17.1576 10.93Z" fill="#141414"/>
</svg>
