<svg width="24" height="24" viewBox="0 0 24 24" fill="none" xmlns="http://www.w3.org/2000/svg">
<path d="M2.7648 15.0899C3.11791 14.738 3.70073 14.738 4.05387 15.0899L9.43023 20.4479C9.78336 20.7999 9.78336 21.3807 9.43023 21.7326L9.42813 21.7358C9.24951 21.9019 9.01968 22 8.78569 22C8.55498 21.9999 8.32323 21.9141 8.14116 21.7326L2.7648 16.3745C2.41176 16.0226 2.4117 15.4418 2.7648 15.0899Z" fill="#141414"/>
<path d="M8.78603 2C9.2853 2 9.69781 2.41111 9.69781 2.90868V21.0906C9.69781 21.5882 9.28497 22 8.78569 22C8.28642 22 7.87425 21.5882 7.87425 21.0906V2.90868C7.87425 2.41111 8.28676 2 8.78603 2Z" fill="#141414"/>
<path d="M14.5697 2.26625C14.9228 1.91435 15.5057 1.91441 15.8588 2.26625L21.2352 7.62432C21.5883 7.97625 21.5883 8.55708 21.2352 8.90901C21.053 9.09055 20.8214 9.17639 20.5906 9.17639C20.3599 9.17631 20.1282 9.09046 19.9461 8.90901L14.5697 3.55093C14.2167 3.199 14.2166 2.61815 14.5697 2.26625Z" fill="#141414"/>
<path d="M15.2036 2C15.7029 2 16.1154 2.41111 16.1154 2.90868V21.0906C16.1154 21.5873 15.7146 21.9993 15.2036 21.9993C14.7043 21.9993 14.2918 21.5882 14.2918 21.0906V2.90868C14.2918 2.41111 14.7043 2 15.2036 2Z" fill="#141414"/>
</svg>
