<svg width="24" height="24" viewBox="0 0 24 24" fill="none" xmlns="http://www.w3.org/2000/svg">
<path d="M16.1971 2H7.8129C4.17108 2 2 4.17 2 7.81V16.18C2 19.83 4.17108 22 7.8129 22H16.1871C19.8289 22 22 19.83 22 16.19V7.81C22.01 4.17 19.8389 2 16.1971 2ZM8.64331 12.81L13.0255 8.43H10.5943C10.1841 8.43 9.84391 8.09 9.84391 7.68C9.84391 7.27 10.1841 6.93 10.5943 6.93H14.8364C14.9364 6.93 15.0265 6.95 15.1265 6.99C15.3066 7.07 15.4567 7.21 15.5367 7.4C15.5768 7.49 15.5968 7.59 15.5968 7.69V11.93C15.5968 12.34 15.2566 12.68 14.8464 12.68C14.4362 12.68 14.096 12.34 14.096 11.93V9.5L9.70384 13.87C9.55376 14.02 9.36367 14.09 9.17357 14.09C8.98348 14.09 8.79339 14.02 8.64331 13.87C8.35317 13.58 8.35317 13.1 8.64331 12.81ZM18.2481 17.22C16.2371 17.89 14.126 18.23 12.005 18.23C9.88393 18.23 7.77288 17.89 5.76187 17.22C5.37168 17.09 5.16158 16.66 5.29164 16.27C5.42171 15.88 5.84191 15.66 6.24211 15.8C9.96397 17.04 14.056 17.04 17.7779 15.8C18.1681 15.67 18.5983 15.88 18.7283 16.27C18.8484 16.67 18.6383 17.09 18.2481 17.22Z" fill="#141414"/>
</svg>
