<svg width="24" height="24" viewBox="0 0 24 24" fill="none" xmlns="http://www.w3.org/2000/svg">
<path d="M3.81784 20.3175C3.37001 20.3175 3 20.6981 3 21.1588C3 21.6194 3.37001 22 3.81784 22H20.1822C20.63 22 21 21.6194 21 21.1588C21 20.6981 20.63 20.3175 20.1822 20.3175H3.81784Z" fill="#141414"/>
<path d="M19.3165 2.24649C18.9998 1.92071 18.477 1.92076 18.1603 2.24649L4.68376 16.1084C4.36701 16.4342 4.36701 16.9719 4.68376 17.2977C4.84715 17.4658 5.05484 17.5443 5.26188 17.5443C5.46891 17.5443 5.67664 17.4658 5.84001 17.2977L19.3165 3.43581C19.6332 3.11 19.6332 2.57227 19.3165 2.24649Z" fill="#141414"/>
<path d="M8.85273 2C8.40489 2 8.03395 2.38059 8.03395 2.84123C8.03395 3.30187 8.40489 3.68246 8.85273 3.68246H17.9204V13.0095C17.9204 13.4701 18.2904 13.8517 18.7382 13.8517C19.1861 13.8517 19.5561 13.4701 19.5561 13.0095V2.84123C19.5561 2.38059 19.1861 2 18.7382 2H8.85273Z" fill="#141414"/>
</svg>
