<svg width="24" height="24" viewBox="0 0 24 24" fill="none" xmlns="http://www.w3.org/2000/svg">
<path d="M15.1299 7.46045C18.3551 7.46045 20.9795 10.0848 20.9795 13.3101C20.9795 16.5353 18.3551 19.1597 15.1299 19.1597H7.12988C6.66465 19.1597 6.28027 18.7753 6.28027 18.3101C6.28027 17.8448 6.66465 17.4604 7.12988 17.4604H15.1299C17.4147 17.4604 19.2803 15.5948 19.2803 13.3101C19.2803 11.0253 17.4147 9.15967 15.1299 9.15967H4.12988C3.66465 9.15967 3.28027 8.77529 3.28027 8.31006C3.28027 7.84483 3.66465 7.46045 4.12988 7.46045H15.1299Z" fill="#141414"/>
<path d="M6.43006 11.56C6.24006 11.56 6.05006 11.49 5.90006 11.34L3.34006 8.78C3.05006 8.49 3.05006 8.01 3.34006 7.72L5.90006 5.16C6.19006 4.87 6.67006 4.87 6.96006 5.16C7.25006 5.45 7.25006 5.93 6.96006 6.22L4.93006 8.25001L6.96006 10.28C7.25006 10.57 7.25006 11.05 6.96006 11.34C6.82006 11.49 6.62006 11.56 6.43006 11.56Z" fill="#141414"/>
</svg>
