<svg width="24" height="24" viewBox="0 0 24 24" fill="none" xmlns="http://www.w3.org/2000/svg">
<path d="M16.1971 2H7.8129C4.17108 2 2 4.17 2 7.81V16.18C2 19.83 4.17108 22 7.8129 22H16.1871C19.8289 22 22 19.83 22 16.19V7.81C22.01 4.17 19.8389 2 16.1971 2ZM13.9259 16.13H9.00349C8.59329 16.13 8.25312 15.79 8.25312 15.38C8.25312 14.97 8.59329 14.63 9.00349 14.63H13.9259C15.2066 14.63 16.2571 13.59 16.2571 12.3C16.2571 11.01 15.2166 9.97 13.9259 9.97H8.85342L9.11354 10.23C9.40369 10.53 9.40369 11 9.10354 11.3C8.95346 11.45 8.76337 11.52 8.57328 11.52C8.38318 11.52 8.19309 11.45 8.04301 11.3L6.47223 9.72C6.18208 9.43 6.18208 8.95 6.47223 8.66L8.04301 7.09C8.33316 6.8 8.8134 6.8 9.10354 7.09C9.39368 7.38 9.39368 7.86 9.10354 8.15L8.77338 8.48H13.9259C16.037 8.48 17.7579 10.2 17.7579 12.31C17.7579 14.42 16.037 16.13 13.9259 16.13Z" fill="#141414"/>
</svg>
