<svg width="24" height="24" viewBox="0 0 24 24" fill="none" xmlns="http://www.w3.org/2000/svg">
<path d="M15.4484 6.83365C19.0607 6.83365 22 9.78714 22 13.4168C22 17.0465 19.0607 20 15.4484 20H6.48841C5.96735 20 5.53684 19.5674 5.53684 19.0438C5.53684 18.5203 5.96735 18.0877 6.48841 18.0877H15.4484C18.0074 18.0877 20.0969 15.9881 20.0969 13.4168C20.0969 10.8455 18.0074 8.74595 15.4484 8.74595H3.1284C2.60735 8.74595 2.17684 8.31337 2.17684 7.7898C2.17684 7.26623 2.60735 6.83365 3.1284 6.83365H15.4484Z" fill="#141414"/>
<path d="M5.70441 11.4474C5.49161 11.4474 5.27881 11.3686 5.11081 11.1998L2.2436 8.31874C1.9188 7.99237 1.9188 7.45218 2.2436 7.12581L5.11081 4.24478C5.43561 3.91841 5.97321 3.91841 6.29801 4.24478C6.62281 4.57114 6.62281 5.11134 6.29801 5.4377L4.0244 7.72228L6.29801 10.0068C6.62281 10.3332 6.62281 10.8734 6.29801 11.1998C6.14121 11.3686 5.91721 11.4474 5.70441 11.4474Z" fill="#141414"/>
</svg>
