<svg width="24" height="24" viewBox="0 0 24 24" fill="none" xmlns="http://www.w3.org/2000/svg">
<path d="M10.404 7.35382C10.209 7.35382 10.0139 7.28205 9.85997 7.12821L6.58562 3.85641L3.31128 7.12821C3.01361 7.42564 2.52092 7.42564 2.22325 7.12821C1.92558 6.83077 1.92558 6.33846 2.22325 6.04103L6.04164 2.22561C6.18535 2.08202 6.38034 2 6.58562 2C6.79091 2 6.98597 2.08202 7.12967 2.22561L10.948 6.04103C11.2457 6.33846 11.2457 6.83077 10.948 7.12821C10.794 7.28205 10.599 7.35382 10.404 7.35382Z" fill="#141414"/>
<path d="M6.5854 22C6.16456 22 5.81557 21.6513 5.81557 21.2308V2.76923C5.81557 2.34872 6.16478 2 6.58562 2C7.00647 2 7.35523 2.34872 7.35523 2.76923V21.2308C7.35523 21.6513 7.00624 22 6.5854 22Z" fill="#141414"/>
<path d="M17.4144 22C17.2091 22 17.014 21.9179 16.8703 21.7744L13.052 17.9589C12.7543 17.6615 12.7543 17.1692 13.052 16.8718C13.3497 16.5743 13.8424 16.5743 14.14 16.8718L17.4144 20.1436L20.6887 16.8718C20.9863 16.5743 21.4791 16.5743 21.7767 16.8718C22.0744 17.1692 22.0744 17.6615 21.7767 17.9589L17.9584 21.7744C17.8147 21.9179 17.6094 22 17.4144 22Z" fill="#141414"/>
<path d="M17.4041 22C16.9833 22 16.6343 21.6513 16.6343 21.2308V2.76923C16.6343 2.34872 16.9833 2 17.4041 2C17.825 2 18.174 2.34872 18.174 2.76923V21.2308C18.174 21.6513 17.8352 22 17.4041 22Z" fill="#141414"/>
</svg>
