<svg width="24" height="24" viewBox="0 0 24 24" fill="none" xmlns="http://www.w3.org/2000/svg">
<path d="M16.1973 2C19.8388 2.00008 22.0098 4.16989 22 7.80957V16.1904C21.9998 19.83 19.8289 21.9998 16.1875 22H7.8125C4.17092 21.9998 2 19.8296 2 16.1797V7.80957C2.00017 4.16996 4.17107 2.00016 7.8125 2H16.1973ZM12.5352 9.41016C12.245 9.12016 11.7648 9.12016 11.4746 9.41016L7.94336 12.9404C7.65323 13.2304 7.65322 13.71 7.94336 14C8.23352 14.2898 8.71383 14.2899 9.00391 14L12.0049 11L15.0068 14C15.1569 14.1399 15.3471 14.2197 15.5371 14.2197C15.7271 14.2196 15.9174 14.1499 16.0674 14C16.3572 13.7001 16.3571 13.2304 16.0674 12.9404L12.5352 9.41016Z" fill="#141414"/>
</svg>
