<svg width="24" height="24" viewBox="0 0 24 24" fill="none" xmlns="http://www.w3.org/2000/svg">
<path d="M16.1971 2H7.8129C4.17108 2 2 4.17 2 7.81V16.18C2 19.83 4.17108 22 7.8129 22H16.1871C19.8289 22 22 19.83 22 16.19V7.81C22.01 4.17 19.8389 2 16.1971 2ZM8.47323 8.98L11.4747 5.98C11.5448 5.91 11.6248 5.86 11.7148 5.82C11.8949 5.74 12.105 5.74 12.2851 5.82C12.3752 5.86 12.4552 5.91 12.5252 5.98L15.5267 8.98C15.8169 9.27 15.8169 9.75 15.5267 10.04C15.3767 10.19 15.1866 10.26 14.9965 10.26C14.8064 10.26 14.6163 10.19 14.4662 10.04L12.7454 8.32V14.51C12.7454 14.92 12.4052 15.26 11.995 15.26C11.5848 15.26 11.2446 14.92 11.2446 14.51V8.32L9.52375 10.04C9.2336 10.33 8.75337 10.33 8.46322 10.04C8.17308 9.75 8.18308 9.28 8.47323 8.98ZM18.2481 17.22C16.2371 17.89 14.126 18.23 12.005 18.23C9.88393 18.23 7.77288 17.89 5.76187 17.22C5.37168 17.09 5.16158 16.66 5.29164 16.27C5.42171 15.88 5.85192 15.66 6.24211 15.8C9.96397 17.04 14.056 17.04 17.7779 15.8C18.1681 15.67 18.5983 15.88 18.7283 16.27C18.8484 16.67 18.6383 17.09 18.2481 17.22Z" fill="#141414"/>
</svg>
