<svg width="24" height="24" viewBox="0 0 24 24" fill="none" xmlns="http://www.w3.org/2000/svg">
<path d="M11.1076 20.1058C6.08207 20.1058 2 16.0483 2 11.0529C2 6.05757 6.08207 2 11.1076 2C16.1331 2 20.2152 6.05757 20.2152 11.0529C20.2152 16.0483 16.1331 20.1058 11.1076 20.1058ZM11.1076 3.39276C6.85738 3.39276 3.40117 6.82823 3.40117 11.0529C3.40117 15.2776 6.85738 18.7131 11.1076 18.7131C15.3578 18.7131 18.814 15.2776 18.814 11.0529C18.814 6.82823 15.3578 3.39276 11.1076 3.39276Z" fill="#141414"/>
<path d="M19.6641 22C19.5893 22 19.5146 21.9907 19.4492 21.9814C19.0102 21.9257 18.2162 21.6286 17.7678 20.3008C17.5343 19.6045 17.6184 18.9081 18.0013 18.3788C18.3843 17.8496 19.0289 17.5525 19.7668 17.5525C20.7196 17.5525 21.4669 17.9146 21.8032 18.5552C22.1395 19.1959 22.046 20.013 21.5136 20.8022C20.8504 21.7957 20.1311 22 19.6641 22ZM19.1036 19.8644C19.2624 20.3473 19.4866 20.5887 19.636 20.6072C19.7855 20.6258 20.0657 20.4494 20.3553 20.0316C20.6262 19.6323 20.6449 19.3445 20.5795 19.2145C20.5141 19.0845 20.2525 18.9452 19.7668 18.9452C19.4772 18.9452 19.2624 19.0381 19.141 19.1959C19.0289 19.3538 19.0102 19.5952 19.1036 19.8644Z" fill="#141414"/>
</svg>
