<svg width="24" height="24" viewBox="0 0 24 24" fill="none" xmlns="http://www.w3.org/2000/svg">
<path d="M11.1076 20.1058C6.08205 20.1058 2 16.0483 2 11.0529C2 6.05757 6.08205 2 11.1076 2C11.4905 2 11.8081 2.31569 11.8081 2.69638C11.8081 3.07707 11.4905 3.39276 11.1076 3.39276C6.85736 3.39276 3.40116 6.82823 3.40116 11.0529C3.40116 15.2776 6.85736 18.7131 11.1076 18.7131C15.3577 18.7131 18.8139 15.2776 18.8139 11.0529C18.8139 10.6722 19.1315 10.3565 19.5145 10.3565C19.8975 10.3565 20.2151 10.6722 20.2151 11.0529C20.2151 16.0483 16.1331 20.1058 11.1076 20.1058Z" fill="#141414"/>
<path d="M16.2451 9.69731C15.3858 9.69731 13.3868 8.65738 12.7703 6.74466C12.3499 5.43547 12.8357 3.71773 14.3583 3.22563C15.0121 3.01207 15.694 3.11421 16.2358 3.45775C16.7682 3.11421 17.4688 3.02136 18.1227 3.22563C19.6453 3.71773 20.1404 5.43547 19.7107 6.74466C19.1035 8.69452 17.0018 9.69731 16.2451 9.69731ZM14.106 6.32683C14.5357 7.67317 15.9929 8.28598 16.2545 8.31383C16.5534 8.28598 17.9826 7.59889 18.3749 6.33612C18.5898 5.65831 18.3749 4.78552 17.693 4.56267C17.4034 4.46982 17.0111 4.52553 16.8243 4.7948C16.6935 4.98979 16.488 5.10121 16.2545 5.11049C16.0396 5.11978 15.8061 5.00836 15.6753 4.82266C15.4605 4.51625 15.0682 4.46982 14.7879 4.55339C14.1154 4.77623 13.8912 5.64902 14.106 6.32683Z" fill="#141414"/>
<path d="M19.6641 22C19.5893 22 19.5146 21.9907 19.4492 21.9814C19.0102 21.9257 18.2162 21.6286 17.7678 20.3008C17.5343 19.6045 17.6184 18.9081 18.0014 18.3788C18.3843 17.8496 19.0289 17.5525 19.7668 17.5525C20.7196 17.5525 21.4669 17.9146 21.8032 18.5552C22.1395 19.1959 22.046 20.013 21.5136 20.8022C20.8504 21.7957 20.1311 22 19.6641 22ZM19.1036 19.8644C19.2624 20.3473 19.4866 20.5887 19.636 20.6072C19.7855 20.6258 20.0657 20.4494 20.3553 20.0316C20.6262 19.6323 20.6449 19.3445 20.5795 19.2145C20.5141 19.0845 20.2526 18.9452 19.7668 18.9452C19.4772 18.9452 19.2624 19.0381 19.141 19.1959C19.0289 19.3538 19.0102 19.5952 19.1036 19.8644Z" fill="#141414"/>
</svg>
