<svg width="24" height="24" viewBox="0 0 24 24" fill="none" xmlns="http://www.w3.org/2000/svg">
<path d="M14.0479 12.4186H9.39621C9.01477 12.4186 8.69845 12.1023 8.69845 11.7209C8.69845 11.3395 9.01477 11.0233 9.39621 11.0233H14.0479C14.4294 11.0233 14.7457 11.3395 14.7457 11.7209C14.7457 12.1023 14.4294 12.4186 14.0479 12.4186Z" fill="#141414"/>
<path d="M11.7221 14.7442C11.3406 14.7442 11.0243 14.4279 11.0243 14.0465V9.39535C11.0243 9.01395 11.3406 8.69767 11.7221 8.69767C12.1035 8.69767 12.4198 9.01395 12.4198 9.39535V14.0465C12.4198 14.4279 12.1035 14.7442 11.7221 14.7442Z" fill="#141414"/>
<path d="M11.536 21.0698C6.27957 21.0698 2 16.7907 2 11.5349C2 6.27907 6.27957 2 11.536 2C16.7924 2 21.072 6.27907 21.072 11.5349C21.072 16.7907 16.7924 21.0698 11.536 21.0698ZM11.536 3.39535C7.04245 3.39535 3.39551 7.05116 3.39551 11.5349C3.39551 16.0186 7.04245 19.6744 11.536 19.6744C16.0295 19.6744 19.6765 16.0186 19.6765 11.5349C19.6765 7.05116 16.0295 3.39535 11.536 3.39535Z" fill="#141414"/>
<path d="M21.3046 22C21.1278 22 20.951 21.9349 20.8115 21.7953L18.9508 19.9349C18.681 19.6651 18.681 19.2186 18.9508 18.9488C19.2206 18.6791 19.6672 18.6791 19.937 18.9488L21.7977 20.8093C22.0675 21.0791 22.0675 21.5256 21.7977 21.7953C21.6581 21.9349 21.4813 22 21.3046 22Z" fill="#141414"/>
</svg>
