<svg width="24" height="24" viewBox="0 0 24 24" fill="none" xmlns="http://www.w3.org/2000/svg">
<path d="M19.4439 6.18605H13.8618C13.4804 6.18605 13.1641 5.86977 13.1641 5.48837C13.1641 5.10698 13.4804 4.7907 13.8618 4.7907H19.4439C19.8253 4.7907 20.1416 5.10698 20.1416 5.48837C20.1416 5.86977 19.8253 6.18605 19.4439 6.18605Z" fill="#141414"/>
<path d="M16.6529 8.97674H13.8618C13.4804 8.97674 13.1641 8.66047 13.1641 8.27907C13.1641 7.89767 13.4804 7.5814 13.8618 7.5814H16.6529C17.0343 7.5814 17.3506 7.89767 17.3506 8.27907C17.3506 8.66047 17.0343 8.97674 16.6529 8.97674Z" fill="#141414"/>
<path d="M11.536 21.0698C6.27957 21.0698 2 16.7907 2 11.5349C2 6.27907 6.27957 2 11.536 2C11.9174 2 12.2337 2.31628 12.2337 2.69767C12.2337 3.07907 11.9174 3.39535 11.536 3.39535C7.04245 3.39535 3.39551 7.05116 3.39551 11.5349C3.39551 16.0186 7.04245 19.6744 11.536 19.6744C16.0295 19.6744 19.6765 16.0186 19.6765 11.5349C19.6765 11.1535 19.9928 10.8372 20.3742 10.8372C20.7557 10.8372 21.072 11.1535 21.072 11.5349C21.072 16.7907 16.7924 21.0698 11.536 21.0698Z" fill="#141414"/>
<path d="M21.3046 22C21.1278 22 20.951 21.9349 20.8115 21.7953L18.9508 19.9349C18.681 19.6651 18.681 19.2186 18.9508 18.9488C19.2206 18.6791 19.6672 18.6791 19.937 18.9488L21.7977 20.8093C22.0675 21.0791 22.0675 21.5256 21.7977 21.7953C21.6581 21.9349 21.4813 22 21.3046 22Z" fill="#141414"/>
</svg>
