<svg width="24" height="24" viewBox="0 0 24 24" fill="none" xmlns="http://www.w3.org/2000/svg">
<path d="M11.536 21.0698C6.27957 21.0698 2 16.7907 2 11.5349C2 6.27907 6.27957 2 11.536 2C11.9174 2 12.2337 2.31628 12.2337 2.69767C12.2337 3.07907 11.9174 3.39535 11.536 3.39535C7.04245 3.39535 3.39551 7.05116 3.39551 11.5349C3.39551 16.0186 7.04245 19.6744 11.536 19.6744C16.0295 19.6744 19.6765 16.0186 19.6765 11.5349C19.6765 11.1535 19.9928 10.8372 20.3742 10.8372C20.7557 10.8372 21.072 11.1535 21.072 11.5349C21.072 16.7907 16.7924 21.0698 11.536 21.0698Z" fill="#141414"/>
<path d="M21.3046 22C21.1278 22 20.951 21.9349 20.8115 21.7953L18.9508 19.9349C18.681 19.6651 18.681 19.2186 18.9508 18.9488C19.2206 18.6791 19.6672 18.6791 19.937 18.9488L21.7977 20.8093C22.0675 21.0791 22.0675 21.5256 21.7977 21.7953C21.6581 21.9349 21.4813 22 21.3046 22Z" fill="#141414"/>
<path d="M17.118 9.71163C16.2621 9.71163 14.2712 8.66977 13.6572 6.75349C13.2385 5.44186 13.7223 3.72093 15.2387 3.22791C15.89 3.01395 16.5691 3.11628 17.1087 3.46047C17.639 3.11628 18.3368 3.02326 18.988 3.22791C20.5045 3.72093 20.9976 5.44186 20.5696 6.75349C19.9649 8.70698 17.8716 9.71163 17.118 9.71163ZM14.9876 6.33488C15.4155 7.68372 16.8668 8.29767 17.1273 8.32558C17.425 8.29767 18.8485 7.6093 19.2392 6.34419C19.4532 5.66512 19.2392 4.7907 18.5601 4.56744C18.2717 4.47442 17.8809 4.53023 17.6948 4.8C17.5646 4.99535 17.3599 5.10698 17.1273 5.11628C16.9227 5.12558 16.6808 5.01395 16.5505 4.82791C16.3366 4.52093 15.9458 4.47442 15.6667 4.55814C14.9969 4.7814 14.7736 5.65581 14.9876 6.33488Z" fill="#141414"/>
</svg>
