<svg width="24" height="24" viewBox="0 0 24 24" fill="none" xmlns="http://www.w3.org/2000/svg">
<path d="M17.02 2.71999L13.54 4.45999C12.57 4.93999 11.44 4.93999 10.47 4.45999L6.97997 2.70999C3.99997 1.21999 0.849974 4.43999 2.40997 7.38999L3.22997 8.92999C3.33997 9.13999 3.51997 9.30999 3.73997 9.40999L16.39 15.1C16.91 15.33 17.52 15.12 17.78 14.62L21.59 7.37999C23.14 4.43999 20 1.21999 17.02 2.71999Z" fill="#141414"/>
<path d="M15.6 16.31L7.31997 12.58C6.38997 12.16 5.44997 13.16 5.92997 14.06L8.96997 19.83C10.26 22.28 13.76 22.28 15.05 19.83L16.12 17.79C16.4 17.24 16.16 16.57 15.6 16.31Z" fill="#141414"/>
</svg>
