<svg width="24" height="24" viewBox="0 0 24 24" fill="none" xmlns="http://www.w3.org/2000/svg">
<path d="M17.0199 21.29L13.5399 19.55C12.5699 19.07 11.4399 19.07 10.4699 19.55L6.98991 21.29C3.99991 22.78 0.849913 19.57 2.40991 16.62L3.22991 15.08C3.33991 14.87 3.51991 14.7 3.73991 14.6L16.3799 8.89999C16.8999 8.66999 17.5099 8.87999 17.7699 9.37999L21.5799 16.62C23.1399 19.57 19.9999 22.78 17.0199 21.29Z" fill="#141414"/>
<path d="M15.5999 7.68999L7.31991 11.42C6.38991 11.84 5.44991 10.84 5.92991 9.93999L8.96991 4.16999C10.2599 1.71999 13.7599 1.71999 15.0499 4.16999L16.1199 6.20999C16.3999 6.75999 16.1599 7.43999 15.5999 7.68999Z" fill="#141414"/>
</svg>
