<svg width="24" height="24" viewBox="0 0 24 24" fill="none" xmlns="http://www.w3.org/2000/svg">
<path d="M21.29 17.02L19.55 13.54C19.07 12.57 19.07 11.44 19.55 10.47L21.29 6.99001C22.78 4.00001 19.57 0.860012 16.62 2.42001L15.08 3.24001C14.87 3.35001 14.7 3.53001 14.6 3.75001L8.90002 16.39C8.67002 16.91 8.88002 17.52 9.38002 17.78L16.62 21.59C19.57 23.15 22.78 20 21.29 17.02Z" fill="#141414"/>
<path d="M7.69002 15.6L11.42 7.32001C11.84 6.39001 10.84 5.45001 9.94002 5.93001L4.17002 8.96001C1.72002 10.25 1.72002 13.75 4.17002 15.04L6.21002 16.11C6.76002 16.4 7.43002 16.17 7.69002 15.6Z" fill="#141414"/>
</svg>
