<svg width="24" height="24" viewBox="0 0 24 24" fill="none" xmlns="http://www.w3.org/2000/svg">
<path d="M18.8969 15.0176L14.9419 18.9695C14.7894 19.1218 14.6465 19.417 14.6084 19.6265L14.3892 21.1407C14.3129 21.6835 14.6941 22.0739 15.2374 21.9882L16.7527 21.7692C16.9623 21.7406 17.2578 21.5882 17.4102 21.4359L21.3652 17.4839C22.0419 16.8078 22.3659 16.0079 21.3652 15.008C20.3741 14.0177 19.5831 14.3319 18.8969 15.0176Z" fill="#141414"/>
<path d="M18.3347 15.5794C18.6682 16.7793 19.6117 17.7125 20.8125 18.0553L18.3347 15.5794Z" fill="#141414"/>
<path d="M2.9816 14.9795C2.9816 15.008 2.96254 15.0461 2.96254 15.0747C3.83932 16.8269 5.26884 18.2648 7.02239 19.1314C7.05098 19.1314 7.0891 19.1123 7.11769 19.1123C6.79366 18.0077 6.54588 16.8745 6.3648 15.7413C5.22119 15.5508 4.0871 15.3032 2.9816 14.9795Z" fill="#141414"/>
<path d="M19.221 7.17084C18.3251 5.29486 16.8098 3.78075 14.9419 2.89514C15.285 4.02834 15.5709 5.19011 15.7615 6.35188C16.9242 6.54234 18.0869 6.81849 19.221 7.17084Z" fill="#141414"/>
<path d="M2.8863 7.17084C4.02992 6.82802 5.1926 6.54234 6.35527 6.35188C6.54588 5.21868 6.78413 4.095 7.10816 2.99036C7.07957 2.99036 7.04145 2.97132 7.01285 2.97132C5.22119 3.85693 3.76308 5.352 2.8863 7.17084Z" fill="#141414"/>
<path d="M14.2176 6.1519C13.9889 4.91395 13.703 3.676 13.2932 2.47614C13.2742 2.40948 13.2742 2.35234 13.2646 2.27616C12.5594 2.10475 11.816 2 11.0536 2C10.2817 2 9.54787 2.10475 8.83311 2.28568C8.82358 2.35234 8.83311 2.40948 8.81405 2.48566C8.41378 3.68552 8.11835 4.91395 7.88963 6.1519C9.99579 5.92336 12.1115 5.92336 14.2176 6.1519Z" fill="#141414"/>
<path d="M6.15514 7.88504C4.90669 8.11358 3.68684 8.40879 2.47651 8.80874C2.4098 8.82779 2.35262 8.82779 2.2859 8.83731C2.10483 9.54199 2 10.2848 2 11.0466C2 11.8179 2.10483 12.5512 2.2859 13.2654C2.35262 13.2749 2.4098 13.2654 2.48604 13.2844C3.68684 13.6844 4.91622 13.9796 6.16467 14.2081C5.92642 12.1036 5.92642 9.98956 6.15514 7.88504Z" fill="#141414"/>
<path d="M19.8214 8.83731C19.7547 8.83731 19.6975 8.82779 19.6212 8.80874C18.4204 8.40879 17.1815 8.11358 15.9426 7.88504C16.1809 9.98956 16.1809 12.1036 15.9426 14.1986C17.1815 13.9701 18.4204 13.6844 19.6212 13.2749C19.6879 13.2559 19.7451 13.2654 19.8214 13.2559C19.9929 12.5416 20.1073 11.8084 20.1073 11.0371C20.1073 10.2848 20.0024 9.55152 19.8214 8.83731Z" fill="#141414"/>
<path d="M7.88963 15.9413C8.11835 17.1887 8.40425 18.4172 8.81405 19.617C8.83311 19.6837 8.82358 19.7408 8.83311 19.817C9.54787 19.9884 10.2817 20.0932 11.0536 20.0932C11.816 20.0932 12.5594 19.9884 13.2646 19.8075C13.2742 19.7408 13.2742 19.6837 13.2932 19.6075C13.6935 18.4076 13.9889 17.1792 14.2176 15.9317C13.1693 16.046 12.1115 16.1317 11.0536 16.1317C9.99579 16.1317 8.93794 16.0555 7.88963 15.9413Z" fill="#141414"/>
</svg>
