<svg width="24" height="24" viewBox="0 0 24 24" fill="none" xmlns="http://www.w3.org/2000/svg">
<path d="M21.3023 11.3023H19.4047C19.0698 7.75814 16.2419 4.92093 12.6977 4.59535V2.69767C12.6977 2.31628 12.3814 2 12 2C11.6186 2 11.3023 2.31628 11.3023 2.69767V4.59535C7.75814 4.93023 4.92093 7.75814 4.59535 11.3023H2.69767C2.31628 11.3023 2 11.6186 2 12C2 12.3814 2.31628 12.6977 2.69767 12.6977H4.59535C4.93023 16.2419 7.75814 19.0791 11.3023 19.4047V21.3023C11.3023 21.6837 11.6186 22 12 22C12.3814 22 12.6977 21.6837 12.6977 21.3023V19.4047C16.2419 19.0698 19.0791 16.2419 19.4047 12.6977H21.3023C21.6837 12.6977 22 12.3814 22 12C22 11.6186 21.6837 11.3023 21.3023 11.3023ZM12 14.9023C10.4 14.9023 9.09767 13.6 9.09767 12C9.09767 10.4 10.4 9.09767 12 9.09767C13.6 9.09767 14.9023 10.4 14.9023 12C14.9023 13.6 13.6 14.9023 12 14.9023Z" fill="#141414"/>
</svg>
