<svg width="24" height="24" viewBox="0 0 24 24" fill="none" xmlns="http://www.w3.org/2000/svg">
<path d="M21.79 20.76L21.07 20.04C21.44 19.48 21.66 18.8 21.66 18.08C21.66 16.1 20.06 14.5 18.08 14.5C16.1 14.5 14.5 16.1 14.5 18.08C14.5 20.06 16.1 21.66 18.08 21.66C18.81 21.66 19.48 21.44 20.04 21.07L20.76 21.79C20.9 21.93 21.09 22 21.27 22C21.46 22 21.64 21.93 21.78 21.79C22.07 21.5 22.07 21.04 21.79 20.76Z" fill="#141414"/>
<path d="M2.03 14.63C2.03 14.66 2.01 14.7 2.01 14.73C2.93 16.57 4.43 18.08 6.27 18.99C6.3 18.99 6.34 18.97 6.37 18.97C6.03 17.81 5.77 16.62 5.58 15.43C4.38 15.23 3.19 14.97 2.03 14.63Z" fill="#141414"/>
<path d="M19.07 6.43C18.13 4.46 16.54 2.87 14.58 1.94C14.94 3.13 15.24 4.35 15.44 5.57C16.66 5.77 17.88 6.06 19.07 6.43Z" fill="#141414"/>
<path d="M1.93 6.43C3.13 6.07 4.35 5.77 5.57 5.57C5.77 4.38 6.02 3.2 6.36 2.04C6.33 2.04 6.29 2.02 6.26 2.02C4.38 2.95 2.85 4.52 1.93 6.43Z" fill="#141414"/>
<path d="M13.82 5.36C13.58 4.06 13.28 2.76 12.85 1.5C12.83 1.43 12.83 1.37 12.82 1.29C12.08 1.11 11.3 1 10.5 1C9.69 1 8.92 1.11 8.17 1.3C8.16 1.37 8.17 1.43 8.15 1.51C7.73 2.77 7.42 4.06 7.18 5.36C9.39 5.12 11.61 5.12 13.82 5.36Z" fill="#141414"/>
<path d="M5.36 7.18C4.05 7.42 2.77 7.73 1.5 8.15C1.43 8.17 1.37 8.17 1.3 8.18C1.11 8.92 1 9.7 1 10.5C1 11.31 1.11 12.08 1.3 12.83C1.37 12.84 1.43 12.83 1.51 12.85C2.77 13.27 4.06 13.58 5.37 13.82C5.12 11.61 5.12 9.39 5.36 7.18Z" fill="#141414"/>
<path d="M19.7 8.18C19.63 8.18 19.57 8.17 19.49 8.15C18.23 7.73 16.93 7.42 15.63 7.18C15.88 9.39 15.88 11.61 15.63 13.81C16.93 13.57 18.23 13.27 19.49 12.84C19.56 12.82 19.62 12.83 19.7 12.82C19.88 12.07 20 11.3 20 10.49C20 9.7 19.89 8.93 19.7 8.18Z" fill="#141414"/>
<path d="M7.18 15.64C7.42 16.95 7.72 18.24 8.15 19.5C8.17 19.57 8.16 19.63 8.17 19.71C8.92 19.89 9.69 20 10.5 20C11.3 20 12.08 19.89 12.82 19.7C12.83 19.63 12.83 19.57 12.85 19.49C13.27 18.23 13.58 16.94 13.82 15.63C12.72 15.75 11.61 15.84 10.5 15.84C9.39 15.84 8.28 15.76 7.18 15.64Z" fill="#141414"/>
</svg>
