<svg width="24" height="24" viewBox="0 0 24 24" fill="none" xmlns="http://www.w3.org/2000/svg">
<path d="M21.8012 20.819L21.1154 20.1333C21.4678 19.6 21.6773 18.9524 21.6773 18.2667C21.6773 16.381 20.1534 14.8571 18.2676 14.8571C16.3818 14.8571 14.8579 16.381 14.8579 18.2667C14.8579 20.1524 16.3818 21.6762 18.2676 21.6762C18.9629 21.6762 19.601 21.4667 20.1344 21.1143L20.8202 21.8C20.9535 21.9333 21.1345 22 21.3059 22C21.4869 22 21.6583 21.9333 21.7916 21.8C22.0678 21.5238 22.0678 21.0857 21.8012 20.819Z" fill="#141414"/>
<path d="M2.98101 14.981C2.98101 15.0095 2.96196 15.0476 2.96196 15.0762C3.8382 16.8286 5.26686 18.2667 7.01934 19.1333C7.04792 19.1333 7.08601 19.1143 7.11459 19.1143C6.79076 18.0095 6.54312 16.8762 6.36216 15.7429C5.21924 15.5524 4.08584 15.3048 2.98101 14.981Z" fill="#141414"/>
<path d="M19.2105 7.17143C18.3152 5.29524 16.8009 3.78095 14.9341 2.89524C15.277 4.02857 15.5627 5.19048 15.7532 6.35238C16.9152 6.54286 18.0771 6.81905 19.2105 7.17143Z" fill="#141414"/>
<path d="M2.88577 7.17143C4.02869 6.82857 5.19066 6.54286 6.35264 6.35238C6.54312 5.21905 6.78123 4.09524 7.10506 2.99048C7.07649 2.99048 7.03839 2.97143 7.00982 2.97143C5.21924 3.85714 3.76201 5.35238 2.88577 7.17143Z" fill="#141414"/>
<path d="M14.2102 6.15238C13.9817 4.91429 13.6959 3.67619 13.2864 2.47619C13.2673 2.40952 13.2673 2.35238 13.2578 2.27619C12.553 2.10476 11.8101 2 11.0482 2C10.2767 2 9.5433 2.10476 8.82897 2.28571C8.81945 2.35238 8.82897 2.40952 8.80992 2.48571C8.4099 3.68571 8.11464 4.91429 7.88606 6.15238C9.99095 5.92381 12.1054 5.92381 14.2102 6.15238Z" fill="#141414"/>
<path d="M6.15263 7.88571C4.90493 8.11429 3.68581 8.40952 2.47622 8.80952C2.40955 8.82857 2.3524 8.82857 2.28573 8.8381C2.10477 9.54286 2 10.2857 2 11.0476C2 11.819 2.10477 12.5524 2.28573 13.2667C2.3524 13.2762 2.40955 13.2667 2.48574 13.2857C3.68581 13.6857 4.91446 13.981 6.16215 14.2095C5.92404 12.1048 5.92404 9.99048 6.15263 7.88571Z" fill="#141414"/>
<path d="M19.8106 8.8381C19.7439 8.8381 19.6868 8.82857 19.6106 8.80952C18.4105 8.40952 17.1723 8.11429 15.9342 7.88571C16.1723 9.99048 16.1723 12.1048 15.9342 14.2C17.1723 13.9714 18.4105 13.6857 19.6106 13.2762C19.6772 13.2571 19.7344 13.2667 19.8106 13.2571C19.982 12.5429 20.0963 11.8095 20.0963 11.0381C20.0963 10.2857 19.9915 9.55238 19.8106 8.8381Z" fill="#141414"/>
<path d="M7.88606 15.9429C8.11464 17.1905 8.40038 18.419 8.80992 19.619C8.82897 19.6857 8.81945 19.7429 8.82897 19.819C9.5433 19.9905 10.2767 20.0952 11.0482 20.0952C11.8101 20.0952 12.553 19.9905 13.2578 19.8095C13.2673 19.7429 13.2673 19.6857 13.2864 19.6095C13.6864 18.4095 13.9817 17.181 14.2102 15.9333C13.1626 16.0476 12.1054 16.1333 11.0482 16.1333C9.99095 16.1333 8.93374 16.0571 7.88606 15.9429Z" fill="#141414"/>
</svg>
