<svg width="24" height="24" viewBox="0 0 24 24" fill="none" xmlns="http://www.w3.org/2000/svg">
<path d="M21.8989 17.7517C21.807 17.3839 21.4393 17.154 21.0717 17.246C20.704 17.3379 20.4743 17.7057 20.557 18.0736C20.5938 18.2299 20.6121 18.3862 20.6121 18.5517C20.6121 19.692 19.6838 20.6207 18.5441 20.6207C17.4044 20.6207 16.4761 19.692 16.4761 18.5517C16.4761 17.5402 17.2022 16.7034 18.1673 16.5195C18.0754 16.731 18.0846 16.9885 18.2316 17.1908C18.3695 17.3747 18.5809 17.4759 18.7923 17.4759C18.9301 17.4759 19.0772 17.4299 19.1967 17.3471L20.2721 16.5655C20.2812 16.5563 20.2812 16.5471 20.2904 16.5471C20.2996 16.5379 20.3088 16.5379 20.318 16.5287C20.3456 16.5011 20.364 16.4736 20.3824 16.4368C20.4099 16.4 20.4467 16.3724 20.4651 16.3264C20.4835 16.2897 20.4926 16.2437 20.511 16.2069C20.5202 16.1609 20.5386 16.1241 20.5478 16.0782C20.557 16.0322 20.5478 15.9954 20.5386 15.9494C20.5386 15.9034 20.5386 15.8575 20.5202 15.8115C20.511 15.7655 20.4835 15.7287 20.4651 15.692C20.4467 15.6552 20.4375 15.6184 20.4191 15.5908C20.4099 15.5816 20.4007 15.5816 20.3915 15.5724C20.3824 15.5724 20.3824 15.5632 20.3824 15.554L19.4632 14.4966C19.2151 14.2115 18.7739 14.1747 18.489 14.4322C18.2868 14.6161 18.2132 14.8828 18.2868 15.131C16.5129 15.269 15.1066 16.7402 15.1066 18.5517C15.1066 20.4552 16.6507 22 18.5533 22C20.4559 22 22 20.4552 22 18.5517C21.9908 18.2851 21.9632 18.0092 21.8989 17.7517Z" fill="#141414"/>
<path d="M2.94669 14.5333C2.94669 14.5609 2.92831 14.5977 2.92831 14.6253C3.7739 16.3172 5.15257 17.7057 6.84375 18.5425C6.87132 18.5425 6.90809 18.5241 6.93566 18.5241C6.62316 17.4575 6.38419 16.3632 6.20956 15.269C5.10662 15.0851 4.01287 14.846 2.94669 14.5333Z" fill="#141414"/>
<path d="M18.6085 6.9931C17.7445 5.18161 16.2831 3.71954 14.4816 2.86437C14.8125 3.95862 15.0882 5.08046 15.2721 6.2023C16.3934 6.38621 17.5147 6.65287 18.6085 6.9931Z" fill="#141414"/>
<path d="M2.85478 6.9931C3.95772 6.66207 5.07904 6.38621 6.20037 6.2023C6.38419 5.10805 6.61397 4.02299 6.92647 2.95632C6.8989 2.95632 6.86213 2.93793 6.83456 2.93793C5.10662 3.7931 3.70037 5.23678 2.85478 6.9931Z" fill="#141414"/>
<path d="M13.7831 6.0092C13.5625 4.81379 13.2868 3.61839 12.8915 2.45977C12.8732 2.3954 12.8732 2.34023 12.864 2.26667C12.1838 2.10115 11.4669 2 10.7316 2C9.98713 2 9.27941 2.10115 8.59007 2.27586C8.58088 2.34023 8.59007 2.3954 8.57169 2.46897C8.18566 3.62759 7.90073 4.81379 7.68015 6.0092C9.7114 5.78851 11.7518 5.78851 13.7831 6.0092Z" fill="#141414"/>
<path d="M6.00735 7.68276C4.80331 7.90345 3.62684 8.18851 2.45956 8.57471C2.39522 8.5931 2.34007 8.5931 2.27574 8.6023C2.1011 9.28276 2 10 2 10.7356C2 11.4805 2.1011 12.1885 2.27574 12.8782C2.34007 12.8874 2.39522 12.8782 2.46875 12.8966C3.62684 13.2828 4.8125 13.5678 6.01654 13.7885C5.78676 11.7563 5.78676 9.71494 6.00735 7.68276Z" fill="#141414"/>
<path d="M19.1875 8.6023C19.1232 8.6023 19.068 8.5931 18.9945 8.57471C17.8364 8.18851 16.6415 7.90345 15.4467 7.68276C15.6765 9.71494 15.6765 11.7563 15.4467 13.7793C16.6415 13.5586 17.8364 13.2828 18.9945 12.8874C19.0588 12.869 19.114 12.8782 19.1875 12.869C19.3529 12.1793 19.4632 11.4713 19.4632 10.7264C19.4632 10 19.3621 9.29195 19.1875 8.6023Z" fill="#141414"/>
<path d="M7.68015 15.4621C7.90073 16.6667 8.17647 17.8529 8.57169 19.0115C8.59007 19.0759 8.58088 19.131 8.59007 19.2046C9.27941 19.3701 9.98713 19.4713 10.7316 19.4713C11.4669 19.4713 12.1838 19.3701 12.864 19.1954C12.8732 19.131 12.8732 19.0759 12.8915 19.0023C13.2776 17.8437 13.5625 16.6575 13.7831 15.4529C12.7721 15.5632 11.7518 15.646 10.7316 15.646C9.7114 15.646 8.69118 15.5724 7.68015 15.4621Z" fill="#141414"/>
</svg>
