<svg width="24" height="24" viewBox="0 0 24 24" fill="none" xmlns="http://www.w3.org/2000/svg">
<path d="M22 12C22 12.3814 21.6837 12.6977 21.3023 12.6977H19.4047C19.0791 16.2419 16.2419 19.0791 12.6977 19.4047V21.3023C12.6977 21.6837 12.3814 22 12 22C11.6186 22 11.3023 21.6837 11.3023 21.3023V19.4047C10.7349 19.3581 10.1767 19.2372 9.64651 19.0605C8.98605 18.8372 8.7814 18 9.27442 17.507L11.8884 14.893C11.9256 14.9023 11.9535 14.9023 11.9907 14.9023C13.6 14.9023 14.893 13.6093 14.893 12C14.893 11.9628 14.893 11.9349 14.8837 11.8977L17.4977 9.28372C17.9907 8.7907 18.8279 8.99535 19.0512 9.65581C19.2279 10.186 19.3488 10.7349 19.3953 11.3116H21.3023C21.6837 11.3023 22 11.6186 22 12Z" fill="#141414"/>
<path d="M21.0884 2.91163C20.8093 2.63256 20.3535 2.63256 20.0744 2.91163L16.7163 6.26977C15.6 5.34884 14.2047 4.74419 12.6884 4.60465V2.69767C12.6884 2.31628 12.3721 2 11.9907 2C11.6093 2 11.293 2.31628 11.293 2.69767V4.59535C7.74884 4.93023 4.91163 7.75814 4.58605 11.3023H2.69767C2.31628 11.3023 2 11.6186 2 12C2 12.3814 2.31628 12.6977 2.69767 12.6977H4.59535C4.73488 14.214 5.33953 15.6093 6.26047 16.7256L2.90233 20.0837C2.62326 20.3628 2.62326 20.8186 2.90233 21.0977C3.05116 21.2279 3.22791 21.3023 3.41395 21.3023C3.6 21.3023 3.77674 21.2279 3.91628 21.0884L21.0884 3.91628C21.3767 3.63721 21.3767 3.1907 21.0884 2.91163ZM9.09767 12C9.09767 10.4 10.4 9.09767 12 9.09767C12.5395 9.09767 13.0419 9.25581 13.4698 9.51628L9.51628 13.4698C9.25581 13.0419 9.09767 12.5395 9.09767 12Z" fill="#141414"/>
</svg>
