<svg width="24" height="24" viewBox="0 0 24 24" fill="none" xmlns="http://www.w3.org/2000/svg">
<path d="M20.2606 8.53659C19.2549 4.02927 15.3952 2 12.0048 2C12.0048 2 12.0048 2 11.9952 2C8.61436 2 4.74505 4.01951 3.73942 8.52683C2.61885 13.561 5.64534 17.8244 8.3845 20.5073C9.39971 21.5024 10.7022 22 12.0048 22C13.3073 22 14.6099 21.5024 15.6155 20.5073C18.3547 17.8244 21.3811 13.5707 20.2606 8.53659ZM12.0048 13.4244C10.3383 13.4244 8.98788 12.0488 8.98788 10.3512C8.98788 8.65366 10.3383 7.27805 12.0048 7.27805C13.6713 7.27805 15.0217 8.65366 15.0217 10.3512C15.0217 12.0488 13.6713 13.4244 12.0048 13.4244Z" fill="#141414"/>
</svg>
