<svg width="24" height="24" viewBox="0 0 24 24" fill="none" xmlns="http://www.w3.org/2000/svg">
<path d="M20.2605 8.5334C19.2641 4.01853 15.3934 2 12.0018 2C12.0018 2 12.0018 2 11.9922 2C8.6102 2 4.74912 4.01853 3.74314 8.52365C2.6126 13.5553 5.64014 17.8167 8.38026 20.508C9.39583 21.5027 10.6988 22 12.0018 22C13.3048 22 14.6078 21.5027 15.6138 20.508C18.3539 17.8167 21.3815 13.5651 20.2605 8.5334ZM14.6365 11.5076H9.36709C8.97427 11.5076 8.64852 11.176 8.64852 10.7762C8.64852 10.3764 8.97427 10.0449 9.36709 10.0449H14.6365C15.0294 10.0449 15.3551 10.3764 15.3551 10.7762C15.3551 11.176 15.0294 11.5076 14.6365 11.5076Z" fill="#141414"/>
</svg>
