<svg width="24" height="24" viewBox="0 0 24 24" fill="none" xmlns="http://www.w3.org/2000/svg">
<path d="M20.2605 8.5334C19.2641 4.01853 15.3934 2 12.0018 2C12.0018 2 12.0018 2 11.9922 2C8.6102 2 4.74912 4.01853 3.74314 8.52365C2.6126 13.5553 5.64014 17.8167 8.38026 20.508C9.39583 21.5027 10.6988 22 12.0018 22C13.3048 22 14.6078 21.5027 15.6138 20.508C18.3539 17.8167 21.3815 13.5651 20.2605 8.5334ZM15.1443 9.34276L11.312 13.2433C11.1683 13.3896 10.9862 13.4578 10.8042 13.4578C10.6222 13.4578 10.4401 13.3896 10.2964 13.2433L8.8593 11.7806C8.58146 11.4978 8.58146 11.0297 8.8593 10.747C9.13715 10.4642 9.59703 10.4642 9.87487 10.747L10.8042 11.6928L14.1288 8.30912C14.4066 8.02633 14.8665 8.02633 15.1443 8.30912C15.4222 8.59191 15.4222 9.05997 15.1443 9.34276Z" fill="#141414"/>
</svg>
