<svg width="24" height="24" viewBox="0 0 24 24" fill="none" xmlns="http://www.w3.org/2000/svg">
<path d="M15.7767 20.508C14.7166 21.5027 13.3564 22 11.9962 22C10.6361 22 9.27591 21.4929 8.21578 20.4983C7.85573 20.1667 7.49569 19.7962 7.13564 19.4159L20.0373 6.83667C20.2873 7.36324 20.4773 7.91906 20.6173 8.5334C21.7875 13.5651 18.6271 17.8167 15.7767 20.508Z" fill="#141414"/>
<path d="M21.7675 2.22428C21.4674 1.93174 20.9774 1.93174 20.6773 2.22428L2.22503 20.2253C1.92499 20.5178 1.92499 20.9956 2.22503 21.2882C2.37505 21.4247 2.56507 21.5027 2.7651 21.5027C2.96512 21.5027 3.15514 21.4247 3.30516 21.2784L21.7675 3.27743C22.0775 2.98489 22.0775 2.51682 21.7675 2.22428Z" fill="#141414"/>
<path d="M8.84586 10.1034C8.84586 8.40663 10.256 7.03169 11.9962 7.03169C13.3064 7.03169 14.4266 7.8118 14.9066 8.92345L18.8871 5.04242C17.1169 2.95563 14.4366 2 11.9962 2C10.226 2 8.33579 2.50707 6.75559 3.56997C5.1754 4.64261 3.89524 6.27109 3.37517 8.52365C2.53507 12.1024 3.89524 15.3008 5.78547 17.8069L10.7861 12.9313C9.64596 12.4729 8.84586 11.371 8.84586 10.1034Z" fill="#141414"/>
</svg>
