<svg width="24" height="24" viewBox="0 0 24 24" fill="none" xmlns="http://www.w3.org/2000/svg">
<path d="M15.7799 20.98C14.7199 22 13.3599 22.51 11.9999 22.51C10.6399 22.51 9.27988 21.99 8.21988 20.97C7.85988 20.63 7.49988 20.25 7.13988 19.86L20.0399 6.96C20.2899 7.5 20.4799 8.07 20.6199 8.7C21.7899 13.86 18.6299 18.22 15.7799 20.98Z" fill="#141414"/>
<path d="M21.7699 2.23C21.4699 1.93 20.9799 1.93 20.6799 2.23L2.22988 20.69C1.92988 20.99 1.92988 21.48 2.22988 21.78C2.37988 21.92 2.56988 22 2.76988 22C2.96988 22 3.15988 21.92 3.30988 21.77L21.7699 3.31C22.0799 3.01 22.0799 2.53 21.7699 2.23Z" fill="#141414"/>
<path d="M8.84988 10.31C8.84988 8.57 10.2599 7.16 11.9999 7.16C13.3099 7.16 14.4299 7.96 14.9099 9.1L18.8899 5.12C17.1199 2.98 14.4399 2 11.9999 2C10.2299 2 8.33988 2.52 6.75988 3.61C5.17988 4.71 3.89988 6.38 3.37988 8.69C2.53988 12.36 3.89988 15.64 5.78988 18.21L10.7899 13.21C9.64988 12.74 8.84988 11.61 8.84988 10.31Z" fill="#141414"/>
</svg>
