<svg width="24" height="24" viewBox="0 0 24 24" fill="none" xmlns="http://www.w3.org/2000/svg">
<path d="M20.2605 8.5334C19.2641 4.01853 15.3934 2 12.0018 2C12.0018 2 12.0018 2 11.9922 2C8.6102 2 4.74912 4.01853 3.74314 8.52365C2.6126 13.5553 5.64014 17.8167 8.38026 20.508C9.39583 21.5027 10.6988 22 12.0018 22C13.3048 22 14.6078 21.5027 15.6138 20.508C18.3539 17.8167 21.3815 13.5651 20.2605 8.5334ZM14.4258 13.2043C14.2821 13.3506 14.1 13.4188 13.918 13.4188C13.7359 13.4188 13.5539 13.3506 13.4102 13.2043L12.021 11.7903L10.5934 13.2433C10.4497 13.3896 10.2677 13.4578 10.0856 13.4578C9.90361 13.4578 9.72158 13.3896 9.57787 13.2433C9.30002 12.9605 9.30002 12.4924 9.57787 12.2097L11.0054 10.7567L9.61619 9.34276C9.33835 9.05997 9.33835 8.59191 9.61619 8.30912C9.89403 8.02633 10.3539 8.02633 10.6318 8.30912L12.021 9.72306L13.3623 8.35787C13.6401 8.07509 14.1 8.07509 14.3779 8.35787C14.6557 8.64066 14.6557 9.10873 14.3779 9.39152L13.0365 10.7567L14.4258 12.1706C14.7036 12.4534 14.7036 12.9117 14.4258 13.2043Z" fill="#141414"/>
</svg>
