<svg width="24" height="24" viewBox="0 0 24 24" fill="none" xmlns="http://www.w3.org/2000/svg">
<path d="M12 22C11.6186 22 11.3023 21.6837 11.3023 21.3022V19.4416C11.3023 19.0601 11.6186 18.7438 12 18.7438C12.3814 18.7438 12.6977 19.0601 12.6977 19.4416V21.3022C12.6977 21.6837 12.3814 22 12 22Z" fill="#141414"/>
<path d="M12 18.2786C11.6186 18.2786 11.3023 17.9623 11.3023 17.5809V15.7202C11.3023 15.3388 11.6186 15.0224 12 15.0224C12.3814 15.0224 12.6977 15.3388 12.6977 15.7202V17.5809C12.6977 17.9623 12.3814 18.2786 12 18.2786Z" fill="#141414"/>
<path d="M12 14.5573C11.6186 14.5573 11.3023 14.241 11.3023 13.8595V11.0685C11.3023 7.09594 14.5395 3.85836 18.5116 3.85836H21.3023C21.6837 3.85836 22 4.17467 22 4.55611C22 4.93755 21.6837 5.25387 21.3023 5.25387H18.5116C15.3023 5.25387 12.6977 7.85882 12.6977 11.0685V13.8595C12.6977 14.241 12.3814 14.5573 12 14.5573Z" fill="#141414"/>
<path d="M12 14.5573C11.6186 14.5573 11.3023 14.241 11.3023 13.8595V11.0685C11.3023 7.85882 8.69767 5.25387 5.48837 5.25387H2.69767C2.31628 5.25387 2 4.93755 2 4.55611C2 4.17467 2.31628 3.85836 2.69767 3.85836H5.48837C9.46047 3.85836 12.6977 7.09594 12.6977 11.0685V13.8595C12.6977 14.241 12.3814 14.5573 12 14.5573Z" fill="#141414"/>
<path d="M4.55814 7.11455C4.3814 7.11455 4.20465 7.04942 4.06512 6.90987L2.20465 5.04919C1.93488 4.77939 1.93488 4.33283 2.20465 4.06303L4.06512 2.20235C4.33488 1.93255 4.7814 1.93255 5.05116 2.20235C5.32093 2.47215 5.32093 2.91871 5.05116 3.18851L3.68372 4.55611L5.05116 5.92371C5.32093 6.19351 5.32093 6.64007 5.05116 6.90987C4.91163 7.04942 4.73488 7.11455 4.55814 7.11455Z" fill="#141414"/>
<path d="M19.4419 7.11455C19.2651 7.11455 19.0884 7.04942 18.9488 6.90987C18.6791 6.64007 18.6791 6.19351 18.9488 5.92371L20.3163 4.55611L18.9488 3.18851C18.6791 2.91871 18.6791 2.47215 18.9488 2.20235C19.2186 1.93255 19.6651 1.93255 19.9349 2.20235L21.7953 4.06303C22.0651 4.33283 22.0651 4.77939 21.7953 5.04919L19.9349 6.90987C19.7953 7.04942 19.6186 7.11455 19.4419 7.11455Z" fill="#141414"/>
</svg>
