<svg width="24" height="24" viewBox="0 0 24 24" fill="none" xmlns="http://www.w3.org/2000/svg">
<path d="M16.1971 2H7.8129C4.17108 2 2 4.17 2 7.81V16.18C2 19.83 4.17108 22 7.8129 22H16.1871C19.8289 22 22 19.83 22 16.19V7.81C22.01 4.17 19.8389 2 16.1971 2ZM19.3587 8.84C19.3186 8.93 19.2686 9.01 19.1986 9.08L17.3977 10.88C17.2476 11.03 17.0575 11.1 16.8674 11.1C16.6773 11.1 16.4872 11.03 16.3371 10.88C16.047 10.59 16.047 10.11 16.3371 9.82L16.8574 9.3H16.7073C14.6063 9.3 12.8854 11.01 12.8854 13.11V17.24C12.8854 17.65 12.5453 17.99 12.135 17.99C11.7248 17.99 11.3847 17.65 11.3847 17.24V13.11C11.3847 11.01 9.67382 9.3 7.57278 9.3H7.15257L7.67283 9.82C7.96297 10.11 7.96297 10.59 7.67283 10.88C7.52275 11.03 7.33266 11.1 7.14256 11.1C6.95247 11.1 6.76237 11.03 6.6123 10.88L4.8114 9.08C4.52126 8.79 4.52126 8.31 4.8114 8.02L6.6123 6.22C6.90244 5.93 7.38268 5.93 7.67283 6.22C7.96297 6.51 7.96297 6.99 7.67283 7.28L7.15257 7.8H7.58278C9.53375 7.8 11.2246 8.87 12.1451 10.44C13.0655 8.87 14.7564 7.8 16.7173 7.8H16.8674L16.3471 7.28C16.057 6.99 16.057 6.51 16.3471 6.22C16.6373 5.93 17.1175 5.93 17.4077 6.22L19.2086 8.02C19.2786 8.09 19.3286 8.17 19.3687 8.26C19.4387 8.45 19.4387 8.66 19.3587 8.84Z" fill="#141414"/>
</svg>
