<svg width="24" height="24" viewBox="0 0 24 24" fill="none" xmlns="http://www.w3.org/2000/svg">
<path d="M7.41857 4.02938C7.60059 3.93544 7.79401 4.07996 7.79401 4.27614V17.2913C7.79401 17.5056 7.63935 17.6869 7.43907 17.787C7.4322 17.7904 7.42536 17.7939 7.41857 17.7974L5.03399 19.084C3.36986 19.9865 2 19.2376 2 17.4134V8.07146C2 7.46659 2.45662 6.7177 3.02486 6.41046L7.41857 4.02938Z" fill="#141414"/>
<path d="M14.6148 6.46065C14.7877 6.54164 14.897 6.70835 14.897 6.89084V19.5194C14.897 19.8731 14.5063 20.1054 14.1694 19.9518L9.85691 17.9859C9.68136 17.9059 9.56976 17.7378 9.56976 17.5534V4.87003C9.56976 4.51397 9.96506 4.28182 10.3023 4.43984L14.6148 6.46065Z" fill="#141414"/>
<path d="M22 6.83291V16.1748C22 16.7797 21.5434 17.5286 20.9751 17.8358L17.4324 19.757C17.0942 19.9404 16.6728 19.7093 16.6728 19.3405V6.6796C16.6728 6.50725 16.7704 6.34812 16.9286 6.26268L18.966 5.16231C20.6301 4.25981 22 5.0087 22 6.83291Z" fill="#141414"/>
</svg>
