<svg width="24" height="24" viewBox="0 0 24 24" fill="none" xmlns="http://www.w3.org/2000/svg">
<path d="M17.0212 2.87955L13.5416 4.58952C12.5718 5.06123 11.4419 5.06123 10.472 4.58952L6.98249 2.86972C4.00288 1.40544 0.853299 4.56986 2.41309 7.46894L3.23299 8.98236C3.34297 9.18874 3.52295 9.3558 3.74292 9.45407L16.3913 15.0459C16.9112 15.2719 17.5211 15.0655 17.7811 14.5741L21.5906 7.45911C23.1404 4.56986 20.0008 1.40544 17.0212 2.87955Z" fill="#141414"/>
<path d="M15.6014 16.235L7.32245 12.5694C6.39257 12.1566 5.45269 13.1393 5.93263 14.0238L8.97223 19.6942C10.2621 22.1019 13.7616 22.1019 15.0514 19.6942L16.1213 17.6894C16.4013 17.1489 16.1613 16.4905 15.6014 16.235Z" fill="#141414"/>
</svg>
