<svg width="24" height="24" viewBox="0 0 24 24" fill="none" xmlns="http://www.w3.org/2000/svg">
<path d="M2.39005 17.0184L4.18994 13.5395C4.68646 12.5698 4.68646 11.4402 4.18994 10.4705L2.39005 6.98158C0.848772 4.00252 4.16925 0.853508 7.22078 2.41302L8.81378 3.23276C9.04135 3.34272 9.2172 3.52267 9.3103 3.7426L15.1961 16.3886C15.434 16.9085 15.2168 17.5183 14.6996 17.7782L7.21043 21.587C4.16925 23.1465 0.848772 19.9975 2.39005 17.0184Z" fill="#141414"/>
<path d="M16.4581 15.5989L12.5997 7.32147C12.1653 6.39177 13.1997 5.45206 14.1307 5.93191L20.0993 8.97095C22.6336 10.2605 22.6336 13.7594 20.0993 15.049L17.9891 16.1187C17.4201 16.3986 16.7271 16.1687 16.4581 15.5989Z" fill="#141414"/>
</svg>
