<svg width="24" height="24" viewBox="0 0 24 24" fill="none" xmlns="http://www.w3.org/2000/svg">
<path d="M17.0253 21.1295L13.5448 19.4196C12.5746 18.9479 11.4444 18.9479 10.4743 19.4196L6.99381 21.1295C4.00337 22.5937 0.852921 19.4393 2.41315 16.5403L3.23326 15.0269C3.34328 14.8206 3.52331 14.6535 3.74334 14.5553L16.3852 8.95387C16.9052 8.72785 17.5153 8.93422 17.7754 9.42557L21.5859 16.5403C23.1461 19.4393 20.0057 22.5937 17.0253 21.1295Z" fill="#141414"/>
<path d="M15.605 7.76481L7.32385 11.4303C6.39372 11.843 5.45358 10.8603 5.93365 9.97588L8.97409 4.30571C10.2643 1.8981 13.7648 1.8981 15.055 4.30571L16.1251 6.31041C16.4052 6.8509 16.1651 7.51913 15.605 7.76481Z" fill="#141414"/>
</svg>
