<svg width="24" height="24" viewBox="0 0 24 24" fill="none" xmlns="http://www.w3.org/2000/svg">
<path d="M21.61 17.0161L19.8101 13.5356C19.3136 12.5655 19.3136 11.4353 19.8101 10.4652L21.61 6.98469C23.1513 3.99426 19.8308 0.853804 16.7793 2.41403L15.1863 3.23415C14.969 3.34416 14.7932 3.52419 14.6897 3.74422L8.79355 16.386C8.55563 16.9061 8.77286 17.5162 9.29007 17.7762L16.7793 21.5868C19.8308 23.147 23.1513 19.9966 21.61 17.0161Z" fill="#141414"/>
<path d="M7.5419 15.5959L11.4003 7.31474C11.8347 6.3846 10.8003 5.44447 9.86934 5.92454L3.90075 8.95497C1.36642 10.2452 1.36642 13.7457 3.90075 15.0358L6.01096 16.106C6.57989 16.396 7.27295 16.166 7.5419 15.5959Z" fill="#141414"/>
</svg>
