<svg width="24" height="24" viewBox="0 0 24 24" fill="none" xmlns="http://www.w3.org/2000/svg">
<path d="M8.89601 4.59924C8.09755 1.13859 2.89759 1.12859 2.09913 4.59924C1.63004 6.62962 2.91755 8.34994 4.03539 9.42014C4.85381 10.1903 6.14133 10.1903 6.95975 9.42014C8.07759 8.34994 9.35512 6.62962 8.89601 4.59924ZM5.5325 6.19954C4.98356 6.19954 4.53443 5.74945 4.53443 5.19935C4.53443 4.64925 4.97358 4.19916 5.52252 4.19916H5.5325C6.09142 4.19916 6.53057 4.64925 6.53057 5.19935C6.53057 5.74945 6.09142 6.19954 5.5325 6.19954Z" fill="#141414"/>
<path d="M21.9009 16.6015C21.1024 13.1408 15.8825 13.1308 15.0741 16.6015C14.605 18.6319 15.8925 20.3522 17.0203 21.4224C17.8387 22.1925 19.1362 22.1925 19.9547 21.4224C21.0825 20.3522 22.37 18.6319 21.9009 16.6015ZM18.5274 18.2018C17.9785 18.2018 17.5293 17.7517 17.5293 17.2016C17.5293 16.6515 17.9685 16.2014 18.5174 16.2014H18.5274C19.0764 16.2014 19.5255 16.6515 19.5255 17.2016C19.5255 17.7517 19.0764 18.2018 18.5274 18.2018Z" fill="#141414"/>
<path d="M12.0099 19.7521H9.3351C8.17734 19.7521 7.16928 19.0519 6.77005 17.9717C6.36084 16.8915 6.66026 15.7013 7.52859 14.9312L15.5032 7.93986C15.9823 7.51979 15.9922 6.94968 15.8525 6.55961C15.7028 6.16953 15.3235 5.74945 14.6848 5.74945H12.0099C11.6007 5.74945 11.2614 5.40939 11.2614 4.99931C11.2614 4.58924 11.6007 4.24917 12.0099 4.24917H14.6848C15.8425 4.24917 16.8506 4.9493 17.2498 6.02951C17.659 7.10971 17.3596 8.29993 16.4913 9.07008L8.51668 16.0614C8.03761 16.4815 8.02762 17.0516 8.16735 17.4416C8.31707 17.8317 8.69633 18.2518 9.3351 18.2518H12.0099C12.4191 18.2518 12.7585 18.5919 12.7585 19.0019C12.7585 19.412 12.4191 19.7521 12.0099 19.7521Z" fill="#141414"/>
</svg>
