<svg width="24" height="24" viewBox="0 0 24 24" fill="none" xmlns="http://www.w3.org/2000/svg">
<path d="M16.1971 2H7.8129C4.17108 2 2 4.17 2 7.81V16.18C2 19.83 4.17108 22 7.8129 22H16.1871C19.8289 22 22 19.83 22 16.19V7.81C22.01 4.17 19.8389 2 16.1971 2ZM17.3577 9.05L15.0165 16.59C14.4562 18.38 11.945 18.41 11.3547 16.63L10.6543 14.56C10.4642 13.99 10.014 13.53 9.44371 13.35L7.36267 12.65C5.60179 12.06 5.6218 9.53 7.4127 8.99L14.9565 6.64C16.4372 6.19 17.8279 7.58 17.3577 9.05Z" fill="#141414"/>
</svg>
