<svg width="24" height="24" viewBox="0 0 24 24" fill="none" xmlns="http://www.w3.org/2000/svg">
<path d="M11.9988 19.75H9.31875C8.15875 19.75 7.14875 19.05 6.74875 17.97C6.33875 16.89 6.63875 15.7 7.50875 14.93L15.4988 7.94C15.9788 7.52 15.9888 6.95 15.8488 6.56C15.6988 6.17 15.3188 5.75 14.6788 5.75H11.9988C11.5888 5.75 11.2488 5.41 11.2488 5C11.2488 4.59 11.5888 4.25 11.9988 4.25H14.6788C15.8388 4.25 16.8488 4.95 17.2488 6.03C17.6588 7.11 17.3588 8.3 16.4888 9.07L8.49875 16.06C8.01875 16.48 8.00875 17.05 8.14875 17.44C8.29875 17.83 8.67875 18.25 9.31875 18.25H11.9988C12.4088 18.25 12.7488 18.59 12.7488 19C12.7488 19.41 12.4088 19.75 11.9988 19.75Z" fill="#141414"/>
<path d="M19.9987 15H16.9987C15.8987 15 14.9987 15.9 14.9987 17V20C14.9987 21.1 15.8987 22 16.9987 22H19.9987C21.0987 22 21.9987 21.1 21.9987 20V17C21.9987 15.9 21.0987 15 19.9987 15ZM18.5088 19.5C17.9588 19.5 17.5087 19.05 17.5087 18.5C17.5087 17.95 17.9488 17.5 18.5088 17.5H18.5187C19.0687 17.5 19.5187 17.95 19.5187 18.5C19.5187 19.05 19.0688 19.5 18.5088 19.5Z" fill="#141414"/>
<path d="M5.46875 2C3.53875 2 1.96875 3.57 1.96875 5.5C1.96875 7.43 3.53875 9 5.46875 9C7.39875 9 8.96875 7.43 8.96875 5.5C8.96875 3.57 7.40875 2 5.46875 2ZM5.50875 6.5C4.95875 6.5 4.50875 6.05 4.50875 5.5C4.50875 4.95 4.94875 4.5 5.50875 4.5H5.51875C6.06875 4.5 6.51875 4.95 6.51875 5.5C6.51875 6.05 6.06875 6.5 5.50875 6.5Z" fill="#141414"/>
</svg>
