<svg width="24" height="24" viewBox="0 0 24 24" fill="none" xmlns="http://www.w3.org/2000/svg">
<path d="M12.015 19.75H9.33899C8.18073 19.75 7.17224 19.05 6.77284 17.97C6.36346 16.89 6.66301 15.7 7.5317 14.93L15.5097 7.94C15.989 7.52 15.999 6.95 15.8592 6.56C15.7094 6.17 15.33 5.75 14.691 5.75H12.015C11.6056 5.75 11.2661 5.41 11.2661 5C11.2661 4.59 11.6056 4.25 12.015 4.25H14.691C15.8492 4.25 16.8577 4.95 17.2571 6.03C17.6665 7.11 17.367 8.3 16.4983 9.07L8.52022 16.06C8.04094 16.48 8.03095 17.05 8.17074 17.44C8.32052 17.83 8.69995 18.25 9.33899 18.25H12.015C12.4244 18.25 12.7639 18.59 12.7639 19C12.7639 19.41 12.4244 19.75 12.015 19.75Z" fill="#141414"/>
<path d="M20.003 15H17.0075C15.9091 15 15.0105 15.9 15.0105 17V20C15.0105 21.1 15.9091 22 17.0075 22H20.003C21.1013 22 22 21.1 22 20V17C22 15.9 21.1013 15 20.003 15ZM18.5152 19.5C17.9661 19.5 17.5167 19.05 17.5167 18.5C17.5167 17.95 17.9561 17.5 18.5152 17.5H18.5252C19.0744 17.5 19.5237 17.95 19.5237 18.5C19.5237 19.05 19.0744 19.5 18.5152 19.5Z" fill="#141414"/>
<path d="M5.49476 2C3.56765 2 2 3.57 2 5.5C2 7.43 3.56765 9 5.49476 9C7.42187 9 8.98952 7.43 8.98952 5.5C8.98952 3.57 7.43185 2 5.49476 2ZM5.5347 6.5C4.98552 6.5 4.5362 6.05 4.5362 5.5C4.5362 4.95 4.97554 4.5 5.5347 4.5H5.54468C6.09386 4.5 6.54319 4.95 6.54319 5.5C6.54319 6.05 6.09386 6.5 5.5347 6.5Z" fill="#141414"/>
</svg>
