<svg width="24" height="24" viewBox="0 0 24 24" fill="none" xmlns="http://www.w3.org/2000/svg">
<path d="M8.88003 4.6C8.08003 1.14 2.87002 1.13 2.07002 4.6C1.60002 6.63 2.89003 8.35 4.01003 9.42C4.83003 10.19 6.12003 10.19 6.94003 9.42C8.06003 8.35 9.34003 6.63 8.88003 4.6ZM5.51003 6.2C4.96003 6.2 4.51003 5.75 4.51003 5.2C4.51003 4.65 4.95003 4.2 5.50003 4.2H5.51003C6.07003 4.2 6.51003 4.65 6.51003 5.2C6.51003 5.75 6.07003 6.2 5.51003 6.2Z" fill="#141414"/>
<path d="M21.91 16.6C21.11 13.14 15.88 13.13 15.07 16.6C14.6 18.63 15.89 20.35 17.02 21.42C17.84 22.19 19.14 22.19 19.96 21.42C21.09 20.35 22.38 18.63 21.91 16.6ZM18.53 18.2C17.98 18.2 17.53 17.75 17.53 17.2C17.53 16.65 17.97 16.2 18.52 16.2H18.53C19.08 16.2 19.53 16.65 19.53 17.2C19.53 17.75 19.08 18.2 18.53 18.2Z" fill="#141414"/>
<path d="M12 19.75H9.31997C8.15997 19.75 7.14997 19.05 6.74997 17.97C6.33997 16.89 6.63997 15.7 7.50997 14.93L15.5 7.94C15.98 7.52 15.99 6.95 15.85 6.56C15.7 6.17 15.32 5.75 14.68 5.75H12C11.59 5.75 11.25 5.41 11.25 5C11.25 4.59 11.59 4.25 12 4.25H14.68C15.84 4.25 16.85 4.95 17.25 6.03C17.66 7.11 17.36 8.3 16.49 9.07L8.49997 16.06C8.01997 16.48 8.00997 17.05 8.14997 17.44C8.29997 17.83 8.67997 18.25 9.31997 18.25H12C12.41 18.25 12.75 18.59 12.75 19C12.75 19.41 12.41 19.75 12 19.75Z" fill="#141414"/>
</svg>
