<svg width="24" height="24" viewBox="0 0 24 24" fill="none" xmlns="http://www.w3.org/2000/svg">
<path d="M19.8103 18.4397C20.02 18.6495 20.1627 18.9167 20.2205 19.2076C20.2783 19.4984 20.2486 19.7999 20.1352 20.0739C20.0217 20.3479 19.8295 20.5822 19.583 20.747C19.3364 20.9118 19.0466 20.9999 18.75 21H5.25C4.95335 21 4.66334 20.9121 4.41665 20.7474C4.16996 20.5826 3.97767 20.3484 3.86408 20.0744C3.75049 19.8003 3.7207 19.4988 3.77849 19.2078C3.83629 18.9168 3.97905 18.6495 4.18875 18.4397C4.19304 18.4359 4.19711 18.4318 4.20094 18.4275L10.9153 12L4.20187 5.5725C4.19805 5.56821 4.19398 5.56414 4.18969 5.56031C3.98005 5.35054 3.8373 5.08332 3.77948 4.79244C3.72166 4.50156 3.75136 4.20007 3.86484 3.92607C3.97831 3.65207 4.17046 3.41785 4.41701 3.25302C4.66355 3.08819 4.95343 3.00014 5.25 3H18.75C19.0466 2.99995 19.3367 3.08787 19.5833 3.25263C19.83 3.41739 20.0223 3.65159 20.1359 3.92564C20.2495 4.19968 20.2793 4.50125 20.2215 4.79221C20.1637 5.08318 20.0209 5.35048 19.8112 5.56031C19.807 5.56414 19.8029 5.56821 19.7991 5.5725L13.0847 12L19.7981 18.4275C19.8019 18.4318 19.806 18.4359 19.8103 18.4397Z" fill="#141414"/>
</svg>
