<svg width="24" height="24" viewBox="0 0 24 24" fill="none" xmlns="http://www.w3.org/2000/svg">
<path d="M19.8836 10.6317L15.3101 8.62191L14.2916 8.18195C14.1349 8.10196 13.9978 7.89198 13.9978 7.71199V4.65226C13.9978 3.69235 13.3025 2.55245 12.4603 2.11249C12.1665 1.9625 11.8139 1.9625 11.5201 2.11249C10.6877 2.55245 9.99238 3.70235 9.99238 4.66226V7.72199C9.99238 7.90198 9.85528 8.11196 9.69858 8.19195L4.11643 10.6417C3.49946 10.9017 3 11.6916 3 12.3716V13.6915C3 14.5414 3.62677 14.9614 4.40043 14.6214L9.30685 12.4616C9.68879 12.2916 10.0022 12.5016 10.0022 12.9315V14.0414V15.8413C10.0022 16.0713 9.87486 16.4012 9.71817 16.5612L7.44614 18.891C7.2111 19.131 7.10337 19.6009 7.2111 19.9409L7.6518 21.3008C7.82807 21.8907 8.48422 22.1707 9.02285 21.8907L11.3536 19.8909C11.7062 19.5809 12.284 19.5809 12.6366 19.8909L14.9674 21.8907C15.506 22.1607 16.1621 21.8907 16.358 21.3008L16.7987 19.9409C16.9064 19.6109 16.7987 19.131 16.5637 18.891L14.2916 16.5612C14.1251 16.4012 13.9978 16.0713 13.9978 15.8413V12.9315C13.9978 12.5016 14.3014 12.3016 14.6931 12.4616L19.5996 14.6214C20.3732 14.9614 21 14.5414 21 13.6915V12.3716C21 11.6916 20.5005 10.9017 19.8836 10.6317Z" fill="#141414"/>
</svg>
