<svg width="24" height="24" viewBox="0 0 24 24" fill="none" xmlns="http://www.w3.org/2000/svg">
<path d="M16.1971 2H7.8129C4.17108 2 2 4.17 2 7.81V16.18C2 19.83 4.17108 22 7.8129 22H16.1871C19.8289 22 22 19.83 22 16.19V7.81C22.01 4.17 19.8389 2 16.1971 2ZM18.5182 13.19C18.5182 13.79 18.058 14.09 17.5077 13.85L14.1561 12.41C13.7659 12.25 13.4557 12.45 13.4557 12.87V14.72C13.4557 14.88 13.5458 15.11 13.6658 15.23L15.3066 16.88C15.4767 17.05 15.5568 17.39 15.4767 17.62L15.1566 18.58C15.0165 19 14.5362 19.2 14.1461 19L12.4752 17.58C12.2151 17.37 11.7949 17.37 11.5448 17.58L9.86392 19C9.46372 19.2 8.99349 19 8.85342 18.57L8.53326 17.61C8.45322 17.38 8.53326 17.04 8.70334 16.87L10.3742 15.23C10.4842 15.12 10.5843 14.89 10.5843 14.72V12.87C10.5843 12.45 10.2641 12.24 9.88393 12.41L6.53226 13.85C5.97198 14.09 5.52175 13.79 5.52175 13.19V12.26C5.52175 11.78 5.89194 11.22 6.33216 11.03L10.2741 9.33C10.4342 9.26 10.5743 9.05 10.5743 8.87V6.8C10.5743 6.12 11.0645 5.31 11.6748 5.01C11.8949 4.9 12.1451 4.9 12.3652 5.01C12.9655 5.32 13.4657 6.12 13.4657 6.8V8.87C13.4657 9.05 13.5958 9.26 13.7659 9.33L17.7078 11.03C18.1581 11.22 18.5182 11.78 18.5182 12.26V13.19Z" fill="#141414"/>
</svg>
