<svg width="24" height="24" viewBox="0 0 24 24" fill="none" xmlns="http://www.w3.org/2000/svg">
<path d="M20.26 14.47C20.26 14.47 20.19 14.43 20.16 14.42C19.66 14.15 19.09 14 18.5 14C18.48 14 18.46 14 18.44 14L16.25 8.98999H17.51C17.79 8.98999 18.01 8.76999 18.01 8.48999V7.48999C18.01 7.20999 17.79 6.98999 17.51 6.98999H15.38L15.29 6.78999C14.81 5.69999 13.73 4.98999 12.54 4.98999H12.01C11.4577 4.98999 11.01 5.43771 11.01 5.98999C11.01 6.54227 11.4577 6.98999 12.01 6.98999H12.54C12.94 6.98999 13.3 7.22999 13.46 7.58999L14.51 9.98999H10.58C10.29 9.98999 10.02 10.11 9.82997 10.32L7.43997 13L4.71997 10.28C4.52997 10.09 4.27997 9.98999 4.00997 9.98999H2.83997C2.28768 9.98999 1.83997 10.4377 1.83997 10.99C1.83997 11.5423 2.28768 11.99 2.83997 11.99H3.17575C3.44097 11.99 3.69532 12.0953 3.88286 12.2829L5.59997 14C5.59997 14 5.53997 13.99 5.49997 13.99C4.38997 13.99 3.36997 14.5 2.70997 15.37C2.40997 15.76 2.17997 16.24 2.05997 16.8C2.01997 17.02 1.98997 17.25 1.98997 17.49C1.98997 19.42 3.55997 20.99 5.48997 20.99C7.41997 20.99 8.98997 19.42 8.98997 17.49C8.98997 17.46 8.98997 17.43 8.98997 17.39L10.29 18.69C10.48 18.88 10.73 18.98 11 18.98H13C13.25 18.98 13.5 18.88 13.68 18.71L15 17.48C15 19.41 16.57 20.97 18.5 20.97C20.43 20.97 22 19.4 22 17.47C22 16.23 21.33 15.07 20.26 14.44V14.47ZM5.49997 19C4.66997 19 3.99997 18.33 3.99997 17.5C3.99997 17.39 4.00997 17.29 4.02997 17.21C4.07997 16.98 4.16997 16.76 4.29997 16.6C4.58997 16.22 5.02997 16 5.49997 16C5.75997 16 6.01997 16.07 6.23997 16.19C6.25997 16.2 6.27997 16.21 6.30997 16.22C6.65997 16.45 6.89997 16.8 6.97997 17.18C6.99997 17.28 7.00997 17.39 7.00997 17.49C7.00997 18.32 6.33997 18.99 5.50997 18.99L5.49997 19ZM18.5 19C17.67 19 17 18.33 17 17.5C17 17.18 17.11 16.86 17.3 16.6C17.59 16.22 18.03 16 18.5 16C18.76 16 19.02 16.07 19.24 16.19C19.26 16.2 19.28 16.21 19.31 16.23C19.74 16.51 20.01 16.99 20.01 17.5C20.01 18.33 19.34 19 18.51 19H18.5Z" fill="#141414"/>
</svg>
