<svg width="24" height="24" viewBox="0 0 24 24" fill="none" xmlns="http://www.w3.org/2000/svg">
<path d="M20.2738 13.48C20.2738 13.48 20.2044 13.44 20.1746 13.43C19.6786 13.16 19.1131 13.01 18.5278 13.01C18.5079 13.01 18.4881 13.01 18.4683 13.01L16.2956 8H17.5456C17.8234 8 18.0417 7.78 18.0417 7.5V6.5C18.0417 6.22 17.8234 6 17.5456 6H15.4325L15.3433 5.8C14.8671 4.71 13.7956 4 12.6151 4H12.0972C11.5449 4 11.0972 4.44772 11.0972 5C11.0972 5.55228 11.5449 6 12.0972 6H12.6151C13.0119 6 13.369 6.24 13.5278 6.6L14.5694 9H10.6706C10.3829 9 10.1151 9.12 9.92659 9.33L7.55556 12.01L4.85714 9.29C4.66865 9.1 4.42063 9 4.15278 9H3C2.44771 9 2 9.44772 2 10C2 10.5523 2.44772 11 3 11H3.31956C3.58616 11 3.84172 11.1065 4.02948 11.2957L5.73016 13.01C5.73016 13.01 5.67063 13 5.63095 13C4.52976 13 3.51786 13.51 2.8631 14.38C2.56548 14.77 2.3373 15.25 2.21825 15.81C2.17857 16.03 2.14881 16.26 2.14881 16.5C2.14881 18.43 3.70635 20 5.62103 20C7.53571 20 9.09325 18.43 9.09325 16.5C9.09325 16.47 9.09325 16.44 9.09325 16.4L10.3829 17.7C10.5714 17.89 10.8194 17.99 11.0873 17.99H13.0714C13.3194 17.99 13.5675 17.89 13.746 17.72L15.0556 16.49C15.0556 18.42 16.6131 19.98 18.5278 19.98C20.4425 19.98 22 18.41 22 16.48C22 15.24 21.3353 14.08 20.2738 13.45V13.48ZM5.63095 18.01C4.80754 18.01 4.14286 17.34 4.14286 16.51C4.14286 16.4 4.15278 16.3 4.17262 16.22C4.22222 15.99 4.31151 15.77 4.44048 15.61C4.72817 15.23 5.16468 15.01 5.63095 15.01C5.88889 15.01 6.14683 15.08 6.36508 15.2C6.38492 15.21 6.40476 15.22 6.43452 15.23C6.78175 15.46 7.01984 15.81 7.09921 16.19C7.11905 16.29 7.12897 16.4 7.12897 16.5C7.12897 17.33 6.46429 18 5.64087 18L5.63095 18.01ZM18.5278 18.01C17.7044 18.01 17.0397 17.34 17.0397 16.51C17.0397 16.19 17.1488 15.87 17.3373 15.61C17.625 15.23 18.0615 15.01 18.5278 15.01C18.7857 15.01 19.0437 15.08 19.2619 15.2C19.2817 15.21 19.3016 15.22 19.3313 15.24C19.7579 15.52 20.0258 16 20.0258 16.51C20.0258 17.34 19.3611 18.01 18.5377 18.01H18.5278Z" fill="#141414"/>
</svg>
