<svg width="24" height="24" viewBox="0 0 24 24" fill="none" xmlns="http://www.w3.org/2000/svg">
<path fill-rule="evenodd" clip-rule="evenodd" d="M15.764 3.5C16.3211 3.50002 16.8671 3.65513 17.341 3.94797C17.8148 4.2408 18.1978 4.65979 18.447 5.158L19.833 7.929C20.077 7.829 20.317 7.721 20.553 7.605C20.7904 7.48645 21.0651 7.46705 21.3168 7.55106C21.5685 7.63508 21.7764 7.81563 21.895 8.053C22.0136 8.29037 22.033 8.56511 21.9489 8.81678C21.8649 9.06846 21.6844 9.27645 21.447 9.395C21.2066 9.502 20.9649 9.60601 20.722 9.707L21.683 11.63C21.8916 12.047 22.0001 12.5068 22 12.973V15.5C22.0006 15.9222 21.9118 16.3397 21.7395 16.7251C21.5671 17.1105 21.3151 17.455 21 17.736V19C21 19.3978 20.842 19.7794 20.5607 20.0607C20.2794 20.342 19.8978 20.5 19.5 20.5C19.1022 20.5 18.7206 20.342 18.4393 20.0607C18.158 19.7794 18 19.3978 18 19V18.5H6V19C6 19.3978 5.84196 19.7794 5.56066 20.0607C5.27936 20.342 4.89782 20.5 4.5 20.5C4.10218 20.5 3.72064 20.342 3.43934 20.0607C3.15804 19.7794 3 19.3978 3 19V17.736C2.386 17.186 2 16.388 2 15.5V12.972C2.00019 12.5065 2.10872 12.0473 2.317 11.631L3.27 9.723C3.029 9.621 2.79 9.513 2.555 9.396C2.31883 9.27591 2.13931 9.06782 2.05513 8.8166C1.97096 8.56538 1.98887 8.29114 2.105 8.053C2.16366 7.93543 2.24491 7.83057 2.34412 7.74442C2.44332 7.65826 2.55853 7.5925 2.68316 7.5509C2.80779 7.50929 2.9394 7.49266 3.07046 7.50194C3.20153 7.51122 3.32948 7.54624 3.447 7.605C3.683 7.722 3.924 7.829 4.167 7.929L5.553 5.159C5.80205 4.66061 6.18497 4.24141 6.65885 3.94839C7.13273 3.65538 7.67884 3.50011 8.236 3.5H15.764ZM7.5 12.5C7.10218 12.5 6.72064 12.658 6.43934 12.9393C6.15804 13.2206 6 13.6022 6 14C6 14.3978 6.15804 14.7794 6.43934 15.0607C6.72064 15.342 7.10218 15.5 7.5 15.5C7.89782 15.5 8.27936 15.342 8.56066 15.0607C8.84196 14.7794 9 14.3978 9 14C9 13.6022 8.84196 13.2206 8.56066 12.9393C8.27936 12.658 7.89782 12.5 7.5 12.5ZM16.5 12.5C16.1022 12.5 15.7206 12.658 15.4393 12.9393C15.158 13.2206 15 13.6022 15 14C15 14.3978 15.158 14.7794 15.4393 15.0607C15.7206 15.342 16.1022 15.5 16.5 15.5C16.8978 15.5 17.2794 15.342 17.5607 15.0607C17.842 14.7794 18 14.3978 18 14C18 13.6022 17.842 13.2206 17.5607 12.9393C17.2794 12.658 16.8978 12.5 16.5 12.5ZM8.236 5.5C8.07141 5.49998 7.90935 5.54058 7.76422 5.61821C7.61908 5.69583 7.49535 5.80808 7.404 5.945L7.342 6.053L6.072 8.591C7.62 9.055 9.706 9.5 12 9.5C14.142 9.5 16.101 9.112 17.61 8.683L17.927 8.591L16.658 6.053C16.5844 5.90581 16.4756 5.77907 16.3413 5.684C16.207 5.58893 16.0513 5.52847 15.888 5.508L15.765 5.5H8.236Z" fill="#141414"/>
</svg>
