<svg width="24" height="24" viewBox="0 0 24 24" fill="none" xmlns="http://www.w3.org/2000/svg">
<path fill-rule="evenodd" clip-rule="evenodd" d="M7.58 3.5C7.22747 3.50011 6.88124 3.59341 6.57637 3.77042C6.27151 3.94744 6.01885 4.20189 5.844 4.508L2.264 10.773C2.09103 11.0754 2.00002 11.4177 2 11.766V16.264C2.00002 16.5743 2.07226 16.8804 2.211 17.158L3.329 19.394C3.49506 19.7263 3.75039 20.0058 4.06637 20.2012C4.38236 20.3965 4.74651 20.5 5.118 20.5H6C6.53043 20.5 7.03914 20.2893 7.41421 19.9142C7.78929 19.5391 8 19.0304 8 18.5H16C16 19.0304 16.2107 19.5391 16.5858 19.9142C16.9609 20.2893 17.4696 20.5 18 20.5H18.882C19.2535 20.5 19.6176 20.3965 19.9336 20.2012C20.2496 20.0058 20.5049 19.7263 20.671 19.394L21.789 17.158C21.928 16.881 22 16.574 22 16.264V11.766C22 11.4177 21.909 11.0754 21.736 10.773L18.156 4.508C17.9811 4.20189 17.7285 3.94744 17.4236 3.77042C17.1188 3.59341 16.7725 3.50011 16.42 3.5H7.58ZM12 11.5C10.403 11.5 8.928 11.157 7.447 10.605C7.20963 10.4864 6.93489 10.467 6.68322 10.5511C6.43154 10.6351 6.22355 10.8156 6.105 11.053C5.98645 11.2904 5.96705 11.5651 6.05106 11.8168C6.13508 12.0685 6.31563 12.2764 6.553 12.395C7.047 12.64 9.56 13.5 12 13.5C13.854 13.5 15.768 13.226 17.445 12.396C17.6812 12.2759 17.8607 12.0678 17.9449 11.8166C18.029 11.5654 18.0111 11.2911 17.895 11.053C17.8363 10.9354 17.7551 10.8306 17.6559 10.7444C17.5567 10.6583 17.4415 10.5925 17.3168 10.5509C17.1922 10.5093 17.0606 10.4927 16.9295 10.5019C16.7985 10.5112 16.6705 10.5462 16.553 10.605C15.188 11.287 13.496 11.5 12 11.5Z" fill="#141414"/>
</svg>
