<svg width="24" height="24" viewBox="0 0 24 24" fill="none" xmlns="http://www.w3.org/2000/svg">
<path d="M21.5402 15.15C21.7977 15.15 22 15.348 22 15.6V16.5C22 17.994 20.7678 19.2 19.2414 19.2C19.2414 17.715 18 16.5 16.4828 16.5C14.9655 16.5 13.7241 17.715 13.7241 19.2H11.8851C11.8851 17.715 10.6437 16.5 9.12644 16.5C7.6092 16.5 6.36782 17.715 6.36782 19.2C4.84138 19.2 3.6092 17.994 3.6092 16.5V14.7C3.6092 14.205 4.02299 13.8 4.52874 13.8H13.2644C14.5333 13.8 15.5632 12.792 15.5632 11.55V6.6C15.5632 6.105 15.977 5.7 16.4828 5.7H17.2552C17.9172 5.7 18.5241 6.051 18.8552 6.609L19.4437 7.617C19.5264 7.761 19.4161 7.95 19.2414 7.95C17.9724 7.95 16.9425 8.958 16.9425 10.2V12.9C16.9425 14.142 17.9724 15.15 19.2414 15.15H21.5402Z" fill="#141414"/>
<path d="M9.12644 21C10.1421 21 10.9655 20.1941 10.9655 19.2C10.9655 18.2059 10.1421 17.4 9.12644 17.4C8.11074 17.4 7.28736 18.2059 7.28736 19.2C7.28736 20.1941 8.11074 21 9.12644 21Z" fill="#141414"/>
<path d="M16.4828 21C17.4985 21 18.3218 20.1941 18.3218 19.2C18.3218 18.2059 17.4985 17.4 16.4828 17.4C15.4671 17.4 14.6437 18.2059 14.6437 19.2C14.6437 20.1941 15.4671 21 16.4828 21Z" fill="#141414"/>
<path d="M22 12.477V13.8H19.2414C18.7356 13.8 18.3218 13.395 18.3218 12.9V10.2C18.3218 9.705 18.7356 9.3 19.2414 9.3H20.4276L21.7609 11.586C21.9172 11.856 22 12.162 22 12.477Z" fill="#141414"/>
<path d="M13.7977 3H7.0023C5.35632 3 3.97701 4.152 3.67356 5.682H7.69195C8.04138 5.682 8.31724 5.961 8.31724 6.303C8.31724 6.645 8.04138 6.915 7.69195 6.915H3.6092V8.157H6C6.34943 8.157 6.63448 8.436 6.63448 8.778C6.63448 9.12 6.34943 9.39 6 9.39H3.6092V10.632H4.31724C4.66667 10.632 4.95172 10.911 4.95172 11.253C4.95172 11.595 4.66667 11.865 4.31724 11.865H3.6092V12.072C3.6092 12.567 4.02299 12.972 4.52874 12.972H12.9425C13.8805 12.972 14.6437 12.225 14.6437 11.307V3.828C14.6437 3.369 14.2667 3 13.7977 3Z" fill="#141414"/>
<path d="M3.67356 5.682H2.63448C2.28506 5.682 2 5.961 2 6.303C2 6.645 2.28506 6.915 2.63448 6.915H3.6092V6.321C3.6092 6.105 3.63678 5.889 3.67356 5.682Z" fill="#141414"/>
<path d="M2.63448 8.157C2.28506 8.157 2 8.436 2 8.778C2 9.12 2.28506 9.39 2.63448 9.39H3.6092V8.157H2.63448Z" fill="#141414"/>
<path d="M2.63448 10.632C2.28506 10.632 2 10.911 2 11.253C2 11.595 2.28506 11.865 2.63448 11.865H3.6092V10.632H2.63448Z" fill="#141414"/>
</svg>
