<svg width="24" height="24" viewBox="0 0 24 24" fill="none" xmlns="http://www.w3.org/2000/svg">
<path d="M12.1161 18.3218C11.7303 18.3218 11.4105 18.0092 11.4105 17.6322V16.7126C11.4105 16.3356 11.7303 16.023 12.1161 16.023C12.5018 16.023 12.8217 16.3356 12.8217 16.7126V17.6322C12.8217 18.0092 12.5018 18.3218 12.1161 18.3218Z" fill="#141414"/>
<path d="M12.1161 22C11.7303 22 11.4105 21.6874 11.4105 21.3103V20.3908C11.4105 20.0138 11.7303 19.7011 12.1161 19.7011C12.5018 19.7011 12.8217 20.0138 12.8217 20.3908V21.3103C12.8217 21.6874 12.5018 22 12.1161 22Z" fill="#141414"/>
<path d="M2.70757 22C2.65112 22 2.59467 21.9908 2.53822 21.9816C2.16187 21.8897 1.92666 21.5126 2.02075 21.1448L2.9616 17.4667C3.05568 17.0989 3.43203 16.869 3.81778 16.9609C4.19412 17.0529 4.42933 17.4299 4.33524 17.7977L3.39439 21.4759C3.30971 21.7885 3.02746 22 2.70757 22Z" fill="#141414"/>
<path d="M21.2919 21.7725C20.972 21.7725 20.6897 21.561 20.6051 21.2484L19.6642 17.5702C19.5701 17.2024 19.7959 16.8254 20.1817 16.7335C20.558 16.6415 20.9438 16.8622 21.0379 17.2392L21.9787 20.9174C22.0728 21.2852 21.847 21.6622 21.4612 21.7541C21.4048 21.7633 21.3483 21.7725 21.2919 21.7725Z" fill="#141414"/>
<path d="M18.8338 5.95402C18.8338 6.22989 18.5986 6.45057 18.3257 6.45057H6.02878C5.74652 6.45057 5.52072 6.22069 5.52072 5.95402C5.52072 5.67816 5.75593 5.45747 6.02878 5.45747H6.72501L6.98845 4.25287C7.23307 3.07586 7.74113 2 9.77337 2H14.5623C16.5946 2 17.112 3.07586 17.3566 4.24368L17.6201 5.44828H18.3163C18.5986 5.44828 18.8338 5.67816 18.8338 5.95402Z" fill="#141414"/>
<path d="M19.1254 9.72414C19.022 8.62069 18.7209 7.45287 16.5287 7.45287H7.8164C5.62421 7.45287 5.33255 8.62988 5.21965 9.72414L4.8339 13.7885C4.78685 14.2943 4.95621 14.8 5.31373 15.1862C5.68066 15.5724 6.18872 15.7931 6.73442 15.7931H8.01398C9.12418 15.7931 9.33117 15.177 9.4723 14.7632L9.61343 14.3586C9.77337 13.8989 9.81101 13.7885 10.4226 13.7885H13.9225C14.5341 13.7885 14.5529 13.8529 14.7317 14.3586L14.8728 14.7632C15.0045 15.177 15.2209 15.7931 16.3217 15.7931H17.6013C18.1376 15.7931 18.655 15.5724 19.022 15.1862C19.3795 14.8092 19.5488 14.2943 19.5018 13.7885L19.1254 9.72414ZM10.1215 11.1218H8.07984C7.79758 11.1218 7.57178 10.892 7.57178 10.6253C7.57178 10.3586 7.80699 10.1287 8.07984 10.1287H10.1309C10.4132 10.1287 10.639 10.3586 10.639 10.6253C10.639 10.892 10.4037 11.1218 10.1215 11.1218ZM16.2653 11.1218H14.2142C13.9319 11.1218 13.7061 10.892 13.7061 10.6253C13.7061 10.3586 13.9413 10.1287 14.2142 10.1287H16.2653C16.5475 10.1287 16.7733 10.3586 16.7733 10.6253C16.7733 10.892 16.5475 11.1218 16.2653 11.1218Z" fill="#141414"/>
</svg>
