<svg width="24" height="24" viewBox="0 0 24 24" fill="none" xmlns="http://www.w3.org/2000/svg">
<path d="M5.5 16C6.29565 16 7.05871 16.3161 7.62132 16.8787C8.18393 17.4413 8.5 18.2044 8.5 19C8.5 19.7956 8.18393 20.5587 7.62132 21.1213C7.05871 21.6839 6.29565 22 5.5 22C4.70435 22 3.94129 21.6839 3.37868 21.1213C2.81607 20.5587 2.5 19.7956 2.5 19C2.5 18.2044 2.81607 17.4413 3.37868 16.8787C3.94129 16.3161 4.70435 16 5.5 16ZM18.5 16C19.2956 16 20.0587 16.3161 20.6213 16.8787C21.1839 17.4413 21.5 18.2044 21.5 19C21.5 19.7956 21.1839 20.5587 20.6213 21.1213C20.0587 21.6839 19.2956 22 18.5 22C17.7044 22 16.9413 21.6839 16.3787 21.1213C15.8161 20.5587 15.5 19.7956 15.5 19C15.5 18.2044 15.8161 17.4413 16.3787 16.8787C16.9413 16.3161 17.7044 16 18.5 16ZM5.5 18C5.23478 18 4.98043 18.1054 4.79289 18.2929C4.60536 18.4804 4.5 18.7348 4.5 19C4.5 19.2652 4.60536 19.5196 4.79289 19.7071C4.98043 19.8946 5.23478 20 5.5 20C5.76522 20 6.01957 19.8946 6.20711 19.7071C6.39464 19.5196 6.5 19.2652 6.5 19C6.5 18.7348 6.39464 18.4804 6.20711 18.2929C6.01957 18.1054 5.76522 18 5.5 18ZM18.5 18C18.2348 18 17.9804 18.1054 17.7929 18.2929C17.6054 18.4804 17.5 18.7348 17.5 19C17.5 19.2652 17.6054 19.5196 17.7929 19.7071C17.9804 19.8946 18.2348 20 18.5 20C18.7652 20 19.0196 19.8946 19.2071 19.7071C19.3946 19.5196 19.5 19.2652 19.5 19C19.5 18.7348 19.3946 18.4804 19.2071 18.2929C19.0196 18.1054 18.7652 18 18.5 18ZM17.5 2C17.7652 2 18.0196 2.10536 18.2071 2.29289C18.3946 2.48043 18.5 2.73478 18.5 3C18.5 3.26522 18.3946 3.51957 18.2071 3.70711C18.0196 3.89464 17.7652 4 17.5 4H16.81L19.461 13.724C19.5019 13.8738 19.5077 14.031 19.478 14.1835C19.4482 14.3359 19.3837 14.4794 19.2895 14.6028C19.1953 14.7263 19.0738 14.8263 18.9347 14.8952C18.7955 14.9641 18.6423 14.9999 18.487 15H17.731C17.2465 15 16.7715 15.1349 16.3592 15.3896C15.947 15.6443 15.6138 16.0087 15.397 16.442C15.226 16.784 14.877 17 14.494 17H10.328C9.185 17 8.426 16.34 7.672 15.586C7.48621 15.4002 7.26561 15.2527 7.02281 15.1522C6.78002 15.0516 6.51979 14.9999 6.257 15H4.5C4.23478 15 3.98043 14.8946 3.79289 14.7071C3.60536 14.5196 3.5 14.2652 3.5 14C3.5 13.7348 3.60536 13.4804 3.79289 13.2929C3.98043 13.1054 4.23478 13 4.5 13H6.257C6.78241 13 7.30268 13.1035 7.78809 13.3046C8.2735 13.5057 8.71453 13.8004 9.086 14.172L9.376 14.475C9.64 14.748 9.93 15 10.328 15H13.931C14.3035 14.4574 14.7879 14.0008 15.3516 13.661C15.9153 13.3212 16.5452 13.106 17.199 13.03L14.736 4H13.5C13.2348 4 12.9804 3.89464 12.7929 3.70711C12.6054 3.51957 12.5 3.26522 12.5 3C12.5 2.73478 12.6054 2.48043 12.7929 2.29289C12.9804 2.10536 13.2348 2 13.5 2H17.5Z" fill="#141414"/>
</svg>
