<svg width="24" height="24" viewBox="0 0 24 24" fill="none" xmlns="http://www.w3.org/2000/svg">
<path d="M2.46795 9.20094H4.03956C4.50889 9.20094 4.94644 9.4394 5.20635 9.83716L5.72617 10.6298L9.91932 10.1557L9.9234 10.1542L9.92638 10.151L9.9276 10.1467L9.9268 10.1424L7.05283 3.67341C7.02063 3.60075 7.0068 3.521 7.01261 3.44146C7.01842 3.36193 7.04369 3.28516 7.0861 3.21816C7.12851 3.15117 7.18672 3.0961 7.25538 3.05798C7.32405 3.01987 7.40099 2.99994 7.47916 3H9.30694C9.52942 2.99994 9.74872 3.05389 9.94672 3.15738C10.1447 3.26088 10.3158 3.41095 10.4457 3.5952L15.0745 10.1538L19.4107 10.4944C19.9332 10.5352 20.434 10.7246 20.8564 11.0411C21.2787 11.3575 21.6058 11.7883 21.8004 12.2847L21.935 12.6291C21.9827 12.7505 22.0045 12.8809 21.9992 13.0116C21.9939 13.1423 21.9615 13.2704 21.9042 13.3874C21.678 13.8488 21.3303 14.2368 20.9002 14.5081C20.47 14.7793 19.9744 14.923 19.4687 14.9231H4.83518C4.5478 14.9232 4.26733 14.8332 4.03171 14.6653C3.7961 14.4974 3.61673 14.2598 3.51787 13.9845L2.02853 9.84193C2.00264 9.76982 1.99419 9.69239 2.00392 9.61624C2.01365 9.54009 2.04125 9.46746 2.0844 9.40452C2.12754 9.34159 2.18494 9.29022 2.25172 9.25478C2.31849 9.21933 2.39267 9.20086 2.46795 9.20094ZM3.77871 19.0923C3.53076 19.0923 3.29295 19.1928 3.11762 19.3717C2.94229 19.5506 2.84379 19.7932 2.84379 20.0462C2.84379 20.2991 2.94229 20.5417 3.11762 20.7206C3.29295 20.8995 3.53076 21 3.77871 21H20.6074C20.8554 21 21.0932 20.8995 21.2685 20.7206C21.4438 20.5417 21.5423 20.2991 21.5423 20.0462C21.5423 19.7932 21.4438 19.5506 21.2685 19.3717C21.0932 19.1928 20.8554 19.0923 20.6074 19.0923H3.77871Z" fill="#141414"/>
</svg>
