<svg width="24" height="24" viewBox="0 0 24 24" fill="none" xmlns="http://www.w3.org/2000/svg">
<g clip-path="url(#clip0_32_6156)">
<path d="M21 20C21.2549 20.0003 21.5 20.0979 21.6854 20.2728C21.8707 20.4478 21.9822 20.687 21.9972 20.9414C22.0121 21.1958 21.9293 21.4464 21.7657 21.6418C21.6021 21.8373 21.3701 21.9629 21.117 21.993L21 22H3C2.74512 21.9997 2.49997 21.9021 2.31463 21.7271C2.1293 21.5522 2.01777 21.313 2.00283 21.0586C1.98789 20.8042 2.07067 20.5536 2.23426 20.3582C2.39786 20.1627 2.6299 20.0371 2.883 20.007L3 20H21ZM7.93 4.177L14.493 9.537L19.066 8.682C19.6167 8.57915 20.1852 8.63255 20.7071 8.83615C21.229 9.03975 21.6834 9.38542 22.019 9.834L22.181 10.053C22.361 10.31 22.497 10.577 22.426 10.921C22.3176 11.4511 22.0637 11.9404 21.6928 12.3343C21.3219 12.7282 20.8486 13.011 20.326 13.151L5.208 17.2C4.91144 17.2794 4.59766 17.2658 4.30904 17.1612C4.02041 17.0566 3.77083 16.866 3.594 16.615L0.93 12.833C0.883841 12.7672 0.854241 12.6912 0.84371 12.6115C0.833179 12.5317 0.842028 12.4507 0.869506 12.3751C0.896985 12.2995 0.942282 12.2317 1.00156 12.1774C1.06083 12.123 1.13233 12.0838 1.21 12.063L2.833 11.627C3.0716 11.563 3.32232 11.5589 3.56289 11.615C3.80346 11.6712 4.02643 11.7859 4.212 11.949L4.958 12.605L4.968 12.607L9.168 10.967L9.17197 10.9643L9.17421 10.9601L9.17423 10.9553L9.172 10.951L4.447 5.196C4.39399 5.13138 4.35804 5.05449 4.34241 4.97239C4.32679 4.89028 4.33199 4.80556 4.35756 4.72599C4.38312 4.64641 4.42822 4.57451 4.48875 4.51686C4.54927 4.45922 4.62327 4.41766 4.704 4.396L6.594 3.89C6.8235 3.82862 7.06431 3.82263 7.29658 3.87253C7.52885 3.92243 7.74595 4.02678 7.93 4.177Z" fill="#141414"/>
</g>
<defs>
<clipPath id="clip0_32_6156">
<rect width="24" height="24" fill="white"/>
</clipPath>
</defs>
</svg>
