<svg width="24" height="24" viewBox="0 0 24 24" fill="none" xmlns="http://www.w3.org/2000/svg">
<path d="M20.6622 18.6278C20.8982 18.6281 21.1251 18.7195 21.2967 18.8833C21.4682 19.047 21.5715 19.2709 21.5853 19.5091C21.5991 19.7472 21.5225 19.9818 21.3711 20.1647C21.2196 20.3477 21.0048 20.4653 20.7705 20.4934L20.6622 20.5H4.00002C3.76408 20.4997 3.53715 20.4084 3.36559 20.2446C3.19403 20.0808 3.09078 19.857 3.07696 19.6188C3.06313 19.3806 3.13976 19.1461 3.29119 18.9631C3.44263 18.7802 3.65743 18.6626 3.89171 18.6344L4.00002 18.6278H20.6622ZM8.56361 3.81632L14.6388 8.83369L18.872 8.03335C19.3817 7.93707 19.908 7.98706 20.3911 8.17764C20.8742 8.36823 21.2949 8.6918 21.6055 9.1117L21.7555 9.31671C21.9221 9.55728 22.048 9.80721 21.9822 10.1292C21.8819 10.6254 21.6469 11.0835 21.3035 11.4522C20.9602 11.8209 20.5221 12.0856 20.0383 12.2167L6.04392 16.0068C5.76939 16.0811 5.47894 16.0685 5.21176 15.9705C4.94459 15.8726 4.71356 15.6941 4.54987 15.4592L2.08386 11.919C2.04114 11.8574 2.01374 11.7862 2.00399 11.7116C1.99424 11.637 2.00243 11.5611 2.02787 11.4904C2.0533 11.4196 2.09523 11.3561 2.1501 11.3053C2.20497 11.2544 2.27116 11.2177 2.34305 11.1982L3.84543 10.7901C4.06629 10.7301 4.29838 10.7263 4.52107 10.7789C4.74376 10.8315 4.95016 10.9389 5.12194 11.0915L5.8125 11.7056L5.82175 11.7074L9.7096 10.1723L9.71327 10.1697L9.71535 10.1658L9.71536 10.1613L9.7133 10.1573L5.33947 4.77019C5.29041 4.70969 5.25712 4.63773 5.24266 4.56087C5.22819 4.48401 5.23301 4.40471 5.25668 4.33022C5.28034 4.25573 5.32209 4.18842 5.37812 4.13446C5.43414 4.0805 5.50265 4.0416 5.57737 4.02132L7.32691 3.54767C7.53935 3.49022 7.76226 3.48461 7.97727 3.53132C8.19228 3.57803 8.39324 3.67571 8.56361 3.81632Z" fill="#141414"/>
</svg>
