<svg width="24" height="24" viewBox="0 0 24 24" fill="none" xmlns="http://www.w3.org/2000/svg">
<path d="M20.9479 19.9911C21.2124 19.9911 21.466 20.097 21.6531 20.2853C21.8401 20.4737 21.9451 20.7292 21.9451 20.9956C21.9451 21.262 21.8401 21.5174 21.6531 21.7058C21.466 21.8942 21.2124 22 20.9479 22H2.99726C2.73277 22 2.47911 21.8942 2.29209 21.7058C2.10507 21.5174 2 21.262 2 20.9956C2 20.7292 2.10507 20.4737 2.29209 20.2853C2.47911 20.097 2.73277 19.9911 2.99726 19.9911H20.9479ZM9.71678 2.01777L11.6016 2.52601C11.8307 2.58796 12.0418 2.70387 12.2176 2.8642C12.3934 3.02452 12.5289 3.22465 12.6128 3.44808L15.6046 11.4032L15.6073 11.4071L15.6116 11.4092L19.9825 12.9591C20.5097 13.1459 20.9744 13.4777 21.3239 13.9169C21.6734 14.3561 21.8938 14.8852 21.9601 15.4441C22.009 15.8549 22.0678 16.2546 21.7686 16.5951C21.4106 17.0014 20.9474 17.2993 20.4308 17.4554C19.9142 17.6115 19.3646 17.6197 18.8437 17.479L3.76614 13.4121C3.4701 13.3322 3.20555 13.1627 3.00828 12.9265C2.81101 12.6903 2.69054 12.3987 2.66318 12.0912L2.25031 7.46281C2.2431 7.38232 2.25528 7.30126 2.28582 7.22653C2.31636 7.15179 2.36436 7.08558 2.42574 7.03352C2.48712 6.98147 2.56006 6.9451 2.63838 6.9275C2.71669 6.90991 2.79807 6.91161 2.87559 6.93247L4.49514 7.3694C4.73305 7.43352 4.95156 7.55582 5.13127 7.72544C5.31098 7.89505 5.44633 8.10673 5.5253 8.34169L5.84343 9.28787L5.84641 9.29254L5.85141 9.2949L10.2952 9.97591L10.2996 9.97539L10.3033 9.97302L10.3056 9.96927L10.3062 9.96486L9.09549 2.58427C9.08177 2.50134 9.08895 2.41626 9.11636 2.33685C9.14377 2.25744 9.19054 2.18623 9.25237 2.12975C9.3142 2.07327 9.38912 2.03333 9.47026 2.01359C9.5514 1.99384 9.63616 1.99594 9.71678 2.01777Z" fill="#141414"/>
</svg>
