<svg width="24" height="24" viewBox="0 0 24 24" fill="none" xmlns="http://www.w3.org/2000/svg">
<g clip-path="url(#clip0_32_6157)">
<path d="M1.598 9.63H3.279C3.781 9.63 4.249 9.88 4.527 10.297L5.083 11.128L9.568 10.631L9.57237 10.6294L9.57555 10.626L9.57685 10.6216L9.576 10.617L6.502 3.835C6.46755 3.75881 6.45276 3.67521 6.45898 3.59183C6.46519 3.50845 6.49222 3.42795 6.53758 3.35772C6.58295 3.28748 6.6452 3.22975 6.71865 3.18979C6.79209 3.14983 6.87439 3.12893 6.958 3.129H8.913C9.15096 3.12894 9.38552 3.1855 9.59731 3.294C9.8091 3.4025 9.99203 3.55983 10.131 3.753L15.082 10.629L19.72 10.986C20.2788 11.0289 20.8145 11.2274 21.2663 11.5592C21.718 11.8909 22.0678 12.3426 22.276 12.863L22.42 13.224C22.471 13.3513 22.4944 13.488 22.4887 13.625C22.483 13.7621 22.4483 13.8963 22.387 14.019C22.1451 14.5027 21.7732 14.9096 21.3131 15.1939C20.853 15.4783 20.3229 15.6289 19.782 15.629H4.13C3.82262 15.6291 3.52262 15.5348 3.27061 15.3588C3.0186 15.1828 2.82674 14.9336 2.721 14.645L1.128 10.302C1.1003 10.2264 1.09127 10.1452 1.10168 10.0654C1.11208 9.98555 1.14161 9.90941 1.18775 9.84343C1.2339 9.77746 1.29529 9.7236 1.36672 9.68644C1.43814 9.64928 1.51749 9.62992 1.598 9.63ZM3 20C2.73478 20 2.48043 20.1054 2.29289 20.2929C2.10536 20.4804 2 20.7348 2 21C2 21.2652 2.10536 21.5196 2.29289 21.7071C2.48043 21.8946 2.73478 22 3 22H21C21.2652 22 21.5196 21.8946 21.7071 21.7071C21.8946 21.5196 22 21.2652 22 21C22 20.7348 21.8946 20.4804 21.7071 20.2929C21.5196 20.1054 21.2652 20 21 20H3Z" fill="#141414"/>
</g>
<defs>
<clipPath id="clip0_32_6157">
<rect width="24" height="24" fill="white"/>
</clipPath>
</defs>
</svg>
