<svg width="24" height="24" viewBox="0 0 24 24" fill="none" xmlns="http://www.w3.org/2000/svg">
<path d="M21.6186 9.21181L19.7581 8.29614C19.414 8.13133 18.986 8.25952 18.8186 8.59831C18.6419 8.94626 18.7814 9.35831 19.1256 9.52313L20.6047 10.2465V14.6325L17.1163 14.6417V5.24699C17.1163 3.41566 15.8698 2.5 14.3256 2.5H6.88372C5.33953 2.5 4.09302 3.41566 4.09302 5.24699V20.1265H2.69767C2.31628 20.1265 2 20.4378 2 20.8133C2 21.1887 2.31628 21.5 2.69767 21.5H18.5116C18.893 21.5 19.2093 21.1887 19.2093 20.8133C19.2093 20.4378 18.893 20.1265 18.5116 20.1265H17.1163V16.0152L21.3023 16.006C21.693 16.006 22 15.6947 22 15.3193V9.8253C22 9.56892 21.8512 9.33084 21.6186 9.21181ZM6.4186 6.97759C6.4186 5.70482 7.2093 5.24699 8.17674 5.24699H13.0419C14 5.24699 14.7907 5.70482 14.7907 6.97759V8.10386C14.7907 9.36747 14 9.8253 13.0326 9.8253H8.17674C7.2093 9.8253 6.4186 9.36747 6.4186 8.0947V6.97759ZM6.88372 11.8855H9.67442C10.0558 11.8855 10.3721 12.1969 10.3721 12.5723C10.3721 12.9477 10.0558 13.259 9.67442 13.259H6.88372C6.50233 13.259 6.18605 12.9477 6.18605 12.5723C6.18605 12.1969 6.50233 11.8855 6.88372 11.8855Z" fill="#141414"/>
</svg>
