<svg width="24" height="24" viewBox="0 0 24 24" fill="none" xmlns="http://www.w3.org/2000/svg">
<path d="M20.5201 19.1552C20.7488 19.3883 20.9045 19.6852 20.9676 20.0084C21.0307 20.3316 20.9982 20.6666 20.8745 20.971C20.7507 21.2755 20.5411 21.5357 20.2721 21.7189C20.0032 21.902 19.6869 21.9998 19.3634 22H4.63658C4.31297 22.0001 3.99661 21.9024 3.7275 21.7193C3.4584 21.5362 3.24862 21.276 3.12471 20.9715C3.0008 20.667 2.96831 20.3319 3.03135 20.0086C3.09439 19.6854 3.25014 19.3884 3.47889 19.1552C3.48357 19.151 3.48801 19.1464 3.49218 19.1417L10.8167 12L3.4932 4.85833C3.48903 4.85356 3.48459 4.84904 3.47991 4.84479C3.25122 4.61171 3.0955 4.3148 3.03242 3.9916C2.96935 3.66841 3.00175 3.33341 3.12554 3.02897C3.24932 2.72452 3.45894 2.46428 3.72789 2.28113C3.99684 2.09798 4.31306 2.00015 4.63658 2H19.3634C19.687 1.99995 20.0034 2.09763 20.2725 2.2807C20.5416 2.46376 20.7514 2.72399 20.8753 3.02848C20.9992 3.33297 21.0317 3.66805 20.9686 3.99135C20.9056 4.31465 20.7499 4.61164 20.5211 4.84479C20.5164 4.84904 20.512 4.85356 20.5078 4.85833L13.1833 12L20.5068 19.1417C20.511 19.1464 20.5154 19.151 20.5201 19.1552Z" fill="#141414"/>
</svg>
