<svg width="24" height="24" viewBox="0 0 24 24" fill="none" xmlns="http://www.w3.org/2000/svg">
<path d="M21.0685 7.9417C21.0685 8.31858 20.7522 8.63111 20.3709 8.63111H3.62911C3.24777 8.63111 2.93154 8.31858 2.93154 7.9417C2.93154 7.56483 3.24777 7.2523 3.62911 7.2523H4.57781L4.93125 5.58853C5.26609 3.97992 5.96366 2.5 8.73535 2.5H15.2646C18.0363 2.5 18.7339 3.97992 19.0687 5.58853L19.4222 7.2523H20.3709C20.7522 7.2523 21.0685 7.56483 21.0685 7.9417Z" fill="#141414"/>
<path d="M21.4684 13.1444C21.3289 11.6277 20.9196 10.0099 17.934 10.0099H6.06597C3.08036 10.0099 2.68041 11.6277 2.5316 13.1444L2.01074 18.7424C1.94564 19.441 2.17816 20.1396 2.66181 20.6635C3.15476 21.1967 3.85234 21.5 4.59642 21.5H6.345C7.85176 21.5 8.14009 20.6451 8.32611 20.0844L8.51213 19.5329C8.72605 18.8986 8.78186 18.7424 9.61895 18.7424H14.3811C15.2181 18.7424 15.246 18.8343 15.4879 19.5329L15.6739 20.0844C15.8599 20.6451 16.1482 21.5 17.655 21.5H19.4036C20.1384 21.5 20.8452 21.1967 21.3382 20.6635C21.8218 20.1396 22.0544 19.441 21.9893 18.7424L21.4684 13.1444ZM9.2097 15.0656H6.41941C6.03807 15.0656 5.72184 14.753 5.72184 14.3761C5.72184 13.9993 6.03807 13.6867 6.41941 13.6867H9.2097C9.59105 13.6867 9.90728 13.9993 9.90728 14.3761C9.90728 14.753 9.59105 15.0656 9.2097 15.0656ZM17.5806 15.0656H14.7903C14.409 15.0656 14.0927 14.753 14.0927 14.3761C14.0927 13.9993 14.409 13.6867 14.7903 13.6867H17.5806C17.9619 13.6867 18.2782 13.9993 18.2782 14.3761C18.2782 14.753 17.9619 15.0656 17.5806 15.0656Z" fill="#141414"/>
</svg>
