<svg width="24" height="24" viewBox="0 0 24 24" fill="none" xmlns="http://www.w3.org/2000/svg">
<path fill-rule="evenodd" clip-rule="evenodd" d="M5.15789 2.5C4.59954 2.5 4.06406 2.72242 3.66925 3.11833C3.27444 3.51424 3.05263 4.05121 3.05263 4.61111V19.3889C2.77346 19.3889 2.50572 19.5001 2.30831 19.6981C2.1109 19.896 2 20.1645 2 20.4444C2 20.7244 2.1109 20.9929 2.30831 21.1908C2.50572 21.3888 2.77346 21.5 3.05263 21.5H15.6842C15.9634 21.5 16.2311 21.3888 16.4285 21.1908C16.6259 20.9929 16.7368 20.7244 16.7368 20.4444C16.7368 20.1645 16.6259 19.896 16.4285 19.6981C16.2311 19.5001 15.9634 19.3889 15.6842 19.3889V14.1111H16.7368V16.75C16.7368 17.4499 17.0141 18.1211 17.5076 18.616C18.0011 19.1109 18.6705 19.3889 19.3684 19.3889C20.0664 19.3889 20.7357 19.1109 21.2292 18.616C21.7227 18.1211 22 17.4499 22 16.75V10.3259C21.9999 9.76603 21.778 9.22915 21.3832 8.83333L18.5337 5.97594C18.4366 5.87513 18.3204 5.79471 18.192 5.73939C18.0636 5.68407 17.9255 5.65495 17.7857 5.65374C17.6459 5.65252 17.5073 5.67922 17.3779 5.7323C17.2486 5.78537 17.1311 5.86375 17.0322 5.96286C16.9334 6.06197 16.8552 6.17982 16.8023 6.30955C16.7494 6.43927 16.7227 6.57827 16.7239 6.71842C16.7252 6.85858 16.7542 6.99709 16.8094 7.12587C16.8645 7.25465 16.9447 7.37113 17.0453 7.4685L18.2032 8.63067C17.9702 8.94474 17.829 9.31759 17.7952 9.70754C17.7615 10.0975 17.8366 10.4892 18.0121 10.8388C18.1876 11.1884 18.4567 11.4822 18.7891 11.6872C19.1216 11.8923 19.5044 12.0006 19.8947 12L19.8958 16.75C19.8958 16.89 19.8403 17.0242 19.7416 17.1232C19.6429 17.2222 19.5091 17.2778 19.3695 17.2778C19.2299 17.2778 19.096 17.2222 18.9973 17.1232C18.8986 17.0242 18.8432 16.89 18.8432 16.75V14.1111C18.8432 13.5512 18.6214 13.0142 18.2265 12.6183C17.8317 12.2224 17.2962 12 16.7379 12H15.6853V4.61111C15.6853 4.05121 15.4635 3.51424 15.0686 3.11833C14.6738 2.72242 14.1384 2.5 13.58 2.5H5.15789ZM13.5789 9.88889V4.61111H5.15789V9.88889H13.5789Z" fill="#141414"/>
</svg>
