<svg width="24" height="24" viewBox="0 0 24 24" fill="none" xmlns="http://www.w3.org/2000/svg">
<path d="M18.0794 9.72998C17.9823 9.72998 17.8852 9.71119 17.7881 9.67361C17.4191 9.51389 17.254 9.1005 17.4094 8.74349C17.5939 8.3395 17.4871 7.74761 17.1472 7.25906C16.8073 6.76112 16.2926 6.42289 15.8265 6.45108C15.3992 6.45108 15.0982 6.14104 15.0885 5.75584C15.0885 5.36125 15.4089 5.05121 15.8071 5.04181C16.8073 5.02302 17.7493 5.57733 18.361 6.46987C18.9825 7.3718 19.1282 8.45224 18.7495 9.2978C18.633 9.57026 18.361 9.72998 18.0794 9.72998Z" fill="#141414"/>
<path d="M21.0995 10.6601C21.0315 10.6601 20.9733 10.6507 20.9053 10.6319C20.5169 10.5286 20.2935 10.1434 20.4003 9.76756C20.7693 8.48982 20.4586 6.96781 19.5749 5.69007C18.6912 4.41234 17.3511 3.55738 15.9819 3.39767C15.5837 3.35069 15.3021 3.00307 15.3507 2.61787C15.3992 2.23267 15.7682 1.95082 16.1567 2.00719C17.9338 2.21388 19.6623 3.30371 20.7791 4.91968C21.8958 6.53564 22.2745 8.48982 21.7987 10.1622C21.7113 10.4534 21.42 10.6601 21.0995 10.6601Z" fill="#141414"/>
<path d="M16.5354 11.8815C16.5354 12.1633 16.2926 12.3982 16.0013 12.3982H3.24123C2.94991 12.3982 2.70714 12.1633 2.70714 11.8815C2.70714 11.5996 2.94991 11.3647 3.24123 11.3647H3.95984L4.23174 10.1246C4.48422 8.922 5.01832 7.82277 7.13529 7.82277H12.117C14.2339 7.82277 14.7583 8.93139 15.0205 10.1246L15.2924 11.3647H16.011C16.2926 11.3647 16.5354 11.5996 16.5354 11.8815Z" fill="#141414"/>
<path d="M16.8364 15.7616C16.7296 14.6342 16.4189 13.4223 14.1465 13.4223H5.09601C2.82367 13.4223 2.51292 14.6342 2.4061 15.7616L2.00795 19.9425C1.9594 20.4592 2.1342 20.9853 2.50321 21.3799C2.88193 21.7745 3.40632 22 3.97926 22H5.30965C6.45553 22 6.67888 21.3611 6.82454 20.9477L6.97021 20.5344C7.13529 20.0646 7.17414 19.9425 7.81505 19.9425H11.4469C12.0878 19.9425 12.1073 20.0082 12.2918 20.5344L12.4374 20.9477C12.5831 21.3705 12.7967 22 13.9523 22H15.2827C15.8459 22 16.38 21.7745 16.7588 21.3799C17.1278 20.9853 17.3026 20.4686 17.254 19.9425L16.8364 15.7616ZM7.49459 17.1897H5.36791C5.07659 17.1897 4.83382 16.9548 4.83382 16.673C4.83382 16.3911 5.07659 16.1562 5.36791 16.1562H7.49459C7.78592 16.1562 8.02869 16.3911 8.02869 16.673C8.02869 16.9548 7.78592 17.1897 7.49459 17.1897ZM13.8746 17.1897H11.748C11.4566 17.1897 11.2139 16.9548 11.2139 16.673C11.2139 16.3911 11.4566 16.1562 11.748 16.1562H13.8746C14.166 16.1562 14.4087 16.3911 14.4087 16.673C14.4087 16.9548 14.166 17.1897 13.8746 17.1897Z" fill="#141414"/>
</svg>
