<svg width="24" height="24" viewBox="0 0 24 24" fill="none" xmlns="http://www.w3.org/2000/svg">
<path d="M12 2C6.49 2 2 6.49 2 12C2 17.51 6.49 22 12 22C17.51 22 22 17.51 22 12C22 6.49 17.51 2 12 2ZM12 4C15.71 4 18.82 6.54 19.73 9.97L15.72 9.47C13.25 9.16 10.75 9.16 8.28 9.47L4.27 9.97C5.17 6.54 8.29 4 12 4ZM13.5 12C13.5 12.83 12.83 13.5 12 13.5C11.17 13.5 10.5 12.83 10.5 12C10.5 11.17 11.17 10.5 12 10.5C12.83 10.5 13.5 11.17 13.5 12ZM4 12L5.67 12.28C8.25 12.71 10.25 14.76 10.62 17.35L10.99 19.93C7.06 19.43 4 16.07 4 12ZM13.01 19.93L13.38 17.35C13.75 14.76 15.75 12.71 18.33 12.28L20 12C20 16.07 16.95 19.43 13.01 19.93Z" fill="#141414"/>
</svg>
