<svg width="24" height="24" viewBox="0 0 24 24" fill="none" xmlns="http://www.w3.org/2000/svg">
<path d="M18.71 9.48998C18.61 9.48998 18.51 9.46998 18.41 9.42998C18.03 9.25998 17.86 8.81998 18.02 8.43998C18.21 8.00998 18.1 7.37998 17.75 6.85998C17.4 6.32998 16.87 5.96998 16.39 5.99998C15.95 5.99998 15.64 5.66998 15.63 5.25998C15.63 4.83998 15.96 4.50998 16.37 4.49998C17.4 4.47998 18.37 5.06998 19 6.01998C19.64 6.97998 19.79 8.12998 19.4 9.02998C19.28 9.31998 19 9.48998 18.71 9.48998Z" fill="#141414"/>
<path d="M21.82 10.48C21.75 10.48 21.69 10.47 21.62 10.45C21.22 10.34 20.99 9.92998 21.1 9.52998C21.48 8.16998 21.16 6.54998 20.25 5.18998C19.34 3.82998 17.96 2.91998 16.55 2.74998C16.14 2.69998 15.85 2.32998 15.9 1.91998C15.95 1.50998 16.33 1.20998 16.73 1.26998C18.56 1.48998 20.34 2.64998 21.49 4.36998C22.64 6.08998 23.03 8.16998 22.54 9.94998C22.45 10.26 22.15 10.48 21.82 10.48Z" fill="#141414"/>
<path d="M17.12 11.78C17.12 12.08 16.87 12.33 16.57 12.33H3.43005C3.13005 12.33 2.88005 12.08 2.88005 11.78C2.88005 11.48 3.13005 11.23 3.43005 11.23H4.17005L4.45005 9.90998C4.71005 8.62998 5.26005 7.45998 7.44005 7.45998H12.57C14.75 7.45998 15.29 8.63998 15.56 9.90998L15.84 11.23H16.58C16.87 11.23 17.12 11.48 17.12 11.78Z" fill="#141414"/>
<path d="M17.43 15.91C17.32 14.71 17 13.42 14.66 13.42H5.34005C3.00005 13.42 2.68005 14.71 2.57005 15.91L2.16005 20.36C2.11005 20.91 2.29005 21.47 2.67005 21.89C3.06005 22.31 3.60005 22.55 4.19005 22.55H5.56005C6.74005 22.55 6.97005 21.87 7.12005 21.43L7.27005 20.99C7.44005 20.49 7.48005 20.36 8.14005 20.36H11.88C12.54 20.36 12.56 20.43 12.75 20.99L12.9 21.43C13.05 21.88 13.27 22.55 14.46 22.55H15.83C16.41 22.55 16.96 22.31 17.35 21.89C17.73 21.47 17.91 20.92 17.86 20.36L17.43 15.91ZM7.81005 17.43H5.62005C5.32005 17.43 5.07005 17.18 5.07005 16.88C5.07005 16.58 5.32005 16.33 5.62005 16.33H7.81005C8.11005 16.33 8.36005 16.58 8.36005 16.88C8.36005 17.18 8.11005 17.43 7.81005 17.43ZM14.38 17.43H12.19C11.89 17.43 11.64 17.18 11.64 16.88C11.64 16.58 11.89 16.33 12.19 16.33H14.38C14.68 16.33 14.93 16.58 14.93 16.88C14.93 17.18 14.68 17.43 14.38 17.43Z" fill="#141414"/>
</svg>
