<svg width="24" height="24" viewBox="0 0 24 24" fill="none" xmlns="http://www.w3.org/2000/svg">
<path d="M21.957 14.66L21.5331 16.52C20.7989 19.72 18.2037 22 14.4608 22H9.53919C5.79628 22 3.20106 19.72 2.46695 16.52L2.04303 14.66C1.83624 13.75 2.39457 12.72 3.29411 12.37L10.4594 9.59C10.9557 9.4 11.483 9.3 12 9.3C12.517 9.3 13.0443 9.4 13.5406 9.59L20.7059 12.37C21.6054 12.72 22.1638 13.75 21.957 14.66Z" fill="#141414"/>
<path d="M19.2377 8V9.44C19.2377 9.79 18.8655 10.04 18.5242 9.9L14.1093 8.19C12.7548 7.68 11.2452 7.68 9.8804 8.2L5.47575 9.91C5.13455 10.05 4.76233 9.8 4.76233 9.45V8C4.76233 6.35 6.15816 5 7.86419 5H16.1358C17.8418 5 19.2377 6.35 19.2377 8Z" fill="#141414"/>
<path d="M14.5849 5H9.41512V3C9.41512 2.45 9.8804 2 10.4491 2H13.5509C14.1196 2 14.5849 2.45 14.5849 3V5Z" fill="#141414"/>
</svg>
