<svg width="24" height="24" viewBox="0 0 24 24" fill="none" xmlns="http://www.w3.org/2000/svg">
<path d="M3 19H4.05C4.3 20.69 5.74 22 7.5 22C9.26 22 10.7 20.69 10.95 19H15.05C15.3 20.69 16.74 22 18.5 22C20.43 22 22 20.43 22 18.5C22 17.26 21.33 16.1 20.26 15.47C20.23 15.45 20.19 15.43 20.16 15.42C19.76 15.2 19.32 15.1 18.87 15.05L17.79 8H19.01C19.56 8 20.01 7.55 20.01 7V5C20.01 4.45 19.56 4 19.01 4H17.12C16.71 2.81 15.59 2 14.29 2H13.01C12.4577 2 12.01 2.44772 12.01 3C12.01 3.55228 12.4577 4 13.01 4H14.29C14.79 4 15.2 4.36 15.28 4.85L16.9 15.39C16.44 15.63 16.03 15.96 15.71 16.39C15.57 16.58 15.46 16.78 15.35 16.99H13V8.99C13 8.44 12.55 7.99 12 7.99H7C4.24 7.99 2 10.23 2 12.99V17.99C2 18.54 2.45 18.99 3 18.99V19ZM19.3 17.23C19.73 17.51 20 17.99 20 18.5C20 19.33 19.33 20 18.5 20C17.67 20 17 19.33 17 18.5C17 18.18 17.11 17.86 17.3 17.6C17.59 17.22 18.03 17 18.5 17C18.76 17 19.02 17.07 19.24 17.19C19.26 17.2 19.28 17.21 19.31 17.23H19.3ZM7.5 20C6.67 20 6 19.33 6 18.5C6 18.39 6.01 18.29 6.03 18.21C6.08 17.98 6.17 17.76 6.3 17.6C6.41 17.45 6.55 17.34 6.7 17.24C6.7 17.24 6.71 17.24 6.72 17.23C7.02 17.05 7.37 16.98 7.71 17.02C7.73 17.02 7.76 17.02 7.78 17.02C7.94 17.05 8.1 17.1 8.25 17.18C8.27 17.19 8.29 17.2 8.32 17.21C8.67 17.44 8.91 17.78 8.99 18.17C9.01 18.27 9.02 18.38 9.02 18.48C9.02 19.31 8.35 19.98 7.52 19.98L7.5 20Z" fill="#141414"/>
</svg>
