<svg width="24" height="24" viewBox="0 0 24 24" fill="none" xmlns="http://www.w3.org/2000/svg">
<path d="M19.17 5.11C18.83 4.43 18.14 4 17.38 4H13C12.45 4 12 4.45 12 5V10H3C2.45 10 2 10.45 2 11V15C2 16.1 2.9 17 4 17C4 18.65 5.35 20 7 20C8.65 20 10 18.65 10 17H14C14 18.65 15.35 20 17 20C18.65 20 20 18.65 20 17C21.1 17 22 16.1 22 15V11.24C22 10.93 21.93 10.62 21.79 10.35L19.17 5.11ZM14 6H17.38L19.38 10H14V6ZM7 18C6.45 18 6 17.55 6 17C6 16.83 6.05 16.65 6.13 16.5C6.49 15.88 7.46 15.87 7.85 16.48C7.85 16.48 7.86 16.5 7.87 16.51C7.96 16.66 8 16.83 8 17C8 17.55 7.55 18 7 18ZM17 18C16.45 18 16 17.55 16 17C16 16.83 16.05 16.65 16.13 16.5C16.49 15.88 17.46 15.87 17.85 16.48C17.85 16.48 17.86 16.5 17.87 16.51C17.96 16.66 18 16.83 18 17C18 17.55 17.55 18 17 18Z" fill="#141414"/>
</svg>
