<svg width="24" height="24" viewBox="0 0 24 24" fill="none" xmlns="http://www.w3.org/2000/svg">
<path d="M7.83217 2.7897C7.93417 2.74237 8.03806 2.69694 8.14383 2.65339L8.46967 2.5256C10.0214 1.95103 12.0699 1.69451 15.5341 2.56252C17.0821 2.95062 18.2447 4.15657 18.9983 5.51586C19.9447 7.2235 20.5 9.51801 20.5 12C20.5 14.4828 19.9447 16.7764 18.9983 18.484C18.2437 19.8433 17.0811 21.0493 15.5341 21.4374C12.0699 22.3054 10.0214 22.0489 8.46967 21.4752L8.14478 21.3465C8.04015 21.3031 7.93624 21.258 7.83311 21.2112C6.51372 20.612 5.43611 19.3426 4.69567 17.7675C3.94672 16.1744 3.5 14.1856 3.5 12C3.5 9.81429 3.94672 7.82552 4.69567 6.23242C5.43611 4.65731 6.51278 3.38794 7.83217 2.7897ZM14.8333 4.42729C14.0277 4.42729 13.1003 5.02742 12.3202 6.43594C11.5561 7.81227 11.0556 9.77738 11.0556 12C11.0556 14.2225 11.5561 16.1876 12.3202 17.564C13.1003 18.9725 14.0277 19.5726 14.8333 19.5726C15.6389 19.5726 16.5664 18.9725 17.3465 17.564C18.1106 16.1876 18.6111 14.2225 18.6111 12C18.6111 9.77738 18.1106 7.81227 17.3465 6.43594C16.5664 5.02742 15.6389 4.42729 14.8333 4.42729ZM14.8333 8.68691C15.5001 8.68691 15.9761 9.21605 16.2576 9.78022C16.5532 10.3728 16.7222 11.1584 16.7222 12C16.7222 12.8424 16.5522 13.6271 16.2576 14.2197C15.9761 14.7839 15.5001 15.313 14.8333 15.313C14.1666 15.313 13.6906 14.7839 13.4091 14.2197C13.1144 13.6271 12.9444 12.8415 12.9444 12C12.9444 11.1575 13.1144 10.3728 13.4091 9.78022C13.6906 9.217 14.1666 8.68691 14.8333 8.68691Z" fill="#141414"/>
</svg>
