<svg width="24" height="24" viewBox="0 0 24 24" fill="none" xmlns="http://www.w3.org/2000/svg">
<path d="M21.5 15.5065C21.78 15.5065 22 15.7263 22 16.006V17.005C22 18.6633 20.66 20.002 19 20.002C19 18.3536 17.65 17.005 16 17.005C14.35 17.005 13 18.3536 13 20.002H11C11 18.3536 9.65 17.005 8 17.005C6.35 17.005 5 18.3536 5 20.002C3.34 20.002 2 18.6633 2 17.005V15.007C2 14.4575 2.45 14.008 3 14.008H12.5C13.88 14.008 15 12.8891 15 11.5105V6.01598C15 5.46653 15.45 5.01698 16 5.01698H16.84C17.56 5.01698 18.22 5.40659 18.58 6.02597L19.22 7.14486C19.31 7.3047 19.19 7.51449 19 7.51449C17.62 7.51449 16.5 8.63337 16.5 10.012V13.009C16.5 14.3876 17.62 15.5065 19 15.5065H21.5Z" fill="#141414"/>
<path d="M8 22C9.10457 22 10 21.1055 10 20.002C10 18.8985 9.10457 18.004 8 18.004C6.89543 18.004 6 18.8985 6 20.002C6 21.1055 6.89543 22 8 22Z" fill="#141414"/>
<path d="M16 22C17.1046 22 18 21.1055 18 20.002C18 18.8985 17.1046 18.004 16 18.004C14.8954 18.004 14 18.8985 14 20.002C14 21.1055 14.8954 22 16 22Z" fill="#141414"/>
<path d="M22 12.5395V14.008H19C18.45 14.008 18 13.5584 18 13.009V10.012C18 9.46254 18.45 9.01299 19 9.01299H20.29L21.74 11.5504C21.91 11.8501 22 12.1898 22 12.5395Z" fill="#141414"/>
<path d="M13.08 2H5.69C3.65 2 2 3.64835 2 5.68631V12.0699C2 12.6194 2.45 13.0689 3 13.0689H12.15C13.17 13.0689 14 12.2398 14 11.2208V2.91908C14 2.40959 13.59 2 13.08 2ZM9.6 9.11289C9.45 9.25275 9.26 9.32268 9.07 9.32268C8.88 9.32268 8.69 9.25275 8.54 9.11289L8.01 8.58342L7.46 9.13287C7.31 9.28272 7.12 9.35265 6.93 9.35265C6.74 9.35265 6.55 9.28272 6.4 9.13287C6.11 8.84316 6.11 8.36364 6.4 8.07393L6.95 7.52448L6.42 6.995C6.13 6.70529 6.13 6.22577 6.42 5.93606C6.72 5.64635 7.19 5.64635 7.49 5.93606L8.01 6.46553L8.51 5.95604C8.81 5.66633 9.28 5.66633 9.58 5.95604C9.87 6.25574 9.87 6.72527 9.58 7.02498L9.07 7.52448L9.6 8.04396C9.89 8.34366 9.89 8.81319 9.6 9.11289Z" fill="#141414"/>
</svg>
