<svg width="24" height="24" viewBox="0 0 24 24" fill="none" xmlns="http://www.w3.org/2000/svg">
<path fill-rule="evenodd" clip-rule="evenodd" d="M18.3 5C18.7183 4.99993 19.1309 5.09863 19.5061 5.28845C19.8813 5.47828 20.2089 5.75416 20.4636 6.09474L20.5691 6.24687L21.5418 7.74479C21.8027 8.1463 21.958 8.61022 21.9927 9.09152L22 9.29871V15.2661C22.0001 15.737 21.8269 16.1906 21.515 16.5359C21.2031 16.8812 20.7756 17.0927 20.3182 17.128L20.1818 17.1327H20.0273C19.844 17.6649 19.5083 18.1279 19.0643 18.4609C18.6203 18.7939 18.0886 18.9813 17.539 18.9987C16.9893 19.016 16.4474 18.8625 15.9843 18.5581C15.5212 18.2538 15.1584 17.8129 14.9436 17.2932L14.8818 17.1327H9.11727C8.93384 17.6646 8.59816 18.1273 8.15422 18.4601C7.71028 18.7928 7.17879 18.9801 6.62938 18.9975C6.07998 19.0148 5.53827 18.8614 5.07525 18.5573C4.61223 18.2532 4.24949 17.8126 4.03455 17.2932L3.97273 17.1327H3.81818C3.35948 17.1329 2.91767 16.955 2.58132 16.6348C2.24497 16.3146 2.03895 15.8757 2.00455 15.4061L2 15.2661V7.79985C1.99996 7.08569 2.26575 6.39851 2.74299 5.87891C3.22022 5.35931 3.87282 5.04656 4.56727 5.00467L4.72727 5H18.3ZM17.4545 15.2661C17.2134 15.2661 16.9822 15.3645 16.8117 15.5395C16.6412 15.7145 16.5455 15.9519 16.5455 16.1994C16.5455 16.4469 16.6412 16.6843 16.8117 16.8594C16.9822 17.0344 17.2134 17.1327 17.4545 17.1327C17.6957 17.1327 17.9269 17.0344 18.0974 16.8594C18.2679 16.6843 18.3636 16.4469 18.3636 16.1994C18.3636 15.9519 18.2679 15.7145 18.0974 15.5395C17.9269 15.3645 17.6957 15.2661 17.4545 15.2661ZM6.54545 15.2661C6.30435 15.2661 6.07312 15.3645 5.90263 15.5395C5.73214 15.7145 5.63636 15.9519 5.63636 16.1994C5.63636 16.4469 5.73214 16.6843 5.90263 16.8594C6.07312 17.0344 6.30435 17.1327 6.54545 17.1327C6.78656 17.1327 7.01779 17.0344 7.18828 16.8594C7.35877 16.6843 7.45455 16.4469 7.45455 16.1994C7.45455 15.9519 7.35877 15.7145 7.18828 15.5395C7.01779 15.3645 6.78656 15.2661 6.54545 15.2661ZM18.3 6.86657H17.4545V10.5997H20.1818V9.29871C20.1819 9.11436 20.1287 8.93412 20.0291 8.78074L19.0564 7.28188C18.9733 7.1541 18.8608 7.04934 18.7289 6.97689C18.597 6.90444 18.4496 6.86655 18.3 6.86657ZM6.54545 6.86657H4.72727C4.50461 6.8666 4.28969 6.95052 4.1233 7.10242C3.9569 7.25433 3.8506 7.46364 3.82455 7.69066L3.81818 7.79985V9.66642H6.54545V6.86657ZM11.0909 6.86657H8.36364V9.66642H11.0909V6.86657ZM15.6364 6.86657H12.9091V9.66642H15.6364V6.86657Z" fill="#141414"/>
</svg>
