<svg width="24" height="24" viewBox="0 0 24 24" fill="none" xmlns="http://www.w3.org/2000/svg">
<path d="M21.3212 11.82L21.1566 11.6C20.8685 11.26 20.5289 10.99 20.1379 10.79C19.6131 10.5 19.0163 10.35 18.3989 10.35H5.58806C4.97067 10.35 4.38415 10.5 3.84908 10.79C3.44777 11 3.08763 11.29 2.78922 11.65C2.2027 12.38 1.92488 13.28 2.01749 14.18L2.39821 18.85C2.53198 20.26 2.70691 22 5.96878 22H18.0285C21.2904 22 21.455 20.26 21.599 18.84L21.9798 14.19C22.0724 13.35 21.846 12.51 21.3212 11.82ZM14.4579 17.34H9.52907C9.12776 17.34 8.80878 17.02 8.80878 16.64C8.80878 16.26 9.12776 15.94 9.52907 15.94H14.4579C14.8592 15.94 15.1782 16.26 15.1782 16.64C15.1782 17.03 14.8592 17.34 14.4579 17.34Z" fill="#141414"/>
<path d="M20.8079 8.59643C20.8465 8.97928 20.4192 9.23561 20.0438 9.11348C19.5244 8.94449 18.9777 8.86 18.4092 8.86H5.58806C5.01508 8.86 4.45093 8.95012 3.92454 9.12194C3.5537 9.24298 3.12879 8.99507 3.12879 8.61489V6.66C3.12879 3.09 4.25038 2 7.92385 2H9.13805C10.6095 2 11.0725 2.46 11.6694 3.21L12.9041 4.81C13.1614 5.15 13.1717 5.17 13.6244 5.17H16.0734C19.2897 5.17 20.5464 6.00724 20.8079 8.59643Z" fill="#141414"/>
</svg>
