<svg width="24" height="24" viewBox="0 0 24 24" fill="none" xmlns="http://www.w3.org/2000/svg">
<path d="M14.9348 18.8091C12.925 18.9516 12.925 21.8575 14.9348 22H19.7067C20.2878 22 20.8402 21.7911 21.2688 21.4017C22.6785 20.1766 21.926 17.7075 20.0687 17.4796C19.4019 13.472 13.5822 14.9915 14.9634 18.8091" fill="#141414"/>
<path d="M14.9348 18.8091C12.925 18.9516 12.925 21.8575 14.9348 22H19.7067C20.2878 22 20.8402 21.7911 21.2688 21.4017C22.6785 20.1766 21.926 17.7075 20.0687 17.4796C19.4019 13.472 13.5822 14.9915 14.9634 18.8091" fill="#141414"/>
<path d="M21.0497 10.6135V14.6686C21.0497 14.9725 20.564 15.1054 20.3544 14.887C19.9068 14.4217 19.3448 14.0703 18.6971 13.8708C17.2017 13.4055 15.4777 13.8613 14.3919 14.982C13.7061 15.7132 13.3346 16.6249 13.3155 17.6125C13.3155 17.7835 13.2298 17.9354 13.0965 18.0399C12.4107 18.5812 11.9916 19.4264 11.9916 20.3951V20.4046C11.9916 20.7085 11.7725 20.9839 11.4677 20.9839H7.08628C4.28597 20.9934 2 18.7141 2 15.9126V6.19753C2 3.88034 3.88592 2 6.20999 2H8.41976C9.97232 2 10.4581 2.50332 11.0772 3.32953L12.4107 5.09592C12.706 5.48528 12.7441 5.53276 13.2965 5.53276H15.9539C18.2209 5.53276 20.1449 7.01424 20.8021 9.06553C20.945 9.49288 21.0212 9.92972 21.0402 10.3951C21.0497 10.4615 21.0497 10.547 21.0497 10.6135Z" fill="#141414"/>
</svg>
