<svg width="24" height="24" viewBox="0 0 24 24" fill="none" xmlns="http://www.w3.org/2000/svg">
<path fill-rule="evenodd" clip-rule="evenodd" d="M17.957 16.8619H19.6592C20.1273 16.8619 20.5107 17.2538 20.5107 17.733V19.6929H21.3613C21.7102 19.6929 21.9998 19.9892 22 20.3463C22 20.7035 21.7103 20.9996 21.3613 20.9996H2.63867C2.28974 20.9996 2 20.7035 2 20.3463C2.00017 19.9892 2.28984 19.6929 2.63867 19.6929H3.48926V17.733C3.48926 17.2538 3.87274 16.8619 4.34082 16.8619H6.04297V10.7632H4.34082C3.87274 10.7632 3.48926 10.3704 3.48926 9.89118V6.9986C3.48947 6.66772 3.72775 6.31103 4.02539 6.18903L11.6855 3.05231C11.8557 2.98281 12.1443 2.98281 12.3145 3.05231L19.9746 6.18903C20.2723 6.31103 20.5105 6.66772 20.5107 6.9986V9.89118C20.5107 10.3704 20.1273 10.7632 19.6592 10.7632H17.957V16.8619ZM7.74512 16.8619H9.44727V10.7632H7.74512V16.8619ZM12 5.97125C11.2936 5.97125 10.7236 6.55476 10.7236 7.27789C10.7237 8.001 11.2936 8.58453 12 8.58453C12.7064 8.58453 13.2763 8.001 13.2764 7.27789C13.2764 6.55476 12.7064 5.97125 12 5.97125ZM11.1494 16.8619H12.8506V10.7632H11.1494V16.8619ZM14.5527 16.8619H16.2549V10.7632H14.5527V16.8619Z" fill="#141414"/>
</svg>
