<svg width="24" height="24" viewBox="0 0 24 24" fill="none" xmlns="http://www.w3.org/2000/svg">
<path fill-rule="evenodd" clip-rule="evenodd" d="M12 2C12.2203 2.00003 12.433 2.08169 12.5977 2.22949C12.7624 2.37745 12.8678 2.5816 12.8936 2.80273L12.9004 2.90918V4.45215L14.5488 6.9502C14.5866 7.00833 14.6183 7.07028 14.6426 7.13477L14.6729 7.23438L14.9521 8.36328H15.5996C15.82 8.36331 16.0335 8.44579 16.1982 8.59375C16.3627 8.74162 16.4683 8.94515 16.4941 9.16602L16.5 9.27246V14.7275C16.4999 14.9501 16.4189 15.1647 16.2725 15.3311C16.126 15.4974 15.924 15.6038 15.7051 15.6299L15.5996 15.6367V20.1816C15.829 20.1819 16.05 20.2707 16.2168 20.4297C16.3836 20.5888 16.4836 20.8068 16.4971 21.0381C16.5104 21.2692 16.4362 21.4972 16.2891 21.6748C16.1418 21.8523 15.9327 21.9658 15.7051 21.9932L15.5996 22H8.40039C8.17101 21.9997 7.95 21.911 7.7832 21.752C7.61649 21.593 7.51646 21.3757 7.50293 21.1445C7.48949 20.9133 7.56381 20.6855 7.71094 20.5078C7.85817 20.3301 8.06714 20.2158 8.29492 20.1885L8.40039 20.1816V15.6367C8.17995 15.6367 7.96649 15.5542 7.80176 15.4062C7.6373 15.2584 7.53169 15.0548 7.50586 14.834L7.5 14.7275V9.27246C7.50009 9.04992 7.58115 8.83527 7.72754 8.66895C7.87402 8.50255 8.076 8.39617 8.29492 8.37012L8.40039 8.36328H9.04785L9.32715 7.2334C9.34378 7.16639 9.36824 7.10153 9.39941 7.04004L9.45117 6.9502L11.0996 4.45215V2.90918C11.0996 2.66823 11.1947 2.43706 11.3633 2.2666C11.5321 2.09611 11.7613 2 12 2ZM12 9.27246C11.7613 9.27246 11.5321 9.36858 11.3633 9.53906C11.1947 9.70949 11.0997 9.94069 11.0996 10.1816V12C11.0996 12.241 11.1947 12.4721 11.3633 12.6426C11.5321 12.8131 11.7613 12.9092 12 12.9092H12.9004C13.1389 12.9091 13.3674 12.813 13.5361 12.6426C13.7049 12.4721 13.7998 12.2411 13.7998 12C13.7998 11.7589 13.7049 11.5279 13.5361 11.3574C13.3674 11.187 13.1389 11.0909 12.9004 11.0908V10.1816C12.9003 9.94069 12.8053 9.70949 12.6367 9.53906C12.4679 9.36858 12.2387 9.27246 12 9.27246Z" fill="#141414"/>
</svg>
