<svg width="24" height="24" viewBox="0 0 24 24" fill="none" xmlns="http://www.w3.org/2000/svg">
<path fill-rule="evenodd" clip-rule="evenodd" d="M13.3636 2C13.1225 2 12.8913 2.09578 12.7208 2.26627C12.5503 2.43675 12.4545 2.66799 12.4545 2.90909V4.16545L11.9655 3.92C11.8253 3.84988 11.6696 3.81679 11.5131 3.82386C11.3566 3.83093 11.2045 3.87793 11.0713 3.96039C10.9381 4.04286 10.8282 4.15804 10.752 4.29498C10.6759 4.43191 10.6361 4.58605 10.6364 4.74273V11.6245L8.17818 14.0818C8.00597 14.2539 7.90918 14.4874 7.90909 14.7309V20.1818C7.66799 20.1818 7.43675 20.2776 7.26627 20.4481C7.09578 20.6186 7 20.8498 7 21.0909C7 21.332 7.09578 21.5632 7.26627 21.7337C7.43675 21.9042 7.66799 22 7.90909 22H16.0909C16.332 22 16.5632 21.9042 16.7337 21.7337C16.9042 21.5632 17 21.332 17 21.0909C17 20.8498 16.9042 20.6186 16.7337 20.4481C16.5632 20.2776 16.332 20.1818 16.0909 20.1818V6.55091C16.0909 6.38048 16.0434 6.21342 15.9538 6.06844C15.8642 5.92346 15.736 5.80627 15.5836 5.73L14.2727 5.07455V2.90909C14.2727 2.66799 14.1769 2.43675 14.0065 2.26627C13.836 2.09578 13.6047 2 13.3636 2ZM13.4964 7.85455C13.5599 7.79087 13.6409 7.74746 13.7291 7.72983C13.8173 7.71219 13.9087 7.72112 13.9918 7.75548C14.0749 7.78984 14.146 7.84808 14.196 7.92284C14.246 7.9976 14.2727 8.08551 14.2727 8.17546V9.46091C14.2728 9.52064 14.2612 9.57981 14.2384 9.63503C14.2156 9.69025 14.1822 9.74044 14.14 9.78273L13.2309 10.6918C13.1673 10.7556 13.0863 10.799 12.998 10.8166C12.9097 10.8342 12.8182 10.8252 12.735 10.7907C12.6519 10.7562 12.5808 10.6979 12.5309 10.623C12.481 10.5481 12.4544 10.46 12.4545 10.37V9.08455C12.4544 9.02481 12.4661 8.96565 12.4889 8.91043C12.5117 8.85521 12.5451 8.80502 12.5873 8.76273L13.4964 7.85455ZM13.8364 13.02C14.0573 12.9 14.2727 13.1127 14.2727 13.3636V14.9155C14.2728 14.9752 14.2612 15.0344 14.2384 15.0896C14.2156 15.1448 14.1822 15.195 14.14 15.2373L11.1464 18.2309C11.1041 18.2731 11.0539 18.3065 10.9987 18.3293C10.9434 18.3521 10.8843 18.3637 10.8245 18.3636H10.1818C10.0613 18.3636 9.94565 18.3157 9.86041 18.2305C9.77516 18.1453 9.72727 18.0296 9.72727 17.9091V17.2664C9.72717 17.2066 9.73883 17.1475 9.76161 17.0922C9.78438 17.037 9.81782 16.9868 9.86 16.9445L13.63 13.1755C13.6914 13.1143 13.7612 13.0623 13.8373 13.0209L13.8364 13.02Z" fill="#141414"/>
</svg>
