<svg width="24" height="24" viewBox="0 0 24 24" fill="none" xmlns="http://www.w3.org/2000/svg">
<path d="M12 2C12.2387 2 12.4679 2.09611 12.6367 2.2666C12.8053 2.43706 12.9004 2.66823 12.9004 2.90918V4.72754C13.1388 4.72764 13.3675 4.82297 13.5361 4.99316C13.7049 5.16365 13.7998 5.39561 13.7998 5.63672V8.48535C13.9366 8.56514 14.0509 8.68016 14.1299 8.81836C14.2087 8.9564 14.2499 9.1131 14.25 9.27246V12.1221C14.3866 12.2018 14.5001 12.3162 14.5791 12.4541C14.6581 12.5923 14.7002 12.7496 14.7002 12.9092V15.6367C14.9386 15.6368 15.1672 15.7321 15.3359 15.9023C15.5047 16.0728 15.5996 16.3048 15.5996 16.5459V20.1816C15.8383 20.1816 16.0675 20.2778 16.2363 20.4482C16.4051 20.6187 16.5 20.8498 16.5 21.0908C16.5 21.3319 16.405 21.5629 16.2363 21.7334C16.0675 21.9039 15.8383 22 15.5996 22H8.40039C8.1617 22 7.93245 21.9039 7.76367 21.7334C7.59497 21.5629 7.5 21.3319 7.5 21.0908C7.50002 20.8498 7.59494 20.6187 7.76367 20.4482C7.93245 20.2778 8.1617 20.1816 8.40039 20.1816V15.6367C8.40039 15.3956 8.49528 15.1637 8.66406 14.9932C8.83276 14.823 9.06138 14.7276 9.2998 14.7275V12C9.29981 11.8405 9.34198 11.684 9.4209 11.5459C9.49988 11.4077 9.61322 11.2927 9.75 11.2129V8.36328C9.75007 8.20393 9.79128 8.04721 9.87012 7.90918C9.94911 7.77099 10.0634 7.65596 10.2002 7.57617V5.63672C10.2002 5.39561 10.2951 5.16365 10.4639 4.99316C10.6325 4.82297 10.8612 4.72764 11.0996 4.72754V2.90918C11.0996 2.66823 11.1947 2.43706 11.3633 2.2666C11.5321 2.09611 11.7613 2 12 2Z" fill="#141414"/>
</svg>
