<svg width="24" height="24" viewBox="0 0 24 24" fill="none" xmlns="http://www.w3.org/2000/svg">
<path fill-rule="evenodd" clip-rule="evenodd" d="M8.28613 2C8.53225 2.00011 8.76834 2.09621 8.94238 2.2666C9.1164 2.43707 9.21387 2.66817 9.21387 2.90918V3.93945C10.785 4.31217 12.2225 5.25111 13.3525 6.35742C13.7029 6.70047 14.029 7.06667 14.3271 7.4541H14.7861C14.9798 7.45301 15.1691 7.51153 15.3271 7.62109C15.4854 7.73083 15.6048 7.88693 15.668 8.06641C15.731 8.24581 15.7353 8.44029 15.6797 8.62207C15.6241 8.80393 15.5109 8.96409 15.3574 9.08008C16.1346 10.5946 16.6426 12.4648 16.6426 14.7275C16.6425 16.1729 16.399 17.8275 16.1641 19.0947C16.0889 19.4974 16.0141 19.8662 15.9463 20.1816H17.5713C17.8176 20.1816 18.0544 20.2778 18.2285 20.4482C18.4024 20.6187 18.5 20.8499 18.5 21.0908C18.5 21.3317 18.4024 21.563 18.2285 21.7334C18.0544 21.9039 17.8176 22 17.5713 22H6.42871C6.18244 22 5.94563 21.9039 5.77148 21.7334C5.5976 21.563 5.5 21.3317 5.5 21.0908C5.50002 20.8499 5.59757 20.6187 5.77148 20.4482C5.94563 20.2778 6.18244 20.1816 6.42871 20.1816H7.35742V9.27246C7.11115 9.27246 6.87434 9.17732 6.7002 9.00684C6.52605 8.83635 6.42871 8.60439 6.42871 8.36328C6.42881 8.12236 6.52622 7.8911 6.7002 7.7207C6.87434 7.55022 7.11115 7.4541 7.35742 7.4541V2.90918C7.35742 2.6682 7.45494 2.43706 7.62891 2.2666C7.80305 2.09611 8.03986 2 8.28613 2ZM9.21387 7.4541V9.27246H13.3457C12.9311 8.60251 12.4248 7.9906 11.8418 7.4541H9.21387Z" fill="#141414"/>
</svg>
