<svg width="24" height="24" viewBox="0 0 24 24" fill="none" xmlns="http://www.w3.org/2000/svg">
<path fill-rule="evenodd" clip-rule="evenodd" d="M17.4541 4.5C17.6952 4.5 17.9272 4.5986 18.0977 4.77441C18.2681 4.95022 18.3633 5.18889 18.3633 5.4375V6.9043L18.4688 6.99902L18.7207 7.21582C18.7661 7.25515 18.8152 7.29466 18.8643 7.33398C19.3487 7.72297 19.9343 8.11407 20.4688 8.29785C20.582 8.33673 20.6871 8.39793 20.7773 8.47852C20.8676 8.55915 20.9417 8.65749 20.9951 8.76758C21.0485 8.87756 21.0803 8.99745 21.0889 9.12012C21.0974 9.24284 21.0826 9.36665 21.0449 9.4834C21.0072 9.60023 20.9474 9.70871 20.8691 9.80176C20.7909 9.89479 20.6956 9.97127 20.5889 10.0264C20.4821 10.0814 20.3652 10.1143 20.2461 10.123C20.1272 10.1317 20.0077 10.116 19.8945 10.0771C19.3436 9.88778 18.8142 9.58183 18.3633 9.27246V13.875H21.0908C21.3319 13.875 21.5629 13.9737 21.7334 14.1494C21.9039 14.3252 22 14.5639 22 14.8125C21.9999 15.061 21.9038 15.2989 21.7334 15.4746C21.5629 15.6504 21.3319 15.75 21.0908 15.75H18.3633V18.5625C18.3632 18.8108 18.2678 19.0489 18.0977 19.2246C17.9272 19.4004 17.6952 19.5 17.4541 19.5C17.2132 19.4999 16.9819 19.4003 16.8115 19.2246C16.6413 19.0489 16.546 18.8108 16.5459 18.5625V15.75H7.4541V18.5625C7.45399 18.8108 7.3587 19.0489 7.18848 19.2246C7.01809 19.4003 6.78684 19.4999 6.5459 19.5C6.30479 19.5 6.07283 19.4004 5.90234 19.2246C5.73215 19.0489 5.63683 18.8108 5.63672 18.5625V15.75H2.90918C2.66807 15.75 2.43709 15.6504 2.2666 15.4746C2.09623 15.2989 2.00008 15.061 2 14.8125C2 14.5639 2.09611 14.3252 2.2666 14.1494C2.43708 13.9737 2.66812 13.875 2.90918 13.875H5.63672V9.27148C5.18581 9.58179 4.65638 9.88778 4.10547 10.0771C3.99234 10.116 3.87284 10.1317 3.75391 10.123C3.63483 10.1143 3.5179 10.0814 3.41113 10.0264C3.19547 9.91508 3.03127 9.71935 2.95508 9.4834C2.879 9.24753 2.89701 8.98989 3.00488 8.76758C3.11281 8.54522 3.30247 8.37641 3.53125 8.29785C4.06573 8.11407 4.65127 7.72297 5.13574 7.33398L5.2793 7.21582L5.53125 6.99902L5.63672 6.9043V5.4375C5.63672 5.18889 5.73189 4.95022 5.90234 4.77441C6.07283 4.5986 6.30479 4.5 6.5459 4.5C6.78684 4.50012 7.01809 4.59871 7.18848 4.77441C7.35896 4.95022 7.4541 5.18887 7.4541 5.4375V7.05176C7.69289 7.404 7.98052 7.71872 8.30664 7.98633C9.00938 8.5666 10.1755 9.1875 12 9.1875C13.8244 9.1875 14.9906 8.56663 15.6934 7.9873C16.0506 7.692 16.2975 7.40038 16.4502 7.18945L16.5459 7.05176V5.4375C16.5459 5.18887 16.641 4.95022 16.8115 4.77441C16.9819 4.59871 17.2132 4.50012 17.4541 4.5ZM9.27246 13.875H11.0908V11.0186C10.5677 10.9685 10.0501 10.8669 9.5459 10.7148L9.27246 10.624V13.875ZM14.7275 10.624C14.2447 10.791 13.7471 10.9098 13.2422 10.9785L12.9092 11.0186V13.875H14.7275V10.624Z" fill="#141414"/>
</svg>
