<svg width="24" height="24" viewBox="0 0 24 24" fill="none" xmlns="http://www.w3.org/2000/svg">
<path fill-rule="evenodd" clip-rule="evenodd" d="M9.90234 2.01186C10.1891 1.98034 10.4793 2.01188 10.7529 2.10366L18.6328 4.74233C19.0307 4.8757 19.3768 5.13196 19.6221 5.47377C19.8673 5.81559 19.9997 6.22621 20 6.6476V19.9914H21C21.2652 19.9914 21.5195 20.0969 21.707 20.2853C21.8945 20.4736 21.9999 20.7289 22 20.9953C22 21.2617 21.8946 21.5178 21.707 21.7062C21.5195 21.8946 21.2652 22.0001 21 22.0001H3C2.73482 22.0001 2.4805 21.8946 2.29297 21.7062C2.10543 21.5178 2 21.2617 2 20.9953C2.0001 20.7289 2.10554 20.4736 2.29297 20.2853C2.48051 20.0969 2.73478 19.9914 3 19.9914H4V6.4933C4 6.14629 4.0896 5.80504 4.25977 5.50307C4.42991 5.20114 4.6746 4.9482 4.9707 4.76967L9.09082 2.28627C9.33831 2.13711 9.61546 2.04342 9.90234 2.01186ZM9 4.68569L6 6.49428V19.9914H9V4.68569Z" fill="#141414"/>
</svg>
