<svg width="24" height="24" viewBox="0 0 24 24" fill="none" xmlns="http://www.w3.org/2000/svg">
<path fill-rule="evenodd" clip-rule="evenodd" d="M13.3519 3.05472L21.352 6.05627C21.5711 6.13872 21.7544 6.29547 21.8699 6.49921C21.9853 6.70295 22.0257 6.94078 21.984 7.17124C21.9422 7.40171 21.8209 7.61021 21.6413 7.76043C21.4617 7.91064 21.2351 7.99304 21.001 7.99327V18.999C21.001 19.5297 20.7903 20.0386 20.4152 20.4139C20.0401 20.7892 19.5314 21 19.001 21H10.0009V15.9974C10.0009 15.7321 9.89549 15.4776 9.70795 15.2899C9.52042 15.1023 9.26606 14.9969 9.00084 14.9969C8.73562 14.9969 8.48126 15.1023 8.29372 15.2899C8.10618 15.4776 8.00083 15.7321 8.00083 15.9974V21H5.00079C4.47035 21 3.96164 20.7892 3.58656 20.4139C3.21148 20.0386 3.00077 19.5297 3.00077 18.999V12.9959C2.7584 12.996 2.52421 12.9082 2.34175 12.7485C2.1593 12.5889 2.04099 12.3684 2.00884 12.1281C1.97669 11.8877 2.03288 11.6439 2.16695 11.4419C2.30103 11.2399 2.50388 11.0934 2.73776 11.0298L13.0009 8.2294V5.05976L12.6499 4.92769C12.4084 4.82969 12.2146 4.64122 12.1099 4.40242C12.0052 4.16363 11.9979 3.89337 12.0894 3.64921C12.1809 3.40506 12.3641 3.20629 12.5999 3.09525C12.8357 2.98421 13.1055 2.96967 13.3519 3.05472ZM17.5009 13.9964H16.5009C16.2357 13.9964 15.9814 14.1018 15.7938 14.2894C15.6063 14.4771 15.5009 14.7315 15.5009 14.9969C15.5009 15.2622 15.6063 15.5167 15.7938 15.7044C15.9814 15.892 16.2357 15.9974 16.5009 15.9974H17.5009C17.7662 15.9974 18.0205 15.892 18.2081 15.7044C18.3956 15.5167 18.501 15.2622 18.501 14.9969C18.501 14.7315 18.3956 14.4771 18.2081 14.2894C18.0205 14.1018 17.7662 13.9964 17.5009 13.9964ZM17.5009 9.99431H16.5009C16.246 9.99459 16.0009 10.0922 15.8156 10.2673C15.6302 10.4424 15.5187 10.6816 15.5037 10.9362C15.4888 11.1908 15.5716 11.4414 15.7352 11.637C15.8988 11.8325 16.1308 11.9582 16.3839 11.9883L16.5009 11.9953H17.5009C17.7558 11.9951 18.001 11.8974 18.1863 11.7224C18.3717 11.5473 18.4832 11.308 18.4981 11.0535C18.5131 10.7989 18.4303 10.5482 18.2667 10.3527C18.1031 10.1571 17.871 10.0314 17.6179 10.0013L17.5009 9.99431Z" fill="#141414"/>
</svg>
