<svg width="24" height="24" viewBox="0 0 24 24" fill="none" xmlns="http://www.w3.org/2000/svg">
<path fill-rule="evenodd" clip-rule="evenodd" d="M6.5 8C7.6 8 8.5 8.9 8.5 10V20C8.5 21.1 7.6 22 6.5 22H5C3.34 22 2 20.66 2 19V11C2 9.34 3.34 8 5 8H6.5ZM5.25 12.25C4.84 12.25 4.5 12.59 4.5 13V17C4.5 17.41 4.84 17.75 5.25 17.75C5.66 17.75 6 17.41 6 17V13C6 12.59 5.66 12.25 5.25 12.25Z" fill="#141414"/>
<path fill-rule="evenodd" clip-rule="evenodd" d="M19 2C20.66 2 22 3.34 22 5V19C22 20.66 20.66 22 19 22H18.5C18.22 22 18 21.78 18 21.5V18C18 17.45 17.55 17 17 17H15C14.45 17 14 17.45 14 18V21.5C14 21.78 13.78 22 13.5 22H13C11.34 22 10 20.66 10 19V5C10 3.34 11.34 2 13 2H19ZM14 7.25C13.59 7.25 13.25 7.59 13.25 8V13C13.25 13.41 13.59 13.75 14 13.75C14.41 13.75 14.75 13.41 14.75 13V8C14.75 7.59 14.41 7.25 14 7.25ZM18 7.25C17.59 7.25 17.25 7.59 17.25 8V13C17.25 13.41 17.59 13.75 18 13.75C18.41 13.75 18.75 13.41 18.75 13V8C18.75 7.59 18.41 7.25 18 7.25Z" fill="#141414"/>
</svg>
