<svg width="24" height="24" viewBox="0 0 24 24" fill="none" xmlns="http://www.w3.org/2000/svg">
<path d="M21.3023 20.6047H20.1395V11.0704C20.1395 8.81932 18.9023 7.58218 16.6512 7.58218H12.6977V6.43805C13.2372 6.56828 13.7767 6.64269 14.3256 6.64269C15.2 6.64269 16.0744 6.47526 16.9116 6.14039C17.1721 6.03807 17.3488 5.77762 17.3488 5.48927V2.69872C17.3488 2.46617 17.2372 2.25223 17.0419 2.12201C16.8465 1.99178 16.6047 1.96388 16.3907 2.04759C15.0605 2.5778 13.5907 2.5778 12.2605 2.04759C12.0465 1.96388 11.8047 1.99178 11.6093 2.12201C11.414 2.25223 11.3023 2.46617 11.3023 2.69872V7.58218H7.34884C5.09767 7.58218 3.86047 8.81932 3.86047 11.0704V20.6047H2.69767C2.31628 20.6047 2 20.921 2 21.3024C2 21.6837 2.31628 22 2.69767 22H21.3023C21.6837 22 22 21.6837 22 21.3024C22 20.921 21.6837 20.6047 21.3023 20.6047ZM7.57209 20.6047H5.25581V12.6982H7.57209V20.6047ZM11.293 20.6047H8.96744V12.6982H11.293V20.6047ZM15.014 20.6047H12.6884V12.6982H15.014V20.6047ZM18.7442 20.6047H16.4093V12.6982H18.7442V20.6047Z" fill="#141414"/>
</svg>
