<svg width="24" height="24" viewBox="0 0 24 24" fill="none" xmlns="http://www.w3.org/2000/svg">
<path fill-rule="evenodd" clip-rule="evenodd" d="M15 3C15.5304 3 16.039 3.21086 16.4141 3.58594C16.7891 3.96101 17 4.46957 17 5V9H19C19.5304 9 20.039 9.21086 20.4141 9.58594C20.7891 9.96101 21 10.4696 21 11V19C21.2652 19 21.5195 19.1054 21.707 19.293C21.8946 19.4805 22 19.7348 22 20C22 20.2652 21.8946 20.5195 21.707 20.707C21.5195 20.8946 21.2652 21 21 21H3C2.73478 21 2.48051 20.8946 2.29297 20.707C2.10543 20.5195 2 20.2652 2 20C2 19.7348 2.10543 19.4805 2.29297 19.293C2.48051 19.1054 2.73478 19 3 19V9C3 8.46957 3.21086 7.96101 3.58594 7.58594C3.96101 7.21086 4.46957 7 5 7H7V5C7 4.46957 7.21086 3.96101 7.58594 3.58594C7.96101 3.21086 8.46957 3 9 3H15ZM5 19H7V9H5V19ZM17 19H19V11H17V19ZM11 17H13V15H11V17ZM11 13H13V11H11V13ZM11 9H13V7H11V9Z" fill="#141414"/>
</svg>
