<svg width="24" height="24" viewBox="0 0 24 24" fill="none" xmlns="http://www.w3.org/2000/svg">
<g clip-path="url(#clip0_32_5532)">
<path fill-rule="evenodd" clip-rule="evenodd" d="M12.4 2C11.7635 2 11.153 2.25286 10.7029 2.70294C10.2529 3.15303 10 3.76348 10 4.4C10 5.274 9.9 5.4 10.4 5.9C10.369 5.898 9.031 6 9 6H6.207C5.80931 6.00035 5.42803 6.15862 5.147 6.44L4.647 6.94C4.3661 7.22125 4.20832 7.6025 4.20832 8C4.20832 8.3975 4.3661 8.77875 4.647 9.06L6.147 10.56C6.42803 10.8414 6.80931 10.9997 7.207 11H9V18C8.79004 18 8.58538 18.066 8.41505 18.1888C8.24472 18.3115 8.11735 18.4848 8.051 18.684L7.28 21H7C6.73478 21 6.48043 21.1054 6.29289 21.2929C6.10536 21.4804 6 21.7348 6 22C6 22.2652 6.10536 22.5196 6.29289 22.7071C6.48043 22.8946 6.73478 23 7 23H18C18.2652 23 18.5196 22.8946 18.7071 22.7071C18.8946 22.5196 19 22.2652 19 22C19 21.7348 18.8946 21.4804 18.7071 21.2929C18.5196 21.1054 18.2652 21 18 21H17.722L16.95 18.684C16.8836 18.4846 16.7561 18.3112 16.5855 18.1885C16.415 18.0657 16.2101 17.9997 16 18V11H17.794C18.1917 10.9997 18.573 10.8414 18.854 10.56L20.354 9.06C20.6349 8.77875 20.7927 8.3975 20.7927 8C20.7927 7.6025 20.6349 7.22125 20.354 6.94L19.854 6.44C19.573 6.15862 19.1917 6.00035 18.794 6H16C15.969 6 14.6 5.9 14.6 5.9C15.1 5.4 15 5.095 15 4.4C15 3.76348 14.7471 3.15303 14.2971 2.70294C13.847 2.25286 13.2365 2 12.6 2H12.4Z" fill="#141414"/>
</g>
<defs>
<clipPath id="clip0_32_5532">
<rect width="24" height="24" fill="white"/>
</clipPath>
</defs>
</svg>
