<svg width="24" height="24" viewBox="0 0 24 24" fill="none" xmlns="http://www.w3.org/2000/svg">
<path d="M13.6533 4.01565C13.7714 3.99368 13.8932 3.99541 14.0107 4.01955C14.1282 4.04372 14.24 4.08981 14.3389 4.15627C14.4379 4.22279 14.5218 4.30861 14.5869 4.40725C14.652 4.50587 14.6965 4.61594 14.7178 4.73147C14.739 4.84703 14.7368 4.96544 14.7109 5.0801C14.685 5.19476 14.6364 5.30335 14.5674 5.39943L13.1035 7.48049L20.6602 18.2227H21.0908C21.3319 18.2227 21.5639 18.3158 21.7344 18.4824C21.9049 18.6491 22 18.8757 22 19.1113C22 19.3468 21.9047 19.5727 21.7344 19.7393C21.5639 19.9059 21.3319 20 21.0908 20H16.8779L16.8379 19.9375L12.7549 14.1738C12.6704 14.0547 12.5572 13.9579 12.4258 13.8906C12.2944 13.8234 12.1483 13.7881 12 13.7881C11.8517 13.7881 11.7056 13.8234 11.5742 13.8906C11.4429 13.9579 11.3296 14.0548 11.2451 14.1738L7.16211 19.9375L7.12207 20H2.90918C2.66812 20 2.43708 19.9058 2.2666 19.7393C2.09616 19.5727 2.00005 19.3469 2 19.1113C2 18.8757 2.09611 18.6491 2.2666 18.4824C2.43705 18.3161 2.66826 18.2227 2.90918 18.2227H3.33984L10.8975 7.47951L9.43262 5.39846C9.299 5.20426 9.24916 4.96624 9.29395 4.73635C9.33873 4.50655 9.4747 4.30353 9.67188 4.17092C9.86925 4.0383 10.1129 3.98688 10.3486 4.02834C10.584 4.06988 10.7931 4.2004 10.9307 4.39162L12 5.91213L13.0693 4.3926C13.1363 4.29539 13.2222 4.21209 13.3223 4.14748C13.4225 4.08282 13.5353 4.03762 13.6533 4.01565Z" fill="#141414"/>
<path d="M14.6709 20H9.3291L12 16.2295L14.6709 20Z" fill="#141414"/>
</svg>
