<svg width="24" height="24" viewBox="0 0 24 24" fill="none" xmlns="http://www.w3.org/2000/svg">
<path fill-rule="evenodd" clip-rule="evenodd" d="M11.903 2C11.2889 2 10.7 2.24082 10.2658 2.66947C9.83155 3.09812 9.58761 3.67951 9.58761 4.28571C9.58761 5.1181 9.49113 5.2381 9.97351 5.71429C9.9436 5.71238 8.65275 5.80952 8.62284 5.80952H5.92825C5.54458 5.80986 5.17674 5.96059 4.9056 6.22857L4.42322 6.70476C4.15222 6.97262 4 7.33571 4 7.71429C4 8.09286 4.15222 8.45595 4.42322 8.72381L5.87037 10.1524C6.1415 10.4204 6.50934 10.5711 6.89302 10.5714H8.62284V17.2381C8.42028 17.238 8.22283 17.3009 8.0585 17.4179C7.89417 17.5348 7.77129 17.6998 7.70728 17.8895L6.96345 20.0952H6.69331C6.43744 20.0952 6.19205 20.1956 6.01112 20.3742C5.83019 20.5528 5.72855 20.795 5.72855 21.0476C5.72855 21.3002 5.83019 21.5424 6.01112 21.7211C6.19205 21.8997 6.43744 22 6.69331 22H17.3057C17.5616 22 17.807 21.8997 17.9879 21.7211C18.1688 21.5424 18.2705 21.3002 18.2705 21.0476C18.2705 20.795 18.1688 20.5528 17.9879 20.3742C17.807 20.1956 17.5616 20.0952 17.3057 20.0952H17.0375L16.2927 17.8895C16.2287 17.6996 16.1056 17.5345 15.9411 17.4176C15.7766 17.3006 15.5789 17.2378 15.3762 17.2381V10.5714H17.107C17.4907 10.5711 17.8585 10.4204 18.1296 10.1524L19.5768 8.72381C19.8478 8.45595 20 8.09286 20 7.71429C20 7.33571 19.8478 6.97262 19.5768 6.70476L19.0944 6.22857C18.8233 5.96059 18.4554 5.80986 18.0717 5.80952H15.3762C15.3463 5.80952 14.0255 5.71429 14.0255 5.71429C14.5079 5.2381 14.4114 4.94762 14.4114 4.28571C14.4114 3.67951 14.1675 3.09812 13.7333 2.66947C13.299 2.24082 12.7101 2 12.096 2H11.903Z" fill="#141414"/>
</svg>
