<svg width="24" height="24" viewBox="0 0 24 24" fill="none" xmlns="http://www.w3.org/2000/svg">
<path d="M12 2C12.2431 2 12.4765 2.09611 12.6484 2.2666C12.8202 2.43706 12.917 2.66821 12.917 2.90918V4.72754H14.7393C15.3037 4.7277 15.7896 5.25178 15.6377 5.86426C15.5864 6.07244 14.75 9.50372 14.75 12.9092C14.75 14.6581 14.9707 16.4225 15.1953 17.7598C15.2998 18.377 15.4022 19.002 15.5645 19.6084C15.6148 19.7982 15.667 19.9945 15.667 20.1816H16.583C16.8261 20.1816 17.0595 20.2778 17.2314 20.4482C17.4033 20.6187 17.5 20.8498 17.5 21.0908C17.5 21.3319 17.4033 21.5629 17.2314 21.7334C17.0595 21.9039 16.8261 22 16.583 22H7.41699C7.17388 22 6.94046 21.9039 6.76855 21.7334C6.59673 21.5629 6.5 21.3319 6.5 21.0908C6.50002 20.8498 6.5967 20.6187 6.76855 20.4482C6.94046 20.2778 7.17388 20.1816 7.41699 20.1816H8.33301C8.33304 19.9918 8.38427 19.7992 8.43555 19.6104C8.5978 19.004 8.70019 18.3779 8.80469 17.7598C9.02925 16.4225 9.24999 14.6581 9.25 12.9092C9.25 9.50372 8.41364 6.07153 8.3623 5.86426C8.21043 5.25175 8.69633 4.72766 9.26172 4.72754H11.083V2.90918C11.083 2.66821 11.1798 2.43706 11.3516 2.2666C11.5235 2.09611 11.7569 2 12 2Z" fill="#141414"/>
</svg>
