<svg width="24" height="24" viewBox="0 0 24 24" fill="none" xmlns="http://www.w3.org/2000/svg">
<path fill-rule="evenodd" clip-rule="evenodd" d="M19.4326 11.1024C20.6512 11.1025 21.6465 12.1015 21.6465 13.3241V15.1903C21.6465 16.1702 21.0047 17.0005 20.1211 17.2899V20.0907H21.3027C21.6838 20.0909 21.9998 20.4075 22 20.7899C22 21.1725 21.6839 21.4899 21.3027 21.4901H19.4697C19.4511 21.4901 19.4414 21.4999 19.4229 21.4999C19.4046 21.4998 19.3953 21.4902 19.377 21.4901H2.69727C2.31605 21.4899 2 21.1725 2 20.7899C2.00016 20.4075 2.31615 20.0909 2.69727 20.0907H3.62793V14.4901C3.62804 14.229 3.8325 14.0235 4.09277 14.0233H14.3252C14.5856 14.0233 14.7909 14.2289 14.791 14.4901V20.0907H18.7158V17.2811C17.8509 16.9824 17.2188 16.1608 17.2188 15.1903V13.3241C17.2188 12.1015 18.214 11.1024 19.4326 11.1024ZM9.20898 16.5907C8.82785 16.5909 8.51191 16.9075 8.51172 17.2899V20.0907H9.90723V17.2899C9.90703 16.9074 9.59026 16.5907 9.20898 16.5907Z" fill="#141414"/>
<path fill-rule="evenodd" clip-rule="evenodd" d="M8.17676 2.81435C8.8 2.39442 9.61896 2.39438 10.2422 2.81435L13.9629 5.30654C14.4836 5.65179 14.7909 6.23025 14.791 6.85537V12.1571C14.791 12.4184 14.5856 12.6239 14.3252 12.6239H4.09277C3.83245 12.6238 3.62797 12.4183 3.62793 12.1571V6.85537C3.62808 6.23021 3.94455 5.65178 4.45605 5.30654L8.17676 2.81435ZM9.20898 7.02334C8.3161 7.02351 7.58105 7.76125 7.58105 8.65712C7.58106 9.55299 8.31611 10.2898 9.20898 10.2899C10.102 10.2899 10.8369 9.5531 10.8369 8.65712C10.8369 7.76114 10.102 7.02334 9.20898 7.02334Z" fill="#141414"/>
</svg>
