<svg width="24" height="24" viewBox="0 0 24 24" fill="none" xmlns="http://www.w3.org/2000/svg">
<path fill-rule="evenodd" clip-rule="evenodd" d="M9.02615 2.38522L11.9901 6.3466L13.8754 2.91199C14.0029 2.67978 14.2129 2.51033 14.4591 2.44093C14.7054 2.37154 14.9678 2.40787 15.1886 2.54194L18.5189 4.56408C18.655 4.64664 18.7698 4.76302 18.8533 4.90305C18.9367 5.04308 18.9862 5.20248 18.9975 5.3673C19.0088 5.53212 18.9815 5.69735 18.918 5.84851C18.8545 5.99966 18.7568 6.13215 18.6333 6.23437L14.8666 9.35049L18.1324 11.3342C18.3532 11.4683 18.5143 11.6891 18.5803 11.9481C18.6463 12.2071 18.6118 12.4831 18.4843 12.7153L16.5615 16.2177C16.4392 16.4403 16.2408 16.6055 16.0068 16.6797L16.6336 19.9779H16.8067C17.0616 19.9779 17.3062 20.0844 17.4865 20.274C17.6668 20.4636 17.7681 20.7208 17.7681 20.9889C17.7681 21.2571 17.6668 21.5143 17.4865 21.7039C17.3062 21.8935 17.0616 22 16.8067 22H7.19278C6.93781 22 6.69327 21.8935 6.51298 21.7039C6.33268 21.5143 6.23139 21.2571 6.23139 20.9889C6.23139 20.7208 6.33268 20.4636 6.51298 20.274C6.69327 20.0844 6.93781 19.9779 7.19278 19.9779H7.36583L8.16378 15.788L5.48055 14.1591C5.34449 14.0765 5.22977 13.96 5.14642 13.82C5.06307 13.6799 5.01364 13.5205 5.00244 13.3557C4.99125 13.1908 5.01864 13.0256 5.08221 12.8745C5.14578 12.7234 5.2436 12.591 5.36711 12.4889L9.13286 9.37172L5.86703 7.39003C5.64622 7.25594 5.48511 7.03511 5.41912 6.7761C5.35313 6.51709 5.38768 6.24112 5.51516 6.0089L7.43794 2.50655C7.51635 2.36334 7.62695 2.24252 7.76005 2.15467C7.89315 2.06682 8.0447 2.01463 8.20143 2.00266C8.35816 1.99068 8.51529 2.0193 8.65906 2.08599C8.80284 2.15269 8.92888 2.25543 9.02615 2.38522ZM11.8411 12.9004L10.0289 16.2895L9.32706 19.9779H14.6724L13.9706 16.2895L12.1593 12.9004H11.8411ZM12.4804 15.9336C12.5929 15.9335 12.7019 15.975 12.7883 16.0507C12.8747 16.1265 12.9332 16.2317 12.9534 16.3481L12.9611 16.4391V17.4502C12.9611 17.5685 12.9217 17.6831 12.8497 17.774C12.7777 17.8649 12.6776 17.9263 12.5669 17.9476L12.4804 17.9557H11.519C11.4065 17.9558 11.2976 17.9143 11.2111 17.8385C11.1247 17.7628 11.0663 17.6576 11.046 17.5412L11.0383 17.4502V16.4391C11.0383 16.3208 11.0777 16.2062 11.1497 16.1153C11.2218 16.0244 11.3218 15.963 11.4325 15.9417L11.519 15.9336H12.4804Z" fill="#141414"/>
</svg>
