<svg width="24" height="24" viewBox="0 0 24 24" fill="none" xmlns="http://www.w3.org/2000/svg">
<g clip-path="url(#clip0_32_5530)">
<path fill-rule="evenodd" clip-rule="evenodd" d="M8.907 2.6L11.99 6.518L13.951 3.121C14.0836 2.89133 14.302 2.72374 14.5582 2.6551C14.8144 2.58646 15.0873 2.6224 15.317 2.755L18.781 4.755C18.9226 4.83665 19.042 4.95176 19.1288 5.09025C19.2156 5.22875 19.2671 5.38641 19.2788 5.54942C19.2906 5.71244 19.2622 5.87586 19.1961 6.02536C19.1301 6.17486 19.0284 6.3059 18.9 6.407L14.982 9.489L18.379 11.451C18.6087 11.5836 18.7763 11.802 18.8449 12.0582C18.9135 12.3144 18.8776 12.5873 18.745 12.817L16.745 16.281C16.6178 16.5012 16.4114 16.6646 16.168 16.738L16.82 20H17C17.2652 20 17.5196 20.1054 17.7071 20.2929C17.8946 20.4804 18 20.7348 18 21C18 21.2652 17.8946 21.5196 17.7071 21.7071C17.5196 21.8946 17.2652 22 17 22H7C6.73478 22 6.48043 21.8946 6.29289 21.7071C6.10536 21.5196 6 21.2652 6 21C6 20.7348 6.10536 20.4804 6.29289 20.2929C6.48043 20.1054 6.73478 20 7 20H7.18L8.01 15.856L5.219 14.245C5.07748 14.1633 4.95815 14.0481 4.87145 13.9095C4.78475 13.771 4.73333 13.6133 4.72169 13.4503C4.71005 13.2873 4.73853 13.1239 4.80466 12.9745C4.87078 12.825 4.97253 12.694 5.101 12.593L9.018 9.51L5.621 7.55C5.39133 7.41739 5.22374 7.19897 5.1551 6.9428C5.08646 6.68663 5.1224 6.41368 5.255 6.184L7.255 2.72C7.33656 2.57835 7.4516 2.45885 7.59005 2.37197C7.7285 2.28509 7.88613 2.23346 8.04916 2.22162C8.21218 2.20978 8.37562 2.23808 8.52517 2.30404C8.67472 2.37001 8.80582 2.47163 8.907 2.6ZM11.835 13L9.95 16.352L9.22 20H14.78L14.05 16.352L12.166 13H11.835ZM12.5 16C12.617 16 12.7304 16.041 12.8203 16.1159C12.9102 16.1908 12.9709 16.2949 12.992 16.41L13 16.5V17.5C13 17.617 12.959 17.7304 12.8841 17.8203C12.8092 17.9102 12.7051 17.9709 12.59 17.992L12.5 18H11.5C11.383 18 11.2696 17.959 11.1797 17.8841C11.0898 17.8092 11.0291 17.7051 11.008 17.59L11 17.5V16.5C11 16.383 11.041 16.2696 11.1159 16.1797C11.1908 16.0898 11.2949 16.0291 11.41 16.008L11.5 16H12.5Z" fill="#141414"/>
</g>
<defs>
<clipPath id="clip0_32_5530">
<rect width="24" height="24" fill="white"/>
</clipPath>
</defs>
</svg>
