<svg width="24" height="24" viewBox="0 0 24 24" fill="none" xmlns="http://www.w3.org/2000/svg">
<g clip-path="url(#clip0_32_5529)">
<path fill-rule="evenodd" clip-rule="evenodd" d="M15 6C15.1467 5.99991 15.2917 6.03211 15.4246 6.09433C15.5575 6.15654 15.6751 6.24725 15.769 6.36L15.844 6.463L22.844 17.463C22.9348 17.6056 22.988 17.7689 22.9986 17.9377C23.0091 18.1064 22.9767 18.2751 22.9044 18.4279C22.8321 18.5807 22.7222 18.7127 22.585 18.8115C22.4479 18.9104 22.2879 18.9728 22.12 18.993L22 19H2C1.8235 19 1.65014 18.9532 1.49756 18.8645C1.34497 18.7758 1.21858 18.6483 1.13122 18.4949C1.04387 18.3415 0.998671 18.1678 1.00021 17.9913C1.00175 17.8148 1.04998 17.6418 1.14 17.49L1.21 17.386L8.21 8.386C8.29677 8.27437 8.40623 8.18241 8.53114 8.11619C8.65606 8.04997 8.7936 8.01099 8.93469 8.00182C9.07578 7.99266 9.21721 8.01351 9.34964 8.06301C9.48208 8.11252 9.60251 8.18954 9.703 8.289L9.79 8.387L11.52 10.615L14.156 6.464C14.2462 6.322 14.3707 6.20504 14.518 6.12394C14.6654 6.04283 14.8308 6.00021 14.999 6H15ZM7.524 12.527L4.044 17H6.246L7.524 12.527ZM14.367 9.863L12.825 12.29L13.835 13.587L14.367 9.863Z" fill="#141414"/>
</g>
<defs>
<clipPath id="clip0_32_5529">
<rect width="24" height="24" fill="white"/>
</clipPath>
</defs>
</svg>
