<svg width="24" height="24" viewBox="0 0 24 24" fill="none" xmlns="http://www.w3.org/2000/svg">
<g clip-path="url(#clip0_32_5528)">
<path fill-rule="evenodd" clip-rule="evenodd" d="M12 1C12.2652 1 12.5196 1.10536 12.7071 1.29289C12.8946 1.48043 13 1.73478 13 2V3.957C13.031 4.307 13.069 4.657 13.109 5.006C13.3315 5.03033 13.5395 5.12862 13.6995 5.28515C13.8596 5.44168 13.9625 5.64738 13.9918 5.86933C14.021 6.09128 13.975 6.31663 13.861 6.5093C13.747 6.70197 13.5716 6.85081 13.363 6.932L13.426 7.346C13.701 9.108 14.117 11.216 14.708 13H15C15.2237 12.9999 15.441 13.0749 15.6171 13.2129C15.7932 13.3508 15.9179 13.5439 15.9714 13.7611C16.0248 13.9783 16.0039 14.2072 15.9119 14.4111C15.8199 14.6151 15.6622 14.7823 15.464 14.886C15.642 15.262 15.834 15.634 16.034 16H17C17.2458 15.9991 17.4833 16.0888 17.6671 16.2519C17.851 16.415 17.9683 16.6401 17.9968 16.8843C18.0252 17.1284 17.9627 17.3744 17.8213 17.5754C17.6799 17.7764 17.4694 17.9183 17.23 17.974C18 19.142 18.833 20.284 19.753 21.341C19.8797 21.4856 19.962 21.6636 19.9901 21.8538C20.0182 22.044 19.9909 22.2383 19.9114 22.4133C19.832 22.5884 19.7038 22.7368 19.5421 22.8409C19.3805 22.9449 19.1922 23.0002 19 23H15C14.8308 23 14.6643 22.9571 14.5161 22.8753C14.368 22.7934 14.243 22.6753 14.153 22.532L14.092 22.419C13.9576 22.1526 13.7814 21.9095 13.57 21.699C13.204 21.324 12.697 21 12 21C11.303 21 10.796 21.324 10.43 21.699C10.2629 21.868 10.1165 22.0563 9.994 22.26L9.908 22.419C9.82796 22.5925 9.6999 22.7394 9.53899 22.8423C9.37807 22.9453 9.19104 23 9 23H5C4.80774 22.9999 4.61957 22.9445 4.45802 22.8402C4.29648 22.736 4.16842 22.5874 4.08917 22.4122C4.00992 22.237 3.98285 22.0427 4.01119 21.8526C4.03954 21.6624 4.12211 21.4844 4.249 21.34C5.168 20.282 5.999 19.143 6.77 17.974C6.53061 17.9183 6.32011 17.7764 6.17868 17.5754C6.03725 17.3744 5.9748 17.1284 6.00324 16.8843C6.03169 16.6401 6.14903 16.415 6.33289 16.2519C6.51674 16.0888 6.75423 15.9991 7 16H7.966C8.166 15.634 8.358 15.261 8.536 14.886C8.33779 14.7823 8.18009 14.6151 8.08811 14.4111C7.99614 14.2072 7.9752 13.9783 8.02864 13.7611C8.08208 13.5439 8.20683 13.3508 8.38292 13.2129C8.55902 13.0749 8.77629 12.9999 9 13H9.292C9.817 11.415 10.205 9.572 10.477 7.945L10.637 6.932C10.4284 6.85081 10.253 6.70197 10.139 6.5093C10.025 6.31663 9.97898 6.09128 10.0082 5.86933C10.0375 5.64738 10.1404 5.44168 10.3005 5.28515C10.4605 5.12862 10.6685 5.03033 10.891 5.006C10.931 4.656 10.969 4.306 11.001 3.956V2C11.001 1.73478 11.1064 1.48043 11.2939 1.29289C11.4814 1.10536 11.7348 1 12 1ZM13.323 15H10.677L10.455 15.503L10.219 16H13.781L13.545 15.503L13.323 15Z" fill="#141414"/>
</g>
<defs>
<clipPath id="clip0_32_5528">
<rect width="24" height="24" fill="white"/>
</clipPath>
</defs>
</svg>
