<svg width="24" height="24" viewBox="0 0 24 24" fill="none" xmlns="http://www.w3.org/2000/svg">
<path fill-rule="evenodd" clip-rule="evenodd" d="M14.7269 6C14.8603 5.99992 14.9921 6.02964 15.1129 6.08707C15.2337 6.1445 15.3406 6.22823 15.426 6.33231L15.4942 6.42738L21.8577 16.5812C21.9403 16.7129 21.9886 16.8636 21.9982 17.0194C22.0078 17.1751 21.9784 17.3308 21.9126 17.4719C21.8469 17.613 21.747 17.7348 21.6223 17.826C21.4976 17.9173 21.3521 17.9749 21.1995 17.9935L21.0905 18H2.90892C2.74846 18 2.59087 17.9568 2.45216 17.8749C2.31344 17.793 2.19854 17.6753 2.11913 17.5338C2.03972 17.3922 1.99863 17.2318 2.00003 17.0689C2.00144 16.9059 2.04528 16.7463 2.12711 16.6062L2.19075 16.5102L8.55428 8.20246C8.63316 8.09942 8.73267 8.01454 8.84623 7.95341C8.95979 7.89228 9.08482 7.8563 9.21308 7.84784C9.34134 7.83938 9.46991 7.85863 9.59031 7.90432C9.7107 7.95001 9.82019 8.02111 9.91153 8.11292L9.99062 8.20338L11.5633 10.26L13.9597 6.42831C14.0416 6.29723 14.1548 6.18927 14.2888 6.1144C14.4227 6.03954 14.5731 6.00019 14.726 6H14.7269ZM7.93066 12.0249L4.76707 16.1538H6.76886L7.93066 12.0249ZM14.1515 9.56585L12.7497 11.8062L13.6678 13.0034L14.1515 9.56585Z" fill="#141414"/>
</svg>
