<svg width="24" height="24" viewBox="0 0 24 24" fill="none" xmlns="http://www.w3.org/2000/svg">
<path fill-rule="evenodd" clip-rule="evenodd" d="M11.9995 2C12.2481 2 12.4866 2.09578 12.6624 2.26627C12.8382 2.43675 12.9369 2.66799 12.9369 2.90909V4.68818C12.966 5.00636 13.0016 5.32455 13.0391 5.64182C13.2477 5.66393 13.4427 5.75329 13.5927 5.89559C13.7428 6.03789 13.8392 6.2249 13.8667 6.42666C13.8941 6.62843 13.8509 6.8333 13.7441 7.00845C13.6372 7.18361 13.4728 7.31892 13.2772 7.39273L13.3363 7.76909C13.5941 9.37091 13.9841 11.2873 14.5381 12.9091H14.8119C15.0216 12.909 15.2253 12.9772 15.3904 13.1026C15.5554 13.228 15.6724 13.4035 15.7225 13.601C15.7726 13.7985 15.753 14.0066 15.6667 14.1919C15.5805 14.3773 15.4327 14.5293 15.2469 14.6236C15.4137 14.9655 15.5937 15.3036 15.7812 15.6364H16.6868C16.9172 15.6356 17.1398 15.7171 17.3122 15.8654C17.4845 16.0137 17.5946 16.2183 17.6212 16.4402C17.6479 16.6622 17.5893 16.8859 17.4568 17.0686C17.3242 17.2513 17.1268 17.3803 16.9024 17.4309C17.6243 18.4927 18.4052 19.5309 19.2676 20.4918C19.3864 20.6233 19.4636 20.7851 19.4899 20.958C19.5163 21.1309 19.4907 21.3075 19.4162 21.4666C19.3417 21.6258 19.2215 21.7607 19.0699 21.8553C18.9184 21.9499 18.742 22.0001 18.5617 22H14.8119C14.6532 22 14.4971 21.961 14.3582 21.8866C14.2194 21.8122 14.1022 21.7048 14.0178 21.5745L13.9606 21.4718C13.8347 21.2297 13.6695 21.0087 13.4713 20.8173C13.1282 20.4764 12.6529 20.1818 11.9995 20.1818C11.3461 20.1818 10.8708 20.4764 10.5277 20.8173C10.371 20.9709 10.2338 21.1421 10.1189 21.3273L10.0383 21.4718C9.96326 21.6295 9.84321 21.7631 9.69236 21.8567C9.54151 21.9503 9.36617 22 9.18708 22H5.43722C5.25698 22 5.08057 21.9495 4.92913 21.8547C4.77769 21.76 4.65764 21.6249 4.58334 21.4656C4.50905 21.3064 4.48367 21.1297 4.51025 20.9569C4.53682 20.784 4.61422 20.6222 4.73318 20.4909C5.59471 19.5291 6.37374 18.4936 7.09653 17.4309C6.87211 17.3803 6.67478 17.2513 6.54219 17.0686C6.4096 16.8859 6.35106 16.6622 6.37772 16.4402C6.40439 16.2183 6.5144 16.0137 6.68675 15.8654C6.85911 15.7171 7.08174 15.6356 7.31215 15.6364H8.21774C8.40523 15.3036 8.58523 14.9645 8.75209 14.6236C8.56628 14.5293 8.41844 14.3773 8.33222 14.1919C8.24599 14.0066 8.22636 13.7985 8.27646 13.601C8.32656 13.4035 8.44351 13.228 8.60859 13.1026C8.77367 12.9772 8.97736 12.909 9.18708 12.9091H9.46082C9.95299 11.4682 10.3167 9.79273 10.5717 8.31364L10.7217 7.39273C10.5261 7.31892 10.3617 7.18361 10.2549 7.00845C10.148 6.8333 10.1048 6.62843 10.1323 6.42666C10.1597 6.2249 10.2562 6.03789 10.4062 5.89559C10.5563 5.75329 10.7512 5.66393 10.9598 5.64182C10.9973 5.32364 11.0329 5.00545 11.0629 4.68727V2.90909C11.0629 2.66799 11.1617 2.43675 11.3375 2.26627C11.5133 2.09578 11.7508 2 11.9995 2ZM13.2397 14.7273H10.7592L10.5511 15.1845L10.3298 15.6364H13.6691L13.4479 15.1845L13.2397 14.7273Z" fill="#141414"/>
</svg>
