<svg width="24" height="24" viewBox="0 0 24 24" fill="none" xmlns="http://www.w3.org/2000/svg">
<path fill-rule="evenodd" clip-rule="evenodd" d="M12.001 2C11.5555 1.99993 11.1156 2.10042 10.7137 2.29409C10.3119 2.48777 9.95827 2.76968 9.67894 3.1191C9.39961 3.46852 9.20166 3.87654 9.09966 4.31315C8.99766 4.74976 8.9942 5.20383 9.08955 5.64196C8.70215 5.82196 8.33263 6.03695 7.98695 6.28295C7.65763 5.98131 7.26535 5.7578 6.83894 5.62884C6.41254 5.49987 5.96285 5.46873 5.52292 5.53771C5.08299 5.60669 4.664 5.77403 4.29676 6.02743C3.92951 6.28084 3.62333 6.61386 3.40073 7.00204C3.17812 7.39021 3.04475 7.82367 3.01041 8.27055C2.97607 8.71743 3.04163 9.16638 3.20228 9.5844C3.36293 10.0024 3.61459 10.3789 3.93875 10.6861C4.26292 10.9934 4.65135 11.2236 5.07551 11.3599C5.03717 11.7857 5.03717 12.2141 5.07551 12.6399C4.65118 12.776 4.26255 13.006 3.93818 13.3132C3.61381 13.6204 3.36195 13.9968 3.20112 14.4149C3.04029 14.833 2.97458 15.282 3.00882 15.729C3.04306 16.176 3.17638 16.6095 3.39898 16.9978C3.62157 17.3861 3.92779 17.7193 4.2951 17.9727C4.66242 18.2262 5.0815 18.3936 5.52153 18.4626C5.96156 18.5315 6.41135 18.5004 6.83783 18.3713C7.26431 18.2422 7.65663 18.0186 7.98596 17.7168C8.27104 17.9188 8.57004 18.0998 8.88194 18.2578L8.07834 20.6838C8.03712 20.8084 8.02068 20.94 8.02997 21.071C8.03926 21.202 8.0741 21.3299 8.13248 21.4474C8.2504 21.6846 8.4571 21.865 8.70712 21.9488C8.95713 22.0326 9.22997 22.013 9.46562 21.8943C9.70127 21.7756 9.88043 21.5675 9.96368 21.3158L10.7663 18.8898C11.5829 19.0371 12.4191 19.0371 13.2357 18.8898L14.0383 21.3158C14.1216 21.5675 14.3007 21.7756 14.5364 21.8943C14.6531 21.953 14.7801 21.9881 14.9102 21.9975C15.0404 22.0068 15.1711 21.9903 15.2949 21.9488C15.4187 21.9073 15.5331 21.8416 15.6317 21.7556C15.7303 21.6696 15.8111 21.5648 15.8695 21.4474C15.9279 21.3299 15.9627 21.202 15.972 21.071C15.9813 20.94 15.9649 20.8084 15.9236 20.6838L15.12 18.2578C15.4309 18.1003 15.7297 17.9198 16.014 17.7178C16.3434 18.0196 16.7357 18.2432 17.1622 18.3723C17.5887 18.5014 18.0384 18.5325 18.4785 18.4636C18.9185 18.3946 19.3376 18.2272 19.7049 17.9737C20.0722 17.7203 20.3784 17.3871 20.601 16.9988C20.8236 16.6105 20.9569 16.177 20.9912 15.73C21.0254 15.283 20.9597 14.834 20.7989 14.4159C20.638 13.9978 20.3862 13.6214 20.0618 13.3142C19.7375 13.007 19.3488 12.777 18.9245 12.6409C18.9632 12.2148 18.9635 11.786 18.9255 11.3599C19.3496 11.2236 19.7381 10.9934 20.0622 10.6861C20.3864 10.3789 20.6381 10.0024 20.7987 9.5844C20.9594 9.16638 21.0249 8.71743 20.9906 8.27055C20.9562 7.82367 20.8229 7.39021 20.6003 7.00204C20.3777 6.61386 20.0715 6.28084 19.7042 6.02743C19.337 5.77403 18.918 5.60669 18.4781 5.53771C18.0381 5.46873 17.5885 5.49987 17.1621 5.62884C16.7356 5.7578 16.3434 5.98131 16.014 6.28295C15.6671 6.0358 15.2984 5.82123 14.9124 5.64196C15.0078 5.20383 15.0043 4.74976 14.9023 4.31315C14.8003 3.87654 14.6024 3.46852 14.323 3.1191C14.0437 2.76968 13.6901 2.48777 13.2883 2.29409C12.8864 2.10042 12.4465 1.99993 12.001 2ZM14.4823 16.3318C14.6887 16.2119 14.8862 16.0772 15.0734 15.9288C14.9764 15.2625 15.1059 14.5828 15.4409 13.9999C15.775 13.4157 16.2956 12.9625 16.918 12.7139C16.9853 12.2403 16.9853 11.7595 16.918 11.2859C16.2956 11.0373 15.775 10.5841 15.4409 9.99991C15.1055 9.41713 14.9757 8.73736 15.0724 8.07093C14.6993 7.77461 14.2858 7.53382 13.8446 7.35594C13.3198 7.77373 12.6701 8.00067 12.001 7.99993C11.3047 7.99993 10.664 7.75993 10.1564 7.35594C9.71236 7.53594 9.29914 7.77693 8.92863 8.07093C9.02532 8.73736 8.89546 9.41713 8.5601 9.99991C8.22649 10.5837 7.70667 11.0369 7.08501 11.2859C7.01773 11.7595 7.01773 12.2403 7.08501 12.7139C7.70685 12.963 8.22707 13.416 8.56161 13.9995C8.89615 14.5831 9.02545 15.2632 8.92863 15.9298C9.11537 16.0768 9.31305 16.2118 9.51966 16.3318L11.0593 11.6839C11.1253 11.4849 11.2518 11.3119 11.4209 11.1893C11.59 11.0666 11.7931 11.0007 12.0015 11.0007C12.2099 11.0007 12.413 11.0666 12.5821 11.1893C12.7512 11.3119 12.8777 11.4849 12.9437 11.6839L14.4823 16.3318Z" fill="#141414"/>
</svg>
