<svg width="24" height="24" viewBox="0 0 24 24" fill="none" xmlns="http://www.w3.org/2000/svg">
<path d="M21 6.5C21.2652 6.5 21.5196 6.60536 21.7071 6.79289C21.8946 6.98043 22 7.23478 22 7.5C22 7.76522 21.8946 8.01957 21.7071 8.20711C21.5196 8.39464 21.2652 8.5 21 8.5V18.5C21.2652 18.5 21.5196 18.6054 21.7071 18.7929C21.8946 18.9804 22 19.2348 22 19.5C22 19.7652 21.8946 20.0196 21.7071 20.2071C21.5196 20.3946 21.2652 20.5 21 20.5H3C2.73478 20.5 2.48043 20.3946 2.29289 20.2071C2.10536 20.0196 2 19.7652 2 19.5C2 19.2348 2.10536 18.9804 2.29289 18.7929C2.48043 18.6054 2.73478 18.5 3 18.5V8.5C2.73478 8.5 2.48043 8.39464 2.29289 8.20711C2.10536 8.01957 2 7.76522 2 7.5C2 7.23478 2.10536 6.98043 2.29289 6.79289C2.48043 6.60536 2.73478 6.5 3 6.5H21ZM7 10.5C6.73478 10.5 6.48043 10.6054 6.29289 10.7929C6.10536 10.9804 6 11.2348 6 11.5V18.5H8V11.5C8 11.2348 7.89464 10.9804 7.70711 10.7929C7.51957 10.6054 7.26522 10.5 7 10.5ZM12 10.5C11.7348 10.5 11.4804 10.6054 11.2929 10.7929C11.1054 10.9804 11 11.2348 11 11.5V18.5H13V11.5C13 11.2348 12.8946 10.9804 12.7071 10.7929C12.5196 10.6054 12.2652 10.5 12 10.5ZM17 10.5C16.7348 10.5 16.4804 10.6054 16.2929 10.7929C16.1054 10.9804 16 11.2348 16 11.5V18.5H18V11.5C18 11.2348 17.8946 10.9804 17.7071 10.7929C17.5196 10.6054 17.2652 10.5 17 10.5ZM18 3.5C18.2652 3.5 18.5196 3.60536 18.7071 3.79289C18.8946 3.98043 19 4.23478 19 4.5C19 4.76522 18.8946 5.01957 18.7071 5.20711C18.5196 5.39464 18.2652 5.5 18 5.5H6C5.73478 5.5 5.48043 5.39464 5.29289 5.20711C5.10536 5.01957 5 4.76522 5 4.5C5 4.23478 5.10536 3.98043 5.29289 3.79289C5.48043 3.60536 5.73478 3.5 6 3.5H18Z" fill="#141414"/>
</svg>
