<svg width="24" height="24" viewBox="0 0 24 24" fill="none" xmlns="http://www.w3.org/2000/svg">
<path fill-rule="evenodd" clip-rule="evenodd" d="M16.6514 2.5C19.4419 2.50008 20.3725 4.13952 20.3818 6.16309V20.127H21.3027C21.6839 20.1272 22 20.4382 22 20.8135C21.9999 21.1887 21.6839 21.4998 21.3027 21.5H2.69727C2.31613 21.4998 2.00013 21.1887 2 20.8135C2 20.4382 2.31605 20.1272 2.69727 20.127H3.62793V6.16309C3.62793 4.13952 4.55809 2.50008 7.34863 2.5H16.6514ZM10.084 14.4033C9.60026 14.4033 9.20898 14.7885 9.20898 15.2646V20.127H14.7998V15.2646C14.7998 14.7886 14.4001 14.4034 13.9258 14.4033H10.084ZM12 5.47559C11.6186 5.47559 11.3027 5.78766 11.3027 6.16309V7.76465H9.6748C9.29341 7.76465 8.97656 8.07673 8.97656 8.45215C8.97675 8.82742 9.29353 9.13867 9.6748 9.13867H11.3027V10.7412C11.3029 11.1165 11.6187 11.4277 12 11.4277C12.3813 11.4277 12.6971 11.1165 12.6973 10.7412V9.13867H14.3252C14.7065 9.13867 15.0232 8.82742 15.0234 8.45215C15.0234 8.07673 14.7066 7.76465 14.3252 7.76465H12.6973V6.16309C12.6973 5.78766 12.3814 5.47559 12 5.47559Z" fill="#141414"/>
</svg>
