<svg width="24" height="24" viewBox="0 0 24 24" fill="none" xmlns="http://www.w3.org/2000/svg">
<g clip-path="url(#clip0_32_5538)">
<path fill-rule="evenodd" clip-rule="evenodd" d="M16.775 3.026C17.0237 2.96828 17.2851 3.00787 17.5055 3.13665C17.726 3.26543 17.8888 3.47366 17.9607 3.71865C18.0325 3.96363 18.008 4.22683 17.892 4.45429C17.776 4.68175 17.5775 4.85624 17.337 4.942L17.225 4.974L15 5.488V10H19C19.5046 9.99984 19.9906 10.1904 20.3605 10.5335C20.7305 10.8766 20.9572 11.3468 20.995 11.85L21 12V19C21.0002 19.5046 20.8096 19.9906 20.4665 20.3605C20.1234 20.7305 19.6532 20.9572 19.15 20.995L19 21H6C5.49542 21.0002 5.00943 20.8096 4.63945 20.4665C4.26947 20.1234 4.04284 19.6532 4.005 19.15L4 19V8C3.76419 8.00033 3.53586 7.91731 3.35532 7.76562C3.17478 7.61393 3.05365 7.40331 3.01334 7.17098C2.97302 6.93864 3.0161 6.69953 3.13498 6.49588C3.25385 6.29223 3.44087 6.13714 3.663 6.058L3.775 6.026L16.775 3.026ZM15 14H14C13.7551 14 13.5187 14.09 13.3356 14.2527C13.1526 14.4155 13.0357 14.6397 13.007 14.883L13 15V19H16V15C16 14.7551 15.91 14.5187 15.7473 14.3356C15.5845 14.1526 15.3602 14.0357 15.117 14.007L15 14ZM8 7.103L6 7.565V19H8V7.103ZM13 5.949L10 6.642V10H13V5.949Z" fill="#141414"/>
</g>
<defs>
<clipPath id="clip0_32_5538">
<rect width="24" height="24" fill="white"/>
</clipPath>
</defs>
</svg>
