<svg width="24" height="24" viewBox="0 0 24 24" fill="none" xmlns="http://www.w3.org/2000/svg">
<path fill-rule="evenodd" clip-rule="evenodd" d="M10.8555 3.38011C11.5252 2.87264 12.4748 2.87264 13.1445 3.38011L14.3906 4.30687H17.5625C18.0741 4.30687 18.493 4.69815 18.4932 5.18773L18.5117 7.36937L19.6562 8.22386C20.1119 8.56219 20.3721 9.0792 20.3721 9.63109V19.6643H21.3027C21.6839 19.6645 22 19.9674 22 20.3323C22 20.6972 21.6839 21 21.3027 21.0002H2.69727C2.31606 21 2.00001 20.6972 2 20.3323C2 19.9674 2.31605 19.6645 2.69727 19.6643H3.58105L3.62793 9.62133C3.62806 9.07848 3.8882 8.56211 4.34375 8.22386L10.8555 3.38011ZM11.0693 15.8811C10.2975 15.8813 9.67485 16.4773 9.6748 17.2161V19.6643H14.3252V17.2161C14.3252 16.4773 13.7025 15.8813 12.9307 15.8811H11.0693ZM7.81348 9.87133C7.30219 9.87157 6.88399 10.2716 6.88379 10.761V12.0969C6.88385 12.5864 7.3021 12.9873 7.81348 12.9875H9.6748C10.1862 12.9873 10.6044 12.5864 10.6045 12.0969V10.761C10.6043 10.2716 10.1861 9.87153 9.6748 9.87133H7.81348ZM14.3252 9.87133C13.8139 9.87153 13.3957 10.2716 13.3955 10.761V12.0969C13.3956 12.5864 13.8138 12.9873 14.3252 12.9875H16.1865C16.6979 12.9873 17.1161 12.5864 17.1162 12.0969V10.761C17.116 10.2716 16.6978 9.87157 16.1865 9.87133H14.3252Z" fill="#141414"/>
</svg>
