<svg width="24" height="24" viewBox="0 0 24 24" fill="none" xmlns="http://www.w3.org/2000/svg">
<path fill-rule="evenodd" clip-rule="evenodd" d="M8.4 20.1818V9.27273C8.4 7.26818 9.0183 5.52727 9.6924 4.28909C9.97844 3.75318 10.3212 3.25023 10.7148 2.78909C11.0451 2.41273 11.4672 2 12 2C12.5301 2 12.9558 2.41364 13.2852 2.78909C13.6092 3.15818 13.9692 3.67 14.3076 4.28909C14.9817 5.52727 15.6 7.26818 15.6 9.27273V20.1818C15.8387 20.1818 16.0676 20.2776 16.2364 20.4481C16.4052 20.6186 16.5 20.8498 16.5 21.0909C16.5 21.332 16.4052 21.5632 16.2364 21.7337C16.0676 21.9042 15.8387 22 15.6 22H8.4C8.16131 22 7.93239 21.9042 7.7636 21.7337C7.59482 21.5632 7.5 21.332 7.5 21.0909C7.5 20.8498 7.59482 20.6186 7.7636 20.4481C7.93239 20.2776 8.16131 20.1818 8.4 20.1818ZM10.2 15.8245C10.1999 15.8843 10.2114 15.9434 10.234 15.9987C10.2565 16.0539 10.2896 16.1041 10.3314 16.1464L13.6137 19.4609C13.6875 19.5355 13.8 19.4736 13.8 19.3673V17.2664C13.8001 17.2066 13.7886 17.1475 13.766 17.0922C13.7435 17.037 13.7104 16.9868 13.6686 16.9445L11.7912 15.0491C11.7068 14.9639 11.6594 14.8483 11.6594 14.7277C11.6594 14.6072 11.7068 14.4916 11.7912 14.4064L13.6686 12.51C13.7104 12.4677 13.7435 12.4175 13.766 12.3623C13.7886 12.3071 13.8001 12.2479 13.8 12.1882V9.99364C13.8001 9.9339 13.7886 9.87474 13.766 9.81952C13.7435 9.7643 13.7104 9.71411 13.6686 9.67182L11.154 7.13273C10.9182 6.89455 10.5177 6.99091 10.4385 7.31818C10.3431 7.70909 10.2711 8.12273 10.2324 8.55182C10.2271 8.61626 10.2358 8.68111 10.2581 8.74175C10.2803 8.80239 10.3155 8.85735 10.3611 8.90273L12.2088 10.7691C12.2507 10.8113 12.284 10.8615 12.3066 10.9167C12.3293 10.9719 12.341 11.0311 12.341 11.0909C12.341 11.1507 12.3293 11.2099 12.3066 11.2651C12.284 11.3203 12.2507 11.3705 12.2088 11.4127L10.3314 13.3082C10.2896 13.3505 10.2565 13.4007 10.234 13.4559C10.2114 13.5111 10.1999 13.5703 10.2 13.63V15.8245Z" fill="#141414"/>
</svg>
