<svg width="24" height="24" viewBox="0 0 24 24" fill="none" xmlns="http://www.w3.org/2000/svg">
<path fill-rule="evenodd" clip-rule="evenodd" d="M11.1675 2.2532C11.3926 2.10235 11.6542 2.01552 11.9244 2.00189C12.1946 1.98827 12.4635 2.04836 12.7025 2.17581L12.8325 2.2532L15.3474 3.93972C15.518 4.05387 15.6635 4.20195 15.775 4.37481C15.8864 4.54768 15.9614 4.74166 15.9954 4.9448L16.0134 5.09958L16.2534 8.96713C16.4471 9.01826 16.621 9.12665 16.7527 9.27828C16.8844 9.42991 16.9678 9.61778 16.992 9.81757C17.0163 10.0174 16.9803 10.2199 16.8887 10.3989C16.7971 10.5779 16.6542 10.7251 16.4784 10.8215L16.3714 10.8718L16.9394 19.9898H18.9993C19.2542 19.9901 19.4994 20.0882 19.6847 20.2641C19.87 20.4399 19.9816 20.6803 19.9965 20.936C20.0114 21.1918 19.9286 21.4436 19.7651 21.64C19.6015 21.8365 19.3694 21.9627 19.1163 21.993L18.9993 22H4.99966C4.74478 21.9997 4.49964 21.9016 4.3143 21.7258C4.12897 21.5499 4.01744 21.3096 4.00251 21.0538C3.98757 20.7981 4.07035 20.5463 4.23394 20.3498C4.39753 20.1534 4.62957 20.0271 4.88266 19.9969L4.99966 19.9898H7.05961L7.6276 10.8728C7.44063 10.7979 7.28049 10.668 7.16813 10.5002C7.05577 10.3324 6.99641 10.1344 6.99781 9.93207C6.99922 9.72978 7.06132 9.53262 7.176 9.36638C7.29068 9.20014 7.45261 9.07255 7.6406 9.0003L7.7456 8.96713L7.98559 5.09958C7.99841 4.89395 8.05303 4.69315 8.14608 4.50956C8.23913 4.32598 8.36862 4.16351 8.52658 4.03219L8.65158 3.93972L11.1675 2.2532ZM5.70764 8.22337C5.89511 8.41185 6.00042 8.66745 6.00042 8.93396C6.00042 9.20047 5.89511 9.45607 5.70764 9.64455L4.70766 10.6496C4.52016 10.8382 4.2658 10.9442 4.00053 10.9443C3.73527 10.9444 3.48083 10.8386 3.2932 10.6501C3.10556 10.4617 3.00009 10.206 3 9.9394C2.99991 9.67278 3.10519 9.41704 3.2927 9.22845L4.29267 8.22337C4.4802 8.03495 4.7345 7.9291 4.99966 7.9291C5.26482 7.9291 5.51912 8.03495 5.70664 8.22337H5.70764ZM19.7073 8.22337L20.7073 9.22845C20.8948 9.41704 21.0001 9.67278 21 9.9394C20.9999 10.206 20.8944 10.4617 20.7068 10.6501C20.5192 10.8386 20.2647 10.9444 19.9995 10.9443C19.7342 10.9442 19.4798 10.8382 19.2923 10.6496L18.2924 9.64455C18.1102 9.45499 18.0094 9.20111 18.0117 8.93758C18.014 8.67405 18.1191 8.42196 18.3045 8.23561C18.4899 8.04926 18.7408 7.94356 19.0029 7.94127C19.2651 7.93898 19.5187 8.04029 19.7073 8.22337ZM11.9995 5.41618C11.8025 5.41618 11.6075 5.45518 11.4255 5.53094C11.2435 5.60671 11.0781 5.71776 10.9389 5.85775C10.7996 5.99775 10.6891 6.16395 10.6137 6.34686C10.5383 6.52977 10.4995 6.72582 10.4995 6.9238C10.4995 7.12179 10.5383 7.31783 10.6137 7.50074C10.6891 7.68366 10.7996 7.84986 10.9389 7.98985C11.0781 8.12985 11.2435 8.2409 11.4255 8.31666C11.6075 8.39243 11.8025 8.43142 11.9995 8.43142C12.3973 8.43142 12.7788 8.27258 13.0601 7.98985C13.3414 7.70712 13.4995 7.32365 13.4995 6.9238C13.4995 6.52396 13.3414 6.14049 13.0601 5.85775C12.7788 5.57502 12.3973 5.41618 11.9995 5.41618ZM4.70666 4.20305L5.70664 5.20813C5.8888 5.39769 5.98959 5.65158 5.98731 5.91511C5.98503 6.17863 5.87986 6.43072 5.69446 6.61707C5.50906 6.80342 5.25825 6.90912 4.99606 6.91141C4.73387 6.9137 4.48127 6.8124 4.29267 6.62931L3.2927 5.62423C3.11054 5.43467 3.00975 5.18079 3.01203 4.91726C3.01431 4.65373 3.11947 4.40164 3.30488 4.2153C3.49028 4.02894 3.74109 3.92324 4.00328 3.92095C4.26547 3.91866 4.51807 4.01997 4.70666 4.20305ZM19.2923 4.20305C19.4723 4.02279 19.7138 3.91814 19.9677 3.91034C20.2216 3.90255 20.469 3.9922 20.6596 4.16109C20.8501 4.32998 20.9696 4.56543 20.9937 4.81964C21.0178 5.07385 20.9447 5.32774 20.7893 5.52976L20.7063 5.62423L19.7063 6.62931C19.5264 6.80957 19.2849 6.91423 19.031 6.92202C18.777 6.92982 18.5296 6.84016 18.3391 6.67128C18.1485 6.50239 18.0291 6.26693 18.005 6.01272C17.9809 5.75852 18.054 5.50462 18.2094 5.30261L18.2924 5.20813L19.2923 4.20305Z" fill="#141414"/>
</svg>
