<svg width="24" height="24" viewBox="0 0 24 24" fill="none" xmlns="http://www.w3.org/2000/svg">
<path d="M15 18.5C15.2548 18.5003 15.5002 18.5976 15.6855 18.7725C15.8709 18.9474 15.9821 19.187 15.9971 19.4414C16.012 19.6958 15.9292 19.9462 15.7656 20.1416C15.6021 20.337 15.3702 20.463 15.1172 20.4932L15 20.5H12C11.7452 20.4997 11.4998 20.4024 11.3145 20.2275C11.1291 20.0526 11.0179 19.813 11.0029 19.5586C10.988 19.3042 11.0708 19.0538 11.2344 18.8584C11.3979 18.663 11.6298 18.537 11.8828 18.5068L12 18.5H15Z" fill="#141414"/>
<path d="M13 15.5C13.2652 15.5 13.5195 15.6054 13.707 15.793C13.8946 15.9805 14 16.2348 14 16.5C14 16.7652 13.8946 17.0195 13.707 17.207C13.5195 17.3946 13.2652 17.5 13 17.5H9C8.73478 17.5 8.4805 17.3946 8.29297 17.207C8.10543 17.0195 8 16.7652 8 16.5C8 16.2348 8.10543 15.9805 8.29297 15.793C8.4805 15.6054 8.73478 15.5 9 15.5H13Z" fill="#141414"/>
<path d="M15 3.5C15.2449 3.50003 15.481 3.59021 15.6641 3.75293C15.8471 3.91565 15.9645 4.13963 15.9932 4.38281L16 4.5V4.9541C17.59 5.3321 18.8504 5.89109 19.7754 6.41309L20 6.54297V6.5C20.0003 6.24517 20.0976 5.99978 20.2725 5.81445C20.4474 5.62912 20.687 5.51787 20.9414 5.50293C21.1958 5.488 21.4462 5.57083 21.6416 5.73438C21.837 5.89793 21.963 6.12978 21.9932 6.38281L22 6.5V13.4004C22 13.6713 21.9005 13.933 21.7197 14.1348C21.5389 14.3367 21.289 14.4646 21.0195 14.4941L20.9004 14.5H16.0449C15.5061 14.5 15.063 14.0931 15.0059 13.5703L15 13.4541V13C15.0008 12.2191 14.697 11.4687 14.1533 10.9082C13.6096 10.3477 12.8685 10.021 12.0879 9.99805C11.3074 9.97517 10.5483 10.2576 9.97266 10.7852C9.39699 11.3128 9.04994 12.0446 9.00488 12.8242L9 13V13.4551C8.99996 13.9939 8.59315 14.437 8.07031 14.4941L7.9541 14.5H3.09961C2.82872 14.5 2.56703 14.4005 2.36523 14.2197C2.16334 14.0389 2.03543 13.789 2.00586 13.5195L2 13.4004V6.5C2.00028 6.24517 2.09755 5.99978 2.27246 5.81445C2.44743 5.62912 2.68696 5.51787 2.94141 5.50293C3.19581 5.488 3.44616 5.57083 3.6416 5.73438C3.83701 5.89793 3.96303 6.12978 3.99316 6.38281L4 6.5V6.54199C5.12941 5.88233 6.34446 5.38074 7.61035 5.05176L8 4.95508V4.5C8.00028 4.24517 8.09755 3.99978 8.27246 3.81445C8.44743 3.62912 8.68696 3.51787 8.94141 3.50293C9.19581 3.488 9.44616 3.57083 9.6416 3.73438C9.83701 3.89793 9.96303 4.12978 9.99316 4.38281L10 4.5V4.60938C11.1698 4.48101 12.3497 4.46571 13.5225 4.56348L14 4.60938V4.5C14 4.23478 14.1054 3.98051 14.293 3.79297C14.4805 3.60543 14.7348 3.5 15 3.5Z" fill="#141414"/>
</svg>
