<svg width="24" height="24" viewBox="0 0 24 24" fill="none" xmlns="http://www.w3.org/2000/svg">
<g clip-path="url(#clip0_32_5540)">
<path fill-rule="evenodd" clip-rule="evenodd" d="M11.168 2.353C11.3931 2.20292 11.6547 2.11652 11.9249 2.10297C12.1951 2.08941 12.464 2.1492 12.703 2.276L12.833 2.353L15.348 4.031C15.5186 4.14457 15.6641 4.2919 15.7756 4.46389C15.887 4.63588 15.962 4.82889 15.996 5.031L16.014 5.185L16.254 9.033C16.4477 9.08387 16.6216 9.19172 16.7533 9.34258C16.885 9.49344 16.9684 9.68036 16.9926 9.87914C17.0169 10.0779 16.9809 10.2794 16.8893 10.4575C16.7977 10.6356 16.6548 10.7821 16.479 10.878L16.372 10.928L16.94 20H19C19.2549 20.0003 19.5 20.0979 19.6854 20.2729C19.8707 20.4478 19.9822 20.687 19.9972 20.9414C20.0121 21.1958 19.9293 21.4464 19.7657 21.6418C19.6021 21.8373 19.3701 21.9629 19.117 21.993L19 22H5C4.74512 21.9997 4.49997 21.9021 4.31463 21.7272C4.1293 21.5522 4.01777 21.313 4.00283 21.0586C3.98789 20.8042 4.07067 20.5536 4.23426 20.3582C4.39786 20.1627 4.6299 20.0371 4.883 20.007L5 20H7.06L7.628 10.929C7.44103 10.8545 7.28089 10.7253 7.16852 10.5583C7.05616 10.3913 6.99679 10.1943 6.9982 9.99306C6.9996 9.79179 7.06171 9.59563 7.17639 9.43023C7.29108 9.26483 7.453 9.13789 7.641 9.066L7.746 9.033L7.986 5.185C7.99882 4.98041 8.05345 4.78062 8.14649 4.59796C8.23954 4.4153 8.36904 4.25366 8.527 4.123L8.652 4.031L11.168 2.353ZM5.708 8.293C5.89547 8.48053 6.00079 8.73484 6.00079 9C6.00079 9.26516 5.89547 9.51947 5.708 9.707L4.708 10.707C4.52049 10.8946 4.26612 11.0001 4.00085 11.0002C3.73558 11.0003 3.48114 10.895 3.2935 10.7075C3.10586 10.52 3.00039 10.2656 3.0003 10.0004C3.0002 9.73508 3.10549 9.48064 3.293 9.293L4.293 8.293C4.48053 8.10553 4.73484 8.00021 5 8.00021C5.26516 8.00021 5.51947 8.10553 5.707 8.293H5.708ZM19.708 8.293L20.708 9.293C20.8955 9.48064 21.0008 9.73508 21.0007 10.0004C21.0006 10.2656 20.8951 10.52 20.7075 10.7075C20.5199 10.895 20.2654 11.0003 20.0001 11.0002C19.7349 11.0001 19.4805 10.8946 19.293 10.707L18.293 9.707C18.1108 9.5184 18.01 9.2658 18.0123 9.0036C18.0146 8.7414 18.1198 8.49059 18.3052 8.30518C18.4906 8.11977 18.7414 8.0146 19.0036 8.01233C19.2658 8.01005 19.5194 8.11084 19.708 8.293ZM12 5.5C11.803 5.5 11.608 5.5388 11.426 5.61418C11.244 5.68956 11.0786 5.80005 10.9393 5.93934C10.8001 6.07863 10.6896 6.24399 10.6142 6.42597C10.5388 6.60796 10.5 6.80302 10.5 7C10.5 7.19698 10.5388 7.39204 10.6142 7.57403C10.6896 7.75601 10.8001 7.92137 10.9393 8.06066C11.0786 8.19995 11.244 8.31044 11.426 8.38582C11.608 8.4612 11.803 8.5 12 8.5C12.3978 8.5 12.7794 8.34196 13.0607 8.06066C13.342 7.77936 13.5 7.39782 13.5 7C13.5 6.60218 13.342 6.22064 13.0607 5.93934C12.7794 5.65804 12.3978 5.5 12 5.5ZM4.707 4.293L5.707 5.293C5.88916 5.4816 5.98995 5.7342 5.98767 5.9964C5.9854 6.2586 5.88023 6.50941 5.69482 6.69482C5.50941 6.88023 5.2586 6.9854 4.9964 6.98767C4.7342 6.98995 4.4816 6.88916 4.293 6.707L3.293 5.707C3.11084 5.5184 3.01005 5.2658 3.01233 5.0036C3.0146 4.7414 3.11977 4.49059 3.30518 4.30518C3.49059 4.11977 3.7414 4.0146 4.0036 4.01233C4.2658 4.01005 4.5184 4.11084 4.707 4.293ZM19.293 4.293C19.473 4.11365 19.7144 4.00953 19.9684 4.00177C20.2223 3.99402 20.4697 4.08322 20.6603 4.25125C20.8508 4.41928 20.9703 4.65355 20.9944 4.90647C21.0185 5.1594 20.9454 5.41201 20.79 5.613L20.707 5.707L19.707 6.707C19.527 6.88635 19.2856 6.99047 19.0316 6.99823C18.7777 7.00598 18.5303 6.91678 18.3397 6.74875C18.1492 6.58072 18.0297 6.34645 18.0056 6.09353C17.9815 5.8406 18.0546 5.58799 18.21 5.387L18.293 5.293L19.293 4.293Z" fill="#141414"/>
</g>
<defs>
<clipPath id="clip0_32_5540">
<rect width="24" height="24" fill="white"/>
</clipPath>
</defs>
</svg>
