<svg width="24" height="24" viewBox="0 0 24 24" fill="none" xmlns="http://www.w3.org/2000/svg">
<path fill-rule="evenodd" clip-rule="evenodd" d="M13.1631 2C14.1525 2.00004 15.1057 2.38578 15.8282 3.0791C16.5506 3.77241 16.9889 4.7219 17.0547 5.73438L17.1377 7.00195C17.3953 6.985 17.6488 7.07359 17.8428 7.24805C18.0368 7.42247 18.1555 7.66863 18.1729 7.93262L18.4981 12.9336C18.5154 13.1978 18.4295 13.4586 18.2598 13.6582C18.09 13.8578 17.8495 13.9798 17.5918 13.998L17.709 15.7998C17.7574 16.5398 17.5368 17.2725 17.0899 17.8555C16.643 18.4383 16.0015 18.8306 15.2891 18.957L15.8497 20.6846C15.8984 20.8347 15.912 20.9949 15.8887 21.1514C15.8654 21.3078 15.8061 21.4565 15.7159 21.585C15.6256 21.7134 15.5066 21.8184 15.3692 21.8906C15.2319 21.9628 15.0792 21.9999 14.9249 22H9.07524C8.92082 22 8.76838 21.9628 8.63091 21.8906C8.49343 21.8185 8.37456 21.7134 8.28423 21.585C8.19396 21.4565 8.13471 21.3079 8.11138 21.1514C8.08805 20.9948 8.10168 20.8348 8.15044 20.6846L8.71196 18.957C7.99931 18.8309 7.35728 18.4385 6.9102 17.8555C6.46315 17.2724 6.24268 16.5399 6.29106 15.7998L6.40825 13.998C6.15069 13.9798 5.91008 13.8577 5.74028 13.6582C5.57065 13.4589 5.485 13.1986 5.502 12.9346L5.82817 7.93359C5.84532 7.66945 5.96327 7.42268 6.15727 7.24805C6.3514 7.07333 6.60559 6.98495 6.86333 7.00195L6.94536 5.73438C7.01116 4.72182 7.44944 3.77242 8.17192 3.0791C8.89435 2.38584 9.84668 2.00011 10.836 2H13.1631ZM12 10.2002C11.8959 10.2003 11.7948 10.2344 11.711 10.2979C11.6272 10.3614 11.5649 10.4506 11.5342 10.5527L10.4385 14.2061C10.3937 14.3555 10.3836 14.5138 10.4092 14.668C10.4349 14.8222 10.4953 14.9689 10.586 15.0947C10.6766 15.2205 10.7955 15.3221 10.9317 15.3926C11.0678 15.4629 11.2178 15.5 11.3702 15.5H12.6299C12.7825 15.5 12.9332 15.4631 13.0694 15.3926C13.2054 15.3222 13.3235 15.2204 13.4141 15.0947C13.5048 14.9689 13.5662 14.8222 13.5918 14.668C13.6174 14.5138 13.6074 14.3555 13.5625 14.2061L12.4668 10.5527C12.4362 10.4506 12.3739 10.3614 12.2901 10.2979C12.2062 10.2343 12.1044 10.2002 12 10.2002ZM9.56255 7C9.31425 7.00038 9.07517 7.09768 8.89458 7.27246C8.7139 7.44742 8.60545 7.68699 8.59087 7.94141C8.57631 8.19579 8.65703 8.44617 8.81645 8.6416C8.97595 8.83706 9.2025 8.96306 9.44927 8.99316L9.56255 9H10.0508C10.299 8.99936 10.5374 8.90145 10.7178 8.72656C10.8982 8.55161 11.007 8.3128 11.0215 8.05859C11.036 7.80434 10.9553 7.55371 10.7959 7.3584C10.6365 7.16305 10.4098 7.03693 10.1631 7.00684L10.0508 7H9.56255ZM13.9502 7C13.6917 7.00003 13.4436 7.10545 13.2608 7.29297C13.078 7.48048 12.9757 7.73484 12.9756 8C12.9756 8.26515 13.078 8.51951 13.2608 8.70703C13.4436 8.89455 13.6917 8.99997 13.9502 9H14.4375C14.6961 9 14.9442 8.89454 15.127 8.70703C15.3098 8.51949 15.4131 8.26522 15.4131 8C15.4131 7.73481 15.3098 7.48049 15.127 7.29297C14.9442 7.1055 14.6961 7 14.4375 7H13.9502Z" fill="#141414"/>
</svg>
