<svg width="24" height="24" viewBox="0 0 24 24" fill="none" xmlns="http://www.w3.org/2000/svg">
<path d="M13.7266 2.51691C13.9615 2.55316 14.1842 2.64605 14.377 2.78644C14.5696 2.92675 14.7267 3.11099 14.835 3.32452C14.9432 3.53812 14.9999 3.77501 15 4.01495V19.4798H16V10.3763C16.0001 10.3017 16.0163 10.2279 16.0479 10.1605C16.0795 10.093 16.1255 10.033 16.1826 9.98566C16.2398 9.93834 16.3072 9.90512 16.3789 9.88702C16.4505 9.86896 16.5253 9.8666 16.5977 9.88117L18.7939 10.3255C19.1339 10.3941 19.4403 10.5801 19.6602 10.8509C19.8798 11.1215 19.9998 11.4608 20 11.8109V19.4798H21C21.2652 19.4798 21.5195 19.5862 21.707 19.7757C21.8944 19.9651 22 20.2217 22 20.4896C22 20.7575 21.8946 21.0149 21.707 21.2044C21.5195 21.3938 21.2651 21.5003 21 21.5003H3C2.73487 21.5003 2.48049 21.3938 2.29297 21.2044C2.10543 21.0149 2 20.7575 2 20.4896C2.00003 20.2217 2.10557 19.9651 2.29297 19.7757C2.48051 19.5862 2.73478 19.4798 3 19.4798H4V6.70929C4.00003 6.39118 4.09906 6.08061 4.2832 5.82257C4.46735 5.56456 4.72766 5.37133 5.02637 5.27081L13.0264 2.57745C13.2517 2.5017 13.4918 2.48068 13.7266 2.51691Z" fill="#141414"/>
</svg>
