<svg width="24" height="24" viewBox="0 0 24 24" fill="none" xmlns="http://www.w3.org/2000/svg">
<path fill-rule="evenodd" clip-rule="evenodd" d="M20.7501 3.53159C20.9358 3.48367 21.1314 3.49003 21.3135 3.55015C21.4958 3.61044 21.6578 3.72304 21.7784 3.87241C21.8987 4.02157 21.9736 4.20242 21.9942 4.39292C22.0148 4.58351 21.9793 4.77615 21.8936 4.94761L19.8936 8.94761C19.8195 9.09587 19.7099 9.22341 19.5743 9.3187C19.4387 9.41394 19.2817 9.474 19.1172 9.49351C18.0793 9.61251 17.04 9.71415 16.0001 9.80015V11.1654C17.2724 10.9927 18.5388 10.7783 19.7969 10.5218C20.0544 10.4734 20.3205 10.5284 20.5381 10.6742C20.7556 10.8199 20.9078 11.0448 20.961 11.3011C21.0142 11.5576 20.964 11.8249 20.8223 12.0453C20.6806 12.2655 20.4586 12.4218 20.2032 12.4798C19.8032 12.5618 19.402 12.6373 19.0001 12.7093V18.5003C19.2652 18.5004 19.5196 18.6059 19.7071 18.7933C19.8945 18.9808 20 19.2353 20.0001 19.5003C20.0001 19.7655 19.8945 20.0199 19.7071 20.2074C19.5196 20.3949 19.2653 20.5003 19.0001 20.5003H14.0001C13.7348 20.5003 13.4806 20.3949 13.293 20.2074C13.1056 20.0199 13.0001 19.7655 13.0001 19.5003C13.0002 19.2353 13.1056 18.9808 13.293 18.7933C13.4805 18.6059 13.7349 18.5003 14.0001 18.5003V13.4056C13.3081 13.4646 12.626 13.5003 12.0001 13.5003C11.3741 13.5003 10.692 13.4636 10.0001 13.4056V18.5003C10.2652 18.5004 10.5196 18.6059 10.7071 18.7933C10.8945 18.9808 11 19.2353 11.0001 19.5003C11.0001 19.7655 10.8945 20.0199 10.7071 20.2074C10.5196 20.3949 10.2653 20.5003 10.0001 20.5003H5.00006C4.73484 20.5003 4.48056 20.3949 4.29303 20.2074C4.10559 20.0199 4.00006 19.7655 4.00006 19.5003C4.00016 19.2353 4.10558 18.9808 4.29303 18.7933C4.48054 18.6059 4.73495 18.5003 5.00006 18.5003V12.7103C4.59815 12.6385 4.19698 12.5623 3.79693 12.4808C3.53704 12.427 3.30885 12.272 3.16314 12.0501C3.01761 11.8285 2.96594 11.5579 3.01959 11.2982C3.0734 11.0384 3.22856 10.8101 3.45025 10.6644C3.67211 10.5187 3.94327 10.467 4.20318 10.5209C5.46112 10.7788 6.72812 10.9904 8.00006 11.1654V9.80015C6.95985 9.71449 5.92084 9.61184 4.88385 9.49351C4.71933 9.47348 4.56247 9.41293 4.42682 9.31773C4.29114 9.22249 4.18029 9.09555 4.10553 8.94761L2.10553 4.94761C2.02011 4.77618 1.98616 4.58334 2.00689 4.39292C2.02767 4.20266 2.10251 4.02233 2.22271 3.87339C2.34307 3.7244 2.50384 3.61247 2.6856 3.5521C2.8675 3.49176 3.06343 3.48502 3.24908 3.53257L3.71881 3.64976L4.67096 3.87339L5.5274 4.0648L6.169 4.20152L6.50592 4.27085C6.77092 4.32385 7.04246 4.37806 7.31646 4.42906L8.14557 4.57847C9.53756 4.81847 10.9441 5.00034 12.0001 5.00034C13.057 5.00034 14.4617 4.81941 15.8526 4.57945L16.6827 4.43003L17.4932 4.26988L18.4727 4.0648L19.3292 3.87437L19.8106 3.76206C20.1246 3.68806 20.4381 3.61159 20.7501 3.53159ZM13.1729 9.97788C12.766 9.99188 12.37 10.0003 12.0001 10.0003C11.6301 10.0003 11.2341 9.9919 10.8272 9.97691L10.0001 9.93882V11.3978C10.703 11.4608 11.3871 11.5003 12.0001 11.5003C12.49 11.5003 13.0261 11.476 13.5811 11.433L14.0001 11.3978V9.93784L13.1729 9.97788Z" fill="#141414"/>
</svg>
