<svg width="24" height="24" viewBox="0 0 24 24" fill="none" xmlns="http://www.w3.org/2000/svg">
<g clip-path="url(#clip0_32_5513)">
<path fill-rule="evenodd" clip-rule="evenodd" d="M21.778 3.372C21.8983 3.52122 21.9733 3.70188 21.9938 3.89247C22.0144 4.08306 21.9797 4.27555 21.894 4.447L19.894 8.447C19.8199 8.59528 19.7101 8.72281 19.5744 8.81812C19.4388 8.91343 19.2816 8.97352 19.117 8.993C18.079 9.112 17.04 9.213 16 9.299V10.665C17.2724 10.4923 18.5388 10.2775 19.797 10.021C20.0545 9.97262 20.3206 10.0272 20.5383 10.173C20.7559 10.3188 20.9077 10.5442 20.9609 10.8008C21.014 11.0573 20.9644 11.3244 20.8227 11.5448C20.681 11.7651 20.4585 11.921 20.203 11.979C19.803 12.061 19.402 12.137 19 12.209V18C19.2652 18 19.5196 18.1054 19.7071 18.2929C19.8946 18.4804 20 18.7348 20 19C20 19.2652 19.8946 19.5196 19.7071 19.7071C19.5196 19.8946 19.2652 20 19 20H14C13.7348 20 13.4804 19.8946 13.2929 19.7071C13.1054 19.5196 13 19.2652 13 19C13 18.7348 13.1054 18.4804 13.2929 18.2929C13.4804 18.1054 13.7348 18 14 18V12.905C13.308 12.964 12.626 13 12 13C11.374 13 10.692 12.963 10 12.905V18C10.2652 18 10.5196 18.1054 10.7071 18.2929C10.8946 18.4804 11 18.7348 11 19C11 19.2652 10.8946 19.5196 10.7071 19.7071C10.5196 19.8946 10.2652 20 10 20H5C4.73478 20 4.48043 19.8946 4.29289 19.7071C4.10536 19.5196 4 19.2652 4 19C4 18.7348 4.10536 18.4804 4.29289 18.2929C4.48043 18.1054 4.73478 18 5 18V12.21C4.59809 12.1382 4.19706 12.0615 3.797 11.98C3.53709 11.9262 3.30921 11.7713 3.16349 11.5494C3.01778 11.3276 2.96616 11.0569 3.02 10.797C3.07384 10.5371 3.22872 10.3092 3.45058 10.1635C3.67243 10.0178 3.94309 9.96616 4.203 10.02C5.461 10.278 6.728 10.49 8 10.665V9.299C6.95979 9.21334 5.921 9.11133 4.884 8.993C4.71942 8.97299 4.56231 8.91269 4.42661 8.81746C4.2909 8.72222 4.18078 8.59497 4.106 8.447L2.106 4.447C2.02048 4.2755 1.98603 4.08303 2.00677 3.89251C2.02752 3.70199 2.10257 3.52144 2.22299 3.37236C2.34342 3.22328 2.50414 3.11194 2.68604 3.0516C2.86794 2.99125 3.06335 2.98445 3.249 3.032L3.719 3.149L4.671 3.373L5.527 3.564L6.169 3.701L6.506 3.77C6.771 3.823 7.042 3.877 7.316 3.928L8.146 4.078C9.538 4.318 10.944 4.5 12 4.5C13.057 4.5 14.462 4.319 15.853 4.079L16.683 3.929L17.493 3.769L18.473 3.564L19.329 3.374L19.811 3.261C20.125 3.187 20.438 3.111 20.75 3.031C20.9359 2.983 21.1317 2.98954 21.314 3.04983C21.4963 3.11012 21.6574 3.22262 21.778 3.372ZM14 10.897V9.437L13.173 9.477C12.766 9.491 12.37 9.5 12 9.5C11.63 9.5 11.234 9.491 10.827 9.476L10 9.438V10.897C10.703 10.96 11.387 11 12 11C12.49 11 13.026 10.975 13.581 10.932L14 10.897Z" fill="#141414"/>
</g>
<defs>
<clipPath id="clip0_32_5513">
<rect width="24" height="24" fill="white"/>
</clipPath>
</defs>
</svg>
