<svg width="24" height="24" viewBox="0 0 24 24" fill="none" xmlns="http://www.w3.org/2000/svg">
<path fill-rule="evenodd" clip-rule="evenodd" d="M7.45455 4.5C7.29497 4.5 7.13821 4.54472 7.00001 4.62966C6.86182 4.7146 6.74706 4.83676 6.66727 4.98387H2.90909C2.66799 4.98387 2.43675 5.08583 2.26627 5.26732C2.09578 5.4488 2 5.69495 2 5.95161C2 6.9871 2.41909 7.78258 3.01091 8.34968C3.57727 8.89161 4.28727 9.21677 4.92 9.41903C5.51364 9.60871 6.09636 9.70742 6.54545 9.76064V13.6935C6.50903 15.1023 6.04461 16.4605 5.22182 17.5645H4.72727C4.48617 17.5645 4.25494 17.6665 4.08445 17.848C3.91396 18.0294 3.81818 18.2756 3.81818 18.5323C3.81818 18.7889 3.91396 19.0351 4.08445 19.2166C4.25494 19.398 4.48617 19.5 4.72727 19.5H20.1818C20.4229 19.5 20.6542 19.398 20.8246 19.2166C20.9951 19.0351 21.0909 18.7889 21.0909 18.5323C21.0909 18.2756 20.9951 18.0294 20.8246 17.848C20.6542 17.6665 20.4229 17.5645 20.1818 17.5645V9.82258C20.664 9.82258 21.1265 9.61866 21.4675 9.25569C21.8084 8.89272 22 8.40042 22 7.8871V6.91935C22 6.40603 21.8084 5.91373 21.4675 5.55076C21.1265 5.18779 20.664 4.98387 20.1818 4.98387H19.1509C19.0711 4.83676 18.9564 4.7146 18.8182 4.62966C18.68 4.54472 18.5232 4.5 18.3636 4.5H15.6364C15.4768 4.5 15.32 4.54472 15.1818 4.62966C15.0436 4.7146 14.9289 4.83676 14.8491 4.98387H10.9691C10.8893 4.83676 10.7745 4.7146 10.6364 4.62966C10.4982 4.54472 10.3414 4.5 10.1818 4.5H7.45455ZM18.3636 9.82258H16.5455V12.7258H18.3636V9.82258ZM14.7273 9.82258H12V17.5645H13.4036C14.2265 16.4605 14.6909 15.1023 14.7273 13.6935V9.82258ZM10.1818 9.82258H8.36364V12.7258H10.1818V9.82258Z" fill="#141414"/>
</svg>
