<svg width="24" height="24" viewBox="0 0 24 24" fill="none" xmlns="http://www.w3.org/2000/svg">
<g clip-path="url(#clip0_32_5512)">
<path fill-rule="evenodd" clip-rule="evenodd" d="M13.193 2C14.2078 2.00004 15.1846 2.38578 15.9257 3.07909C16.6667 3.7724 17.1165 4.72145 17.184 5.734L17.269 7.002C17.5332 6.98499 17.7934 7.07345 17.9924 7.24797C18.1915 7.4225 18.3133 7.66884 18.331 7.933L18.664 12.933C18.6819 13.1974 18.594 13.458 18.4199 13.6577C18.2457 13.8574 17.9994 13.9798 17.735 13.998L17.855 15.8C17.9047 16.5399 17.6785 17.272 17.2201 17.855C16.7618 18.438 16.1038 18.8306 15.373 18.957L15.948 20.684C15.998 20.8343 16.0117 20.9942 15.9878 21.1508C15.9639 21.3074 15.9032 21.456 15.8106 21.5845C15.7181 21.713 15.5963 21.8177 15.4554 21.8899C15.3144 21.9621 15.1584 21.9999 15 22H9C8.84155 22 8.68535 21.9624 8.54429 21.8903C8.40323 21.8181 8.28134 21.7134 8.18866 21.5849C8.09598 21.4564 8.03517 21.3077 8.01123 21.151C7.9873 20.9944 8.00093 20.8343 8.051 20.684L8.627 18.957C7.89606 18.8308 7.23778 18.4384 6.77923 17.8553C6.32068 17.2723 6.09437 16.5401 6.144 15.8L6.264 13.998C5.99983 13.9798 5.75367 13.8575 5.57952 13.6581C5.40536 13.4586 5.31743 13.1982 5.335 12.934L5.669 7.934C5.68647 7.66967 5.80811 7.42306 6.00722 7.24833C6.20633 7.07359 6.46664 6.985 6.731 7.002L6.815 5.734C6.88248 4.72145 7.3323 3.7724 8.07333 3.07909C8.81436 2.38578 9.79121 2.00004 10.806 2H13.193ZM11.522 10.553L10.398 14.206C10.352 14.3556 10.3417 14.5139 10.368 14.6681C10.3944 14.8224 10.4565 14.9683 10.5495 15.0942C10.6425 15.2201 10.7637 15.3224 10.9035 15.3929C11.0432 15.4633 11.1975 15.5 11.354 15.5H12.646C12.8025 15.5 12.9568 15.4633 13.0965 15.3929C13.2363 15.3224 13.3575 15.2201 13.4505 15.0942C13.5435 14.9683 13.6056 14.8224 13.632 14.6681C13.6583 14.5139 13.648 14.3556 13.602 14.206L12.478 10.553C12.4466 10.4507 12.3832 10.3612 12.2972 10.2976C12.2112 10.234 12.107 10.1997 12 10.1997C11.893 10.1997 11.7888 10.234 11.7028 10.2976C11.6168 10.3612 11.5534 10.4507 11.522 10.553ZM10 7H9.5C9.24512 7.00028 8.99997 7.09788 8.81463 7.27285C8.6293 7.44782 8.51777 7.68695 8.50283 7.94139C8.48789 8.19584 8.57067 8.44638 8.73426 8.64183C8.89785 8.83729 9.1299 8.9629 9.383 8.993L9.5 9H10C10.2548 8.99947 10.4998 8.90169 10.6849 8.72664C10.8701 8.55159 10.9814 8.31247 10.9962 8.05811C11.011 7.80374 10.9282 7.55332 10.7646 7.35797C10.601 7.16263 10.369 7.03709 10.116 7.007L10 7ZM14.5 7H14C13.7348 7 13.4804 7.10536 13.2929 7.29289C13.1054 7.48043 13 7.73478 13 8C13 8.26522 13.1054 8.51957 13.2929 8.70711C13.4804 8.89464 13.7348 9 14 9H14.5C14.7652 9 15.0196 8.89464 15.2071 8.70711C15.3946 8.51957 15.5 8.26522 15.5 8C15.5 7.73478 15.3946 7.48043 15.2071 7.29289C15.0196 7.10536 14.7652 7 14.5 7Z" fill="#141414"/>
</g>
<defs>
<clipPath id="clip0_32_5512">
<rect width="24" height="24" fill="white"/>
</clipPath>
</defs>
</svg>
