<svg width="24" height="24" viewBox="0 0 24 24" fill="none" xmlns="http://www.w3.org/2000/svg">
<g clip-path="url(#clip0_32_5511)">
<path d="M16 5.236V17H17.75C18.44 17 19 17.56 19 18.25V20H20C20.2652 20 20.5196 20.1054 20.7071 20.2929C20.8946 20.4804 21 20.7348 21 21C21 21.2652 20.8946 21.5196 20.7071 21.7071C20.5196 21.8946 20.2652 22 20 22H4C3.73478 22 3.48043 21.8946 3.29289 21.7071C3.10536 21.5196 3 21.2652 3 21C3 20.7348 3.10536 20.4804 3.29289 20.2929C3.48043 20.1054 3.73478 20 4 20H5V18.25C5 17.56 5.56 17 6.25 17H8V5.236L7.112 3.46C7.03974 3.31552 7.00318 3.15582 7.00541 2.99429C7.00763 2.83276 7.04857 2.67413 7.12478 2.53169C7.20099 2.38926 7.31026 2.26719 7.44341 2.17571C7.57656 2.08424 7.72971 2.02604 7.89 2.006L11.845 1.512C11.9479 1.49914 12.0521 1.49914 12.155 1.512L16.11 2.006C16.802 2.092 17.2 2.836 16.888 3.46L16 5.236Z" fill="#141414"/>
</g>
<defs>
<clipPath id="clip0_32_5511">
<rect width="24" height="24" fill="white"/>
</clipPath>
</defs>
</svg>
