<svg width="24" height="24" viewBox="0 0 24 24" fill="none" xmlns="http://www.w3.org/2000/svg">
<path d="M12.1553 2.00917L16.1104 2.49159C16.8021 2.57571 17.1996 3.30179 16.8877 3.91054L16 5.64296V17.1215H17.75C18.44 17.1215 19 17.668 19 18.3412V20.0482H20C20.2652 20.0482 20.5195 20.1514 20.707 20.3344C20.8944 20.5172 20.9999 20.7652 21 21.0238C21 21.2826 20.8946 21.5313 20.707 21.7142C20.5195 21.8972 20.2652 22.0004 20 22.0004H4C3.7348 22.0004 3.4805 21.8972 3.29297 21.7142C3.10543 21.5313 3 21.2826 3 21.0238C3.00013 20.7652 3.10555 20.5172 3.29297 20.3344C3.4805 20.1514 3.7348 20.0482 4 20.0482H5V18.3412C5 17.668 5.56 17.1215 6.25 17.1215H8V5.64296L7.1123 3.91054C7.04004 3.76957 7.00364 3.61306 7.00586 3.45546C7.00813 3.29795 7.04883 3.14318 7.125 3.00429C7.20121 2.86538 7.31026 2.74585 7.44336 2.65663C7.57637 2.56751 7.72955 2.51118 7.88965 2.49159L11.8447 2.00917C11.9477 1.99662 12.0523 1.99662 12.1553 2.00917Z" fill="#141414"/>
</svg>
