<svg width="24" height="24" viewBox="0 0 24 24" fill="none" xmlns="http://www.w3.org/2000/svg">
<path fill-rule="evenodd" clip-rule="evenodd" d="M17.3059 2.02877C17.5822 1.96464 17.8726 2.00862 18.1175 2.15172C18.3625 2.29481 18.5434 2.52617 18.6232 2.79838C18.7031 3.07059 18.6758 3.36304 18.5469 3.61577C18.4181 3.8685 18.1975 4.06238 17.9303 4.15767L17.8059 4.19323L15.3338 4.76434V9.77771H19.778C20.3385 9.77753 20.8785 9.98927 21.2896 10.3705C21.7006 10.7517 21.9524 11.2742 21.9944 11.8333L22 11.9999V19.7778C22.0002 20.3384 21.7885 20.8784 21.4073 21.2895C21.0261 21.7006 20.5036 21.9524 19.9446 21.9944L19.778 22H5.33462C4.77402 22.0002 4.23408 21.7884 3.82302 21.4072C3.41196 21.026 3.16017 20.5035 3.11813 19.9444L3.11257 19.7778V7.55547C2.85058 7.55584 2.5969 7.4636 2.39631 7.29505C2.19573 7.1265 2.06116 6.89248 2.01636 6.63433C1.97157 6.37618 2.01943 6.1105 2.15151 5.88422C2.28358 5.65794 2.49136 5.48561 2.73816 5.39768L2.86259 5.36213L17.3059 2.02877ZM15.3338 14.2222H14.2228C13.9507 14.2222 13.688 14.3221 13.4847 14.503C13.2813 14.6838 13.1514 14.933 13.1196 15.2033L13.1118 15.3333V19.7778H16.4449V15.3333C16.4448 15.0611 16.3449 14.7985 16.1641 14.5951C15.9833 14.3917 15.7341 14.2618 15.4638 14.23L15.3338 14.2222ZM7.55667 6.5588L5.33462 7.07214V19.7778H7.55667V6.5588ZM13.1118 5.27657L9.77872 6.04657V9.77771H13.1118V5.27657Z" fill="#141414"/>
</svg>
