<svg width="24" height="24" viewBox="0 0 24 24" fill="none" xmlns="http://www.w3.org/2000/svg">
<path fill-rule="evenodd" clip-rule="evenodd" d="M13.8184 5C14.3005 5.00005 14.7626 5.1969 15.1035 5.54688C15.4444 5.89684 15.6366 6.3713 15.6367 6.86621V9.38379L20.668 17.1338H21.0908C21.3317 17.1338 21.5629 17.2315 21.7334 17.4062C21.9038 17.5812 21.9999 17.819 22 18.0664C22 18.3139 21.9039 18.5515 21.7334 18.7266C21.5629 18.9015 21.3319 19 21.0908 19H2.90918C2.66813 19 2.43708 18.9015 2.2666 18.7266C2.09611 18.5515 2 18.3139 2 18.0664C2.00007 17.819 2.09617 17.5812 2.2666 17.4062C2.43705 17.2315 2.66826 17.1338 2.90918 17.1338H3.33203L8.36328 9.38379V6.86621C8.3634 6.3713 8.55561 5.89684 8.89648 5.54688C9.23741 5.1969 9.69953 5.00005 10.1816 5H13.8184ZM5.51758 17.1338H8.45898L9.04688 11.6953L5.51758 17.1338ZM15.541 17.1338H18.4814L14.9531 11.6953L15.541 17.1338Z" fill="#141414"/>
</svg>
