<svg width="24" height="24" viewBox="0 0 24 24" fill="none" xmlns="http://www.w3.org/2000/svg">
<path fill-rule="evenodd" clip-rule="evenodd" d="M11.4209 3.5C13.1145 3.5 13.957 4.36938 13.957 6.09863V19.2012H18.1445V16.6113C17.3532 16.336 16.7746 15.5791 16.7744 14.6846V12.9639C16.7744 11.8369 17.685 10.9161 18.7998 10.916C19.9147 10.916 20.8252 11.8368 20.8252 12.9639V14.6846C20.825 15.5878 20.2381 16.3535 19.4297 16.6201V19.2012H21.3613C21.7101 19.2012 21.9998 19.4932 22 19.8457C22 20.1984 21.7103 20.4912 21.3613 20.4912H18.834C18.817 20.4912 18.808 20.5 18.791 20.5C18.7743 20.4998 18.7658 20.4912 18.749 20.4912H2.63867C2.28974 20.4912 2 20.1984 2 19.8457C2.00025 19.4932 2.28988 19.2012 2.63867 19.2012H3.57422V6.09863C3.57422 4.36938 4.42553 3.5 6.11914 3.5H11.4209ZM8.80859 15.9746C8.45966 15.9746 8.16992 16.2674 8.16992 16.6201V19.2012H9.44727V16.6201C9.44727 16.2588 9.15749 15.9747 8.80859 15.9746ZM6.72363 10.5977C6.3747 10.5977 6.08496 10.8904 6.08496 11.2432C6.0851 11.5958 6.37478 11.8877 6.72363 11.8877H10.9365C11.2852 11.8875 11.5741 11.5957 11.5742 11.2432C11.5742 10.8906 11.2853 10.5979 10.9365 10.5977H6.72363ZM6.72363 7.37109C6.37473 7.37109 6.08501 7.66391 6.08496 8.0166C6.08496 8.36933 6.3747 8.66211 6.72363 8.66211H10.9365C11.2853 8.66191 11.5742 8.36922 11.5742 8.0166C11.5742 7.66403 11.2853 7.37129 10.9365 7.37109H6.72363Z" fill="#141414"/>
</svg>
