<svg width="24" height="24" viewBox="0 0 24 24" fill="none" xmlns="http://www.w3.org/2000/svg">
<path fill-rule="evenodd" clip-rule="evenodd" d="M10.7256 2.34085C11.1282 2.05403 11.6264 1.94146 12.1104 2.02835L15.7608 2.68362C16.2445 2.77077 16.6744 3.05031 16.9561 3.45999C17.2377 3.86975 17.3481 4.37669 17.2627 4.86917L17.1025 5.7969C17.3445 5.84059 17.5595 5.9806 17.7002 6.18558C17.8409 6.39044 17.8963 6.64358 17.8535 6.88968L17.21 10.6055C17.3323 10.6242 17.4501 10.6679 17.5557 10.7334C17.6612 10.799 17.753 10.8852 17.8252 10.9873C17.8974 11.0895 17.949 11.2055 17.9766 11.3282C18.0041 11.4509 18.0068 11.5782 17.9854 11.7022C17.9639 11.826 17.9185 11.9442 17.8516 12.0498C17.7845 12.1555 17.6968 12.2465 17.5947 12.3174C17.4925 12.3883 17.3771 12.438 17.2559 12.4629C17.1347 12.4878 17.0098 12.4879 16.8887 12.4629L16.4072 15.2491C16.5269 15.2708 16.6417 15.3162 16.7442 15.3828C16.8466 15.4495 16.9353 15.5363 17.0049 15.6377C17.0745 15.7392 17.1242 15.8537 17.1504 15.9746C17.1766 16.0956 17.1785 16.2209 17.1572 16.3428C17.1359 16.4646 17.0918 16.5813 17.0264 16.6856C16.9608 16.79 16.8752 16.8803 16.7754 16.9512C16.6757 17.0221 16.5631 17.072 16.4443 17.0987C16.3256 17.1253 16.2027 17.1281 16.083 17.1065L15.3662 21.2217C15.3281 21.4395 15.2154 21.6372 15.0488 21.7793C14.8822 21.9213 14.6714 21.9989 14.4541 21.9991H6.92677C6.79156 21.9991 6.65774 21.9692 6.53517 21.9112C6.41251 21.853 6.3038 21.7676 6.21681 21.6621C6.12981 21.5566 6.06627 21.4329 6.03126 21.2998C5.99631 21.1668 5.99014 21.0272 6.01368 20.8916L6.95802 15.4698C6.71601 15.4262 6.5013 15.286 6.36036 15.0811C6.21943 14.8761 6.1633 14.6224 6.20607 14.376C6.24886 14.1297 6.38657 13.911 6.5879 13.7676C6.78924 13.6242 7.03829 13.5679 7.28028 13.6114L7.76271 10.8242C7.52064 10.7807 7.30501 10.6415 7.16407 10.4366C7.02314 10.2316 6.96799 9.97785 7.01075 9.73147C7.05352 9.48512 7.19119 9.2665 7.39259 9.12308C7.59398 8.97969 7.84294 8.92331 8.08497 8.96683L8.72853 5.25198C8.77146 5.00595 8.90917 4.78681 9.11036 4.64358C9.31147 4.50056 9.56013 4.44502 9.80177 4.48831L9.9629 3.55765C10.0484 3.06519 10.3231 2.62765 10.7256 2.34085ZM11.3037 17.2002C11.184 17.1788 11.0611 17.1813 10.9424 17.208C10.8237 17.2348 10.7109 17.2855 10.6113 17.3565C10.5117 17.4275 10.4267 17.5186 10.3613 17.6231C10.296 17.7275 10.2506 17.8439 10.2295 17.9658L10.2305 17.9668L9.85841 20.1133H11.7393L12.0557 18.293C12.0768 18.171 12.0742 18.0458 12.0479 17.9248C12.0215 17.8039 11.9712 17.6894 11.9014 17.5879C11.8316 17.4867 11.7431 17.4005 11.6406 17.334C11.538 17.2675 11.4235 17.2217 11.3037 17.2002ZM12.165 12.5723C11.9415 12.5323 11.7108 12.5769 11.5176 12.6983C11.3244 12.8196 11.1823 13.0092 11.1172 13.2305L11.0918 13.3379L10.9307 14.2657L12.7559 14.5938L12.917 13.6651C12.9382 13.543 12.9355 13.4179 12.9092 13.2969C12.8828 13.176 12.8335 13.0615 12.7637 12.96C12.6938 12.8585 12.6047 12.7716 12.502 12.7051C12.3994 12.6387 12.2848 12.5937 12.165 12.5723ZM12.9697 7.92874C12.7461 7.88857 12.5156 7.93339 12.3223 8.05472C12.129 8.17609 11.986 8.36554 11.9209 8.58694L11.8965 8.69437L11.7344 9.6221L13.5606 9.95022L13.7217 9.02151C13.7429 8.89952 13.7402 8.77431 13.7139 8.65335C13.6876 8.53242 13.6381 8.41792 13.5684 8.31644C13.4986 8.21493 13.4093 8.12814 13.3067 8.06155C13.2041 7.99511 13.0895 7.95023 12.9697 7.92874ZM11.627 4.81546L15.2783 5.46976L15.4385 4.54105L11.7881 3.88675L11.627 4.81546Z" fill="#141414"/>
</svg>
