<svg width="24" height="24" viewBox="0 0 24 24" fill="none" xmlns="http://www.w3.org/2000/svg">
<g clip-path="url(#clip0_32_5509)">
<path fill-rule="evenodd" clip-rule="evenodd" d="M12.903 2.57C12.819 2.40243 12.6901 2.26152 12.5306 2.16305C12.3712 2.06458 12.1874 2.01243 12 2.01243C11.8126 2.01243 11.6288 2.06458 11.4694 2.16305C11.3099 2.26152 11.181 2.40243 11.097 2.57C10.152 4.454 9.133 5.666 7.888 6.477C6.635 7.293 5.061 7.764 2.9 8.005C2.76332 8.02021 2.63119 8.06318 2.51171 8.13126C2.39222 8.19934 2.2879 8.29111 2.20513 8.40093C2.12236 8.51076 2.0629 8.63633 2.03038 8.76995C1.99785 8.90357 1.99296 9.04242 2.016 9.178C2.346 11.128 3.68 12.1 4.82 12.555L5 12.624V20H4C3.73478 20 3.48043 20.1054 3.29289 20.2929C3.10536 20.4804 3 20.7348 3 21C3 21.2652 3.10536 21.5196 3.29289 21.7071C3.48043 21.8946 3.73478 22 4 22H20C20.2652 22 20.5196 21.8946 20.7071 21.7071C20.8946 21.5196 21 21.2652 21 21C21 20.7348 20.8946 20.4804 20.7071 20.2929C20.5196 20.1054 20.2652 20 20 20H19V12.624C19.06 12.602 19.12 12.579 19.18 12.554C20.32 12.1 21.654 11.127 21.984 9.178C22.007 9.04242 22.0021 8.90357 21.9696 8.76995C21.9371 8.63633 21.8776 8.51076 21.7949 8.40093C21.7121 8.29111 21.6078 8.19934 21.4883 8.13126C21.3688 8.06318 21.2367 8.02021 21.1 8.005C18.939 7.764 17.365 7.293 16.111 6.477C14.867 5.666 13.847 4.454 12.903 2.57ZM17 13H16V20H17V13ZM14 13H10V20H14V13ZM8 13H7V20H8V13Z" fill="#141414"/>
</g>
<defs>
<clipPath id="clip0_32_5509">
<rect width="24" height="24" fill="white"/>
</clipPath>
</defs>
</svg>
