<svg width="24" height="24" viewBox="0 0 24 24" fill="none" xmlns="http://www.w3.org/2000/svg">
<path fill-rule="evenodd" clip-rule="evenodd" d="M15.9932 3C16.4381 3.00007 16.8162 3.28853 16.9502 3.68848C17.2584 4.60513 18.2153 4.997 18.9922 5C19.711 5.00312 20.1117 5.68389 19.9658 6.25781C19.6488 7.50881 18.9827 8.23409 18.3037 8.62109L18.3047 8.62012C18.2061 8.67649 18.1044 8.7277 18 8.77246V11H18.5586C18.9241 11.0001 19.2778 11.134 19.5518 11.376C19.8256 11.6179 20.0016 11.9519 20.0469 12.3145L20.8828 19H21C21.2652 19 21.5195 19.1054 21.707 19.293C21.8946 19.4805 22 19.7348 22 20C22 20.2652 21.8946 20.5195 21.707 20.707C21.5195 20.8946 21.2652 21 21 21H15.0781C14.7922 21 14.5176 20.8867 14.3154 20.6846C14.1133 20.4824 14 20.2078 14 19.9219V19C14 18.4696 13.7891 17.961 13.4141 17.5859C13.039 17.2109 12.5304 17 12 17C11.4696 17 10.961 17.2109 10.5859 17.5859C10.2109 17.961 10 18.4696 10 19V19.9219C10 20.5169 9.51688 21 8.92188 21H3C2.73478 21 2.48051 20.8946 2.29297 20.707C2.10543 20.5195 2 20.2652 2 20C2 19.7348 2.10543 19.4805 2.29297 19.293C2.48051 19.1054 2.73478 19 3 19H3.11719L3.95312 12.3145C3.99843 11.9519 4.17444 11.6179 4.44824 11.376C4.72224 11.134 5.07587 11.0001 5.44141 11H6V8.77246C5.89601 8.72789 5.79464 8.67701 5.69629 8.62109C5.01729 8.23409 4.35118 7.50881 4.03418 6.25781C3.88829 5.68389 4.28899 5.00312 5.00781 5C5.78467 4.997 6.74163 4.60513 7.0498 3.68848C7.18379 3.28853 7.56191 3.00007 8.00684 3H15.9932ZM8 11H16V9.00488C13.975 9.01488 11.9498 9.00988 9.92578 9.00488L8 9.00098V11Z" fill="#141414"/>
</svg>
