<svg width="24" height="24" viewBox="0 0 24 24" fill="none" xmlns="http://www.w3.org/2000/svg">
<path fill-rule="evenodd" clip-rule="evenodd" d="M12.0001 2C12.1874 2.00002 12.371 2.05203 12.5304 2.15039C12.6899 2.2489 12.8195 2.39 12.9034 2.55762C13.8476 4.44279 14.8672 5.65627 16.1114 6.46777C17.3657 7.28428 18.9403 7.75494 21.1017 7.99609C21.2383 8.01132 21.3709 8.05494 21.4903 8.12305C21.6096 8.19114 21.7143 8.28284 21.797 8.39258C21.8797 8.50241 21.9393 8.62813 21.9718 8.76172C22.0043 8.89537 22.0085 9.03431 21.9855 9.16992C21.6554 11.1201 20.321 12.0936 19.1808 12.5479C19.1209 12.5728 19.061 12.5962 19.0011 12.6182V19.999H20.0011C20.2663 19.999 20.5206 20.1044 20.7081 20.292C20.8956 20.4796 21.001 20.7338 21.0011 20.999C21.0011 21.2644 20.8957 21.5194 20.7081 21.707C20.5206 21.8945 20.2662 22 20.0011 22H3.99816C3.73306 21.9999 3.47859 21.8946 3.29113 21.707C3.10361 21.5194 2.99816 21.2644 2.99816 20.999C2.99825 20.7339 3.10377 20.4795 3.29113 20.292C3.47859 20.1044 3.73306 19.9991 3.99816 19.999H4.99914V12.6182L4.81847 12.5488C3.67835 12.0935 2.34381 11.1209 2.01379 9.16992C1.99078 9.03433 1.99593 8.89535 2.02843 8.76172C2.06095 8.62808 2.12052 8.50243 2.20324 8.39258C2.28595 8.28278 2.39051 8.19115 2.50988 8.12305C2.62939 8.05492 2.76185 8.01132 2.89855 7.99609C5.05955 7.75497 6.63373 7.28406 7.88683 6.46777C9.13205 5.65627 10.1516 4.44279 11.0968 2.55762C11.1807 2.39009 11.3095 2.24888 11.4689 2.15039C11.6284 2.05186 11.8127 2 12.0001 2ZM6.99914 19.999H7.99914V12.9941H6.99914V19.999ZM10.0001 19.999H14.0001V12.9941H10.0001V19.999ZM16.0011 19.999H17.0011V12.9941H16.0011V19.999Z" fill="#141414"/>
</svg>
