<svg width="24" height="24" viewBox="0 0 24 24" fill="none" xmlns="http://www.w3.org/2000/svg">
<g clip-path="url(#clip0_32_5514)">
<path d="M2 19C1.74512 18.9997 1.49997 18.9021 1.31463 18.7272C1.1293 18.5522 1.01777 18.313 1.00283 18.0586C0.987891 17.8042 1.07067 17.5536 1.23426 17.3582C1.39786 17.1627 1.6299 17.0371 1.883 17.007L3.044 17C3.031 15.094 2.466 13.12 1.232 11.64C1.11039 11.494 1.0329 11.3164 1.00859 11.1279C0.984284 10.9395 1.01417 10.748 1.09476 10.5759C1.17534 10.4038 1.30328 10.2583 1.4636 10.1563C1.62392 10.0543 1.80999 10.0001 2 10C3.476 10 4.838 10.41 6.057 11.094C5.77 9.494 5.217 7.907 4.211 6.613C4.09417 6.4627 4.02268 6.28218 4.0049 6.09265C3.98713 5.90312 4.02383 5.71246 4.11068 5.54306C4.19753 5.37367 4.33093 5.23258 4.49519 5.13638C4.65946 5.04018 4.84777 4.99287 5.038 5C10.489 5.21 13.98 7.276 15.764 10.63C17.65 9.55 19.83 9 22 9C22.1857 9 22.3678 9.05171 22.5257 9.14935C22.6837 9.24698 22.8114 9.38668 22.8944 9.55279C22.9775 9.71889 23.0126 9.90484 22.996 10.0898C22.9793 10.2748 22.9114 10.4514 22.8 10.6C21.172 12.77 20.687 15.03 20.863 17H22C22.2535 17.0023 22.4967 17.1007 22.6804 17.2755C22.864 17.4502 22.9745 17.6882 22.9894 17.9413C23.0042 18.1944 22.9224 18.4437 22.7605 18.6388C22.5985 18.8338 22.3685 18.9601 22.117 18.992L2 19Z" fill="#141414"/>
</g>
<defs>
<clipPath id="clip0_32_5514">
<rect width="24" height="24" fill="white"/>
</clipPath>
</defs>
</svg>
