<svg width="24" height="24" viewBox="0 0 24 24" fill="none" xmlns="http://www.w3.org/2000/svg">
<path fill-rule="evenodd" clip-rule="evenodd" d="M18.8418 2C19.6793 2 20.483 2.33258 21.0752 2.9248C21.6674 3.51702 22 4.32068 22 5.1582V18.8418C22 19.6793 21.6674 20.483 21.0752 21.0752C20.483 21.6674 19.6793 22 18.8418 22H15.6846V15.6846C15.6846 14.8471 15.3519 14.0434 14.7598 13.4512C14.1676 12.859 13.3639 12.5264 12.5264 12.5264H11.4736C10.6361 12.5264 9.83244 12.859 9.24023 13.4512C8.64814 14.0434 8.31543 14.8471 8.31543 15.6846V22H5.1582C4.32068 22 3.51702 21.6674 2.9248 21.0752C2.33258 20.483 2 19.6793 2 18.8418V5.1582C2 4.32068 2.33258 3.51702 2.9248 2.9248C3.51702 2.33258 4.32068 2 5.1582 2H18.8418ZM5.1582 4.10547C4.90053 4.1055 4.65161 4.19995 4.45898 4.37109C4.26632 4.54242 4.14247 4.7791 4.1123 5.03516L4.10547 5.1582V6.21094C4.10459 6.72483 4.29198 7.22096 4.63184 7.60645C4.97178 7.99201 5.44108 8.24027 5.95117 8.30371C6.46109 8.36701 6.9765 8.2416 7.40039 7.95117C7.82438 7.66063 8.12794 7.22512 8.25293 6.72656L8.28613 6.56348C8.32459 6.33375 8.43849 6.12312 8.60938 5.96484C8.78041 5.80657 8.99932 5.70908 9.23145 5.68848L9.36816 5.68457C9.62589 5.6846 9.87475 5.779 10.0674 5.9502C10.26 6.12144 10.3838 6.35736 10.4141 6.61328L10.4209 6.7373C10.4212 7.14255 10.5778 7.53186 10.8574 7.8252C11.1372 8.11859 11.5189 8.29392 11.9238 8.31348C12.3289 8.33296 12.7265 8.19591 13.0332 7.93066C13.3398 7.66548 13.5321 7.29214 13.5713 6.88867L13.5791 6.7373C13.5791 6.47948 13.6734 6.22978 13.8447 6.03711C14.016 5.8445 14.2528 5.72157 14.5088 5.69141L14.6504 5.68457C14.8829 5.67921 15.1105 5.75099 15.2979 5.88867C15.4852 6.02635 15.6222 6.22189 15.6865 6.44531L15.7139 6.56348C15.7993 7.07085 16.0674 7.52946 16.4678 7.85254C16.8685 8.17571 17.3744 8.34149 17.8887 8.31738C18.4028 8.29321 18.8901 8.08087 19.2588 7.72168C19.6275 7.36244 19.8522 6.88059 19.8896 6.36719L19.8945 6.21094V5.1582C19.8945 4.90053 19.8 4.65161 19.6289 4.45898C19.4576 4.26632 19.2209 4.14247 18.9648 4.1123L18.8418 4.10547H5.1582Z" fill="#141414"/>
<path d="M12.5264 14.6318C12.7841 14.6319 13.0329 14.7262 13.2256 14.8975C13.4183 15.0688 13.5411 15.3055 13.5713 15.5615L13.5791 15.6846V22H10.4209V15.6846C10.4209 15.4268 10.5162 15.178 10.6875 14.9854C10.8588 14.7927 11.0945 14.6688 11.3506 14.6387L11.4736 14.6318H12.5264Z" fill="#141414"/>
</svg>
