<svg width="24" height="24" viewBox="0 0 24 24" fill="none" xmlns="http://www.w3.org/2000/svg">
<path d="M11.0444 14.8125H9.13232V12.9375H11.0444V14.8125Z" fill="#141414"/>
<path fill-rule="evenodd" clip-rule="evenodd" d="M17.2759 4.5C17.5625 4.50015 17.8458 4.56368 18.104 4.68555C18.3621 4.80741 18.5892 4.98467 18.7681 5.2041L21.6831 8.77734C22.4343 9.69791 21.7662 11.0623 20.564 11.0625H19.646V18.5625C19.646 18.8111 19.5459 19.0498 19.3667 19.2256C19.1875 19.4014 18.9434 19.5 18.6899 19.5C18.4366 19.4999 18.1933 19.4013 18.0142 19.2256C17.835 19.0498 17.7349 18.8111 17.7349 18.5625V11.0625H15.8228V17.625C15.8228 18.1223 15.6217 18.5995 15.2632 18.9512C14.9047 19.3027 14.4185 19.5 13.9116 19.5H6.26514C5.75828 19.5 5.27202 19.3027 4.91357 18.9512C4.55509 18.5995 4.354 18.1223 4.354 17.625V11.0625H3.43604C2.23469 11.0624 1.56567 9.69794 2.3169 8.77734L5.23193 5.20312C5.41096 4.9838 5.63783 4.80627 5.896 4.68457C6.15425 4.56286 6.43761 4.50004 6.72412 4.5H17.2759ZM8.17725 11.0625C7.92376 11.0625 7.67973 11.1611 7.50049 11.3369C7.32135 11.5127 7.22119 11.7514 7.22119 12V15.75C7.22119 15.9986 7.32135 16.2373 7.50049 16.4131C7.67973 16.5889 7.92376 16.6875 8.17725 16.6875H11.9995C12.2528 16.6875 12.4961 16.5887 12.6753 16.4131C12.8545 16.2373 12.9556 15.9986 12.9556 15.75V12C12.9556 11.7514 12.8545 11.5127 12.6753 11.3369C12.4961 11.1613 12.2528 11.0625 11.9995 11.0625H8.17725Z" fill="#141414"/>
</svg>
