<svg width="24" height="24" viewBox="0 0 24 24" fill="none" xmlns="http://www.w3.org/2000/svg">
<path fill-rule="evenodd" clip-rule="evenodd" d="M11.9258 2.50203C12.2403 2.48637 12.5522 2.5706 12.8164 2.74324L12.9365 2.83113L17.249 6.30672C17.4594 6.47611 17.6341 6.68698 17.7617 6.92586C17.8892 7.16461 17.9677 7.42735 17.9922 7.69734L18 7.87898V19.4854H19V10.922C19 10.8041 19.0413 10.6893 19.1162 10.5987C19.1911 10.5084 19.2952 10.447 19.4102 10.4259L19.5 10.418H20C20.5045 10.4179 20.9904 10.6097 21.3604 10.9552C21.7302 11.3007 21.9572 11.7746 21.9951 12.2813L22 12.4327V20.3917C21.9999 20.6646 21.8996 20.9277 21.7188 21.1309C21.5379 21.3341 21.2888 21.4635 21.0195 21.4932L20.9004 21.5001H3.09961C2.82869 21.5001 2.56703 21.399 2.36523 21.2169C2.16353 21.0347 2.03543 20.784 2.00586 20.5128L2 20.3917V12.4327C1.9999 11.9246 2.19035 11.4352 2.5332 11.0626C2.87621 10.6899 3.3466 10.4611 3.84961 10.4229L4 10.418H4.5C4.61703 10.418 4.73041 10.4598 4.82031 10.5352C4.91007 10.6107 4.97114 10.7153 4.99219 10.8311L5 10.922V19.4854H6V7.87898C6.00002 7.60776 6.05469 7.33946 6.16016 7.08992C6.26566 6.8403 6.42011 6.61485 6.61426 6.42683L6.75098 6.30574L11.0635 2.83113C11.3095 2.633 11.6112 2.51776 11.9258 2.50203ZM12 9.40926C11.4696 9.40926 10.961 9.62221 10.5859 10.0001C10.2109 10.3779 10 10.8905 10 11.4249C10.0001 11.9591 10.211 12.4719 10.5859 12.8497C10.961 13.2274 11.4697 13.4395 12 13.4395C12.5303 13.4395 13.039 13.2274 13.4141 12.8497C13.789 12.4719 13.9999 11.9591 14 11.4249C14 10.8905 13.7891 10.3779 13.4141 10.0001C13.039 9.62221 12.5304 9.40926 12 9.40926Z" fill="#141414"/>
</svg>
