<svg width="24" height="24" viewBox="0 0 24 24" fill="none" xmlns="http://www.w3.org/2000/svg">
<path fill-rule="evenodd" clip-rule="evenodd" d="M17 2C17.5304 2 18.039 2.21086 18.4141 2.58594C18.7891 2.96101 19 3.46957 19 4V20C19.2652 20 19.5195 20.1054 19.707 20.293C19.8946 20.4805 20 20.7348 20 21C20 21.2652 19.8946 21.5195 19.707 21.707C19.5195 21.8946 19.2652 22 19 22H5C4.73478 22 4.48051 21.8946 4.29297 21.707C4.10543 21.5195 4 21.2652 4 21C4 20.7348 4.10543 20.4805 4.29297 20.293C4.48051 20.1054 4.73478 20 5 20V4C5 3.46957 5.21086 2.96101 5.58594 2.58594C5.96101 2.21086 6.46957 2 7 2H17ZM11 13C10.7348 13 10.4805 13.1054 10.293 13.293C10.1054 13.4805 10 13.7348 10 14V20H14V14C14 13.7348 13.8946 13.4805 13.707 13.293C13.5195 13.1054 13.2652 13 13 13H11ZM10 9C9.73478 9 9.4805 9.10543 9.29297 9.29297C9.10543 9.4805 9 9.73478 9 10C9 10.2652 9.10543 10.5195 9.29297 10.707C9.4805 10.8946 9.73478 11 10 11C10.2652 11 10.5195 10.8946 10.707 10.707C10.8946 10.5195 11 10.2652 11 10C11 9.73478 10.8946 9.4805 10.707 9.29297C10.5195 9.10543 10.2652 9 10 9ZM14 9C13.7348 9 13.4805 9.10543 13.293 9.29297C13.1054 9.4805 13 9.73478 13 10C13 10.2652 13.1054 10.5195 13.293 10.707C13.4805 10.8946 13.7348 11 14 11C14.2652 11 14.5195 10.8946 14.707 10.707C14.8946 10.5195 15 10.2652 15 10C15 9.73478 14.8946 9.4805 14.707 9.29297C14.5195 9.10543 14.2652 9 14 9ZM10 6C9.73478 6 9.4805 6.10543 9.29297 6.29297C9.10543 6.4805 9 6.73478 9 7C9 7.26522 9.10543 7.5195 9.29297 7.70703C9.4805 7.89457 9.73478 8 10 8C10.2652 8 10.5195 7.89457 10.707 7.70703C10.8946 7.5195 11 7.26522 11 7C11 6.73478 10.8946 6.4805 10.707 6.29297C10.5195 6.10543 10.2652 6 10 6ZM14 6C13.7348 6 13.4805 6.10543 13.293 6.29297C13.1054 6.4805 13 6.73478 13 7C13 7.26522 13.1054 7.5195 13.293 7.70703C13.4805 7.89457 13.7348 8 14 8C14.2652 8 14.5195 7.89457 14.707 7.70703C14.8946 7.5195 15 7.26522 15 7C15 6.73478 14.8946 6.4805 14.707 6.29297C14.5195 6.10543 14.2652 6 14 6Z" fill="#141414"/>
</svg>
