<svg width="24" height="24" viewBox="0 0 24 24" fill="none" xmlns="http://www.w3.org/2000/svg">
<path d="M12.2176 4.22266C12.3197 4.22475 12.6522 5.31057 12.6522 5.55566C12.6522 5.57069 12.6519 5.58654 12.6493 5.60156C12.89 5.65397 13.1102 5.74908 13.3075 5.87695C13.3152 5.81984 13.3339 5.76472 13.3622 5.71484C13.4822 5.50151 14.3036 4.72978 14.3915 4.78223C14.4789 4.83578 14.236 5.9465 14.1161 6.15918C14.0865 6.21188 14.0456 6.2577 13.9979 6.29395C13.9503 6.33007 13.8955 6.35638 13.8378 6.37012C14.1203 6.73694 14.3032 7.17344 14.3671 7.63574C14.4309 8.09803 14.3742 8.56952 14.202 9.00195C14.1317 9.17899 14.0065 9.32799 13.8465 9.42676L13.8622 9.43066C14.2562 9.51118 14.6112 9.72834 14.8661 10.0459C15.121 10.3635 15.2604 10.762 15.2606 11.1729V12.7432L15.5155 12.4824C15.6794 12.3206 15.899 12.2315 16.1268 12.2334C16.3547 12.2354 16.573 12.3286 16.7342 12.4932C16.8955 12.658 16.9871 12.8812 16.9891 13.1143C16.9911 13.3473 16.9034 13.5716 16.745 13.7393L15.2606 15.2568V17.5557C15.4911 17.5557 15.7128 17.6488 15.8758 17.8154C16.0389 17.9821 16.1307 18.2086 16.1307 18.4443V20.2227C16.3611 20.2227 16.582 20.3159 16.745 20.4824C16.9081 20.6491 16.9999 20.8756 16.9999 21.1113C16.9998 21.347 16.908 21.5726 16.745 21.7393C16.582 21.9059 16.3612 21.9999 16.1307 22H8.30455C8.07393 22 7.85239 21.906 7.68932 21.7393C7.52644 21.5726 7.43449 21.3469 7.43443 21.1113C7.43443 20.8756 7.52624 20.6491 7.68932 20.4824C7.85239 20.3157 8.07394 20.2227 8.30455 20.2227V18.4443C8.30458 18.2086 8.39638 17.9821 8.55943 17.8154C8.72243 17.6491 8.94335 17.5557 9.17369 17.5557V14.3682L7.68932 12.8506C7.52641 12.684 7.4346 12.4582 7.43443 12.2227V6.76953C7.26882 6.67168 7.13947 6.5205 7.06627 6.33984C6.9931 6.15912 6.97964 5.95846 7.02916 5.76953C7.0787 5.58078 7.1881 5.41397 7.33971 5.29492C7.49157 5.1758 7.67857 5.11134 7.86998 5.11133H8.73912C8.89156 5.11136 9.04164 5.15261 9.17369 5.23047C9.30549 5.30828 9.4148 5.42006 9.49108 5.55469C9.56737 5.68944 9.60793 5.84236 9.60826 5.99805C9.60852 6.1538 9.56887 6.30729 9.49303 6.44238L10.0702 7.62305C10.1347 7.16535 10.3165 6.73332 10.5965 6.37012C10.5386 6.35635 10.4841 6.33018 10.4364 6.29395C10.3887 6.25772 10.3488 6.21184 10.3192 6.15918C10.1992 5.94585 9.95511 4.83467 10.0438 4.78223C10.1331 4.73159 10.9523 5.50263 11.0721 5.71484C11.1006 5.76505 11.1192 5.82043 11.1268 5.87793C11.3233 5.74908 11.5442 5.65401 11.785 5.60156C11.7834 5.58632 11.7822 5.57099 11.7821 5.55566C11.7821 5.31033 12.1159 4.22266 12.2176 4.22266Z" fill="#141414"/>
<path d="M8.30455 2C8.44084 2.00163 9.17326 3.28666 9.17369 3.77734C9.17369 4.01309 9.08189 4.23955 8.91881 4.40625C8.75581 4.5728 8.53501 4.66692 8.30455 4.66699C8.07393 4.66699 7.85239 4.57295 7.68932 4.40625C7.52629 4.23956 7.43443 4.01305 7.43443 3.77734C7.43487 3.28635 8.16894 2 8.30455 2Z" fill="#141414"/>
</svg>
