<svg width="24" height="24" viewBox="0 0 24 24" fill="none" xmlns="http://www.w3.org/2000/svg">
<path fill-rule="evenodd" clip-rule="evenodd" d="M17.5 3C17.8105 3 18.1168 3.07208 18.3945 3.21094C18.6721 3.34973 18.9134 3.55156 19.0996 3.7998L21.7881 7.38379C21.923 7.56056 21.9949 7.77764 21.9922 8H22V9C22.001 9.97452 21.6453 10.9162 21 11.6465V19C21 19.5304 20.7891 20.039 20.4141 20.4141C20.039 20.7891 19.5304 21 19 21H5C4.46957 21 3.96101 20.7891 3.58594 20.4141C3.21087 20.039 3 19.5304 3 19V11.6465C2.35432 10.9164 1.99856 9.97461 2 9V8H2.00782C2.00507 7.77764 2.07699 7.56056 2.21192 7.38379L4.90039 3.7998C5.08666 3.55156 5.32788 3.34974 5.60547 3.21094C5.88318 3.07208 6.18952 3 6.5 3H17.5ZM4 9C3.99768 9.51898 4.19745 10.0189 4.55664 10.3936C4.91578 10.7679 5.40639 10.9883 5.92481 11.0078C6.44343 11.0273 6.94967 10.8437 7.33594 10.4971C7.72192 10.1506 7.95844 9.66779 7.99512 9.15039L8 9H4ZM10 9C9.99768 9.51898 10.1975 10.0189 10.5566 10.3936C10.9158 10.7679 11.4064 10.9883 11.9248 11.0078C12.4434 11.0273 12.9497 10.8437 13.3359 10.4971C13.7219 10.1506 13.9584 9.66779 13.9951 9.15039L14 9H10ZM16 9C15.9977 9.51898 16.1975 10.0189 16.5566 10.3936C16.9158 10.7679 17.4064 10.9883 17.9248 11.0078C18.4434 11.0273 18.9497 10.8437 19.3359 10.4971C19.7219 10.1506 19.9584 9.66779 19.9951 9.15039L20 9H16Z" fill="#141414"/>
</svg>
