<svg width="24" height="24" viewBox="0 0 24 24" fill="none" xmlns="http://www.w3.org/2000/svg">
<path d="M5.67027 5.50034C10.6256 5.69532 13.7993 7.61383 15.4212 10.7279C17.1356 9.72518 19.1176 9.21432 21.0902 9.21421C21.2589 9.21421 21.4252 9.26237 21.5687 9.35288C21.7121 9.44346 21.8282 9.57386 21.9037 9.72788C21.979 9.88187 22.0115 10.0545 21.9964 10.2259C21.9813 10.3976 21.9189 10.5617 21.8177 10.6996C20.3378 12.7143 19.8971 14.8138 20.057 16.6429H21.0902C21.3205 16.645 21.5424 16.7358 21.7093 16.8978C21.8762 17.06 21.976 17.2821 21.9896 17.5169C22.003 17.7518 21.9287 17.9834 21.7816 18.1644C21.6344 18.3453 21.4251 18.4629 21.1966 18.4925L2.90855 18.4994C2.67704 18.499 2.4539 18.4087 2.2855 18.2464C2.1172 18.084 2.01587 17.8615 2.0023 17.6253C1.98882 17.3892 2.06362 17.1563 2.21226 16.9749C2.36093 16.7936 2.57215 16.6768 2.8021 16.6488L3.85777 16.6429C3.84589 14.8733 3.33207 13.0395 2.21031 11.6654C2.09994 11.5299 2.02926 11.3646 2.00718 11.1898C1.98523 11.015 2.01214 10.8367 2.08531 10.6771C2.15857 10.5175 2.27566 10.3821 2.42124 10.2875C2.56679 10.193 2.73611 10.143 2.90855 10.1429C4.25019 10.1429 5.48895 10.5236 6.59703 11.1585C6.33609 9.67303 5.8328 8.19882 4.91831 6.99741C4.81247 6.85806 4.74698 6.69059 4.73081 6.51499C4.71474 6.33912 4.74859 6.16143 4.82749 6.00425C4.90645 5.84715 5.02791 5.71557 5.1771 5.62632C5.32626 5.53722 5.49759 5.49378 5.67027 5.50034Z" fill="#141414"/>
</svg>
