<svg width="24" height="24" viewBox="0 0 24 24" fill="none" xmlns="http://www.w3.org/2000/svg">
<path fill-rule="evenodd" clip-rule="evenodd" d="M13.0003 3C13.5047 2.9999 13.9907 3.19024 14.3606 3.5332C14.7305 3.87621 14.9574 4.34659 14.9954 4.84961L15.0003 5V19H16.0003V9.5C16.0002 9.38305 16.0407 9.26956 16.1155 9.17969C16.1904 9.08979 16.2953 9.02888 16.4104 9.00781L16.5003 9H18.0003C18.5047 8.9999 18.9907 9.19024 19.3606 9.5332C19.7305 9.87621 19.9574 10.3466 19.9954 10.8496L20.0003 11V19H21.0003C21.255 19.0003 21.5005 19.0975 21.6858 19.2725C21.8711 19.4474 21.9824 19.687 21.9973 19.9414C22.0123 20.1958 21.9294 20.4462 21.7659 20.6416C21.6024 20.837 21.3704 20.963 21.1174 20.9932L21.0003 21H3.00026C2.74548 20.9997 2.50002 20.9024 2.31471 20.7275C2.12937 20.5526 2.01812 20.313 2.00318 20.0586C1.98825 19.8042 2.07104 19.5539 2.23463 19.3584C2.39822 19.163 2.62999 19.0369 2.88307 19.0068L3.00026 19H4.00026V5C4.0001 4.49548 4.19044 4.00961 4.53346 3.63965C4.87652 3.2697 5.34676 3.04276 5.84986 3.00488L6.00026 3H13.0003ZM8.00026 17H11.0003V15H8.00026V17ZM8.00026 13H11.0003V11H8.00026V13ZM8.00026 9H11.0003V7H8.00026V9Z" fill="#141414"/>
</svg>
