<svg width="24" height="24" viewBox="0 0 24 24" fill="none" xmlns="http://www.w3.org/2000/svg">
<path d="M14.9999 4C15.1957 3.99983 15.3872 4.05738 15.5507 4.16504C15.7142 4.27277 15.8427 4.42645 15.9198 4.60645L21.9198 18.6064C21.9849 18.7585 22.0117 18.9241 21.997 19.0889C21.9822 19.2537 21.927 19.4126 21.8358 19.5508C21.7446 19.689 21.6203 19.8025 21.4745 19.8809C21.3287 19.9593 21.1655 20.0002 20.9999 20H9.9999V15C9.99989 14.7348 9.89446 14.4805 9.70693 14.293C9.5194 14.1055 9.26508 14 8.9999 14C8.73472 14 8.48037 14.1055 8.29286 14.293C8.10536 14.4805 7.9999 14.7348 7.9999 15V20H2.9999C2.83459 20.0001 2.67188 19.9591 2.52626 19.8809C2.38055 19.8025 2.25611 19.6888 2.16494 19.5508C2.0739 19.4128 2.01865 19.2545 2.0038 19.0898C1.98896 18.9252 2.01507 18.7595 2.07997 18.6074L8.07216 4.62696C8.14613 4.44157 8.274 4.28268 8.43935 4.1709C8.6048 4.05911 8.80022 3.99945 8.9999 4H14.9999Z" fill="#141414"/>
</svg>
