<svg width="24" height="24" viewBox="0 0 24 24" fill="none" xmlns="http://www.w3.org/2000/svg">
<path fill-rule="evenodd" clip-rule="evenodd" d="M16.6514 2.5C19.4419 2.50008 20.3721 4.13952 20.3721 6.16309V20.127H21.3027C21.6839 20.1272 22 20.4382 22 20.8135C21.9999 21.1887 21.6839 21.4998 21.3027 21.5H2.69727C2.31613 21.4998 2.00013 21.1887 2 20.8135C2 20.4382 2.31605 20.1272 2.69727 20.127H3.62793V6.16309C3.62793 4.13952 4.55809 2.50008 7.34863 2.5H16.6514ZM7.34863 15.0908C6.96733 15.0909 6.65137 15.402 6.65137 15.7773C6.6515 16.1526 6.96741 16.4638 7.34863 16.4639H10.1396C10.5209 16.4638 10.8368 16.1526 10.8369 15.7773C10.8369 15.402 10.521 15.0909 10.1396 15.0908H7.34863ZM13.8604 15.0908C13.479 15.0909 13.1631 15.402 13.1631 15.7773C13.1632 16.1526 13.4791 16.4638 13.8604 16.4639H16.6514C17.0326 16.4638 17.3485 16.1526 17.3486 15.7773C17.3486 15.402 17.0327 15.0909 16.6514 15.0908H13.8604ZM7.34863 10.9697C6.96746 10.9698 6.65158 11.2811 6.65137 11.6562C6.65137 12.0316 6.96733 12.3436 7.34863 12.3438H10.1396C10.521 12.3437 10.8369 12.0316 10.8369 11.6562C10.8367 11.281 10.5209 10.9698 10.1396 10.9697H7.34863ZM13.8604 10.9697C13.4791 10.9698 13.1633 11.281 13.1631 11.6562C13.1631 12.0316 13.479 12.3437 13.8604 12.3438H16.6514C17.0327 12.3436 17.3486 12.0316 17.3486 11.6562C17.3484 11.2811 17.0325 10.9698 16.6514 10.9697H13.8604ZM7.34863 6.84961C6.96733 6.84972 6.65137 7.16078 6.65137 7.53613C6.65137 7.91149 6.96733 8.22255 7.34863 8.22266H10.1396C10.521 8.22259 10.8369 7.91152 10.8369 7.53613C10.8369 7.16075 10.521 6.84967 10.1396 6.84961H7.34863ZM13.8604 6.84961C13.479 6.84967 13.1631 7.16075 13.1631 7.53613C13.1631 7.91152 13.479 8.22259 13.8604 8.22266H16.6514C17.0327 8.22255 17.3486 7.91149 17.3486 7.53613C17.3486 7.16078 17.0327 6.84972 16.6514 6.84961H13.8604Z" fill="#141414"/>
</svg>
