<svg width="24" height="24" viewBox="0 0 24 24" fill="none" xmlns="http://www.w3.org/2000/svg">
<path d="M19.1445 19.2285C19.0074 20.049 18.5348 21.0217 17.457 21.3799L17.1729 21.4688L17.0176 21.5117L16.6758 21.5967C16.4349 21.6517 16.166 21.7049 15.8672 21.7529L15.3945 21.8232C14.7326 21.9093 13.9428 21.973 13 22V20.0127C13 19.7473 12.8946 19.4924 12.707 19.3047C12.5195 19.1171 12.2651 19.0117 12 19.0117C11.7349 19.0117 11.4805 19.1171 11.293 19.3047C11.1054 19.4924 11 19.7473 11 20.0127V22C10.1993 21.981 9.40013 21.9219 8.60547 21.8223L8.13281 21.7529C7.83297 21.7049 7.56514 21.6527 7.32324 21.5967L6.9834 21.5117L6.67969 21.4248C6.63397 21.4106 6.58839 21.396 6.54297 21.3809C5.46519 21.0217 4.99355 20.048 4.85645 19.2295L4.2959 15.8633C4.6679 16.0094 5.03733 16.1247 5.36133 16.2178C7.1023 16.7161 9.45012 17.0107 12 17.0107C14.5499 17.0107 16.8977 16.7161 18.6387 16.2178C18.9993 16.1162 19.3554 15.9977 19.7051 15.8633L19.1445 19.2285Z" fill="#141414"/>
<path d="M12 2C12.2652 2 12.5195 2.10537 12.707 2.29297C12.8946 2.48064 13 2.73557 13 3.00098C13.0001 4.39177 14.0103 5.1391 14.9473 5.6084C15.2451 5.75743 15.5619 5.88764 15.8848 6.01367L16.5352 6.26465C17.184 6.52078 17.8218 6.80129 18.3447 7.23047C18.6467 7.47664 19 7.89446 19 8.50488C18.9999 8.99905 18.8022 9.38541 18.5303 9.68555L18.9805 9.81348L19.2998 9.91309L19.6299 10.0273C20.7899 10.4496 22 11.1507 22 12.4346C21.9998 13.6242 20.9519 14.3427 19.877 14.793L19.5537 14.9199C19.5008 14.9399 19.4475 14.9605 19.3936 14.9785L19.0811 15.083L18.7812 15.1748L18.6387 15.2168C16.8977 15.7151 14.5499 16.0098 12 16.0098C9.619 16.0098 7.4158 15.7528 5.7168 15.3145L5.21777 15.1748L4.91797 15.083L4.60547 14.9785C4.55205 14.9597 4.4984 14.9397 4.44531 14.9199L4.12305 14.793C3.04813 14.3427 2.00016 13.6242 2 12.4346C2 11.1507 3.21012 10.4496 4.37012 10.0273L4.7002 9.91309L5.01953 9.81348L5.46973 9.68555C5.16748 9.36701 4.99944 8.94414 5 8.50488C5 7.89446 5.3533 7.47664 5.6543 7.23047C6.17625 6.80329 6.814 6.52174 7.46289 6.2666L8.11328 6.01465C8.43612 5.88862 8.75287 5.75742 9.05273 5.6084C9.94268 5.16311 10.8991 4.46482 10.9932 3.20508L11 3.00098C11 2.73557 11.1054 2.48064 11.293 2.29297C11.4805 2.10537 11.7348 2 12 2Z" fill="#141414"/>
</svg>
