<svg width="24" height="24" viewBox="0 0 24 24" fill="none" xmlns="http://www.w3.org/2000/svg">
<path fill-rule="evenodd" clip-rule="evenodd" d="M12.0003 2.5C12.208 2.49998 12.411 2.56418 12.5803 2.68457C12.7496 2.80495 12.8764 2.9757 12.9446 3.17188L12.9758 3.2832C13.1259 3.9611 13.5644 4.29873 14.1204 4.5957L14.5628 4.82129C15.2067 5.14228 16.0508 5.59905 16.7678 6.45898C17.5592 7.39268 17.996 8.57584 18.0003 9.7998C18.0003 10.5968 17.8147 11.3551 17.4837 12.0371C17.4162 12.1709 17.3397 12.2999 17.2542 12.4229L17.0003 12.7959V19.5H19.0003V14.5C19.0003 14.383 19.0199 14.27 19.0569 14.166C18.8829 14.0256 18.7421 13.8482 18.6458 13.6465C18.5494 13.4447 18.5001 13.2236 18.5003 13C18.5003 12.69 18.64 12.1895 18.843 11.6865L18.9856 11.3525C19.3116 10.6366 19.7293 10 20.0003 10C20.2702 10.0004 20.6881 10.6369 21.0139 11.3525L21.1575 11.6865C21.3595 12.1895 21.5003 12.689 21.5003 13C21.5003 13.471 21.2826 13.892 20.9426 14.166C20.9676 14.236 20.9854 14.3088 20.9934 14.3848L21.0003 14.5V19.5C21.255 19.5003 21.5005 19.5975 21.6858 19.7725C21.8711 19.9474 21.9824 20.187 21.9973 20.4414C22.0123 20.6958 21.9294 20.9462 21.7659 21.1416C21.6024 21.337 21.3704 21.463 21.1174 21.4932L21.0003 21.5H3.00026C2.74548 21.4997 2.50002 21.4024 2.31471 21.2275C2.12937 21.0526 2.01812 20.813 2.00318 20.5586C1.98825 20.3042 2.07104 20.0539 2.23463 19.8584C2.39822 19.663 2.62999 19.5369 2.88307 19.5068L3.00026 19.5V14.5C3.00026 14.383 3.01991 14.27 3.0569 14.166C2.88291 14.0256 2.74214 13.8482 2.64576 13.6465C2.54937 13.4447 2.50012 13.2236 2.50026 13C2.50026 12.69 2.64003 12.1895 2.84303 11.6865L2.98561 11.3525C3.31159 10.6366 3.72928 10 4.00026 10C4.27021 10.0004 4.68805 10.6369 5.01393 11.3525L5.15748 11.6865C5.35948 12.1895 5.50026 12.689 5.50026 13C5.50026 13.471 5.28264 13.892 4.94264 14.166C4.96762 14.236 4.98541 14.3088 4.99342 14.3848L5.00026 14.5V19.5H7.00026V12.7959L6.74635 12.4229C6.66076 12.2997 6.58342 12.171 6.51588 12.0371C6.17627 11.3403 6.00019 10.575 6.00026 9.7998C6.0003 8.53494 6.4658 7.37689 7.2317 6.45996C7.8886 5.67209 8.65182 5.22324 9.27076 4.90625L9.59205 4.74512C10.2319 4.42817 10.7657 4.12206 10.9797 3.44531L11.0237 3.2832C11.0731 3.06114 11.1968 2.86208 11.3743 2.71973C11.5517 2.5774 11.7728 2.50004 12.0003 2.5ZM12.0003 14.5C11.7503 14.5 11.0003 15.5 11.0003 16V19.5H13.0003V16C13.0003 15.5002 12.2505 14.5007 12.0003 14.5Z" fill="#141414"/>
</svg>
