<svg width="24" height="24" viewBox="0 0 24 24" fill="none" xmlns="http://www.w3.org/2000/svg">
<path fill-rule="evenodd" clip-rule="evenodd" d="M19 4C19.2652 4 19.5195 4.10543 19.707 4.29297C19.8946 4.48051 20 4.73478 20 5V7C20.2652 7 20.5195 7.10543 20.707 7.29297C20.8946 7.48051 21 7.73478 21 8C21 8.26522 20.8946 8.5195 20.707 8.70703C20.5195 8.89457 20.2652 9 20 9V12C20.2652 12 20.5195 12.1054 20.707 12.293C20.8946 12.4805 21 12.7348 21 13C21 13.2652 20.8946 13.5195 20.707 13.707C20.5195 13.8946 20.2652 14 20 14V18C20.2652 18 20.5195 18.1054 20.707 18.293C20.8946 18.4805 21 18.7348 21 19C21 19.2652 20.8946 19.5195 20.707 19.707C20.5195 19.8946 20.2652 20 20 20H14C13.7348 20 13.4805 19.8946 13.293 19.707C13.1054 19.5195 13 19.2652 13 19C13 18.7348 13.1054 18.4805 13.293 18.293C13.4805 18.1054 13.7348 18 14 18V14C14 13.4696 13.7891 12.961 13.4141 12.5859C13.039 12.2109 12.5304 12 12 12C11.4696 12 10.961 12.2109 10.5859 12.5859C10.2109 12.961 10 13.4696 10 14V18C10.2652 18 10.5195 18.1054 10.707 18.293C10.8946 18.4805 11 18.7348 11 19C11 19.2652 10.8946 19.5195 10.707 19.707C10.5195 19.8946 10.2652 20 10 20H4C3.73478 20 3.48051 19.8946 3.29297 19.707C3.10543 19.5195 3 19.2652 3 19C3 18.7348 3.10543 18.4805 3.29297 18.293C3.48051 18.1054 3.73478 18 4 18V14C3.73478 14 3.48051 13.8946 3.29297 13.707C3.10543 13.5195 3 13.2652 3 13C3 12.7348 3.10543 12.4805 3.29297 12.293C3.48051 12.1054 3.73478 12 4 12V9C3.73478 9 3.48051 8.89457 3.29297 8.70703C3.10543 8.5195 3 8.26522 3 8C3 7.73478 3.10543 7.48051 3.29297 7.29297C3.48051 7.10543 3.73478 7 4 7V5C4 4.73478 4.10543 4.48051 4.29297 4.29297C4.48051 4.10543 4.73478 4 5 4H19ZM6 7V8H18V7H6Z" fill="#141414"/>
</svg>
