<svg width="24" height="24" viewBox="0 0 24 24" fill="none" xmlns="http://www.w3.org/2000/svg">
<g clip-path="url(#clip0_32_5516)">
<path fill-rule="evenodd" clip-rule="evenodd" d="M12 2C12.2078 1.99993 12.4105 2.06461 12.5798 2.18504C12.7492 2.30548 12.8768 2.47568 12.945 2.672L12.976 2.783C13.126 3.461 13.564 3.799 14.12 4.096L14.563 4.321C15.207 4.642 16.051 5.099 16.768 5.959C17.5594 6.89275 17.9958 8.07597 18 9.3C18 10.097 17.815 10.855 17.484 11.537C17.4165 11.6709 17.3396 11.7999 17.254 11.923L17 12.296V19H19V14C19 13.883 19.02 13.77 19.057 13.666C18.883 13.5256 18.7426 13.348 18.6462 13.1462C18.5498 12.9444 18.4999 12.7236 18.5 12.5C18.5 12.19 18.64 11.69 18.843 11.187L18.986 10.853C19.312 10.137 19.729 9.5 20 9.5C20.27 9.5 20.688 10.137 21.014 10.853L21.157 11.187C21.359 11.69 21.5 12.189 21.5 12.5C21.5 12.971 21.283 13.392 20.943 13.666C20.968 13.736 20.985 13.809 20.993 13.885L21 14V19C21.2549 19.0003 21.5 19.0979 21.6854 19.2728C21.8707 19.4478 21.9822 19.687 21.9972 19.9414C22.0121 20.1958 21.9293 20.4464 21.7657 20.6418C21.6021 20.8373 21.3701 20.9629 21.117 20.993L21 21H3C2.74512 20.9997 2.49997 20.9021 2.31463 20.7272C2.1293 20.5522 2.01777 20.313 2.00283 20.0586C1.98789 19.8042 2.07067 19.5536 2.23426 19.3582C2.39786 19.1627 2.6299 19.0371 2.883 19.007L3 19V14C3 13.883 3.02 13.77 3.057 13.666C2.88297 13.5256 2.7426 13.348 2.64621 13.1462C2.54982 12.9444 2.49986 12.7236 2.5 12.5C2.5 12.19 2.64 11.69 2.843 11.187L2.986 10.853C3.312 10.137 3.729 9.5 4 9.5C4.27 9.5 4.688 10.137 5.014 10.853L5.157 11.187C5.359 11.69 5.5 12.189 5.5 12.5C5.5 12.971 5.283 13.392 4.943 13.666C4.968 13.736 4.985 13.809 4.993 13.885L5 14V19H7V12.296L6.746 11.923C6.6604 11.7999 6.58354 11.6709 6.516 11.537C6.17639 10.8402 5.99993 10.0752 6 9.3C6 8.035 6.466 6.877 7.232 5.96C7.889 5.172 8.652 4.723 9.271 4.406L9.592 4.245C10.232 3.928 10.766 3.622 10.98 2.945L11.024 2.783C11.0734 2.56094 11.197 2.36234 11.3744 2.21999C11.5518 2.07764 11.7725 2.00004 12 2ZM12 14C11.75 14 11 15 11 15.5V19H13V15.5C13 15 12.25 14 12 14Z" fill="#141414"/>
</g>
<defs>
<clipPath id="clip0_32_5516">
<rect width="24" height="24" fill="white"/>
</clipPath>
</defs>
</svg>
