<svg width="24" height="24" viewBox="0 0 24 24" fill="none" xmlns="http://www.w3.org/2000/svg">
<path fill-rule="evenodd" clip-rule="evenodd" d="M12.0003 2C12.2451 2.00009 12.4813 2.09022 12.6643 2.25293C12.8473 2.41565 12.9647 2.63965 12.9934 2.88281L13.0003 3V3.72266L13.1663 4H14.0003C14.2257 3.99984 14.4445 4.07594 14.6213 4.21582C14.7983 4.35589 14.9233 4.5518 14.9749 4.77148C15.0264 4.9911 15.0016 5.22168 14.9055 5.42578C14.8094 5.62993 14.6468 5.79628 14.4446 5.89648L14.3323 5.94336L15.5657 8H17.0003C17.255 8.00034 17.5005 8.09755 17.6858 8.27246C17.8711 8.44743 17.9824 8.68698 17.9973 8.94141C18.0123 9.19575 17.9294 9.44618 17.7659 9.6416C17.6024 9.83695 17.3704 9.96297 17.1174 9.99316L17.0003 10H16.0003C16.6282 10.836 17.0003 11.8741 17.0003 13C17.0009 13.7763 16.8201 14.542 16.4729 15.2363C16.1258 15.9306 15.6216 16.5347 15.0003 17C15.9108 17.6827 16.5615 18.6556 16.845 19.7578L16.8997 20H19.0003C19.255 20.0003 19.5005 20.0975 19.6858 20.2725C19.8711 20.4474 19.9824 20.687 19.9973 20.9414C20.0123 21.1958 19.9294 21.4462 19.7659 21.6416C19.6024 21.837 19.3704 21.963 19.1174 21.9932L19.0003 22H5.00026C4.74548 21.9997 4.50002 21.9024 4.31471 21.7275C4.12937 21.5526 4.01812 21.313 4.00318 21.0586C3.98825 20.8042 4.07104 20.5539 4.23463 20.3584C4.39822 20.163 4.62999 20.0369 4.88307 20.0068L5.00026 20H7.09986C7.3448 18.8012 8.02119 17.7338 9.00026 17C8.37881 16.5347 7.87381 15.9307 7.52662 15.2363C7.17953 14.542 6.99963 13.7762 7.00026 13C7.00026 11.968 7.31291 11.0099 7.84791 10.2129L8.00026 10H7.00026C6.74548 9.99972 6.50002 9.90237 6.31471 9.72754C6.12937 9.55257 6.01812 9.31303 6.00318 9.05859C5.98825 8.80415 6.07104 8.55385 6.23463 8.3584C6.39822 8.16297 6.62999 8.03694 6.88307 8.00684L7.00026 8H8.43385L9.66822 5.94336C9.4553 5.8682 9.2736 5.72251 9.15358 5.53125C9.03371 5.34007 8.98218 5.11393 9.00709 4.88965C9.03201 4.66527 9.13226 4.45615 9.29127 4.2959C9.45033 4.13563 9.65884 4.03345 9.88307 4.00684L10.0003 4H10.8342L11.0003 3.72266V3C11.0003 2.73478 11.1057 2.48051 11.2932 2.29297C11.4807 2.10551 11.7351 2 12.0003 2ZM10.7659 8H13.2337L12.0344 6H11.9661L10.7659 8Z" fill="#141414"/>
</svg>
