<svg width="24" height="24" viewBox="0 0 24 24" fill="none" xmlns="http://www.w3.org/2000/svg">
<path fill-rule="evenodd" clip-rule="evenodd" d="M12 2C12.2431 2 12.4763 2.09578 12.6482 2.26626C12.8201 2.43675 12.9166 2.66798 12.9166 2.90909V4.8818C13.3584 5.03677 13.753 5.30111 14.0629 5.64973C14.3728 5.99836 14.5877 6.41971 14.6873 6.87384C14.787 7.32797 14.768 7.7998 14.6321 8.2446C14.4963 8.6894 14.2481 9.09241 13.9112 9.41541L14.6308 11.9136C15.2342 12.3325 15.7268 12.8897 16.0667 13.5378C16.4066 14.1859 16.5838 14.9058 16.5832 15.6363C16.5851 16.5645 16.2986 17.4707 15.7628 18.2317L17.3459 20.5863C17.4808 20.7869 17.5299 21.0324 17.4822 21.2689C17.4346 21.5053 17.2942 21.7133 17.092 21.8472C16.8897 21.981 16.6421 22.0296 16.4037 21.9824C16.1653 21.9352 15.9555 21.7959 15.8206 21.5953L14.4135 19.5017C13.9538 19.7847 13.4469 19.9842 12.9166 20.0908V21.0908C12.9166 21.3319 12.8201 21.5631 12.6482 21.7336C12.4763 21.9041 12.2431 21.9999 12 21.9999C11.7569 21.9999 11.5237 21.9041 11.3518 21.7336C11.1799 21.5631 11.0834 21.3319 11.0834 21.0908V20.0908C10.5534 19.9841 10.0468 19.7846 9.58738 19.5017L8.17941 21.5953C8.1126 21.6947 8.02672 21.78 7.92667 21.8464C7.82662 21.9128 7.71436 21.959 7.5963 21.9824C7.47824 22.0058 7.3567 22.0059 7.2386 21.9827C7.12051 21.9595 7.00818 21.9134 6.90802 21.8472C6.80787 21.7809 6.72186 21.6957 6.65489 21.5965C6.58793 21.4973 6.54133 21.3859 6.51775 21.2689C6.49418 21.1518 6.49408 21.0312 6.51748 20.9141C6.54087 20.797 6.5873 20.6856 6.65411 20.5863L8.23716 18.2317C7.70175 17.4705 7.41534 16.5644 7.41676 15.6363C7.41676 14.0972 8.18858 12.7363 9.36922 11.9136L10.0888 9.41541C9.75207 9.09239 9.5041 8.68944 9.3684 8.24476C9.2327 7.80007 9.21376 7.32838 9.31337 6.87439C9.41298 6.42041 9.62785 5.99918 9.9376 5.65063C10.2474 5.30208 10.6417 5.03775 11.0834 4.88271V2.90909C11.0834 2.66798 11.1799 2.43675 11.3518 2.26626C11.5237 2.09578 11.7569 2 12 2ZM11.7773 10.1727L11.5059 11.1172C11.8347 11.0826 12.1662 11.0826 12.495 11.1172L12.2227 10.1727C12.0745 10.1843 11.9255 10.1843 11.7773 10.1727ZM14.3805 14.269C13.726 14.4963 12.8406 14.7272 12 14.7272C11.1603 14.7272 10.274 14.4963 9.62038 14.269C9.30307 14.8152 9.18493 15.453 9.2858 16.0754C10.01 16.3081 10.9908 16.5454 12 16.5454C13.0101 16.5454 13.9891 16.309 14.7142 16.0754C14.8151 15.453 14.6978 14.8152 14.3805 14.269Z" fill="#141414"/>
</svg>
