<svg width="24" height="24" viewBox="0 0 24 24" fill="none" xmlns="http://www.w3.org/2000/svg">
<path d="M11 2C11.2387 2 11.4679 2.09611 11.6367 2.2666C11.8053 2.43706 11.9004 2.66821 11.9004 2.90918V3.81836H13.25C13.798 3.81836 14.2274 4.33067 14.1377 4.87598L13.8604 6.55957C14.3644 6.65139 14.6974 7.17214 14.5732 7.67578L13.9521 10.1816H14.1504C14.7261 10.1818 15.1626 10.7462 15.0234 11.3105L14.1768 14.7275H14.6006C15.1764 14.7278 15.6131 15.292 15.4736 15.8564L14.4023 20.1816H14.6006C14.8391 20.1818 15.0676 20.2779 15.2363 20.4482C15.4051 20.6187 15.5 20.8497 15.5 21.0908C15.5 21.3319 15.4051 21.5629 15.2363 21.7334C15.0676 21.9038 14.8391 21.9999 14.6006 22H7.40039C7.16169 22 6.93246 21.9039 6.76367 21.7334C6.59497 21.5629 6.5 21.3319 6.5 21.0908C6.50002 20.8498 6.59494 20.6187 6.76367 20.4482C6.93246 20.2778 7.16169 20.1816 7.40039 20.1816H7.59766L6.52734 15.8574C6.4959 15.7235 6.49438 15.5837 6.52344 15.4492C6.55252 15.3149 6.61157 15.1885 6.69531 15.0801C6.77907 14.9718 6.88595 14.8843 7.00781 14.8232C7.12987 14.7621 7.26416 14.7293 7.40039 14.7275H7.82324L6.97656 11.3105C6.94538 11.1768 6.94454 11.0375 6.97363 10.9033C7.00276 10.7691 7.06179 10.6435 7.14551 10.5352C7.22931 10.4268 7.33603 10.3384 7.45801 10.2773C7.57984 10.2163 7.71364 10.1835 7.84961 10.1816H8.04785L7.42676 7.67578C7.3982 7.55524 7.39444 7.4298 7.41504 7.30762C7.4357 7.1854 7.48034 7.06806 7.54688 6.96387C7.6135 6.85961 7.7009 6.7696 7.80273 6.7002C7.90448 6.63091 8.01914 6.58293 8.13965 6.55957L7.8623 4.87598C7.7726 4.3307 8.20115 3.81839 8.75 3.81836H10.0996V2.90918C10.0996 2.66825 10.1947 2.43705 10.3633 2.2666C10.532 2.09613 10.7613 2.00002 11 2Z" fill="#141414"/>
</svg>
