<svg width="24" height="24" viewBox="0 0 24 24" fill="none" xmlns="http://www.w3.org/2000/svg">
<path d="M10.1396 14.5452C10.521 14.5452 10.8369 14.8481 10.8369 15.2131V16.5481C10.8369 16.9131 10.521 17.216 10.1396 17.2161C9.75825 17.2161 9.44141 16.9131 9.44141 16.5481V15.2131C9.44141 14.8481 9.75825 14.5452 10.1396 14.5452Z" fill="#141414"/>
<path fill-rule="evenodd" clip-rule="evenodd" d="M10.8555 3.38011C11.5252 2.87264 12.4748 2.87264 13.1445 3.38011L19.6562 8.22386C20.1119 8.56219 20.3721 9.0792 20.3721 9.63109V19.6643H21.3027C21.6839 19.6645 22 19.9585 22 20.3323C22 20.6972 21.6839 21 21.3027 21.0002H2.69727C2.31606 21 2.00001 20.6972 2 20.3323C2 19.9585 2.31605 19.6645 2.69727 19.6643H3.58105L3.62793 9.62133C3.62806 9.07848 3.8882 8.56211 4.34375 8.22386L10.8555 3.38011ZM8.74414 10.5383C7.97207 10.5383 7.34863 11.1353 7.34863 11.8743V19.6643H16.6514V11.8743C16.6514 11.1353 16.0279 10.5383 15.2559 10.5383H8.74414ZM10.6045 6.75511C10.2232 6.7552 9.90723 7.0581 9.90723 7.42308C9.90748 7.78786 10.2233 8.08999 10.6045 8.09008H13.3955C13.7767 8.08999 14.0925 7.78786 14.0928 7.42308C14.0928 7.0581 13.7768 6.7552 13.3955 6.75511H10.6045Z" fill="#141414"/>
</svg>
