<svg width="24" height="24" viewBox="0 0 24 24" fill="none" xmlns="http://www.w3.org/2000/svg">
<path d="M16.4861 4.22651V2.72289C16.4861 2.32771 16.165 2 15.7778 2C15.3906 2 15.0694 2.32771 15.0694 2.72289V4.16867H8.93056V2.72289C8.93056 2.32771 8.60944 2 8.22222 2C7.835 2 7.51389 2.32771 7.51389 2.72289V4.22651C4.96389 4.46747 3.72667 6.01928 3.53778 8.32289C3.51889 8.60241 3.74556 8.83374 4.01 8.83374H19.99C20.2639 8.83374 20.4906 8.59277 20.4622 8.32289C20.2733 6.01928 19.0361 4.46747 16.4861 4.22651Z" fill="#141414"/>
<path d="M19.5556 10.2795H4.44444C3.925 10.2795 3.5 10.7133 3.5 11.2434V17.1807C3.5 20.0723 4.91667 22 8.22222 22H15.7778C19.0833 22 20.5 20.0723 20.5 17.1807V11.2434C20.5 10.7133 20.075 10.2795 19.5556 10.2795ZM15.4567 19.6193C15.315 19.7639 15.1356 19.8313 14.9561 19.8313C14.7767 19.8313 14.5972 19.7639 14.4556 19.6193L13.7567 18.906C13.2089 19.2723 12.5478 19.494 11.8394 19.494C9.91278 19.494 8.345 17.894 8.345 15.9277C8.345 13.9614 9.91278 12.3614 11.8394 12.3614C13.7661 12.3614 15.3339 13.9614 15.3339 15.9277C15.3339 16.6506 15.1167 17.3253 14.7578 17.8843L15.4567 18.5976C15.7306 18.8771 15.7306 19.3398 15.4567 19.6193Z" fill="#141414"/>
</svg>
