<svg width="24" height="24" viewBox="0 0 24 24" fill="none" xmlns="http://www.w3.org/2000/svg">
<path d="M15.375 4.12414V2.68966C15.375 2.31264 15.069 2 14.7 2C14.331 2 14.025 2.31264 14.025 2.68966V4.06897H8.175V2.68966C8.175 2.31264 7.869 2 7.5 2C7.131 2 6.825 2.31264 6.825 2.68966V4.12414C4.395 4.35402 3.216 5.83448 3.036 8.03218C3.018 8.29885 3.234 8.51954 3.486 8.51954H18.714C18.975 8.51954 19.191 8.28966 19.164 8.03218C18.984 5.83448 17.805 4.35402 15.375 4.12414Z" fill="#141414"/>
<path d="M18.3 9.89885H3.9C3.405 9.89885 3 10.3126 3 10.8184V16.4828C3 19.2414 4.35 21.0805 7.5 21.0805H11.937C12.558 21.0805 12.99 20.4644 12.792 19.8667C12.612 19.3333 12.459 18.7448 12.459 18.3218C12.459 15.5356 14.682 13.2644 17.409 13.2644C17.67 13.2644 17.931 13.2828 18.183 13.3287C18.723 13.4115 19.209 12.9793 19.209 12.4276V10.8276C19.2 10.3126 18.795 9.89885 18.3 9.89885ZM8.589 17.1356C8.499 17.2184 8.4 17.2828 8.292 17.3287C8.184 17.3747 8.067 17.4023 7.95 17.4023C7.833 17.4023 7.716 17.3747 7.608 17.3287C7.5 17.2828 7.401 17.2184 7.311 17.1356C7.149 16.9609 7.05 16.7218 7.05 16.4828C7.05 16.4276 7.059 16.3632 7.068 16.308C7.077 16.2437 7.095 16.1885 7.122 16.1333C7.14 16.0782 7.167 16.023 7.203 15.9678C7.23 15.9218 7.275 15.8759 7.311 15.8299C7.401 15.7471 7.5 15.6828 7.608 15.6368C7.824 15.5448 8.076 15.5448 8.292 15.6368C8.4 15.6828 8.499 15.7471 8.589 15.8299C8.625 15.8759 8.67 15.9218 8.697 15.9678C8.733 16.023 8.76 16.0782 8.778 16.1333C8.805 16.1885 8.823 16.2437 8.832 16.308C8.841 16.3632 8.85 16.4276 8.85 16.4828C8.85 16.7218 8.751 16.9609 8.589 17.1356ZM8.589 13.9172C8.499 14 8.4 14.0644 8.292 14.1103C8.184 14.1563 8.067 14.1839 7.95 14.1839C7.833 14.1839 7.716 14.1563 7.608 14.1103C7.491 14.0644 7.401 14 7.311 13.9172C7.149 13.7425 7.05 13.5034 7.05 13.2644C7.05 13.0253 7.149 12.7862 7.311 12.6115C7.401 12.5287 7.5 12.4644 7.608 12.4184C7.824 12.3264 8.076 12.3264 8.292 12.4184C8.4 12.4644 8.499 12.5287 8.589 12.6115C8.625 12.6575 8.67 12.7034 8.697 12.7494C8.733 12.8046 8.76 12.8598 8.778 12.9149C8.805 12.9701 8.823 13.0253 8.832 13.0805C8.841 13.1448 8.85 13.2092 8.85 13.2644C8.85 13.5034 8.751 13.7425 8.589 13.9172ZM11.739 13.9172C11.568 14.0828 11.343 14.1839 11.1 14.1839C10.983 14.1839 10.866 14.1563 10.758 14.1103C10.641 14.0644 10.551 14 10.461 13.9172C10.299 13.7425 10.2 13.5034 10.2 13.2644C10.2 13.2092 10.209 13.1448 10.218 13.0805C10.227 13.0253 10.245 12.9701 10.272 12.9149C10.29 12.8598 10.317 12.8046 10.353 12.7494C10.389 12.7034 10.425 12.6575 10.461 12.6115C10.794 12.2713 11.397 12.2713 11.739 12.6115C11.775 12.6575 11.811 12.7034 11.847 12.7494C11.883 12.8046 11.91 12.8598 11.928 12.9149C11.955 12.9701 11.973 13.0253 11.982 13.0805C11.991 13.1448 12 13.2092 12 13.2644C12 13.5034 11.901 13.7425 11.739 13.9172Z" fill="#141414"/>
<path d="M19.947 15.7195C18.543 14.2851 16.257 14.2851 14.853 15.7195C13.449 17.154 13.449 19.4897 14.853 20.9241C16.257 22.3586 18.543 22.3586 19.947 20.9241C21.351 19.4897 21.351 17.154 19.947 15.7195ZM19.263 18.8368C19.146 18.9655 18.975 19.0391 18.786 19.0391H18.12V19.7563C18.12 19.9494 18.048 20.1149 17.922 20.2437C17.796 20.3724 17.634 20.446 17.445 20.446C17.076 20.446 16.77 20.1333 16.77 19.7563V19.0391H16.095C15.726 19.0391 15.42 18.7356 15.42 18.3494C15.42 17.9724 15.726 17.6598 16.095 17.6598H16.77V17.0069C16.77 16.6299 17.067 16.3172 17.445 16.3172C17.814 16.3172 18.12 16.6299 18.12 17.0069V17.6598H18.786C19.164 17.6598 19.461 17.9724 19.461 18.3494C19.461 18.5425 19.389 18.7172 19.263 18.8368Z" fill="#141414"/>
</svg>
