<svg width="24" height="24" viewBox="0 0 24 24" fill="none" xmlns="http://www.w3.org/2000/svg">
<path d="M16.4861 4.22651V2.72289C16.4861 2.32771 16.165 2 15.7778 2C15.3906 2 15.0694 2.32771 15.0694 2.72289V4.16867H8.93056V2.72289C8.93056 2.32771 8.60944 2 8.22222 2C7.835 2 7.51389 2.32771 7.51389 2.72289V4.22651C4.96389 4.46747 3.72667 6.01928 3.53778 8.32289C3.51889 8.60241 3.74556 8.83374 4.01 8.83374H19.99C20.2639 8.83374 20.4906 8.59277 20.4622 8.32289C20.2733 6.01928 19.0361 4.46747 16.4861 4.22651Z" fill="#141414"/>
<path d="M19.5556 10.2795H4.44444C3.925 10.2795 3.5 10.7133 3.5 11.2434V17.1807C3.5 20.0723 4.91667 22 8.22222 22H15.7778C19.0833 22 20.5 20.0723 20.5 17.1807V11.2434C20.5 10.7133 20.075 10.2795 19.5556 10.2795ZM9.365 18.347C9.31778 18.3855 9.27056 18.4337 9.22333 18.4627C9.16667 18.5012 9.11 18.5301 9.05333 18.5494C8.99667 18.5783 8.94 18.5976 8.88333 18.6072C8.81722 18.6169 8.76056 18.6265 8.69444 18.6265C8.57167 18.6265 8.44889 18.5976 8.33556 18.5494C8.21278 18.5012 8.11833 18.4337 8.02389 18.347C7.85389 18.1639 7.75 17.9133 7.75 17.6627C7.75 17.412 7.85389 17.1614 8.02389 16.9783C8.11833 16.8916 8.21278 16.8241 8.33556 16.7759C8.50556 16.6988 8.69444 16.6795 8.88333 16.7181C8.94 16.7277 8.99667 16.747 9.05333 16.7759C9.11 16.7952 9.16667 16.8241 9.22333 16.8627C9.27056 16.9012 9.31778 16.9398 9.365 16.9783C9.535 17.1614 9.63889 17.412 9.63889 17.6627C9.63889 17.9133 9.535 18.1639 9.365 18.347ZM9.365 14.9735C9.18556 15.147 8.94 15.253 8.69444 15.253C8.44889 15.253 8.20333 15.147 8.02389 14.9735C7.85389 14.7904 7.75 14.5398 7.75 14.2892C7.75 14.0386 7.85389 13.788 8.02389 13.6048C8.28833 13.3349 8.70389 13.2482 9.05333 13.4024C9.17611 13.4506 9.28 13.5181 9.365 13.6048C9.535 13.788 9.63889 14.0386 9.63889 14.2892C9.63889 14.5398 9.535 14.7904 9.365 14.9735ZM12.6706 18.347C12.4911 18.5205 12.2456 18.6265 12 18.6265C11.7544 18.6265 11.5089 18.5205 11.3294 18.347C11.1594 18.1639 11.0556 17.9133 11.0556 17.6627C11.0556 17.412 11.1594 17.1614 11.3294 16.9783C11.6789 16.6217 12.3211 16.6217 12.6706 16.9783C12.8406 17.1614 12.9444 17.412 12.9444 17.6627C12.9444 17.9133 12.8406 18.1639 12.6706 18.347ZM12.6706 14.9735C12.6233 15.012 12.5761 15.0506 12.5289 15.0892C12.4722 15.1277 12.4156 15.1566 12.3589 15.1759C12.3022 15.2048 12.2456 15.2241 12.1889 15.2337C12.1228 15.2434 12.0661 15.253 12 15.253C11.7544 15.253 11.5089 15.147 11.3294 14.9735C11.1594 14.7904 11.0556 14.5398 11.0556 14.2892C11.0556 14.0386 11.1594 13.788 11.3294 13.6048C11.4144 13.5181 11.5183 13.4506 11.6411 13.4024C11.9906 13.2482 12.4061 13.3349 12.6706 13.6048C12.8406 13.788 12.9444 14.0386 12.9444 14.2892C12.9444 14.5398 12.8406 14.7904 12.6706 14.9735ZM15.9761 18.347C15.7967 18.5205 15.5511 18.6265 15.3056 18.6265C15.06 18.6265 14.8144 18.5205 14.635 18.347C14.465 18.1639 14.3611 17.9133 14.3611 17.6627C14.3611 17.412 14.465 17.1614 14.635 16.9783C14.9844 16.6217 15.6267 16.6217 15.9761 16.9783C16.1461 17.1614 16.25 17.412 16.25 17.6627C16.25 17.9133 16.1461 18.1639 15.9761 18.347ZM15.9761 14.9735C15.9289 15.012 15.8817 15.0506 15.8344 15.0892C15.7778 15.1277 15.7211 15.1566 15.6644 15.1759C15.6078 15.2048 15.5511 15.2241 15.4944 15.2337C15.4283 15.2434 15.3622 15.253 15.3056 15.253C15.06 15.253 14.8144 15.147 14.635 14.9735C14.465 14.7904 14.3611 14.5398 14.3611 14.2892C14.3611 14.0386 14.465 13.788 14.635 13.6048C14.7294 13.5181 14.8239 13.4506 14.9467 13.4024C15.1167 13.3253 15.3056 13.306 15.4944 13.3446C15.5511 13.3542 15.6078 13.3735 15.6644 13.4024C15.7211 13.4217 15.7778 13.4506 15.8344 13.4892C15.8817 13.5277 15.9289 13.5663 15.9761 13.6048C16.1461 13.788 16.25 14.0386 16.25 14.2892C16.25 14.5398 16.1461 14.7904 15.9761 14.9735Z" fill="#141414"/>
</svg>
