<svg width="24" height="24" viewBox="0 0 24 24" fill="none" xmlns="http://www.w3.org/2000/svg">
<path d="M16.4861 4.22651V2.72289C16.4861 2.32771 16.165 2 15.7778 2C15.3906 2 15.0694 2.32771 15.0694 2.72289V4.16867H8.93056V2.72289C8.93056 2.32771 8.60944 2 8.22222 2C7.835 2 7.51389 2.32771 7.51389 2.72289V4.22651C4.96389 4.46747 3.72667 6.01928 3.53778 8.32289C3.51889 8.60241 3.74556 8.83374 4.01 8.83374H19.99C20.2639 8.83374 20.4906 8.59277 20.4622 8.32289C20.2733 6.01928 19.0361 4.46747 16.4861 4.22651Z" fill="#141414"/>
<path d="M19.5556 10.2795H4.44444C3.925 10.2795 3.5 10.7133 3.5 11.2434V17.1807C3.5 20.0723 4.91667 22 8.22222 22H15.7778C19.0833 22 20.5 20.0723 20.5 17.1807V11.2434C20.5 10.7133 20.075 10.2795 19.5556 10.2795ZM9.365 18.347C9.27056 18.4337 9.16667 18.5012 9.05333 18.5494C8.94 18.5976 8.81722 18.6265 8.69444 18.6265C8.57167 18.6265 8.44889 18.5976 8.33556 18.5494C8.22222 18.5012 8.11833 18.4337 8.02389 18.347C7.85389 18.1639 7.75 17.9133 7.75 17.6627C7.75 17.412 7.85389 17.1614 8.02389 16.9783C8.11833 16.8916 8.22222 16.8241 8.33556 16.7759C8.56222 16.6795 8.82667 16.6795 9.05333 16.7759C9.16667 16.8241 9.27056 16.8916 9.365 16.9783C9.535 17.1614 9.63889 17.412 9.63889 17.6627C9.63889 17.9133 9.535 18.1639 9.365 18.347ZM9.56333 14.6554C9.51611 14.7711 9.45 14.8771 9.365 14.9735C9.27056 15.0602 9.16667 15.1277 9.05333 15.1759C8.94 15.2241 8.81722 15.253 8.69444 15.253C8.57167 15.253 8.44889 15.2241 8.33556 15.1759C8.22222 15.1277 8.11833 15.0602 8.02389 14.9735C7.93889 14.8771 7.87278 14.7711 7.82556 14.6554C7.77833 14.5398 7.75 14.4145 7.75 14.2892C7.75 14.1639 7.77833 14.0386 7.82556 13.9229C7.87278 13.8072 7.93889 13.7012 8.02389 13.6048C8.11833 13.5181 8.22222 13.4506 8.33556 13.4024C8.56222 13.306 8.82667 13.306 9.05333 13.4024C9.16667 13.4506 9.27056 13.5181 9.365 13.6048C9.45 13.7012 9.51611 13.8072 9.56333 13.9229C9.61056 14.0386 9.63889 14.1639 9.63889 14.2892C9.63889 14.4145 9.61056 14.5398 9.56333 14.6554ZM12.6706 14.9735C12.5761 15.0602 12.4722 15.1277 12.3589 15.1759C12.2456 15.2241 12.1228 15.253 12 15.253C11.8772 15.253 11.7544 15.2241 11.6411 15.1759C11.5278 15.1277 11.4239 15.0602 11.3294 14.9735C11.1594 14.7904 11.0556 14.5398 11.0556 14.2892C11.0556 14.0386 11.1594 13.788 11.3294 13.6048C11.4239 13.5181 11.5278 13.4506 11.6411 13.4024C11.8678 13.2964 12.1322 13.2964 12.3589 13.4024C12.4722 13.4506 12.5761 13.5181 12.6706 13.6048C12.8406 13.788 12.9444 14.0386 12.9444 14.2892C12.9444 14.5398 12.8406 14.7904 12.6706 14.9735Z" fill="#141414"/>
</svg>
