<svg width="24" height="24" viewBox="0 0 24 24" fill="none" xmlns="http://www.w3.org/2000/svg">
<path d="M16.4861 4.22651V2.72289C16.4861 2.32771 16.165 2 15.7778 2C15.3906 2 15.0694 2.32771 15.0694 2.72289V4.16867H8.93056V2.72289C8.93056 2.32771 8.60944 2 8.22222 2C7.835 2 7.51389 2.32771 7.51389 2.72289V4.22651C4.96389 4.46747 3.72667 6.01928 3.53778 8.32289C3.51889 8.60241 3.74556 8.83374 4.01 8.83374H19.99C20.2639 8.83374 20.4906 8.59277 20.4622 8.32289C20.2733 6.01928 19.0361 4.46747 16.4861 4.22651Z" fill="#141414"/>
<path d="M19.5556 10.2795H4.44444C3.925 10.2795 3.5 10.7133 3.5 11.2434V17.1807C3.5 20.0723 4.91667 22 8.22222 22H15.7778C19.0833 22 20.5 20.0723 20.5 17.1807V11.2434C20.5 10.7133 20.075 10.2795 19.5556 10.2795ZM14.6822 15.2434L14.21 15.7349H14.2006L11.3389 18.6554C11.2161 18.7807 10.9611 18.9157 10.7817 18.9349L9.50667 19.1277C9.04389 19.1952 8.72278 18.8578 8.78889 18.3952L8.96833 17.0843C8.99667 16.9012 9.11944 16.6506 9.24222 16.5157L12.1133 13.5952L12.5856 13.1036C12.8972 12.7855 13.2467 12.5542 13.6244 12.5542C13.9456 12.5542 14.295 12.7084 14.6822 13.1036C15.5322 13.9711 15.2583 14.6554 14.6822 15.2434Z" fill="#141414"/>
</svg>
