<svg width="24" height="24" viewBox="0 0 24 24" fill="none" xmlns="http://www.w3.org/2000/svg">
<path fill-rule="evenodd" clip-rule="evenodd" d="M12 11.2646C12.7768 11.2646 13.4276 11.6847 13.4277 12.499C13.4277 12.8935 13.2507 13.1818 12.9668 13.376C13.3583 13.5953 13.5791 13.9656 13.5791 14.3916C13.579 15.1683 12.9725 15.6504 12 15.6504C11.0212 15.6504 10.421 15.1683 10.4209 14.3916C10.4209 13.9656 10.6421 13.5953 11.0273 13.376C10.7496 13.1818 10.5664 12.8936 10.5664 12.499C10.5665 11.6847 11.2232 11.2646 12 11.2646ZM12 13.7021C11.6024 13.7021 11.2803 13.9634 11.2803 14.2852C11.2805 14.6068 11.6025 14.8672 12 14.8672C12.3975 14.8672 12.7195 14.6068 12.7197 14.2852C12.7197 13.9634 12.3976 13.7021 12 13.7021ZM12 12.0479C11.6716 12.0479 11.4317 12.2298 11.4316 12.543C11.4316 12.85 11.6716 13.0439 12 13.0439C12.3284 13.0439 12.5684 12.85 12.5684 12.543C12.5683 12.2298 12.3284 12.0479 12 12.0479Z" fill="#141414"/>
<path fill-rule="evenodd" clip-rule="evenodd" d="M12 2C17.52 2 22 6.48 22 12C22 17.52 17.52 22 12 22C6.48 22 2 17.52 2 12C2 6.48 6.48 2 12 2ZM11.71 6.40918C11.3626 6.40918 11.0781 6.69156 11.0781 7.03613V7.6875C11.0781 8.18227 10.8191 8.62085 10.4277 8.86523C10.3709 8.90282 10.3073 8.93449 10.2441 8.96582C10.1873 8.99713 10.1241 9.02223 10.0547 9.04102C9.97897 9.06605 9.89692 9.08454 9.80859 9.09082C9.70754 9.10335 9.60594 9.10335 9.50488 9.09082C9.41661 9.08453 9.33447 9.06604 9.25879 9.04102C9.19567 9.02222 9.13245 8.99712 9.06934 8.96582C9.00626 8.93454 8.9435 8.90276 8.88672 8.86523C8.48887 8.5896 8.23541 8.11385 8.23535 7.60645V7.54395C8.23535 7.06166 7.71809 6.77304 7.30762 6.97949C7.3013 6.98576 7.2944 6.98592 7.28809 6.99219C7.26294 7.00468 7.24394 7.01739 7.21875 7.03613C7.19995 7.05475 7.17512 7.06739 7.15625 7.08594C6.97943 7.22375 6.8211 7.38068 6.68848 7.5498C6.619 7.62499 6.56224 7.70664 6.51172 7.78809C6.5054 7.79435 6.4985 7.80095 6.49219 7.81348C6.43549 7.8948 6.38494 7.98865 6.34082 8.07617C6.32829 8.0886 6.32228 8.09497 6.32227 8.10742C6.28441 8.18252 6.24597 8.25753 6.2207 8.33887C6.20183 8.37008 6.19613 8.3956 6.18359 8.42676C6.1457 8.52073 6.11999 8.61501 6.09473 8.70898C6.06949 8.79661 6.05071 8.8905 6.03809 8.98438C6.02547 9.05319 6.019 9.12221 6.0127 9.19727C6.00638 9.28498 6 9.37323 6 9.46094V14.9492C6.00017 16.6344 7.37733 18 9.07617 18H14.9238C16.6227 18 17.9998 16.6344 18 14.9492V9.46094C18 8.46485 17.5201 7.59373 16.7812 7.03613C16.3644 6.72915 15.7646 7.02395 15.7646 7.54395V7.60645C15.7646 8.33925 15.2338 9.01544 14.4951 9.09082C13.6425 9.17853 12.9219 8.51449 12.9219 7.6875V7.03613C12.9219 6.69156 12.6374 6.40918 12.29 6.40918H11.71ZM9.63184 5C9.37294 5 9.15829 5.21293 9.1582 5.46973V7.34961C9.15832 7.60638 9.37296 7.81934 9.63184 7.81934C9.8906 7.8192 10.1054 7.6063 10.1055 7.34961V5.46973C10.1054 5.21301 9.89062 5.00014 9.63184 5ZM14.3682 5C14.1094 5.00014 13.8946 5.21301 13.8945 5.46973V7.34961C13.8946 7.6063 14.1094 7.8192 14.3682 7.81934C14.627 7.81934 14.8417 7.60638 14.8418 7.34961V5.46973C14.8417 5.21293 14.6271 5 14.3682 5Z" fill="#141414"/>
</svg>
