<svg width="24" height="24" viewBox="0 0 24 24" fill="none" xmlns="http://www.w3.org/2000/svg">
<path d="M8.44737 6.33735C8.05895 6.33735 7.73684 6.00964 7.73684 5.61446V2.72289C7.73684 2.32771 8.05895 2 8.44737 2C8.83579 2 9.1579 2.32771 9.1579 2.72289V5.61446C9.1579 6.00964 8.83579 6.33735 8.44737 6.33735Z" fill="#141414"/>
<path d="M15.5526 6.33735C15.1642 6.33735 14.8421 6.00964 14.8421 5.61446V2.72289C14.8421 2.32771 15.1642 2 15.5526 2C15.9411 2 16.2632 2.32771 16.2632 2.72289V5.61446C16.2632 6.00964 15.9411 6.33735 15.5526 6.33735Z" fill="#141414"/>
<path d="M12 14.3759C12.4926 14.3759 12.8526 14.0771 12.8526 13.6048C12.8526 13.1229 12.4926 12.8434 12 12.8434C11.5074 12.8434 11.1474 13.1229 11.1474 13.6048C11.1474 14.0771 11.5074 14.3759 12 14.3759Z" fill="#141414"/>
<path d="M12 17.1807C12.5965 17.1807 13.08 16.7794 13.08 16.2843C13.08 15.7893 12.5965 15.388 12 15.388C11.4035 15.388 10.92 15.7893 10.92 16.2843C10.92 16.7794 11.4035 17.1807 12 17.1807Z" fill="#141414"/>
<path d="M19.1716 5.13253C18.5463 4.66024 17.6463 5.11325 17.6463 5.91325V6.00964C17.6463 7.13735 16.8505 8.17831 15.7421 8.29398C14.4632 8.42892 13.3832 7.40723 13.3832 6.13494V5.13253C13.3832 4.60241 12.9568 4.16867 12.4358 4.16867H11.5642C11.0432 4.16867 10.6168 4.60241 10.6168 5.13253V6.13494C10.6168 6.89639 10.2284 7.57108 9.64105 7.94699C9.55579 8.00482 9.46105 8.05301 9.36632 8.1012C9.28105 8.1494 9.18632 8.18795 9.08211 8.21687C8.96842 8.25542 8.84526 8.28434 8.71263 8.29398C8.56105 8.31325 8.40947 8.31325 8.25789 8.29398C8.12526 8.28434 8.00211 8.25542 7.88842 8.21687C7.79368 8.18795 7.69895 8.1494 7.60421 8.1012C7.50947 8.05301 7.41474 8.00482 7.32947 7.94699C6.73263 7.52289 6.35368 6.79036 6.35368 6.00964V5.91325C6.35368 5.17108 5.57684 4.72771 4.96105 5.04578C4.95158 5.05542 4.94211 5.05542 4.93263 5.06506C4.89474 5.08434 4.86632 5.10361 4.82842 5.13253C4.8 5.16145 4.76211 5.18072 4.73368 5.20964C4.46842 5.42169 4.23158 5.66265 4.03263 5.92289C3.92842 6.03855 3.84316 6.16386 3.76737 6.28916C3.75789 6.2988 3.74842 6.30843 3.73895 6.32771C3.65368 6.45301 3.57789 6.59759 3.51158 6.73253C3.49263 6.75181 3.48316 6.76145 3.48316 6.78072C3.42632 6.89639 3.36947 7.01205 3.33158 7.13735C3.30316 7.18554 3.29368 7.2241 3.27474 7.27229C3.21789 7.41687 3.18 7.56145 3.14211 7.70602C3.10421 7.84096 3.07579 7.98554 3.05684 8.13012C3.03789 8.23615 3.02842 8.34217 3.01895 8.45783C3.00947 8.59277 3 8.72771 3 8.86265V17.306C3 19.8988 5.06526 22 7.61368 22H16.3863C18.9347 22 21 19.8988 21 17.306V8.86265C21 7.33012 20.28 5.99036 19.1716 5.13253ZM12 18.3855C10.5316 18.3855 9.63158 17.6434 9.63158 16.4482C9.63158 15.7928 9.96316 15.2241 10.5411 14.8867C10.1242 14.588 9.84947 14.1446 9.84947 13.5373C9.84947 12.2843 10.8347 11.6386 12 11.6386C13.1653 11.6386 14.1411 12.2843 14.1411 13.5373C14.1411 14.1446 13.8758 14.588 13.4495 14.8867C14.0368 15.2241 14.3684 15.7928 14.3684 16.4482C14.3684 17.6434 13.4589 18.3855 12 18.3855Z" fill="#141414"/>
</svg>
