<svg width="24" height="24" viewBox="0 0 24 24" fill="none" xmlns="http://www.w3.org/2000/svg">
<path d="M15.375 4.12414V2.68966C15.375 2.31264 15.069 2 14.7 2C14.331 2 14.025 2.31264 14.025 2.68966V4.06897H8.175V2.68966C8.175 2.31264 7.869 2 7.5 2C7.131 2 6.825 2.31264 6.825 2.68966V4.12414C4.395 4.35402 3.216 5.83448 3.036 8.03218C3.018 8.29885 3.234 8.51954 3.486 8.51954H18.714C18.975 8.51954 19.191 8.28966 19.164 8.03218C18.984 5.83448 17.805 4.35402 15.375 4.12414Z" fill="#141414"/>
<path d="M17.4 14.6437C15.411 14.6437 13.8 16.2897 13.8 18.3218C13.8 19.0115 13.989 19.6644 14.322 20.2161C14.943 21.2828 16.086 22 17.4 22C18.714 22 19.857 21.2828 20.478 20.2161C20.811 19.6644 21 19.0115 21 18.3218C21 16.2897 19.389 14.6437 17.4 14.6437ZM19.263 17.9264L17.346 19.7379C17.22 19.8575 17.049 19.9218 16.887 19.9218C16.716 19.9218 16.545 19.8575 16.41 19.7195L15.519 18.8092C15.258 18.5425 15.258 18.1011 15.519 17.8345C15.78 17.5678 16.212 17.5678 16.473 17.8345L16.905 18.2759L18.345 16.9149C18.615 16.6575 19.047 16.6759 19.299 16.9517C19.551 17.2276 19.533 17.6598 19.263 17.9264Z" fill="#141414"/>
<path d="M18.3 9.89885H3.9C3.405 9.89885 3 10.3126 3 10.8184V16.4828C3 19.2414 4.35 21.0805 7.5 21.0805H11.937C12.558 21.0805 12.99 20.4644 12.792 19.8667C12.612 19.3333 12.459 18.7448 12.459 18.3218C12.459 15.5356 14.682 13.2644 17.409 13.2644C17.67 13.2644 17.931 13.2828 18.183 13.3287C18.723 13.4115 19.209 12.9793 19.209 12.4276V10.8276C19.2 10.3126 18.795 9.89885 18.3 9.89885ZM8.589 17.5954C8.418 17.7609 8.184 17.8621 7.95 17.8621C7.716 17.8621 7.482 17.7609 7.311 17.5954C7.149 17.4207 7.05 17.1816 7.05 16.9425C7.05 16.7034 7.149 16.4644 7.311 16.2897C7.401 16.2069 7.491 16.1425 7.608 16.0966C7.941 15.9494 8.337 16.0322 8.589 16.2897C8.751 16.4644 8.85 16.7034 8.85 16.9425C8.85 17.1816 8.751 17.4207 8.589 17.5954ZM8.589 14.377C8.544 14.4138 8.499 14.4506 8.454 14.4874C8.4 14.5241 8.346 14.5517 8.292 14.5701C8.238 14.5977 8.184 14.6161 8.13 14.6253C8.067 14.6345 8.004 14.6437 7.95 14.6437C7.716 14.6437 7.482 14.5425 7.311 14.377C7.149 14.2023 7.05 13.9632 7.05 13.7241C7.05 13.4851 7.149 13.246 7.311 13.0713C7.518 12.8598 7.833 12.7586 8.13 12.823C8.184 12.8322 8.238 12.8506 8.292 12.8782C8.346 12.8966 8.4 12.9241 8.454 12.9609C8.499 12.9977 8.544 13.0345 8.589 13.0713C8.751 13.246 8.85 13.4851 8.85 13.7241C8.85 13.9632 8.751 14.2023 8.589 14.377ZM11.739 14.377C11.568 14.5425 11.334 14.6437 11.1 14.6437C10.866 14.6437 10.632 14.5425 10.461 14.377C10.299 14.2023 10.2 13.9632 10.2 13.7241C10.2 13.4851 10.299 13.246 10.461 13.0713C10.803 12.731 11.406 12.731 11.739 13.0713C11.901 13.246 12 13.4851 12 13.7241C12 13.9632 11.901 14.2023 11.739 14.377Z" fill="#141414"/>
</svg>
