<svg width="24" height="24" viewBox="0 0 24 24" fill="none" xmlns="http://www.w3.org/2000/svg">
<path d="M15.375 4.12414V2.68966C15.375 2.31264 15.069 2 14.7 2C14.331 2 14.025 2.31264 14.025 2.68966V4.06897H8.175V2.68966C8.175 2.31264 7.869 2 7.5 2C7.131 2 6.825 2.31264 6.825 2.68966V4.12414C4.395 4.35402 3.216 5.83448 3.036 8.03218C3.018 8.29885 3.234 8.51954 3.486 8.51954H18.714C18.975 8.51954 19.191 8.28966 19.164 8.03218C18.984 5.83448 17.805 4.35402 15.375 4.12414Z" fill="#141414"/>
<path d="M18.3 9.89885H3.9C3.405 9.89885 3 10.3126 3 10.8184V16.4828C3 19.2414 4.35 21.0805 7.5 21.0805H11.937C12.558 21.0805 12.99 20.4644 12.792 19.8667C12.612 19.3333 12.459 18.7448 12.459 18.3218C12.459 15.5356 14.682 13.2644 17.409 13.2644C17.67 13.2644 17.931 13.2828 18.183 13.3287C18.723 13.4115 19.209 12.9793 19.209 12.4276V10.8276C19.2 10.3126 18.795 9.89885 18.3 9.89885ZM8.589 17.1356C8.418 17.3011 8.184 17.4023 7.95 17.4023C7.833 17.4023 7.716 17.3747 7.608 17.3287C7.5 17.2828 7.401 17.2184 7.311 17.1356C7.149 16.9609 7.05 16.731 7.05 16.4828C7.05 16.3632 7.077 16.2437 7.122 16.1333C7.167 16.0138 7.23 15.9218 7.311 15.8299C7.401 15.7471 7.5 15.6828 7.608 15.6368C7.932 15.4897 8.337 15.5724 8.589 15.8299C8.67 15.9218 8.733 16.0138 8.778 16.1333C8.823 16.2437 8.85 16.3632 8.85 16.4828C8.85 16.731 8.751 16.9609 8.589 17.1356ZM8.589 13.9172C8.418 14.0828 8.184 14.1839 7.95 14.1839C7.833 14.1839 7.716 14.1655 7.608 14.1103C7.5 14.0644 7.401 14 7.311 13.9172C7.149 13.7425 7.05 13.5034 7.05 13.2644C7.05 13.1448 7.077 13.0253 7.122 12.9149C7.167 12.8046 7.23 12.7034 7.311 12.6115C7.401 12.5287 7.5 12.4644 7.608 12.4184C7.932 12.2805 8.337 12.354 8.589 12.6115C8.67 12.7034 8.733 12.8046 8.778 12.9149C8.823 13.0253 8.85 13.1448 8.85 13.2644C8.85 13.5034 8.751 13.7425 8.589 13.9172ZM11.928 13.6138C11.883 13.7241 11.82 13.8253 11.739 13.9172C11.649 14 11.55 14.0644 11.442 14.1103C11.334 14.1655 11.217 14.1839 11.1 14.1839C10.866 14.1839 10.632 14.0828 10.461 13.9172C10.38 13.8253 10.317 13.7241 10.272 13.6138C10.227 13.5034 10.2 13.3839 10.2 13.2644C10.2 13.0253 10.299 12.7862 10.461 12.6115C10.713 12.354 11.109 12.2713 11.442 12.4184C11.55 12.4644 11.649 12.5287 11.739 12.6115C11.901 12.7862 12 13.0253 12 13.2644C12 13.3839 11.982 13.5034 11.928 13.6138Z" fill="#141414"/>
<path d="M17.4 14.6437C15.411 14.6437 13.8 16.2897 13.8 18.3218C13.8 20.354 15.411 22 17.4 22C19.389 22 21 20.354 21 18.3218C21 16.2897 19.389 14.6437 17.4 14.6437ZM18.84 19.8299C18.705 19.9678 18.534 20.0322 18.363 20.0322C18.192 20.0322 18.021 19.9678 17.886 19.8299L17.409 19.3425L16.914 19.8483C16.779 19.9862 16.608 20.0506 16.437 20.0506C16.266 20.0506 16.095 19.9862 15.96 19.8483C15.699 19.5816 15.699 19.1402 15.96 18.8736L16.455 18.3678L15.978 17.8805C15.717 17.6138 15.717 17.1724 15.978 16.9057C16.239 16.6391 16.671 16.6391 16.932 16.9057L17.409 17.4023L17.859 16.9425C18.12 16.6759 18.552 16.6759 18.813 16.9425C19.074 17.2092 19.074 17.6506 18.813 17.9172L18.363 18.377L18.84 18.8644C19.101 19.131 19.101 19.5632 18.84 19.8299Z" fill="#141414"/>
</svg>
