<svg width="24" height="24" viewBox="0 0 24 24" fill="none" xmlns="http://www.w3.org/2000/svg">
<path d="M12.005 8.26461C10.2033 8.26461 8.73384 9.71698 8.73384 11.4976C8.73384 13.2783 10.2033 14.7307 12.005 14.7307C13.8066 14.7307 15.2761 13.2783 15.2761 11.4976C15.2761 9.71698 13.8066 8.26461 12.005 8.26461ZM13.0115 11.1793C13.0115 11.7861 12.6793 12.3631 12.156 12.6715L11.381 13.1291C11.2602 13.1987 11.1293 13.2385 10.9884 13.2385C10.7368 13.2385 10.4852 13.1092 10.3443 12.8804C10.1329 12.5223 10.2436 12.0647 10.6059 11.8558L11.3709 11.3982C11.4514 11.3484 11.4917 11.2688 11.4917 11.1893V10.2641C11.4917 9.85625 11.8339 9.51803 12.2465 9.51803C12.6592 9.51803 13.0115 9.84631 13.0115 10.2542V11.1793Z" fill="#141414"/>
<path d="M18.5875 4.20592L13.0518 2.15668C12.478 1.94777 11.542 1.94777 10.9683 2.15668L5.43249 4.20592C4.3656 4.60383 3.5 5.83735 3.5 6.96145V15.0191C3.5 15.8249 4.03345 16.8893 4.68768 17.3668L10.2235 21.4554C11.1998 22.1815 12.8001 22.1815 13.7764 21.4554L19.3122 17.3668C19.9665 16.8794 20.4999 15.8249 20.4999 15.0191V6.96145C20.51 5.83735 19.6444 4.60383 18.5875 4.20592ZM12.005 16.2228C9.36794 16.2228 7.22408 14.104 7.22408 11.4976C7.22408 8.89132 9.36794 6.77244 12.005 6.77244C14.642 6.77244 16.7859 8.89132 16.7859 11.4976C16.7859 14.104 14.642 16.2228 12.005 16.2228Z" fill="#141414"/>
</svg>
