<svg width="24" height="24" viewBox="0 0 24 24" fill="none" xmlns="http://www.w3.org/2000/svg">
<path d="M12 4.65C7.03806 4.65 3 8.54 3 13.32C3 18.1 7.03806 22 12 22C16.9619 22 21 18.11 21 13.33C21 8.55 16.9619 4.65 12 4.65ZM12.7785 13C12.7785 13.41 12.4256 13.75 12 13.75C11.5744 13.75 11.2215 13.41 11.2215 13V8C11.2215 7.59 11.5744 7.25 12 7.25C12.4256 7.25 12.7785 7.59 12.7785 8V13Z" fill="#141414"/>
<path d="M15 3.45H9C8.58477 3.45 8.2526 3.13 8.2526 2.73C8.2526 2.33 8.58477 2 9 2H15C15.4152 2 15.7474 2.32 15.7474 2.72C15.7474 3.12 15.4152 3.45 15 3.45Z" fill="#141414"/>
</svg>
