<svg width="24" height="24" viewBox="0 0 24 24" fill="none" xmlns="http://www.w3.org/2000/svg">
<path d="M17.3132 15.67L13.3331 12H10.6633L6.68324 15.67C5.57 16.69 5.20549 18.26 5.74733 19.68C6.28917 21.09 7.60929 22 9.0969 22H14.8995C16.397 22 17.7073 21.09 18.2491 19.68C18.7909 18.26 18.4264 16.69 17.3132 15.67ZM13.7961 18.14H10.2101C9.83577 18.14 9.54022 17.83 9.54022 17.46C9.54022 17.09 9.84562 16.78 10.2101 16.78H13.7961C14.1705 16.78 14.4661 17.09 14.4661 17.46C14.4661 17.83 14.1607 18.14 13.7961 18.14Z" fill="#141414"/>
<path d="M18.2589 4.32C17.7171 2.91 16.397 2 14.9094 2H9.0969C7.60929 2 6.28917 2.91 5.74733 4.32C5.21534 5.74 5.57985 7.31 6.69309 8.33L10.6732 12H13.343L17.323 8.33C18.4264 7.31 18.7909 5.74 18.2589 4.32ZM13.7961 7.23H10.2101C9.83577 7.23 9.54022 6.92 9.54022 6.55C9.54022 6.18 9.84562 5.87 10.2101 5.87H13.7961C14.1705 5.87 14.4661 6.18 14.4661 6.55C14.4661 6.92 14.1607 7.23 13.7961 7.23Z" fill="#141414"/>
</svg>
