<svg width="24" height="24" viewBox="0 0 24 24" fill="none" xmlns="http://www.w3.org/2000/svg">
<path d="M14.8901 3.45H9.11008C8.71008 3.45 8.39008 3.13 8.39008 2.73C8.39008 2.33 8.71008 2 9.11008 2H14.8901C15.2901 2 15.6101 2.32 15.6101 2.72C15.6101 3.12 15.2901 3.45 14.8901 3.45Z" fill="#141414"/>
<path d="M19.9701 15H17.0301C15.7601 15 15.0001 15.76 15.0001 17.03V19.97C15.0001 21.24 15.7601 22 17.0301 22H19.9701C21.2401 22 22.0001 21.24 22.0001 19.97V17.03C22.0001 15.76 21.2401 15 19.9701 15ZM19.6901 19.46L18.5101 20.14C18.2701 20.28 18.0301 20.35 17.8101 20.35C17.6401 20.35 17.4901 20.31 17.3501 20.23C17.0301 20.04 16.8501 19.67 16.8501 19.18V17.82C16.8501 17.33 17.0301 16.96 17.3501 16.77C17.6701 16.58 18.0801 16.62 18.5101 16.86L19.6901 17.54C20.1101 17.79 20.3501 18.13 20.3501 18.5C20.3501 18.87 20.1201 19.21 19.6901 19.46Z" fill="#141414"/>
<path d="M14.0001 19.97V17.03C14.0001 15.22 15.2201 14 17.0301 14H19.9701C20.2001 14 20.4201 14.02 20.6301 14.06C20.6501 13.82 20.6701 13.58 20.6701 13.33C20.6701 8.54 16.7801 4.65 12.0001 4.65C7.22008 4.65 3.33008 8.54 3.33008 13.33C3.33008 18.11 7.22008 22 12.0001 22C12.8501 22 13.6601 21.86 14.4401 21.64C14.1601 21.17 14.0001 20.61 14.0001 19.97ZM12.7501 13C12.7501 13.41 12.4101 13.75 12.0001 13.75C11.5901 13.75 11.2501 13.41 11.2501 13V8C11.2501 7.59 11.5901 7.25 12.0001 7.25C12.4101 7.25 12.7501 7.59 12.7501 8V13Z" fill="#141414"/>
</svg>
