<svg width="24" height="24" viewBox="0 0 24 24" fill="none" xmlns="http://www.w3.org/2000/svg">
<path d="M14.2643 3.45H8.38216C7.97509 3.45 7.64944 3.13 7.64944 2.73C7.64944 2.33 7.97509 2 8.38216 2H14.2643C14.6714 2 14.9971 2.32 14.9971 2.72C14.9971 3.12 14.6714 3.45 14.2643 3.45Z" fill="#141414"/>
<path d="M19.4341 15H16.4422C15.1497 15 14.3763 15.76 14.3763 17.03V19.97C14.3763 21.24 15.1497 22 16.4422 22H19.4341C20.7266 22 21.5 21.24 21.5 19.97V17.03C21.5 15.76 20.7266 15 19.4341 15ZM19.1492 19.46L17.9483 20.14C17.7041 20.28 17.4598 20.35 17.2359 20.35C17.0629 20.35 16.9103 20.31 16.7678 20.23C16.4422 20.04 16.259 19.67 16.259 19.18V17.82C16.259 17.33 16.4422 16.96 16.7678 16.77C17.0935 16.58 17.5107 16.62 17.9483 16.86L19.1492 17.54C19.5766 17.79 19.8208 18.13 19.8208 18.5C19.8208 18.87 19.5868 19.21 19.1492 19.46Z" fill="#141414"/>
<path d="M13.3586 19.97V17.03C13.3586 15.22 14.6002 14 16.4422 14H19.4341C19.6682 14 19.8921 14.02 20.1058 14.06C20.1261 13.82 20.1465 13.58 20.1465 13.33C20.1465 8.54 16.1877 4.65 11.3232 4.65C6.45876 4.65 2.5 8.54 2.5 13.33C2.5 18.11 6.45876 22 11.3232 22C12.1883 22 13.0126 21.86 13.8064 21.64C13.5214 21.17 13.3586 20.61 13.3586 19.97ZM12.0865 13C12.0865 13.41 11.7405 13.75 11.3232 13.75C10.906 13.75 10.56 13.41 10.56 13V8C10.56 7.59 10.906 7.25 11.3232 7.25C11.7405 7.25 12.0865 7.59 12.0865 8V13Z" fill="#141414"/>
</svg>
