<svg width="24" height="24" viewBox="0 0 24 24" fill="none" xmlns="http://www.w3.org/2000/svg">
<path d="M14.2643 3.45H8.38216C7.97509 3.45 7.64944 3.13 7.64944 2.73C7.64944 2.33 7.97509 2 8.38216 2H14.2643C14.6714 2 14.9971 2.32 14.9971 2.72C14.9971 3.12 14.6714 3.45 14.2643 3.45Z" fill="#141414"/>
<path d="M13.3586 19.97V17.03C13.3586 15.22 14.6002 14 16.4422 14H19.4341C19.6682 14 19.8921 14.02 20.1058 14.06C20.1261 13.82 20.1465 13.58 20.1465 13.33C20.1465 8.54 16.1877 4.65 11.3232 4.65C6.45876 4.65 2.5 8.54 2.5 13.33C2.5 18.11 6.45876 22 11.3232 22C12.1883 22 13.0126 21.86 13.8064 21.64C13.5214 21.17 13.3586 20.61 13.3586 19.97ZM12.0865 13C12.0865 13.41 11.7405 13.75 11.3232 13.75C10.906 13.75 10.56 13.41 10.56 13V8C10.56 7.59 10.906 7.25 11.3232 7.25C11.7405 7.25 12.0865 7.59 12.0865 8V13Z" fill="#141414"/>
<path d="M19.4341 15H16.4523C15.1497 15 14.3763 15.76 14.3763 17.03V19.97C14.3763 21.24 15.1497 22 16.4523 22H19.4341C20.7266 22 21.5 21.24 21.5 19.97V17.03C21.5 15.76 20.7266 15 19.4341 15ZM17.3479 20.06C17.3479 20.38 17.0833 20.64 16.7475 20.64C16.4218 20.64 16.1572 20.38 16.1572 20.06V16.94C16.1572 16.62 16.4218 16.36 16.7475 16.36C17.0833 16.36 17.3479 16.62 17.3479 16.94V20.06ZM19.7191 20.06C19.7191 20.38 19.4545 20.64 19.1288 20.64C18.8032 20.64 18.5284 20.38 18.5284 20.06V16.94C18.5284 16.62 18.8032 16.36 19.1288 16.36C19.4545 16.36 19.7191 16.62 19.7191 16.94V20.06Z" fill="#141414"/>
</svg>
