<svg width="24" height="24" viewBox="0 0 24 24" fill="none" xmlns="http://www.w3.org/2000/svg">
<path d="M22 7.81V12.5H17.9261C17.8063 12.49 17.5467 12.34 17.4868 12.23L16.4483 10.26C16.0389 9.48 15.33 9.04 14.5711 9.08C13.8123 9.12 13.1633 9.63 12.8337 10.46L11.4558 13.92L11.2561 13.4C10.7668 12.13 9.36895 11.17 7.99101 11.17L2.02996 11.2V7.81C2.02996 4.17 4.1967 2 7.83125 2H16.1987C19.8332 2 22 4.17 22 7.81Z" fill="#141414"/>
<path d="M22 16.19V14H17.9261C17.2571 14 16.4683 13.52 16.1588 12.93L15.1203 10.96C14.8407 10.43 14.4413 10.46 14.2217 11.01L11.9251 16.82C11.6755 17.47 11.2561 17.47 10.9965 16.82L9.85821 13.94C9.58862 13.24 8.74988 12.67 8.001 12.67L2.02996 12.7V16.19C2.02996 19.77 4.12681 21.93 7.65152 21.99C7.76136 22 7.88118 22 7.99101 22H15.979C16.1288 22 16.2786 22 16.4184 21.99C19.9231 21.91 22 19.76 22 16.19Z" fill="#141414"/>
<path d="M2.02996 12.7V16.01C2.00998 15.69 2 15.35 2 15V12.7H2.02996Z" fill="#141414"/>
</svg>
