<svg width="24" height="24" viewBox="0 0 24 24" fill="none" xmlns="http://www.w3.org/2000/svg">
<path d="M21.2692 22H3.73077C3.33128 22 3 21.6723 3 21.2771C3 20.8819 3.33128 20.5542 3.73077 20.5542H21.2692C21.6687 20.5542 22 20.8819 22 21.2771C22 21.6723 21.6687 22 21.2692 22Z" fill="#141414"/>
<path d="M6.2641 8.1494H4.70513C4.16923 8.1494 3.73077 8.58313 3.73077 9.11325V17.4217C3.73077 17.9518 4.16923 18.3855 4.70513 18.3855H6.2641C6.8 18.3855 7.23846 17.9518 7.23846 17.4217V9.11325C7.23846 8.57349 6.8 8.1494 6.2641 8.1494Z" fill="#141414"/>
<path d="M13.2795 5.0747H11.7205C11.1846 5.0747 10.7462 5.50843 10.7462 6.03855V17.4217C10.7462 17.9518 11.1846 18.3855 11.7205 18.3855H13.2795C13.8154 18.3855 14.2538 17.9518 14.2538 17.4217V6.03855C14.2538 5.50843 13.8154 5.0747 13.2795 5.0747Z" fill="#141414"/>
<path d="M20.2949 2H18.7359C18.2 2 17.7615 2.43373 17.7615 2.96386V17.4217C17.7615 17.9518 18.2 18.3855 18.7359 18.3855H20.2949C20.8308 18.3855 21.2692 17.9518 21.2692 17.4217V2.96386C21.2692 2.43373 20.8308 2 20.2949 2Z" fill="#141414"/>
</svg>
