<svg width="24" height="24" viewBox="0 0 24 24" fill="none" xmlns="http://www.w3.org/2000/svg">
<path d="M16.1971 2H7.8129C4.17108 2 2 4.17 2 7.81V16.18C2 19.83 4.17108 22 7.8129 22H16.1871C19.8289 22 22 19.83 22 16.19V7.81C22.01 4.17 19.8389 2 16.1971 2ZM7.63281 18.15C7.63281 18.56 7.29264 18.9 6.88243 18.9C6.47223 18.9 6.13206 18.56 6.13206 18.15V16.08C6.13206 15.67 6.47223 15.33 6.88243 15.33C7.29264 15.33 7.63281 15.67 7.63281 16.08V18.15ZM12.7554 18.15C12.7554 18.56 12.4152 18.9 12.005 18.9C11.5948 18.9 11.2546 18.56 11.2546 18.15V14C11.2546 13.59 11.5948 13.25 12.005 13.25C12.4152 13.25 12.7554 13.59 12.7554 14V18.15ZM17.8779 18.15C17.8779 18.56 17.5377 18.9 17.1275 18.9C16.7173 18.9 16.3772 18.56 16.3772 18.15V11.93C16.3772 11.52 16.7173 11.18 17.1275 11.18C17.5377 11.18 17.8779 11.52 17.8779 11.93V18.15ZM17.8779 8.77C17.8779 9.18 17.5377 9.52 17.1275 9.52C16.7173 9.52 16.3772 9.18 16.3772 8.77V7.8C13.8259 10.42 10.6343 12.27 7.06252 13.16C7.00249 13.18 6.94246 13.18 6.88243 13.18C6.54226 13.18 6.24211 12.95 6.15207 12.61C6.05202 12.21 6.29214 11.8 6.70234 11.7C10.074 10.86 13.0755 9.09 15.4567 6.59H14.2061C13.7959 6.59 13.4557 6.25 13.4557 5.84C13.4557 5.43 13.7959 5.09 14.2061 5.09H17.1375C17.1776 5.09 17.2076 5.11 17.2476 5.11C17.2976 5.12 17.3476 5.12 17.3977 5.14C17.4477 5.16 17.4877 5.19 17.5377 5.22C17.5678 5.24 17.5978 5.25 17.6278 5.27C17.6378 5.28 17.6378 5.29 17.6478 5.29C17.6878 5.33 17.7178 5.37 17.7478 5.41C17.7779 5.45 17.8079 5.48 17.8179 5.52C17.8379 5.56 17.8379 5.6 17.8479 5.65C17.8579 5.7 17.8779 5.75 17.8779 5.81C17.8779 5.82 17.8879 5.83 17.8879 5.84V8.77H17.8779Z" fill="#141414"/>
</svg>
