<svg width="24" height="24" viewBox="0 0 24 24" fill="none" xmlns="http://www.w3.org/2000/svg">
<path d="M21.019 6.96191C20.7524 4.3619 18.6857 2.29524 16.0857 2.02857C15.8952 2.00952 15.7048 2 15.5143 2H7.53333C7.34286 2 7.15238 2.00952 6.96191 2.02857C4.3619 2.29524 2.29524 4.3619 2.02857 6.96191C2.00952 7.15238 2 7.34286 2 7.53333V15.5143C2 15.7048 2.00952 15.8952 2.02857 16.0857C2.29524 18.6857 4.3619 20.7524 6.96191 21.019C7.15238 21.0381 7.34286 21.0476 7.53333 21.0476H13.4286C13.9524 21.0476 14.381 20.619 14.381 20.0952V17.2667C14.381 15.6762 15.6762 14.381 17.2667 14.381H20.0952C20.619 14.381 21.0476 13.9524 21.0476 13.4286V7.53333C21.0476 7.34286 21.0381 7.15238 21.019 6.96191ZM7.47619 12.9524C7.47619 13.3429 7.15238 13.6667 6.7619 13.6667C6.37143 13.6667 6.04762 13.3429 6.04762 12.9524V10.0952C6.04762 9.70476 6.37143 9.38095 6.7619 9.38095C7.15238 9.38095 7.47619 9.70476 7.47619 10.0952V12.9524ZM12.2381 12.9524C12.2381 13.3429 11.9143 13.6667 11.5238 13.6667C11.1333 13.6667 10.8095 13.3429 10.8095 12.9524V10.0952C10.8095 9.70476 11.1333 9.38095 11.5238 9.38095C11.9143 9.38095 12.2381 9.70476 12.2381 10.0952V12.9524Z" fill="#141414"/>
<path d="M20.0667 15.3333H17.2667C16.0571 15.3333 15.3333 16.0571 15.3333 17.2667V20.0667C15.3333 21.2762 16.0571 22 17.2667 22H20.0667C21.2762 22 22 21.2762 22 20.0667V17.2667C22 16.0571 21.2762 15.3333 20.0667 15.3333ZM20.5429 19.6762C20.781 19.9143 20.781 20.3048 20.5429 20.5429C20.419 20.6571 20.2571 20.7143 20.1048 20.7143C19.9524 20.7143 19.7905 20.6571 19.6667 20.5429L18.6571 19.5333L17.6667 20.5429C17.5429 20.6571 17.3905 20.7143 17.219 20.7143C17.0762 20.7143 16.9143 20.6571 16.8 20.5429C16.5619 20.3048 16.5619 19.9143 16.8 19.6762L17.8095 18.6667L16.8 17.6667C16.5619 17.4286 16.5619 17.0381 16.8 16.8C17.0381 16.5619 17.4286 16.5619 17.6667 16.8L18.6571 17.8095L19.6667 16.8C19.9048 16.5619 20.3048 16.5619 20.5429 16.8C20.781 17.0381 20.781 17.4286 20.5429 17.6667L19.5333 18.6667L20.5429 19.6762Z" fill="#141414"/>
</svg>
