<svg width="24" height="24" viewBox="0 0 24 24" fill="none" xmlns="http://www.w3.org/2000/svg">
<path d="M16.1971 2H7.8129C4.17108 2 2 4.17 2 7.81V16.18C2 19.83 4.17108 22 7.8129 22H16.1871C19.8289 22 22 19.83 22 16.19V7.81C22.01 4.17 19.8389 2 16.1971 2ZM16.8874 11.53C16.8874 11.92 16.5773 12.23 16.1871 12.23C15.7969 12.23 15.4867 11.92 15.4867 11.53V11.35L12.7654 14.07C12.6153 14.22 12.4152 14.29 12.2051 14.27C11.995 14.25 11.8049 14.14 11.6948 13.96L10.6743 12.44L8.29314 14.82C8.15307 14.96 7.98298 15.02 7.80289 15.02C7.6228 15.02 7.44271 14.95 7.31265 14.82C7.04251 14.55 7.04251 14.11 7.31265 13.83L10.2941 10.85C10.4442 10.7 10.6443 10.63 10.8544 10.65C11.0645 10.67 11.2546 10.78 11.3647 10.96L12.3852 12.48L14.4962 10.37H14.3161C13.9259 10.37 13.6158 10.06 13.6158 9.67C13.6158 9.28 13.9259 8.97 14.3161 8.97H16.1771C16.2671 8.97 16.3572 8.99 16.4472 9.02C16.6173 9.09 16.7574 9.23 16.8274 9.4C16.8674 9.49 16.8774 9.58 16.8774 9.67V11.53H16.8874Z" fill="#141414"/>
</svg>
