<svg width="24" height="24" viewBox="0 0 24 24" fill="none" xmlns="http://www.w3.org/2000/svg">
<path d="M2 1.15039C2.46523 1.15039 2.84961 1.53477 2.84961 2V19C2.84961 20.1848 3.81523 21.1504 5 21.1504H22C22.4652 21.1504 22.8496 21.5348 22.8496 22C22.8496 22.4652 22.4652 22.8496 22 22.8496H5C2.87477 22.8496 1.15039 21.1252 1.15039 19V2C1.15039 1.53477 1.53477 1.15039 2 1.15039Z" fill="#141414"/>
<path d="M20.3444 6.44443C20.6309 6.11543 21.1164 6.05555 21.4743 6.30087L21.5446 6.35361L21.5456 6.35458L21.6081 6.41415C21.8815 6.70493 21.9188 7.15049 21.6901 7.48447L21.6364 7.55478L17.0456 12.9151C16.5277 13.5159 15.7818 13.8791 14.9938 13.9102C14.1981 13.9309 13.4302 13.6413 12.8698 13.0811L12.8688 13.0802L11.9293 12.13C11.6989 11.8995 11.3955 11.7809 11.0729 11.7901C10.7527 11.7993 10.4584 11.9449 10.2457 12.1944L5.6559 17.5548L5.65297 17.5587C5.475 17.7478 5.23855 17.8497 4.99965 17.8497C4.80737 17.8496 4.60409 17.782 4.44497 17.6456C4.09413 17.3399 4.04791 16.8073 4.35317 16.4454L8.94399 11.0851L9.0436 10.9747C9.55508 10.4398 10.257 10.1192 10.9957 10.0899H10.9977C11.7833 10.0693 12.5603 10.3586 13.1207 10.919L14.0709 11.8692C14.2997 12.0979 14.5922 12.2085 14.9274 12.2091C15.2475 12.1999 15.541 12.0543 15.7536 11.8048L20.3444 6.44443Z" fill="#141414"/>
</svg>
