<svg width="24" height="24" viewBox="0 0 24 24" fill="none" xmlns="http://www.w3.org/2000/svg">
<path d="M2.78308 2C3.21188 2 3.56616 2.35428 3.56616 2.78308V18.4518C3.56616 19.5438 4.45616 20.4338 5.54815 20.4338H21.2169C21.6457 20.4338 22 20.7881 22 21.2169C22 21.6457 21.6457 22 21.2169 22H5.54815C3.58935 22 2 20.4107 2 18.4518V2.78308C2 2.35428 2.35428 2 2.78308 2Z" fill="#141414"/>
<path d="M19.691 6.87947C19.9551 6.57624 20.4025 6.52104 20.7324 6.74716L20.7972 6.79576L20.7981 6.79666L20.8557 6.85157C21.1077 7.11958 21.1421 7.53024 20.9313 7.83807L20.8818 7.90287L16.6504 12.8435C16.1731 13.3972 15.4857 13.732 14.7594 13.7607C14.026 13.7797 13.3182 13.5128 12.8017 12.9965L12.8008 12.9956L11.9349 12.1198C11.7225 11.9074 11.4428 11.7981 11.1455 11.8066C10.8504 11.815 10.5791 11.9492 10.3831 12.1792L6.1527 17.1198L6.14999 17.1234C5.98596 17.2977 5.76802 17.3916 5.54783 17.3916C5.37061 17.3915 5.18325 17.3292 5.03658 17.2035C4.71322 16.9218 4.67062 16.4309 4.95198 16.0973L9.1833 11.1567L9.27511 11.055C9.74654 10.5619 10.3935 10.2665 11.0744 10.2395H11.0762C11.8003 10.2205 12.5164 10.4872 13.033 11.0037L13.9088 11.8795C14.1196 12.0903 14.3892 12.1922 14.6982 12.1927C14.9932 12.1842 15.2637 12.0501 15.4596 11.8201L19.691 6.87947Z" fill="#141414"/>
</svg>
