<svg width="24" height="24" viewBox="0 0 24 24" fill="none" xmlns="http://www.w3.org/2000/svg">
<path d="M21.3023 21.5H2.69767C2.31628 21.5 2 21.177 2 20.7875C2 20.398 2.31628 20.075 2.69767 20.075H21.3023C21.6837 20.075 22 20.398 22 20.7875C22 21.177 21.6837 21.5 21.3023 21.5Z" fill="#141414"/>
<path d="M9.90698 4.4V21.5H14.093V4.4C14.093 3.355 13.6744 2.5 12.4186 2.5H11.5814C10.3256 2.5 9.90698 3.355 9.90698 4.4Z" fill="#141414"/>
<path d="M3.62791 10.1V21.5H7.34884V10.1C7.34884 9.055 6.97674 8.2 5.86047 8.2H5.11628C4 8.2 3.62791 9.055 3.62791 10.1Z" fill="#141414"/>
<path d="M16.6512 14.85V21.5H20.3721V14.85C20.3721 13.805 20 12.95 18.8837 12.95H18.1395C17.0233 12.95 16.6512 13.805 16.6512 14.85Z" fill="#141414"/>
</svg>
