<svg width="24" height="24" viewBox="0 0 24 24" fill="none" xmlns="http://www.w3.org/2000/svg">
<path d="M20.032 6.81828L14.2777 2.78783C12.7093 1.68771 10.3017 1.74771 8.79321 2.91784L3.78821 6.82829C2.78921 7.60837 2 9.20856 2 10.4687V17.3695C2 19.9198 4.06793 22 6.61538 22H17.3846C19.9321 22 22 19.9298 22 17.3795V10.5987C22 9.24856 21.1309 7.58837 20.032 6.81828ZM16.8751 13.399C16.8751 13.7891 16.5654 14.0991 16.1758 14.0991C15.7862 14.0991 15.4765 13.7891 15.4765 13.399V13.219L12.7592 15.9393C12.6094 16.0893 12.4096 16.1593 12.1998 16.1393C12 16.1193 11.8102 15.9993 11.7003 15.8293L10.6813 14.3091L8.3037 16.6894C8.16384 16.8294 7.99401 16.8894 7.81419 16.8894C7.63437 16.8894 7.45455 16.8194 7.32468 16.6894C7.05494 16.4194 7.05494 15.9793 7.32468 15.6993L10.3017 12.719C10.4515 12.5689 10.6513 12.4989 10.8611 12.5189C11.0709 12.5389 11.2607 12.6489 11.3706 12.829L12.3896 14.3491L14.4975 12.2389H14.3177C13.9281 12.2389 13.6184 11.9289 13.6184 11.5388C13.6184 11.1488 13.9281 10.8387 14.3177 10.8387H16.1758C16.2657 10.8387 16.3556 10.8587 16.4456 10.8887C16.6154 10.9588 16.7552 11.0988 16.8252 11.2688C16.8651 11.3588 16.8751 11.4488 16.8751 11.5388V13.399Z" fill="#141414"/>
</svg>
