<svg width="24" height="24" viewBox="0 0 24 24" fill="none" xmlns="http://www.w3.org/2000/svg">
<path d="M20.032 6.81828L14.2777 2.78783C12.7093 1.68771 10.3017 1.74771 8.79321 2.91784L3.78821 6.82829C2.78921 7.60837 2 9.20856 2 10.4687V17.3695C2 19.9198 4.06793 22 6.61538 22H17.3846C19.9321 22 22 19.9298 22 17.3795V10.5987C22 9.24856 21.1309 7.58837 20.032 6.81828ZM16.8751 16.1893C16.8751 16.2794 16.8551 16.3694 16.8252 16.4594C16.7552 16.6294 16.6154 16.7694 16.4456 16.8394C16.3556 16.8794 16.2657 16.8894 16.1758 16.8894H14.3177C13.9281 16.8894 13.6184 16.5794 13.6184 16.1893C13.6184 15.7993 13.9281 15.4893 14.3177 15.4893H14.4975L12.3896 13.379L11.3706 14.8992C11.2507 15.0692 11.0709 15.1892 10.8611 15.2092C10.6414 15.2292 10.4515 15.1592 10.3017 15.0092L7.32468 12.0289C7.05494 11.7588 7.05494 11.3188 7.32468 11.0388C7.59441 10.7587 8.03397 10.7687 8.31369 11.0388L10.6913 13.419L11.7103 11.8989C11.8302 11.7288 12.01 11.6088 12.2198 11.5888C12.4396 11.5688 12.6294 11.6388 12.7792 11.7888L15.4965 14.5092V14.3291C15.4965 13.9391 15.8062 13.6291 16.1958 13.6291C16.5854 13.6291 16.8951 13.9391 16.8951 14.3291V16.1893H16.8751Z" fill="#141414"/>
</svg>
