<svg width="24" height="24" viewBox="0 0 24 24" fill="none" xmlns="http://www.w3.org/2000/svg">
<path d="M12.7053 16.8794H13.4057C14.5562 16.8794 15.4967 15.9393 15.4967 14.7892V14.0891H12.7053V16.8794Z" fill="#141414"/>
<path d="M8.51323 14.7892C8.51323 15.9393 9.45369 16.8794 10.6043 16.8794H11.3046V14.0891H8.51323V14.7892Z" fill="#141414"/>
<path d="M8.51323 11.9989V12.6989H11.3046V9.90863H10.6043C9.45369 9.90863 8.51323 10.8487 8.51323 11.9989Z" fill="#141414"/>
<path d="M20.0389 6.81828L14.2861 2.78783C12.7153 1.68771 10.3141 1.74771 8.80337 2.91784L3.79089 6.82829C2.78039 7.60837 2 9.20856 2 10.4687V17.3695C2 19.9198 4.07103 22 6.61229 22H17.3876C19.9289 22 21.9999 19.9298 21.9999 17.3795V10.5987C22.0099 9.24856 21.1395 7.58837 20.0389 6.81828ZM16.8874 14.7892C16.8874 16.7094 15.3166 18.2796 13.3956 18.2796H10.6043C8.68331 18.2796 7.11253 16.7194 7.11253 14.7892V11.9989C7.11253 10.0787 8.68331 8.50848 10.6043 8.50848H13.3956C15.3166 8.50848 16.8874 10.0687 16.8874 11.9989V14.7892Z" fill="#141414"/>
<path d="M13.4057 9.90863H12.7053V12.6989H15.4967V11.9989C15.4967 10.8487 14.5562 9.90863 13.4057 9.90863Z" fill="#141414"/>
</svg>
