<svg width="24" height="24" viewBox="0 0 24 24" fill="none" xmlns="http://www.w3.org/2000/svg">
<path d="M20.04 6.82L14.28 2.79C12.71 1.69 10.3 1.75 8.78999 2.92L3.77999 6.83C2.77999 7.61 1.98999 9.21 1.98999 10.47V17.37C1.98999 19.92 4.05999 22 6.60999 22H17.39C19.94 22 22.01 19.93 22.01 17.38V10.6C22.01 9.25 21.14 7.59 20.04 6.82ZM16.88 16.19C16.88 16.28 16.86 16.37 16.83 16.46C16.76 16.63 16.62 16.77 16.45 16.84C16.36 16.88 16.27 16.89 16.18 16.89H14.32C13.93 16.89 13.62 16.58 13.62 16.19C13.62 15.8 13.93 15.49 14.32 15.49H14.5L12.39 13.38L11.37 14.9C11.25 15.07 11.07 15.19 10.86 15.21C10.64 15.23 10.45 15.16 10.3 15.01L7.31999 12.03C7.04999 11.76 7.04999 11.32 7.31999 11.04C7.58999 10.76 8.02999 10.77 8.30999 11.04L10.69 13.42L11.71 11.9C11.83 11.73 12.01 11.61 12.22 11.59C12.44 11.57 12.63 11.64 12.78 11.79L15.5 14.51V14.33C15.5 13.94 15.81 13.63 16.2 13.63C16.59 13.63 16.9 13.94 16.9 14.33V16.19H16.88Z" fill="#141414"/>
</svg>
