<svg width="24" height="24" viewBox="0 0 24 24" fill="none" xmlns="http://www.w3.org/2000/svg">
<path d="M16.1971 2H7.8129C4.17108 2 2 4.17 2 7.81V16.18C2 19.83 4.17108 22 7.8129 22H16.1871C19.8289 22 22 19.83 22 16.19V7.81C22.01 4.17 19.8389 2 16.1971 2ZM17.2676 9.96L14.9565 12.94C14.6663 13.31 14.2561 13.55 13.7859 13.6C13.3156 13.66 12.8554 13.53 12.4852 13.24L10.6543 11.8C10.5843 11.74 10.5042 11.74 10.4642 11.75C10.4242 11.75 10.3542 11.77 10.2941 11.85L7.91295 14.94C7.76287 15.13 7.54276 15.23 7.32265 15.23C7.16257 15.23 7.00249 15.18 6.86242 15.07C6.53226 14.82 6.47223 14.35 6.72235 14.02L9.10354 10.93C9.39368 10.56 9.80389 10.32 10.2741 10.26C10.7344 10.2 11.2046 10.33 11.5748 10.62L13.4057 12.06C13.4757 12.12 13.5458 12.12 13.5958 12.11C13.6358 12.11 13.7058 12.09 13.7659 12.01L16.077 9.03C16.3271 8.7 16.8074 8.64 17.1275 8.9C17.4577 9.17 17.5177 9.64 17.2676 9.96Z" fill="#141414"/>
</svg>
