<svg width="24" height="24" viewBox="0 0 24 24" fill="none" xmlns="http://www.w3.org/2000/svg">
<path d="M16.1971 2H7.8129C4.17108 2 2 4.17 2 7.81V16.18C2 19.83 4.17108 22 7.8129 22H16.1871C19.8289 22 22 19.83 22 16.19V7.81C22.01 4.17 19.8389 2 16.1971 2ZM16.8874 14.33C16.8874 14.42 16.8674 14.51 16.8374 14.6C16.7674 14.77 16.6273 14.91 16.4572 14.98C16.3672 15.02 16.2771 15.03 16.1871 15.03H14.3261C13.9359 15.03 13.6258 14.72 13.6258 14.33C13.6258 13.94 13.9359 13.63 14.3261 13.63H14.5062L12.3952 11.52L11.3747 13.04C11.2546 13.21 11.0745 13.33 10.8644 13.35C10.6543 13.37 10.4542 13.3 10.3041 13.15L7.32265 10.17C7.05252 9.9 7.05252 9.46 7.32265 9.18C7.59279 8.9 8.03301 8.91 8.31315 9.18L10.6943 11.56L11.7148 10.04C11.8349 9.87 12.015 9.75 12.2251 9.73C12.4452 9.71 12.6353 9.78 12.7854 9.93L15.5067 12.65V12.47C15.5067 12.08 15.8169 11.77 16.2071 11.77C16.5973 11.77 16.9074 12.08 16.9074 12.47V14.33H16.8874Z" fill="#141414"/>
</svg>
