<svg width="24" height="24" viewBox="0 0 24 24" fill="none" xmlns="http://www.w3.org/2000/svg">
<path d="M21.3023 3.39535H2.69767C2.31628 3.39535 2 3.07907 2 2.69767C2 2.31628 2.31628 2 2.69767 2H21.3023C21.6837 2 22 2.31628 22 2.69767C22 3.07907 21.6837 3.39535 21.3023 3.39535Z" fill="#141414"/>
<path d="M16.3442 21.6186C16.2233 21.8605 15.9721 22 15.7209 22C15.6186 22 15.507 21.9721 15.414 21.9256L12 20.2233L8.58605 21.9256C8.49302 21.9721 8.3814 22 8.27907 22C8.02791 22 7.77674 21.8605 7.65581 21.6186C7.47907 21.2651 7.6186 20.8465 7.97209 20.6791L11.3023 19.014V16.6512H12.6977V19.014L16.0279 20.6791C16.3814 20.8465 16.5209 21.2651 16.3442 21.6186Z" fill="#141414"/>
<path d="M3.62791 2.69767V13.9535C3.62791 15.7209 4.55814 16.6512 6.32558 16.6512H17.6744C19.4419 16.6512 20.3721 15.7209 20.3721 13.9535V2.69767H3.62791ZM16.6326 8.8186L13.7023 11.2651C13.4326 11.4884 13.0884 11.5814 12.7628 11.5256C12.4279 11.4698 12.1395 11.2651 11.9628 10.9674L10.986 9.33954L8.26047 11.6093C8.13023 11.7209 7.97209 11.7674 7.81395 11.7674C7.6186 11.7674 7.41395 11.6837 7.27442 11.5163C7.02326 11.2186 7.06977 10.7814 7.36744 10.5302L10.2977 8.08372C10.5674 7.86047 10.9116 7.76744 11.2372 7.82326C11.5721 7.87907 11.8605 8.08372 12.0372 8.3814L13.014 10.0093L15.7395 7.73954C16.0372 7.48837 16.4744 7.53488 16.7256 7.83256C16.9674 8.13023 16.9302 8.56744 16.6326 8.8186Z" fill="#141414"/>
</svg>
