<svg width="24" height="24" viewBox="0 0 24 24" fill="none" xmlns="http://www.w3.org/2000/svg">
<path d="M8.05302 10.14V11.3H11.3146V8.05H10.1541C8.99348 8.05 8.05302 8.99 8.05302 10.14Z" fill="#141414"/>
<path d="M8.05302 13.86C8.05302 15.01 8.99348 15.95 10.1441 15.95H11.3046V12.7H8.05302V13.86Z" fill="#141414"/>
<path d="M12.7053 15.95H13.8659C15.0165 15.95 15.957 15.01 15.957 13.86V12.7H12.7053V15.95Z" fill="#141414"/>
<path d="M16.1971 2H7.8129C4.17108 2 2 4.17 2 7.81V16.18C2 19.83 4.17108 22 7.8129 22H16.1871C19.8289 22 22 19.83 22 16.19V7.81C22.01 4.17 19.8389 2 16.1971 2ZM17.3577 13.86C17.3577 15.78 15.7869 17.35 13.8659 17.35H10.1441C8.2231 17.35 6.65232 15.79 6.65232 13.86V10.14C6.65232 8.22 8.2231 6.65 10.1441 6.65H13.8659C15.7869 6.65 17.3577 8.21 17.3577 10.14V13.86Z" fill="#141414"/>
<path d="M13.8659 8.05H12.7053V11.31H15.967V10.15C15.957 8.99 15.0165 8.05 13.8659 8.05Z" fill="#141414"/>
</svg>
