<svg width="24" height="24" viewBox="0 0 24 24" fill="none" xmlns="http://www.w3.org/2000/svg">
<path d="M17 2.5H7C4 2.5 2 4.48652 2 7.46631V13.4259C2 16.4057 4 18.3922 7 18.3922H11L15.45 21.3323C16.11 21.7693 17 21.3025 17 20.5078V18.3922C20 18.3922 22 16.4057 22 13.4259V7.46631C22 4.48652 20 2.5 17 2.5ZM15.5 11.2606H8.5C8.09 11.2606 7.75 10.9229 7.75 10.5156C7.75 10.1084 8.09 9.77068 8.5 9.77068H15.5C15.91 9.77068 16.25 10.1084 16.25 10.5156C16.25 10.9229 15.91 11.2606 15.5 11.2606Z" fill="#141414"/>
</svg>
