<svg width="24" height="24" viewBox="0 0 24 24" fill="none" xmlns="http://www.w3.org/2000/svg">
<path d="M8.63809 14.7042C7.95238 13.9303 6.93333 13.4489 5.80952 13.4489C3.70476 13.4489 2 15.1384 2 17.2244C2 17.9324 2.2 18.6025 2.55238 19.1688C2.74286 19.4898 2.99048 19.7824 3.27619 20.0278C3.94286 20.6319 4.82857 21 5.80952 21C7.2 21 8.40952 20.2638 9.06667 19.1688C9.41905 18.6025 9.61905 17.9324 9.61905 17.2244C9.61905 16.2617 9.24762 15.3744 8.63809 14.7042ZM7.33333 18.7158C7.19048 18.8574 7.00952 18.9234 6.82857 18.9234C6.64762 18.9234 6.46667 18.8574 6.32381 18.7158L5.81905 18.2155L5.29524 18.7347C5.15238 18.8762 4.97143 18.9423 4.79048 18.9423C4.60952 18.9423 4.42857 18.8762 4.28571 18.7347C4.00952 18.4609 4.00952 18.0079 4.28571 17.7341L4.80952 17.215L4.30476 16.7147C4.02857 16.441 4.02857 15.9879 4.30476 15.7142C4.58095 15.4405 5.0381 15.4405 5.31429 15.7142L5.81905 16.2145L6.29524 15.7425C6.57143 15.4688 7.02857 15.4688 7.30476 15.7425C7.58095 16.0163 7.58095 16.4693 7.30476 16.7431L6.82857 17.215L7.33333 17.7153C7.60952 17.989 7.60952 18.4326 7.33333 18.7158Z" fill="#141414"/>
<path d="M17.4762 3H8.42857C5.71429 3 3.90476 4.79339 3.90476 7.48348V11.6932C3.90476 12.0236 4.24762 12.2596 4.57143 12.1746C4.97143 12.0802 5.38095 12.033 5.80952 12.033C8.53333 12.033 10.781 14.2229 11.0286 16.8752C11.0476 17.1395 11.2667 17.3471 11.5238 17.3471H12.0476L16.0762 20.0089C16.6667 20.4053 17.4762 19.9712 17.4762 19.2538V17.3471C18.8286 17.3471 19.9619 16.8941 20.7524 16.1201C21.5429 15.3272 22 14.204 22 12.8637V7.48348C22 4.79339 20.1905 3 17.4762 3ZM16.1238 10.9098H9.78095C9.40952 10.9098 9.10476 10.6078 9.10476 10.2396C9.10476 9.86209 9.40952 9.56004 9.78095 9.56004H16.1238C16.4952 9.56004 16.8 9.86209 16.8 10.2396C16.8 10.6078 16.4952 10.9098 16.1238 10.9098Z" fill="#141414"/>
</svg>
