<svg width="24" height="24" viewBox="0 0 24 24" fill="none" xmlns="http://www.w3.org/2000/svg">
<path d="M18.6899 11.53C18.1199 11.38 17.4499 11.3 16.6499 11.3C15.5399 11.3 15.1299 11.57 14.5599 12C14.5299 12.02 14.4999 12.05 14.4699 12.08L13.5199 13.09C12.7299 13.94 11.2799 13.94 10.4799 13.09L9.52993 12.09C9.49993 12.05 9.46993 12.02 9.43993 12C8.85993 11.57 8.44993 11.3 7.34993 11.3C6.54993 11.3 5.87993 11.37 5.30993 11.53C2.92993 12.17 2.92993 14.06 2.92993 15.72V16.65C2.92993 19.16 2.92993 22 8.27993 22H15.7199C19.2699 22 21.0699 20.2 21.0699 16.65V15.72C21.0699 14.06 21.0699 12.17 18.6899 11.53Z" fill="#141414"/>
<path d="M14.7899 2H9.20993C4.78993 2 4.78993 4.35 4.78993 6.42V10.12C4.82993 10.1 4.87993 10.09 4.91993 10.08C5.61993 9.89 6.40993 9.8 7.34993 9.8C8.88993 9.8 9.61993 10.25 10.3399 10.8C10.4399 10.87 10.5399 10.96 10.6299 11.06L11.5699 12.05C11.6699 12.16 11.8299 12.22 11.9999 12.22C12.1699 12.22 12.3299 12.16 12.4199 12.06L13.3799 11.05C13.4599 10.97 13.5499 10.88 13.6499 10.81C14.3899 10.25 15.1099 9.8 16.6499 9.8C17.5899 9.8 18.3799 9.89 19.0799 10.08C19.1199 10.09 19.1699 10.1 19.2099 10.12V6.42C19.2099 4.35 19.2099 2 14.7899 2ZM13.5499 8.5H10.4499C10.0699 8.5 9.74993 8.18 9.74993 7.8C9.74993 7.41 10.0699 7.1 10.4499 7.1H13.5499C13.9299 7.1 14.2499 7.41 14.2499 7.8C14.2499 8.18 13.9299 8.5 13.5499 8.5ZM14.3299 5.71H9.66993C9.28993 5.71 8.97993 5.39 8.97993 5.01C8.97993 4.62 9.28993 4.31 9.66993 4.31H14.3299C14.7099 4.31 15.0199 4.62 15.0199 5.01C15.0199 5.39 14.7099 5.71 14.3299 5.71Z" fill="#141414"/>
</svg>
