<svg width="24" height="24" viewBox="0 0 24 24" fill="none" xmlns="http://www.w3.org/2000/svg">
<path d="M16.6586 13.4699C16.4704 13.4699 16.2865 13.5266 16.1302 13.6327L13.9855 15.0892C13.6435 15.3205 13.2445 15.4265 12.855 15.4265C12.5225 15.4265 12.19 15.3494 11.886 15.1759C11.4283 14.9304 11.0921 14.4795 10.927 13.974C10.7947 13.5691 10.531 13.1938 10.151 13.0115C9.71472 12.8022 9.32141 12.5257 8.9885 12.188C8.1715 11.359 7.725 10.1928 7.725 8.89157V4.89157C7.725 4.35924 7.29967 3.92771 6.775 3.92771C4.21 3.92771 2.5 5.22892 2.5 8.26506V13.4699C2.5 16.506 4.21 17.8072 6.775 17.8072H10.3375V20.5542H7.63C7.2405 20.5542 6.9175 20.8819 6.9175 21.2771C6.9175 21.6723 7.2405 22 7.63 22H14.47C14.8595 22 15.1825 21.6723 15.1825 21.2771C15.1825 20.8819 14.8595 20.5542 14.47 20.5542H11.7625V17.8072H15.325C17.6006 17.8072 19.2033 16.783 19.5359 14.4318C19.6105 13.9049 19.1747 13.4699 18.65 13.4699H16.6586Z" fill="#141414"/>
<path d="M18.4125 2H12.2375C10.822 2 9.758 2.73253 9.34 3.92771C9.2165 4.29398 9.15 4.6988 9.15 5.13253V8.89157C9.15 9.82651 9.454 10.6169 9.9955 11.1663C10.537 11.7157 11.316 12.0241 12.2375 12.0241V13.3639C12.2375 13.8554 12.7885 14.1542 13.197 13.8843L15.9425 12.0241H18.4125C18.84 12.0241 19.239 11.9566 19.6 11.8313C20.778 11.4072 21.5 10.3277 21.5 8.89157V5.13253C21.5 3.25301 20.265 2 18.4125 2ZM12.589 7.78313C12.19 7.78313 11.8765 7.45542 11.8765 7.06024C11.8765 6.66506 12.19 6.33735 12.589 6.33735C12.988 6.33735 13.3015 6.66506 13.3015 7.06024C13.3015 7.45542 12.988 7.78313 12.589 7.78313ZM15.268 7.78313C14.869 7.78313 14.5555 7.45542 14.5555 7.06024C14.5555 6.66506 14.8785 6.33735 15.268 6.33735C15.6575 6.33735 15.9805 6.66506 15.9805 7.06024C15.9805 7.45542 15.6575 7.78313 15.268 7.78313ZM17.9375 7.78313C17.5385 7.78313 17.225 7.45542 17.225 7.06024C17.225 6.66506 17.548 6.33735 17.9375 6.33735C18.327 6.33735 18.65 6.66506 18.65 7.06024C18.65 7.45542 18.327 7.78313 17.9375 7.78313Z" fill="#141414"/>
</svg>
