<svg width="24" height="24" viewBox="0 0 24 24" fill="none" xmlns="http://www.w3.org/2000/svg">
<path d="M18.6899 11.53C18.1199 11.38 17.4499 11.3 16.6499 11.3C15.5399 11.3 15.1299 11.57 14.5599 12C14.5299 12.02 14.4999 12.05 14.4699 12.08L13.5199 13.09C12.7199 13.93 11.2799 13.94 10.4799 13.08L9.52993 12.08C9.49993 12.05 9.46993 12.02 9.43993 12C8.86993 11.57 8.45993 11.3 7.34993 11.3C6.54993 11.3 5.87993 11.38 5.30993 11.53C2.92993 12.17 2.92993 14.06 2.92993 15.72V16.65C2.92993 19.16 2.92993 22 8.27993 22H15.7199C19.2699 22 21.0699 20.2 21.0699 16.65V15.72C21.0699 14.06 21.0699 12.17 18.6899 11.53ZM14.3299 18.4H9.66993C9.28993 18.4 8.97993 18.09 8.97993 17.7C8.97993 17.31 9.28993 17 9.66993 17H14.3299C14.7099 17 15.0199 17.31 15.0199 17.7C15.0199 18.09 14.7099 18.4 14.3299 18.4Z" fill="#141414"/>
<path d="M12.6699 2.67C12.6699 2.3 12.3699 2 11.9999 2C11.6299 2 11.3299 2.3 11.3299 2.67V4H12.6799V2.67H12.6699Z" fill="#141414"/>
<path d="M19.2099 8.42V10.12C19.1699 10.1 19.1199 10.09 19.0799 10.08H19.0699C18.3599 9.89 17.5699 9.8 16.6499 9.8C15.1099 9.8 14.3799 10.25 13.7199 10.75C13.5799 10.85 13.4799 10.95 13.3799 11.05L12.4299 12.06C12.3299 12.16 12.1699 12.22 11.9999 12.22C11.9199 12.22 11.7199 12.21 11.5699 12.05L10.5899 11.02C10.4899 10.91 10.3699 10.82 10.3399 10.8C9.61993 10.25 8.88993 9.8 7.34993 9.8C6.42993 9.8 5.63993 9.89 4.91993 10.08C4.87993 10.09 4.82993 10.1 4.78993 10.12V8.42C4.78993 6.35 4.78993 4 9.20993 4H11.3299V7.45L10.6799 6.8C10.4099 6.53 9.98993 6.53 9.71993 6.8C9.45993 7.06 9.45993 7.49 9.71993 7.75L11.5199 9.55C11.5299 9.56 11.5399 9.56 11.5399 9.57C11.5999 9.62 11.6699 9.67 11.7399 9.7C11.8299 9.73 11.9099 9.75 11.9999 9.75C12.0899 9.75 12.1699 9.73 12.2599 9.7C12.3399 9.67 12.4099 9.62 12.4799 9.55L14.2799 7.75C14.5399 7.49 14.5399 7.06 14.2799 6.8C14.0099 6.53 13.5899 6.53 13.3199 6.8L12.6699 7.45V4H14.7899C19.2099 4 19.2099 6.35 19.2099 8.42Z" fill="#141414"/>
</svg>
