<svg width="24" height="24" viewBox="0 0 24 24" fill="none" xmlns="http://www.w3.org/2000/svg">
<path d="M16.2857 2.5H6.7619C3.90476 2.5 2 3.925 2 7.25V13.9C2 17.225 3.90476 18.65 6.7619 18.65H10.1619C10.7238 18.65 11.181 18.156 11.1048 17.5955C11.0095 16.921 11.0286 16.218 11.1714 15.496C11.6762 13.026 13.7143 11.0595 16.2095 10.651C17.4571 10.4515 18.6476 10.6225 19.6952 11.0785C20.3333 11.354 21.0476 10.917 21.0476 10.2235V7.25C21.0476 3.925 19.1429 2.5 16.2857 2.5ZM16.7333 7.8105L13.7524 10.1855C13.1238 10.689 12.3238 10.936 11.5238 10.936C10.7238 10.936 9.91429 10.689 9.29524 10.1855L6.31429 7.8105C6.00952 7.5635 5.9619 7.117 6.2 6.8035C6.44762 6.4995 6.89524 6.4425 7.2 6.6895L10.181 9.0645C10.9048 9.644 12.1333 9.644 12.8571 9.0645L15.8381 6.6895C16.1429 6.4425 16.6 6.49 16.8381 6.8035C17.0857 7.117 17.0381 7.5635 16.7333 7.8105Z" fill="#141414"/>
<path d="M17.2381 12C14.6095 12 12.4762 14.1185 12.4762 16.75C12.4762 19.372 14.6095 21.5 17.2381 21.5C19.8762 21.5 22 19.372 22 16.75C22 14.1185 19.8762 12 17.2381 12ZM19.1905 16.3225L18.8381 16.6645L16.7619 18.745C16.6667 18.8305 16.4857 18.9255 16.3524 18.9445L15.419 19.0775C15.0857 19.125 14.8476 18.8875 14.8952 18.555L15.0286 17.624C15.0476 17.491 15.1333 17.3105 15.2286 17.2155L17.3048 15.154L17.6476 14.8025C17.8762 14.5745 18.1333 14.4225 18.4 14.4225C18.6286 14.4225 18.8857 14.527 19.1714 14.8025C19.8095 15.42 19.6095 15.9045 19.1905 16.3225Z" fill="#141414"/>
</svg>
