<svg width="24" height="24" viewBox="0 0 24 24" fill="none" xmlns="http://www.w3.org/2000/svg">
<path d="M20.0667 2H17.2667C16.0571 2 15.3333 2.72381 15.3333 3.93333V6.73333C15.3333 7.94286 16.0571 8.66667 17.2667 8.66667H20.0667C21.2762 8.66667 22 7.94286 22 6.73333V3.93333C22 2.72381 21.2762 2 20.0667 2ZM20.6762 5.50476C20.3238 6.62857 19.0952 7.2381 18.6667 7.2381C18.2381 7.2381 17.019 6.64762 16.6571 5.50476C16.6 5.33333 16.5714 5.14286 16.5714 4.96191C16.5714 4.34286 16.8857 3.70476 17.5429 3.49524C17.9333 3.37143 18.3524 3.4381 18.6476 3.68571C18.9524 3.44762 19.3714 3.37143 19.7714 3.49524C20.6476 3.77143 20.9238 4.75238 20.6762 5.50476Z" fill="#141414"/>
<path d="M17.2667 10.0952C15.4095 10.0952 13.9048 8.59048 13.9048 6.73333V3.90476C13.9048 3.38095 13.4762 2.95238 12.9524 2.95238H6.7619C4.13333 2.95238 2 5.07619 2 7.69524V14.3333C2 16.9619 4.13333 19.0952 6.7619 19.0952H8.19048C8.45714 19.0952 8.8 19.2667 8.95238 19.4762L10.381 21.3714C11.0095 22.2095 12.0381 22.2095 12.6667 21.3714L14.0952 19.4762C14.2762 19.2381 14.5619 19.0952 14.8571 19.0952H16.2952C18.9238 19.0952 21.0476 16.9714 21.0476 14.3429V11.0476C21.0476 10.5238 20.619 10.0952 20.0952 10.0952H17.2667ZM7.71429 12.4762C7.18095 12.4762 6.7619 12.0476 6.7619 11.5238C6.7619 11 7.18095 10.5714 7.71429 10.5714C8.2381 10.5714 8.66667 11 8.66667 11.5238C8.66667 12.0476 8.24762 12.4762 7.71429 12.4762ZM11.5238 12.4762C10.9905 12.4762 10.5714 12.0476 10.5714 11.5238C10.5714 11 10.9905 10.5714 11.5238 10.5714C12.0476 10.5714 12.4762 11 12.4762 11.5238C12.4762 12.0476 12.0571 12.4762 11.5238 12.4762Z" fill="#141414"/>
</svg>
