<svg width="24" height="24" viewBox="0 0 24 24" fill="none" xmlns="http://www.w3.org/2000/svg">
<path d="M17 2H7C4.24 2 2 4.23112 2 6.98249V13.966C2 16.7174 4.24 18.9485 7 18.9485H8.5C8.77 18.9485 9.13 19.1286 9.3 19.3487L10.8 21.3397C11.46 22.2201 12.54 22.2201 13.2 21.3397L14.7 19.3487C14.89 19.0985 15.19 18.9485 15.5 18.9485H17C19.76 18.9485 22 16.7174 22 13.966V6.98249C22 4.23112 19.76 2 17 2ZM15.66 14.5363C15.51 14.6863 15.32 14.7564 15.13 14.7564C14.94 14.7564 14.75 14.6863 14.6 14.5363L13.86 13.7959C13.28 14.1761 12.58 14.4062 11.83 14.4062C9.79 14.4062 8.13 12.7454 8.13 10.7044C8.13 8.66333 9.78 7.0025 11.83 7.0025C13.88 7.0025 15.53 8.66333 15.53 10.7044C15.53 11.4547 15.3 12.1551 14.92 12.7354L15.66 13.4757C15.95 13.7659 15.95 14.2461 15.66 14.5363Z" fill="#141414"/>
</svg>
