<svg width="24" height="24" viewBox="0 0 24 24" fill="none" xmlns="http://www.w3.org/2000/svg">
<path d="M18.6384 11.53C18.0728 11.38 17.4079 11.3 16.6141 11.3C15.5127 11.3 15.1058 11.57 14.5402 12C14.5105 12.02 14.4807 12.05 14.4509 12.08L13.5083 13.09C12.7244 13.94 11.2856 13.94 10.4917 13.09L9.54906 12.09C9.51929 12.05 9.48953 12.02 9.45976 12C8.88423 11.57 8.4774 11.3 7.38589 11.3C6.59206 11.3 5.92723 11.37 5.36163 11.53C3 12.17 3 14.06 3 15.72V16.65C3 19.16 3 22 8.30871 22H15.6913C19.2139 22 21 20.2 21 16.65V15.72C21 14.06 21 12.17 18.6384 11.53Z" fill="#141414"/>
<path d="M14.7685 2H9.23153C4.84564 2 4.84564 4.35 4.84564 6.42V10.12C4.88534 10.1 4.93495 10.09 4.97464 10.08C5.66924 9.89 6.45314 9.8 7.38589 9.8C8.914 9.8 9.63837 10.25 10.3528 10.8C10.452 10.87 10.5513 10.96 10.6406 11.06L11.5733 12.05C11.6725 12.16 11.8313 12.22 12 12.22C12.1687 12.22 12.3275 12.16 12.4168 12.06L13.3693 11.05C13.4487 10.97 13.538 10.88 13.6373 10.81C14.3716 10.25 15.086 9.8 16.6141 9.8C17.5469 9.8 18.3308 9.89 19.0254 10.08C19.0651 10.09 19.1147 10.1 19.1544 10.12V6.42C19.1544 4.35 19.1544 2 14.7685 2ZM13.538 8.5H10.462C10.0849 8.5 9.76736 8.18 9.76736 7.8C9.76736 7.41 10.0849 7.1 10.462 7.1H13.538C13.9151 7.1 14.2326 7.41 14.2326 7.8C14.2326 8.18 13.9151 8.5 13.538 8.5ZM14.312 5.71H9.68798C9.31091 5.71 9.00331 5.39 9.00331 5.01C9.00331 4.62 9.31091 4.31 9.68798 4.31H14.312C14.6891 4.31 14.9967 4.62 14.9967 5.01C14.9967 5.39 14.6891 5.71 14.312 5.71Z" fill="#141414"/>
</svg>
