<svg width="24" height="24" viewBox="0 0 24 24" fill="none" xmlns="http://www.w3.org/2000/svg">
<path d="M18.6384 11.53C18.0728 11.38 17.4079 11.3 16.6141 11.3C15.5127 11.3 15.1058 11.57 14.5402 12C14.5105 12.02 14.4807 12.05 14.4509 12.08L13.5083 13.09C12.7144 13.93 11.2856 13.94 10.4917 13.08L9.54906 12.08C9.51929 12.05 9.48953 12.02 9.45976 12C8.89416 11.57 8.48732 11.3 7.38589 11.3C6.59206 11.3 5.92723 11.38 5.36163 11.53C3 12.17 3 14.06 3 15.72V16.65C3 19.16 3 22 8.30871 22H15.6913C19.2139 22 21 20.2 21 16.65V15.72C21 14.06 21 12.17 18.6384 11.53ZM14.312 18.4H9.68798C9.31091 18.4 9.00331 18.09 9.00331 17.7C9.00331 17.31 9.31091 17 9.68798 17H14.312C14.6891 17 14.9967 17.31 14.9967 17.7C14.9967 18.09 14.6891 18.4 14.312 18.4Z" fill="#141414"/>
<path d="M19.1544 6.42V10.12C19.1147 10.1 19.0651 10.09 19.0254 10.08C18.3308 9.89 17.5469 9.8 16.6141 9.8C15.086 9.8 14.3716 10.25 13.6373 10.81C13.538 10.88 13.4487 10.97 13.3693 11.05L12.4168 12.06C12.3275 12.16 12.1687 12.22 12 12.22C11.8313 12.22 11.6725 12.16 11.5733 12.05L10.6406 11.06C10.5513 10.96 10.452 10.87 10.3528 10.8C9.63837 10.25 8.914 9.8 7.38589 9.8C6.45314 9.8 5.66924 9.89 4.97464 10.08C4.93495 10.09 4.88534 10.1 4.84564 10.12V6.42C4.84564 4.35 4.84564 2 9.23153 2H14.7685C19.1544 2 19.1544 4.35 19.1544 6.42Z" fill="#141414"/>
</svg>
