<svg width="24" height="24" viewBox="0 0 24 24" fill="none" xmlns="http://www.w3.org/2000/svg">
<path d="M5.80952 13.5294C3.70476 13.5294 2 15.3128 2 17.5147C2 18.2619 2.2 18.9693 2.55238 19.5671C3.20952 20.7229 4.41905 21.5 5.80952 21.5C7.2 21.5 8.40952 20.7229 9.06667 19.5671C9.41905 18.9693 9.61905 18.2619 9.61905 17.5147C9.61905 15.3128 7.91429 13.5294 5.80952 13.5294ZM7.68571 17.1859L5.65714 19.1487C5.52381 19.2782 5.34286 19.3479 5.17143 19.3479C4.99048 19.3479 4.80952 19.2782 4.66667 19.1287L3.72381 18.1424C3.44762 17.8534 3.44762 17.3752 3.72381 17.0863C4 16.7973 4.45714 16.7973 4.73333 17.0863L5.19048 17.5645L6.71429 16.0899C7 15.811 7.45714 15.8309 7.72381 16.1298C7.99048 16.4287 7.97143 16.9069 7.68571 17.1859Z" fill="#141414"/>
<path d="M17.4762 2.5H8.42857C5.71429 2.5 3.90476 4.39303 3.90476 7.23256V11.6762C3.90476 12.0249 4.24762 12.274 4.57143 12.1843C4.97143 12.0847 5.38095 12.0349 5.80952 12.0349C8.53333 12.0349 10.781 14.3464 11.0286 17.146C11.0476 17.425 11.2667 17.6442 11.5238 17.6442H12.0476L16.0762 20.4539C16.6667 20.8723 17.4762 20.414 17.4762 19.6568V17.6442C18.8286 17.6442 19.9619 17.166 20.7524 16.349C21.5429 15.5121 22 14.3264 22 12.9116V7.23256C22 4.39303 20.1905 2.5 17.4762 2.5ZM16.1238 10.8492H9.78095C9.40952 10.8492 9.10476 10.5304 9.10476 10.1418C9.10476 9.74331 9.40952 9.42449 9.78095 9.42449H16.1238C16.4952 9.42449 16.8 9.74331 16.8 10.1418C16.8 10.5304 16.4952 10.8492 16.1238 10.8492Z" fill="#141414"/>
</svg>
