<svg width="24" height="24" viewBox="0 0 24 24" fill="none" xmlns="http://www.w3.org/2000/svg">
<path d="M16.1971 2H7.8129C4.17108 2 2 4.17 2 7.81V16.18C2 19.83 4.17108 22 7.8129 22H16.1871C19.8289 22 22 19.83 22 16.19V7.81C22.01 4.17 19.8389 2 16.1971 2ZM18.2881 12.91C18.2881 13.11 18.2781 13.31 18.2581 13.5C18.078 15.62 16.8274 16.68 14.5262 16.68H14.2061C14.006 16.68 13.8159 16.77 13.7058 16.93L12.7654 18.19C12.3452 18.75 11.6748 18.75 11.2546 18.19L10.3141 16.93C10.2141 16.8 9.98398 16.68 9.81389 16.68H9.49373C6.98248 16.68 5.73186 16.06 5.73186 12.92V9.76C5.73186 7.46 6.79239 6.21 8.91344 6.03C9.08353 6.01 9.28363 6 9.49373 6H14.5262C17.0375 6 18.2881 7.26 18.2881 9.76V12.91Z" fill="#141414"/>
</svg>
