<svg width="24" height="24" viewBox="0 0 24 24" fill="none" xmlns="http://www.w3.org/2000/svg">
<path d="M13.2012 5.99351H6.79479C6.53453 5.99351 6.28428 6.00349 6.04404 6.03345C3.35135 6.26307 2 7.85049 2 10.7757V14.7693C2 18.7628 3.6016 19.5515 6.79479 19.5515H7.1952C7.41542 19.5515 7.70571 19.7012 7.83584 19.871L9.03704 21.4684C9.56757 22.1772 10.4284 22.1772 10.959 21.4684L12.1602 19.871C12.3103 19.6713 12.5506 19.5515 12.8008 19.5515H13.2012C16.1341 19.5515 17.7257 18.2137 17.956 15.518C17.986 15.2784 17.996 15.0288 17.996 14.7693V10.7757C17.996 7.59091 16.3944 5.99351 13.2012 5.99351ZM6.5045 13.9805C5.94394 13.9805 5.5035 13.5313 5.5035 12.9822C5.5035 12.433 5.95395 11.9838 6.5045 11.9838C7.05506 11.9838 7.50551 12.433 7.50551 12.9822C7.50551 13.5313 7.05506 13.9805 6.5045 13.9805ZM9.998 13.9805C9.43744 13.9805 8.997 13.5313 8.997 12.9822C8.997 12.433 9.44745 11.9838 9.998 11.9838C10.5485 11.9838 10.999 12.433 10.999 12.9822C10.999 13.5313 10.5586 13.9805 9.998 13.9805ZM13.5015 13.9805C12.9409 13.9805 12.5005 13.5313 12.5005 12.9822C12.5005 12.433 12.951 11.9838 13.5015 11.9838C14.0521 11.9838 14.5025 12.433 14.5025 12.9822C14.5025 13.5313 14.0521 13.9805 13.5015 13.9805Z" fill="#141414"/>
<path d="M22 6.78223V10.7757C22 12.7725 21.3794 14.1303 20.1381 14.8791C19.8378 15.0588 19.4875 14.8192 19.4875 14.4697L19.4975 10.7757C19.4975 6.78223 17.2052 4.49594 13.2012 4.49594L7.1051 4.50593C6.75475 4.50593 6.51451 4.1565 6.69469 3.85698C7.44545 2.61899 8.80681 2 10.7988 2H17.2052C20.3984 2 22 3.5974 22 6.78223Z" fill="#141414"/>
</svg>
