<svg width="24" height="24" viewBox="0 0 24 24" fill="none" xmlns="http://www.w3.org/2000/svg">
<path d="M5.80952 13.5294C4.91429 13.5294 4.08571 13.8582 3.42857 14.4061C2.55238 15.1335 2 16.2593 2 17.5147C2 19.7166 3.70476 21.5 5.80952 21.5C6.77143 21.5 7.64762 21.1214 8.32381 20.5037C9.11429 19.7764 9.61905 18.7103 9.61905 17.5147C9.61905 15.3128 7.91429 13.5294 5.80952 13.5294ZM6.7619 17.7638C6.7619 18.0228 6.62857 18.2719 6.41905 18.4014L5.22857 19.1487C5.11429 19.2284 4.98095 19.2583 4.85714 19.2583C4.61905 19.2583 4.38095 19.1287 4.24762 18.8996C4.04762 18.5409 4.15238 18.0826 4.49524 17.8734L5.34286 17.3453V16.2693C5.34286 15.8608 5.66667 15.522 6.05714 15.522C6.44762 15.522 6.7619 15.8608 6.7619 16.2693V17.7638Z" fill="#141414"/>
<path d="M17.4762 2.5H8.42857C5.71429 2.5 3.90476 4.39303 3.90476 7.23256V11.6762C3.90476 12.0249 4.24762 12.274 4.57143 12.1843C4.97143 12.0847 5.38095 12.0349 5.80952 12.0349C8.53333 12.0349 10.781 14.3464 11.0286 17.146C11.0476 17.425 11.2667 17.6442 11.5238 17.6442H12.0476L16.0762 20.4539C16.6667 20.8723 17.4762 20.414 17.4762 19.6568V17.6442C18.8286 17.6442 19.9619 17.166 20.7524 16.349C21.5429 15.5121 22 14.3264 22 12.9116V7.23256C22 4.39303 20.1905 2.5 17.4762 2.5ZM16.1238 10.8492H9.78095C9.40952 10.8492 9.10476 10.5304 9.10476 10.1418C9.10476 9.74331 9.40952 9.42449 9.78095 9.42449H16.1238C16.4952 9.42449 16.8 9.74331 16.8 10.1418C16.8 10.5304 16.4952 10.8492 16.1238 10.8492Z" fill="#141414"/>
</svg>
