<svg width="24" height="24" viewBox="0 0 24 24" fill="none" xmlns="http://www.w3.org/2000/svg">
<path d="M19.3494 7.30121C20.8133 7.30121 22 6.11449 22 4.6506C22 3.18672 20.8133 2 19.3494 2C17.8855 2 16.6988 3.18672 16.6988 4.6506C16.6988 6.11449 17.8855 7.30121 19.3494 7.30121Z" fill="#141414"/>
<path d="M18.4241 8.6506C16.9108 8.32289 15.6771 7.08916 15.3494 5.5759C15.2241 4.98795 15.2145 4.41928 15.3205 3.87952C15.4458 3.28193 15.0024 2.72289 14.3855 2.72289H6.81928C4.15904 2.72289 2 4.88193 2 7.54217V14.241C2 16.9012 4.15904 19.0602 6.81928 19.0602H8.26506C8.53494 19.0602 8.88193 19.2337 9.03614 19.4458L10.4819 21.3639C11.1181 22.212 12.159 22.212 12.7952 21.3639L14.241 19.4458C14.4241 19.2048 14.7036 19.0602 15.012 19.0602H16.4675C19.1277 19.0602 21.2771 16.9108 21.2771 14.2506V9.61446C21.2771 9.00723 20.7181 8.56386 20.1205 8.67952C19.5807 8.7759 19.012 8.7759 18.4241 8.6506ZM7.78313 12.3614C7.24337 12.3614 6.81928 11.9277 6.81928 11.3976C6.81928 10.8675 7.24337 10.4337 7.78313 10.4337C8.31325 10.4337 8.74699 10.8675 8.74699 11.3976C8.74699 11.9277 8.32289 12.3614 7.78313 12.3614ZM11.6386 12.3614C11.0988 12.3614 10.6747 11.9277 10.6747 11.3976C10.6747 10.8675 11.0988 10.4337 11.6386 10.4337C12.1687 10.4337 12.6024 10.8675 12.6024 11.3976C12.6024 11.9277 12.1783 12.3614 11.6386 12.3614ZM15.494 12.3614C14.9542 12.3614 14.5301 11.9277 14.5301 11.3976C14.5301 10.8675 14.9542 10.4337 15.494 10.4337C16.0241 10.4337 16.4578 10.8675 16.4578 11.3976C16.4578 11.9277 16.0337 12.3614 15.494 12.3614Z" fill="#141414"/>
</svg>
