<svg width="24" height="24" viewBox="0 0 24 24" fill="none" xmlns="http://www.w3.org/2000/svg">
<path d="M6.00952 13.4606C4.97143 13.3945 3.90476 13.7721 3.11429 14.5557C1.62857 16.0285 1.62857 18.4171 3.11429 19.8993C3.61905 20.3997 4.2381 20.7301 4.89524 20.8906C5.25714 20.985 5.63809 21.0134 6.01905 20.9945C6.92381 20.9567 7.80952 20.598 8.50476 19.9088C9.48571 18.9363 9.81905 17.5674 9.50476 16.3306C9.35238 15.6792 9.00952 15.0656 8.50476 14.5652C7.81905 13.876 6.92381 13.5078 6.00952 13.4606ZM7.94286 17.2087C7.94286 17.4069 7.86667 17.5769 7.73333 17.709C7.6 17.8412 7.42857 17.9167 7.22857 17.9167H6.52381V18.6531C6.52381 18.8514 6.44762 19.0213 6.31429 19.1535C6.18095 19.2857 6.00952 19.3612 5.80952 19.3612C5.41905 19.3612 5.09524 19.0402 5.09524 18.6531V17.9167H4.38095C3.99048 17.9167 3.66667 17.5957 3.66667 17.2087C3.66667 16.8216 3.99048 16.5006 4.38095 16.5006H5.09524V15.8303C5.09524 15.4432 5.41905 15.1222 5.80952 15.1222C6.2 15.1222 6.52381 15.4432 6.52381 15.8303V16.5006H7.22857C7.62857 16.5006 7.94286 16.8216 7.94286 17.2087Z" fill="#141414"/>
<path d="M17.4762 3H8.42857C5.71429 3 3.90476 4.79378 3.90476 7.48446V11.6951C3.90476 12.0256 4.24762 12.2616 4.57143 12.1766C4.97143 12.0822 5.38095 12.035 5.80952 12.035C8.53333 12.035 10.781 14.2253 11.0286 16.8782C11.0476 17.1426 11.2667 17.3503 11.5238 17.3503H12.0476L16.0762 20.0126C16.6667 20.4091 17.4762 19.9749 17.4762 19.2573V17.3503C18.8286 17.3503 19.9619 16.8971 20.7524 16.1229C21.5429 15.3299 22 14.2064 22 12.8658V7.48446C22 4.79378 20.1905 3 17.4762 3ZM16.1238 10.9115H9.78095C9.40952 10.9115 9.10476 10.6094 9.10476 10.2412C9.10476 9.86358 9.40952 9.56147 9.78095 9.56147H16.1238C16.4952 9.56147 16.8 9.86358 16.8 10.2412C16.8 10.6094 16.4952 10.9115 16.1238 10.9115Z" fill="#141414"/>
</svg>
