<svg width="24" height="24" viewBox="0 0 24 24" fill="none" xmlns="http://www.w3.org/2000/svg">
<path d="M20.835 12.5831H17.529C16.598 12.5831 15.7715 13.1036 15.3535 13.9518L14.5555 15.5518C14.3655 15.9374 13.9855 16.1783 13.5675 16.1783H10.4515C10.157 16.1783 9.739 16.1108 9.4635 15.5518L8.6655 13.9614C8.2475 13.1229 7.4115 12.5928 6.49 12.5928H3.165C2.7945 12.5928 2.5 12.8916 2.5 13.2675V16.4096C2.5 19.9084 4.571 22 8.029 22H15.99C19.2485 22 21.253 20.188 21.5 16.9687V13.2578C21.5 12.8916 21.2055 12.5831 20.835 12.5831Z" fill="#141414"/>
<path d="M12.7125 2.72289C12.7125 2.32771 12.3895 2 12 2C11.6105 2 11.2875 2.32771 11.2875 2.72289V4.6506H12.7125V2.72289Z" fill="#141414"/>
<path d="M21.5 10.2506V11.253C21.291 11.1759 21.063 11.1373 20.835 11.1373H17.529C16.0565 11.1373 14.736 11.9663 14.0805 13.2964L13.368 14.7229H10.651L9.9385 13.306C9.283 11.9663 7.9625 11.1373 6.49 11.1373H3.165C2.937 11.1373 2.709 11.1759 2.5 11.253V10.2506C2.5 6.74217 4.5615 4.6506 8.0195 4.6506H11.2875V7.7253L10.6035 7.03133C10.328 6.75181 9.872 6.75181 9.5965 7.03133C9.321 7.31084 9.321 7.77349 9.5965 8.05301L11.4965 9.98072C11.506 9.99036 11.5155 9.99036 11.5155 10C11.582 10.0578 11.6485 10.106 11.7245 10.1349C11.8195 10.1735 11.905 10.1928 12 10.1928C12.095 10.1928 12.1805 10.1735 12.266 10.1349C12.3515 10.106 12.437 10.0482 12.5035 9.98072L14.4035 8.05301C14.679 7.77349 14.679 7.31084 14.4035 7.03133C14.128 6.75181 13.672 6.75181 13.3965 7.03133L12.7125 7.7253V4.6506H15.9805C19.4385 4.6506 21.5 6.74217 21.5 10.2506Z" fill="#141414"/>
</svg>
