<svg width="24" height="24" viewBox="0 0 24 24" fill="none" xmlns="http://www.w3.org/2000/svg">
<path d="M16.3713 2.5H6.79042C3.91617 2.5 2 3.94377 2 7.31256V14.9742C2 17.1783 3.77245 18.959 5.96647 18.959H11.9641C12.5198 18.959 12.9988 18.4873 12.9413 17.9291C12.8072 16.4564 13.2862 14.8683 14.5892 13.5881C15.1257 13.0588 15.7868 12.6545 16.5054 12.4235C17.703 12.0385 18.8623 12.0866 19.8874 12.4428C20.5102 12.6545 21.1617 12.2021 21.1617 11.538V7.31256C21.1617 3.94377 19.2455 2.5 16.3713 2.5ZM16.8216 7.88045L13.8228 10.2867C13.1904 10.7969 12.3856 11.0471 11.5808 11.0471C10.776 11.0471 9.96168 10.7969 9.33892 10.2867L6.34012 7.88045C6.03353 7.63019 5.98563 7.17781 6.22515 6.86018C6.47425 6.55218 6.92455 6.49443 7.23114 6.74468L10.2299 9.15096C10.9581 9.7381 12.194 9.7381 12.9222 9.15096L15.921 6.74468C16.2275 6.49443 16.6874 6.54255 16.9269 6.86018C17.176 7.17781 17.1281 7.63019 16.8216 7.88045Z" fill="#141414"/>
<path d="M21.7844 20.2584L21.0659 19.5365C21.4395 18.9686 21.6599 18.2852 21.6599 17.5537C21.6599 15.5517 20.0503 13.9347 18.0575 13.9347C16.0647 13.9347 14.4551 15.5517 14.4551 17.5441C14.4551 19.5365 16.0647 21.1631 18.0575 21.1631C18.7856 21.1631 19.4659 20.9417 20.0311 20.5664L20.7497 21.2882C20.8934 21.4326 21.0754 21.5 21.2671 21.5C21.4587 21.5 21.6407 21.4326 21.7844 21.2882C22.0719 21.0091 22.0719 20.5471 21.7844 20.2584Z" fill="#141414"/>
</svg>
