<svg width="24" height="24" viewBox="0 0 24 24" fill="none" xmlns="http://www.w3.org/2000/svg">
<path d="M20.835 12.5877H17.529C16.598 12.5877 15.7715 13.1079 15.3535 13.9557L14.5555 15.5549C14.3655 15.9403 13.9855 16.1811 13.5675 16.1811H10.4515C10.157 16.1811 9.739 16.1137 9.4635 15.5549L8.6655 13.9653C8.2475 13.1272 7.4115 12.5973 6.49 12.5973H3.165C2.7945 12.5973 2.5 12.896 2.5 13.2717V16.4123C2.5 19.9094 4.571 22 8.029 22H15.99C19.2485 22 21.253 20.1888 21.5 16.9711V13.262C21.5 12.896 21.2055 12.5877 20.835 12.5877Z" fill="#141414"/>
<path d="M12.7125 4.47592L13.3965 5.16956C13.539 5.31407 13.7195 5.3815 13.9 5.3815C14.0805 5.3815 14.261 5.31407 14.4035 5.16956C14.679 4.89017 14.679 4.42775 14.4035 4.14836L12.5035 2.22158C12.494 2.21195 12.4845 2.21195 12.4845 2.20231C12.4275 2.14451 12.3515 2.09634 12.2755 2.0578C12.266 2.0578 12.266 2.0578 12.2565 2.04817C12.1805 2.01927 12.1045 2.00963 12.0285 2C12 2 11.981 2 11.9525 2C11.8955 2 11.8385 2.01927 11.7815 2.03854C11.753 2.04817 11.734 2.0578 11.715 2.06744C11.639 2.10597 11.563 2.14451 11.506 2.21195L9.606 4.13873C9.3305 4.41811 9.3305 4.88054 9.606 5.15992C9.8815 5.43931 10.3375 5.43931 10.613 5.15992L11.297 4.46628V5.62235H12.722V4.47592H12.7125Z" fill="#141414"/>
<path d="M21.5 11.2197V11.2582C21.291 11.1811 21.063 11.1426 20.835 11.1426H17.529C16.0565 11.1426 14.736 11.9711 14.0805 13.3006L13.368 14.7264H10.651L9.9385 13.3102C9.283 11.9711 7.9625 11.1426 6.49 11.1426H3.165C2.937 11.1426 2.709 11.1811 2.5 11.2582V11.2197C2.5 7.71291 4.5615 5.62235 8.0195 5.62235H11.2875V9.47592C11.2875 9.87091 11.6105 10.1985 12 10.1985C12.3895 10.1985 12.7125 9.87091 12.7125 9.47592V5.62235H15.9805C19.4385 5.62235 21.5 7.71291 21.5 11.2197Z" fill="#141414"/>
</svg>
