<svg width="24" height="24" viewBox="0 0 24 24" fill="none" xmlns="http://www.w3.org/2000/svg">
<path d="M19.4755 3.79668L19.7555 4.35131C19.8954 4.62376 20.2454 4.87675 20.5553 4.93513L20.9352 4.99352C22.0749 5.17839 22.3448 5.99575 21.525 6.80337L21.1751 7.14393C20.9452 7.37746 20.8152 7.82506 20.8852 8.13643L20.9352 8.34077C21.2451 9.68356 20.5153 10.1993 19.3156 9.49869L19.0557 9.35273C18.7457 9.17758 18.2459 9.17758 17.9359 9.35273L17.676 9.49869C16.4663 10.209 15.7365 9.68356 16.0564 8.34077L16.1064 8.13643C16.1764 7.82506 16.0464 7.37746 15.8165 7.14393L15.4666 6.79364C14.6468 5.98602 14.9167 5.16866 16.0564 4.98379L16.4363 4.9254C16.7362 4.87675 17.0962 4.61403 17.2361 4.34158L17.516 3.78695C18.0559 2.73607 18.9357 2.73607 19.4755 3.79668Z" fill="#141414"/>
<path d="M21.565 10.8707C21.2051 11.1237 20.1954 11.5907 18.7557 10.8707C18.5958 10.7928 18.3958 10.7831 18.2359 10.8707C17.666 11.1529 17.1461 11.2696 16.7362 11.2696C16.0964 11.2696 15.6465 11.0264 15.4266 10.8707C15.0567 10.6079 14.2769 9.85871 14.5468 8.27266C14.5768 8.10724 14.5268 7.94182 14.4168 7.81533C13.727 7.04663 13.3471 6.01521 13.617 5.20759C13.717 4.88648 13.5071 4.45835 13.1672 4.45835H6.99873C3.99949 4.45835 2 5.9179 2 9.32354V16.1348C2 19.5404 3.99949 21 6.99873 21H16.9962C19.9954 21 21.9949 19.5404 21.9949 16.1348V11.0458C21.9949 10.8609 21.725 10.7636 21.565 10.8707ZM14.3369 12.8167C13.677 13.3325 12.8372 13.5854 11.9975 13.5854C11.1577 13.5854 10.3079 13.3325 9.65805 12.8167L6.52885 10.3842C6.20893 10.1312 6.15894 9.6641 6.40888 9.35273C6.66881 9.04136 7.13869 8.98297 7.45861 9.23596L10.5878 11.6686C11.3476 12.2621 12.6373 12.2621 13.3971 11.6686C13.717 11.4156 14.1869 11.4642 14.4468 11.7853C14.7168 12.0967 14.6668 12.5638 14.3369 12.8167Z" fill="#141414"/>
</svg>
