<svg width="24" height="24" viewBox="0 0 24 24" fill="none" xmlns="http://www.w3.org/2000/svg">
<path d="M6.7619 12C4.13333 12 2 14.1185 2 16.75C2 19.3815 4.13333 21.5 6.7619 21.5C9.39048 21.5 11.5238 19.372 11.5238 16.75C11.5238 14.128 9.4 12 6.7619 12ZM4.81905 14.812H6.7619C7.12381 14.812 7.40952 15.1065 7.40952 15.458C7.40952 15.8095 7.12381 16.104 6.7619 16.104H4.81905C4.45714 16.104 4.17143 15.8095 4.17143 15.458C4.17143 15.1065 4.45714 14.812 4.81905 14.812ZM8.70476 18.688H4.81905C4.45714 18.688 4.17143 18.3935 4.17143 18.042C4.17143 17.6905 4.46667 17.396 4.81905 17.396H8.71429C9.07619 17.396 9.3619 17.6905 9.3619 18.042C9.3619 18.3935 9.06667 18.688 8.70476 18.688Z" fill="#141414"/>
<path d="M17.2381 2.5H7.71429C4.85714 2.5 2.95238 3.925 2.95238 7.25V10.233C2.95238 10.9265 3.66667 11.3635 4.30476 11.088C5.35238 10.632 6.54286 10.461 7.79048 10.6605C10.2857 11.069 12.3238 13.0355 12.8286 15.5055C12.9714 16.2275 12.9905 16.9305 12.8952 17.605C12.819 18.1655 13.2762 18.6595 13.8381 18.6595H17.2381C20.0952 18.6595 22 17.2345 22 13.9095V7.25C22 3.925 20.0952 2.5 17.2381 2.5ZM17.6857 7.8105L14.7048 10.1855C14.0762 10.689 13.2762 10.936 12.4762 10.936C11.6762 10.936 10.8667 10.689 10.2476 10.1855L7.26667 7.8105C6.96191 7.5635 6.91429 7.1075 7.15238 6.8035C7.4 6.4995 7.84762 6.4425 8.15238 6.6895L11.1333 9.0645C11.8571 9.644 13.0857 9.644 13.8095 9.0645L16.7905 6.6895C17.0952 6.4425 17.5524 6.49 17.7905 6.8035C18.0381 7.1075 17.9905 7.5635 17.6857 7.8105Z" fill="#141414"/>
</svg>
