<svg width="24" height="24" viewBox="0 0 24 24" fill="none" xmlns="http://www.w3.org/2000/svg">
<path d="M17 2H7C4.24 2 2 4.23112 2 6.98249V13.966C2 16.7174 4.24 18.9485 7 18.9485H8.5C8.77 18.9485 9.13 19.1286 9.3 19.3487L10.8 21.3397C11.46 22.2201 12.54 22.2201 13.2 21.3397L14.7 19.3487C14.89 19.0985 15.19 18.9485 15.5 18.9485H17C19.76 18.9485 22 16.7174 22 13.966V6.98249C22 4.23112 19.76 2 17 2ZM13 13.7559H7C6.59 13.7559 6.25 13.4157 6.25 13.0055C6.25 12.5953 6.59 12.2551 7 12.2551H13C13.41 12.2551 13.75 12.5953 13.75 13.0055C13.75 13.4157 13.41 13.7559 13 13.7559ZM17 8.75338H7C6.59 8.75338 6.25 8.41321 6.25 8.003C6.25 7.5928 6.59 7.25263 7 7.25263H17C17.41 7.25263 17.75 7.5928 17.75 8.003C17.75 8.41321 17.41 8.75338 17 8.75338Z" fill="#141414"/>
</svg>
