<svg width="24" height="24" viewBox="0 0 24 24" fill="none" xmlns="http://www.w3.org/2000/svg">
<path d="M19.5 8.14286C20.8807 8.14286 22 6.99159 22 5.57143C22 4.15127 20.8807 3 19.5 3C18.1193 3 17 4.15127 17 5.57143C17 6.99159 18.1193 8.14286 19.5 8.14286Z" fill="#141414"/>
<path d="M19.5 8.14286C20.8807 8.14286 22 6.99159 22 5.57143C22 4.15127 20.8807 3 19.5 3C18.1193 3 17 4.15127 17 5.57143C17 6.99159 18.1193 8.14286 19.5 8.14286Z" fill="#141414"/>
<path d="M20.72 9.49029C20.02 9.71657 19.25 9.75771 18.45 9.552C17.11 9.192 16.02 8.09143 15.65 6.71314C15.47 6.04457 15.46 5.38629 15.57 4.78971C15.7 4.13143 15.25 3.51429 14.61 3.51429H7C4 3.51429 2 5.05714 2 8.65714V15.8571C2 19.4571 4 21 7 21H17C20 21 22 19.4571 22 15.8571V10.4674C22 9.78857 21.36 9.27429 20.72 9.49029ZM15.52 11.3829L14.34 12.3497C13.68 12.8949 12.84 13.1623 12 13.1623C11.16 13.1623 10.31 12.8949 9.66 12.3497L6.53 9.77829C6.21 9.51086 6.16 9.01714 6.41 8.688C6.67 8.35886 7.14 8.29714 7.46 8.56457L10.59 11.136C11.35 11.7634 12.64 11.7634 13.4 11.136L14.58 10.1691C14.9 9.90171 15.38 9.95314 15.63 10.2926C15.89 10.6217 15.84 11.1154 15.52 11.3829Z" fill="#141414"/>
</svg>
