<svg width="24" height="24" viewBox="0 0 24 24" fill="none" xmlns="http://www.w3.org/2000/svg">
<path d="M20.5278 6.75H15.5203C15.1097 6.75 14.7692 6.41 14.7692 6C14.7692 5.59 15.1097 5.25 15.5203 5.25H20.5278C20.9384 5.25 21.2789 5.59 21.2789 6C21.2789 6.41 20.9384 6.75 20.5278 6.75Z" fill="#141414"/>
<path d="M11.0636 14.95L9.21082 16.8C8.82023 17.19 8.1993 17.19 7.7987 16.81C7.68853 16.7 7.57837 16.6 7.4682 16.49C6.43666 15.45 5.50526 14.36 4.67401 13.22C3.85278 12.08 3.19179 10.94 2.71107 9.81C2.24036 8.67 2 7.58 2 6.54C2 5.86 2.12018 5.21 2.36054 4.61C2.6009 4 2.98147 3.44 3.51227 2.94C4.15323 2.31 4.85428 2 5.59539 2C5.87581 2 6.15623 2.06 6.40661 2.18C6.667 2.3 6.89735 2.48 7.07762 2.74L9.4011 6.01C9.58137 6.26 9.71157 6.49 9.8017 6.71C9.89184 6.92 9.94191 7.13 9.94191 7.32C9.94191 7.56 9.87181 7.8 9.7316 8.03C9.6014 8.26 9.41112 8.5 9.17076 8.74L8.40961 9.53C8.29945 9.64 8.24937 9.77 8.24937 9.93C8.24937 10.01 8.25939 10.08 8.27942 10.16C8.30946 10.24 8.33951 10.3 8.35954 10.36C8.53981 10.69 8.85028 11.12 9.29094 11.64C9.74161 12.16 10.2223 12.69 10.7431 13.22C10.8433 13.32 10.9534 13.42 11.0536 13.52C11.4542 13.91 11.4642 14.55 11.0636 14.95Z" fill="#141414"/>
<path d="M22 18.33C22 18.61 21.9499 18.9 21.8498 19.18C21.8197 19.26 21.7897 19.34 21.7496 19.42C21.5794 19.78 21.359 20.12 21.0686 20.44C20.5779 20.98 20.0371 21.37 19.4261 21.62C19.4161 21.62 19.4061 21.63 19.3961 21.63C18.8052 21.87 18.1642 22 17.4732 22C16.4517 22 15.36 21.76 14.2083 21.27C13.0566 20.78 11.9049 20.12 10.7631 19.29C10.3726 19 9.98197 18.71 9.61142 18.4L12.8863 15.13C13.1667 15.34 13.4171 15.5 13.6274 15.61C13.6775 15.63 13.7376 15.66 13.8077 15.69C13.8878 15.72 13.968 15.73 14.0581 15.73C14.2283 15.73 14.3585 15.67 14.4687 15.56L15.2298 14.81C15.4802 14.56 15.7206 14.37 15.9509 14.25C16.1813 14.11 16.4116 14.04 16.662 14.04C16.8523 14.04 17.0526 14.08 17.2729 14.17C17.4932 14.26 17.7236 14.39 17.974 14.56L21.2889 16.91C21.5493 17.09 21.7296 17.3 21.8398 17.55C21.9399 17.8 22 18.05 22 18.33Z" fill="#141414"/>
</svg>
