<svg width="24" height="24" viewBox="0 0 24 24" fill="none" xmlns="http://www.w3.org/2000/svg">
<path d="M16 12.7198V18.1098C16 20.4498 14.44 21.9998 12.11 21.9998H5.89C3.56 21.9998 2 20.4498 2 18.1098V10.3398C2 7.99976 3.56 6.44976 5.89 6.44976H9.72C10.75 6.44976 11.74 6.85976 12.47 7.58976L14.86 9.96976C15.59 10.6998 16 11.6898 16 12.7198Z" fill="#141414"/>
<path d="M22 8.27976V13.6698C22 15.9998 20.44 17.5598 18.11 17.5598H17V12.7198C17 11.4298 16.48 10.1698 15.57 9.25976L13.18 6.87976C12.27 5.96976 11.01 5.44976 9.72 5.44976H8.02C8.2 3.36976 9.71 1.99976 11.89 1.99976H15.72C16.75 1.99976 17.74 2.40976 18.47 3.13976L20.86 5.52976C21.59 6.25976 22 7.24976 22 8.27976Z" fill="#141414"/>
</svg>
