<svg width="24" height="24" viewBox="0 0 24 24" fill="none" xmlns="http://www.w3.org/2000/svg">
<path d="M14.1211 11.7253C14.5094 10.1446 13.0854 8.76626 11.4523 9.14217C10.6855 9.3253 10.0582 9.93253 9.86897 10.6747C9.48061 12.2554 10.9046 13.6337 12.5377 13.2578C13.3145 13.0747 13.9418 12.4675 14.1211 11.7253Z" fill="#141414"/>
<path d="M6.04507 18.1157C5.86583 18.1157 5.67662 18.0482 5.53721 17.9229C3.60535 16.188 2.5 13.7398 2.5 11.1952C2.5 6.1253 6.76205 2 12 2C17.2379 2 21.5 6.1253 21.5 11.1952C21.5 13.759 20.4345 16.1301 18.5026 17.894C18.2039 18.1639 17.7259 18.1542 17.4471 17.8651C17.1682 17.5759 17.1782 17.1133 17.4769 16.8434C19.1101 15.359 20.0063 13.3639 20.0063 11.2048C20.0063 6.93494 16.4114 3.45542 12 3.45542C7.58857 3.45542 3.99371 6.93494 3.99371 11.2048C3.99371 13.3831 4.8999 15.388 6.55293 16.8723C6.85168 17.1422 6.87159 17.6048 6.59277 17.894C6.4434 18.0386 6.24423 18.1157 6.04507 18.1157Z" fill="#141414"/>
<path d="M15.9832 15.5422C15.804 15.5422 15.6148 15.4747 15.4754 15.3494C15.1766 15.0795 15.1567 14.6169 15.4455 14.3277C16.272 13.4795 16.7301 12.3614 16.7301 11.2048C16.7301 8.67952 14.609 6.63614 12.01 6.63614C9.4109 6.63614 7.28983 8.68916 7.28983 11.2048C7.28983 12.3711 7.7479 13.4795 8.57442 14.3277C8.85325 14.6169 8.84329 15.0795 8.54455 15.3494C8.24581 15.6289 7.76782 15.6096 7.48899 15.3205C6.40356 14.2024 5.79612 12.7373 5.79612 11.2048C5.79612 7.88916 8.58438 5.19036 12.01 5.19036C15.4355 5.19036 18.2238 7.88916 18.2238 11.2048C18.2238 12.7373 17.6263 14.2024 16.5309 15.3205C16.3815 15.4651 16.1824 15.5422 15.9832 15.5422Z" fill="#141414"/>
<path d="M10.3071 16.853L8.87316 18.5783C7.73794 19.9566 8.75367 22 10.566 22H13.424C15.2463 22 16.2621 19.9566 15.1169 18.588L13.6829 16.8627C12.8265 15.8024 11.1735 15.8024 10.3071 16.853Z" fill="#141414"/>
</svg>
