<svg width="24" height="24" viewBox="0 0 24 24" fill="none" xmlns="http://www.w3.org/2000/svg">
<path d="M15.0734 11.34H8.91662C8.27696 11.34 7.64729 11.08 7.19753 10.62C7.0576 10.48 6.93766 10.33 6.83772 10.16C6.65781 9.86 6.33798 9.67 5.98816 9.67H3.49947C2.94976 9.67 2.5 10.12 2.5 10.67V17.5C2.5 19.99 4.50894 22 6.99763 22H16.9924C19.4811 22 21.49 19.99 21.49 17.5V10.67C21.49 10.12 21.0402 9.67 20.4905 9.67H17.9918C17.632 9.67 17.3122 9.87 17.1323 10.18C16.7125 10.87 15.9429 11.34 15.0734 11.34Z" fill="#141414"/>
<path d="M16.9924 2H6.99763C4.50894 2 2.5 4.01 2.5 6.5V7.17C2.5 7.72 2.94976 8.17 3.49947 8.17H5.99816C6.35797 8.17 6.6778 7.97 6.85771 7.66C7.27749 6.97 8.04708 6.5 8.91662 6.5H14.9035C15.5132 6.5 16.3927 6.82 16.8125 7.25C16.9424 7.38 17.0423 7.52 17.1423 7.67C17.3222 7.97 17.642 8.17 18.0018 8.17H20.5005C21.0502 8.17 21.5 7.72 21.5 7.17V6.5C21.49 4.01 19.4811 2 16.9924 2Z" fill="#141414"/>
</svg>
