<svg width="24" height="24" viewBox="0 0 24 24" fill="none" xmlns="http://www.w3.org/2000/svg">
<path d="M7.8865 2H6.091C5.103 2 4.21 2.40482 3.5545 3.06988C2.899 3.73494 2.5 4.64096 2.5 5.64337C2.5 7.64819 4.115 9.28675 6.091 9.28675H6.984V16.5639C6.984 17.2675 7.383 17.8747 7.9625 18.1735C8.2 18.3084 8.485 18.3855 8.7795 18.3855C8.9885 18.3855 9.1975 18.347 9.3875 18.2699C10.081 18.0193 10.575 17.3542 10.575 16.5639V4.72771C10.575 3.23373 9.359 2 7.8865 2ZM6.091 5.82651C6.4805 5.82651 6.8035 6.15422 6.8035 6.5494C6.8035 6.94458 6.4805 7.27229 6.091 7.27229C5.2075 7.27229 4.4855 6.53976 4.4855 5.63373C4.4855 4.72771 5.2075 4.00482 6.091 4.00482C6.4805 4.00482 6.8035 4.33253 6.8035 4.72771C6.8035 5.12289 6.4805 5.4506 6.091 5.4506C5.9865 5.4506 5.9105 5.53735 5.9105 5.63373C5.9105 5.73012 5.9865 5.82651 6.091 5.82651Z" fill="#141414"/>
<path d="M20.4455 3.06988C19.79 2.40482 18.897 2 17.909 2H16.1135C14.6315 2 13.425 3.23373 13.425 4.72771V16.5639C13.425 17.3542 13.919 18.0193 14.6125 18.2699C14.8025 18.347 15.0115 18.3855 15.2205 18.3855C15.515 18.3855 15.8 18.3084 16.0375 18.1735C16.617 17.8747 17.016 17.2675 17.016 16.5639V9.28675H17.909C19.885 9.28675 21.5 7.64819 21.5 5.64337C21.5 4.64096 21.101 3.73494 20.4455 3.06988ZM17.909 7.27229C17.5195 7.27229 17.1965 6.94458 17.1965 6.5494C17.1965 6.15422 17.5195 5.82651 17.909 5.82651C18.0135 5.82651 18.0895 5.73976 18.0895 5.63373C18.0895 5.52771 18.004 5.4506 17.909 5.4506C17.5195 5.4506 17.1965 5.12289 17.1965 4.72771C17.1965 4.33253 17.5195 4.00482 17.909 4.00482C18.7925 4.00482 19.5145 4.73735 19.5145 5.63373C19.5145 6.53012 18.802 7.27229 17.909 7.27229Z" fill="#141414"/>
<path d="M9.3875 18.2699V21.2771C9.3875 21.6723 9.0645 22 8.675 22C8.2855 22 7.9625 21.6723 7.9625 21.2771V18.1735C8.2 18.3084 8.485 18.3855 8.7795 18.3855C8.9885 18.3855 9.1975 18.347 9.3875 18.2699Z" fill="#141414"/>
<path d="M16.0375 18.1735V21.2771C16.0375 21.6723 15.7145 22 15.325 22C14.9355 22 14.6125 21.6723 14.6125 21.2771V18.2699C14.8025 18.347 15.0115 18.3855 15.2205 18.3855C15.515 18.3855 15.8 18.3084 16.0375 18.1735Z" fill="#141414"/>
</svg>
