<svg width="24" height="24" viewBox="0 0 24 24" fill="none" xmlns="http://www.w3.org/2000/svg">
<path d="M12.3051 17.32L14.6163 15.39L12.3051 13.3V17.32Z" fill="#141414"/>
<path d="M12.3051 6.68V10.64L14.6163 8.52L12.3051 6.68Z" fill="#141414"/>
<path d="M16.1971 2H7.8129C4.17108 2 2 4.17 2 7.81V16.18C2 19.83 4.17108 22 7.8129 22H16.1871C19.8289 22 22 19.83 22 16.19V7.81C22.01 4.17 19.8389 2 16.1971 2ZM5.25162 12C5.25162 11.24 5.87193 10.62 6.63231 10.62C7.39269 10.62 8.00299 11.24 8.00299 12C8.00299 12.76 7.38268 13.38 6.6223 13.38C5.86192 13.38 5.25162 12.76 5.25162 12ZM15.5768 16.54L13.1656 18.55C12.7554 18.9 12.3752 19 12.085 19C11.8549 19 11.6748 18.94 11.5748 18.89C11.3447 18.78 10.8044 18.43 10.8044 17.45V14.06L7.90294 16.71C7.60279 16.99 7.12255 16.97 6.84241 16.66C6.56227 16.35 6.58228 15.88 6.89244 15.6L10.8044 12.02V11.94L6.89244 8.4C6.58228 8.12 6.56227 7.65 6.84241 7.34C7.12255 7.04 7.60279 7.01 7.90294 7.29L10.8044 9.94V6.56C10.8044 5.58 11.3447 5.22 11.5748 5.12C11.8049 5.01 12.4252 4.83 13.1756 5.46L15.5868 7.47C15.9169 7.74 16.107 8.13 16.117 8.54C16.127 8.95 15.957 9.35 15.6468 9.64L13.0455 12L15.6368 14.37C15.9469 14.66 16.127 15.06 16.117 15.47C16.097 15.88 15.9069 16.27 15.5768 16.54ZM17.3877 13.38C16.6273 13.38 16.007 12.76 16.007 12C16.007 11.24 16.6273 10.62 17.3877 10.62C18.148 10.62 18.7684 11.24 18.7684 12C18.7684 12.76 18.138 13.38 17.3877 13.38Z" fill="#141414"/>
</svg>
