<svg width="24" height="24" viewBox="0 0 24 24" fill="none" xmlns="http://www.w3.org/2000/svg">
<path d="M12.9354 10.64L15.2666 8.51L12.9354 6.64V10.64Z" fill="#141414"/>
<path d="M16.1971 2H7.8129C4.17108 2 2 4.17 2 7.81V16.18C2 19.83 4.17108 22 7.8129 22H16.1871C19.8289 22 22 19.83 22 16.19V7.81C22.01 4.17 19.8389 2 16.1971 2ZM16.2771 14.39C16.5873 14.68 16.7674 15.08 16.7574 15.49C16.7473 15.9 16.5573 16.29 16.2271 16.57L13.8059 18.59C13.3857 18.94 13.0055 19.04 12.7153 19.04C12.4852 19.04 12.3051 18.98 12.2051 18.93C11.975 18.82 11.4347 18.46 11.4347 17.48V14.06L8.51325 16.74C8.2131 17.02 7.73286 17 7.45272 16.69C7.17258 16.38 7.19259 15.91 7.50274 15.63L11.4347 12.03V11.95L7.49274 8.38C7.19259 8.1 7.17258 7.62 7.45272 7.32C7.73286 7.02 8.2131 6.99 8.51325 7.27L11.4347 9.95V6.53C11.4347 5.55 11.975 5.19 12.2051 5.08C12.4352 4.97 13.0555 4.79 13.8059 5.42L16.2271 7.44C16.5573 7.71 16.7473 8.11 16.7574 8.52C16.7674 8.93 16.5973 9.33 16.2771 9.62L13.6758 12L16.2771 14.39Z" fill="#141414"/>
<path d="M12.9354 17.36L15.2666 15.41L12.9354 13.3V17.36Z" fill="#141414"/>
</svg>
