<svg width="24" height="24" viewBox="0 0 24 24" fill="none" xmlns="http://www.w3.org/2000/svg">
<path d="M11.9973 11.4792C9.209 11.4792 6.94603 13.7239 6.94603 16.4896C6.94603 17.2312 7.10767 17.9326 7.41075 18.5539C7.49157 18.7343 7.58249 18.9046 7.68352 19.065C8.55234 20.518 10.1586 21.5 11.9973 21.5C13.836 21.5 15.4423 20.518 16.3111 19.065C16.4121 18.9046 16.5031 18.7343 16.5839 18.5539C16.8869 17.9326 17.0486 17.2312 17.0486 16.4896C17.0486 13.7239 14.7856 11.4792 11.9973 11.4792ZM13.5127 18.103C13.3612 18.2533 13.1692 18.3234 12.9773 18.3234C12.7853 18.3234 12.5934 18.2533 12.4418 18.103L11.9064 17.5719L11.3507 18.123C11.1992 18.2733 11.0073 18.3435 10.8153 18.3435C10.6234 18.3435 10.4314 18.2733 10.2799 18.123C9.9869 17.8324 9.9869 17.3514 10.2799 17.0608L10.8355 16.5097L10.3001 15.9786C10.0071 15.688 10.0071 15.207 10.3001 14.9164C10.5931 14.6258 11.078 14.6258 11.371 14.9164L11.9064 15.4475L12.4115 14.9464C12.7045 14.6558 13.1894 14.6558 13.4824 14.9464C13.7754 15.237 13.7754 15.718 13.4824 16.0086L12.9773 16.5097L13.5127 17.0408C13.8057 17.3414 13.8057 17.8124 13.5127 18.103Z" fill="#141414"/>
<path d="M20.2814 17.2512C19.9177 17.5719 19.5237 17.8424 19.0994 18.0629C18.7357 18.2433 18.372 17.8925 18.4326 17.4917C18.473 17.2011 18.4933 16.9005 18.4933 16.5898C18.4933 13.0024 15.5433 10.0763 11.9266 10.0763C8.30988 10.0763 5.35993 13.0024 5.35993 16.5898C5.35993 17.0508 5.41044 17.4917 5.50137 17.9226C5.57208 18.2733 5.29932 18.624 4.94573 18.5339C0.955216 17.5719 0.935011 11.4792 5.40034 11.1586H5.45085C2.20793 2.22005 15.8868 -1.35737 17.4527 8.04211C21.8271 8.59326 23.595 14.3752 20.2814 17.2512Z" fill="#141414"/>
</svg>
