<svg width="24" height="24" viewBox="0 0 24 24" fill="none" xmlns="http://www.w3.org/2000/svg">
<path d="M19.0491 14.1719C18.2073 14.9242 17.0915 15.3432 15.9464 15.3337H6.49139C2.50777 15.0575 2.49798 9.42925 6.49139 9.15308H6.53054C3.79975 1.763 15.3395 -1.1797 16.6609 6.57226C20.3509 7.02938 21.8484 11.8006 19.0491 14.1719Z" fill="#141414"/>
<path d="M18.6086 20.0953C18.6086 20.4858 18.2758 20.8096 17.8746 20.8096H13.9594C13.9105 20.8096 13.8714 20.8096 13.8224 20.7905C13.5386 21.4953 12.8241 22 12.0019 22C11.1797 22 10.4652 21.4953 10.1814 20.7905C10.1324 20.8096 10.0933 20.8096 10.0443 20.8096H6.12924C5.72794 20.8096 5.39516 20.4858 5.39516 20.0953C5.39516 19.7049 5.72794 19.3811 6.12924 19.3811H10.0443C10.0933 19.3811 10.1324 19.3811 10.1814 19.4001C10.3771 18.9049 10.7784 18.5145 11.2874 18.324C11.2678 18.2764 11.2678 18.2383 11.2678 18.1907V15.3337H12.736V18.1907C12.736 18.2383 12.736 18.2764 12.7164 18.324C13.2254 18.5145 13.6267 18.9049 13.8224 19.4001C13.8714 19.3811 13.9105 19.3811 13.9594 19.3811H17.8746C18.2758 19.3811 18.6086 19.7049 18.6086 20.0953Z" fill="#141414"/>
</svg>
