<svg width="24" height="24" viewBox="0 0 24 24" fill="none" xmlns="http://www.w3.org/2000/svg">
<path d="M11.9973 11.5938C9.209 11.5938 6.94603 13.8128 6.94603 16.5469C6.94603 17.28 7.10767 17.9734 7.41075 18.5876C7.49157 18.7659 7.58249 18.9343 7.68352 19.0928C8.55234 20.5292 10.1586 21.5 11.9973 21.5C13.836 21.5 15.4423 20.5292 16.3111 19.0928C16.4121 18.9343 16.5031 18.7659 16.5839 18.5876C16.8869 17.9734 17.0486 17.28 17.0486 16.5469C17.0486 13.8128 14.7856 11.5938 11.9973 11.5938ZM14.0885 16.1209L11.9367 18.0725C11.7953 18.2012 11.6033 18.2706 11.4215 18.2706C11.2295 18.2706 11.0376 18.2012 10.886 18.0526L9.88588 17.0719C9.5929 16.7847 9.5929 16.3092 9.88588 16.0219C10.1788 15.7346 10.6638 15.7346 10.9567 16.0219L11.4417 16.4974L13.0581 15.0313C13.3713 14.7539 13.8461 14.7737 14.1289 15.0709C14.4118 15.3681 14.3916 15.8337 14.0885 16.1209Z" fill="#141414"/>
<path d="M20.2814 17.0818C19.9177 17.3988 19.5237 17.6663 19.0994 17.8842C18.7357 18.0626 18.372 17.7158 18.4326 17.3196C18.473 17.0323 18.4933 16.7351 18.4933 16.428C18.4933 12.8816 15.5433 9.98901 11.9266 9.98901C8.30988 9.98901 5.35993 12.8816 5.35993 16.428C5.35993 16.8837 5.41044 17.3196 5.50137 17.7456C5.57208 18.0923 5.29932 18.439 4.94573 18.3498C0.955216 17.3988 0.935011 11.3759 5.40034 11.0688H5.45085C2.20793 2.22256 15.8868 -1.31395 17.4527 7.97805C21.8271 8.52289 23.595 14.2388 20.2814 17.0818Z" fill="#141414"/>
</svg>
