<svg width="24" height="24" viewBox="0 0 24 24" fill="none" xmlns="http://www.w3.org/2000/svg">
<path d="M8.3814 11.8605C5.75814 12.0465 5.76744 15.8605 8.3814 16.0465H14.586C15.3395 16.0558 16.0651 15.7674 16.6233 15.2651C18.4651 13.6558 17.4791 10.4279 15.0605 10.1209C14.1953 4.87442 6.61395 6.86512 8.4093 11.8605" fill="#141414"/>
<path d="M9.2093 22C5.23721 22 2 18.7628 2 14.7907C2 14.4093 2.31628 14.093 2.69767 14.093C3.07907 14.093 3.39535 14.4093 3.39535 14.7907C3.39535 17.5442 5.31163 19.8512 7.88837 20.4558L7.63721 20.0372C7.44186 19.7023 7.54419 19.2744 7.87907 19.0791C8.20465 18.8837 8.64186 18.986 8.83721 19.3209L9.81395 20.9488C9.94419 21.1628 9.94419 21.4326 9.82326 21.6465C9.69302 21.8605 9.46047 22 9.2093 22Z" fill="#141414"/>
<path d="M21.3023 9.90698C20.9209 9.90698 20.6047 9.5907 20.6047 9.2093C20.6047 6.45581 18.6884 4.14884 16.1116 3.54419L16.3628 3.96279C16.5581 4.29767 16.4558 4.72558 16.1209 4.92093C15.7953 5.11628 15.3581 5.01395 15.1628 4.67907L14.186 3.05116C14.0558 2.83721 14.0558 2.56744 14.1767 2.35349C14.307 2.13953 14.5395 2 14.7907 2C18.7628 2 22 5.23721 22 9.2093C22 9.5907 21.6837 9.90698 21.3023 9.90698Z" fill="#141414"/>
</svg>
