<svg width="24" height="24" viewBox="0 0 24 24" fill="none" xmlns="http://www.w3.org/2000/svg">
<path d="M16.5 2H7.5C5.29 2 3.5 3.79 3.5 6V13.25C3.5 13.8 3.95 14.25 4.5 14.25H19.5C20.05 14.25 20.5 13.8 20.5 13.25V6C20.5 3.79 18.71 2 16.5 2ZM7.5 12.75H6.5C6.09 12.75 5.75 12.41 5.75 12C5.75 11.59 6.09 11.25 6.5 11.25H7.5C7.91 11.25 8.25 11.59 8.25 12C8.25 12.41 7.91 12.75 7.5 12.75ZM7.5 10.25H6.5C6.09 10.25 5.75 9.91 5.75 9.5C5.75 9.09 6.09 8.75 6.5 8.75H7.5C7.91 8.75 8.25 9.09 8.25 9.5C8.25 9.91 7.91 10.25 7.5 10.25ZM7.5 7.75H6.5C6.09 7.75 5.75 7.41 5.75 7C5.75 6.59 6.09 6.25 6.5 6.25H7.5C7.91 6.25 8.25 6.59 8.25 7C8.25 7.41 7.91 7.75 7.5 7.75Z" fill="#141414"/>
<path d="M3.5 16.75V18C3.5 20.21 5.29 22 7.5 22H16.5C18.71 22 20.5 20.21 20.5 18V16.75C20.5 16.2 20.05 15.75 19.5 15.75H4.5C3.95 15.75 3.5 16.2 3.5 16.75ZM17.21 19.46C17.02 19.64 16.76 19.75 16.5 19.75C16.24 19.75 15.98 19.64 15.79 19.46C15.61 19.27 15.5 19.01 15.5 18.75C15.5 18.49 15.61 18.23 15.79 18.04C16.16 17.67 16.83 17.67 17.21 18.04C17.39 18.23 17.5 18.49 17.5 18.75C17.5 19.01 17.39 19.27 17.21 19.46Z" fill="#141414"/>
</svg>
