<svg width="24" height="24" viewBox="0 0 24 24" fill="none" xmlns="http://www.w3.org/2000/svg">
<path d="M8.5 12.0729C8.09 12.0729 7.75 11.7353 7.75 11.3283V5.37203C7.75 4.96502 8.09 4.6275 8.5 4.6275C8.91 4.6275 9.25 4.96502 9.25 5.37203V11.3283C9.25 11.7353 8.91 12.0729 8.5 12.0729Z" fill="#141414"/>
<path d="M8.5 22C8.09 22 7.75 21.6625 7.75 21.2555V17.2846C7.75 16.8776 8.09 16.5401 8.5 16.5401C8.91 16.5401 9.25 16.8776 9.25 17.2846V21.2555C9.25 21.6625 8.91 22 8.5 22Z" fill="#141414"/>
<path d="M15.5 22C15.09 22 14.75 21.6625 14.75 21.2555V5.37203C14.75 4.96502 15.09 4.6275 15.5 4.6275C15.91 4.6275 16.25 4.96502 16.25 5.37203V21.2555C16.25 21.6625 15.91 22 15.5 22Z" fill="#141414"/>
<path d="M10.1 4.67713C10.1 5.16356 9.9 5.61028 9.57 5.93788C9.24 6.26548 8.79 6.46402 8.3 6.46402H6.05C6.33 6.09671 6.5 5.62021 6.5 5.12385V4.23041C6.5 3.73405 6.33 3.25755 6.05 2.89025H8.3C9.29 2.89025 10.1 3.69434 10.1 4.67713Z" fill="#141414"/>
<path d="M6.5 4.23041V5.12385C6.5 5.62021 6.33 6.09671 6.05 6.46402C5.29 7.46666 3.73 7.80418 2.28 6.52358C2.12 6.3846 2 6.08679 2 5.87832V3.55536C2 3.35682 2.1 3.08879 2.23 2.94981C3.49 1.63943 5.01 1.82804 5.84 2.65199C5.91 2.72148 5.99 2.8009 6.05 2.89025C6.33 3.25755 6.5 3.73405 6.5 4.23041Z" fill="#141414"/>
<path d="M13.9 4.67713C13.9 5.16356 14.1 5.61028 14.43 5.93788C14.76 6.26548 15.21 6.46402 15.7 6.46402H17.95C17.67 6.09671 17.5 5.62021 17.5 5.12385V4.23041C17.5 3.73405 17.67 3.25755 17.95 2.89025H15.7C14.71 2.89025 13.9 3.69434 13.9 4.67713Z" fill="#141414"/>
<path d="M17.5 4.23041V5.12385C17.5 5.62021 17.67 6.09671 17.95 6.46402C18.71 7.46666 20.27 7.80418 21.72 6.52358C21.88 6.3846 22 6.08679 22 5.87832V3.55536C22 3.36675 21.9 3.08879 21.77 2.94981C20.51 1.63943 18.99 1.82804 18.16 2.65199C18.09 2.72148 18.02 2.8009 17.95 2.89025C17.67 3.25755 17.5 3.73405 17.5 4.23041Z" fill="#141414"/>
<path d="M10 12.8174V16.7882C10 17.6122 9.33 18.2773 8.5 18.2773C7.67 18.2773 7 17.6122 7 16.7882V12.8174C7 11.9934 7.67 11.3283 8.5 11.3283C9.33 11.3283 10 11.9934 10 12.8174Z" fill="#141414"/>
</svg>
