<svg width="24" height="24" viewBox="0 0 24 24" fill="none" xmlns="http://www.w3.org/2000/svg">
<path d="M12.6964 15.3333H15.25C17.85 15.3333 18.5 14.6667 18.5 12V8C18.5 5.33333 17.85 4.66667 15.25 4.66667H13.3C12.65 4.66667 12.5107 4.46667 12.26 4.13333L11.285 2.8C10.9136 2.29524 10.7 2 9.725 2H8.75C6.15 2 5.5 2.66667 5.5 5.33333V12C5.5 14.6667 6.15 15.3333 8.75 15.3333H11.3036V18.1905C11.3036 18.2381 11.3221 18.2762 11.3314 18.3238C10.8486 18.5143 10.4586 18.9143 10.2729 19.4095C10.2264 19.4 10.1893 19.381 10.1429 19.381H6.42857C6.04786 19.381 5.73214 19.7048 5.73214 20.0952C5.73214 20.4857 6.04786 20.8095 6.42857 20.8095H10.1429C10.1893 20.8095 10.2264 20.7905 10.2729 20.781C10.5421 21.4952 11.2107 22 12 22C12.7893 22 13.4579 21.4952 13.7271 20.781C13.7736 20.7905 13.8107 20.8095 13.8571 20.8095H17.5714C17.9521 20.8095 18.2679 20.4857 18.2679 20.0952C18.2679 19.7048 17.9521 19.381 17.5714 19.381H13.8571C13.8107 19.381 13.7736 19.4 13.7271 19.4095C13.5414 18.9143 13.1514 18.5143 12.6686 18.3238C12.6779 18.2762 12.6964 18.2381 12.6964 18.1905V15.3333Z" fill="#141414"/>
</svg>
