<svg width="24" height="24" viewBox="0 0 24 24" fill="none" xmlns="http://www.w3.org/2000/svg">
<path d="M8.5 12.7501C8.09 12.7501 7.75 12.4101 7.75 12.0001V6.00005C7.75 5.59005 8.09 5.25005 8.5 5.25005C8.91 5.25005 9.25 5.59005 9.25 6.00005V12.0001C9.25 12.4101 8.91 12.7501 8.5 12.7501Z" fill="#141414"/>
<path d="M8.5 22.7501C8.09 22.7501 7.75 22.4101 7.75 22.0001V18.0001C7.75 17.5901 8.09 17.2501 8.5 17.2501C8.91 17.2501 9.25 17.5901 9.25 18.0001V22.0001C9.25 22.4101 8.91 22.7501 8.5 22.7501Z" fill="#141414"/>
<path d="M15.5 22.7501C15.09 22.7501 14.75 22.4101 14.75 22.0001V6.00005C14.75 5.59005 15.09 5.25005 15.5 5.25005C15.91 5.25005 16.25 5.59005 16.25 6.00005V22.0001C16.25 22.4101 15.91 22.7501 15.5 22.7501Z" fill="#141414"/>
<path d="M10.1 5.30005C10.1 5.79005 9.9 6.24005 9.57 6.57005C9.24 6.90005 8.79 7.10005 8.3 7.10005H6.05C6.33 6.73005 6.5 6.25005 6.5 5.75005V4.85005C6.5 4.35005 6.33 3.87005 6.05 3.50005H8.3C9.29 3.50005 10.1 4.31005 10.1 5.30005Z" fill="#141414"/>
<path d="M6.5 4.85005V5.75005C6.5 6.25005 6.33 6.73005 6.05 7.10005C5.29 8.11005 3.73 8.45005 2.28 7.16005C2.12 7.02005 2 6.72005 2 6.51005V4.17005C2 3.97005 2.1 3.70005 2.23 3.56005C3.49 2.24005 5.01 2.43005 5.84 3.26005C5.91 3.33005 5.99 3.41005 6.05 3.50005C6.33 3.87005 6.5 4.35005 6.5 4.85005Z" fill="#141414"/>
<path d="M13.9 5.30005C13.9 5.79005 14.1 6.24005 14.43 6.57005C14.76 6.90005 15.21 7.10005 15.7 7.10005H17.95C17.67 6.73005 17.5 6.25005 17.5 5.75005V4.85005C17.5 4.35005 17.67 3.87005 17.95 3.50005H15.7C14.71 3.50005 13.9 4.31005 13.9 5.30005Z" fill="#141414"/>
<path d="M17.5 4.85005V5.75005C17.5 6.25005 17.67 6.73005 17.95 7.10005C18.71 8.11005 20.27 8.45005 21.72 7.16005C21.88 7.02005 22 6.72005 22 6.51005V4.17005C22 3.98005 21.9 3.70005 21.77 3.56005C20.51 2.24005 18.99 2.43005 18.16 3.26005C18.09 3.33005 18.02 3.41005 17.95 3.50005C17.67 3.87005 17.5 4.35005 17.5 4.85005Z" fill="#141414"/>
<path d="M10 13.5001V17.5001C10 18.3301 9.33 19.0001 8.5 19.0001C7.67 19.0001 7 18.3301 7 17.5001V13.5001C7 12.6701 7.67 12.0001 8.5 12.0001C9.33 12.0001 10 12.6701 10 13.5001Z" fill="#141414"/>
</svg>
