<svg width="24" height="24" viewBox="0 0 24 24" fill="none" xmlns="http://www.w3.org/2000/svg">
<path d="M2.74994 18.65C2.33994 18.65 1.99994 18.31 1.99994 17.9V12.2C1.94994 9.49005 2.95994 6.93005 4.83994 5.01005C6.71994 3.10005 9.23994 2.05005 11.9499 2.05005C17.4899 2.05005 21.9999 6.56005 21.9999 12.1V17.8C21.9999 18.21 21.6599 18.55 21.2499 18.55C20.8399 18.55 20.4999 18.21 20.4999 17.8V12.1C20.4999 7.39005 16.6699 3.55005 11.9499 3.55005C9.63994 3.55005 7.49994 4.44005 5.90994 6.06005C4.30994 7.69005 3.45994 9.86005 3.49994 12.18V17.89C3.49994 18.31 3.16994 18.65 2.74994 18.65Z" fill="#141414"/>
<path d="M5.93994 12.45H5.80994C3.70994 12.45 1.99994 14.16 1.99994 16.26V18.14C1.99994 20.24 3.70994 21.9501 5.80994 21.9501H5.93994C8.03994 21.9501 9.74994 20.24 9.74994 18.14V16.26C9.74994 14.16 8.03994 12.45 5.93994 12.45Z" fill="#141414"/>
<path d="M18.1899 12.45H18.0599C15.9599 12.45 14.2499 14.16 14.2499 16.26V18.14C14.2499 20.24 15.9599 21.9501 18.0599 21.9501H18.1899C20.2899 21.9501 21.9999 20.24 21.9999 18.14V16.26C21.9999 14.16 20.2899 12.45 18.1899 12.45Z" fill="#141414"/>
</svg>
