<svg width="24" height="24" viewBox="0 0 24 24" fill="none" xmlns="http://www.w3.org/2000/svg">
<path d="M16.75 22H7.25C6.8605 22 6.5375 21.6723 6.5375 21.2771C6.5375 20.8819 6.8605 20.5542 7.25 20.5542H16.75C17.1395 20.5542 17.4625 20.8819 17.4625 21.2771C17.4625 21.6723 17.1395 22 16.75 22Z" fill="#141414"/>
<path d="M17.7 2H6.3C4.2005 2 2.5 3.7253 2.5 5.85542V14.5301C2.5 16.6602 4.2005 18.3855 6.3 18.3855H17.7C19.7995 18.3855 21.5 16.6602 21.5 14.5301V5.85542C21.5 3.7253 19.7995 2 17.7 2ZM10.0905 7.12771C10.6225 7.12771 11.05 7.56145 11.05 8.09157C11.05 8.62169 10.6225 9.05542 10.1 9.05542C9.5775 9.05542 9.15 8.62169 9.15 8.09157C9.15 7.56145 9.568 7.12771 10.0905 7.12771ZM7.098 7.12771C7.63 7.12771 8.0575 7.56145 8.0575 8.09157C8.0575 8.62169 7.63 9.05542 7.1075 9.05542C6.585 9.05542 6.1575 8.62169 6.1575 8.09157C6.1575 7.56145 6.566 7.12771 7.098 7.12771ZM16.997 14.3952H7.022C6.623 14.3952 6.3 14.0675 6.3 13.6723C6.3 13.2771 6.6135 12.9494 7.003 12.9494H17.0065C17.396 12.9494 17.719 13.2771 17.719 13.6723C17.719 14.0675 17.396 14.3952 16.997 14.3952ZM16.997 8.81446H13.501C13.1115 8.81446 12.7885 8.48675 12.7885 8.09157C12.7885 7.69639 13.1115 7.36868 13.501 7.36868H16.997C17.3865 7.36868 17.7095 7.69639 17.7095 8.09157C17.7095 8.48675 17.396 8.81446 16.997 8.81446Z" fill="#141414"/>
</svg>
