<svg width="24" height="24" viewBox="0 0 24 24" fill="none" xmlns="http://www.w3.org/2000/svg">
<path d="M18.1171 3.59714C17.6585 3.52914 17.1317 3.5 16.3902 3.5H7.60976C6.87805 3.5 6.34146 3.52914 5.9122 3.58743C2.6439 3.94686 2 5.88 2 9.08571V14.9143C2 18.12 2.6439 20.0531 5.88293 20.4029C6.34146 20.4709 6.86829 20.5 7.60976 20.5H16.3902C17.122 20.5 17.6585 20.4709 18.0878 20.4126C21.3561 20.0531 22 18.1297 22 14.9143V9.08571C22 5.88 21.3561 3.94686 18.1171 3.59714ZM10.1366 9.08571C10.6829 9.08571 11.122 9.52286 11.122 10.0571C11.122 10.5914 10.6829 11.0286 10.1463 11.0286C9.60976 11.0286 9.17073 10.5914 9.17073 10.0571C9.17073 9.52286 9.6 9.08571 10.1366 9.08571ZM7.20976 9.08571C7.76585 9.08571 8.19512 9.52286 8.19512 10.0571C8.19512 10.5914 7.7561 11.0286 7.21951 11.0286C6.68293 11.0286 6.2439 10.5914 6.2439 10.0571C6.2439 9.52286 6.67317 9.08571 7.20976 9.08571ZM16.878 16.1286H7.14146C6.74146 16.1286 6.4 15.7983 6.4 15.4C6.4 15.0017 6.72195 14.6714 7.12195 14.6714H16.878C17.278 14.6714 17.6098 15.0017 17.6098 15.4C17.6098 15.7983 17.278 16.1286 16.878 16.1286ZM16.878 10.7857H13.4634C13.0634 10.7857 12.7317 10.4554 12.7317 10.0571C12.7317 9.65886 13.0634 9.32857 13.4634 9.32857H16.878C17.278 9.32857 17.6098 9.65886 17.6098 10.0571C17.6098 10.4554 17.278 10.7857 16.878 10.7857Z" fill="#141414"/>
</svg>
