<svg width="24" height="24" viewBox="0 0 24 24" fill="none" xmlns="http://www.w3.org/2000/svg">
<path d="M20.3966 11.78L18.2053 3.7C17.9563 2.77 16.9503 2 15.9941 2H8.00588C7.04969 2 6.04369 2.77 5.79468 3.7L3.60339 11.78C3.16514 13.38 4.16117 14.69 5.8146 14.69H11.253V20.5H8.01584C7.60747 20.5 7.26881 20.84 7.26881 21.25C7.26881 21.66 7.60747 22 8.01584 22H15.9842C16.3925 22 16.7312 21.66 16.7312 21.25C16.7312 20.84 16.3925 20.5 15.9842 20.5H12.747V14.69H18.1854C19.8388 14.69 20.8349 13.38 20.3966 11.78Z" fill="#141414"/>
</svg>
