<svg width="24" height="24" viewBox="0 0 24 24" fill="none" xmlns="http://www.w3.org/2000/svg">
<path d="M17.5756 2H6.41441C3.98198 2 2 3.98 2 6.41V13.11C2 15.55 3.98198 17.52 6.41441 17.52H10.2583C10.8088 17.52 11.2593 17.97 11.2593 18.52V19.49C11.2593 20.04 10.8088 20.49 10.2583 20.49H7.83584C7.42543 20.49 7.08508 20.83 7.08508 21.24C7.08508 21.65 7.41542 22 7.83584 22H16.1942C16.6046 22 16.9449 21.66 16.9449 21.25C16.9449 20.84 16.6046 20.5 16.1942 20.5H13.7718C13.2212 20.5 12.7708 20.05 12.7708 19.5V18.53C12.7708 17.98 13.2212 17.53 13.7718 17.53H17.5856C20.028 17.53 22 15.55 22 13.12V6.42C21.99 3.98 20.008 2 17.5756 2Z" fill="#141414"/>
</svg>
