<svg width="24" height="24" viewBox="0 0 24 24" fill="none" xmlns="http://www.w3.org/2000/svg">
<path d="M13.1808 11.8593C12.7808 11.8593 12.4208 11.6382 12.2509 11.2764L10.801 8.37186L10.381 9.15578C10.151 9.58794 9.69109 9.8593 9.20113 9.8593H8.4712C8.06123 9.8593 7.72126 9.51759 7.72126 9.10553C7.72126 8.69347 8.06123 8.35176 8.4712 8.35176H9.11114L9.90107 6.88442C10.0911 6.54271 10.471 6.31156 10.831 6.33166C11.221 6.33166 11.5709 6.56281 11.7509 6.90452L13.1808 9.77889L13.5208 9.08543C13.7507 8.62312 14.2007 8.34171 14.7206 8.34171H15.5306C15.9405 8.34171 16.2805 8.68342 16.2805 9.09548C16.2805 9.50754 15.9405 9.84925 15.5306 9.84925H14.8206L14.1107 11.2663C13.9307 11.6382 13.5807 11.8593 13.1808 11.8593Z" fill="#141414"/>
<path d="M2.7517 18.6834C2.34174 18.6834 2.00177 18.3417 2.00177 17.9296V12.201C1.95178 9.47739 2.96169 6.90452 4.84152 4.97487C6.72135 3.05528 9.24113 2 11.9509 2C17.4904 2 22 6.53266 22 12.1005V17.8291C22 18.2412 21.66 18.5829 21.2501 18.5829C20.8401 18.5829 20.5001 18.2412 20.5001 17.8291V12.1005C20.5001 7.36683 16.6705 3.50754 11.9509 3.50754C9.64109 3.50754 7.50128 4.40201 5.91142 6.03015C4.31157 7.66834 3.46164 9.84925 3.50164 12.1809V17.9196C3.50164 18.3417 3.17167 18.6834 2.7517 18.6834Z" fill="#141414"/>
<path d="M5.94142 12.4523H5.81143C3.71162 12.4523 2.00177 14.1709 2.00177 16.2814V18.1709C2.00177 20.2814 3.71162 22 5.81143 22H5.94142C8.04124 22 9.75108 20.2814 9.75108 18.1709V16.2814C9.75108 14.1709 8.04124 12.4523 5.94142 12.4523Z" fill="#141414"/>
<path d="M18.1903 12.4523H18.0603C15.9605 12.4523 14.2507 14.1709 14.2507 16.2814V18.1709C14.2507 20.2814 15.9605 22 18.0603 22H18.1903C20.2902 22 22 20.2814 22 18.1709V16.2814C22 14.1709 20.2902 12.4523 18.1903 12.4523Z" fill="#141414"/>
</svg>
