<svg width="24" height="24" viewBox="0 0 24 24" fill="none" xmlns="http://www.w3.org/2000/svg">
<path d="M20.9895 9.71C20.6493 9.57 20.1991 9.5 19.6388 9.5H14.3562C12.6153 9.5 11.995 10.12 11.995 11.88V19.62C11.995 20.2 12.065 20.65 12.2151 21C12.5253 21.72 13.1856 22 14.3562 22H19.6388C21.3797 22 22 21.37 22 19.62V11.88C22 10.69 21.7199 10.02 20.9895 9.71ZM17.998 19.75H15.997C15.977 19.75 15.947 19.75 15.927 19.74C15.7769 19.73 15.6468 19.68 15.5368 19.58C15.3567 19.45 15.2466 19.24 15.2466 19C15.2466 18.59 15.5868 18.25 15.997 18.25H17.998C18.4082 18.25 18.7484 18.59 18.7484 19C18.7484 19.41 18.4082 19.75 17.998 19.75Z" fill="#141414"/>
<path d="M20.9895 6.19V7C20.9895 7.55 20.5393 8 19.989 8H14.3562C11.7949 8 10.4942 9.31 10.4942 11.88V21C10.4942 21.55 10.044 22 9.49375 22H7.54277C7.14257 22 6.82241 21.68 6.82241 21.29C6.82241 20.89 7.14257 20.58 7.54277 20.58H9.49375V16.75H5.992C3.77089 16.64 2 14.81 2 12.56V6.19C2 3.88 3.88094 2 6.2021 2H16.7974C19.1086 2 20.9895 3.88 20.9895 6.19Z" fill="#141414"/>
</svg>
