<svg width="24" height="24" viewBox="0 0 24 24" fill="none" xmlns="http://www.w3.org/2000/svg">
<path d="M13.2978 2.00716C13.0064 1.95559 12.75 2.18941 12.75 2.48693V5.36331C12.75 5.56275 12.8709 5.73837 13.0359 5.84916C13.5391 6.18718 13.87 6.76426 13.87 7.42091V9.43182C13.87 10.4674 13.03 11.3221 12 11.3221C10.96 11.3221 10.12 10.4674 10.12 9.43182V7.42091C10.12 6.76407 10.4583 6.18683 10.9639 5.84886C11.1291 5.73845 11.25 5.56275 11.25 5.36331V2.48758C11.25 2.18982 10.9935 1.95591 10.7019 2.00761C9.15243 2.28232 7.76579 3.03131 6.7 4.10292C5.34 5.47033 4.5 7.36059 4.5 9.43182V14.4591C4.5 18.6116 7.87 22 12 22C16.13 22 19.5 18.6116 19.5 14.4591V9.43182C19.5 5.7212 16.813 2.62914 13.2978 2.00716Z" fill="#141414"/>
</svg>
