<svg width="24" height="24" viewBox="0 0 24 24" fill="none" xmlns="http://www.w3.org/2000/svg">
<path d="M13.18 11.86C12.78 11.86 12.42 11.64 12.25 11.28L10.8 8.39005L10.38 9.17005C10.15 9.60005 9.69 9.87005 9.2 9.87005H8.47C8.06 9.87005 7.72 9.53005 7.72 9.12005C7.72 8.71005 8.06 8.37005 8.47 8.37005H9.11L9.9 6.91005C10.09 6.57005 10.47 6.34005 10.83 6.36005C11.22 6.36005 11.57 6.59005 11.75 6.93005L13.18 9.79005L13.52 9.10005C13.75 8.64005 14.2 8.36005 14.72 8.36005H15.53C15.94 8.36005 16.28 8.70005 16.28 9.11005C16.28 9.52005 15.94 9.86005 15.53 9.86005H14.82L14.11 11.27C13.93 11.64 13.58 11.86 13.18 11.86Z" fill="#141414"/>
<path d="M2.75 18.65C2.34 18.65 2 18.31 2 17.9V12.2C1.95 9.49005 2.96 6.93005 4.84 5.01005C6.72 3.10005 9.24 2.05005 11.95 2.05005C17.49 2.05005 22 6.56005 22 12.1V17.8C22 18.21 21.66 18.55 21.25 18.55C20.84 18.55 20.5 18.21 20.5 17.8V12.1C20.5 7.39005 16.67 3.55005 11.95 3.55005C9.64 3.55005 7.5 4.44005 5.91 6.06005C4.31 7.69005 3.46 9.86005 3.5 12.18V17.89C3.5 18.31 3.17 18.65 2.75 18.65Z" fill="#141414"/>
<path d="M5.94 12.45H5.81C3.71 12.45 2 14.16 2 16.26V18.14C2 20.24 3.71 21.9501 5.81 21.9501H5.94C8.04 21.9501 9.75 20.24 9.75 18.14V16.26C9.75 14.16 8.04 12.45 5.94 12.45Z" fill="#141414"/>
<path d="M18.19 12.45H18.06C15.96 12.45 14.25 14.16 14.25 16.26V18.14C14.25 20.24 15.96 21.9501 18.06 21.9501H18.19C20.29 21.9501 22 20.24 22 18.14V16.26C22 14.16 20.29 12.45 18.19 12.45Z" fill="#141414"/>
</svg>
