<svg width="24" height="24" viewBox="0 0 24 24" fill="none" xmlns="http://www.w3.org/2000/svg">
<path d="M14.84 10.9L20.5 7.10996C21.07 6.72996 21.22 5.94996 20.84 5.38996L19.02 2.67996C18.64 2.10996 17.86 1.95996 17.3 2.33996L11.64 6.12996L14.84 10.9Z" fill="#141414"/>
<path d="M14.52 10.42L12.76 11.6L10.09 13.39L9.73997 13.62L9.57998 13.38L7.33998 10.04L7.17998 9.79996L11.96 6.59996L14.52 10.42Z" fill="#141414"/>
<path d="M5.63998 16.02L9.58998 13.38L7.34998 10.04L3.39998 12.68C2.93998 12.99 2.81998 13.61 3.12998 14.07L4.25998 15.75C4.55998 16.21 5.17998 16.33 5.63998 16.02Z" fill="#141414"/>
<path d="M16.56 21.81C16.46 21.85 16.35 21.88 16.25 21.88C15.96 21.88 15.69 21.71 15.56 21.43L11.83 13.19L8.04998 21.44C7.91998 21.71 7.64998 21.88 7.35998 21.88C7.25998 21.88 7.14998 21.85 7.04998 21.81C6.67998 21.63 6.50997 21.19 6.67998 20.81L10.09 13.39L12.76 11.6L16.93 20.82C17.1 21.19 16.93 21.64 16.56 21.81Z" fill="#141414"/>
</svg>
