<svg width="24" height="24" viewBox="0 0 24 24" fill="none" xmlns="http://www.w3.org/2000/svg">
<path d="M20.0667 10.9133V13.9543C20.0667 16.1659 18.2762 17.9581 16.0667 17.9581H12.6762C12.1524 17.9581 11.7238 18.3775 11.7238 18.9114V19.6931C11.7238 20.2174 12.1524 20.6463 12.6762 20.6463H14.8286C15.2 20.6463 15.5048 20.9419 15.5048 21.3232C15.5048 21.695 15.2 22 14.8286 22H7.26667C6.89524 22 6.59048 21.695 6.59048 21.3232C6.59048 20.9419 6.89524 20.6463 7.26667 20.6463H9.41905C9.94286 20.6463 10.3714 20.2174 10.3714 19.6931V18.9114C10.3714 18.3775 9.94286 17.9581 9.41905 17.9581H5.99048C3.79048 17.9581 2 16.1659 2 13.9543V7.88185C2 5.67976 3.79048 3.88759 5.99048 3.88759H10.0952C10.619 3.88759 11.0476 4.31657 11.0476 4.84087V6.89044C11.0476 8.73027 12.2762 9.96001 14.1048 9.96001H19.1143C19.6381 9.96001 20.0667 10.389 20.0667 10.9133Z" fill="#141414"/>
<path d="M21.0381 3.27749L19.9619 4.03058V3.6302C19.9619 2.72458 19.2286 2.00008 18.3333 2.00008H14.2571C13.2762 1.99055 12.4762 2.79131 12.4762 3.77319V6.89997C12.4762 7.71979 12.8857 8.53009 14.1048 8.53009H18.3238C19.2286 8.53009 19.9524 7.79606 19.9524 6.89997V6.49006L21.0286 7.24315C21.5714 7.61493 22 7.38614 22 6.73791V3.78273C22 3.13449 21.5714 2.91524 21.0381 3.27749Z" fill="#141414"/>
</svg>
