<svg width="24" height="24" viewBox="0 0 24 24" fill="none" xmlns="http://www.w3.org/2000/svg">
<path d="M13.2978 2.11564C13.0064 2.06436 12.75 2.2969 12.75 2.59281V5.45359C12.75 5.65195 12.8709 5.82661 13.0359 5.9368C13.5391 6.27298 13.87 6.84694 13.87 7.50003V9.50003C13.87 10.53 13.03 11.38 12 11.38C10.96 11.38 10.12 10.53 10.12 9.50003V7.50003C10.12 6.84675 10.4583 6.27264 10.9639 5.9365C11.1291 5.82669 11.25 5.65195 11.25 5.45359V2.59346C11.25 2.29731 10.9935 2.06467 10.7019 2.11609C9.15243 2.38931 7.76579 3.13424 6.7 4.20003C5.34 5.56003 4.5 7.44003 4.5 9.50003V14.5C4.5 18.63 7.87 22 12 22C16.13 22 19.5 18.63 19.5 14.5V9.50003C19.5 5.80954 16.813 2.73425 13.2978 2.11564Z" fill="#141414"/>
</svg>
