<svg width="24" height="24" viewBox="0 0 24 24" fill="none" xmlns="http://www.w3.org/2000/svg">
<path d="M15.2636 5.48837H14.9545V2.69767C14.9545 2.31628 14.6455 2 14.2727 2C13.9 2 13.5909 2.31628 13.5909 2.69767V5.48837H10.4091V2.69767C10.4091 2.31628 10.1 2 9.72727 2C9.35455 2 9.04545 2.31628 9.04545 2.69767V5.48837H8.73636C7.78182 5.48837 7 6.28837 7 7.26512V12C7 14.0465 8.36364 15.7209 10.6364 15.7209H11.3182V21.3023C11.3182 21.6837 11.6273 22 12 22C12.3727 22 12.6818 21.6837 12.6818 21.3023V15.7209H13.3636C15.6364 15.7209 17 14.0465 17 12V7.26512C17 6.28837 16.2182 5.48837 15.2636 5.48837Z" fill="#141414"/>
</svg>
