<svg width="24" height="24" viewBox="0 0 24 24" fill="none" xmlns="http://www.w3.org/2000/svg">
<path d="M5.99994 6.99994C3.99994 6.99994 2.99994 7.99994 2.99994 9.99994V14.9999C2.99994 16.9999 3.99994 17.9999 5.99994 17.9999L7.99994 15.9999V14.9999H8.99994L16.9999 6.99994H5.99994ZM6.99994 11.7499C6.58994 11.7499 6.24994 11.4099 6.24994 10.9999C6.24994 10.5899 6.58994 10.2499 6.99994 10.2499H8.99994C9.40994 10.2499 9.74994 10.5899 9.74994 10.9999C9.74994 11.4099 9.40994 11.7499 8.99994 11.7499H6.99994Z" fill="#141414"/>
<path d="M8.99994 14.9999L7.99994 15.9999V14.9999H8.99994Z" fill="#141414"/>
<path d="M16.9999 4.99994V6.99994H6.99994V4.99994C6.99994 3.33994 8.33994 1.99994 9.99994 1.99994H13.9999C15.6599 1.99994 16.9999 3.33994 16.9999 4.99994Z" fill="#141414"/>
<path d="M22.5299 1.46994C22.2399 1.17994 21.7599 1.17994 21.4699 1.46994L1.46994 21.4699C1.17994 21.7599 1.17994 22.2399 1.46994 22.5299C1.61994 22.6799 1.80994 22.7499 1.99994 22.7499C2.18994 22.7499 2.37994 22.6799 2.52994 22.5299L22.5299 2.52994C22.8199 2.23994 22.8199 1.75994 22.5299 1.46994Z" fill="#141414"/>
<path d="M16.9999 14.2499H12.957C12.8244 14.2499 12.6973 14.3026 12.6035 14.3964L8.79994 18.1999C8.15994 18.8399 8.02994 19.9999 8.54994 20.7399C9.08994 21.4999 9.98994 21.9999 10.9999 21.9999H12.9999C14.6599 21.9999 15.9999 20.6599 15.9999 18.9999V15.7499H16.9999C17.4099 15.7499 17.7499 15.4099 17.7499 14.9999C17.7499 14.5899 17.4099 14.2499 16.9999 14.2499Z" fill="#141414"/>
<path d="M19.0199 7.97994L15.4599 11.5399C14.8299 12.1699 15.2799 13.2499 16.1699 13.2499H16.9099C17.7799 13.2499 18.5899 13.8399 18.7299 14.6999C18.8811 15.6153 18.3129 16.439 17.4933 16.6794C17.2284 16.7572 16.9999 16.9738 16.9999 17.2499V17.4999C16.9999 17.7761 17.2238 17.9999 17.4999 17.9999H17.9999C19.6599 17.9999 20.9999 16.6599 20.9999 14.9999V9.99994C20.9999 9.20994 20.8399 8.56994 20.5299 8.08994C20.1899 7.57994 19.4499 7.54994 19.0199 7.97994Z" fill="#141414"/>
</svg>
