<svg width="24" height="24" viewBox="0 0 24 24" fill="none" xmlns="http://www.w3.org/2000/svg">
<path d="M6.41731 7.34713C4.55641 7.34713 3.62596 8.27747 3.62596 10.1382V14.7899C3.62596 16.6505 4.55641 17.5809 6.41731 17.5809L8.2782 15.7202V14.7899H9.20865L16.6522 7.34713H6.41731ZM7.34775 11.7663C6.96627 11.7663 6.64992 11.4499 6.64992 11.0685C6.64992 10.6871 6.96627 10.3707 7.34775 10.3707H9.20865C9.59014 10.3707 9.90649 10.6871 9.90649 11.0685C9.90649 11.4499 9.59014 11.7663 9.20865 11.7663H7.34775Z" fill="#141414"/>
<path d="M9.20865 14.7899L8.2782 15.7202V14.7899H9.20865Z" fill="#141414"/>
<path d="M16.6522 5.48645V7.34713H7.34775V5.48645C7.34775 3.94209 8.59456 2.69543 10.1391 2.69543H13.8609C15.4054 2.69543 16.6522 3.94209 16.6522 5.48645Z" fill="#141414"/>
<path d="M21.7976 2.20235C21.5278 1.93255 21.0812 1.93255 20.8113 2.20235L2.20237 20.8092C1.93254 21.079 1.93254 21.5255 2.20237 21.7953C2.34194 21.9349 2.51873 22 2.69551 22C2.8723 22 3.04908 21.9349 3.18865 21.7953L21.7976 3.18851C22.0675 2.91871 22.0675 2.47215 21.7976 2.20235Z" fill="#141414"/>
<path d="M16.6522 14.0921H12.8905C12.7672 14.0921 12.6488 14.1411 12.5616 14.2283L9.02256 17.767C8.42708 18.3624 8.30612 19.4416 8.78995 20.13C9.29239 20.8371 10.1298 21.3022 11.0696 21.3022H12.9304C14.475 21.3022 15.7218 20.0556 15.7218 18.5112V15.4876H16.6522C17.0337 15.4876 17.3501 15.1713 17.3501 14.7899C17.3501 14.4084 17.0337 14.0921 16.6522 14.0921Z" fill="#141414"/>
<path d="M18.5317 8.25887L15.2194 11.5709C14.6332 12.157 15.0519 13.1618 15.88 13.1618H16.5685C17.378 13.1618 18.1317 13.7107 18.2619 14.5108C18.4026 15.3623 17.8739 16.1286 17.1113 16.3523C16.8648 16.4247 16.6522 16.6262 16.6522 16.8831V17.1157C16.6522 17.3726 16.8605 17.5809 17.1175 17.5809H17.5827C19.1272 17.5809 20.374 16.3342 20.374 14.7899V10.1382C20.374 9.40319 20.2252 8.80777 19.9367 8.36121C19.6204 7.88673 18.9318 7.85882 18.5317 8.25887Z" fill="#141414"/>
</svg>
