<svg width="24" height="24" viewBox="0 0 24 24" fill="none" xmlns="http://www.w3.org/2000/svg">
<path d="M9.55238 12.2381H2.95238C2.42857 12.2381 2 12.6667 2 13.1905V15.5143C2 18.5714 4.47619 21.0476 7.53333 21.0476H9.15238C9.88571 21.0476 10.3333 20.2667 9.98095 19.619C9.22857 18.219 8.93333 16.5333 9.30476 14.7619C9.4381 14.1143 9.66667 13.5048 9.97143 12.9333C10.1333 12.619 9.91429 12.2381 9.55238 12.2381ZM6.52381 17.2381C6.52381 17.6286 6.2 17.9524 5.80952 17.9524C5.41905 17.9524 5.09524 17.6286 5.09524 17.2381V15.3333C5.09524 14.9429 5.41905 14.619 5.80952 14.619C6.2 14.619 6.52381 14.9429 6.52381 15.3333V17.2381Z" fill="#141414"/>
<path d="M15.5143 2H7.53333C4.47619 2 2 4.47619 2 7.53333V9.85714C2 10.381 2.42857 10.8095 2.95238 10.8095H11.3714C11.581 10.8095 11.781 10.7333 11.9524 10.6C12.7714 9.97143 13.7333 9.51429 14.7619 9.30476C16.5333 8.93333 18.219 9.22857 19.619 9.98095C20.2667 10.3238 21.0476 9.88571 21.0476 9.15238V7.53333C21.0476 4.47619 18.5714 2 15.5143 2ZM6.52381 7.95238C6.52381 8.34286 6.2 8.66667 5.80952 8.66667C5.41905 8.66667 5.09524 8.34286 5.09524 7.95238V6.04762C5.09524 5.65714 5.41905 5.33333 5.80952 5.33333C6.2 5.33333 6.52381 5.65714 6.52381 6.04762V7.95238ZM10.3333 7.95238C10.3333 8.34286 10.0095 8.66667 9.61905 8.66667C9.22857 8.66667 8.90476 8.34286 8.90476 7.95238V6.04762C8.90476 5.65714 9.22857 5.33333 9.61905 5.33333C10.0095 5.33333 10.3333 5.65714 10.3333 6.04762V7.95238ZM17.2381 7.71429H13.4286C13.0381 7.71429 12.7143 7.39048 12.7143 7C12.7143 6.60952 13.0381 6.28571 13.4286 6.28571H17.2381C17.6286 6.28571 17.9524 6.60952 17.9524 7C17.9524 7.39048 17.6286 7.71429 17.2381 7.71429Z" fill="#141414"/>
<path d="M16.2857 10.5714C13.1333 10.5714 10.5714 13.1333 10.5714 16.2857C10.5714 19.4381 13.1333 22 16.2857 22C19.4381 22 22 19.4381 22 16.2857C22 13.1333 19.4381 10.5714 16.2857 10.5714ZM19.0762 17.4286C18.9238 17.8 18.7048 18.1333 18.419 18.419C17.8476 18.9905 17.0952 19.3048 16.2857 19.3048C15.6381 19.3048 15.0286 19.0952 14.5143 18.7143V18.8476C14.5143 19.1429 14.2762 19.3905 13.9714 19.3905C13.6667 19.381 13.4286 19.1429 13.4286 18.8381V17.4667C13.4286 17.1714 13.6667 16.9238 13.9714 16.9238H15.3429C15.6381 16.9238 15.8857 17.1619 15.8857 17.4667C15.8857 17.7429 15.6857 17.9524 15.419 17.9905C16.1429 18.3429 17.0667 18.2286 17.6476 17.6476C17.8286 17.4667 17.9714 17.2476 18.0667 17.0095C18.181 16.7333 18.4952 16.6 18.7714 16.7143C19.0571 16.8286 19.1905 17.1524 19.0762 17.4286ZM19.1429 15.1048C19.1429 15.4 18.9048 15.6476 18.6 15.6476H17.2286C16.9333 15.6476 16.6857 15.4095 16.6857 15.1048C16.6857 14.8286 16.8857 14.619 17.1524 14.581C16.4286 14.2286 15.5048 14.3429 14.9143 14.9238C14.7524 15.0857 14.6286 15.2667 14.5333 15.4667C14.4381 15.6667 14.2476 15.781 14.0476 15.781C13.9714 15.781 13.8952 15.7619 13.819 15.7333C13.5524 15.6095 13.4286 15.2857 13.5619 15.0095C13.7143 14.6952 13.9143 14.4095 14.1524 14.1619C14.7238 13.5905 15.4762 13.2762 16.2857 13.2762C16.9333 13.2762 17.5429 13.4857 18.0571 13.8667V13.7429C18.0571 13.4476 18.2952 13.2 18.6 13.2C18.9048 13.2 19.1429 13.4286 19.1429 13.7333V15.1048Z" fill="#141414"/>
</svg>
