<svg width="24" height="24" viewBox="0 0 24 24" fill="none" xmlns="http://www.w3.org/2000/svg">
<path d="M19.5 9.00701C20.05 9.00701 20.5 8.55656 20.5 8.00601V7.005C20.5 4.002 18.97 2 15.5 2H8.5C4.97 2 3.5 4.002 3.5 7.005V17.015C3.5 19.3312 4.37827 21.0446 6.39493 21.7033C6.69648 21.8018 6.98895 21.5617 6.98783 21.2442L6.98 19.017C6.98 17.3554 8.33 16.014 9.98 16.014H13.99C15.63 16.014 16.98 17.3554 16.99 18.997L17.0057 21.2462C17.0079 21.5631 17.3017 21.7999 17.6018 21.6991C19.5899 21.0316 20.5 19.32 20.5 17.015V15.8438C20.5 15.3133 20.29 14.8028 19.91 14.4224L19.09 13.6016C18.71 13.2212 18.5 12.7107 18.5 12.1802V10.008C18.5 9.45746 18.95 9.00701 19.5 9.00701ZM13.97 8.53654H7.97C7.56 8.53654 7.22 8.1962 7.22 7.78579C7.22 7.37538 7.56 7.03504 7.97 7.03504H13.97C14.38 7.03504 14.72 7.37538 14.72 7.78579C14.72 8.1962 14.39 8.53654 13.97 8.53654Z" fill="#141414"/>
<path d="M16.0098 20.989C16.0154 21.5457 15.5661 22 15.0099 22H8.99325C8.44357 22 7.99695 21.5559 7.99327 21.0057L7.97998 19.017C7.97998 17.9159 8.86998 17.015 9.97998 17.015H13.99C15.09 17.015 15.98 17.9059 15.99 19.007L16.0098 20.989Z" fill="#141414"/>
</svg>
