<svg width="24" height="24" viewBox="0 0 24 24" fill="none" xmlns="http://www.w3.org/2000/svg">
<path d="M16.0099 20.989C16.0154 21.5457 15.5661 22 15.0099 22H8.99327C8.44359 22 7.99697 21.5559 7.99329 21.0057L7.98 19.017C7.98 17.9159 8.87 17.015 9.98 17.015H13.99C15.09 17.015 15.98 17.9059 15.99 19.007L16.0099 20.989Z" fill="#141414"/>
<path d="M18.5 10.008V12.1802C18.5 12.7107 18.71 13.2212 19.09 13.6016L19.91 14.4224C20.29 14.8028 20.5 15.3133 20.5 15.8438V17.015C20.5 19.3185 19.5911 21.0126 17.6057 21.6858C17.3045 21.788 17.0089 21.5499 17.0078 21.2315L17 18.997C16.98 17.3554 15.63 16.014 14 16.014H9.99C8.33 16.014 6.99 17.3654 6.99 19.017V21.2434C6.99 21.5612 6.69629 21.8002 6.3949 21.7004C4.386 21.035 3.5 19.3304 3.5 17.015V7.005C3.5 4.59656 4.45179 2.83462 6.64523 2.23675C6.94579 2.15482 7.2259 2.39662 7.22143 2.7084L7.19 4.9029C7.18 5.37337 7.35 5.82382 7.67 6.16416C8 6.5045 8.43 6.69469 8.94 6.7047C9.45417 6.7047 9.91203 6.49174 10.2245 6.14509C10.3367 6.02059 10.5516 6.01557 10.67 6.13413C10.99 6.47447 11.43 6.67467 11.94 6.68468C12.4543 6.68468 12.9235 6.4584 13.2436 6.09417C13.3488 5.97447 13.5642 5.96493 13.67 6.08408C13.99 6.42442 14.43 6.62462 14.94 6.63463C15.9 6.63463 16.67 5.88388 16.69 4.91291L16.7297 2.68733C16.7351 2.38272 17.0106 2.15152 17.3047 2.22978C19.5087 2.81614 20.5 4.58977 20.5 7.005V8.00601C20.5 8.55656 20.05 9.00701 19.5 9.00701C18.95 9.00701 18.5 9.45746 18.5 10.008Z" fill="#141414"/>
<path d="M9.2282 2.00331C9.50891 2.00149 9.7361 2.2313 9.73136 2.51225L9.69 4.96296C9.68 5.37337 9.35 5.7037 8.94 5.7037H8.93C8.51 5.69369 8.18 5.35335 8.19 4.93293V2.50729C8.19 2.23213 8.4119 2.00858 8.68677 2.0068L9.2282 2.00331Z" fill="#141414"/>
<path d="M12.2315 2C12.5109 2 12.7361 2.22929 12.7314 2.50898L12.69 4.95295C12.68 5.35335 12.35 5.68368 11.94 5.68368H11.93C11.51 5.67367 11.18 5.33333 11.19 4.92292V2.5005C11.19 2.22408 11.4139 2 11.69 2H12.2315Z" fill="#141414"/>
<path d="M15.2344 2.00682C15.5127 2.00858 15.7361 2.23746 15.7312 2.516L15.69 4.89289C15.68 5.3033 15.35 5.63363 14.94 5.63363H14.93C14.51 5.62362 14.18 5.28328 14.19 4.87287V2.5039C14.19 2.22625 14.4158 2.00166 14.6931 2.00341L15.2344 2.00682Z" fill="#141414"/>
</svg>
