<svg width="24" height="24" viewBox="0 0 24 24" fill="none" xmlns="http://www.w3.org/2000/svg">
<path d="M14.8455 2H9.15447C6.12873 2 5 3.14644 5 6.21965V17.7803C5 20.8536 6.12873 22 9.15447 22H14.8455C17.8713 22 19 20.8536 19 17.7803V6.21965C19 3.14644 17.8713 2 14.8455 2ZM12 6.21965C12.7873 6.21965 13.4228 6.86513 13.4228 7.66474C13.4228 8.46436 12.7873 9.10983 12 9.10983C11.2127 9.10983 10.5772 8.46436 10.5772 7.66474C10.5772 6.86513 11.2127 6.21965 12 6.21965ZM12 17.7803C10.4255 17.7803 9.15447 16.4894 9.15447 14.8902C9.15447 13.2909 10.4255 12 12 12C13.5745 12 14.8455 13.2909 14.8455 14.8902C14.8455 16.4894 13.5745 17.7803 12 17.7803Z" fill="#141414"/>
</svg>
