<svg width="24" height="24" viewBox="0 0 24 24" fill="none" xmlns="http://www.w3.org/2000/svg">
<path d="M16 3.53846H8C7.59 3.53846 7.25 3.18974 7.25 2.76923C7.25 2.34872 7.59 2 8 2H16C16.41 2 16.75 2.34872 16.75 2.76923C16.75 3.18974 16.41 3.53846 16 3.53846Z" fill="#141414"/>
<path d="M16 22H8C7.59 22 7.25 21.6513 7.25 21.2308C7.25 20.8103 7.59 20.4615 8 20.4615H16C16.41 20.4615 16.75 20.8103 16.75 21.2308C16.75 21.6513 16.41 22 16 22Z" fill="#141414"/>
<path d="M15.5 4.82051H8.5C6.17 4.82051 5 6.02051 5 8.41026V15.5897C5 17.9795 6.17 19.1795 8.5 19.1795H15.5C17.83 19.1795 19 17.9795 19 15.5897V8.41026C19 6.02051 17.83 4.82051 15.5 4.82051ZM9.75 14.0513C9.75 14.4718 9.41 14.8205 9 14.8205C8.59 14.8205 8.25 14.4821 8.25 14.0513V13.0256C8.25 12.6051 8.59 12.2564 9 12.2564C9.41 12.2564 9.75 12.6051 9.75 13.0256V14.0513ZM12.75 14.0513C12.75 14.4718 12.41 14.8205 12 14.8205C11.59 14.8205 11.25 14.4718 11.25 14.0513V9.94872C11.25 9.52821 11.59 9.17949 12 9.17949C12.41 9.17949 12.75 9.52821 12.75 9.94872V14.0513ZM15.75 14.0513C15.75 14.4718 15.41 14.8205 15 14.8205C14.59 14.8205 14.25 14.4718 14.25 14.0513V12C14.25 11.5795 14.59 11.2308 15 11.2308C15.41 11.2308 15.75 11.5795 15.75 12V14.0513Z" fill="#141414"/>
</svg>
