<svg width="24" height="24" viewBox="0 0 24 24" fill="none" xmlns="http://www.w3.org/2000/svg">
<path d="M14.8218 10.8809L20.4531 7.04282C21.0202 6.65801 21.1694 5.86812 20.7914 5.30102L18.9806 2.55668C18.6025 1.97946 17.8265 1.82756 17.2693 2.21237L11.638 6.0504L14.8218 10.8809Z" fill="#141414"/>
<path d="M14.5034 10.3948L12.7524 11.5897L10.0959 13.4024L9.74767 13.6353L9.58849 13.3923L7.35985 10.01L7.20067 9.76691L11.9564 6.52636L14.5034 10.3948Z" fill="#141414"/>
<path d="M5.66848 16.0657L9.59844 13.3923L7.3698 10.01L3.43985 12.6834C2.98218 12.9973 2.86279 13.6252 3.17122 14.091L4.29548 15.7923C4.59396 16.2581 5.21081 16.3797 5.66848 16.0657Z" fill="#141414"/>
<path d="M16.5331 21.9291C16.4336 21.9696 16.3241 22 16.2246 22C15.9361 22 15.6675 21.8278 15.5381 21.5443L11.8271 13.1999L8.06625 21.5544C7.93691 21.8278 7.66828 22 7.37975 22C7.28026 22 7.17082 21.9696 7.07133 21.9291C6.7032 21.7468 6.53407 21.3013 6.7032 20.9164L10.0959 13.4024L12.7524 11.5897L16.9012 20.9266C17.0703 21.3013 16.9012 21.757 16.5331 21.9291Z" fill="#141414"/>
</svg>
