<svg width="24" height="24" viewBox="0 0 24 24" fill="none" xmlns="http://www.w3.org/2000/svg">
<path d="M16 3.53846H8C7.59 3.53846 7.25 3.18974 7.25 2.76923C7.25 2.34872 7.59 2 8 2H16C16.41 2 16.75 2.34872 16.75 2.76923C16.75 3.18974 16.41 3.53846 16 3.53846Z" fill="#141414"/>
<path d="M16 22H8C7.59 22 7.25 21.6513 7.25 21.2308C7.25 20.8103 7.59 20.4615 8 20.4615H16C16.41 20.4615 16.75 20.8103 16.75 21.2308C16.75 21.6513 16.41 22 16 22Z" fill="#141414"/>
<path d="M15.5 4.82051H8.5C6.17 4.82051 5 6.02051 5 8.41026V15.5897C5 17.9795 6.17 19.1795 8.5 19.1795H15.5C17.83 19.1795 19 17.9795 19 15.5897V8.41026C19 6.02051 17.83 4.82051 15.5 4.82051ZM14.5 13.2821H11.5C11.09 13.2821 10.75 12.9333 10.75 12.5128V9.4359C10.75 9.01539 11.09 8.66667 11.5 8.66667C11.91 8.66667 12.25 9.01539 12.25 9.4359V11.7436H14.5C14.91 11.7436 15.25 12.0923 15.25 12.5128C15.25 12.9333 14.91 13.2821 14.5 13.2821Z" fill="#141414"/>
</svg>
