<svg width="24" height="24" viewBox="0 0 24 24" fill="none" xmlns="http://www.w3.org/2000/svg">
<path d="M9.53779 13.6273C10.2762 13.6273 10.6468 14.5039 10.1235 15.0173L4.4283 20.6044H9.82371C10.0121 20.6044 10.1928 20.6782 10.3261 20.8088C10.4595 20.9396 10.5345 21.1177 10.5345 21.3027C10.5344 21.4877 10.4594 21.6648 10.3261 21.7956C10.1927 21.9264 10.0123 22 9.82371 22H2.99639C2.258 22 1.88774 21.1246 2.41182 20.6112L8.10704 15.0229H2.71163C2.52301 15.0229 2.34147 14.9494 2.20809 14.8185C2.07504 14.6878 2.00095 14.5104 2.00089 14.3257C2.00089 14.1407 2.07477 13.9625 2.20809 13.8317C2.34147 13.7009 2.52301 13.6273 2.71163 13.6273H9.53779ZM16.9358 3.16284C17.1244 3.16286 17.3048 3.23646 17.4382 3.36725L20.7916 6.65478C20.9251 6.7857 20.9999 6.96362 21 7.14876C21 7.33398 20.9251 7.51178 20.7916 7.64274C20.6581 7.77366 20.4769 7.84715 20.2881 7.84715C20.0996 7.84705 19.9191 7.77345 19.7857 7.64274L17.6465 5.54304V21.3027C17.6465 21.4877 17.5715 21.6648 17.4382 21.7956C17.3048 21.9264 17.1244 22 16.9358 22C16.7472 22 16.5656 21.9264 16.4322 21.7956C16.2992 21.6648 16.2251 21.4875 16.225 21.3027V5.54304L14.0859 7.64274C14.0199 7.70743 13.9417 7.75872 13.8555 7.79378C13.7693 7.82881 13.6768 7.84708 13.5835 7.84715C13.49 7.84715 13.3967 7.82887 13.3103 7.79378C13.2241 7.75871 13.1459 7.70743 13.0799 7.64274C13.0139 7.57797 12.9606 7.50137 12.9248 7.41676C12.8891 7.33203 12.8716 7.24047 12.8716 7.14876C12.8716 7.05724 12.8892 6.96647 12.9248 6.8819C12.9606 6.79717 13.0138 6.71963 13.0799 6.65478L16.4334 3.36725C16.5668 3.23645 16.7472 3.16284 16.9358 3.16284ZM6.26767 2C6.58758 2.00001 6.8997 2.09647 7.16131 2.27708C7.42302 2.45789 7.62182 2.71389 7.72968 3.00954L10.4939 10.6021C10.5253 10.6884 10.5391 10.7808 10.5345 10.8724C10.5297 10.9637 10.5061 11.0532 10.4662 11.1358C10.4261 11.2186 10.3699 11.2935 10.3006 11.355C10.2314 11.4163 10.15 11.4639 10.0622 11.4947C9.97434 11.5253 9.88093 11.539 9.78783 11.5344C9.6947 11.5298 9.60354 11.5066 9.51927 11.4674C9.43486 11.4281 9.35853 11.373 9.29586 11.305C9.23326 11.2371 9.18484 11.1573 9.15348 11.0711L8.47631 9.20872H4.05904L3.38186 11.0711C3.35053 11.1573 3.30204 11.2371 3.23948 11.305C3.17682 11.373 3.10048 11.4281 3.01607 11.4674C2.93181 11.5066 2.84065 11.5298 2.74752 11.5344C2.65443 11.539 2.56097 11.5253 2.47317 11.4947C2.38551 11.464 2.30381 11.4162 2.23472 11.355C2.16545 11.2935 2.10921 11.2186 2.06918 11.1358C2.02923 11.0531 2.00561 10.9637 2.00089 10.8724C1.99622 10.7808 2.01001 10.6884 2.0414 10.6021L4.80567 3.00954L4.85081 2.90052C4.96462 2.65117 5.14513 2.43522 5.37403 2.27708C5.63564 2.09649 5.94778 2 6.26767 2ZM4.56721 7.81308H7.96813L7.74125 7.19191L6.26767 3.14354L4.56721 7.81308Z" fill="#141414"/>
</svg>
