<svg width="24" height="24" viewBox="0 0 24 24" fill="none" xmlns="http://www.w3.org/2000/svg">
<path d="M11.9751 2C18.5996 2 22.5055 7.55392 21.9472 12.596C21.7932 13.9852 21.3666 14.9479 20.8666 15.6132L20.8596 15.6243C20.5455 16.0473 20.1481 16.4006 19.6937 16.6632L19.4888 16.774C18.2829 17.3754 17.133 17.3232 16.3134 16.6753L16.1758 16.5595C16.0577 16.4515 15.9527 16.3328 15.8595 16.2062L15.3915 15.5699L15.0662 15.7904L14.7398 16.0109C14.035 16.4864 13.2199 16.7688 12.3768 16.8324L12.0143 16.8455C10.3502 16.8455 8.86273 16.0016 7.98125 14.7132C7.93723 14.6488 7.89465 14.5834 7.85371 14.5169C7.4027 13.7842 7.14171 12.923 7.14171 12C7.14171 9.31834 9.34193 7.15617 12.0042 7.15454L12.2332 7.15856C13.3004 7.20688 14.3251 7.60732 15.1445 8.30122L15.6456 8.72506L16.1688 8.32941C16.2798 8.24551 16.414 8.19601 16.5544 8.18645C16.6948 8.177 16.8349 8.20794 16.9561 8.27605C17.0781 8.34488 17.1787 8.44942 17.2434 8.57405C17.3075 8.69811 17.3336 8.83889 17.3197 8.97876L16.8055 14.1323C16.8016 14.1647 16.7539 14.4764 16.7784 14.7293C16.7922 14.8708 16.8358 15.1146 17.0063 15.3394C17.2085 15.6051 17.5056 15.737 17.8097 15.7481L17.8188 15.7491H17.8278L17.9523 15.7481H17.9624L17.9724 15.7471C18.3421 15.7265 18.6751 15.5944 18.9405 15.437C19.1053 15.3392 19.2581 15.2209 19.3954 15.0937L19.4145 15.0766L19.3974 15.0937L19.4276 15.1239L19.7128 14.7484C20.0401 14.3147 20.3836 13.604 20.5142 12.4369C20.9833 8.19749 17.6861 3.44367 11.9751 3.44367C9.71161 3.44367 7.54105 4.34607 5.94064 5.95047C4.34023 7.55487 3.44008 9.73085 3.44008 12V12.006L3.4441 12.2658L3.4451 12.2728C3.48814 13.6344 3.85489 14.9681 4.51662 16.1609C5.22266 17.4332 6.24208 18.5041 7.47612 19.2717C8.7103 20.0393 10.1198 20.4781 11.5704 20.5473C12.9304 20.612 14.285 20.3491 15.5211 19.7831L15.7671 19.6664L15.8344 19.6362C15.9884 19.5781 16.1593 19.5751 16.3174 19.6281C16.4987 19.6892 16.6491 19.8204 16.7342 19.9915C16.819 20.1628 16.8332 20.3624 16.7724 20.5442C16.7191 20.7028 16.6129 20.8368 16.4741 20.9248L16.4028 20.9631C15.0674 21.6264 13.5642 22 11.9751 22C9.39254 22 7.03919 21.0166 5.2678 19.4026C5.03158 19.1874 4.80562 18.9609 4.59094 18.7241C2.98099 16.9482 2 14.589 2 12C2 9.41098 2.98099 7.05176 4.59094 5.27595C4.80562 5.03914 5.03158 4.81263 5.2678 4.5974C7.03919 2.98344 9.39254 2 11.9751 2ZM12.0062 8.59821C10.8302 8.59821 9.78664 9.19685 9.16927 10.1023C9.13841 10.1475 9.10858 10.1935 9.07989 10.2402C8.76422 10.7546 8.58179 11.3573 8.58179 12C8.58179 13.8685 10.1293 15.4018 12.0143 15.4018L12.3135 15.3887C12.568 15.3664 12.8151 15.3134 13.0527 15.2377C14.0609 14.9162 14.8814 14.1421 15.2399 13.1336C15.2896 12.9939 15.3333 12.8508 15.3644 12.7027C15.5511 11.816 15.3686 10.9474 14.9326 10.2392C14.8957 10.1792 14.8566 10.1206 14.8161 10.063C14.7538 9.97444 14.6876 9.88871 14.6173 9.8063C14.6099 9.79761 14.6027 9.78874 14.5952 9.78013C14.0118 9.10981 13.1692 8.65992 12.2081 8.60425L12.0062 8.59821Z" fill="#141414"/>
</svg>
