<svg width="24" height="24" viewBox="0 0 24 24" fill="none" xmlns="http://www.w3.org/2000/svg">
<path d="M10.0391 13.6284C10.7431 13.6287 11.1153 14.4305 10.6884 14.9469L10.6247 15.0173L4.93014 20.6055H10.3238L10.4581 20.618C10.5896 20.6429 10.7123 20.7037 10.8111 20.7951C10.9429 20.9172 11.0227 21.0843 11.0333 21.2619C11.0439 21.4392 10.985 21.6139 10.8689 21.7502C10.7534 21.8856 10.5892 21.9726 10.4106 21.9943L10.3157 22H3.49839C2.79432 21.9997 2.42085 21.1968 2.84791 20.6804L2.91272 20.6112L8.60731 15.0229H3.21366C3.0325 15.0227 2.85815 14.9552 2.72638 14.8333C2.59458 14.7112 2.51477 14.5441 2.50415 14.3666C2.49354 14.1891 2.55334 14.0146 2.66966 13.8783C2.78499 13.7431 2.94755 13.6549 3.12569 13.633L3.22176 13.6284H10.0391ZM17.4362 3.16284C17.6246 3.16299 17.8053 3.23653 17.9386 3.36725C18.0718 3.49807 18.1469 3.67518 18.1469 3.8601V19.4188L20.2847 17.3214C20.3507 17.2565 20.4299 17.2043 20.5162 17.1692C20.6023 17.1343 20.695 17.1159 20.7882 17.1158C20.8815 17.1158 20.974 17.1342 21.0602 17.1692C21.1463 17.2042 21.2245 17.2556 21.2905 17.3202C21.3566 17.385 21.4098 17.4627 21.4456 17.5474C21.4812 17.6319 21.5 17.7228 21.5 17.8142C21.5 17.9058 21.4813 17.9965 21.4456 18.0811C21.41 18.1656 21.3575 18.2423 21.2917 18.3071L17.9386 21.5957C17.8053 21.7264 17.6246 21.8 17.4362 21.8001C17.2477 21.8001 17.0661 21.7265 16.9328 21.5957L13.5866 18.3127C13.4573 18.1812 13.3859 18.0049 13.3875 17.8222C13.3892 17.6393 13.4641 17.4643 13.5959 17.335C13.7277 17.2058 13.906 17.1322 14.0924 17.1306C14.232 17.1294 14.3679 17.1687 14.4836 17.2419L14.5924 17.327L16.7244 19.4188V3.8601C16.7244 3.67519 16.7996 3.49807 16.9328 3.36725C17.0661 3.2364 17.2476 3.16284 17.4362 3.16284ZM6.7693 2C7.30384 2.00019 7.79201 2.26931 8.07374 2.69839L8.18138 2.89257L8.22999 3.00954L10.9939 10.6032C11.055 10.7707 11.0492 10.9547 10.9766 11.1176C10.9038 11.2807 10.7697 11.4103 10.6027 11.4799C10.4357 11.5495 10.2474 11.5543 10.0773 11.4924C9.90925 11.4312 9.7715 11.3096 9.69067 11.1529L9.65132 11.0643L8.97654 9.20872H4.56091L3.88266 11.0711V11.0734C3.82237 11.2417 3.69829 11.3813 3.53658 11.4629C3.37473 11.5444 3.18692 11.5617 3.01226 11.5117C2.83757 11.4616 2.68844 11.348 2.59674 11.1937C2.50575 11.0405 2.47758 10.8589 2.51804 10.6861L2.5435 10.6032L5.30746 3.00954L5.35144 2.90052C5.46522 2.65109 5.64569 2.43527 5.87461 2.27708C6.13627 2.09628 6.44926 2.00001 6.7693 2ZM5.06787 7.81422H8.46958L6.7693 3.14354L5.06787 7.81422Z" fill="#141414"/>
</svg>
