<svg width="24" height="24" viewBox="0 0 24 24" fill="none" xmlns="http://www.w3.org/2000/svg">
<path d="M10.7594 13.4004C11.3534 13.4006 11.6674 14.0901 11.3072 14.5342L11.2535 14.5947L6.44881 19.4004H10.9996L11.1129 19.4111C11.2238 19.4326 11.3274 19.4849 11.4107 19.5635C11.5219 19.6685 11.5893 19.8122 11.5982 19.9648C11.6072 20.1173 11.5575 20.2676 11.4596 20.3848C11.3621 20.5012 11.2235 20.576 11.0728 20.5947L10.9928 20.5996H5.24081C4.64676 20.5994 4.33166 19.9089 4.69198 19.4648L4.74666 19.4053L9.55135 14.5996H5.00057C4.84772 14.5994 4.70062 14.5414 4.58944 14.4365C4.47824 14.3315 4.4109 14.1878 4.40194 14.0352C4.39298 13.8825 4.44344 13.7325 4.54159 13.6152C4.63889 13.499 4.77605 13.4232 4.92635 13.4043L5.00741 13.4004H10.7594ZM17.0006 4.40039C17.1595 4.40052 17.312 4.46376 17.4244 4.57617C17.5368 4.68867 17.6002 4.84098 17.6002 5V18.3799L19.4039 16.5762C19.4596 16.5204 19.5264 16.4755 19.5992 16.4453C19.6719 16.4153 19.7501 16.3994 19.8287 16.3994C19.9074 16.3994 19.9855 16.4152 20.0582 16.4453C20.1309 16.4754 20.1968 16.5196 20.2525 16.5752C20.3083 16.6309 20.3532 16.6977 20.3834 16.7705C20.4134 16.8432 20.4293 16.9213 20.4293 17C20.4293 17.0787 20.4135 17.1567 20.3834 17.2295C20.3533 17.3022 20.309 17.3682 20.2535 17.4238L17.4244 20.252C17.312 20.3643 17.1595 20.4276 17.0006 20.4277C16.8415 20.4277 16.6883 20.3644 16.5758 20.252L13.7525 17.4287C13.6434 17.3156 13.5832 17.164 13.5846 17.0068C13.586 16.8496 13.6491 16.6991 13.7603 16.5879C13.8716 16.4768 14.022 16.4135 14.1793 16.4121C14.2971 16.4111 14.4117 16.4449 14.5094 16.5078L14.6012 16.5811L16.4 18.3799V5C16.4 4.84099 16.4634 4.68867 16.5758 4.57617C16.6883 4.46365 16.8414 4.40039 17.0006 4.40039ZM8.00057 3.40039C8.45158 3.40055 8.86346 3.63199 9.10116 4.00098L9.19198 4.16797L9.23299 4.26855L11.565 10.7988C11.6165 10.9429 11.6117 11.1011 11.5504 11.2412C11.4889 11.3814 11.3758 11.4929 11.2349 11.5527C11.094 11.6126 10.9352 11.6167 10.7916 11.5635C10.6498 11.5108 10.5336 11.4063 10.4654 11.2715L10.4322 11.1953L9.86288 9.59961H6.13729L5.56502 11.2012V11.2031C5.51416 11.3479 5.40947 11.4679 5.27303 11.5381C5.13647 11.6082 4.97801 11.6231 4.83065 11.5801C4.68325 11.537 4.55743 11.4393 4.48006 11.3066C4.40329 11.1749 4.37952 11.0187 4.41366 10.8701L4.43514 10.7988L6.76717 4.26855L6.80428 4.1748C6.90027 3.96031 7.05255 3.77471 7.24569 3.63867C7.46646 3.48319 7.73054 3.4004 8.00057 3.40039ZM6.56502 8.40039H9.43514L8.00057 4.38379L6.56502 8.40039Z" fill="#141414"/>
</svg>
