<svg width="24" height="24" viewBox="0 0 24 24" fill="none" xmlns="http://www.w3.org/2000/svg">
<path d="M12 2.2998C18.4419 2.2998 22.2401 7.68721 21.6973 12.5781C21.5475 13.9257 21.1327 14.8596 20.6465 15.5049L20.6396 15.5156C20.3342 15.926 19.9478 16.2686 19.5059 16.5234L19.3066 16.6309C18.134 17.2143 17.0158 17.1636 16.2188 16.5352L16.085 16.4229C15.9701 16.318 15.868 16.2029 15.7773 16.0801L15.3223 15.4629L15.0059 15.6768L14.6885 15.8906C14.0031 16.3519 13.2105 16.6258 12.3906 16.6875L12.0381 16.7002C10.4199 16.7002 8.9734 15.8816 8.11621 14.6318C8.07341 14.5694 8.032 14.5059 7.99219 14.4414C7.55361 13.7307 7.2998 12.8954 7.2998 12C7.2998 9.39873 9.43939 7.30139 12.0283 7.2998L12.251 7.30371C13.2888 7.35058 14.2852 7.73901 15.082 8.41211L15.5693 8.82324L16.0781 8.43945C16.1861 8.35807 16.3165 8.31006 16.4531 8.30078C16.5896 8.29162 16.7259 8.32163 16.8438 8.3877C16.9624 8.45447 17.0602 8.55587 17.123 8.67676C17.1854 8.79711 17.2108 8.93366 17.1973 9.06934L16.6973 14.0684C16.6935 14.0998 16.647 14.4021 16.6709 14.6475C16.6843 14.7848 16.7267 15.0212 16.8926 15.2393C17.0892 15.497 17.3781 15.6249 17.6738 15.6357L17.6826 15.6367H17.6914L17.8125 15.6357H17.8223L17.832 15.6348C18.1915 15.6148 18.5154 15.4866 18.7734 15.334C18.9337 15.2391 19.0823 15.1243 19.2158 15.001L19.2344 14.9844L19.2178 15.001L19.2471 15.0303L19.5244 14.666C19.8427 14.2453 20.1768 13.5559 20.3037 12.4238C20.7599 8.31149 17.5536 3.7002 12 3.7002C9.79888 3.7002 7.68814 4.57553 6.13184 6.13184C4.57553 7.68814 3.7002 9.79888 3.7002 12V12.0059L3.7041 12.2578L3.70508 12.2646C3.74693 13.5854 4.10358 14.8791 4.74707 16.0361C5.43365 17.2703 6.42497 18.3091 7.625 19.0537C8.82517 19.7983 10.1959 20.224 11.6064 20.291C12.9289 20.3538 14.2462 20.0988 15.4482 19.5498L15.6875 19.4365L15.7529 19.4072C15.9026 19.3509 16.0689 19.348 16.2227 19.3994C16.3989 19.4587 16.5452 19.586 16.6279 19.752C16.7104 19.9181 16.7242 20.1117 16.665 20.2881C16.6133 20.4419 16.51 20.5718 16.375 20.6572L16.3057 20.6943C15.0071 21.3378 13.5453 21.7002 12 21.7002C9.4886 21.7002 7.20011 20.7462 5.47754 19.1807C5.24783 18.9719 5.02811 18.7522 4.81934 18.5225C3.25376 16.7999 2.2998 14.5114 2.2998 12C2.2998 9.4886 3.25376 7.20011 4.81934 5.47754C5.02811 5.24783 5.24783 5.02811 5.47754 4.81934C7.20011 3.25376 9.4886 2.2998 12 2.2998ZM12.0303 8.7002C10.8866 8.7002 9.87185 9.28089 9.27148 10.1592C9.24148 10.2031 9.21247 10.2476 9.18457 10.293C8.8776 10.7919 8.7002 11.3765 8.7002 12C8.7002 13.8125 10.205 15.2998 12.0381 15.2998L12.3291 15.2871C12.5765 15.2655 12.8168 15.2141 13.0479 15.1406C14.0283 14.8288 14.8262 14.0778 15.1748 13.0996C15.2231 12.9641 15.2657 12.8253 15.2959 12.6816C15.4775 11.8215 15.2999 10.9789 14.876 10.292C14.8401 10.2338 14.8021 10.177 14.7627 10.1211C14.7021 10.0352 14.6377 9.95201 14.5693 9.87207C14.5621 9.86364 14.5551 9.85504 14.5479 9.84668C13.9806 9.19646 13.1612 8.76006 12.2266 8.70605L12.0303 8.7002Z" fill="#141414"/>
</svg>
