<svg width="24" height="24" viewBox="0 0 24 24" fill="none" xmlns="http://www.w3.org/2000/svg">
<path d="M16.1971 2H7.8129C4.17108 2 2 4.17 2 7.81V16.18C2 19.83 4.17108 22 7.8129 22H16.1871C19.8289 22 22 19.83 22 16.19V7.81C22.01 4.17 19.8389 2 16.1971 2ZM16.3772 14.63L14.1561 16.85C13.6158 17.39 12.9154 17.65 12.2151 17.65C11.5147 17.65 10.8044 17.38 10.2741 16.85C9.20359 15.78 9.20359 14.03 10.2741 12.96L11.6848 11.55C11.975 11.26 12.4552 11.26 12.7454 11.55C13.0355 11.84 13.0355 12.32 12.7454 12.61L11.3347 14.02C10.8444 14.51 10.8444 15.3 11.3347 15.79C11.8249 16.28 12.6153 16.28 13.1055 15.79L15.3266 13.57C15.9369 12.96 16.2771 12.14 16.2771 11.27C16.2771 10.4 15.9369 9.59 15.3266 8.97C14.096 7.74 11.955 7.74 10.7243 8.97L8.29314 11.4C7.25262 12.44 7.25262 14.14 8.29314 15.19C8.58328 15.48 8.58328 15.96 8.29314 16.25C8.00299 16.54 7.52275 16.54 7.23261 16.25C5.60179 14.62 5.60179 11.97 7.23261 10.34L9.65381 7.92C10.5543 7.02 11.7449 6.53 13.0155 6.53C14.2861 6.53 15.4767 7.02 16.3772 7.92C17.2776 8.82 17.7679 10.01 17.7679 11.28C17.7679 12.55 17.2776 13.74 16.3772 14.63Z" fill="#141414"/>
</svg>
