<svg width="24" height="24" viewBox="0 0 24 24" fill="none" xmlns="http://www.w3.org/2000/svg">
<path d="M10.7588 13.3997C11.3818 13.3997 11.6944 14.1535 11.2529 14.595L6.44826 19.3997H11C11.159 19.3997 11.3114 19.4632 11.4238 19.5754C11.5364 19.688 11.5996 19.8411 11.5996 20.0002C11.5996 20.1593 11.5363 20.3116 11.4238 20.4241C11.3113 20.5365 11.1591 20.5998 11 20.5999H5.24025C4.61731 20.5999 4.30496 19.847 4.74709 19.4055L9.55177 14.5999H5.00002C4.84089 14.5999 4.68773 14.5366 4.57521 14.4241C4.46296 14.3116 4.40046 14.1591 4.40041 14.0002C4.40041 13.8411 4.46273 13.688 4.57521 13.5754C4.68773 13.4629 4.84089 13.3997 5.00002 13.3997H10.7588ZM17 4.40063C17.1591 4.40065 17.3113 4.46395 17.4238 4.57642L20.2529 7.40356C20.3655 7.51615 20.4287 7.66916 20.4287 7.82837C20.4287 7.98765 20.3656 8.14055 20.2529 8.25317C20.1403 8.36576 19.9874 8.42896 19.8281 8.42896C19.6691 8.42887 19.5168 8.36558 19.4043 8.25317L17.5996 6.44751V20.0002C17.5996 20.1593 17.5363 20.3116 17.4238 20.4241C17.3113 20.5365 17.1591 20.5998 17 20.5999C16.8409 20.5999 16.6877 20.5366 16.5752 20.4241C16.463 20.3116 16.4005 20.1591 16.4004 20.0002V6.44751L14.5957 8.25317C14.54 8.3088 14.4741 8.35291 14.4014 8.38306C14.3287 8.41318 14.2506 8.4289 14.1719 8.42896C14.093 8.42896 14.0143 8.41324 13.9414 8.38306C13.8687 8.3529 13.8027 8.3088 13.7471 8.25317C13.6914 8.19747 13.6464 8.1316 13.6162 8.05884C13.586 7.98598 13.5713 7.90724 13.5713 7.82837C13.5713 7.74966 13.5861 7.67161 13.6162 7.59888C13.6464 7.52601 13.6913 7.45933 13.7471 7.40356L16.5762 4.57642C16.6887 4.46393 16.8409 4.40063 17 4.40063ZM8.00002 3.40063C8.2699 3.40065 8.53322 3.48359 8.75392 3.63892C8.97471 3.7944 9.14242 4.01455 9.23342 4.2688L11.5654 10.7981C11.5919 10.8723 11.6036 10.9518 11.5996 11.0305C11.5956 11.1091 11.5757 11.186 11.542 11.2571C11.5082 11.3283 11.4608 11.3927 11.4024 11.4456C11.344 11.4983 11.2753 11.5392 11.2012 11.5657C11.1271 11.592 11.0483 11.6038 10.9697 11.5999C10.8912 11.5959 10.8143 11.5759 10.7432 11.5422C10.672 11.5085 10.6076 11.461 10.5547 11.4026C10.5019 11.3442 10.461 11.2756 10.4346 11.2014L9.8633 9.59985H6.13674L5.56545 11.2014C5.53901 11.2756 5.4981 11.3442 5.44533 11.4026C5.39247 11.461 5.32806 11.5085 5.25685 11.5422C5.18576 11.5759 5.10886 11.5959 5.03029 11.5999C4.95176 11.6038 4.87292 11.592 4.79884 11.5657C4.72488 11.5393 4.65596 11.4982 4.59767 11.4456C4.53924 11.3927 4.49179 11.3283 4.45802 11.2571C4.42431 11.186 4.40439 11.1091 4.40041 11.0305C4.39647 10.9518 4.4081 10.8723 4.43459 10.7981L6.76662 4.2688L6.8047 4.17505C6.90072 3.96062 7.053 3.77491 7.24611 3.63892C7.46681 3.48361 7.73014 3.40063 8.00002 3.40063ZM6.56545 8.39966H9.43459L9.24318 7.86548L8.00002 4.38403L6.56545 8.39966Z" fill="#141414"/>
</svg>
