<svg width="24" height="24" viewBox="0 0 24 24" fill="none" xmlns="http://www.w3.org/2000/svg">
<path d="M15.903 12.378H20.5907C20.5107 17.1487 19.5912 17.9353 16.7226 19.6719C16.3928 19.8763 16.2829 20.3053 16.4828 20.6526C16.6827 20.9898 17.1024 21.1021 17.4423 20.8978C20.8206 18.8547 22 17.6084 22 11.6629V6.15664C22 4.40976 20.6107 3 18.9115 3H15.913C14.1539 3 12.8246 4.35868 12.8246 6.15664V9.22133C12.8146 11.0193 14.1439 12.378 15.903 12.378Z" fill="#141414"/>
<path d="M5.08846 12.378H9.77611C9.69615 17.1487 8.77661 17.9353 5.90805 19.6719C5.57821 19.8763 5.46827 20.3053 5.66817 20.6526C5.86807 20.9898 6.28786 21.1021 6.62769 20.8978C10.006 18.8547 11.1854 17.6084 11.1854 11.6629V6.15664C11.1854 4.40976 9.7961 3 8.09695 3H5.09845C3.32934 3 2 4.35868 2 6.15664V9.22133C2 11.0193 3.32934 12.378 5.08846 12.378Z" fill="#141414"/>
</svg>
