<svg width="24" height="24" viewBox="0 0 24 24" fill="none" xmlns="http://www.w3.org/2000/svg">
<path d="M16.1971 2H7.8129C4.17108 2 2 4.17 2 7.81V16.18C2 19.83 4.17108 22 7.8129 22H16.1871C19.8289 22 22 19.83 22 16.19V7.81C22.01 4.17 19.8389 2 16.1971 2ZM11.6148 11.84C11.6148 14.92 10.9445 15.61 9.15356 16.67C9.0335 16.74 8.90344 16.77 8.77338 16.77C8.51325 16.77 8.26312 16.64 8.12305 16.4C7.91295 16.04 8.03301 15.58 8.38318 15.37C9.59378 14.65 10.014 14.39 10.094 12.58H8.19309C7.10254 12.58 6.25212 11.73 6.25212 10.64V9.16C6.25212 8.07 7.10254 7.22 8.19309 7.22H9.68383C10.7544 7.22 11.6248 8.09 11.6248 9.16V11.84H11.6148ZM17.7579 11.84C17.7579 14.92 17.0875 15.61 15.2966 16.67C15.1766 16.74 15.0465 16.77 14.9164 16.77C14.6563 16.77 14.4062 16.64 14.2661 16.4C14.056 16.04 14.1761 15.58 14.5262 15.37C15.7368 14.65 16.1571 14.39 16.2371 12.58H14.3261C13.2356 12.58 12.3852 11.73 12.3852 10.64V9.16C12.3852 8.07 13.2356 7.22 14.3261 7.22H15.8169C16.8874 7.22 17.7579 8.09 17.7579 9.16V11.84Z" fill="#141414"/>
</svg>
