<svg width="24" height="24" viewBox="0 0 24 24" fill="none" xmlns="http://www.w3.org/2000/svg">
<path d="M16.1971 2H7.8129C4.17108 2 2 4.17 2 7.81V16.18C2 19.83 4.17108 22 7.8129 22H16.1871C19.8289 22 22 19.83 22 16.19V7.81C22.01 4.17 19.8389 2 16.1971 2ZM12.5252 15.75L11.2646 17.01C10.6243 17.66 9.57377 17.66 8.92345 17.01L6.99249 15.08C6.34216 14.43 6.35217 13.39 6.99249 12.74L8.26312 11.48C8.46322 11.29 8.77338 11.29 8.97347 11.48L12.5352 15.04C12.7253 15.24 12.7253 15.56 12.5252 15.75ZM17.0175 11.26L13.9359 14.34C13.7358 14.54 13.4257 14.54 13.2256 14.34L9.66382 10.78C9.46372 10.58 9.46372 10.27 9.66382 10.07L12.7454 6.99C13.3857 6.34 14.4362 6.34 15.0865 6.99L17.0175 8.92C17.6678 9.57 17.6678 10.62 17.0175 11.26Z" fill="#141414"/>
</svg>
