<svg width="24" height="24" viewBox="0 0 24 24" fill="none" xmlns="http://www.w3.org/2000/svg">
<path d="M13.0654 3.30273C13.2151 3.31679 13.3578 3.37895 13.4707 3.48145C13.5551 3.55815 13.6186 3.65412 13.6572 3.75977L13.6875 3.86816L13.6953 3.92871L13.6992 4V20L13.6963 20.0664C13.6812 20.2216 13.615 20.3688 13.5068 20.4824C13.3832 20.612 13.2132 20.6896 13.0332 20.6982C12.8984 20.7046 12.7656 20.6718 12.6504 20.6055L12.542 20.5283C12.4247 20.4268 12.3453 20.2902 12.3145 20.1406L12.3027 20.0625L12.3008 20V12.6992H4.69922V20L4.69629 20.0664C4.68124 20.2216 4.615 20.3688 4.50684 20.4824C4.38315 20.612 4.21318 20.6896 4.0332 20.6982C3.89838 20.7046 3.76564 20.6718 3.65039 20.6055L3.54199 20.5283C3.4247 20.4268 3.34531 20.2902 3.31445 20.1406L3.30273 20.0625L3.30078 20V4C3.30097 3.8202 3.36967 3.64729 3.49316 3.51758C3.61685 3.38797 3.78682 3.31042 3.9668 3.30176C4.14638 3.29323 4.32227 3.35429 4.45801 3.47168L4.5498 3.56836C4.60447 3.63789 4.64575 3.71692 4.6709 3.80176L4.69629 3.93359L4.69922 4V11.3008H12.3008V4C12.3008 3.81461 12.3744 3.63732 12.5059 3.50586C12.6373 3.3744 12.8146 3.2998 13 3.2998L13.0654 3.30273Z" fill="#141414"/>
<path d="M17.7998 13.2623C18.2288 13.158 18.6789 13.1906 19.0859 13.3541L19.0957 13.358L19.25 13.4293L19.2568 13.4322L19.2627 13.4352C20.1693 13.8878 20.6394 14.9389 20.3916 15.9313C20.3152 16.2368 20.1726 16.5215 19.9775 16.7672L19.9727 16.7731L19.8613 16.902L19.8564 16.9078L17.3418 19.6012H20.3721L20.3896 19.6041L20.4639 19.6178L20.4834 19.6217L20.502 19.6285C20.5493 19.6474 20.5921 19.6749 20.6279 19.7086C20.702 19.7788 20.7459 19.8754 20.752 19.9762L20.7539 19.9957L20.751 20.0143L20.7412 20.0885L20.7393 20.107L20.7324 20.1256C20.7171 20.1718 20.6937 20.2162 20.6611 20.2555C20.5977 20.3313 20.5078 20.3797 20.4131 20.3942L20.3955 20.3961L20.3506 20.399L20.3379 20.4L16.6504 20.399C16.5961 20.399 16.5422 20.389 16.4932 20.3688L16.4912 20.3678C16.4429 20.3472 16.3976 20.3162 16.3604 20.2789C16.3253 20.2438 16.2934 20.1998 16.2715 20.1471C16.2597 20.1183 16.2523 20.0908 16.248 20.0699L16.2461 20.0602L16.2451 20.0494L16.2412 20.0094L16.2402 19.9996V19.9899C16.2403 19.789 16.257 19.6791 16.2842 19.6051L16.2891 19.5914L16.2959 19.5797L16.3174 19.5397L16.3262 19.5221L16.3379 19.5074L16.3643 19.4752L19.2803 16.3551L19.2832 16.3522L19.2881 16.3463L19.3525 16.2701L19.3535 16.2692L19.3574 16.2643C19.7197 15.7988 19.6983 15.1939 19.4902 14.7613C19.2716 14.3073 18.7767 13.9118 18.1318 14.0104L17.9951 14.0377C17.3665 14.1956 17.0981 14.726 17.0508 15.1842L17.0479 15.2145V15.2272L17.041 15.3229V15.358C17.0407 15.4638 16.9983 15.5647 16.9238 15.6393C16.8679 15.6952 16.7966 15.7331 16.7197 15.7486L16.6406 15.7565C16.5346 15.7563 16.4331 15.7139 16.3584 15.6393C16.3028 15.5836 16.2646 15.5132 16.249 15.4361L16.2471 15.4264L16.2412 15.3678V15.357C16.2414 14.3597 16.8606 13.5009 17.7979 13.2633L17.7998 13.2623Z" fill="#141414"/>
</svg>
