<svg width="24" height="24" viewBox="0 0 24 24" fill="none" xmlns="http://www.w3.org/2000/svg">
<path d="M13.1896 2.00337C13.3611 2.01953 13.5246 2.09097 13.654 2.20879C13.7507 2.29696 13.8235 2.40728 13.8677 2.52871L13.9024 2.65332L13.9114 2.72291L13.9158 2.80486V21.1965L13.9125 21.2728C13.8952 21.4512 13.8193 21.6204 13.6954 21.751C13.5537 21.9 13.3589 21.9891 13.1526 21.9991C12.9981 22.0065 12.846 21.9687 12.714 21.8925L12.5897 21.8038C12.4553 21.6871 12.3644 21.5301 12.329 21.3581L12.3156 21.2683L12.3133 21.1965V12.8044H3.60251V21.1965L3.59915 21.2728C3.5819 21.4512 3.506 21.6204 3.38205 21.751C3.24032 21.9 3.04554 21.9891 2.8393 21.9991C2.68481 22.0065 2.53269 21.9687 2.40063 21.8925L2.27641 21.8038C2.14201 21.6871 2.05103 21.5301 2.01567 21.3581L2.00224 21.2683L2 21.1965V2.80486C2.00022 2.59819 2.07894 2.39943 2.22046 2.25033C2.36219 2.10135 2.55696 2.0122 2.7632 2.00225C2.96899 1.99244 3.17055 2.06263 3.3261 2.19757L3.43129 2.3087C3.49393 2.38862 3.54124 2.47946 3.57005 2.57698L3.59915 2.72853L3.60251 2.80486V11.1969H12.3133V2.80486C12.3133 2.59176 12.3977 2.38796 12.5483 2.23686C12.699 2.08575 12.9021 2 13.1146 2L13.1896 2.00337Z" fill="#141414"/>
<path d="M18.6148 13.4517C19.1064 13.3318 19.6222 13.3692 20.0886 13.5572L20.0998 13.5617L20.2766 13.6436L20.2845 13.647L20.2912 13.6504C21.33 14.1706 21.8688 15.3789 21.5848 16.5196C21.4973 16.8708 21.3339 17.198 21.1103 17.4805L21.1047 17.4872L20.9772 17.6354L20.9716 17.6421L18.09 20.7381H21.5624L21.5826 20.7414L21.6676 20.7571L21.69 20.7616L21.7113 20.7695C21.7655 20.7912 21.8146 20.8227 21.8556 20.8615C21.9405 20.9423 21.9909 21.0533 21.9978 21.1691L22 21.1916L21.9966 21.2129L21.9855 21.2982L21.9832 21.3195L21.9754 21.3409C21.9578 21.3939 21.931 21.445 21.8937 21.4902C21.821 21.5773 21.718 21.633 21.6094 21.6496L21.5893 21.6518L21.5378 21.6552L21.5233 21.6563L17.2977 21.6552C17.2355 21.6552 17.1737 21.6436 17.1175 21.6204L17.1153 21.6192C17.0598 21.5956 17.008 21.5599 16.9653 21.5171C16.9251 21.4767 16.8886 21.4262 16.8635 21.3655C16.8499 21.3325 16.8415 21.3009 16.8366 21.2769L16.8344 21.2656L16.8333 21.2533L16.8288 21.2073L16.8277 21.196V21.1848C16.8277 20.954 16.8469 20.8277 16.878 20.7425L16.8836 20.7268L16.8914 20.7134L16.9161 20.6673L16.9261 20.6471L16.9396 20.6303L16.9698 20.5932L20.3113 17.0067L20.3147 17.0034L20.3203 16.9966L20.3941 16.9091L20.3953 16.908L20.3997 16.9023C20.8149 16.3673 20.7903 15.672 20.5519 15.1748C20.3014 14.6529 19.7342 14.1983 18.9953 14.3115L18.8386 14.343C18.1182 14.5245 17.8108 15.1342 17.7565 15.6608L17.7531 15.6956V15.7102L17.7453 15.8202V15.8606C17.745 15.9822 17.6963 16.0982 17.611 16.1839C17.547 16.2482 17.4653 16.2918 17.3771 16.3096L17.2865 16.3186C17.165 16.3184 17.0486 16.2697 16.9631 16.1839C16.8994 16.1199 16.8556 16.039 16.8377 15.9504L16.8355 15.9392L16.8288 15.8719V15.8595C16.829 14.7131 17.5386 13.7259 18.6126 13.4528L18.6148 13.4517Z" fill="#141414"/>
</svg>
