<svg width="24" height="24" viewBox="0 0 24 24" fill="none" xmlns="http://www.w3.org/2000/svg">
<path d="M13.0654 3.30273C13.2151 3.31679 13.3578 3.37895 13.4707 3.48145C13.5551 3.55815 13.6186 3.65412 13.6572 3.75977L13.6875 3.86816L13.6953 3.92871L13.6992 4V20L13.6963 20.0664C13.6812 20.2216 13.615 20.3688 13.5068 20.4824C13.3832 20.612 13.2132 20.6896 13.0332 20.6982C12.8984 20.7046 12.7656 20.6718 12.6504 20.6055L12.542 20.5283C12.4247 20.4268 12.3453 20.2902 12.3145 20.1406L12.3027 20.0625L12.3008 20V12.6992H4.69922V20L4.69629 20.0664C4.68124 20.2216 4.615 20.3688 4.50684 20.4824C4.38315 20.612 4.21318 20.6896 4.0332 20.6982C3.89838 20.7046 3.76564 20.6718 3.65039 20.6055L3.54199 20.5283C3.4247 20.4268 3.34531 20.2902 3.31445 20.1406L3.30273 20.0625L3.30078 20V4C3.30097 3.8202 3.36967 3.64729 3.49316 3.51758C3.61685 3.38797 3.78682 3.31042 3.9668 3.30176C4.14638 3.29323 4.32227 3.35429 4.45801 3.47168L4.5498 3.56836C4.60447 3.63789 4.64575 3.71692 4.6709 3.80176L4.69629 3.93359L4.69922 4V11.3008H12.3008V4C12.3008 3.81461 12.3744 3.63732 12.5059 3.50586C12.6373 3.3744 12.8146 3.2998 13 3.2998L13.0654 3.30273Z" fill="#141414"/>
<path d="M18.3703 13.1006C18.7029 13.1017 19.0296 13.1841 19.3215 13.3398L19.4445 13.4102C19.7657 13.6118 20.025 13.9005 20.1916 14.2422C20.358 14.5838 20.4252 14.9661 20.3859 15.3438C20.3465 15.7214 20.2011 16.081 19.968 16.3809L19.9611 16.3906L19.9572 16.3936L19.6818 16.75L19.9572 17.1055L19.9611 17.1094L19.968 17.1191C20.2011 17.419 20.3465 17.7786 20.3859 18.1562C20.4252 18.5339 20.358 18.9162 20.1916 19.2578C20.025 19.5995 19.7657 19.8872 19.4445 20.0889C19.1631 20.2654 18.8428 20.3679 18.5129 20.3916L18.3703 20.3975C17.4972 20.3971 16.8356 20.1369 16.4992 19.4961L16.4963 19.4893L16.4426 19.376L16.4387 19.3682C16.349 19.155 16.3284 18.968 16.3527 18.8467C16.3639 18.7927 16.384 18.7543 16.4074 18.7256L16.4602 18.6758C16.4835 18.6586 16.5137 18.6408 16.552 18.624L16.5607 18.6201L16.5695 18.6172L16.6145 18.6025L16.6272 18.5986L16.6398 18.5967C16.6725 18.5906 16.7063 18.5877 16.7404 18.5898L16.842 18.6104L16.8606 18.6162L16.8762 18.626L16.9357 18.6592L16.9846 18.6113L17.1037 18.876C17.1911 19.0709 17.314 19.273 17.5236 19.4141L17.6086 19.4648C17.8088 19.5715 18.0105 19.5898 18.1516 19.5957L18.1604 19.5967H18.1672L18.3615 19.6006H18.3742C18.6999 19.5984 19.0122 19.4668 19.2414 19.2363C19.4705 19.0057 19.6007 18.6931 19.6008 18.3672L19.5939 18.2363C19.5632 17.9373 19.4272 17.6796 19.2189 17.4902C18.9927 17.2849 18.7105 17.1864 18.4475 17.1592L18.4211 17.1562H18.4162L18.3361 17.1523L18.3254 17.1514L18.3156 17.1504L18.2863 17.1494C18.2106 17.1492 18.1362 17.1279 18.0725 17.0879L18.0119 17.041C17.9383 16.9713 17.8939 16.8754 17.8879 16.7734C17.882 16.6722 17.9153 16.5725 17.9807 16.4941C18.0427 16.42 18.1295 16.3697 18.2248 16.3545L18.2365 16.3525L18.2482 16.3516L18.3195 16.3486L18.7688 16.3262L18.9826 16.1768C19.0429 16.1438 19.0992 16.1083 19.1506 16.0684C19.3916 15.8804 19.5547 15.6061 19.592 15.2783L19.5998 15.126C19.5979 14.8035 19.4697 14.494 19.2424 14.2646C19.0418 14.0626 18.7779 13.9363 18.4973 13.9062L18.3762 13.8994H18.3635L18.1682 13.9023L18.1672 13.9014L18.1623 13.9023H18.1516L18.1525 13.9033L18.1418 13.9043L18.134 13.9053C17.9908 13.9124 17.793 13.9341 17.5988 14.041C17.3857 14.1586 17.2475 14.3355 17.1506 14.5195L17.1457 14.5312L17.1428 14.5371L17.1379 14.5479L17.1369 14.5488L17.091 14.6475L17.0852 14.6611L17.0832 14.666L17.0822 14.667L17.0764 14.6797L17.0734 14.6816C17.03 14.7725 16.9561 14.8437 16.8645 14.8809C16.7926 14.9097 16.7116 14.9178 16.633 14.9014L16.6232 14.8994L16.6135 14.8965L16.5764 14.8848L16.5676 14.8818L16.5588 14.8779C16.48 14.8444 16.4345 14.8084 16.4074 14.7754C16.4074 14.7754 16.4013 14.7675 16.3947 14.7578C16.388 14.7479 16.3817 14.7372 16.3762 14.7256C16.3652 14.7024 16.3577 14.6778 16.3527 14.6533C16.3283 14.5325 16.349 14.3462 16.4397 14.1328L16.4436 14.125L16.4973 14.0117L16.5002 14.0049L16.5676 13.8887C16.9199 13.332 17.5516 13.101 18.3703 13.1006Z" fill="#141414"/>
</svg>
