<svg width="24" height="24" viewBox="0 0 24 24" fill="none" xmlns="http://www.w3.org/2000/svg">
<path d="M13.4233 2.00337C13.5984 2.01953 13.7653 2.09097 13.8974 2.20879C13.9961 2.29696 14.0704 2.40728 14.1156 2.52871L14.151 2.65332L14.1601 2.72291L14.1647 2.80486V21.1965L14.1613 21.2728C14.1437 21.4512 14.0662 21.6204 13.9396 21.751C13.795 21.9 13.5961 21.9891 13.3856 21.9991C13.2278 22.0065 13.0725 21.9687 12.9377 21.8925L12.8109 21.8038C12.6737 21.6871 12.5808 21.5301 12.5447 21.3581L12.531 21.2683L12.5287 21.1965V12.8044H3.63597V21.1965L3.63255 21.2728C3.61494 21.4512 3.53745 21.6204 3.41091 21.751C3.26622 21.9 3.06738 21.9891 2.85683 21.9991C2.69911 22.0065 2.54382 21.9687 2.40899 21.8925L2.28218 21.8038C2.14497 21.6871 2.05209 21.5301 2.01599 21.3581L2.00228 21.2683L2 21.1965V2.80486C2.00022 2.59819 2.08059 2.39943 2.22506 2.25033C2.36975 2.10135 2.56859 2.0122 2.77914 2.00225C2.98923 1.99244 3.195 2.06263 3.35379 2.19757L3.46118 2.3087C3.52513 2.38862 3.57343 2.47946 3.60284 2.57698L3.63255 2.72853L3.63597 2.80486V11.1969H12.5287V2.80486C12.5287 2.59176 12.6149 2.38796 12.7686 2.23686C12.9224 2.08575 13.1298 2 13.3467 2L13.4233 2.00337Z" fill="#141414"/>
<path d="M19.6292 13.2658C20.0183 13.267 20.4004 13.3618 20.742 13.5408L20.8859 13.6216C21.2617 13.8534 21.565 14.1852 21.7599 14.578C21.9545 14.9707 22.0332 15.4101 21.9872 15.8442C21.941 16.2783 21.771 16.6917 21.4983 17.0364L21.4903 17.0476L21.4857 17.051L21.1635 17.4607L21.4857 17.8693L21.4903 17.8738L21.4983 17.885C21.771 18.2297 21.941 18.6431 21.9872 19.0771C22.0332 19.5113 21.9545 19.9507 21.7599 20.3434C21.565 20.7362 21.2617 21.0669 20.8859 21.2986C20.5567 21.5015 20.182 21.6194 19.796 21.6466L19.6292 21.6534C18.6078 21.6529 17.8338 21.3538 17.4403 20.6173L17.4369 20.6094L17.3741 20.4792L17.3695 20.4702C17.2646 20.2251 17.2405 20.0102 17.2689 19.8708C17.282 19.8087 17.3055 19.7646 17.3329 19.7316L17.3946 19.6743C17.4219 19.6546 17.4572 19.6341 17.502 19.6148L17.5123 19.6103L17.5226 19.607L17.5751 19.5901L17.59 19.5856L17.6048 19.5834C17.643 19.5764 17.6826 19.573 17.7225 19.5755L17.8413 19.5991L17.863 19.6059L17.8813 19.6171L17.951 19.6552L18.0081 19.6002L18.1475 19.9044C18.2497 20.1285 18.3935 20.3608 18.6387 20.523L18.7381 20.5813C18.9723 20.704 19.2083 20.7249 19.3733 20.7318L19.3836 20.7329H19.3916L19.6189 20.7374H19.6338C20.0148 20.7349 20.3802 20.5835 20.6483 20.3187C20.9163 20.0536 21.0686 19.6942 21.0687 19.3196L21.0607 19.1692C21.0247 18.8255 20.8656 18.5292 20.622 18.3116C20.3574 18.0755 20.0272 17.9623 19.7195 17.931L19.6886 17.9277H19.6829L19.5892 17.9232L19.5767 17.922L19.5653 17.9209L19.531 17.9198C19.4424 17.9196 19.3553 17.8951 19.2808 17.8491L19.21 17.7952C19.1238 17.7151 19.0719 17.6048 19.0649 17.4876C19.0579 17.3712 19.0969 17.2566 19.1734 17.1666C19.246 17.0813 19.3475 17.0235 19.459 17.0061L19.4727 17.0038L19.4864 17.0027L19.5698 16.9993L20.0953 16.9735L20.3455 16.8018C20.416 16.7639 20.482 16.7231 20.542 16.6772C20.824 16.4611 21.0148 16.1458 21.0584 15.769L21.0676 15.5939C21.0654 15.2232 20.9154 14.8675 20.6494 14.6038C20.4147 14.3715 20.106 14.2264 19.7777 14.1919L19.6361 14.184H19.6212L19.3927 14.1874L19.3916 14.1862L19.3859 14.1874H19.3733L19.3745 14.1885L19.3619 14.1896L19.3528 14.1907C19.1852 14.1989 18.9539 14.2239 18.7267 14.3468C18.4773 14.4819 18.3156 14.6853 18.2023 14.8968L18.1966 14.9103L18.1932 14.917L18.1875 14.9294L18.1863 14.9305L18.1326 15.0439L18.1258 15.0596L18.1235 15.0652L18.1224 15.0663L18.1155 15.0809L18.1121 15.0832C18.0613 15.1876 17.9748 15.2694 17.8676 15.3122C17.7836 15.3453 17.6888 15.3546 17.5968 15.3357L17.5854 15.3335L17.574 15.3301L17.5306 15.3166L17.5203 15.3133L17.51 15.3088C17.4179 15.2702 17.3646 15.2289 17.3329 15.1909C17.3329 15.1909 17.3258 15.1818 17.3181 15.1707C17.3102 15.1593 17.3029 15.1471 17.2964 15.1337C17.2835 15.107 17.2748 15.0787 17.2689 15.0506C17.2404 14.9118 17.2645 14.6976 17.3706 14.4523L17.3752 14.4433L17.438 14.3131L17.4415 14.3052L17.5203 14.1717C17.9324 13.5318 18.6715 13.2662 19.6292 13.2658Z" fill="#141414"/>
</svg>
