<svg width="24" height="24" viewBox="0 0 24 24" fill="none" xmlns="http://www.w3.org/2000/svg">
<path d="M14.6412 2.00337C14.8196 2.01953 14.9897 2.09097 15.1243 2.20879C15.225 2.29696 15.3007 2.40728 15.3467 2.52871L15.3828 2.65332L15.3921 2.72291L15.3967 2.80486V21.1965L15.3932 21.2728C15.3753 21.4512 15.2963 21.6204 15.1674 21.751C15.0199 21.9 14.8173 21.9891 14.6027 21.9991C14.442 22.0065 14.2838 21.9687 14.1464 21.8925L14.0171 21.8038C13.8773 21.6871 13.7826 21.5301 13.7459 21.3581L13.7319 21.2683L13.7296 21.1965V12.8044H4.66718V21.1965L4.66369 21.2728C4.64575 21.4512 4.56678 21.6204 4.43783 21.751C4.29038 21.9 4.08774 21.9891 3.87317 21.9991C3.71244 22.0065 3.55419 21.9687 3.4168 21.8925L3.28757 21.8038C3.14774 21.6871 3.05309 21.5301 3.0163 21.3581L3.00233 21.2683L3 21.1965V2.80486C3.00023 2.59819 3.08213 2.39943 3.22935 2.25033C3.3768 2.10135 3.57944 2.0122 3.79401 2.00225C4.0081 1.99244 4.21779 2.06263 4.37961 2.19757L4.48905 2.3087C4.55422 2.38862 4.60344 2.47946 4.63342 2.57698L4.66369 2.72853L4.66718 2.80486V11.1969H13.7296V2.80486C13.7296 2.59176 13.8173 2.38796 13.9741 2.23686C14.1308 2.08575 14.3421 2 14.5632 2L14.6412 2.00337Z" fill="#141414"/>
<path d="M20.4901 13.2752C20.5768 13.2714 20.6637 13.2903 20.7415 13.3302L20.7567 13.3381L20.7706 13.347L20.8265 13.3863L20.8521 13.4043L20.8719 13.429L20.9138 13.4795L20.9243 13.4918L20.9325 13.5053C20.9668 13.561 20.9843 13.6178 20.993 13.667L20.9953 13.6771V13.6872L20.9988 13.7276L21 13.7366V21.1969C20.9999 21.3187 20.9494 21.4342 20.8603 21.5202C20.7709 21.6064 20.6504 21.6549 20.5238 21.6549C20.3973 21.6549 20.2767 21.6063 20.1874 21.5202C20.0984 21.4342 20.0478 21.3186 20.0477 21.1969V14.6739L18.9742 15.2733C18.8668 15.3334 18.7387 15.3502 18.6191 15.3216C18.4984 15.2923 18.3939 15.2185 18.3293 15.1184C18.2641 15.0172 18.2412 14.8943 18.2675 14.7772L18.2967 14.6918C18.3334 14.6107 18.3937 14.541 18.4701 14.492L20.2561 13.3448L20.27 13.3381L20.3306 13.31L20.3445 13.3033L20.3597 13.2988C20.3982 13.2865 20.4431 13.2774 20.4901 13.2752Z" fill="#141414"/>
</svg>
