<svg width="24" height="24" viewBox="0 0 24 24" fill="none" xmlns="http://www.w3.org/2000/svg">
<path d="M13.0654 3.30273C13.2151 3.31679 13.3578 3.37895 13.4707 3.48145C13.5551 3.55815 13.6186 3.65412 13.6572 3.75977L13.6875 3.86816L13.6953 3.92871L13.6992 4V20L13.6963 20.0664C13.6812 20.2216 13.615 20.3688 13.5068 20.4824C13.3832 20.612 13.2132 20.6896 13.0332 20.6982C12.8984 20.7046 12.7656 20.6718 12.6504 20.6055L12.542 20.5283C12.4247 20.4268 12.3453 20.2902 12.3145 20.1406L12.3027 20.0625L12.3008 20V12.6992H4.69922V20L4.69629 20.0664C4.68124 20.2216 4.615 20.3688 4.50684 20.4824C4.38315 20.612 4.21318 20.6896 4.0332 20.6982C3.89838 20.7046 3.76564 20.6718 3.65039 20.6055L3.54199 20.5283C3.4247 20.4268 3.34531 20.2902 3.31445 20.1406L3.30273 20.0625L3.30078 20V4C3.30097 3.8202 3.36967 3.64729 3.49316 3.51758C3.61685 3.38797 3.78682 3.31042 3.9668 3.30176C4.14638 3.29323 4.32227 3.35429 4.45801 3.47168L4.5498 3.56836C4.60447 3.63789 4.64575 3.71692 4.6709 3.80176L4.69629 3.93359L4.69922 4V11.3008H12.3008V4C12.3008 3.81461 12.3744 3.63732 12.5059 3.50586C12.6373 3.3744 12.8146 3.2998 13 3.2998L13.0654 3.30273Z" fill="#141414"/>
<path d="M17.9715 13.1088C18.0443 13.1055 18.1172 13.1219 18.1825 13.1566L18.1952 13.1635L18.2069 13.1713L18.2537 13.2055L18.2752 13.2211L18.2918 13.2426L18.327 13.2865L18.3358 13.2973L18.3426 13.309C18.3714 13.3575 18.3861 13.4069 18.3934 13.4496L18.3953 13.4584V13.4672L18.3983 13.5023L18.3993 13.5102V20.0004C18.3991 20.1063 18.3568 20.2068 18.2821 20.2816C18.2071 20.3566 18.106 20.3988 17.9998 20.3988C17.8937 20.3988 17.7925 20.3565 17.7176 20.2816C17.643 20.2068 17.6005 20.1062 17.6004 20.0004V14.3256L16.7 14.8471C16.6099 14.8993 16.5025 14.914 16.4022 14.8891C16.3009 14.8636 16.2133 14.7993 16.159 14.7123C16.1043 14.6243 16.0851 14.5173 16.1073 14.4154L16.1317 14.3412C16.1625 14.2706 16.2131 14.21 16.2772 14.1674L17.7752 13.1693L17.7869 13.1635L17.8377 13.1391L17.8494 13.1332L17.8621 13.1293C17.8945 13.1186 17.9321 13.1107 17.9715 13.1088Z" fill="#141414"/>
</svg>
