<svg width="24" height="24" viewBox="0 0 24 24" fill="none" xmlns="http://www.w3.org/2000/svg">
<path d="M19.8566 14.4906C19.5344 14.8131 19.0232 14.8131 18.712 14.4906C18.3898 14.1682 18.3898 13.6567 18.712 13.3454C20.9346 11.1216 20.9346 7.50799 18.712 5.29535C16.4895 3.0827 12.8779 3.07158 10.6665 5.29535C8.45506 7.51911 8.44395 11.1327 10.6665 13.3454C10.9887 13.6678 10.9887 14.1793 10.6665 14.4906C10.3442 14.8131 9.83303 14.8131 9.52188 14.4906C6.66593 11.6331 6.66593 6.98541 9.52188 4.13899C12.3778 1.29257 17.0229 1.28145 19.8678 4.13899C22.7126 6.99653 22.7126 11.6331 19.8566 14.4906Z" fill="#141414"/>
<path d="M4.14335 9.50938C4.46562 9.18694 4.9768 9.18694 5.28796 9.50938C5.61023 9.83183 5.61023 10.3433 5.28796 10.6546C3.06543 12.8784 3.06543 16.492 5.28796 18.7047C7.51049 20.9173 11.1221 20.9284 13.3335 18.7047C15.5449 16.4809 15.556 12.8673 13.3335 10.6546C13.0113 10.3322 13.0113 9.82071 13.3335 9.50938C13.6558 9.18694 14.167 9.18694 14.4781 9.50938C17.3341 12.3669 17.3341 17.0146 14.4781 19.861C11.6222 22.7074 6.97708 22.7186 4.13224 19.861C1.2874 17.0035 1.2874 12.3669 4.14335 9.50938Z" fill="#141414"/>
</svg>
