<svg width="24" height="24" viewBox="0 0 24 24" fill="none" xmlns="http://www.w3.org/2000/svg">
<path d="M16.1971 2H7.8129C4.17108 2 2 4.17 2 7.81V16.18C2 19.83 4.17108 22 7.8129 22H16.1871C19.8289 22 22 19.83 22 16.19V7.81C22.01 4.17 19.8389 2 16.1971 2ZM8.18308 16.77C8.16307 16.77 8.13306 16.77 8.11305 16.77C7.14256 16.68 6.23211 16.23 5.55177 15.51C3.95097 13.83 3.95097 11.1 5.55177 9.42L7.74286 7.12C8.52325 6.3 9.57377 5.84 10.6943 5.84C11.8149 5.84 12.8654 6.29 13.6458 7.12C15.2466 8.8 15.2466 11.53 13.6458 13.21L12.5553 14.36C12.2651 14.66 11.7949 14.67 11.4947 14.39C11.1946 14.1 11.1846 13.63 11.4647 13.33L12.5553 12.18C13.6158 11.07 13.6158 9.26 12.5553 8.16C11.5648 7.12 9.8239 7.12 8.8234 8.16L6.63231 10.46C5.57178 11.57 5.57178 13.38 6.63231 14.48C7.06252 14.94 7.64281 15.22 8.25312 15.28C8.66332 15.32 8.96347 15.69 8.92345 16.1C8.89344 16.48 8.56327 16.77 8.18308 16.77ZM18.4582 14.59L16.2671 16.89C15.4867 17.71 14.4362 18.17 13.3156 18.17C12.1951 18.17 11.1446 17.72 10.3642 16.89C8.76337 15.21 8.76337 12.48 10.3642 10.8L11.4547 9.65C11.7449 9.35 12.2151 9.34 12.5152 9.62C12.8154 9.91 12.8254 10.38 12.5453 10.68L11.4547 11.83C10.3942 12.94 10.3942 14.75 11.4547 15.85C12.4452 16.89 14.1861 16.9 15.1866 15.85L17.3777 13.55C18.4382 12.44 18.4382 10.63 17.3777 9.53C16.9474 9.07 16.3672 8.79 15.7569 8.73C15.3467 8.69 15.0465 8.32 15.0865 7.91C15.1265 7.5 15.4867 7.19 15.9069 7.24C16.8774 7.34 17.7879 7.78 18.4682 8.5C20.059 10.17 20.059 12.91 18.4582 14.59Z" fill="#141414"/>
</svg>
