<svg width="24" height="24" viewBox="0 0 24 24" fill="none" xmlns="http://www.w3.org/2000/svg">
<path d="M12.4603 14.5385H10.1358C9.75453 14.5385 9.4384 14.2246 9.4384 13.8462C9.4384 13.4677 9.75453 13.1538 10.1358 13.1538H12.4603C14.8963 13.1538 16.8768 11.1877 16.8768 8.76923C16.8768 6.35077 14.8963 4.38462 12.4603 4.38462H7.81125C5.37517 4.38462 3.3947 6.35077 3.3947 8.76923C3.3947 9.78462 3.75732 10.7723 4.40818 11.5569C4.64993 11.8523 4.61274 12.2862 4.3152 12.5354C4.01767 12.7754 3.58066 12.7385 3.32961 12.4431C2.4742 11.4092 2 10.1077 2 8.76923C2 5.58462 4.60344 3 7.81125 3H12.4603C15.6681 3 18.2715 5.58462 18.2715 8.76923C18.2715 11.9538 15.6681 14.5385 12.4603 14.5385Z" fill="#141414"/>
<path d="M16.1795 21H11.5305C8.32264 21 5.7192 18.4154 5.7192 15.2308C5.7192 12.0462 8.32264 9.46154 11.5305 9.46154H13.855C14.2362 9.46154 14.5523 9.77538 14.5523 10.1538C14.5523 10.5323 14.2362 10.8462 13.855 10.8462H11.5305C9.09437 10.8462 7.1139 12.8123 7.1139 15.2308C7.1139 17.6492 9.09437 19.6154 11.5305 19.6154H16.1795C18.6155 19.6154 20.596 17.6492 20.596 15.2308C20.596 14.2154 20.2334 13.2277 19.5825 12.4431C19.3408 12.1477 19.378 11.7138 19.6755 11.4646C19.973 11.2154 20.41 11.2615 20.6611 11.5569C21.5258 12.5908 22 13.8923 22 15.2308C21.9907 18.4154 19.3873 21 16.1795 21Z" fill="#141414"/>
</svg>
