<svg width="24" height="24" viewBox="0 0 24 24" fill="none" xmlns="http://www.w3.org/2000/svg">
<path d="M16.1971 2H7.8129C4.17108 2 2 4.17 2 7.81V16.18C2 19.83 4.17108 22 7.8129 22H16.1871C19.8289 22 22 19.83 22 16.19V7.81C22.01 4.17 19.8389 2 16.1971 2ZM17.0075 17.47C15.2966 17.47 13.6958 16.73 12.4152 15.36C10.9645 16.67 9.07352 17.47 7.00249 17.47C6.59229 17.47 6.25212 17.13 6.25212 16.72C6.25212 16.31 6.59229 15.97 7.00249 15.97C10.4742 15.97 13.3457 13.22 13.7158 9.7H7.0125C6.60229 9.7 6.26212 9.36 6.26212 8.95C6.26212 8.54 6.60229 8.21 7.0125 8.21H11.2546V7.28C11.2546 6.87 11.5948 6.53 12.005 6.53C12.4152 6.53 12.7554 6.87 12.7554 7.28V8.21H14.4462C14.4662 8.21 14.4862 8.2 14.5062 8.2C14.5262 8.2 14.5463 8.21 14.5663 8.21H16.9975C17.4077 8.21 17.7478 8.55 17.7478 8.96C17.7478 9.37 17.4077 9.71 16.9975 9.71H15.2166C15.0665 11.42 14.4262 12.99 13.4457 14.27C14.4462 15.38 15.6968 15.98 17.0075 15.98C17.4177 15.98 17.7579 16.32 17.7579 16.73C17.7579 17.14 17.4177 17.47 17.0075 17.47Z" fill="#141414"/>
</svg>
