<svg width="24" height="24" viewBox="0 0 24 24" fill="none" xmlns="http://www.w3.org/2000/svg">
<path d="M15.41 19C15.01 19 14.68 18.6495 14.68 18.2246C14.68 17.7997 15.01 17.4492 15.41 17.4492C18.23 17.4492 20.53 15.0061 20.53 12.0106C20.53 9.01517 18.23 6.57208 15.41 6.57208C12.59 6.57208 10.29 9.01517 10.29 12.0106C10.29 12.4355 9.96 12.786 9.56 12.786C9.16 12.786 8.83 12.4355 8.83 12.0106C8.83 8.15478 11.78 5.01062 15.42 5.01062C19.06 5.01062 22 8.14416 22 12C22 15.8558 19.05 19 15.41 19Z" fill="#141414"/>
<path d="M8.59 5C8.99 5 9.32 5.35053 9.32 5.77542C9.32 6.2003 8.99 6.55083 8.59 6.55083C5.77 6.55083 3.47 8.99393 3.47 11.9894C3.47 14.9848 5.77 17.4279 8.59 17.4279C11.41 17.4279 13.71 14.9848 13.71 11.9894C13.71 11.5645 14.04 11.214 14.44 11.214C14.84 11.214 15.17 11.5645 15.17 11.9894C15.17 15.8452 12.22 18.9894 8.58 18.9894C4.94 18.9894 2 15.8558 2 12C2 8.14416 4.95 5 8.59 5Z" fill="#141414"/>
</svg>
