<svg width="24" height="24" viewBox="0 0 24 24" fill="none" xmlns="http://www.w3.org/2000/svg">
<path d="M7.2538 12C7.2538 11.59 7.5938 11.25 8.0038 11.25H11.0038V7.5C11.0038 6.95 10.5538 6.5 10.0038 6.5H7.7738C4.6238 6.5 1.8838 9.08 2.0038 12.22C2.0638 13.65 2.6638 14.94 3.6138 15.89C4.6138 16.88 5.9838 17.5 7.5038 17.5H10.0038C10.5538 17.5 11.0038 17.05 11.0038 16.5V12.75H8.0038C7.5938 12.75 7.2538 12.41 7.2538 12Z" fill="#141414"/>
<path d="M20.3938 8.11C19.3938 7.12 18.0238 6.5 16.5038 6.5H14.0038C13.4538 6.5 13.0038 6.95 13.0038 7.5V11.25H16.0038C16.4138 11.25 16.7538 11.59 16.7538 12C16.7538 12.41 16.4138 12.75 16.0038 12.75H13.0038V16.5C13.0038 17.05 13.4538 17.5 14.0038 17.5H16.2338C19.3838 17.5 22.1238 14.92 21.9938 11.78C21.9438 10.35 21.3338 9.06 20.3938 8.11Z" fill="#141414"/>
<path d="M13.0038 11.25H11.0038V12.75H13.0038V11.25Z" fill="#141414"/>
</svg>
