<svg width="24" height="24" viewBox="0 0 24 24" fill="none" xmlns="http://www.w3.org/2000/svg">
<path d="M20.3077 22H3.69231C3.31385 22 3 21.6837 3 21.3023C3 20.9209 3.31385 20.6047 3.69231 20.6047H20.3077C20.6862 20.6047 21 20.9209 21 21.3023C21 21.6837 20.6862 22 20.3077 22Z" fill="#141414"/>
<path d="M20.3077 3.39535H3.69231C3.31385 3.39535 3 3.07907 3 2.69767C3 2.31628 3.31385 2 3.69231 2H20.3077C20.6862 2 21 2.31628 21 2.69767C21 3.07907 20.6862 3.39535 20.3077 3.39535Z" fill="#141414"/>
<path d="M14.1231 15.1256L12.6923 16.5674V7.06977L14.1231 8.51163C14.2615 8.65116 14.4369 8.71628 14.6123 8.71628C14.7877 8.71628 14.9631 8.65116 15.1015 8.51163C15.3692 8.24186 15.3692 7.79535 15.1015 7.52558L12.4892 4.89302C12.2308 4.63256 11.7692 4.63256 11.5108 4.89302L8.89846 7.52558C8.63077 7.79535 8.63077 8.24186 8.89846 8.51163C9.16615 8.7814 9.60923 8.7814 9.87692 8.51163L11.3077 7.06977V16.5674L9.87692 15.1256C9.60923 14.8558 9.16615 14.8558 8.89846 15.1256C8.63077 15.3953 8.63077 15.8419 8.89846 16.1116L11.5108 18.7442C11.64 18.8744 11.8154 18.9488 12 18.9488C12.1846 18.9488 12.36 18.8744 12.4892 18.7442L15.1015 16.1116C15.3692 15.8419 15.3692 15.3953 15.1015 15.1256C14.8338 14.8558 14.3908 14.8558 14.1231 15.1256Z" fill="#141414"/>
</svg>
