<svg width="24" height="24" viewBox="0 0 24 24" fill="none" xmlns="http://www.w3.org/2000/svg">
<path d="M7.24989 12C7.24989 11.59 7.58989 11.25 7.99989 11.25H10.9999V7.5C10.9999 6.95 10.5499 6.5 9.99989 6.5H7.76989C4.61989 6.5 1.87989 9.08 1.99989 12.22C2.05989 13.65 2.65989 14.94 3.60989 15.89C4.60989 16.88 5.97989 17.5 7.49989 17.5H9.99989C10.5499 17.5 10.9999 17.05 10.9999 16.5V12.75H7.99989C7.58989 12.75 7.24989 12.41 7.24989 12Z" fill="#141414"/>
<path d="M20.3899 8.11C19.3899 7.12 18.0199 6.5 16.4999 6.5H13.9999C13.4499 6.5 12.9999 6.95 12.9999 7.5V11.25H15.9999C16.4099 11.25 16.7499 11.59 16.7499 12C16.7499 12.41 16.4099 12.75 15.9999 12.75H12.9999V16.5C12.9999 17.05 13.4499 17.5 13.9999 17.5H16.2299C19.3799 17.5 22.1199 14.92 21.9899 11.78C21.9399 10.35 21.3299 9.06 20.3899 8.11Z" fill="#141414"/>
<path d="M12.9999 11.25H10.9999V12.75H12.9999V11.25Z" fill="#141414"/>
</svg>
