<svg width="24" height="24" viewBox="0 0 24 24" fill="none" xmlns="http://www.w3.org/2000/svg">
<path d="M9.14419 2.69767H5.50698C3.62791 2.69767 2.69767 3.62791 2.69767 5.50698V9.15349C2.69767 11.0698 3.62791 12 5.50698 11.9535H9.15349C11.0698 12 12 11.0698 11.9535 9.14419V5.50698C12 3.62791 11.0698 2.69767 9.14419 2.69767ZM9.21861 9.91628C8.58605 9.91628 7.97209 9.67442 7.46046 9.24651C6.88372 9.66512 6.18605 9.91628 5.43256 9.91628C5.05116 9.91628 4.73488 9.6 4.73488 9.21861C4.73488 8.83721 5.05116 8.52093 5.43256 8.52093C6.3814 8.52093 7.17209 7.86977 7.46046 6.97674H5.43256C5.05116 6.97674 4.73488 6.66047 4.73488 6.27907C4.73488 5.89767 5.05116 5.5814 5.43256 5.5814H6.63256C6.66977 5.22791 6.95814 4.94884 7.32093 4.94884C7.68372 4.94884 7.97209 5.22791 8.0093 5.5814H8.25116C8.26047 5.5814 8.26977 5.5814 8.26977 5.5814H9.2093C9.5907 5.5814 9.90698 5.89767 9.90698 6.27907C9.90698 6.66047 9.6 6.97674 9.2093 6.97674H8.90233C8.8186 7.42326 8.64186 7.84186 8.4093 8.22326C8.66047 8.4093 8.93023 8.52093 9.21861 8.52093C9.6 8.52093 9.91628 8.83721 9.91628 9.21861C9.91628 9.6 9.6 9.91628 9.21861 9.91628Z" fill="#141414"/>
<path d="M9.2093 22C5.23721 22 2 18.7628 2 14.7907C2 14.4093 2.31628 14.093 2.69767 14.093C3.07907 14.093 3.39535 14.4093 3.39535 14.7907C3.39535 17.5442 5.31163 19.8512 7.88837 20.4558L7.63721 20.0372C7.44186 19.7023 7.54419 19.2744 7.87907 19.0791C8.20465 18.8837 8.64186 18.986 8.83721 19.3209L9.81395 20.9488C9.94419 21.1628 9.94419 21.4326 9.82326 21.6465C9.69302 21.8605 9.46047 22 9.2093 22Z" fill="#141414"/>
<path d="M21.3023 9.90698C20.9209 9.90698 20.6047 9.5907 20.6047 9.2093C20.6047 6.45581 18.6884 4.14884 16.1116 3.54419L16.3628 3.96279C16.5581 4.29767 16.4558 4.72558 16.1209 4.92093C15.7953 5.11628 15.3581 5.01395 15.1628 4.67907L14.186 3.05116C14.0558 2.83721 14.0558 2.56744 14.1767 2.35349C14.307 2.13953 14.5395 2 14.7907 2C18.7628 2 22 5.23721 22 9.2093C22 9.5907 21.6837 9.90698 21.3023 9.90698Z" fill="#141414"/>
<path d="M16.5767 11.8605C13.9721 11.8605 11.8512 13.9721 11.8512 16.586C11.8512 19.1907 13.9628 21.3116 16.5767 21.3116C19.1814 21.3116 21.3023 19.2 21.3023 16.586C21.3023 13.9721 19.1907 11.8605 16.5767 11.8605ZM18.8837 18.8279C18.5395 18.9953 18.1209 18.8651 17.9442 18.5116L17.786 18.1953H15.3767L15.2186 18.5116C15.0977 18.7535 14.8465 18.893 14.5953 18.893C14.493 18.893 14.3814 18.8651 14.2884 18.8186C13.9442 18.6419 13.8047 18.2233 13.9721 17.8791L15.9628 13.907C16.0837 13.6744 16.3256 13.5256 16.586 13.5256C16.8465 13.5256 17.0884 13.6744 17.2093 13.9163L19.2 17.8884C19.3674 18.2326 19.2279 18.6512 18.8837 18.8279Z" fill="#141414"/>
<path d="M16.0744 16.8H17.0884L16.5767 15.786L16.0744 16.8Z" fill="#141414"/>
</svg>
