<svg width="24" height="24" viewBox="0 0 24 24" fill="none" xmlns="http://www.w3.org/2000/svg">
<path d="M6.11365 13.6288C6.93957 13.6288 7.73212 13.9475 8.31614 14.5144C8.90005 15.0813 9.22731 15.8507 9.22731 16.6523V18.9776C9.22722 19.779 8.89981 20.5476 8.31614 21.1144C7.73212 21.6813 6.93957 22 6.11365 22C5.28774 22 4.49518 21.6813 3.91117 21.1144C3.3275 20.5476 3.00009 19.779 3 18.9776V16.6523C3 15.8507 3.32726 15.0813 3.91117 14.5144C4.49518 13.9475 5.28774 13.6288 6.11365 13.6288ZM16.8933 3.16621C17.0836 3.16621 17.2662 3.23896 17.4009 3.36944L20.7895 6.65752C20.8563 6.72236 20.91 6.79989 20.9462 6.8846C20.9822 6.96916 21 7.05991 21 7.15141C21 7.24289 20.9822 7.33369 20.9462 7.41823C20.91 7.50294 20.8563 7.58047 20.7895 7.64531C20.7228 7.70998 20.6437 7.76126 20.5567 7.79631C20.4694 7.8314 20.3751 7.84968 20.2807 7.84968C20.1863 7.84962 20.0929 7.83135 20.0058 7.79631C19.9622 7.77878 19.9208 7.75692 19.8818 7.7316L19.773 7.64531L17.6115 5.54598V21.3029C17.6114 21.4878 17.5356 21.6649 17.4009 21.7956C17.2662 21.9264 17.0838 22 16.8933 22C16.7028 22 16.5204 21.9264 16.3857 21.7956C16.251 21.6649 16.1752 21.4878 16.1751 21.3029V5.54711L14.0136 7.64417C13.8788 7.77471 13.6964 7.84858 13.5059 7.84854C13.3153 7.84848 13.1319 7.77505 12.9971 7.64417C12.8624 7.5133 12.7877 7.3353 12.7878 7.15028C12.7878 6.96521 12.8634 6.78721 12.9983 6.65639L16.3857 3.36944C16.5204 3.23895 16.703 3.16621 16.8933 3.16621ZM6.11365 15.0242C5.66893 15.0242 5.24208 15.1958 4.92761 15.501C4.61325 15.8063 4.43635 16.2207 4.43635 16.6523V18.9776C4.43644 19.409 4.61349 19.8226 4.92761 20.1277C5.24208 20.433 5.66893 20.6046 6.11365 20.6046C6.55838 20.6046 6.98523 20.433 7.2997 20.1277C7.61382 19.8226 7.79087 19.409 7.79096 18.9776V16.6523C7.79096 16.2207 7.61406 15.8063 7.2997 15.501C6.98523 15.1958 6.55838 15.0242 6.11365 15.0242ZM6.02242 2.0013C6.83263 1.97825 7.62032 2.26219 8.21788 2.7938C8.81191 3.32231 9.17012 4.05378 9.22029 4.83409L9.22848 5.03733C9.22847 5.37095 9.20296 5.69441 9.1583 6.00695L9.108 6.31464C8.81063 7.88134 8.01891 9.14601 7.32192 10.008L7.06225 10.3157C6.8086 10.6045 6.57432 10.8383 6.38853 11.0129C6.24279 11.1498 6.10604 11.2736 5.96394 11.383C5.821 11.4931 5.63935 11.5474 5.45747 11.5329C5.27561 11.5184 5.10628 11.4371 4.98376 11.3058C4.86122 11.1745 4.79473 11.0026 4.79778 10.8255C4.80084 10.6514 4.87128 10.4853 4.99428 10.3589L5.3791 10.0205L5.38963 10.0115L5.39899 10.0024L5.66684 9.73669L5.67503 9.72874C5.96238 9.43131 6.22837 9.1151 6.4704 8.78183L6.99675 8.05745L6.08324 8.04837C5.26267 8.04059 4.47809 7.71854 3.90064 7.15255C3.32341 6.58659 3.00004 5.82238 3 5.02597C2.99932 4.2393 3.31414 3.48222 3.87842 2.91756C4.44286 2.3528 5.21216 2.02439 6.02242 2.0013ZM6.11365 3.39783C5.66893 3.39783 5.24208 3.56944 4.92761 3.87469C4.61325 4.17993 4.43635 4.59436 4.43635 5.02597C4.43644 5.45735 4.61349 5.87098 4.92761 6.17612C5.24208 6.48137 5.66893 6.65298 6.11365 6.65298C6.55838 6.65298 6.98523 6.48137 7.2997 6.17612C7.61382 5.87098 7.79087 5.45736 7.79096 5.02597C7.79096 4.59435 7.61406 4.17993 7.2997 3.87469C6.98523 3.56944 6.55838 3.39783 6.11365 3.39783Z" fill="#141414"/>
</svg>
