<svg width="24" height="24" viewBox="0 0 24 24" fill="none" xmlns="http://www.w3.org/2000/svg">
<path d="M8 13.3997C8.68956 13.3997 9.35127 13.6738 9.83887 14.1614C10.3264 14.649 10.5996 15.3108 10.5996 16.0003V18.0003C10.5995 18.6896 10.3262 19.3507 9.83887 19.8382C9.35127 20.3258 8.68956 20.5999 8 20.5999C7.31044 20.5999 6.64873 20.3258 6.16113 19.8382C5.67383 19.3507 5.40046 18.6896 5.40039 18.0003V16.0003C5.40039 15.3108 5.67362 14.649 6.16113 14.1614C6.64873 13.6738 7.31044 13.3997 8 13.3997ZM17 4.39968C17.159 4.39968 17.3113 4.46316 17.4238 4.57546C17.5364 4.68798 17.5996 4.84113 17.5996 5.00027V18.3782L19.4092 16.5706C19.4644 16.5135 19.5305 16.4682 19.6035 16.4368C19.6767 16.4054 19.7553 16.3887 19.835 16.388C19.9145 16.3873 19.9937 16.4018 20.0674 16.4319C20.1411 16.4621 20.2083 16.5074 20.2646 16.5637C20.3208 16.6199 20.3654 16.6866 20.3955 16.76C20.4256 16.8336 20.4411 16.9129 20.4404 16.9925C20.4397 17.0721 20.423 17.1517 20.3916 17.2249C20.3602 17.298 20.3141 17.3639 20.2568 17.4192L17.4238 20.2522C17.3113 20.3645 17.159 20.428 17 20.428C16.841 20.428 16.6887 20.3646 16.5762 20.2522L13.7471 17.4241C13.6347 17.3116 13.5714 17.1593 13.5713 17.0003C13.5713 16.8411 13.6345 16.688 13.7471 16.5755C13.8597 16.4629 14.0127 16.3996 14.1719 16.3997C14.3309 16.3998 14.4833 16.4631 14.5957 16.5755L16.4004 18.3801V5.00027C16.4004 4.84113 16.4637 4.68798 16.5762 4.57546C16.6887 4.46316 16.841 4.39968 17 4.39968ZM8 14.5999C7.6287 14.5999 7.27232 14.7475 7.00977 15.01C6.7473 15.2726 6.59961 15.629 6.59961 16.0003V18.0003C6.59968 18.3713 6.7475 18.7271 7.00977 18.9895C7.27232 19.2521 7.6287 19.3997 8 19.3997C8.3713 19.3997 8.72768 19.2521 8.99024 18.9895C9.2525 18.7271 9.40032 18.3713 9.40039 18.0003V16.0003C9.40039 15.629 9.2527 15.2726 8.99024 15.01C8.72768 14.7475 8.3713 14.5999 8 14.5999ZM7.92383 3.3987C8.60028 3.37887 9.25793 3.62309 9.75684 4.08034C10.2528 4.53492 10.5519 5.16407 10.5938 5.83523L10.6006 6.01003C10.6006 6.29699 10.5793 6.5752 10.542 6.84402L10.5 7.10866C10.2517 8.45621 9.59071 9.54397 9.00879 10.2854L8.79199 10.5501C8.58022 10.7985 8.38462 10.9996 8.22949 11.1497C8.10781 11.2674 7.99365 11.374 7.875 11.468C7.75566 11.5628 7.60401 11.6094 7.45215 11.5969C7.30031 11.5845 7.15894 11.5145 7.05664 11.4016C6.95434 11.2887 6.89883 11.1409 6.90137 10.9885C6.90392 10.8388 6.96273 10.6959 7.06543 10.5872L7.38672 10.2962L7.39551 10.2884L7.40332 10.2805L7.62695 10.052L7.63379 10.0452C7.8737 9.78936 8.09577 9.51738 8.29785 9.23073L8.73731 8.60769L7.97461 8.59987C7.28951 8.59318 6.63446 8.31618 6.15234 7.82937C5.67041 7.34258 5.40043 6.68527 5.40039 6.00027C5.39982 5.32364 5.66267 4.67246 6.13379 4.18679C6.60504 3.70103 7.24734 3.41856 7.92383 3.3987ZM8 4.59987C7.6287 4.59988 7.27232 4.74748 7.00977 5.01003C6.7473 5.27257 6.59961 5.62903 6.59961 6.00027C6.59968 6.3713 6.7475 6.72707 7.00977 6.98952C7.27232 7.25207 7.6287 7.39968 8 7.39968C8.3713 7.39968 8.72768 7.25207 8.99024 6.98952C9.2525 6.72707 9.40032 6.37131 9.40039 6.00027C9.40039 5.62902 9.2527 5.27257 8.99024 5.01003C8.72768 4.74748 8.3713 4.59987 8 4.59987Z" fill="#141414"/>
</svg>
