<svg width="24" height="24" viewBox="0 0 24 24" fill="none" xmlns="http://www.w3.org/2000/svg">
<path d="M16.8933 3.16284C17.0838 3.16284 17.2662 3.23648 17.4009 3.36725L20.7895 6.65592C20.8562 6.72074 20.9101 6.79723 20.9462 6.8819C20.9822 6.96645 20.9999 7.05725 21 7.14876C21 7.24047 20.9823 7.33203 20.9462 7.41676C20.91 7.50145 20.8562 7.57791 20.7895 7.64274C20.7227 7.70757 20.6439 7.75982 20.5567 7.79491C20.4694 7.83001 20.3751 7.84715 20.2807 7.84715C20.1864 7.84709 20.0929 7.82991 20.0058 7.79491C19.9186 7.75984 19.8398 7.70753 19.773 7.64274L17.6115 5.54304V21.3027C17.6115 21.4878 17.5357 21.6647 17.4009 21.7956C17.2662 21.9264 17.0839 22 16.8933 22C16.7027 22 16.5204 21.9264 16.3857 21.7956C16.2509 21.6647 16.1751 21.4878 16.1751 21.3027V5.54417L14.0136 7.64161C13.8788 7.77226 13.6964 7.84605 13.5059 7.84601C13.3153 7.84595 13.1319 7.77254 12.9971 7.64161C12.8624 7.51068 12.7877 7.33268 12.7878 7.14763C12.7879 6.9626 12.8635 6.78558 12.9983 6.65478L16.3857 3.36725C16.5204 3.23648 16.7028 3.16284 16.8933 3.16284ZM6.02242 12.4633C6.8326 12.4403 7.62033 12.7243 8.21788 13.256C8.81188 13.7845 9.17004 14.5162 9.22029 15.2966L9.22848 15.4999C9.22848 15.9442 9.18448 16.371 9.108 16.7774C8.81067 18.3443 8.01888 19.6093 7.32192 20.4715L7.06225 20.7792C6.80854 21.0682 6.57436 21.3019 6.38853 21.4765C6.24259 21.6136 6.10625 21.7383 5.96394 21.8478C5.821 21.958 5.63935 22.0111 5.45747 21.9966C5.27561 21.9821 5.10627 21.9008 4.98376 21.7695C4.86132 21.6382 4.79473 21.4662 4.79778 21.2891C4.80093 21.1145 4.87172 20.9478 4.99545 20.8213L5.3791 20.4851L5.38963 20.476L5.39899 20.4658L5.66684 20.2012L5.67503 20.1933C5.96253 19.8956 6.22824 19.5786 6.4704 19.2451L6.99675 18.5206L6.08324 18.5115C5.26271 18.5037 4.47808 18.1827 3.90064 17.6166C3.39543 17.1213 3.08401 16.4738 3.01404 15.7861L3 15.4885C2.99922 14.7015 3.31399 13.9446 3.87842 13.3797C4.44285 12.8149 5.21219 12.4864 6.02242 12.4633ZM6.11365 13.8601C5.66893 13.8601 5.24208 14.0317 4.92761 14.337C4.61315 14.6423 4.43635 15.0568 4.43635 15.4885C4.43635 15.9203 4.61315 16.3347 4.92761 16.64C5.24208 16.9453 5.66893 17.117 6.11365 17.117C6.55838 17.117 6.98523 16.9453 7.2997 16.64C7.61416 16.3347 7.79096 15.9203 7.79096 15.4885C7.79096 15.0568 7.61416 14.6423 7.2997 14.337C6.98523 14.0317 6.55838 13.8601 6.11365 13.8601ZM6.11365 2C6.93957 2 7.73213 2.31763 8.31614 2.88462C8.90015 3.45162 9.22731 4.22108 9.22731 5.02294V7.34863C9.22731 8.15048 8.90015 8.91994 8.31614 9.48694C7.73213 10.0539 6.93957 10.3716 6.11365 10.3716C5.28774 10.3716 4.49518 10.0539 3.91117 9.48694C3.32716 8.91994 3 8.15048 3 7.34863V5.02294C3 4.22109 3.32716 3.45162 3.91117 2.88462C4.49518 2.31763 5.28774 2 6.11365 2ZM6.11365 3.3945C5.66893 3.3945 5.24208 3.56615 4.92761 3.87145C4.61315 4.17676 4.43635 4.59117 4.43635 5.02294V7.34863C4.43635 7.78039 4.61315 8.19481 4.92761 8.50011C5.24208 8.80542 5.66893 8.97706 6.11365 8.97706C6.55838 8.97706 6.98523 8.80542 7.2997 8.50011C7.61416 8.19481 7.79096 7.78039 7.79096 7.34863V5.02294C7.79096 4.59117 7.61416 4.17676 7.2997 3.87145C6.98523 3.56615 6.55838 3.3945 6.11365 3.3945Z" fill="#141414"/>
</svg>
