<svg width="24" height="24" viewBox="0 0 24 24" fill="none" xmlns="http://www.w3.org/2000/svg">
<path d="M6.02006 12.4639C6.8296 12.4408 7.61673 12.7249 8.21381 13.2566C8.80735 13.7851 9.16523 14.5169 9.21543 15.2973L9.22361 15.5006C9.22361 15.945 9.17965 16.3717 9.10323 16.7782C8.80613 18.3452 8.01496 19.6102 7.31855 20.4725L7.05908 20.7802C6.80557 21.0692 6.57157 21.3029 6.38588 21.4775C6.24005 21.6147 6.10382 21.7394 5.96162 21.8489C5.8188 21.9591 5.63729 22.0121 5.45555 21.9977C5.27384 21.9832 5.10463 21.9018 4.98221 21.7705C4.85986 21.6392 4.79333 21.4672 4.79638 21.2901C4.79952 21.1155 4.87025 20.9488 4.99389 20.8223L5.37725 20.4861L5.38776 20.477L5.39711 20.4668L5.66476 20.2022L5.67294 20.1942C5.96022 19.8966 6.22572 19.5795 6.46769 19.246L6.99363 18.5214L6.08084 18.5123C5.26094 18.5046 4.47692 18.1835 3.89994 17.6175C3.39513 17.1222 3.08394 16.4745 3.01403 15.7868L3 15.4892C2.99922 14.7022 3.31374 13.9452 3.87774 13.3803C4.44172 12.8155 5.21046 12.487 6.02006 12.4639ZM16.8825 3.16291C17.0729 3.16291 17.255 3.23647 17.3897 3.36732C17.5244 3.49817 17.6001 3.67514 17.6001 3.86019V19.4175L18.4182 18.6248L19.7588 17.3222L19.7658 17.3165C19.832 17.2499 19.9108 17.1964 19.9984 17.1598C20.0859 17.1232 20.18 17.1038 20.2753 17.103C20.3707 17.1022 20.4653 17.1202 20.5535 17.1552C20.6418 17.1903 20.7222 17.2419 20.7896 17.3074C20.857 17.3729 20.9101 17.4511 20.9462 17.5368C20.9823 17.6225 21.0008 17.7145 21 17.8071C20.9991 17.8997 20.9791 17.9912 20.9415 18.0763C20.9039 18.1613 20.8488 18.2379 20.7802 18.3023L17.3897 21.5968C17.255 21.7275 17.0728 21.8012 16.8825 21.8012C16.6921 21.8012 16.5099 21.7275 16.3752 21.5968L12.9893 18.3079C12.8548 18.1771 12.779 18 12.779 17.8151C12.779 17.6299 12.8546 17.4519 12.9893 17.3211C13.1241 17.1902 13.3073 17.1166 13.4977 17.1166C13.6882 17.1167 13.8704 17.1913 14.005 17.3222L16.1648 19.4197V3.86019C16.1648 3.67514 16.2406 3.49817 16.3752 3.36732C16.5099 3.23647 16.692 3.16291 16.8825 3.16291ZM6.11122 13.8607C5.66685 13.8607 5.24033 14.0324 4.92611 14.3377C4.61189 14.643 4.43523 15.0575 4.43523 15.4892C4.43523 15.921 4.61189 16.3355 4.92611 16.6408C5.24033 16.9461 5.66685 17.1178 6.11122 17.1178C6.5556 17.1178 6.98212 16.9461 7.29634 16.6408C7.61056 16.3355 7.78722 15.921 7.78722 15.4892C7.78722 15.0575 7.61056 14.643 7.29634 14.3377C6.98212 14.0324 6.5556 13.8607 6.11122 13.8607ZM6.11122 2C6.93649 2 7.72843 2.31765 8.31199 2.88467C8.89554 3.4517 9.22245 4.2212 9.22245 5.0231V7.34891C9.22245 8.15081 8.89554 8.92031 8.31199 9.48734C7.72843 10.0544 6.93649 10.372 6.11122 10.372C5.28595 10.372 4.49401 10.0544 3.91046 9.48734C3.32691 8.92031 3 8.15081 3 7.34891V5.0231C3 4.2212 3.32691 3.4517 3.91046 2.88467C4.49401 2.31765 5.28595 2 6.11122 2ZM6.11122 3.39458C5.66685 3.39458 5.24033 3.56623 4.92611 3.87155C4.61189 4.17687 4.43523 4.59131 4.43523 5.0231V7.34891C4.43523 7.7807 4.61189 8.19514 4.92611 8.50046C5.24033 8.80578 5.66685 8.97743 6.11122 8.97743C6.5556 8.97743 6.98212 8.80578 7.29634 8.50046C7.61056 8.19514 7.78722 7.7807 7.78722 7.34891V5.0231C7.78722 4.59131 7.61056 4.17687 7.29634 3.87155C6.98212 3.56623 6.5556 3.39458 6.11122 3.39458Z" fill="#141414"/>
</svg>
