<svg width="24" height="24" viewBox="0 0 24 24" fill="none" xmlns="http://www.w3.org/2000/svg">
<path d="M7.92383 12.3984C8.60025 12.3786 9.25794 12.6229 9.75684 13.0801C10.2528 13.5346 10.5518 14.1639 10.5938 14.835L10.6006 15.0098C10.6006 15.3919 10.5639 15.7589 10.5 16.1084C10.2518 17.4559 9.59069 18.5437 9.00879 19.2852L8.79199 19.5498C8.58017 19.7983 8.38465 19.9993 8.22949 20.1494C8.10765 20.2673 7.99381 20.3746 7.875 20.4688C7.75566 20.5635 7.60401 20.6091 7.45215 20.5967C7.30032 20.5842 7.15893 20.5143 7.05664 20.4014C6.95442 20.2885 6.89883 20.1406 6.90137 19.9883C6.904 19.8381 6.9631 19.6948 7.06641 19.5859L7.38672 19.2969L7.39551 19.2891L7.40332 19.2803L7.62695 19.0527L7.63379 19.0459C7.87383 18.7899 8.09567 18.5173 8.29785 18.2305L8.73731 17.6074L7.97461 17.5996C7.28954 17.5929 6.63445 17.3169 6.15234 16.8301C5.73054 16.4042 5.47053 15.8473 5.41211 15.2559L5.40039 15C5.39974 14.3232 5.66254 13.6723 6.13379 13.1865C6.60504 12.7008 7.24736 12.4183 7.92383 12.3984ZM17 4.40039C17.1591 4.40039 17.3113 4.46365 17.4238 4.57617C17.5364 4.68869 17.5996 4.84087 17.5996 5V18.3779L18.2832 17.6963L19.4033 16.5762L19.4092 16.5713C19.4645 16.514 19.5303 16.468 19.6035 16.4365C19.6767 16.4051 19.7553 16.3884 19.835 16.3877C19.9146 16.387 19.9937 16.4025 20.0674 16.4326C20.1411 16.4628 20.2083 16.5071 20.2646 16.5635C20.321 16.6198 20.3653 16.687 20.3955 16.7607C20.4256 16.8344 20.4411 16.9136 20.4404 16.9932C20.4397 17.0728 20.423 17.1515 20.3916 17.2246C20.3602 17.2978 20.3141 17.3636 20.2568 17.4189L17.4238 20.252C17.3113 20.3644 17.159 20.4277 17 20.4277C16.841 20.4277 16.6887 20.3644 16.5762 20.252L13.7471 17.4238C13.6347 17.3113 13.5713 17.159 13.5713 17C13.5713 16.8408 13.6345 16.6877 13.7471 16.5752C13.8597 16.4627 14.0127 16.3994 14.1719 16.3994C14.331 16.3995 14.4832 16.4636 14.5957 16.5762L16.4004 18.3799V5C16.4004 4.84087 16.4637 4.68869 16.5762 4.57617C16.6887 4.46365 16.8409 4.40039 17 4.40039ZM8 13.5996C7.6287 13.5996 7.27232 13.7472 7.00977 14.0098C6.74722 14.2723 6.59961 14.6287 6.59961 15C6.59961 15.3713 6.74722 15.7277 7.00977 15.9902C7.27232 16.2528 7.6287 16.4004 8 16.4004C8.3713 16.4004 8.72768 16.2528 8.99024 15.9902C9.25279 15.7277 9.40039 15.3713 9.40039 15C9.40039 14.6287 9.25279 14.2723 8.99024 14.0098C8.72768 13.7472 8.3713 13.5996 8 13.5996ZM8 3.40039C8.68956 3.40039 9.35127 3.67354 9.83887 4.16113C10.3265 4.64873 10.5996 5.31044 10.5996 6V8C10.5996 8.68956 10.3265 9.35127 9.83887 9.83887C9.35127 10.3265 8.68956 10.5996 8 10.5996C7.31044 10.5996 6.64873 10.3265 6.16113 9.83887C5.67354 9.35127 5.40039 8.68956 5.40039 8V6C5.40039 5.31044 5.67354 4.64873 6.16113 4.16113C6.64873 3.67354 7.31044 3.40039 8 3.40039ZM8 4.59961C7.6287 4.59961 7.27232 4.74722 7.00977 5.00977C6.74722 5.27232 6.59961 5.6287 6.59961 6V8C6.59961 8.3713 6.74722 8.72768 7.00977 8.99023C7.27232 9.25278 7.6287 9.40039 8 9.40039C8.3713 9.40039 8.72768 9.25278 8.99024 8.99023C9.25279 8.72768 9.40039 8.3713 9.40039 8V6C9.40039 5.6287 9.25279 5.27232 8.99024 5.00977C8.72768 4.74722 8.3713 4.59961 8 4.59961Z" fill="#141414"/>
</svg>
