<svg width="24" height="24" viewBox="0 0 24 24" fill="none" xmlns="http://www.w3.org/2000/svg">
<path d="M17 4.40039C17.1591 4.40039 17.3113 4.46372 17.4238 4.57617L20.2529 7.4043C20.3086 7.46004 20.3536 7.52582 20.3838 7.59863C20.4139 7.67135 20.4287 7.74943 20.4287 7.82812C20.4287 7.90699 20.414 7.98573 20.3838 8.05859C20.3536 8.13143 20.3087 8.19718 20.2529 8.25293C20.1972 8.30868 20.1314 8.35361 20.0586 8.38379C19.9857 8.41397 19.907 8.42871 19.8281 8.42871C19.7494 8.42866 19.6713 8.41389 19.5986 8.38379C19.5258 8.35363 19.46 8.30864 19.4043 8.25293L17.5996 6.44727V20C17.5996 20.1591 17.5364 20.3113 17.4238 20.4238C17.3113 20.5363 17.1591 20.5996 17 20.5996C16.8409 20.5996 16.6887 20.5363 16.5762 20.4238C16.4637 20.3113 16.4004 20.1591 16.4004 20V6.44824L14.5957 8.25195C14.4831 8.36431 14.3309 8.42777 14.1719 8.42773C14.0127 8.42768 13.8596 8.36455 13.7471 8.25195C13.6346 8.13936 13.5722 7.98629 13.5723 7.82715C13.5724 7.66803 13.6355 7.5158 13.748 7.40332L16.5762 4.57617C16.6887 4.46372 16.8409 4.40039 17 4.40039ZM7.92383 12.3984C8.60025 12.3786 9.25794 12.6229 9.75684 13.0801C10.2528 13.5346 10.5518 14.1639 10.5938 14.835L10.6006 15.0098C10.6006 15.3919 10.5639 15.7589 10.5 16.1084C10.2518 17.4559 9.59069 18.5437 9.00879 19.2852L8.79199 19.5498C8.58017 19.7983 8.38465 19.9993 8.22949 20.1494C8.10765 20.2673 7.99382 20.3746 7.875 20.4688C7.75566 20.5635 7.60401 20.6091 7.45215 20.5967C7.30032 20.5842 7.15893 20.5143 7.05664 20.4014C6.95442 20.2885 6.89883 20.1406 6.90137 19.9883C6.904 19.8381 6.9631 19.6947 7.06641 19.5859L7.38672 19.2969L7.39551 19.2891L7.40332 19.2803L7.62695 19.0527L7.63379 19.0459C7.87383 18.7899 8.09567 18.5173 8.29785 18.2305L8.73731 17.6074L7.97461 17.5996C7.28954 17.5929 6.63445 17.3169 6.15234 16.8301C5.73054 16.4042 5.47053 15.8473 5.41211 15.2559L5.40039 15C5.39974 14.3232 5.66254 13.6723 6.13379 13.1865C6.60504 12.7008 7.24736 12.4183 7.92383 12.3984ZM8 13.5996C7.6287 13.5996 7.27232 13.7472 7.00977 14.0098C6.74722 14.2723 6.59961 14.6287 6.59961 15C6.59961 15.3713 6.74722 15.7277 7.00977 15.9902C7.27232 16.2528 7.6287 16.4004 8 16.4004C8.3713 16.4004 8.72768 16.2528 8.99024 15.9902C9.25279 15.7277 9.40039 15.3713 9.40039 15C9.40039 14.6287 9.25279 14.2723 8.99024 14.0098C8.72768 13.7472 8.3713 13.5996 8 13.5996ZM8 3.40039C8.68956 3.40039 9.35127 3.67354 9.83887 4.16113C10.3265 4.64873 10.5996 5.31044 10.5996 6V8C10.5996 8.68956 10.3265 9.35127 9.83887 9.83887C9.35127 10.3265 8.68956 10.5996 8 10.5996C7.31044 10.5996 6.64873 10.3265 6.16113 9.83887C5.67354 9.35127 5.40039 8.68956 5.40039 8V6C5.40039 5.31044 5.67354 4.64873 6.16113 4.16113C6.64873 3.67354 7.31044 3.40039 8 3.40039ZM8 4.59961C7.6287 4.59961 7.27232 4.74722 7.00977 5.00977C6.74722 5.27232 6.59961 5.6287 6.59961 6V8C6.59961 8.3713 6.74722 8.72768 7.00977 8.99023C7.27232 9.25278 7.6287 9.40039 8 9.40039C8.3713 9.40039 8.72768 9.25278 8.99024 8.99023C9.25279 8.72768 9.40039 8.3713 9.40039 8V6C9.40039 5.6287 9.25279 5.27232 8.99024 5.00977C8.72768 4.74722 8.3713 4.59961 8 4.59961Z" fill="#141414"/>
</svg>
