<svg width="24" height="24" viewBox="0 0 24 24" fill="none" xmlns="http://www.w3.org/2000/svg">
<path d="M8 13.3997C8.68956 13.3997 9.35127 13.6738 9.83887 14.1614C10.3264 14.649 10.5996 15.3108 10.5996 16.0003V18.0003C10.5995 18.6896 10.3262 19.3507 9.83887 19.8382C9.35127 20.3258 8.68956 20.5999 8 20.5999C7.31044 20.5999 6.64873 20.3258 6.16113 19.8382C5.67383 19.3507 5.40046 18.6896 5.40039 18.0003V16.0003C5.40039 15.3108 5.67362 14.649 6.16113 14.1614C6.64873 13.6738 7.31044 13.3997 8 13.3997ZM17 4.40066C17.1589 4.40066 17.3114 4.46323 17.4238 4.57546L20.2529 7.40359C20.3087 7.45935 20.3536 7.52604 20.3838 7.5989C20.4139 7.67163 20.4287 7.74969 20.4287 7.82839C20.4287 7.90707 20.4138 7.98517 20.3838 8.05788C20.3536 8.13074 20.3087 8.19743 20.2529 8.25319C20.1973 8.30882 20.1313 8.35293 20.0586 8.38308C19.9857 8.41326 19.907 8.42898 19.8281 8.42898C19.7494 8.42893 19.6714 8.41321 19.5986 8.38308C19.5622 8.36799 19.5277 8.34919 19.4951 8.32741L19.4043 8.25319L17.5996 6.44753V20.0003C17.5995 20.1593 17.5363 20.3116 17.4238 20.4241C17.3113 20.5365 17.1591 20.5999 17 20.5999C16.8409 20.5999 16.6887 20.5365 16.5762 20.4241C16.4637 20.3116 16.4005 20.1593 16.4004 20.0003V6.44851L14.5957 8.25222C14.4832 8.36449 14.3309 8.42803 14.1719 8.428C14.0127 8.42794 13.8596 8.36479 13.7471 8.25222C13.6346 8.13965 13.5722 7.98655 13.5723 7.82741C13.5723 7.66823 13.6354 7.51513 13.748 7.40261L16.5762 4.57546C16.6887 4.46323 16.8411 4.40066 17 4.40066ZM8 14.5999C7.6287 14.5999 7.27232 14.7475 7.00977 15.01C6.7473 15.2726 6.59961 15.629 6.59961 16.0003V18.0003C6.59968 18.3713 6.7475 18.7271 7.00977 18.9895C7.27232 19.2521 7.6287 19.3997 8 19.3997C8.3713 19.3997 8.72768 19.2521 8.99024 18.9895C9.2525 18.7271 9.40032 18.3713 9.40039 18.0003V16.0003C9.40039 15.629 9.2527 15.2726 8.99024 15.01C8.72768 14.7475 8.3713 14.5999 8 14.5999ZM7.92383 3.3987C8.60028 3.37887 9.25793 3.62309 9.75684 4.08034C10.2528 4.53492 10.5519 5.16407 10.5938 5.83523L10.6006 6.01003C10.6006 6.29699 10.5793 6.5752 10.542 6.84402L10.5 7.10866C10.2517 8.45621 9.59071 9.54397 9.00879 10.2854L8.79199 10.5501C8.58022 10.7985 8.38462 10.9996 8.22949 11.1497C8.10781 11.2674 7.99365 11.374 7.875 11.468C7.75566 11.5628 7.60401 11.6094 7.45215 11.5969C7.30031 11.5845 7.15894 11.5145 7.05664 11.4016C6.95434 11.2887 6.89883 11.1409 6.90137 10.9885C6.90392 10.8388 6.96273 10.6959 7.06543 10.5872L7.38672 10.2962L7.39551 10.2884L7.40332 10.2805L7.62695 10.052L7.63379 10.0452C7.8737 9.78936 8.09577 9.51738 8.29785 9.23073L8.73731 8.60769L7.97461 8.59987C7.28951 8.59318 6.63446 8.31618 6.15234 7.82937C5.67041 7.34258 5.40043 6.68527 5.40039 6.00027C5.39982 5.32364 5.66267 4.67246 6.13379 4.18679C6.60504 3.70103 7.24734 3.41856 7.92383 3.3987ZM8 4.59987C7.6287 4.59988 7.27232 4.74748 7.00977 5.01003C6.7473 5.27257 6.59961 5.62903 6.59961 6.00027C6.59968 6.3713 6.7475 6.72707 7.00977 6.98952C7.27232 7.25207 7.6287 7.39968 8 7.39968C8.3713 7.39968 8.72768 7.25207 8.99024 6.98952C9.2525 6.72707 9.40032 6.37131 9.40039 6.00027C9.40039 5.62902 9.2527 5.27257 8.99024 5.01003C8.72768 4.74748 8.3713 4.59987 8 4.59987Z" fill="#141414"/>
</svg>
