<svg width="24" height="24" viewBox="0 0 24 24" fill="none" xmlns="http://www.w3.org/2000/svg">
<path d="M6.11122 13.6288C6.9365 13.6288 7.72843 13.9475 8.31199 14.5144C8.89544 15.0813 9.22245 15.8507 9.22245 16.6523V18.9776C9.22236 19.779 8.8952 20.5476 8.31199 21.1144C7.72843 21.6813 6.9365 22 6.11122 22C5.28595 22 4.49401 21.6813 3.91046 21.1144C3.32725 20.5476 3.00009 19.779 3 18.9776V16.6523C3 15.8507 3.32701 15.0813 3.91046 14.5144C4.49401 13.9475 5.28595 13.6288 6.11122 13.6288ZM16.8825 3.16507C17.0727 3.16507 17.2551 3.23888 17.3897 3.36944C17.5244 3.50026 17.6001 3.67832 17.6001 3.86334V19.417L19.7658 17.3154C19.8319 17.249 19.911 17.1963 19.9984 17.1598C20.0859 17.1233 20.1801 17.1039 20.2754 17.1031C20.3706 17.1023 20.4654 17.1192 20.5535 17.1542C20.6418 17.1892 20.7222 17.2419 20.7896 17.3074C20.8568 17.3728 20.9102 17.4502 20.9462 17.5357C20.9823 17.6212 21.0007 17.7134 21 17.8059C20.9992 17.8985 20.9792 17.991 20.9415 18.0761C20.9039 18.1611 20.8487 18.2378 20.7803 18.302L17.3897 21.5958C17.2551 21.7264 17.0727 21.8002 16.8825 21.8002C16.6922 21.8002 16.5099 21.7264 16.3752 21.5958L12.9893 18.3077C12.8548 18.1769 12.779 17.9998 12.779 17.815C12.779 17.6299 12.8547 17.4519 12.9893 17.3211C13.1241 17.1903 13.3072 17.1166 13.4977 17.1167C13.688 17.1168 13.8704 17.1904 14.005 17.3211L16.1648 19.4193V3.86334C16.1648 3.67832 16.2406 3.50026 16.3752 3.36944C16.5098 3.23888 16.6922 3.16507 16.8825 3.16507ZM6.11122 15.0242C5.66685 15.0242 5.24033 15.1958 4.92611 15.501C4.61199 15.8063 4.43523 16.2207 4.43523 16.6523V18.9776C4.43532 19.409 4.61223 19.8226 4.92611 20.1277C5.24033 20.433 5.66685 20.6046 6.11122 20.6046C6.5556 20.6046 6.98212 20.433 7.29634 20.1277C7.61022 19.8226 7.78713 19.409 7.78722 18.9776V16.6523C7.78722 16.2207 7.61046 15.8063 7.29634 15.501C6.98212 15.1958 6.5556 15.0242 6.11122 15.0242ZM6.02006 2.0013C6.82964 1.97825 7.61672 2.26219 8.21381 2.7938C8.80738 3.32231 9.16531 4.05378 9.21543 4.83409L9.22362 5.03733C9.22361 5.37095 9.19812 5.69441 9.15349 6.00695L9.10323 6.31464C8.8061 7.88134 8.01499 9.14601 7.31855 10.008L7.05908 10.3157C6.80563 10.6045 6.57153 10.8383 6.38588 11.0129C6.24026 11.1498 6.10362 11.2736 5.96162 11.383C5.8188 11.4931 5.6373 11.5474 5.45555 11.5329C5.27384 11.5184 5.10463 11.4371 4.98221 11.3058C4.85977 11.1745 4.79333 11.0026 4.79638 10.8255C4.79943 10.6514 4.86982 10.4853 4.99273 10.3589L5.37725 10.0205L5.38777 10.0115L5.39712 10.0024L5.66476 9.73669L5.67294 9.72874C5.96006 9.43131 6.22585 9.1151 6.46769 8.78183L6.99363 8.05745L6.08084 8.04837C5.2609 8.04059 4.47693 7.71854 3.89994 7.15255C3.32316 6.58659 3.00004 5.82238 3 5.02597C2.99932 4.2393 3.31389 3.48222 3.87774 2.91756C4.44173 2.3528 5.21043 2.02439 6.02006 2.0013ZM6.11122 3.39783C5.66685 3.39783 5.24033 3.56944 4.92611 3.87469C4.61199 4.17993 4.43523 4.59436 4.43523 5.02597C4.43532 5.45735 4.61223 5.87098 4.92611 6.17612C5.24033 6.48137 5.66685 6.65298 6.11122 6.65298C6.5556 6.65298 6.98212 6.48137 7.29634 6.17612C7.61022 5.87098 7.78713 5.45736 7.78722 5.02597C7.78722 4.59435 7.61046 4.17993 7.29634 3.87469C6.98212 3.56944 6.5556 3.39783 6.11122 3.39783Z" fill="#141414"/>
</svg>
