<svg width="24" height="24" viewBox="0 0 24 24" fill="none" xmlns="http://www.w3.org/2000/svg">
<path d="M16.1971 2H7.8129C4.17108 2 2 4.17 2 7.81V16.18C2 19.83 4.17108 22 7.8129 22H16.1871C19.8289 22 22 19.83 22 16.19V7.81C22.01 4.17 19.8389 2 16.1971 2ZM16.7574 13.71C16.7574 15.23 15.5267 16.46 14.006 16.46C12.4852 16.46 11.2546 15.23 11.2546 13.71V11.71C11.2546 11.3 11.5948 10.96 12.005 10.96C12.4152 10.96 12.7554 11.3 12.7554 11.71V13.71C12.7554 14.4 13.3156 14.96 14.006 14.96C14.6963 14.96 15.2566 14.4 15.2566 13.71V10.57C15.2566 8.78 13.7959 7.32 12.005 7.32C10.2141 7.32 8.75337 8.78 8.75337 10.57V14C8.75337 15.48 9.95396 16.68 11.4347 16.68C11.8449 16.68 12.1851 17.02 12.1851 17.43C12.1851 17.84 11.8449 18.18 11.4347 18.18C9.13355 18.18 7.25262 16.3 7.25262 14V10.57C7.25262 7.95 9.38368 5.82 12.005 5.82C14.6263 5.82 16.7574 7.95 16.7574 10.57V13.71Z" fill="#141414"/>
</svg>
