<svg width="24" height="24" viewBox="0 0 24 24" fill="none" xmlns="http://www.w3.org/2000/svg">
<path d="M16.1971 2H7.8129C4.17108 2 2 4.17 2 7.81V16.18C2 19.83 4.17108 22 7.8129 22H16.1871C19.8289 22 22 19.83 22 16.19V7.81C22.01 4.17 19.8389 2 16.1971 2ZM11.6148 14.84C11.6148 15.93 10.7644 16.78 9.67382 16.78H8.19309C7.12255 16.78 6.25212 15.91 6.25212 14.84V12.17C6.25212 9.09 6.92245 8.4 8.71335 7.34C8.83341 7.27 8.96347 7.24 9.09353 7.24C9.35366 7.24 9.60379 7.37 9.74386 7.61C9.95396 7.97 9.8339 8.43 9.48373 8.64C8.27313 9.34 7.85292 9.6 7.77288 11.41H9.68383C10.7744 11.41 11.6248 12.26 11.6248 13.35V14.84H11.6148ZM17.7579 14.84C17.7579 15.93 16.9074 16.78 15.8169 16.78H14.3261C13.2556 16.78 12.3852 15.91 12.3852 14.84V12.17C12.3852 9.09 13.0555 8.4 14.8464 7.34C14.9665 7.27 15.0965 7.24 15.2266 7.24C15.4867 7.24 15.7368 7.37 15.8769 7.61C16.087 7.97 15.967 8.43 15.6168 8.64C14.4062 9.36 13.986 9.62 13.9059 11.43H15.8169C16.9074 11.43 17.7579 12.28 17.7579 13.37V14.84Z" fill="#141414"/>
</svg>
