<svg width="24" height="24" viewBox="0 0 24 24" fill="none" xmlns="http://www.w3.org/2000/svg">
<path d="M8.09303 11.622H3.4007C3.48074 6.85133 4.40119 6.06472 7.27262 4.32806C7.60279 4.12375 7.71284 3.69469 7.51274 3.34736C7.32265 3.01025 6.89243 2.89787 6.56227 3.10219C3.18059 5.14532 2 6.39163 2 12.3269V17.8331C2 19.58 3.39069 20.9898 5.09154 20.9898H8.09303C9.85391 20.9898 11.1846 19.6311 11.1846 17.8331V14.7685C11.1846 12.9807 9.85391 11.622 8.09303 11.622Z" fill="#141414"/>
<path d="M18.9184 11.622H14.2261C14.3061 6.85133 15.2266 6.06472 18.098 4.32806C18.4282 4.12375 18.5382 3.69469 18.3381 3.34736C18.138 3.01025 17.7178 2.89787 17.3776 3.10219C13.996 5.14532 12.8154 6.39163 12.8154 12.3371V17.8434C12.8154 19.5902 14.2061 21 15.9069 21H18.9084C20.6693 21 21.9999 19.6413 21.9999 17.8434V14.7787C22.0099 12.9807 20.6793 11.622 18.9184 11.622Z" fill="#141414"/>
</svg>
