<svg width="24" height="24" viewBox="0 0 24 24" fill="none" xmlns="http://www.w3.org/2000/svg">
<path d="M16.1971 2H7.8129C4.17108 2 2 4.17 2 7.81V16.18C2 19.83 4.17108 22 7.8129 22H16.1871C19.8289 22 22 19.83 22 16.19V7.81C22.01 4.17 19.8389 2 16.1971 2ZM17.6778 9.22C17.4877 9.59 17.0475 9.74 16.6673 9.56C15.4367 8.94 14.106 8.6 12.7554 8.5V16.29C12.7554 16.7 12.4152 17.04 12.005 17.04C11.5948 17.04 11.2546 16.7 11.2546 16.29V8.5C9.90394 8.6 8.57328 8.94 7.34266 9.56C7.23261 9.61 7.11255 9.63 7.00249 9.63C6.73236 9.63 6.46222 9.48 6.33216 9.22C6.14206 8.85 6.29214 8.4 6.66232 8.21C10.004 6.54 13.996 6.54 17.3376 8.21C17.7178 8.4 17.8679 8.85 17.6778 9.22Z" fill="#141414"/>
</svg>
