<svg width="24" height="24" viewBox="0 0 24 24" fill="none" xmlns="http://www.w3.org/2000/svg">
<path d="M12 5.04545H2.76923C2.34872 5.04545 2 4.69515 2 4.27273C2 3.8503 2.34872 3.5 2.76923 3.5H12C12.4205 3.5 12.7692 3.8503 12.7692 4.27273C12.7692 4.69515 12.4205 5.04545 12 5.04545Z" fill="#141414"/>
<path d="M12 10.197H2.76923C2.34872 10.197 2 9.84667 2 9.42424C2 9.00182 2.34872 8.65152 2.76923 8.65152H12C12.4205 8.65152 12.7692 9.00182 12.7692 9.42424C12.7692 9.84667 12.4205 10.197 12 10.197Z" fill="#141414"/>
<path d="M21.2308 15.3485H2.76923C2.34872 15.3485 2 14.9982 2 14.5758C2 14.1533 2.34872 13.803 2.76923 13.803H21.2308C21.6513 13.803 22 14.1533 22 14.5758C22 14.9982 21.6513 15.3485 21.2308 15.3485Z" fill="#141414"/>
<path d="M21.2308 20.5H2.76923C2.34872 20.5 2 20.1497 2 19.7273C2 19.3048 2.34872 18.9545 2.76923 18.9545H21.2308C21.6513 18.9545 22 19.3048 22 19.7273C22 20.1497 21.6513 20.5 21.2308 20.5Z" fill="#141414"/>
</svg>
