<svg width="24" height="24" viewBox="0 0 24 24" fill="none" xmlns="http://www.w3.org/2000/svg">
<path d="M21.2308 5.04545H12C11.5795 5.04545 11.2308 4.69515 11.2308 4.27273C11.2308 3.8503 11.5795 3.5 12 3.5H21.2308C21.6513 3.5 22 3.8503 22 4.27273C22 4.69515 21.6513 5.04545 21.2308 5.04545Z" fill="#141414"/>
<path d="M21.2308 10.197H12C11.5795 10.197 11.2308 9.84667 11.2308 9.42424C11.2308 9.00182 11.5795 8.65152 12 8.65152H21.2308C21.6513 8.65152 22 9.00182 22 9.42424C22 9.84667 21.6513 10.197 21.2308 10.197Z" fill="#141414"/>
<path d="M21.2308 15.3485H2.76923C2.34872 15.3485 2 14.9982 2 14.5758C2 14.1533 2.34872 13.803 2.76923 13.803H21.2308C21.6513 13.803 22 14.1533 22 14.5758C22 14.9982 21.6513 15.3485 21.2308 15.3485Z" fill="#141414"/>
<path d="M21.2308 20.5H2.76923C2.34872 20.5 2 20.1497 2 19.7273C2 19.3048 2.34872 18.9545 2.76923 18.9545H21.2308C21.6513 18.9545 22 19.3048 22 19.7273C22 20.1497 21.6513 20.5 21.2308 20.5Z" fill="#141414"/>
</svg>
