<svg width="24" height="24" viewBox="0 0 24 24" fill="none" xmlns="http://www.w3.org/2000/svg">
<path d="M21.2308 5.04545H2.76923C2.34872 5.04545 2 4.69515 2 4.27273C2 3.8503 2.34872 3.5 2.76923 3.5H21.2308C21.6513 3.5 22 3.8503 22 4.27273C22 4.69515 21.6513 5.04545 21.2308 5.04545Z" fill="#141414"/>
<path d="M16.8615 10.197H7.13846C6.71795 10.197 6.36923 9.84667 6.36923 9.42424C6.36923 9.00182 6.71795 8.65152 7.13846 8.65152H16.8513C17.2718 8.65152 17.6205 9.00182 17.6205 9.42424C17.6205 9.84667 17.2821 10.197 16.8615 10.197Z" fill="#141414"/>
<path d="M21.2308 15.3485H2.76923C2.34872 15.3485 2 14.9982 2 14.5758C2 14.1533 2.34872 13.803 2.76923 13.803H21.2308C21.6513 13.803 22 14.1533 22 14.5758C22 14.9982 21.6513 15.3485 21.2308 15.3485Z" fill="#141414"/>
<path d="M16.8615 20.5H7.13846C6.71795 20.5 6.36923 20.1497 6.36923 19.7273C6.36923 19.3048 6.71795 18.9545 7.13846 18.9545H16.8513C17.2718 18.9545 17.6205 19.3048 17.6205 19.7273C17.6205 20.1497 17.2821 20.5 16.8615 20.5Z" fill="#141414"/>
</svg>
