<svg width="24" height="24" viewBox="0 0 24 24" fill="none" xmlns="http://www.w3.org/2000/svg">
<path fill-rule="evenodd" clip-rule="evenodd" d="M14.1429 22H7.37143C5.78571 22 4.5 20.6667 4.5 19.0222V4.97778C4.5 3.33333 5.78571 2 7.37143 2H12C14.9571 2 17.3571 4.48889 17.3571 7.55556C17.3571 8.97778 16.8286 10.2667 15.9714 11.2444C18.0143 12.0296 19.5 14.0444 19.5 16.4444C19.5 19.5111 17.1 22 14.1429 22ZM12 4.22222C13.7714 4.22222 15.2143 5.71852 15.2143 7.55556C15.2143 9.39259 13.7714 10.8889 12 10.8889H6.64286V4.97778C6.64286 4.56296 6.97143 4.22222 7.37143 4.22222H12ZM6.64286 13.1111V19.0222C6.64286 19.437 6.97143 19.7778 7.37143 19.7778H14.1429C15.9143 19.7778 17.3571 18.2815 17.3571 16.4444C17.3571 14.6074 15.9143 13.1111 14.1429 13.1111H6.64286Z" fill="#141414"/>
</svg>
