<svg width="24" height="24" viewBox="0 0 24 24" fill="none" xmlns="http://www.w3.org/2000/svg">
<path d="M18.7172 4.50627H15.3369L11.454 19.4937H14.6436C15.3543 19.4937 15.9437 20.0618 15.9437 20.7469C15.9437 21.4319 15.3543 22 14.6436 22H5.30011C4.58938 22 4 21.4319 4 20.7469C4 20.0618 4.58938 19.4937 5.30011 19.4937H8.76706L12.6501 4.50627H9.37378C8.66305 4.50627 8.07367 3.93818 8.07367 3.25313C8.07367 2.56809 8.66305 2 9.37378 2H18.6999C19.4106 2 20 2.56809 20 3.25313C20 3.93818 19.428 4.50627 18.7172 4.50627Z" fill="#141414"/>
</svg>
