<svg width="24" height="24" viewBox="0 0 24 24" fill="none" xmlns="http://www.w3.org/2000/svg">
<path d="M18.9114 22H5.07431C4.48702 22 4 21.5115 4 20.9224C4 20.3333 4.48702 19.8448 5.07431 19.8448H18.9257C19.513 19.8448 20 20.3333 20 20.9224C20 21.5115 19.513 22 18.9114 22ZM19.9857 10.0172C19.9857 14.4425 16.4047 18.0345 11.9928 18.0345C7.58102 18.0345 4 14.4425 4 10.0172V3.07759C4 2.48851 4.48702 2 5.07431 2C5.66159 2 6.14861 2.48851 6.14861 3.07759V10.0172C6.14861 13.25 8.76992 15.8793 11.9928 15.8793C15.2158 15.8793 17.8371 13.25 17.8371 10.0172V3.07759C17.8371 2.48851 18.3241 2 18.9114 2C19.4987 2 19.9857 2.48851 19.9857 3.07759V10.0172Z" fill="#141414"/>
</svg>
