<svg width="24" height="24" viewBox="0 0 24 24" fill="none" xmlns="http://www.w3.org/2000/svg">
<path d="M21.2308 4.8806H14.0513C13.6308 4.8806 13.2821 4.51522 13.2821 4.07463C13.2821 3.63403 13.6308 3.26866 14.0513 3.26866H21.2308C21.6513 3.26866 22 3.63403 22 4.07463C22 4.51522 21.6513 4.8806 21.2308 4.8806Z" fill="#141414"/>
<path d="M21.2308 10.2537H14.0513C13.6308 10.2537 13.2821 9.88836 13.2821 9.44776C13.2821 9.00716 13.6308 8.64179 14.0513 8.64179H21.2308C21.6513 8.64179 22 9.00716 22 9.44776C22 9.88836 21.6513 10.2537 21.2308 10.2537Z" fill="#141414"/>
<path d="M21.2308 15.6269H2.76923C2.34872 15.6269 2 15.2615 2 14.8209C2 14.3803 2.34872 14.0149 2.76923 14.0149H21.2308C21.6513 14.0149 22 14.3803 22 14.8209C22 15.2615 21.6513 15.6269 21.2308 15.6269Z" fill="#141414"/>
<path d="M21.2308 21H2.76923C2.34872 21 2 20.6346 2 20.194C2 19.7534 2.34872 19.3881 2.76923 19.3881H21.2308C21.6513 19.3881 22 19.7534 22 20.194C22 20.6346 21.6513 21 21.2308 21Z" fill="#141414"/>
<path d="M7.81538 3H4.90256C3.46667 3 2.76923 3.73075 2.76923 5.23522V8.29791C2.76923 9.80239 3.46667 10.5331 4.90256 10.5331H7.82564C9.26154 10.5331 9.95897 9.80239 9.95897 8.29791V5.23522C9.94872 3.73075 9.25128 3 7.81538 3Z" fill="#141414"/>
</svg>
