<svg width="24" height="24" viewBox="0 0 24 24" fill="none" xmlns="http://www.w3.org/2000/svg">
<path d="M6.7693 12.4628C7.30384 12.463 7.79201 12.732 8.07374 13.161L8.18138 13.3551L8.22999 13.4709L10.9939 21.0637C11.055 21.2312 11.0492 21.4151 10.9766 21.578C10.9038 21.741 10.7697 21.8706 10.6027 21.9402C10.4357 22.0097 10.2474 22.0146 10.0773 21.9527C9.90925 21.8915 9.7715 21.77 9.69067 21.6132L9.65132 21.5247L8.97654 19.6696H4.56091L3.88266 21.5315V21.5338C3.82237 21.702 3.69829 21.8416 3.53658 21.9232C3.37473 22.0047 3.18692 22.022 3.01226 21.972C2.83757 21.9219 2.68844 21.8083 2.59674 21.6541C2.50575 21.5009 2.47758 21.3193 2.51804 21.1466L2.5435 21.0637L5.30746 13.4721L5.35144 13.3631C5.46522 13.1137 5.64569 12.898 5.87461 12.7398C6.13627 12.5591 6.44926 12.4628 6.7693 12.4628ZM17.4362 3.16253C17.6246 3.16268 17.8053 3.2362 17.9386 3.36689C18.0718 3.49767 18.1469 3.67473 18.1469 3.8596V19.4142L20.2847 17.3173C20.3507 17.2525 20.4299 17.2003 20.5162 17.1652C20.6023 17.1302 20.695 17.1118 20.7882 17.1118C20.8815 17.1118 20.974 17.1302 21.0602 17.1652C21.1463 17.2001 21.2245 17.2516 21.2905 17.3162C21.3566 17.3809 21.4098 17.4586 21.4456 17.5432C21.4812 17.6277 21.5 17.7186 21.5 17.81C21.5 17.9015 21.4813 17.9922 21.4456 18.0768C21.41 18.1613 21.3575 18.238 21.2917 18.3027L17.9386 21.5905C17.8053 21.7212 17.6246 21.7947 17.4362 21.7949C17.2477 21.7949 17.0661 21.7213 16.9328 21.5905L13.5866 18.3084C13.4573 18.1769 13.3859 18.0007 13.3875 17.818C13.3892 17.6352 13.4641 17.4602 13.5959 17.3309C13.7277 17.2017 13.906 17.1282 14.0924 17.1266C14.232 17.1254 14.3679 17.1647 14.4836 17.2378L14.5924 17.323L16.7244 19.4142V3.8596C16.7244 3.67474 16.7996 3.49767 16.9328 3.36689C17.0661 3.23608 17.2476 3.16253 17.4362 3.16253ZM5.06787 18.2755H8.46958L6.7693 13.606L5.06787 18.2755ZM10.0391 2C10.7431 2.00023 11.1153 2.80186 10.6884 3.31807L10.6247 3.38846L4.93014 8.97521H10.3238L10.4581 8.9877C10.5896 9.01264 10.7123 9.07342 10.8111 9.1648C10.9429 9.28684 11.0227 9.45392 11.0333 9.6314C11.0439 9.80866 10.985 9.98332 10.8689 10.1196C10.7534 10.255 10.5892 10.3419 10.4106 10.3637L10.3157 10.3693H3.49839C2.79432 10.3691 2.42085 9.56633 2.84791 9.05014L2.91272 8.98088L8.60731 3.39413H3.21366C3.0325 3.39394 2.85815 3.32646 2.72638 3.20454C2.59458 3.0825 2.51477 2.91542 2.50415 2.73794C2.49354 2.56047 2.55334 2.38609 2.66966 2.24976C2.78499 2.11464 2.94755 2.0265 3.12569 2.00454L3.22176 2H10.0391Z" fill="#141414"/>
</svg>
