<svg width="24" height="24" viewBox="0 0 24 24" fill="none" xmlns="http://www.w3.org/2000/svg">
<path d="M8.00057 12.4004C8.45158 12.4006 8.86346 12.632 9.10116 13.001L9.19198 13.168L9.23299 13.2676L11.565 19.7988C11.6165 19.9429 11.6117 20.1011 11.5504 20.2412C11.4889 20.3814 11.3758 20.4929 11.2349 20.5527C11.094 20.6126 10.9352 20.6167 10.7916 20.5635C10.6498 20.5108 10.5336 20.4063 10.4654 20.2715L10.4322 20.1953L9.86288 18.5996H6.13729L5.56502 20.2012V20.2031C5.51416 20.3479 5.40947 20.4679 5.27303 20.5381C5.13647 20.6082 4.97801 20.6231 4.83065 20.5801C4.68325 20.537 4.55743 20.4393 4.48006 20.3066C4.40329 20.1749 4.37952 20.0187 4.41366 19.8701L4.43514 19.7988L6.76717 13.2686L6.80428 13.1748C6.90027 12.9603 7.05255 12.7747 7.24569 12.6387C7.46646 12.4832 7.73054 12.4004 8.00057 12.4004ZM17.0006 4.40039C17.1595 4.40051 17.312 4.4638 17.4244 4.57617L20.2535 7.4043C20.3658 7.5168 20.4292 7.66915 20.4293 7.82812C20.4293 7.98729 20.366 8.14033 20.2535 8.25293C20.1409 8.36553 19.9879 8.42869 19.8287 8.42871C19.6694 8.42871 19.5165 8.36556 19.4039 8.25293L17.6002 6.44727V20C17.6002 20.159 17.5368 20.3113 17.4244 20.4238C17.312 20.5362 17.1595 20.5995 17.0006 20.5996C16.8414 20.5996 16.6883 20.5363 16.5758 20.4238C16.4634 20.3113 16.4 20.159 16.4 20V6.44727L14.5963 8.25293C14.5405 8.3087 14.4738 8.35361 14.401 8.38379C14.3283 8.41382 14.2501 8.42871 14.1715 8.42871C14.0928 8.42869 14.0147 8.41386 13.942 8.38379C13.8691 8.35361 13.8024 8.3087 13.7467 8.25293C13.6911 8.19728 13.6469 8.13125 13.6168 8.05859C13.5866 7.98573 13.5709 7.90699 13.5709 7.82812C13.5709 7.74939 13.5866 7.67138 13.6168 7.59863C13.6469 7.52595 13.6911 7.45998 13.7467 7.4043L16.5758 4.57617C16.6883 4.46369 16.8415 4.40039 17.0006 4.40039ZM6.56502 17.4004H9.43514L8.00057 13.3838L6.56502 17.4004ZM10.7594 3.40039C11.3534 3.40059 11.6674 4.09014 11.3072 4.53418L11.2535 4.59473L6.44881 9.40039H10.9996L11.1129 9.41113C11.2238 9.43259 11.3274 9.48487 11.4107 9.56348C11.5219 9.66846 11.5893 9.81218 11.5982 9.96484C11.6072 10.1173 11.5575 10.2676 11.4596 10.3848C11.3621 10.5012 11.2235 10.576 11.0728 10.5947L10.9928 10.5996H5.24081C4.64676 10.5994 4.33166 9.90887 4.69198 9.46484L4.74666 9.40527L9.55135 4.59961H5.00057C4.84772 4.59944 4.70062 4.5414 4.58944 4.43652C4.47824 4.33154 4.4109 4.18782 4.40194 4.03516C4.39298 3.8825 4.44344 3.7325 4.54159 3.61523C4.63889 3.499 4.77605 3.42318 4.92635 3.4043L5.00741 3.40039H10.7594Z" fill="#141414"/>
</svg>
