<svg width="24" height="24" viewBox="0 0 24 24" fill="none" xmlns="http://www.w3.org/2000/svg">
<path d="M8.00057 12.4004C8.45158 12.4006 8.86346 12.632 9.10116 13.001L9.19198 13.168L9.23299 13.2676L11.565 19.7988C11.6165 19.9429 11.6117 20.1011 11.5504 20.2412C11.4889 20.3814 11.3758 20.4929 11.2349 20.5527C11.094 20.6126 10.9352 20.6167 10.7916 20.5635C10.6498 20.5108 10.5336 20.4063 10.4654 20.2715L10.4322 20.1953L9.86288 18.5996H6.13729L5.56502 20.2012V20.2031C5.51416 20.3479 5.40947 20.4679 5.27303 20.5381C5.13647 20.6082 4.97801 20.6231 4.83065 20.5801C4.68325 20.537 4.55743 20.4393 4.48006 20.3066C4.40329 20.1749 4.37952 20.0187 4.41366 19.8701L4.43514 19.7988L6.76717 13.2686L6.80428 13.1748C6.90027 12.9603 7.05255 12.7747 7.24569 12.6387C7.46646 12.4832 7.73054 12.4004 8.00057 12.4004ZM17.0006 4.40039C17.1595 4.40052 17.312 4.46376 17.4244 4.57617C17.5368 4.68867 17.6002 4.84098 17.6002 5V18.3799L19.4039 16.5762C19.4596 16.5204 19.5264 16.4755 19.5992 16.4453C19.6719 16.4153 19.7501 16.3994 19.8287 16.3994C19.9074 16.3994 19.9855 16.4152 20.0582 16.4453C20.1309 16.4754 20.1968 16.5196 20.2525 16.5752C20.3083 16.6309 20.3532 16.6977 20.3834 16.7705C20.4134 16.8432 20.4293 16.9213 20.4293 17C20.4293 17.0787 20.4135 17.1567 20.3834 17.2295C20.3533 17.3022 20.309 17.3682 20.2535 17.4238L17.4244 20.252C17.312 20.3643 17.1595 20.4276 17.0006 20.4277C16.8415 20.4277 16.6883 20.3644 16.5758 20.252L13.7525 17.4287C13.6434 17.3156 13.5832 17.164 13.5846 17.0068C13.586 16.8496 13.6491 16.6991 13.7603 16.5879C13.8716 16.4768 14.022 16.4135 14.1793 16.4121C14.2971 16.4111 14.4117 16.4449 14.5094 16.5078L14.6012 16.5811L16.4 18.3799V5C16.4 4.84099 16.4634 4.68867 16.5758 4.57617C16.6883 4.46365 16.8414 4.40039 17.0006 4.40039ZM6.56502 17.4004H9.43514L8.00057 13.3838L6.56502 17.4004ZM10.7594 3.40039C11.3534 3.40059 11.6674 4.09014 11.3072 4.53418L11.2535 4.59473L6.44881 9.40039H10.9996L11.1129 9.41113C11.2238 9.43259 11.3274 9.48487 11.4107 9.56348C11.5219 9.66846 11.5893 9.81218 11.5982 9.96484C11.6072 10.1173 11.5575 10.2676 11.4596 10.3848C11.3621 10.5012 11.2235 10.576 11.0728 10.5947L10.9928 10.5996H5.24081C4.64676 10.5994 4.33166 9.90887 4.69198 9.46484L4.74666 9.40527L9.55135 4.59961H5.00057C4.84772 4.59944 4.70062 4.5414 4.58944 4.43652C4.47824 4.33154 4.4109 4.18782 4.40194 4.03516C4.39298 3.8825 4.44344 3.7325 4.54159 3.61523C4.63889 3.499 4.77605 3.42318 4.92635 3.4043L5.00741 3.40039H10.7594Z" fill="#141414"/>
</svg>
