<svg width="24" height="24" viewBox="0 0 24 24" fill="none" xmlns="http://www.w3.org/2000/svg">
<path d="M6.7693 12.4628C7.30384 12.463 7.79201 12.732 8.07374 13.161L8.18138 13.3551L8.22999 13.4709L10.9939 21.0637C11.055 21.2312 11.0492 21.4151 10.9766 21.578C10.9038 21.741 10.7697 21.8706 10.6027 21.9402C10.4357 22.0097 10.2474 22.0146 10.0773 21.9527C9.90925 21.8915 9.7715 21.77 9.69067 21.6132L9.65132 21.5247L8.97654 19.6696H4.56091L3.88266 21.5315V21.5338C3.82237 21.702 3.69829 21.8416 3.53658 21.9232C3.37473 22.0047 3.18692 22.022 3.01226 21.972C2.83757 21.9219 2.68844 21.8083 2.59674 21.6541C2.50575 21.5009 2.47758 21.3193 2.51804 21.1466L2.5435 21.0637L5.30746 13.4721L5.35144 13.3631C5.46522 13.1137 5.64569 12.898 5.87461 12.7398C6.13627 12.5591 6.44926 12.4628 6.7693 12.4628ZM17.4362 3.16253C17.6246 3.16268 17.8053 3.23625 17.9386 3.36689L21.2917 6.65468C21.4248 6.78547 21.4999 6.96258 21.5 7.14739C21.5 7.33243 21.425 7.51034 21.2917 7.64124C21.1582 7.77215 20.9769 7.84557 20.7882 7.8456C20.5994 7.8456 20.4182 7.77217 20.2847 7.64124L18.1469 5.5421V21.2976C18.1469 21.4825 18.0718 21.6595 17.9386 21.7903C17.8053 21.921 17.6246 21.9945 17.4362 21.9947C17.2476 21.9947 17.0661 21.9211 16.9328 21.7903C16.7996 21.6596 16.7244 21.4825 16.7244 21.2976V5.5421L14.5866 7.64124C14.5205 7.70608 14.4415 7.75829 14.3551 7.79337C14.269 7.82828 14.1764 7.8456 14.0831 7.8456C13.9899 7.84558 13.8973 7.82833 13.8111 7.79337C13.7248 7.75829 13.6458 7.70607 13.5797 7.64124C13.5138 7.57655 13.4614 7.49979 13.4257 7.41532C13.39 7.33062 13.3713 7.23908 13.3713 7.14739C13.3714 7.05586 13.39 6.96517 13.4257 6.8806C13.4614 6.7961 13.5138 6.71941 13.5797 6.65468L16.9328 3.36689C17.0661 3.23612 17.2477 3.16253 17.4362 3.16253ZM5.06787 18.2755H8.46958L6.7693 13.606L5.06787 18.2755ZM10.0391 2C10.7431 2.00023 11.1153 2.80186 10.6884 3.31807L10.6247 3.38846L4.93014 8.97521H10.3238L10.4581 8.9877C10.5896 9.01264 10.7123 9.07342 10.8111 9.1648C10.9429 9.28684 11.0227 9.45392 11.0333 9.6314C11.0439 9.80866 10.985 9.98332 10.8689 10.1196C10.7534 10.255 10.5892 10.3419 10.4106 10.3637L10.3157 10.3693H3.49839C2.79432 10.3691 2.42085 9.56633 2.84791 9.05014L2.91272 8.98088L8.60731 3.39413H3.21366C3.0325 3.39394 2.85815 3.32646 2.72638 3.20454C2.59458 3.0825 2.51477 2.91542 2.50415 2.73794C2.49354 2.56047 2.55334 2.38609 2.66966 2.24976C2.78499 2.11464 2.94755 2.0265 3.12569 2.00454L3.22176 2H10.0391Z" fill="#141414"/>
</svg>
