<svg width="24" height="24" viewBox="0 0 24 24" fill="none" xmlns="http://www.w3.org/2000/svg">
<path d="M15.7317 4.58295L6.07978 13.7602C5.592 14.224 4.74097 14.1253 4.42962 13.5332C3.86919 12.4774 3.55784 11.3228 3.55784 10.2077C3.55784 7.79006 4.68908 5.53028 6.67135 4.01061C8.65362 2.49093 11.2482 1.92846 13.7909 2.46133C14.3513 2.57975 14.9014 2.7475 15.4203 2.97447C16.0845 3.26064 16.2506 4.08955 15.7317 4.58295Z" fill="#141414"/>
<path d="M15.4722 20.6481C13.1267 20.0165 10.6566 20.0165 8.31113 20.6481C7.92713 20.7566 7.69881 21.1316 7.81297 21.4967C7.92713 21.8618 8.32151 22.0691 8.70551 21.9704C10.7916 21.4079 12.9814 21.4079 15.0674 21.9704C15.1297 21.9901 15.2024 22 15.2646 22C15.576 22 15.8666 21.8026 15.96 21.4967C16.0742 21.1316 15.8562 20.7566 15.4722 20.6481Z" fill="#141414"/>
<path d="M20.7756 2.21463C20.4746 1.92846 19.9764 1.92846 19.6754 2.21463L3.22573 17.8554C2.92476 18.1416 2.92476 18.6153 3.22573 18.9014C3.38141 19.0495 3.57859 19.1185 3.77578 19.1185C3.97297 19.1185 4.17016 19.0495 4.32584 18.9014L6.87892 16.4739C7.10724 16.6515 7.34594 16.8292 7.59502 16.987V17.8061C7.58464 18.0824 7.57427 18.5067 7.91675 18.8521C8.28 19.1975 8.81967 19.2468 9.24518 19.2468H14.5693C15.1297 19.2468 15.5552 19.0988 15.8458 18.8225C16.2506 18.4278 16.2298 17.9344 16.2194 17.6778V16.987C19.4471 14.9246 21.4709 10.5728 19.3745 6.56642C19.1461 6.1421 18.8659 5.73751 18.5546 5.36253L20.7652 3.26064C21.0765 2.97447 21.0765 2.5008 20.7756 2.21463Z" fill="#141414"/>
</svg>
