<svg width="24" height="24" viewBox="0 0 24 24" fill="none" xmlns="http://www.w3.org/2000/svg">
<path d="M19.1783 6.3581C18.1425 4.25784 16.1407 2.70766 13.8201 2.19759C11.39 1.65753 8.90008 2.2376 6.99781 3.77779C5.08559 5.30797 4 7.59825 4 10.0485C4 12.6389 5.54373 15.3492 7.87425 16.9194V17.7495C7.86429 18.0295 7.85433 18.4596 8.19296 18.8096C8.54154 19.1697 9.05943 19.2097 9.46777 19.2097H14.577C15.1148 19.2097 15.5232 19.0596 15.802 18.7796C16.1805 18.3896 16.1705 17.8895 16.1606 17.6195V16.9194C19.248 14.8291 21.1901 10.4186 19.1783 6.3581Z" fill="#141414"/>
<path d="M15.2443 22C15.1845 22 15.1148 21.99 15.0551 21.97C13.0532 21.3999 10.9517 21.3999 8.94988 21.97C8.58138 22.07 8.19296 21.86 8.09336 21.4899C7.98381 21.1199 8.20292 20.7298 8.57142 20.6298C10.8223 19.9898 13.1926 19.9898 15.4435 20.6298C15.812 20.7398 16.0311 21.1199 15.9215 21.4899C15.8219 21.8 15.5431 22 15.2443 22Z" fill="#141414"/>
</svg>
