<svg width="24" height="24" viewBox="0 0 24 24" fill="none" xmlns="http://www.w3.org/2000/svg">
<path d="M15.7 4.35004L6.4 13.65C5.93 14.12 5.10999 14.02 4.80999 13.42C4.26999 12.35 3.97 11.18 3.97 10.05C3.97 7.60004 5.05999 5.31004 6.96999 3.77004C8.87999 2.23004 11.38 1.66004 13.83 2.20004C14.37 2.32004 14.9 2.49004 15.4 2.72004C16.04 3.01004 16.2 3.85004 15.7 4.35004Z" fill="#141414"/>
<path d="M15.45 20.63C13.19 19.99 10.81 19.99 8.55 20.63C8.18 20.74 7.95999 21.12 8.06999 21.49C8.18 21.86 8.56 22.07 8.93 21.97C10.94 21.4 13.05 21.4 15.06 21.97C15.12 21.99 15.19 22 15.25 22C15.55 22 15.83 21.8 15.92 21.49C16.03 21.12 15.82 20.74 15.45 20.63Z" fill="#141414"/>
<path d="M20.56 1.95004C20.27 1.66004 19.79 1.66004 19.5 1.95004L3.65 17.8C3.36 18.09 3.36 18.57 3.65 18.86C3.8 19.01 3.98999 19.08 4.17999 19.08C4.36999 19.08 4.56 19.01 4.71 18.86L7.17 16.4C7.39 16.58 7.62 16.76 7.86 16.92V17.75C7.85 18.03 7.84 18.46 8.17 18.81C8.52 19.16 9.04 19.21 9.45 19.21H14.58C15.12 19.21 15.53 19.06 15.81 18.78C16.2 18.38 16.18 17.88 16.17 17.62V16.92C19.28 14.83 21.23 10.42 19.21 6.36004C18.99 5.93004 18.72 5.52004 18.42 5.14004L20.55 3.01004C20.85 2.72004 20.85 2.24004 20.56 1.95004Z" fill="#141414"/>
</svg>
