<svg width="24" height="24" viewBox="0 0 24 24" fill="none" xmlns="http://www.w3.org/2000/svg">
<path d="M19.6316 14.49L18.5915 12.83C18.3731 12.46 18.1755 11.76 18.1755 11.35V8.82C18.1755 6.47 16.7402 4.44 14.6704 3.49C14.1296 2.57 13.1311 2 11.9871 2C10.8534 2 9.83414 2.59 9.2933 3.52C7.26518 4.49 5.86109 6.5 5.86109 8.82V11.35C5.86109 11.76 5.66348 12.46 5.44506 12.82L4.3946 14.49C3.97857 15.16 3.88496 15.9 4.14498 16.58C4.3946 17.25 4.98743 17.77 5.75708 18.02C7.77481 18.68 9.89654 19 12.0183 19C14.14 19 16.2617 18.68 18.2795 18.03C19.0075 17.8 19.5691 17.27 19.8396 16.58C20.11 15.89 20.0372 15.13 19.6316 14.49Z" fill="#141414"/>
<path d="M14.9409 20.01C14.504 21.17 13.3496 22 11.9975 22C11.1758 22 10.3646 21.68 9.79254 21.11C9.45971 20.81 9.2101 20.41 9.06449 20C9.1997 20.02 9.33491 20.03 9.48052 20.05C9.71973 20.08 9.96935 20.11 10.219 20.13C10.8118 20.18 11.415 20.21 12.0183 20.21C12.6111 20.21 13.2039 20.18 13.7864 20.13C14.0048 20.11 14.2232 20.1 14.4312 20.07C14.5976 20.05 14.764 20.03 14.9409 20.01Z" fill="#141414"/>
</svg>
