<svg width="24" height="24" viewBox="0 0 24 24" fill="none" xmlns="http://www.w3.org/2000/svg">
<path d="M20.6057 14.0401L19.4179 12.1554C19.1552 11.7444 18.9239 10.9524 18.9239 10.4712V8.59649C18.9239 4.95739 15.8232 2 12.0182 2C8.20271 2.01003 5.10196 4.95739 5.10196 8.59649V10.4612C5.10196 10.9424 4.87072 11.7343 4.61846 12.1454L3.43071 14.0301C2.97874 14.7619 2.87363 15.594 3.15743 16.3158C3.44122 17.0476 4.08239 17.6291 4.92327 17.8897C6.05846 18.2506 7.20416 18.5113 8.37088 18.7018C8.4865 18.7218 8.60213 18.7318 8.71775 18.7519C8.8649 18.7719 9.02256 18.792 9.18023 18.812C9.45352 18.8521 9.7268 18.8822 10.0106 18.9023C10.6728 18.9624 11.3455 18.9925 12.0182 18.9925C12.6804 18.9925 13.3426 18.9624 13.9943 18.9023C14.236 18.8822 14.4778 18.8622 14.709 18.8321C14.8982 18.812 15.0874 18.792 15.2766 18.7619C15.3922 18.7519 15.5079 18.7318 15.6235 18.7118C16.8007 18.5313 17.9674 18.2506 19.1026 17.8897C19.912 17.6291 20.5321 17.0476 20.8264 16.3058C21.1207 15.5539 21.0366 14.7318 20.6057 14.0401ZM12.7855 9.96992C12.7855 10.391 12.4281 10.7318 11.9867 10.7318C11.5452 10.7318 11.1878 10.391 11.1878 9.96992V6.86216C11.1878 6.4411 11.5452 6.10025 11.9867 6.10025C12.4281 6.10025 12.7855 6.4411 12.7855 6.86216V9.96992Z" fill="#141414"/>
<path d="M14.9718 20.005C14.5303 21.1679 13.3636 22 11.9972 22C11.1668 22 10.347 21.6792 9.76885 21.1078C9.43249 20.807 9.18023 20.406 9.03308 19.995C9.16972 20.015 9.30636 20.0251 9.45352 20.0451C9.69527 20.0752 9.94753 20.1053 10.1998 20.1253C10.7989 20.1754 11.4086 20.2055 12.0182 20.2055C12.6173 20.2055 13.2165 20.1754 13.8051 20.1253C14.0258 20.1053 14.2465 20.0952 14.4568 20.0652C14.6249 20.0451 14.7931 20.0251 14.9718 20.005Z" fill="#141414"/>
</svg>
