<svg width="24" height="24" viewBox="0 0 24 24" fill="none" xmlns="http://www.w3.org/2000/svg">
<path d="M5.77138 18.9027C5.66874 18.9027 5.55677 18.8748 5.46345 18.8283L3.39191 17.7958C3.15863 17.6749 3.00933 17.4331 3.00933 17.1727V14.5869C3.00933 14.2056 3.32659 13.8893 3.70918 13.8893C4.09176 13.8893 4.40902 14.2056 4.40902 14.5869V16.7355L6.08865 17.5819C6.4339 17.7493 6.57387 18.1679 6.39658 18.512C6.27527 18.7539 6.03266 18.9027 5.77138 18.9027Z" fill="#141414"/>
<path d="M11.9953 22C11.9393 22 11.8834 21.9907 11.8367 21.9814C11.7807 21.9721 11.7247 21.9442 11.6687 21.9163L9.60653 20.8932C9.26127 20.7164 9.12131 20.2979 9.28927 19.9537C9.46656 19.6096 9.88647 19.4701 10.2317 19.6375L11.2955 20.1677V18.7167C11.2955 18.3353 11.6128 18.0191 11.9953 18.0191C12.3779 18.0191 12.6952 18.3353 12.6952 18.7167V20.1677L13.7589 19.6375C14.1042 19.4701 14.5241 19.6096 14.7014 19.9537C14.8787 20.2979 14.7387 20.7164 14.3841 20.8932L12.3219 21.9163C12.2659 21.9442 12.21 21.9628 12.154 21.9814C12.098 21.9907 12.0513 22 11.9953 22Z" fill="#141414"/>
<path d="M18.2193 18.9027C17.9673 18.9027 17.7154 18.7632 17.5941 18.5213C17.4168 18.1772 17.5568 17.7586 17.9114 17.5819L19.6003 16.7448V14.5962C19.6003 14.2149 19.9176 13.8986 20.3002 13.8986C20.6827 13.8986 21 14.2149 21 14.5962V17.182C21 17.4424 20.8507 17.6842 20.6174 17.8051L18.5272 18.8283C18.4246 18.8748 18.3219 18.9027 18.2193 18.9027Z" fill="#141414"/>
<path d="M11.9953 14.2521C11.6128 14.2521 11.2955 13.9358 11.2955 13.5545V11.4059L9.60653 10.5688C9.26127 10.392 9.12131 9.97349 9.28927 9.62935C9.46656 9.2852 9.88647 9.14568 10.2317 9.3131L11.9953 10.1874L13.7589 9.3131C14.1042 9.14568 14.5241 9.2759 14.7014 9.62935C14.8787 9.97349 14.7387 10.392 14.3841 10.5688L12.6952 11.4059V13.5545C12.6952 13.9358 12.3779 14.2521 11.9953 14.2521Z" fill="#141414"/>
<path d="M3.69984 10.113C3.31726 10.113 3 9.79677 3 9.41542V6.83897C3 6.78316 3.00933 6.72736 3.01866 6.68085C3.03733 6.59714 3.06532 6.53203 3.10264 6.46692C3.13064 6.42042 3.16796 6.38321 3.20529 6.34601C3.24261 6.3088 3.28927 6.2716 3.33593 6.24369C3.35459 6.23439 3.38258 6.21579 3.40124 6.20649L5.46345 5.17405C5.80871 5.00663 6.22862 5.14615 6.39658 5.49029C6.57387 5.83444 6.4339 6.25299 6.08865 6.42042L5.2675 6.82967L6.08865 7.23893C6.4339 7.41565 6.57387 7.8342 6.39658 8.17835C6.22862 8.5225 5.80871 8.66201 5.46345 8.49459L4.39969 7.96442V9.41542C4.39969 9.80607 4.09176 10.113 3.69984 10.113Z" fill="#141414"/>
<path d="M14.0669 4.42995C13.9642 4.42995 13.8523 4.40205 13.7589 4.35554L11.9953 3.48122L10.2317 4.35554C9.88647 4.53226 9.46656 4.39275 9.2986 4.0486C9.12131 3.70445 9.26127 3.2859 9.60653 3.10917L11.6781 2.07674C11.874 1.97442 12.1073 1.97442 12.3033 2.07674L14.3748 3.10917C14.7201 3.2859 14.86 3.70445 14.6921 4.0486C14.5708 4.29043 14.3281 4.42995 14.0669 4.42995Z" fill="#141414"/>
<path d="M20.2908 10.113C19.9082 10.113 19.591 9.79677 19.591 9.41542V7.96442L18.5272 8.49459C18.182 8.66201 17.7621 8.5225 17.5941 8.17835C17.4168 7.8342 17.5568 7.41565 17.9114 7.23893L18.7325 6.82967L17.902 6.42042C17.5568 6.25299 17.4168 5.83444 17.5941 5.49029C17.7714 5.14615 18.182 5.00663 18.5272 5.17405L20.5894 6.19719C20.6081 6.20649 20.6361 6.21579 20.6547 6.23439C20.7107 6.2623 20.7574 6.3088 20.804 6.35531C20.832 6.39251 20.86 6.42972 20.888 6.46692C20.9253 6.53203 20.9533 6.59714 20.972 6.67155C20.9813 6.72736 20.9907 6.78316 20.9907 6.82967V9.40612C20.9907 9.80607 20.6734 10.113 20.2908 10.113Z" fill="#141414"/>
</svg>
