<svg width="24" height="24" viewBox="0 0 24 24" fill="none" xmlns="http://www.w3.org/2000/svg">
<path d="M2.76923 16.5C2.34872 16.5 2 16.16 2 15.75V8.25C2 7.84 2.34872 7.5 2.76923 7.5C3.18974 7.5 3.53846 7.84 3.53846 8.25V15.75C3.53846 16.16 3.18974 16.5 2.76923 16.5Z" fill="#141414"/>
<path d="M7.38462 19C6.9641 19 6.61539 18.66 6.61539 18.25V5.75C6.61539 5.34 6.9641 5 7.38462 5C7.80513 5 8.15385 5.34 8.15385 5.75V18.25C8.15385 18.66 7.80513 19 7.38462 19Z" fill="#141414"/>
<path d="M12 21.5C11.5795 21.5 11.2308 21.16 11.2308 20.75V3.25C11.2308 2.84 11.5795 2.5 12 2.5C12.4205 2.5 12.7692 2.84 12.7692 3.25V20.75C12.7692 21.16 12.4205 21.5 12 21.5Z" fill="#141414"/>
<path d="M16.6154 19C16.1949 19 15.8462 18.66 15.8462 18.25V5.75C15.8462 5.34 16.1949 5 16.6154 5C17.0359 5 17.3846 5.34 17.3846 5.75V18.25C17.3846 18.66 17.0359 19 16.6154 19Z" fill="#141414"/>
<path d="M21.2308 16.5C20.8103 16.5 20.4615 16.16 20.4615 15.75V8.25C20.4615 7.84 20.8103 7.5 21.2308 7.5C21.6513 7.5 22 7.84 22 8.25V15.75C22 16.16 21.6513 16.5 21.2308 16.5Z" fill="#141414"/>
</svg>
