<svg width="24" height="24" viewBox="0 0 24 24" fill="none" xmlns="http://www.w3.org/2000/svg">
<path d="M18.7368 13.2632H13.2632V18.7368C13.2632 19.4274 12.6905 20 12 20C11.3095 20 10.7368 19.4274 10.7368 18.7368V13.2632H5.26316C4.57263 13.2632 4 12.6905 4 12C4 11.3095 4.57263 10.7368 5.26316 10.7368H10.7368V5.26316C10.7368 4.57263 11.3095 4 12 4C12.6905 4 13.2632 4.57263 13.2632 5.26316V10.7368H18.7368C19.4274 10.7368 20 11.3095 20 12C20 12.6905 19.4274 13.2632 18.7368 13.2632Z" fill="#141414"/>
</svg>
