<svg width="24" height="24" viewBox="0 0 24 24" fill="none" xmlns="http://www.w3.org/2000/svg">
<path d="M16.1971 2H7.8129C4.17108 2 2 4.17 2 7.81V16.18C2 19.83 4.17108 22 7.8129 22H16.1871C19.8289 22 22 19.83 22 16.19V7.81C22.01 4.17 19.8389 2 16.1971 2ZM16.007 12.75H12.7554V16C12.7554 16.41 12.4152 16.75 12.005 16.75C11.5948 16.75 11.2546 16.41 11.2546 16V12.75H8.00299C7.59279 12.75 7.25262 12.41 7.25262 12C7.25262 11.59 7.59279 11.25 8.00299 11.25H11.2546V8C11.2546 7.59 11.5948 7.25 12.005 7.25C12.4152 7.25 12.7554 7.59 12.7554 8V11.25H16.007C16.4172 11.25 16.7574 11.59 16.7574 12C16.7574 12.41 16.4172 12.75 16.007 12.75Z" fill="#141414"/>
</svg>
