<svg width="24" height="24" viewBox="0 0 24 24" fill="none" xmlns="http://www.w3.org/2000/svg">
<path d="M20.42 9.07093C20.28 9.06118 20.1 9.05142 19.9 9.05142C19.51 9.05142 19.2 9.35391 19.2 9.73446V14.2718C19.2 14.6524 19.51 14.9549 19.9 14.9549C20.1 14.9549 20.27 14.9451 20.44 14.9354C22 14.7597 22 13.6864 22 12.9057V11.0908C22 10.3102 22 9.23682 20.42 9.07093Z" fill="#141414"/>
<path d="M18.28 10.1833V13.8132C18.28 16.6918 15.88 19.0336 12.93 19.0336H9.26C8.47 19.0336 7.99 18.1847 8.41 17.5407L15.67 6.33875C16.03 5.78256 16.84 5.73377 17.29 6.23142C18.01 7.04132 18.28 8.30007 18.28 10.1833Z" fill="#141414"/>
<path d="M16.4 2.11363C16.05 1.89896 15.59 1.99654 15.37 2.33806L13.66 4.98242C13.43 4.97266 13.19 4.96291 12.93 4.96291H7.35C3.25 4.96291 2 6.18263 2 10.1833V13.8132C2 16.7893 2.7 18.214 4.74 18.7507L3.37 20.8779C3.15 21.2194 3.25 21.6682 3.6 21.8829C3.72 21.961 3.86 22 4 22C4.25 22 4.49 21.8829 4.63 21.6585L16.63 3.11869C16.86 2.77716 16.75 2.32831 16.4 2.11363Z" fill="#141414"/>
</svg>
