<svg width="24" height="24" viewBox="0 0 24 24" fill="none" xmlns="http://www.w3.org/2000/svg">
<path d="M20.42 9.08738C20.28 9.07767 20.1 9.06796 19.9 9.06796C19.51 9.06796 19.2 9.36893 19.2 9.74757V14.2621C19.2 14.6408 19.51 14.9417 19.9 14.9417C20.1 14.9417 20.27 14.932 20.44 14.9223C22 14.7476 22 13.6796 22 12.9029V11.0971C22 10.3204 22 9.25243 20.42 9.08738Z" fill="#141414"/>
<path d="M12.93 5H7.35C3.25 5 2 6.21359 2 10.1942V13.8058C2 17.7864 3.25 19 7.35 19H12.93C17.03 19 18.28 17.7864 18.28 13.8058V10.1942C18.28 6.21359 17.03 5 12.93 5ZM7.1 14.1165C7.02 14.4466 6.71 14.6699 6.37 14.6699C6.31 14.6699 6.25 14.6602 6.19 14.6505C5.79 14.5534 5.54 14.1553 5.64 13.767C5.94 12.6117 5.94 11.3884 5.64 10.233C5.54 9.84466 5.78 9.4466 6.19 9.34952C6.59 9.25243 7 9.49515 7.1 9.8835C7.46 11.2718 7.46 12.7282 7.1 14.1165Z" fill="#141414"/>
</svg>
