<svg width="24" height="24" viewBox="0 0 24 24" fill="none" xmlns="http://www.w3.org/2000/svg">
<path d="M20.42 9.08738C20.28 9.07767 20.1 9.06796 19.9 9.06796C19.51 9.06796 19.2 9.36893 19.2 9.74757V14.2621C19.2 14.6408 19.51 14.9417 19.9 14.9417C20.1 14.9417 20.27 14.932 20.44 14.9223C22 14.7476 22 13.6796 22 12.9029V11.0971C22 10.3204 22 9.25243 20.42 9.08738Z" fill="#141414"/>
<path d="M12.93 5H7.35C3.25 5 2 6.21359 2 10.1942V13.8058C2 17.7864 3.25 19 7.35 19H12.93C17.03 19 18.28 17.7864 18.28 13.8058V10.1942C18.28 6.21359 17.03 5 12.93 5ZM12.53 13.6311C12.51 13.6699 12.48 13.7087 12.45 13.7379L10.58 15.8641C10.43 16.0291 10.22 16.1165 10.01 16.1165C9.84 16.1165 9.66 16.0583 9.52 15.9417C9.21 15.6796 9.17 15.2233 9.44 14.9126L11.24 12.8641C11.25 12.835 11.24 12.8058 11.22 12.7767C11.2 12.7379 11.16 12.7184 11.11 12.7184H9.12C8.53 12.7184 8.01 12.4272 7.71 11.932C7.42 11.4369 7.42 10.8544 7.71 10.3592L9.42 8.16505C9.67 7.84466 10.14 7.7767 10.47 8.01942C10.8 8.26214 10.87 8.71845 10.62 9.03884L8.97 11.165C9 11.1262 9 11.165 9.02 11.2136C9.04 11.2524 9.08 11.2718 9.13 11.2718H11.14C11.73 11.2718 12.25 11.5631 12.55 12.0583C12.82 12.5534 12.82 13.1359 12.53 13.6311Z" fill="#141414"/>
</svg>
