<svg width="24" height="24" viewBox="0 0 24 24" fill="none" xmlns="http://www.w3.org/2000/svg">
<path d="M15.602 2C12.6221 2 10.204 4.35237 10.204 7.25134C10.204 10.1503 12.6221 12.5027 15.602 12.5027C18.5819 12.5027 21 10.1503 21 7.25134C21 4.35237 18.5819 2 15.602 2Z" fill="#141414"/>
<path d="M6.34114 13.0102C4.50502 13.0102 3 14.4646 3 16.2606C3 18.0566 4.49498 19.511 6.34114 19.511C8.17726 19.511 9.68227 18.0566 9.68227 16.2606C9.68227 14.4646 8.17726 13.0102 6.34114 13.0102Z" fill="#141414"/>
<path d="M16.6355 16.5144C15.0803 16.5144 13.8161 17.7443 13.8161 19.2572C13.8161 20.7701 15.0803 22 16.6355 22C18.1906 22 19.4548 20.7701 19.4548 19.2572C19.4548 17.7443 18.1906 16.5144 16.6355 16.5144Z" fill="#141414"/>
</svg>
