<svg width="24" height="24" viewBox="0 0 24 24" fill="none" xmlns="http://www.w3.org/2000/svg">
<path d="M2.41869 11.7384C1.97411 11.9166 1.85814 12.4938 2.19447 12.8309L4.31295 14.9539L7.14276 14.0086L6.19949 16.8445L11.1478 21.8034C11.488 22.1444 12.0601 22.0243 12.2379 21.5787L16.0303 12.1374L11.8398 7.93783L2.41869 11.7384Z" fill="#141414"/>
<path d="M15.9105 6.30285L19.9559 2.34008C20.5072 1.80431 21.4479 1.90332 21.8574 2.62485C22.1261 3.10484 21.9988 3.71281 21.6126 4.09461L17.6617 8.05787L19.2235 9.62302C19.3859 9.78574 19.3356 10.0646 19.1269 10.1615L16.8615 11.2153L12.7598 7.10483L13.8113 4.83458C13.908 4.62147 14.1863 4.57109 14.3487 4.73769L15.9105 6.30285Z" fill="#141414"/>
</svg>
