<svg width="24" height="24" viewBox="0 0 24 24" fill="none" xmlns="http://www.w3.org/2000/svg">
<path d="M17.0019 4H10.2844C8.87492 4 7.53542 4.57212 6.58578 5.5903L3.0571 9.35273C1.64763 10.8558 1.64763 13.1442 3.0571 14.6473L6.58578 18.4097C7.53542 19.4182 8.87492 20 10.2844 20H17.0019C19.7608 20 22 17.8279 22 15.1515V8.84848C22 6.17212 19.7608 4 17.0019 4ZM16.5321 13.8812C16.8219 14.1624 16.8219 14.6279 16.5321 14.9091C16.3821 15.0545 16.1922 15.1224 16.0022 15.1224C15.8123 15.1224 15.6224 15.0545 15.4724 14.9091L13.5332 13.0279L11.5939 14.9091C11.444 15.0545 11.254 15.1224 11.0641 15.1224C10.8742 15.1224 10.6842 15.0545 10.5343 14.9091C10.2444 14.6279 10.2444 14.1624 10.5343 13.8812L12.4736 12L10.5343 10.1188C10.2444 9.83758 10.2444 9.37212 10.5343 9.09091C10.8242 8.8097 11.304 8.8097 11.5939 9.09091L13.5332 10.9721L15.4724 9.09091C15.7623 8.8097 16.2422 8.8097 16.5321 9.09091C16.8219 9.37212 16.8219 9.83758 16.5321 10.1188L14.5928 12L16.5321 13.8812Z" fill="#141414"/>
</svg>
