<svg width="24" height="24" viewBox="0 0 24 24" fill="none" xmlns="http://www.w3.org/2000/svg">
<path fill-rule="evenodd" clip-rule="evenodd" d="M12.0133 13.5228L18.1589 19.6683C18.3638 19.8662 18.6382 19.9757 18.9231 19.9733C19.2079 19.9708 19.4804 19.8565 19.6818 19.6551C19.8832 19.4537 19.9975 19.1812 20 18.8964C20.0024 18.6115 19.8929 18.3371 19.695 18.1322L13.5495 11.9866L19.695 5.84108C19.8929 5.63619 20.0024 5.36177 20 5.07693C19.9975 4.79208 19.8832 4.51961 19.6818 4.31819C19.4804 4.11677 19.2079 4.00252 18.9231 4.00004C18.6382 3.99757 18.3638 4.10707 18.1589 4.30496L12.0133 10.4505L5.86778 4.30496C5.66196 4.11196 5.38914 4.0066 5.10703 4.01118C4.82492 4.01576 4.55565 4.12992 4.35622 4.3295C4.15678 4.52908 4.04281 4.79842 4.03843 5.08054C4.03405 5.36265 4.1396 5.6354 4.33274 5.84108L10.4772 11.9866L4.33165 18.1322C4.2279 18.2324 4.14513 18.3523 4.0882 18.4849C4.03126 18.6174 4.00129 18.7599 4.00004 18.9042C3.99879 19.0484 4.02627 19.1915 4.0809 19.325C4.13552 19.4585 4.21619 19.5798 4.31819 19.6818C4.42019 19.7838 4.54149 19.8645 4.675 19.9191C4.80851 19.9737 4.95156 20.0012 5.09581 20C5.24005 19.9987 5.38261 19.9687 5.51515 19.9118C5.64769 19.8549 5.76756 19.7721 5.86778 19.6683L12.0133 13.5228Z" fill="#141414"/>
</svg>
