<svg width="24" height="24" viewBox="0 0 24 24" fill="none" xmlns="http://www.w3.org/2000/svg">
<path d="M19.4348 5.85L13.5504 2.42C12.5894 1.86 11.4007 1.86 10.4298 2.42L4.55531 5.85C3.59439 6.41 3 7.45 3 8.58V15.42C3 16.54 3.59439 17.58 4.55531 18.15L10.4397 21.58C11.4007 22.14 12.5894 22.14 13.5603 21.58L19.4447 18.15C20.4056 17.59 21 16.55 21 15.42V8.58C20.9901 7.45 20.3957 6.42 19.4348 5.85ZM11.2521 7.75C11.2521 7.34 11.5889 7 11.995 7C12.4012 7 12.738 7.34 12.738 7.75V13C12.738 13.41 12.4012 13.75 11.995 13.75C11.5889 13.75 11.2521 13.41 11.2521 13V7.75ZM12.9064 16.63C12.8569 16.75 12.7876 16.86 12.6984 16.96C12.5102 17.15 12.2625 17.25 11.995 17.25C11.8663 17.25 11.7375 17.22 11.6186 17.17C11.4898 17.12 11.3908 17.05 11.2917 16.96C11.2025 16.86 11.1332 16.75 11.0737 16.63C11.0242 16.51 11.0044 16.38 11.0044 16.25C11.0044 15.99 11.1035 15.73 11.2917 15.54C11.3908 15.45 11.4898 15.38 11.6186 15.33C11.9851 15.17 12.421 15.26 12.6984 15.54C12.7876 15.64 12.8569 15.74 12.9064 15.87C12.956 15.99 12.9857 16.12 12.9857 16.25C12.9857 16.38 12.956 16.51 12.9064 16.63Z" fill="#141414"/>
</svg>
