<svg width="24" height="24" viewBox="0 0 24 24" fill="none" xmlns="http://www.w3.org/2000/svg">
<path d="M11.816 6.9C14.6771 6.28 17.5783 6.19 20.4494 6.66C18.6787 3.86 15.5575 2 11.9961 2C8.88489 2 6.1038 3.42 4.26309 5.65C4.70326 6.95 5.26348 8.19 5.93374 9.37C6.31389 10.05 7.28426 10.02 7.67442 9.35C8.52475 7.92 10.0553 6.96 11.816 6.9Z" fill="#141414"/>
<path d="M7.71443 14.72C5.71365 12.58 4.15304 10.14 3.08263 7.44C1.58204 10.4 1.59205 14.03 3.42276 17.08C5.02338 19.75 7.66441 21.41 10.5255 21.84C11.4159 20.79 12.1962 19.67 12.8664 18.5C13.2566 17.82 12.7264 17.01 11.9461 17.01C10.2754 17.02 8.6648 16.2 7.71443 14.72Z" fill="#141414"/>
<path d="M8.56476 12C8.56476 12.61 8.71482 13.18 9.02494 13.72C9.63518 14.77 10.7656 15.43 11.9861 15.43C13.2066 15.43 14.347 14.77 14.9473 13.72C15.2574 13.18 15.4174 12.61 15.4174 12C15.4174 10.11 13.8768 8.58 11.9861 8.58C10.1054 8.57 8.56476 10.11 8.56476 12Z" fill="#141414"/>
<path d="M21.3397 8.42C19.9692 8.13 18.5787 7.97 17.1981 7.95C16.4078 7.94 15.9576 8.8 16.3478 9.49C16.748 10.2 16.978 11.02 16.978 11.89C16.978 12.73 16.758 13.56 16.3478 14.3C15.4074 17.18 14.0069 19.74 12.1562 22C17.6083 21.91 22 17.47 22 12C22 10.74 21.7699 9.53 21.3397 8.42Z" fill="#141414"/>
</svg>
