<svg width="24" height="24" viewBox="0 0 24 24" fill="none" xmlns="http://www.w3.org/2000/svg">
<path d="M5.5443 5.22901C5.12911 5.22901 4.78481 4.89121 4.78481 4.48386V2.74516C4.78481 2.3378 5.12911 2 5.5443 2C5.95949 2 6.3038 2.3378 6.3038 2.74516V4.48386C6.3038 4.90114 5.95949 5.22901 5.5443 5.22901Z" fill="#141414"/>
<path d="M9.59494 5.22901C9.17975 5.22901 8.83544 4.89121 8.83544 4.48386V2.74516C8.83544 2.3378 9.17975 2 9.59494 2C10.0101 2 10.3544 2.3378 10.3544 2.74516V4.48386C10.3544 4.90114 10.0101 5.22901 9.59494 5.22901Z" fill="#141414"/>
<path d="M13.6456 5.22901C13.2304 5.22901 12.8861 4.89121 12.8861 4.48386V2.74516C12.8861 2.3378 13.2304 2 13.6456 2C14.0608 2 14.4051 2.3378 14.4051 2.74516V4.48386C14.4051 4.90114 14.0608 5.22901 13.6456 5.22901Z" fill="#141414"/>
<path d="M22 13.3065C22 10.7034 19.9443 8.59712 17.3519 8.37854C16.6025 7.17635 15.2658 6.36165 13.7266 6.36165H6.26329C3.91392 6.36165 2 8.23944 2 10.5445V11.071H17.9899V10.5445C17.9899 10.3557 17.9595 10.1669 17.9291 9.98808C19.3975 10.4153 20.481 11.7268 20.481 13.3065C20.481 14.8664 19.4278 16.1679 17.9899 16.6051V12.0646H2V17.8172C2 20.1222 3.91392 22 6.26329 22H13.7266C15.9544 22 17.7671 20.311 17.9494 18.1649C20.2582 17.7079 22 15.7009 22 13.3065Z" fill="#141414"/>
</svg>
