<svg width="24" height="24" viewBox="0 0 24 24" fill="none" xmlns="http://www.w3.org/2000/svg">
<path d="M16.1971 2H7.8129C4.17108 2 2 4.17 2 7.81V16.18C2 19.83 4.17108 22 7.8129 22H16.1871C19.8289 22 22 19.83 22 16.19V7.81C22.01 4.17 19.8389 2 16.1971 2ZM16.7874 9.7L11.1145 15.37C10.9745 15.51 10.7844 15.59 10.5843 15.59C10.3842 15.59 10.1941 15.51 10.054 15.37L7.2226 12.54C6.93246 12.25 6.93246 11.77 7.2226 11.48C7.51275 11.19 7.99299 11.19 8.28313 11.48L10.5843 13.78L15.7268 8.64C16.017 8.35 16.4972 8.35 16.7874 8.64C17.0775 8.93 17.0775 9.4 16.7874 9.7Z" fill="#141414"/>
</svg>
