<svg width="24" height="24" viewBox="0 0 24 24" fill="none" xmlns="http://www.w3.org/2000/svg">
<path d="M19.33 5.66098L13.06 2.27081C12.4 1.90973 11.6 1.90973 10.94 2.27081L4.67 5.66098C4.21 5.91174 3.93 6.39318 3.93 6.94484C3.93 7.48646 4.21 7.97793 4.67 8.22869L10.94 11.6189C11.27 11.7994 11.64 11.8897 12 11.8897C12.36 11.8897 12.73 11.7994 13.06 11.6189L19.33 8.22869C19.79 7.97793 20.07 7.49649 20.07 6.94484C20.07 6.39318 19.79 5.91174 19.33 5.66098Z" fill="#141414"/>
<path d="M9.91 12.7924L4.07 9.86359C3.62 9.64293 3.1 9.66299 2.68 9.92377C2.25 10.1946 2 10.6459 2 11.1474V16.674C2 17.6269 2.53 18.4895 3.38 18.9208L9.21 21.8495C9.41 21.9499 9.63 22 9.85 22C10.11 22 10.37 21.9298 10.6 21.7894C11.03 21.5286 11.28 21.0672 11.28 20.5657V15.0391C11.29 14.0762 10.76 13.2136 9.91 12.7924Z" fill="#141414"/>
<path d="M21.32 9.92377C20.89 9.66299 20.37 9.6329 19.93 9.86359L14.1 12.7924C13.25 13.2237 12.72 14.0762 12.72 15.0391V20.5657C12.72 21.0672 12.97 21.5286 13.4 21.7894C13.63 21.9298 13.89 22 14.15 22C14.37 22 14.59 21.9499 14.79 21.8495L20.62 18.9208C21.47 18.4895 22 17.6369 22 16.674V11.1474C22 10.6459 21.75 10.1946 21.32 9.92377Z" fill="#141414"/>
</svg>
