<svg width="24" height="24" viewBox="0 0 24 24" fill="none" xmlns="http://www.w3.org/2000/svg">
<path fill-rule="evenodd" clip-rule="evenodd" d="M21.6913 5.30884C21.889 5.50665 22 5.77491 22 6.05462C22 6.33432 21.889 6.60258 21.6913 6.80039L9.83882 18.66C9.73112 18.7678 9.60325 18.8533 9.4625 18.9116C9.32176 18.97 9.17091 19 9.01857 19C8.86622 19 8.71537 18.97 8.57463 18.9116C8.43389 18.8533 8.30602 18.7678 8.19832 18.66L2.30897 12.7676C2.21101 12.6696 2.13331 12.5533 2.0803 12.4252C2.02729 12.2972 2 12.1599 2 12.0213C2 11.8827 2.02729 11.7455 2.0803 11.6174C2.13331 11.4894 2.21101 11.373 2.30897 11.275C2.40693 11.177 2.52322 11.0993 2.6512 11.0462C2.77919 10.9932 2.91636 10.9659 3.05489 10.9659C3.19342 10.9659 3.3306 10.9932 3.45858 11.0462C3.58657 11.0993 3.70286 11.177 3.80081 11.275L9.01962 16.4965L20.1995 5.30884C20.3972 5.11109 20.6653 5 20.9449 5C21.2244 5 21.4936 5.11109 21.6913 5.30884Z" fill="#141414"/>
</svg>
