<svg width="24" height="24" viewBox="0 0 24 24" fill="none" xmlns="http://www.w3.org/2000/svg">
<path d="M16.6044 6C15.0844 6 13.2711 6.57778 13.2711 9.33333V14.6667C13.2711 17.4222 15.0844 18 16.6044 18C18.1244 18 19.9378 17.4222 19.9378 14.6667V9.33333C19.9378 6.57778 18.1244 6 16.6044 6Z" fill="#141414"/>
<path d="M7.39556 6C5.87556 6 4.06222 6.57778 4.06222 9.33333V14.6667C4.06222 17.4222 5.87556 18 7.39556 18C8.91556 18 10.7289 17.4222 10.7289 14.6667V9.33333C10.7289 6.57778 8.91556 6 7.39556 6Z" fill="#141414"/>
<path d="M13.2711 11.3333H10.7289V12.6667H13.2711V11.3333Z" fill="#141414"/>
<path d="M21.3333 14.8889C20.9689 14.8889 20.6667 14.5867 20.6667 14.2222V9.77778C20.6667 9.41333 20.9689 9.11111 21.3333 9.11111C21.6978 9.11111 22 9.41333 22 9.77778V14.2222C22 14.5867 21.6978 14.8889 21.3333 14.8889Z" fill="#141414"/>
<path d="M2.66667 14.8889C2.30222 14.8889 2 14.5867 2 14.2222V9.77778C2 9.41333 2.30222 9.11111 2.66667 9.11111C3.03111 9.11111 3.33333 9.41333 3.33333 9.77778V14.2222C3.33333 14.5867 3.03111 14.8889 2.66667 14.8889Z" fill="#141414"/>
</svg>
