<svg width="24" height="24" viewBox="0 0 24 24" fill="none" xmlns="http://www.w3.org/2000/svg">
<path d="M16.3843 2.42011L6.82123 5.59824C0.392925 7.74877 0.392925 11.2553 6.82123 13.3952L9.65942 14.3381L10.602 17.1772C12.7412 23.6076 16.2572 23.6076 18.3964 17.1772L21.5841 7.62164C23.0032 3.33117 20.6733 0.989957 16.3843 2.42011ZM16.7231 8.11955L12.6988 12.1664C12.54 12.3253 12.3388 12.3994 12.1375 12.3994C11.9363 12.3994 11.7351 12.3253 11.5763 12.1664C11.2691 11.8591 11.2691 11.3506 11.5763 11.0434L15.6006 6.99661C15.9077 6.68939 16.416 6.68939 16.7231 6.99661C17.0303 7.30383 17.0303 7.81233 16.7231 8.11955Z" fill="#141414"/>
</svg>
