<svg width="24" height="24" viewBox="0 0 24 24" fill="none" xmlns="http://www.w3.org/2000/svg">
<path d="M20.9828 3.01721C20.1125 2.14707 18.8821 1.80702 17.6917 2.10707L7.88874 4.55744C6.23823 4.96751 4.96784 6.2477 4.55772 7.88796L2.10696 17.6995C1.80687 18.8896 2.14697 20.1198 3.01724 20.99C3.67744 21.6401 4.54771 22.0001 5.44799 22.0001C5.72807 22.0001 6.01816 21.9701 6.29825 21.8901L16.1113 19.4397C17.7518 19.0297 19.0322 17.7595 19.4423 16.1092L21.893 6.29771C22.1931 5.10753 21.853 3.87734 20.9828 3.01721ZM12 15.8792C9.85934 15.8792 8.11881 14.1389 8.11881 11.9986C8.11881 9.85826 9.85934 8.11799 12 8.11799C14.1407 8.11799 15.8812 9.85826 15.8812 11.9986C15.8812 14.1389 14.1407 15.8792 12 15.8792Z" fill="#141414"/>
</svg>
