<svg width="24" height="24" viewBox="0 0 24 24" fill="none" xmlns="http://www.w3.org/2000/svg">
<path fill-rule="evenodd" clip-rule="evenodd" d="M15.9547 3H8.0453C7.5697 2.99998 7.14805 2.99996 6.793 3.03281C6.40786 3.06845 6.03217 3.14717 5.66036 3.34331C5.28855 3.53945 5.00946 3.80615 4.75978 4.1054C4.52961 4.38129 4.28785 4.73126 4.01511 5.12606L3.99213 5.15934L3.39537 6.02311L3.36457 6.06769C2.97971 6.62471 2.64285 7.11221 2.41186 7.54596C2.16227 8.01459 1.98428 8.51164 2.0011 9.09008C2.01792 9.66851 2.22449 10.1541 2.50087 10.607C2.75668 11.0263 3.12128 11.4928 3.53785 12.0259L8.86627 18.8455C9.21294 19.2892 9.50767 19.6664 9.77017 19.9545C10.0425 20.2535 10.3449 20.5315 10.73 20.714C11.5348 21.0953 12.4652 21.0953 13.27 20.714C13.6551 20.5315 13.9575 20.2535 14.2298 19.9545C14.4923 19.6664 14.787 19.2892 15.1337 18.8455L20.4621 12.0259C20.8786 11.4928 21.2433 11.0263 21.4991 10.607C21.7755 10.1541 21.982 9.66851 21.9989 9.09008C22.0157 8.51164 21.8377 8.01459 21.5881 7.54596C21.3572 7.11221 21.0203 6.62471 20.6354 6.06769L19.9848 5.12609C19.7121 4.73127 19.4704 4.38129 19.2402 4.1054C18.9905 3.80615 18.7114 3.53945 18.3396 3.34331C17.9678 3.14717 17.5921 3.06845 17.207 3.03281C16.852 2.99996 16.4304 2.99998 15.9547 3Z" fill="#141414"/>
</svg>
