<svg width="24" height="24" viewBox="0 0 24 24" fill="none" xmlns="http://www.w3.org/2000/svg">
<path d="M21.5599 10.7422L20.2095 9.15861C19.9595 8.85793 19.7494 8.29667 19.7494 7.89576V6.19193C19.7494 5.12954 18.8792 4.25758 17.8189 4.25758H16.1185C15.7184 4.25758 15.1483 4.04711 14.8482 3.79654L13.2678 2.4435C12.5776 1.85217 11.4473 1.85217 10.7572 2.4435L9.15678 3.79654C8.8567 4.04711 8.29656 4.25758 7.89646 4.25758H6.16603C5.10577 4.25758 4.23555 5.12954 4.23555 6.19193V7.89576C4.23555 8.28664 4.03551 8.84791 3.78544 9.14858L2.43511 10.7422C1.85496 11.4437 1.85496 12.5663 2.43511 13.2478L3.78544 14.8414C4.03551 15.132 4.23555 15.7033 4.23555 16.0942V17.8081C4.23555 18.8705 5.10577 19.7424 6.16603 19.7424H7.90647C8.29656 19.7424 8.86671 19.9529 9.16678 20.2035L10.7472 21.5565C11.4373 22.1478 12.5676 22.1478 13.2578 21.5565L14.8382 20.2035C15.1383 19.9529 15.6984 19.7424 16.0985 19.7424H17.7989C18.8592 19.7424 19.7294 18.8705 19.7294 17.8081V16.1042C19.7294 15.7033 19.9395 15.1421 20.1895 14.8414L21.5399 13.2578C22.15 12.5763 22.15 11.4437 21.5599 10.7422ZM11.2473 8.12628C11.2473 7.71536 11.5874 7.37459 11.9975 7.37459C12.4076 7.37459 12.7477 7.71536 12.7477 8.12628V12.9672C12.7477 13.3781 12.4076 13.7189 11.9975 13.7189C11.5874 13.7189 11.2473 13.3781 11.2473 12.9672V8.12628ZM11.9975 16.886C11.4473 16.886 10.9972 16.435 10.9972 15.8837C10.9972 15.3325 11.4373 14.8815 11.9975 14.8815C12.5476 14.8815 12.9977 15.3325 12.9977 15.8837C12.9977 16.435 12.5576 16.886 11.9975 16.886Z" fill="#141414"/>
</svg>
