<svg width="24" height="24" viewBox="0 0 24 24" fill="none" xmlns="http://www.w3.org/2000/svg">
<path d="M16.1971 2H7.8129C4.17108 2 2 4.17 2 7.81V16.18C2 19.83 4.17108 22 7.8129 22H16.1871C19.8289 22 22 19.83 22 16.19V7.81C22.01 4.17 19.8389 2 16.1971 2ZM8.50324 6.38C9.53375 6.38 10.3842 7.22 10.3842 8.26C10.3842 9.3 9.54376 10.14 8.50324 10.14C7.46272 10.14 6.6223 9.28 6.6223 8.25C6.6223 7.22 7.47273 6.38 8.50324 6.38ZM12.005 19.08C9.31364 19.08 7.12255 16.89 7.12255 14.2C7.12255 13.5 7.69284 12.92 8.39319 12.92H15.5968C16.2971 12.92 16.8674 13.49 16.8674 14.2C16.8874 16.89 14.6963 19.08 12.005 19.08ZM15.5067 10.12C14.4762 10.12 13.6258 9.28 13.6258 8.24C13.6258 7.2 14.4662 6.36 15.5067 6.36C16.5472 6.36 17.3877 7.2 17.3877 8.24C17.3877 9.28 16.5372 10.12 15.5067 10.12Z" fill="#141414"/>
</svg>
