<svg width="24" height="24" viewBox="0 0 24 24" fill="none" xmlns="http://www.w3.org/2000/svg">
<path d="M16.1971 2H7.8129C4.17108 2 2 4.17 2 7.81V16.18C2 19.83 4.17108 22 7.8129 22H16.1871C19.8289 22 22 19.83 22 16.19V7.81C22.01 4.17 19.8389 2 16.1971 2ZM6.47223 7.72C6.76237 7.43 7.24261 7.43 7.53276 7.72C8.24311 8.43 9.40369 8.43 10.114 7.72C10.4042 7.43 10.8844 7.43 11.1746 7.72C11.4647 8.01 11.4647 8.49 11.1746 8.78C10.5242 9.43 9.67382 9.75 8.8234 9.75C7.97298 9.75 7.12255 9.43 6.47223 8.78C6.18208 8.48 6.18208 8.01 6.47223 7.72ZM12.005 18.78C9.31364 18.78 7.12255 16.59 7.12255 13.9C7.12255 13.2 7.69284 12.62 8.39319 12.62H15.5968C16.2971 12.62 16.8674 13.19 16.8674 13.9C16.8874 16.59 14.6963 18.78 12.005 18.78ZM17.5377 8.78C16.8874 9.43 16.037 9.75 15.1866 9.75C14.3361 9.75 13.4857 9.43 12.8354 8.78C12.5453 8.49 12.5453 8.01 12.8354 7.72C13.1255 7.43 13.6058 7.43 13.8959 7.72C14.6063 8.43 15.7669 8.43 16.4772 7.72C16.7674 7.43 17.2476 7.43 17.5377 7.72C17.8279 8.01 17.8279 8.48 17.5377 8.78Z" fill="#141414"/>
</svg>
