<svg width="24" height="24" viewBox="0 0 24 24" fill="none" xmlns="http://www.w3.org/2000/svg">
<path d="M16.1971 2H7.8129C4.17108 2 2 4.17 2 7.81V16.18C2 19.83 4.17108 22 7.8129 22H16.1871C19.8289 22 22 19.83 22 16.19V7.81C22.01 4.17 19.8389 2 16.1971 2ZM6.47223 9.28C6.18208 8.99 6.18208 8.51 6.47223 8.22C7.76287 6.93 9.87392 6.93 11.1746 8.22C11.4647 8.51 11.4647 8.99 11.1746 9.28C11.0245 9.43 10.8344 9.5 10.6443 9.5C10.4542 9.5 10.2641 9.43 10.114 9.28C9.40369 8.57 8.24311 8.57 7.53276 9.28C7.24261 9.58 6.76237 9.58 6.47223 9.28ZM15.6068 18.08H8.40319C7.70284 18.08 7.13256 17.51 7.13256 16.8C7.13256 14.11 9.32365 11.92 12.015 11.92C14.7063 11.92 16.8974 14.11 16.8974 16.8C16.8874 17.5 16.3071 18.08 15.6068 18.08ZM17.5377 9.28C17.2476 9.57 16.7674 9.57 16.4772 9.28C15.7669 8.57 14.6063 8.57 13.8959 9.28C13.7459 9.43 13.5558 9.5 13.3657 9.5C13.1756 9.5 12.9855 9.43 12.8354 9.28C12.5453 8.99 12.5453 8.51 12.8354 8.22C14.126 6.93 16.2371 6.93 17.5377 8.22C17.8279 8.52 17.8279 8.99 17.5377 9.28Z" fill="#141414"/>
</svg>
