<svg width="24" height="24" viewBox="0 0 24 24" fill="none" xmlns="http://www.w3.org/2000/svg">
<path d="M19.0722 4.93323C15.1696 1.02226 8.83161 1.02226 4.92903 4.93323C0.956578 8.91423 1.02644 15.4059 5.12865 19.3068C8.92144 22.8977 15.0698 22.8977 18.8626 19.3068C22.9747 15.4059 23.0446 8.91423 19.0722 4.93323ZM16.3473 16.6262C15.1496 17.7664 13.5726 18.3366 11.9956 18.3366C10.4186 18.3366 8.8416 17.7664 7.64387 16.6262C7.34444 16.3361 7.33446 15.866 7.61393 15.5659C7.90338 15.2658 8.37249 15.2558 8.67192 15.5359C10.4984 17.2663 13.4828 17.2763 15.3193 15.5359C15.6187 15.2558 16.0978 15.2658 16.3773 15.5659C16.6667 15.866 16.6468 16.3361 16.3473 16.6262Z" fill="#141414"/>
</svg>
