<svg width="24" height="24" viewBox="0 0 24 24" fill="none" xmlns="http://www.w3.org/2000/svg">
<path d="M17.3328 10.1196C17.0066 10.0396 16.6606 9.99965 16.3048 9.99965C13.715 9.99965 11.6096 12.1296 11.6096 14.7494C11.6096 15.6394 11.8567 16.4794 12.2916 17.1993C12.6573 17.8193 13.1615 18.3493 13.7743 18.7293C14.5058 19.2192 15.3756 19.4992 16.3048 19.4992C18.0247 19.4992 19.5173 18.5693 20.3278 17.1993C20.7628 16.4794 21 15.6394 21 14.7494C21 12.4895 19.4382 10.5896 17.3328 10.1196ZM18.6474 14.1295L16.1367 16.4694C15.9984 16.5994 15.8105 16.6694 15.6326 16.6694C15.4448 16.6694 15.257 16.5994 15.1087 16.4494L13.9522 15.2794C13.6656 14.9894 13.6656 14.5095 13.9522 14.2195C14.2389 13.9295 14.7133 13.9295 15 14.2195L15.6524 14.8794L17.6392 13.0295C17.9456 12.7495 18.4102 12.7695 18.687 13.0695C18.9638 13.3795 18.944 13.8495 18.6474 14.1295Z" fill="#141414"/>
<path d="M19.9621 4.01991V6.23982C19.9621 7.04978 19.4679 8.05974 18.9736 8.56971L18.7957 8.72971C18.6573 8.8597 18.4498 8.8897 18.2718 8.8297C18.0741 8.75971 17.8764 8.70971 17.6787 8.65971C17.2438 8.54971 16.7792 8.49972 16.3048 8.49972C12.8946 8.49972 10.1269 11.2996 10.1269 14.7494C10.1269 15.8894 10.4333 17.0093 11.0165 17.9693C11.5107 18.8093 12.2026 19.5092 12.9539 19.9792C13.1812 20.1292 13.2702 20.4492 13.0725 20.6292C13.0033 20.6892 12.9341 20.7392 12.8649 20.7892L11.4811 21.6991C10.196 22.5091 8.42669 21.5991 8.42669 19.9792V14.6295C8.42669 13.9195 8.0313 13.0095 7.63591 12.5095L3.88962 8.46972C3.39539 7.95974 3 7.04978 3 6.44981V4.11991C3 2.90996 3.88962 2 4.96705 2H17.9951C19.0725 2 19.9621 2.90996 19.9621 4.01991Z" fill="#141414"/>
</svg>
