<svg width="24" height="24" viewBox="0 0 24 24" fill="none" xmlns="http://www.w3.org/2000/svg">
<path d="M16.5439 9.99965C13.8103 9.99965 11.5879 12.1296 11.5879 14.7494C11.5879 15.6394 11.8487 16.4794 12.3078 17.1993C13.1634 18.5793 14.7389 19.4992 16.5439 19.4992C18.349 19.4992 19.9245 18.5693 20.7801 17.1993C21.2392 16.4894 21.5 15.6394 21.5 14.7494C21.5 12.1296 19.288 9.99965 16.5439 9.99965ZM18.4012 15.4794H17.3265V16.5494C17.3265 16.9593 16.9717 17.2993 16.5439 17.2993C16.1161 17.2993 15.7614 16.9593 15.7614 16.5494V15.4794H14.6971C14.2694 15.4794 13.9146 15.1394 13.9146 14.7294C13.9146 14.3195 14.2694 13.9795 14.6971 13.9795H15.7614V12.9995C15.7614 12.5895 16.1161 12.2496 16.5439 12.2496C16.9717 12.2496 17.3265 12.5895 17.3265 12.9995V13.9795H18.4012C18.8289 13.9795 19.1837 14.3195 19.1837 14.7294C19.1837 15.1394 18.8289 15.4794 18.4012 15.4794Z" fill="#141414"/>
<path d="M20.4044 4.01991V6.23982C20.4044 7.04978 19.8828 8.05974 19.3611 8.56971L19.1733 8.72971C19.0272 8.8597 18.8081 8.8897 18.6203 8.8297C18.4116 8.75971 18.2029 8.70971 17.9942 8.65971C17.5351 8.54971 17.0448 8.49972 16.5439 8.49972C12.9443 8.49972 10.0228 11.2996 10.0228 14.7494C10.0228 15.8894 10.3462 17.0093 10.9618 17.9693C11.4835 18.8093 12.2139 19.5092 13.0069 19.9792C13.2468 20.1292 13.3407 20.4492 13.1321 20.6292C13.059 20.6892 12.986 20.7392 12.913 20.7892L11.4522 21.6991C10.0958 22.5091 8.22817 21.5991 8.22817 19.9792V14.6295C8.22817 13.9195 7.81082 13.0095 7.39346 12.5095L3.43904 8.46972C2.91735 7.95974 2.5 7.04978 2.5 6.44981V4.11991C2.5 2.90996 3.43904 2 4.57633 2H18.3281C19.4654 2 20.4044 2.90996 20.4044 4.01991Z" fill="#141414"/>
</svg>
