<svg width="24" height="24" viewBox="0 0 24 24" fill="none" xmlns="http://www.w3.org/2000/svg">
<path d="M17.3328 6.36981C17.0066 6.28981 16.6606 6.24981 16.3048 6.24981C13.715 6.24981 11.6096 8.37972 11.6096 10.9996C11.6096 11.8896 11.8567 12.7295 12.2916 13.4495C12.6573 14.0695 13.1615 14.5995 13.7743 14.9794C14.5058 15.4694 15.3756 15.7494 16.3048 15.7494C18.0247 15.7494 19.5173 14.8194 20.3278 13.4495C20.7628 12.7295 21 11.8896 21 10.9996C21 8.73971 19.4382 6.83979 17.3328 6.36981ZM18.2323 10.5696L15.8303 12.9995C15.7414 13.0895 15.5535 13.1795 15.425 13.1995L14.5058 13.3295C14.1697 13.3795 13.9423 13.1395 13.9918 12.8095L14.1203 11.8796C14.14 11.7496 14.229 11.5696 14.318 11.4696L16.7199 9.03969C17.1351 8.61971 17.6194 8.41972 18.2224 9.03969C18.8254 9.65967 18.6474 10.1496 18.2323 10.5696Z" fill="#141414"/>
<path d="M19.9621 4.01991V4.97987C19.9621 5.38985 19.4975 5.63984 19.1318 5.44985C18.6771 5.20986 18.1928 5.02987 17.6787 4.90987C17.2438 4.79988 16.7792 4.74988 16.3048 4.74988C12.8946 4.74988 10.1269 7.54976 10.1269 10.9996C10.1269 12.1396 10.4333 13.2595 11.0165 14.2195C11.5107 15.0594 12.2026 15.7594 12.9539 16.2294C13.1219 16.3394 13.2998 16.4394 13.4679 16.5394C13.6359 16.6294 13.7545 16.8094 13.7545 16.9993V19.0693C13.7545 19.6792 13.3591 20.4892 12.8649 20.7892L11.4811 21.6991C10.196 22.5091 8.42669 21.5991 8.42669 19.9792V14.6295C8.42669 13.9195 8.0313 13.0095 7.63591 12.5095L3.88962 8.46972C3.39539 7.95974 3 7.04978 3 6.44981V4.11991C3 2.90996 3.88962 2 4.96705 2H17.9951C19.0725 2 19.9621 2.90996 19.9621 4.01991Z" fill="#141414"/>
</svg>
