<svg width="24" height="24" viewBox="0 0 24 24" fill="none" xmlns="http://www.w3.org/2000/svg">
<path d="M21.2136 18.2393L20.2524 17.2993C20.7534 16.5594 21.05 15.6694 21.05 14.7094C21.05 12.1096 18.8923 9.99965 16.2335 9.99965C13.5748 9.99965 11.4171 12.1096 11.4171 14.7094C11.4171 17.3093 13.5748 19.4192 16.2335 19.4192C17.2152 19.4192 18.1151 19.1293 18.8821 18.6393L19.8433 19.5792C20.0376 19.7692 20.2831 19.8592 20.5387 19.8592C20.7943 19.8592 21.0398 19.7692 21.2341 19.5792C21.592 19.2193 21.592 18.6193 21.2136 18.2393Z" fill="#141414"/>
<path d="M20.0479 4.01991V6.23982C20.0479 7.04978 19.5366 8.05974 19.0252 8.56971L18.8412 8.72971C18.698 8.8597 18.4833 8.8897 18.2992 8.8297C18.0947 8.75971 17.8902 8.70971 17.6856 8.65971C17.2357 8.54971 16.7551 8.49972 16.2642 8.49972C12.7362 8.49972 9.87296 11.2996 9.87296 14.7494C9.87296 15.8894 10.19 17.0093 10.7933 17.9693C11.3046 18.8093 12.0204 19.5092 12.7976 19.9792C13.0328 20.1292 13.1248 20.4492 12.9203 20.6292C12.8487 20.6892 12.7772 20.7392 12.7056 20.7892L11.2739 21.6991C9.94454 22.5091 8.11409 21.5991 8.11409 19.9792V14.6295C8.11409 13.9195 7.70504 13.0095 7.296 12.5095L3.42034 8.46972C2.90904 7.95974 2.5 7.04978 2.5 6.44981V4.11991C2.5 2.90996 3.42034 2 4.53498 2H18.0129C19.1275 2 20.0479 2.90996 20.0479 4.01991Z" fill="#141414"/>
</svg>
