<svg width="24" height="24" viewBox="0 0 24 24" fill="none" xmlns="http://www.w3.org/2000/svg">
<path d="M18.2721 12.33L17.0385 11.11C16.7453 10.86 16.5734 10.49 16.5633 10.08C16.543 9.63 16.725 9.18 17.0587 8.85L18.2721 7.65C19.3238 6.61 19.7181 5.61 19.3844 4.82C19.0609 4.04 18.0598 3.61 16.5835 3.61H6.01676V2.75C6.01676 2.34 5.67296 2 5.25838 2C4.8438 2 4.5 2.34 4.5 2.75V21.25C4.5 21.66 4.8438 22 5.25838 22C5.67296 22 6.01676 21.66 6.01676 21.25V16.37H16.5835C18.0396 16.37 19.0204 15.93 19.3541 15.14C19.6878 14.35 19.3035 13.36 18.2721 12.33Z" fill="#141414"/>
</svg>
