<svg width="24" height="24" viewBox="0 0 24 24" fill="none" xmlns="http://www.w3.org/2000/svg">
<path fill-rule="evenodd" clip-rule="evenodd" d="M12.9613 2.30507C12.9011 2.22334 12.8251 2.15474 12.7381 2.10337C12.651 2.05199 12.5547 2.01889 12.4547 2.00605C12.3547 1.9932 12.2532 2.00087 12.1563 2.0286C12.0593 2.05633 11.9689 2.10355 11.8903 2.16744C9.97387 3.72443 8.70974 5.95689 8.35132 8.41735C7.6945 7.93535 7.11878 7.34932 6.64632 6.68183C6.58215 6.59106 6.49899 6.51572 6.40276 6.4612C6.30653 6.40667 6.1996 6.37429 6.0896 6.36637C5.97959 6.35844 5.8692 6.37517 5.76631 6.41535C5.66342 6.45553 5.57055 6.51819 5.49433 6.59885C4.17365 7.99694 3.32707 9.7842 3.07724 11.7017C2.8274 13.6193 3.18727 15.5675 4.10472 17.2642C5.02217 18.9609 6.44956 20.3181 8.18013 21.139C9.91069 21.9599 11.8546 22.2019 13.7302 21.8301C15.6058 21.4583 17.3157 20.4919 18.6123 19.0709C19.9089 17.6499 20.7248 15.8481 20.9418 13.9264C21.1588 12.0048 20.7657 10.0632 19.8194 8.38277C18.873 6.70236 17.4227 5.37045 15.6783 4.57997C14.606 4.0523 13.6743 3.27221 12.9613 2.30507ZM15.7483 14.4122C15.7479 14.9612 15.6299 15.5035 15.4023 16.0018C15.1747 16.5 14.8431 16.9424 14.4301 17.2984C14.0172 17.6544 13.5329 17.9154 13.0106 18.0636C12.4883 18.2118 11.9405 18.2436 11.4049 18.1567C10.8693 18.0698 10.3587 17.8664 9.90834 17.5605C9.45796 17.2546 9.07853 16.8534 8.79622 16.3847C8.51392 15.9159 8.33545 15.3908 8.27315 14.8455C8.21084 14.3002 8.26617 13.7478 8.43532 13.2262C9.06332 13.6968 9.78532 14.0459 10.5683 14.2382C10.7806 12.8528 11.4609 11.5846 12.4933 10.6498C13.3943 10.7712 14.2211 11.2196 14.8198 11.9117C15.4186 12.6038 15.7485 13.4924 15.7483 14.4122Z" fill="#141414"/>
</svg>
