<svg width="24" height="24" viewBox="0 0 24 24" fill="none" xmlns="http://www.w3.org/2000/svg">
<path d="M21.765 2.231C21.465 1.931 20.975 1.931 20.675 2.231L2.225 20.691C1.925 20.991 1.925 21.481 2.225 21.781C2.375 21.921 2.565 22.001 2.765 22.001C2.965 22.001 3.155 21.921 3.305 21.771L21.765 3.311C22.075 3.011 22.075 2.531 21.765 2.231Z" fill="#141414"/>
<path d="M14.815 3.521V9.181L9.175 14.821V13.281H6.085C4.685 13.281 4.295 12.421 5.225 11.371L12.795 2.761C13.905 1.501 14.815 1.841 14.815 3.521Z" fill="#141414"/>
<path d="M18.765 12.631L11.195 21.241C10.085 22.501 9.175 22.161 9.175 20.481V17.821L16.275 10.721H17.905C19.305 10.721 19.695 11.581 18.765 12.631Z" fill="#141414"/>
</svg>
