<svg width="24" height="24" viewBox="0 0 24 24" fill="none" xmlns="http://www.w3.org/2000/svg">
<path d="M21 4.02051V6.24308C21 7.05128 20.4767 8.06154 19.9535 8.56667L15.4535 12.4056C14.8256 12.9108 14.407 13.921 14.407 14.7292V19.0733C14.407 19.6795 13.9884 20.4877 13.4651 20.7908L12 21.7C10.6395 22.5082 8.75581 21.599 8.75581 19.9826V14.6282C8.75581 13.921 8.33721 13.0118 7.9186 12.5067L7.42674 12.0116C7.10233 11.6783 7.03954 11.1731 7.30116 10.7791L12.6593 2.47482C12.8477 2.18185 13.1826 2 13.5488 2H18.907C20.0581 2 21 2.90923 21 4.02051Z" fill="#141414"/>
<path d="M10.2733 3.54569L6.55814 9.29405C6.20233 9.84969 5.38605 9.93051 4.91512 9.45569L3.94186 8.46564C3.4186 7.96051 3 7.05128 3 6.44513V4.12154C3 2.90923 3.94186 2 5.09302 2H9.38372C10.2 2 10.7023 2.86882 10.2733 3.54569Z" fill="#141414"/>
</svg>
