<svg width="24" height="24" viewBox="0 0 24 24" fill="none" xmlns="http://www.w3.org/2000/svg">
<path d="M12 2C6.49 2 2 6.49 2 12C2 17.51 6.49 22 12 22C17.51 22 22 17.51 22 12C22 6.49 17.51 2 12 2ZM18 15.43C17.76 15.98 17.4 16.42 17.19 16.4C16.98 16.38 16.86 16.04 16.93 15.64C17 15.24 17.29 14.71 17.59 14.47C17.88 14.22 18.2 14.11 18.28 14.23C18.37 14.34 18.24 14.89 18 15.44V15.43ZM18.38 8.54C18.07 8.66 17.26 8.28 16.58 7.68C15.91 7.08 15.31 6.62 15.25 6.66C15.19 6.7 15.54 7.33 16.03 8.08C16.52 8.82 17.28 9.42 17.72 9.4C18.17 9.38 18.44 9.7 18.32 10.11C18.21 10.52 17.78 11.16 17.37 11.53C16.96 11.9 16.63 12.65 16.63 13.2C16.63 13.75 16.17 14.94 15.61 15.84C15.05 16.74 14.16 17.57 13.62 17.69C13.09 17.8 12.35 17.21 11.98 16.38C11.61 15.54 11.38 14.64 11.46 14.38C11.55 14.11 11.44 13.47 11.22 12.96C11 12.44 10.69 11.74 10.53 11.41C10.37 11.07 9.68 10.82 8.99 10.85C8.3 10.88 7.44 10.56 7.07 10.14C6.7 9.72 6.44 9.02 6.48 8.59C6.53 8.15 7.02 7.43 7.57 6.98C8.12 6.53 8.85 5.98 9.19 5.75C9.52 5.52 10.1 5.26 10.48 5.16C10.85 5.07 11.25 5.16 11.35 5.37C11.45 5.58 11.76 5.73 12.02 5.7C12.29 5.67 12.93 5.73 13.46 5.83C13.99 5.93 14.55 5.88 14.72 5.71C14.89 5.54 14.94 5.38 14.83 5.34C14.73 5.3 14.23 5.16 13.73 5.03C13.23 4.9 12.56 4.65 12.25 4.48C11.94 4.31 11.18 4.31 10.56 4.48C10.1 4.61 9.55 4.63 9.15 4.56C10.0535 4.21364 11.0124 4.03406 11.98 4.03C13.4143 4.0304 14.822 4.41686 16.0554 5.14882C17.2888 5.88078 18.3025 6.93126 18.99 8.19C18.79 8.35 18.55 8.49 18.36 8.57L18.38 8.54Z" fill="#141414"/>
</svg>
