<svg width="24" height="24" viewBox="0 0 24 24" fill="none" xmlns="http://www.w3.org/2000/svg">
<path d="M10.5429 2.71325C8.8682 2.71325 7.26214 3.37332 6.07798 4.54825C4.89382 5.72317 4.22857 7.31672 4.22857 8.97831C4.22857 10.6399 4.89382 12.2335 6.07798 13.4084C7.26214 14.5833 8.8682 15.2434 10.5429 15.2434C12.2175 15.2434 13.8236 14.5833 15.0077 13.4084C16.1919 12.2335 16.8571 10.6399 16.8571 8.97831C16.8571 7.31672 16.1919 5.72317 15.0077 4.54825C13.8236 3.37332 12.2175 2.71325 10.5429 2.71325Z" fill="#141414"/>
<path d="M16.2063 3.35904C19.3343 6.46265 19.3343 11.5036 16.2063 14.6072C13.0783 17.7108 7.99771 17.7108 4.86971 14.6072L3.5 15.9663C5.44286 17.894 7.988 18.8578 10.5429 18.8578C11.0286 18.8578 11.5143 18.8096 12 18.7422V20.0723H9.08571V22H16.8571V20.0723H13.9429V18.2602C15.3113 17.7732 16.555 16.9933 17.5857 15.9759C21.4714 12.1205 21.4714 5.85542 17.5857 2L16.216 3.35904H16.2063Z" fill="#141414"/>
</svg>
