<svg width="24" height="24" viewBox="0 0 24 24" fill="none" xmlns="http://www.w3.org/2000/svg">
<path d="M12 2C6.49 2 2 6.49 2 12C2 17.51 6.49 22 12 22C17.51 22 22 17.51 22 12C22 6.49 17.51 2 12 2ZM10.74 6.09C11.04 6.02 11.78 6.18 12.39 6.44C13 6.71 13.76 7.26 14.07 7.67C14.39 8.08 14.38 8.35 14.07 8.28C13.75 8.2 13.28 8.14 13.03 8.15C12.78 8.15 12.36 7.94 12.1 7.67C11.84 7.4 11.3 6.96 10.91 6.7C10.52 6.44 10.44 6.16 10.74 6.09ZM4.93 8.56H4.79C5.38 7.32 6.28 6.26 7.4 5.47C7.33 5.81 7.24 6.13 7.14 6.3C6.99 6.56 6.9 6.94 6.92 7.14C6.95 7.34 7.3 7.64 7.7 7.8C8.1 7.96 8.32 8.21 8.18 8.35C8.05 8.49 7.49 8.59 6.94 8.56C6.39 8.54 5.49 8.54 4.92 8.56H4.93ZM13.54 16.44C13.41 16.46 13.19 16.23 13.05 15.94L13.02 15.84L12.99 15.74C13.41 15.76 13.76 15.92 13.77 16.09C13.77 16.27 13.68 16.42 13.55 16.44H13.54ZM14.67 13.83C14.39 14.51 13.85 15.07 13.48 15.06C13.11 15.06 12.53 14.9 12.2 14.71C11.87 14.53 11.52 14.26 11.42 14.11C11.32 13.96 10.91 13.74 10.51 13.63C10.11 13.52 9.5 13.61 9.18 13.84C8.86 14.07 8.37 14.32 8.09 14.39C7.81 14.47 7.42 14.22 7.21 13.85C7 13.48 6.78 12.78 6.71 12.3C6.64 11.82 6.92 11.24 7.33 11.03C7.74 10.82 8.33 10.32 8.66 9.94C8.98 9.56 9.43 9.08 9.66 8.87C9.89 8.66 10.4 8.54 10.79 8.61C11.18 8.68 11.47 8.95 11.45 9.21C11.42 9.48 11.59 9.77 11.83 9.87C12.07 9.97 12.42 9.72 12.61 9.32C12.8 8.92 13.1 8.94 13.27 9.35C13.44 9.76 13.95 10.67 14.39 11.35C14.84 12.03 14.97 13.15 14.68 13.84L14.67 13.83ZM18.36 16.11C18.13 16.45 17.62 16.91 17.22 17.13C16.82 17.35 16.38 17.47 16.24 17.41C16.1 17.34 16.18 17.05 16.43 16.77C16.68 16.48 17.14 16.12 17.45 15.96C17.76 15.8 18.06 15.47 18.11 15.22C18.16 14.97 18.33 14.93 18.49 15.13C18.65 15.33 18.6 15.77 18.37 16.11H18.36Z" fill="#141414"/>
</svg>
