<svg width="24" height="24" viewBox="0 0 24 24" fill="none" xmlns="http://www.w3.org/2000/svg">
<path d="M12 2C6.49 2 2 6.49 2 12C2 17.51 6.49 22 12 22C17.51 22 22 17.51 22 12C22 6.49 17.51 2 12 2ZM14.86 5.3C14.99 5.12 15.16 5 15.24 5.03C15.32 5.06 15.37 5.22 15.34 5.39C15.31 5.56 15.32 5.88 15.34 6.11C15.37 6.33 15.48 6.61 15.58 6.73C15.68 6.85 15.72 6.98 15.66 7.03C15.6 7.08 15.34 7.08 15.08 7.03C14.82 6.98 14.61 6.65 14.61 6.28C14.61 5.91 14.72 5.46 14.85 5.29L14.86 5.3ZM11 4.07C10.76 4.4 10.48 4.76 10.27 4.97C9.99 5.26 9.54 5.67 9.28 5.88C9.02 6.09 8.64 6.4 8.44 6.57C8.25 6.74 7.77 6.83 7.39 6.79C7.05 6.75 6.46 6.71 6.01 6.7C7.29347 5.24503 9.06469 4.30962 10.99 4.07H11ZM8.09 11.9C8.21 12 8.29 12.19 8.26 12.33C8.23 12.47 8.11 12.63 8.01 12.69C7.91 12.75 7.66 12.78 7.46 12.74C7.26 12.7 7.03 12.68 6.94 12.69C6.85 12.69 6.76 12.66 6.75 12.61C6.74 12.56 6.91 12.35 7.13 12.16C7.35 11.96 7.48 11.64 7.43 11.45C7.37 11.25 7.33 10.92 7.33 10.72C7.33 10.52 7.44 10.3 7.57 10.25C7.7 10.2 7.89 10.15 7.99 10.15C8.09 10.15 8.21 10.2 8.27 10.26C8.32 10.32 8.31 10.45 8.24 10.56C8.17 10.66 8.06 10.97 7.99 11.24C7.92 11.51 7.97 11.81 8.09 11.91V11.9ZM6.69 11.96C6.43 12.15 6.2 12.24 6.17 12.16C6.14 12.08 6.17 11.88 6.22 11.72C6.28 11.56 6.45 11.4 6.59 11.36C6.73 11.32 6.91 11.3 6.97 11.3C7.03 11.3 7.1 11.37 7.12 11.45C7.14 11.54 6.94 11.76 6.69 11.95V11.96ZM12 20C9.82 20 7.84 19.12 6.4 17.7C7.12 17.88 8.06 17.96 8.67 17.86C9.37 17.75 10.04 18.06 10.17 18.56C10.3 19.06 10.74 19.51 11.14 19.57C11.55 19.63 12.1 19.57 12.37 19.43C12.64 19.29 13.14 19.21 13.47 19.25C13.8 19.29 14.47 19.31 14.95 19.3C15.09 19.3 15.22 19.28 15.35 19.25C14.33 19.72 13.19 20 12 20ZM19.48 14.82C19.33 14.57 19.18 14.31 19.1 14.14C18.96 13.86 18.72 13.66 18.56 13.71C18.4 13.76 18.34 14.14 18.44 14.55C18.54 14.96 18.68 15.42 18.75 15.57C18.79 15.65 18.86 15.78 18.95 15.95C18.2477 17.1843 17.2295 18.2094 16 18.92C16 18.91 16.02 18.9 16.03 18.89C16.14 18.67 16.19 18.36 16.13 18.2C16.07 18.04 15.66 17.99 15.22 18.08C14.78 18.17 14.39 17.94 14.37 17.56C14.35 17.18 14.79 16.69 15.37 16.46L15.83 16.37L15.99 16.34C16.51 16.28 16.89 16.06 16.83 15.86C16.77 15.66 16.6 15.47 16.44 15.45C16.28 15.43 15.92 15.46 15.64 15.53C15.36 15.6 15 15.53 14.85 15.39C14.7 15.25 14.43 15.49 14.25 15.95C14.07 16.41 13.75 17.15 13.54 17.59C13.33 18.04 12.98 18.24 12.78 18.04C12.57 17.84 12.34 17.42 12.26 17.09C12.18 16.77 11.9 16.43 11.63 16.33C11.36 16.23 11.27 16.31 11.44 16.51C11.6 16.71 11.64 17.08 11.53 17.34C11.42 17.6 11.07 17.45 10.77 17.02C10.47 16.59 10.09 16.14 9.94 16.04C9.79 15.93 9.41 15.93 9.09 16.04C8.77 16.15 8.34 16.37 8.13 16.54C7.92 16.71 7.55 16.83 7.31 16.81C7.07 16.79 6.75 16.7 6.61 16.62C6.47 16.53 6.28 16.33 6.19 16.17C6.1 16.01 6.08 15.66 6.13 15.41C6.18 15.15 6.49 14.95 6.8 14.95C7.12 14.95 7.47 14.93 7.58 14.88C7.69 14.83 7.78 14.6 7.78 14.35C7.78 14.1 8.05 13.93 8.38 13.97C8.71 14.01 9.01 13.69 9.04 13.26C9.07 12.83 9.28 12.39 9.51 12.27C9.73 12.15 10.1 11.95 10.33 11.81C10.56 11.68 10.57 11.52 10.36 11.45C10.15 11.39 10.05 11.07 10.14 10.74C10.23 10.41 10.61 9.8 10.98 9.38C11.35 8.96 11.92 8.45 12.25 8.24C12.58 8.03 13.13 7.95 13.48 8.05C13.83 8.15 13.99 8.44 13.84 8.7C13.69 8.96 13.73 9.29 13.92 9.44C14.12 9.59 14.41 9.49 14.58 9.22C14.75 8.95 14.99 8.66 15.12 8.59C15.25 8.52 15.55 8.12 15.79 7.71C16.03 7.3 16.23 6.66 16.23 6.3C16.23 5.94 16.28 5.48 16.34 5.29C18.53 6.72 19.99 9.19 19.99 11.99C19.99 12.98 19.8 13.93 19.47 14.81L19.48 14.82Z" fill="#141414"/>
</svg>
