<svg width="24" height="24" viewBox="0 0 24 24" fill="none" xmlns="http://www.w3.org/2000/svg">
<path d="M12 2C6.49 2 2 6.49 2 12C2 17.51 6.49 22 12 22C17.51 22 22 17.51 22 12C22 6.49 17.51 2 12 2ZM15.66 15.88C15.6 16.49 15.24 17.44 14.86 18C14.48 18.55 13.5 19.08 12.68 19.17C11.87 19.26 11.18 18.98 11.15 18.55C11.12 18.12 10.88 17.39 10.61 16.92C10.34 16.45 9.94 16.48 9.73 17C9.52 17.51 8.69 17.62 7.89 17.23C7.09 16.85 6.6 15.97 6.79 15.27C6.98 14.58 6.9 13.89 6.61 13.74C6.32 13.59 5.93 13.17 5.75 12.8C5.57 12.43 5.71 12.31 6.06 12.52C6.41 12.73 6.97 13.03 7.3 12.99C7.33 12.99 7.41 12.95 7.41 12.95C8.27 12.61 8.96 11.99 9.52 11.25C9.74 10.96 9.98 10.75 10.2 10.71C10.64 10.62 11.9 10.77 13 11.05C14.1 11.33 15.05 11.98 15.12 12.49C15.19 13 15.37 13.73 15.51 14.1C15.65 14.47 15.72 15.28 15.67 15.89L15.66 15.88ZM16.36 6.74C15.83 6.7 15.01 6.46 14.52 6.22C14.07 5.99 13.43 5.05 13.05 4.08C14.85 4.32 16.47 5.15 17.69 6.39C17.34 6.62 16.8 6.77 16.36 6.74Z" fill="#141414"/>
</svg>
