<svg width="24" height="24" viewBox="0 0 24 24" fill="none" xmlns="http://www.w3.org/2000/svg">
<path d="M12 2C6.49 2 2 6.49 2 12C2 17.51 6.49 22 12 22C17.51 22 22 17.51 22 12C22 6.49 17.51 2 12 2ZM17.71 15.53C17.43 16.18 16.5 17.28 15.65 17.98L14.69 18.78C14.06 19.3 13.45 19.74 13.13 19.91C13.05 19.92 12.96 19.94 12.88 19.95C12.8 19.79 12.88 19.12 13.07 18.35C13.29 17.49 13.25 16.58 12.98 16.35C12.71 16.12 12.35 15.62 12.17 15.25C11.99 14.88 11.95 14.23 12.08 13.8C12.21 13.37 12.17 12.94 11.98 12.83C11.79 12.72 11.45 12.5 11.22 12.32C10.99 12.14 10.46 11.88 10.03 11.73C9.6 11.58 8.97 11.16 8.61 10.79C8.25 10.42 7.8 9.63 7.59 9.03C7.38 8.43 7.39 7.36 7.61 6.65C7.79 6.07 7.83 5.52 7.74 5.25C8.41 4.83 9.15 4.5 9.93 4.29C10.24 4.31 10.64 4.27 11.04 4.13C11.12 4.1 11.19 4.07 11.26 4.05C11.5 4.03 11.75 4.01 12 4.01C12.97 4.01 13.89 4.19 14.75 4.51V4.57C14.75 4.87 14.71 5.2 14.65 5.3C14.58 5.39 14.29 5.3 13.99 5.09C13.7 4.88 13.38 4.85 13.28 5.02C13.19 5.19 13.24 5.46 13.4 5.62C13.56 5.78 13.96 6.11 14.28 6.35C14.6 6.59 14.6 6.91 14.26 7.06C13.92 7.21 13.4 7.65 13.09 8.04C12.78 8.43 12.46 8.99 12.38 9.28C12.3 9.57 12.18 9.89 12.12 9.99C12.06 10.09 11.92 10.05 11.83 9.9C11.74 9.76 11.45 9.58 11.2 9.5C10.94 9.42 10.47 9.5 10.15 9.66C9.83 9.82 9.69 10.24 9.84 10.59C9.99 10.94 10.3 11.04 10.53 10.81C10.76 10.58 11.03 10.61 11.14 10.87C11.25 11.13 11.59 11.6 11.9 11.91C12.21 12.22 12.61 12.37 12.79 12.24C12.97 12.11 13.57 12.12 14.12 12.26C14.67 12.4 15.41 12.69 15.76 12.92C16.11 13.15 16.81 13.57 17.31 13.85C17.81 14.13 17.99 14.9 17.71 15.54V15.53Z" fill="#141414"/>
</svg>
