<svg width="24" height="24" viewBox="0 0 24 24" fill="none" xmlns="http://www.w3.org/2000/svg">
<path d="M11.98 2C6.49102 2 2 6.57886 2 12.1775V20.0655C2 21.3252 2.7485 21.6651 3.66667 20.8253L4.66467 19.9155C5.03393 19.5756 5.63273 19.5756 6.002 19.9155L7.998 21.7451C8.36727 22.085 8.96607 22.085 9.33533 21.7451L11.3313 19.9155C11.7006 19.5756 12.2994 19.5756 12.6687 19.9155L14.6647 21.7451C15.0339 22.085 15.6327 22.085 16.002 21.7451L17.998 19.9155C18.3673 19.5756 18.9661 19.5756 19.3353 19.9155L20.3333 20.8253C21.2515 21.6651 22 21.3252 22 20.0655V12.1775C21.9601 6.57886 17.4691 2 11.98 2ZM11.98 6.61884C13.2874 6.61884 14.3553 7.68858 14.3553 8.99825C14.3553 10.3079 13.2874 11.3777 11.98 11.3777C10.6727 11.3777 9.60479 10.3079 9.60479 8.99825C9.60479 7.68858 10.6727 6.61884 11.98 6.61884ZM16.4212 14.5969C15.1138 15.5766 13.5469 16.0665 11.98 16.0665C10.4132 16.0665 8.84631 15.5766 7.53892 14.5969C7.20958 14.3469 7.13972 13.877 7.38922 13.5471C7.63872 13.2172 8.10778 13.1472 8.43713 13.3972C10.523 14.9668 13.4371 14.9668 15.523 13.3972C15.8523 13.1472 16.3214 13.2172 16.5709 13.5471C16.8204 13.877 16.7505 14.3469 16.4212 14.5969Z" fill="#141414"/>
</svg>
