<svg width="24" height="24" viewBox="0 0 24 24" fill="none" xmlns="http://www.w3.org/2000/svg">
<path d="M12 2C6.49 2 2 6.49 2 12C2 17.51 6.49 22 12 22C17.51 22 22 17.51 22 12C22 6.49 17.51 2 12 2ZM13.82 17.83C13.69 17.8 13.49 17.75 13.37 17.72C13.25 17.69 13.04 17.54 12.9 17.4L12.4 16.9C12.26 16.76 12.11 16.54 12.06 16.4C12.01 16.26 12.07 16.15 12.19 16.15C12.31 16.15 12.56 16.26 12.76 16.39C12.95 16.52 13.27 16.76 13.48 16.93C13.68 17.09 13.92 17.23 14.01 17.24C14.1 17.24 14.15 17.39 14.11 17.57C14.08 17.74 13.95 17.86 13.82 17.84V17.83ZM16.23 16.79C16.05 17.08 15.67 17.31 15.39 17.3C15.11 17.29 14.83 17.14 14.77 16.96C14.7 16.79 14.82 16.54 15.03 16.4C15.24 16.26 15.57 15.97 15.78 15.75C15.99 15.53 16.27 15.37 16.4 15.39C16.54 15.41 16.63 15.61 16.61 15.84C16.59 16.07 16.42 16.49 16.23 16.78V16.79ZM16.83 9.52C16.72 9.59 16.54 9.45 16.43 9.19C16.32 8.93 16.17 9.01 16.11 9.37C16.05 9.72 16.08 10.18 16.18 10.39C16.28 10.6 16.28 11.02 16.19 11.34C16.1 11.66 15.73 12.13 15.37 12.4C15.01 12.67 14.55 12.91 14.36 12.95C14.16 12.99 14 13.12 13.99 13.26C13.99 13.39 14.09 13.59 14.23 13.71C14.36 13.83 14.49 14.11 14.52 14.34C14.54 14.57 14.38 14.87 14.17 15.01C13.95 15.15 13.63 15.23 13.45 15.18C13.27 15.13 13.21 15.3 13.32 15.56C13.43 15.82 13.39 16.01 13.24 15.99C13.09 15.97 12.86 15.86 12.73 15.73C12.6 15.61 12.44 15.22 12.38 14.86C12.32 14.51 12.13 14.17 11.97 14.12C11.81 14.07 11.63 13.87 11.58 13.67C11.53 13.48 11.38 13.22 11.25 13.1C11.12 12.98 10.79 12.91 10.51 12.95C10.23 12.99 9.77 13.25 9.5 13.52C9.22 13.79 8.94 14.24 8.88 14.52C8.81 14.79 8.59 15.13 8.38 15.27C8.17 15.41 7.78 14.73 7.5 13.77C7.22 12.81 6.78 11.79 6.5 11.52C6.22 11.24 5.33 11.04 4.5 11.07C4.33 11.07 4.2 11.04 4.08 10.98C4.59 7.06 7.95 4.02 12 4.02C14.3 4.02 16.36 5 17.82 6.55C17.8 6.63 17.77 6.71 17.72 6.79C17.32 7.46 17 8.32 17.01 8.7C17.02 9.08 16.93 9.45 16.83 9.52ZM18.18 9.83C18 10.18 17.69 10.7 17.5 10.99C17.31 11.28 17.15 11.29 17.15 11.02C17.15 10.75 17.34 10.06 17.56 9.51C17.79 8.95 18.03 8.5 18.11 8.51C18.18 8.51 18.3 8.68 18.38 8.86C18.46 9.04 18.36 9.49 18.18 9.83Z" fill="#141414"/>
</svg>
