<svg width="24" height="24" viewBox="0 0 24 24" fill="none" xmlns="http://www.w3.org/2000/svg">
<path d="M20.8603 8.30406L13.9314 2.65856C12.8616 1.78219 11.1318 1.78219 10.072 2.64837L3.14302 8.30406C2.36314 8.93587 1.86322 10.2708 2.03319 11.2695L3.36299 19.3811C3.60295 20.8281 4.96275 22 6.40253 22H17.6008C19.0306 22 20.4004 20.8179 20.6404 19.3811L21.9702 11.2695C22.1302 10.2708 21.6302 8.93587 20.8603 8.30406ZM12.7116 17.3022C12.5116 17.506 12.2616 17.6079 12.0017 17.6079C11.7417 17.6079 11.4918 17.506 11.2918 17.3124C10.9019 16.915 10.9019 16.273 11.2918 15.8756C11.6817 15.4781 12.3216 15.4781 12.7116 15.8756C13.1015 16.2628 13.1015 16.9048 12.7116 17.3022ZM14.6613 14.9584C14.5113 15.1113 14.3213 15.1928 14.1214 15.1928C13.9314 15.1928 13.7514 15.1215 13.6014 14.9788C12.6316 14.0311 11.3718 14.0311 10.3919 14.9788C10.092 15.2743 9.62204 15.2641 9.33209 14.9584C9.04213 14.6527 9.05213 14.1737 9.35209 13.8782C10.9019 12.3599 13.0715 12.3599 14.6313 13.8782C14.9412 14.1636 14.9512 14.6527 14.6613 14.9584ZM16.781 12.798C16.631 12.9509 16.441 13.0324 16.241 13.0324C16.0511 13.0324 15.8611 12.9611 15.7211 12.8184C15.2512 12.3497 14.7213 11.9726 14.1614 11.6975C12.7616 11.0147 11.2318 11.0147 9.84201 11.6975C9.2821 11.9726 8.76217 12.3497 8.28225 12.8184C7.99229 13.1139 7.51236 13.1139 7.22241 12.8082C6.93245 12.5025 6.94245 12.0236 7.23241 11.728C7.82232 11.137 8.48222 10.6682 9.19211 10.3218C11.0018 9.4352 13.0015 9.4352 14.8013 10.3218C15.5112 10.6682 16.1711 11.137 16.761 11.728C17.0609 12.0134 17.0709 12.5025 16.781 12.798Z" fill="#141414"/>
</svg>
