<svg width="24" height="24" viewBox="0 0 24 24" fill="none" xmlns="http://www.w3.org/2000/svg">
<path d="M12.4801 5.62035C12.5584 5.62035 12.6367 5.62035 12.7248 5.63014V2.73386C12.7248 2.33268 12.3921 2 11.9909 2C11.5897 2 11.257 2.33268 11.257 2.73386V5.63014C11.3353 5.62035 11.4136 5.62035 11.5017 5.62035C6.9909 5.8454 3.3999 9.5636 3.3999 14.1331V16.0313C3.3999 17.1076 4.28053 17.9883 5.35685 17.9883H18.625C19.7013 17.9883 20.5819 17.1076 20.5819 16.0313V14.1331C20.5819 9.5636 16.9909 5.8454 12.4801 5.62035Z" fill="#141414"/>
<path d="M14.6621 18.9569C14.985 18.9569 15.2199 19.2603 15.1416 19.5734C14.7698 20.9726 13.4978 22 11.9909 22C10.4841 22 9.21204 20.9726 8.84022 19.5734C8.76194 19.2603 8.99677 18.9569 9.31967 18.9569H14.6621Z" fill="#141414"/>
</svg>
