<svg width="24" height="24" viewBox="0 0 24 24" fill="none" xmlns="http://www.w3.org/2000/svg">
<path d="M20.8603 8.30406L13.9314 2.65856C12.8616 1.78219 11.1318 1.78219 10.072 2.64837L3.14302 8.30406C2.36314 8.93587 1.86322 10.2708 2.03319 11.2695L3.36299 19.3811C3.60295 20.8281 4.96275 22 6.40253 22H17.6008C19.0306 22 20.4004 20.8179 20.6404 19.3811L21.9702 11.2695C22.1302 10.2708 21.6302 8.93587 20.8603 8.30406ZM12.0017 15.5698C10.6219 15.5698 9.50206 14.4285 9.50206 13.0222C9.50206 11.616 10.6219 10.4746 12.0017 10.4746C13.3815 10.4746 14.5013 11.616 14.5013 13.0222C14.5013 14.4285 13.3815 15.5698 12.0017 15.5698Z" fill="#141414"/>
</svg>
