<svg width="24" height="24" viewBox="0 0 24 24" fill="none" xmlns="http://www.w3.org/2000/svg">
<path d="M16.1971 2H7.8129C4.17108 2 2 4.17 2 7.81V16.18C2 19.83 4.17108 22 7.8129 22H16.1871C19.8289 22 22 19.83 22 16.19V7.81C22.01 4.17 19.8389 2 16.1971 2ZM17.0075 17.25H7.00249C6.59229 17.25 6.25212 16.91 6.25212 16.5C6.25212 16.09 6.59229 15.75 7.00249 15.75H17.0075C17.4177 15.75 17.7579 16.09 17.7579 16.5C17.7579 16.91 17.4177 17.25 17.0075 17.25ZM17.0075 12.75H7.00249C6.59229 12.75 6.25212 12.41 6.25212 12C6.25212 11.59 6.59229 11.25 7.00249 11.25H17.0075C17.4177 11.25 17.7579 11.59 17.7579 12C17.7579 12.41 17.4177 12.75 17.0075 12.75ZM17.0075 8.25H7.00249C6.59229 8.25 6.25212 7.91 6.25212 7.5C6.25212 7.09 6.59229 6.75 7.00249 6.75H17.0075C17.4177 6.75 17.7579 7.09 17.7579 7.5C17.7579 7.91 17.4177 8.25 17.0075 8.25Z" fill="#141414"/>
</svg>
