<svg width="24" height="24" viewBox="0 0 24 24" fill="none" xmlns="http://www.w3.org/2000/svg">
<path d="M21.777 19.2037C21.6232 19.3584 21.4284 19.4307 21.2336 19.4307C21.0388 19.4307 20.844 19.3584 20.6902 19.2037L15.6153 14.096L16.702 13.0022L21.777 18.1099C22.0743 18.4091 22.0743 18.9044 21.777 19.2037Z" fill="#141414"/>
<path d="M7.35179 9.13272L13.2982 15.1175C13.6981 15.5199 13.6981 16.17 13.2982 16.5724L12.3755 17.5114C11.545 18.3369 10.2327 18.3369 9.41253 17.5114L4.96296 13.0331C4.15302 12.218 4.15302 10.8869 4.96296 10.0614L5.89594 9.1224C6.29578 8.7303 6.95194 8.7303 7.35179 9.13272Z" fill="#141414"/>
<path d="M19.7778 10.0717L15.8716 13.9928C15.4615 14.4055 14.8053 14.4055 14.3952 13.9928L8.46931 8.02863C8.05921 7.61589 8.05921 6.9555 8.46931 6.54276L12.3755 2.61138C13.1854 1.79621 14.508 1.79621 15.3282 2.61138L19.7778 7.08964C20.5877 7.91513 20.5877 9.23591 19.7778 10.0717Z" fill="#141414"/>
<path d="M8.92041 22H2.76893C2.34858 22 2 21.6492 2 21.2261C2 20.803 2.34858 20.4522 2.76893 20.4522H8.92041C9.34077 20.4522 9.68935 20.803 9.68935 21.2261C9.68935 21.6492 9.34077 22 8.92041 22Z" fill="#141414"/>
</svg>
