<svg width="24" height="24" viewBox="0 0 24 24" fill="none" xmlns="http://www.w3.org/2000/svg">
<path d="M17.0393 22H6.96734C6.55439 22 6.21194 21.6561 6.21194 21.2414C6.21194 20.8267 6.55439 20.4827 6.96734 20.4827H17.0393C17.4522 20.4827 17.7947 20.8267 17.7947 21.2414C17.7947 21.6561 17.4522 22 17.0393 22Z" fill="#141414"/>
<path d="M20.4134 5.33038L16.3846 8.22329C15.8508 8.60766 15.0853 8.37502 14.8537 7.758L12.9501 2.66001C12.6278 1.78 11.3889 1.78 11.0666 2.66001L9.15295 7.74788C8.92129 8.37502 8.1659 8.60766 7.63208 8.21318L3.60331 5.32027C2.79756 4.75383 1.72993 5.55291 2.0623 6.49362L6.25223 18.2777C6.39324 18.6823 6.77597 18.9453 7.19899 18.9453H16.7975C17.2206 18.9453 17.6033 18.6721 17.7443 18.2777L21.9342 6.49362C22.2767 5.55291 21.2091 4.75382 20.4134 5.33038ZM14.5213 14.6666H9.48532C9.07237 14.6666 8.72992 14.3227 8.72992 13.908C8.72992 13.4932 9.07237 13.1493 9.48532 13.1493H14.5213C14.9342 13.1493 15.2767 13.4932 15.2767 13.908C15.2767 14.3227 14.9342 14.6666 14.5213 14.6666Z" fill="#141414"/>
</svg>
