<svg width="24" height="24" viewBox="0 0 24 24" fill="none" xmlns="http://www.w3.org/2000/svg">
<path d="M6.9365 14.2733H4.4C3.355 14.2733 2.5 15.1426 2.5 16.205V21.0342C2.5 21.5654 2.9275 22 3.45 22H6.9365C7.459 22 7.8865 21.5654 7.8865 21.0342V15.2392C7.8865 14.708 7.459 14.2733 6.9365 14.2733Z" fill="#141414"/>
<path d="M13.2635 10.41H10.727C9.682 10.41 8.827 11.2792 8.827 12.3417V21.0342C8.827 21.5654 9.2545 22 9.777 22H14.2135C14.736 22 15.1635 21.5654 15.1635 21.0342V12.3417C15.1635 11.2792 14.318 10.41 13.2635 10.41Z" fill="#141414"/>
<path d="M19.6 17.1708H17.0635C16.541 17.1708 16.1135 17.6055 16.1135 18.1367V21.0342C16.1135 21.5654 16.541 22 17.0635 22H20.55C21.0725 22 21.5 21.5654 21.5 21.0342V19.1025C21.5 18.0401 20.645 17.1708 19.6 17.1708Z" fill="#141414"/>
<path d="M14.8595 5.43595C15.154 5.13654 15.268 4.77919 15.173 4.47012C15.078 4.16105 14.7835 3.93891 14.3655 3.8713L13.4535 3.71677C13.4155 3.71677 13.33 3.64916 13.311 3.61053L12.8075 2.58674C12.4275 1.80442 11.563 1.80442 11.183 2.58674L10.6795 3.61053C10.67 3.64916 10.5845 3.71677 10.5465 3.71677L9.6345 3.8713C9.2165 3.93891 8.9315 4.16105 8.827 4.47012C8.732 4.77919 8.846 5.13654 9.1405 5.43595L9.8435 6.16033C9.8815 6.1893 9.91 6.3052 9.9005 6.34384L9.701 7.2324C9.549 7.89883 9.796 8.19824 9.9575 8.31414C10.119 8.43004 10.4705 8.58457 11.05 8.23687L11.905 7.72498C11.943 7.696 12.0665 7.696 12.1045 7.72498L12.95 8.23687C13.216 8.40106 13.4345 8.44935 13.6055 8.44935C13.805 8.44935 13.9475 8.37209 14.033 8.31414C14.1945 8.19824 14.4415 7.89883 14.2895 7.2324L14.09 6.34384C14.0805 6.29555 14.109 6.1893 14.147 6.16033L14.8595 5.43595Z" fill="#141414"/>
</svg>
