<svg width="24" height="24" viewBox="0 0 24 24" fill="none" xmlns="http://www.w3.org/2000/svg">
<path d="M20.0952 7.25149V12.8455C20.0952 13.1689 19.7809 13.3972 19.4761 13.3021L15.7333 12.1415C14.7047 11.8275 13.6 12.0939 12.8476 12.8455C12.0857 13.6065 11.8095 14.7196 12.1333 15.7471L13.2857 19.4574C13.3809 19.7618 13.1524 20.0758 12.8285 20.0758H7.25713C3.97142 20.0758 2 18.116 2 14.8243V7.25149C2 3.95979 3.97142 2 7.25713 2H14.8381C18.1238 2 20.0952 3.95979 20.0952 7.25149Z" fill="#141414"/>
<path d="M21.0095 18.0208L19.4571 18.5441C19.0285 18.6868 18.6857 19.0198 18.5428 19.4574L18.019 21.0081C17.5714 22.3495 15.6857 22.321 15.2666 20.9796L13.5047 15.319C13.1619 14.1964 14.2 13.1499 15.3143 13.5019L20.9904 15.2619C22.3238 15.6805 22.3428 17.5737 21.0095 18.0208Z" fill="#141414"/>
</svg>
