<svg width="24" height="24" viewBox="0 0 24 24" fill="none" xmlns="http://www.w3.org/2000/svg">
<path d="M2.27744 12.0004C2.44033 11.8412 2.65706 11.7456 2.88695 11.7315C3.11685 11.7174 3.34412 11.7857 3.52613 11.9237L3.61505 12.0004L7.62789 15.9229C7.79755 16.0893 7.89605 16.3125 7.90339 16.5473C7.91072 16.7821 7.82634 17.0108 7.66739 17.1869C7.50843 17.3631 7.28682 17.4736 7.04756 17.4958C6.8083 17.5181 6.56934 17.4505 6.3792 17.3069L6.29028 17.2301L2.27744 13.3085C2.18949 13.2227 2.11971 13.1207 2.07211 13.0085C2.0245 12.8963 2 12.776 2 12.6545C2 12.533 2.0245 12.4127 2.07211 12.3005C2.11971 12.1882 2.18949 12.0863 2.27744 12.0004ZM21.723 6.7716C21.8858 6.93078 21.9837 7.14258 21.9981 7.36725C22.0126 7.59192 21.9427 7.81403 21.8015 7.9919L21.723 8.0788L12.4249 17.1645C12.2447 17.3409 12.0045 17.4464 11.7499 17.4611C11.4952 17.4757 11.244 17.3985 11.0438 17.244L10.953 17.1654L7.00733 13.3085C6.83587 13.1426 6.7358 12.9188 6.72762 12.6831C6.71944 12.4474 6.80375 12.2175 6.96331 12.0405C7.12287 11.8636 7.3456 11.7529 7.58591 11.7312C7.82623 11.7095 8.06595 11.7783 8.25602 11.9237L8.34494 12.0004L11.689 15.2693L20.3853 6.7716C20.5627 6.59829 20.8033 6.50092 21.0542 6.50092C21.305 6.50092 21.5456 6.59829 21.723 6.7716ZM16.9931 6.7716C17.1559 6.93078 17.2538 7.14258 17.2682 7.36725C17.2827 7.59192 17.2128 7.81403 17.0716 7.9919L16.9931 8.0788L12.3105 12.6549C12.1402 12.8207 11.9118 12.917 11.6716 12.9242C11.4314 12.9313 11.1973 12.8489 11.0171 12.6935C10.8368 12.5382 10.7238 12.3216 10.701 12.0878C10.6782 11.854 10.7473 11.6204 10.8944 11.4346L10.9729 11.3468L15.6555 6.77067C15.8329 6.59736 16.0734 6.5 16.3243 6.5C16.5751 6.5 16.8157 6.59829 16.9931 6.7716Z" fill="#141414"/>
</svg>
