<svg width="24" height="24" viewBox="0 0 24 24" fill="none" xmlns="http://www.w3.org/2000/svg">
<path d="M16.1971 2H7.8129C4.17108 2 2 4.17 2 7.81V16.18C2 19.83 4.17108 22 7.8129 22H16.1871C19.8289 22 22 19.83 22 16.19V7.81C22.01 4.17 19.8389 2 16.1971 2ZM8.00299 13C7.44271 13 7.00249 12.55 7.00249 12C7.00249 11.45 7.45272 11 8.00299 11C8.55327 11 9.00349 11.45 9.00349 12C9.00349 12.55 8.56327 13 8.00299 13ZM12.005 13C11.4447 13 11.0045 12.55 11.0045 12C11.0045 11.45 11.4547 11 12.005 11C12.5553 11 13.0055 11.45 13.0055 12C13.0055 12.55 12.5653 13 12.005 13ZM16.007 13C15.4467 13 15.0065 12.55 15.0065 12C15.0065 11.45 15.4567 11 16.007 11C16.5573 11 17.0075 11.45 17.0075 12C17.0075 12.55 16.5673 13 16.007 13Z" fill="#141414"/>
</svg>
