<svg width="24" height="24" viewBox="0 0 24 24" fill="none" xmlns="http://www.w3.org/2000/svg">
<path d="M20.9601 17.8228L19.3304 18.3721C18.8805 18.5219 18.5205 18.8714 18.3706 19.3308L17.8207 20.9587C17.3507 22.3669 15.3711 22.3369 14.9311 20.9288L13.0815 14.9865C12.7215 13.808 13.8113 12.7094 14.9811 13.079L20.9401 14.9266C22.3399 15.366 22.3599 17.3534 20.9601 17.8228Z" fill="#141414"/>
<path d="M21.0001 11.491C21.0001 11.9205 20.9701 12.3499 20.9201 12.7694C20.8801 13.069 20.5702 13.2487 20.2802 13.1588L15.4311 11.6508C14.3512 11.3212 13.2014 11.6009 12.4016 12.3898C11.6017 13.1888 11.3118 14.3573 11.6517 15.4359L13.1514 20.2596C13.2414 20.5493 13.0515 20.8589 12.7515 20.8988C12.3316 20.9487 11.9216 20.9787 11.5017 20.9787C6.16262 20.9787 1.86335 16.5944 2.00332 11.2214C2.1433 6.26779 6.2726 2.14314 11.2318 2.00332C16.6109 1.8635 21.0001 6.15793 21.0001 11.491Z" fill="#141414"/>
</svg>
