<svg width="24" height="24" viewBox="0 0 24 24" fill="none" xmlns="http://www.w3.org/2000/svg">
<path d="M18.7429 15.534C18.181 12.1805 14.9524 9.454 11.5429 9.454C7.8381 9.454 4.58095 12.4465 4.26667 16.1325C4.14286 17.5575 4.6 18.9065 5.54286 19.923C6.47619 20.9395 7.79048 21.5 9.21905 21.5H13.6762C15.2857 21.5 16.6952 20.873 17.6571 19.7425C18.619 18.612 19 17.111 18.7429 15.534Z" fill="#141414"/>
<path d="M10.3619 8.067C11.903 8.067 13.1524 6.82078 13.1524 5.2835C13.1524 3.74622 11.903 2.5 10.3619 2.5C8.82077 2.5 7.57143 3.74622 7.57143 5.2835C7.57143 6.82078 8.82077 8.067 10.3619 8.067Z" fill="#141414"/>
<path d="M16.7048 9.1785C17.9882 9.1785 19.0286 8.1407 19.0286 6.8605C19.0286 5.5803 17.9882 4.5425 16.7048 4.5425C15.4214 4.5425 14.381 5.5803 14.381 6.8605C14.381 8.1407 15.4214 9.1785 16.7048 9.1785Z" fill="#141414"/>
<path d="M20.1429 12.8835C21.1685 12.8835 22 12.0541 22 11.031C22 10.0079 21.1685 9.1785 20.1429 9.1785C19.1172 9.1785 18.2857 10.0079 18.2857 11.031C18.2857 12.0541 19.1172 12.8835 20.1429 12.8835Z" fill="#141414"/>
<path d="M4.32381 11.031C5.60721 11.031 6.64762 9.9932 6.64762 8.713C6.64762 7.4328 5.60721 6.395 4.32381 6.395C3.04041 6.395 2 7.4328 2 8.713C2 9.9932 3.04041 11.031 4.32381 11.031Z" fill="#141414"/>
</svg>
