<svg width="24" height="24" viewBox="0 0 24 24" fill="none" xmlns="http://www.w3.org/2000/svg">
<path d="M3.05 19.87L19.87 3.05C18.92 2.36 17.68 2 16.19 2H7.81C4.17 2 2 4.17 2 7.81V16.19C2 17.68 2.36 18.92 3.05 19.87ZM5.5 7.75H7.19V6C7.19 5.59 7.53 5.25 7.94 5.25C8.35 5.25 8.69 5.59 8.69 6V7.75H10.5C10.91 7.75 11.25 8.09 11.25 8.5C11.25 8.91 10.91 9.25 10.5 9.25H8.69V11C8.69 11.41 8.35 11.75 7.94 11.75C7.53 11.75 7.19 11.41 7.19 11V9.25H5.5C5.09 9.25 4.75 8.91 4.75 8.5C4.75 8.09 5.09 7.75 5.5 7.75Z" fill="#141414"/>
<path d="M7.81 22H16.19C19.83 22 22 19.83 22 16.19V7.81C22 6.32 21.64 5.08 20.95 4.13L4.13 20.95C5.08 21.64 6.32 22 7.81 22ZM13.5 15.75H18.5C18.91 15.75 19.25 16.09 19.25 16.5C19.25 16.91 18.91 17.25 18.5 17.25H13.5C13.09 17.25 12.75 16.91 12.75 16.5C12.75 16.09 13.09 15.75 13.5 15.75Z" fill="#141414"/>
</svg>
