<svg width="24" height="24" viewBox="0 0 24 24" fill="none" xmlns="http://www.w3.org/2000/svg">
<path d="M11.2498 3.99904V12.9043C11.2498 13.2301 11.0898 13.5263 10.8197 13.7139L3.6081 18.6996C3.01796 19.1044 2.17777 18.7885 2.04774 18.0875C1.89771 17.2385 2.09776 16.2413 2.69789 15.1652L8.75927 4.40383C8.98932 3.99904 9.23937 3.64362 9.49943 3.33757C10.0996 2.64647 11.2498 3.09075 11.2498 3.99904Z" fill="#141414"/>
<path d="M20.3919 18.6996L13.1803 13.7139C12.9102 13.5263 12.7502 13.2301 12.7502 12.9043V3.99904C12.7502 3.09075 13.9004 2.64647 14.5006 3.33757C14.7606 3.64362 15.0107 3.99904 15.2407 4.40383L21.3021 15.1652C21.9022 16.2413 22.1023 17.2385 21.9523 18.0875C21.8222 18.7885 20.982 19.1044 20.3919 18.6996Z" fill="#141414"/>
<path d="M5.25847 19.0452L11.4099 14.9973C11.7399 14.7801 12.2801 14.7801 12.6101 14.9973L18.7615 19.0452C20.3919 20.1213 20.1218 21 18.1614 21H5.84861C3.89816 20.9901 3.6281 20.1114 5.25847 19.0452Z" fill="#141414"/>
</svg>
