<svg width="24" height="24" viewBox="0 0 24 24" fill="none" xmlns="http://www.w3.org/2000/svg">
<path d="M22 17.9961V18.9961C22 20.6461 22 21.9961 19 21.9961H5C2 21.9961 2 20.6461 2 18.9961V17.9961C2 17.4461 2.45 16.9961 3 16.9961H21C21.55 16.9961 22 17.4461 22 17.9961Z" fill="#141414"/>
<path d="M14.44 5.17611C14.49 4.97611 14.52 4.78611 14.53 4.57611C14.56 3.41611 13.85 2.39611 12.73 2.09611C11.05 1.63611 9.53 2.89611 9.53 4.49611C9.53 4.73611 9.56 4.95611 9.62 5.17611C6.01 5.94611 3.3 9.15611 3.3 12.9961V14.4961C3.3 15.0461 3.75 15.4961 4.3 15.4961H19.75C20.3 15.4961 20.75 15.0461 20.75 14.4961V12.9961C20.75 9.15611 18.05 5.95611 14.44 5.17611ZM15.03 11.7461H9.03C8.62 11.7461 8.28 11.4061 8.28 10.9961C8.28 10.5861 8.62 10.2461 9.03 10.2461H15.03C15.44 10.2461 15.78 10.5861 15.78 10.9961C15.78 11.4061 15.44 11.7461 15.03 11.7461Z" fill="#141414"/>
</svg>
