<svg width="24" height="24" viewBox="0 0 24 24" fill="none" xmlns="http://www.w3.org/2000/svg">
<path d="M17.8859 13.6916L15.8577 12.0048C15.5692 11.7735 15.2064 11.6386 14.8342 11.6386H12.685V8.74699H16.8439C17.7464 8.74699 18.4721 7.99518 18.4721 7.06024V3.68675C18.4721 2.75181 17.7464 2 16.8439 2H9.15879C8.79594 2 8.43308 2.13494 8.14466 2.36627L6.10709 4.05301C5.29764 4.72771 5.29764 6.01928 6.10709 6.69398L8.14466 8.38072C8.43308 8.61205 8.79594 8.74699 9.15879 8.74699H11.2894V11.6386H7.14913C6.24665 11.6386 5.52093 12.3904 5.52093 13.3253V16.6988C5.52093 17.6337 6.24665 18.3855 7.14913 18.3855H11.2894V20.5542H9.19601C8.81455 20.5542 8.49821 20.8819 8.49821 21.2771C8.49821 21.6723 8.81455 22 9.19601 22H14.7784C15.1599 22 15.4762 21.6723 15.4762 21.2771C15.4762 20.8819 15.1599 20.5542 14.7784 20.5542H12.685V18.3855H14.8342C15.2064 18.3855 15.5692 18.2506 15.8577 18.0193L17.8859 16.3325C18.7047 15.6578 18.7047 14.3663 17.8859 13.6916Z" fill="#141414"/>
</svg>
