<svg width="24" height="24" viewBox="0 0 24 24" fill="none" xmlns="http://www.w3.org/2000/svg">
<path d="M18.7822 8.12165L9.21821 3.36539C2.79379 0.164917 0.156984 2.78753 3.37478 9.17736L4.34682 11.111C4.62614 11.6777 4.62614 12.3334 4.34682 12.9001L3.37478 14.8226C0.156984 21.2125 2.78262 23.8351 9.21821 20.6346L18.7822 15.8784C23.0726 13.7447 23.0726 10.2553 18.7822 8.12165ZM15.1734 12.8335H9.13999C8.68191 12.8335 8.30203 12.4556 8.30203 12C8.30203 11.5444 8.68191 11.1665 9.13999 11.1665H15.1734C15.6314 11.1665 16.0113 11.5444 16.0113 12C16.0113 12.4556 15.6314 12.8335 15.1734 12.8335Z" fill="#141414"/>
</svg>
