<svg width="24" height="24" viewBox="0 0 24 24" fill="none" xmlns="http://www.w3.org/2000/svg">
<path d="M9.14967 14.3524H4.32325C3.7437 14.3524 3.21166 14.6476 2.90763 15.1429C2.6036 15.6286 2.5751 16.2095 2.82212 16.7238C3.99072 19.1238 6.09991 21.0095 8.60813 21.8952C8.77914 21.9524 8.96916 21.9905 9.14967 21.9905C9.4822 21.9905 9.81473 21.8857 10.0998 21.6857C10.5463 21.3714 10.8123 20.8571 10.8123 20.3143L10.8218 16.0286C10.8218 15.581 10.6508 15.1619 10.3373 14.8476C10.0142 14.5333 9.59621 14.3524 9.14967 14.3524Z" fill="#141414"/>
<path d="M21.9568 9.95238C20.8927 5.26667 16.7978 2 11.9999 2C7.202 2 3.10715 5.26667 2.04306 9.95238C1.92905 10.4476 2.04306 10.9524 2.36608 11.3524C2.68911 11.7524 3.16415 11.981 3.6772 11.981H20.3321C20.8452 11.981 21.3202 11.7524 21.6433 11.3524C21.9568 10.9524 22.0708 10.4381 21.9568 9.95238Z" fill="#141414"/>
<path d="M19.6576 14.4L14.8502 14.3905C14.4036 14.3905 13.9856 14.5619 13.6721 14.8762C13.3585 15.1905 13.1875 15.6095 13.1875 16.0571L13.197 20.3238C13.197 20.8667 13.463 21.381 13.9096 21.6952C14.1946 21.8952 14.5271 22 14.8597 22C15.0402 22 15.2207 21.9714 15.3917 21.9048C17.8809 21.0286 19.9901 19.1524 21.1587 16.781C21.4057 16.2762 21.3772 15.6857 21.0827 15.2095C20.7692 14.6952 20.2371 14.4 19.6576 14.4Z" fill="#141414"/>
</svg>
