<svg width="24" height="24" viewBox="0 0 24 24" fill="none" xmlns="http://www.w3.org/2000/svg">
<path d="M17.5762 2H16.6484C16.2676 2 15.9551 2.32 15.9551 2.71C15.9551 3.11 16.2676 3.43 16.6484 3.43H17.5762C19.2461 3.43 20.6035 4.82 20.6035 6.52V12.4C20.252 12.21 19.8613 12.11 19.4414 12.11H15.7207C14.3145 12.11 13.1621 13.28 13.1621 14.73V16.29H10.8379V14.73C10.8379 13.28 9.68555 12.11 8.2793 12.11H4.55859C4.13867 12.11 3.74805 12.21 3.39648 12.4V6.52C3.39648 4.82 4.75391 3.43 6.42383 3.43H7.35156C7.73242 3.43 8.04492 3.11 8.04492 2.71C8.04492 2.32 7.73242 2 7.35156 2H6.42383C3.98242 2 2 4.03 2 6.52V19.38C2 20.83 3.15234 22 4.55859 22H8.2793C9.68555 22 10.8379 20.83 10.8379 19.38V17.71H13.1621V19.38C13.1621 20.83 14.3145 22 15.7207 22H19.4414C20.8477 22 22 20.83 22 19.38V6.52C22 4.03 20.0176 2 17.5762 2Z" fill="#141414"/>
</svg>
