<svg width="24" height="24" viewBox="0 0 24 24" fill="none" xmlns="http://www.w3.org/2000/svg">
<path d="M22 11.6701C20.8094 10.9193 19.4288 10.5089 18.0082 10.5089C13.8662 10.5089 10.5047 13.8722 10.5047 18.0162C10.5047 19.4375 10.9049 20.8089 11.6552 22C11.195 21.99 10.7248 21.9399 10.2446 21.8699C6.13266 21.1692 2.82113 17.836 2.14082 13.712C1.01029 6.85542 6.853 1.0098 13.7062 2.14089C17.8281 2.82154 21.1596 6.13473 21.8599 10.2487C21.94 10.7292 21.99 11.2096 22 11.6701Z" fill="#141414"/>
<path d="M13.416 21.8799C12.5356 20.8389 12.0054 19.4876 12.0054 18.0162C12.0054 14.703 14.6966 12.0104 18.0082 12.0104C19.4788 12.0104 20.8295 12.5409 21.8699 13.4217" fill="#141414"/>
</svg>
