<svg width="24" height="24" viewBox="0 0 24 24" fill="none" xmlns="http://www.w3.org/2000/svg">
<path d="M16.1971 2H7.8129C4.17108 2 2 4.17 2 7.81V16.18C2 19.83 4.17108 22 7.8129 22H16.1871C19.8289 22 22 19.83 22 16.19V7.81C22.01 4.17 19.8389 2 16.1971 2ZM13.3356 17H10.6643C10.2541 17 9.91394 16.66 9.91394 16.25C9.91394 15.84 10.2541 15.5 10.6643 15.5H13.3356C13.7459 15.5 14.086 15.84 14.086 16.25C14.086 16.66 13.7559 17 13.3356 17ZM16.007 12.75H8.00299C7.59279 12.75 7.25262 12.41 7.25262 12C7.25262 11.59 7.59279 11.25 8.00299 11.25H16.007C16.4172 11.25 16.7574 11.59 16.7574 12C16.7574 12.41 16.4172 12.75 16.007 12.75ZM18.008 8.5H6.00199C5.59179 8.5 5.25162 8.16 5.25162 7.75C5.25162 7.34 5.59179 7 6.00199 7H18.008C18.4182 7 18.7584 7.34 18.7584 7.75C18.7584 8.16 18.4182 8.5 18.008 8.5Z" fill="#141414"/>
</svg>
