<svg width="24" height="24" viewBox="0 0 24 24" fill="none" xmlns="http://www.w3.org/2000/svg">
<path d="M18.6419 19.858C18.4651 19.858 18.2884 19.7923 18.1488 19.661C17.8698 19.3889 17.8698 18.9479 18.1395 18.6664C19.7302 17.0338 20.6047 14.8758 20.6047 12.5864C20.6047 7.80123 16.7442 3.90741 12 3.90741C7.25581 3.90741 3.39535 7.80123 3.39535 12.5864C3.39535 14.8664 4.26047 17.0151 5.84186 18.6477C6.11163 18.9291 6.10233 19.3701 5.83256 19.6422C5.55349 19.9143 5.11628 19.9049 4.84651 19.6328C3.01395 17.7375 2 15.2323 2 12.5864C2 7.02247 6.48372 2.5 12 2.5C17.5163 2.5 22 7.02247 22 12.5864C22 15.2417 20.986 17.7563 19.1349 19.6516C19.0047 19.7923 18.8186 19.858 18.6419 19.858Z" fill="#141414"/>
<path d="M12 21.5C13.9934 21.5 15.6093 19.8701 15.6093 17.8595C15.6093 15.8489 13.9934 14.219 12 14.219C10.0066 14.219 8.3907 15.8489 8.3907 17.8595C8.3907 19.8701 10.0066 21.5 12 21.5Z" fill="#141414"/>
<path d="M15.7209 8.83333C14.6977 8.83333 13.8605 9.67778 13.8605 10.7099V11.4136C13.8605 12.061 14.3814 12.5864 15.0233 12.5864H15.7209C16.7442 12.5864 17.5814 11.742 17.5814 10.7099C17.5814 9.67778 16.7442 8.83333 15.7209 8.83333Z" fill="#141414"/>
</svg>
