<svg width="24" height="24" viewBox="0 0 24 24" fill="none" xmlns="http://www.w3.org/2000/svg">
<path d="M20.5568 12.7307C20.1781 12.7307 19.8608 12.4504 19.8199 12.0801C19.5742 9.87788 18.3664 7.8959 16.5036 6.63463C16.1658 6.4044 16.0839 5.95395 16.3193 5.62362C16.5548 5.29329 17.0154 5.21321 17.3531 5.44344C19.5742 6.95496 21.0072 9.31732 21.304 11.9299C21.3449 12.3303 21.0481 12.6907 20.6387 12.7307C20.608 12.7307 20.5875 12.7307 20.5568 12.7307Z" fill="#141414"/>
<path d="M3.54555 12.7808C3.52508 12.7808 3.49437 12.7808 3.4739 12.7808C3.06448 12.7407 2.76766 12.3804 2.8086 11.98C3.08495 9.36737 4.49744 7.005 6.69806 5.48348C7.02559 5.25325 7.49642 5.33333 7.73183 5.65365C7.96725 5.98398 7.88536 6.43443 7.55783 6.66466C5.71546 7.94595 4.51791 9.92793 4.29273 12.1201C4.25179 12.5005 3.92426 12.7808 3.54555 12.7808Z" fill="#141414"/>
<path d="M16.0839 21.1091C14.825 21.6997 13.4739 22 12.0614 22C10.5875 22 9.18526 21.6797 7.87513 21.029C7.50665 20.8589 7.36336 20.4184 7.54759 20.0581C7.7216 19.6977 8.17195 19.5576 8.54043 19.7277C9.18526 20.048 9.87103 20.2683 10.567 20.3984C11.5087 20.5786 12.4708 20.5886 13.4125 20.4284C14.1085 20.3083 14.7943 20.0981 15.4289 19.7978C15.8076 19.6276 16.2579 19.7678 16.4217 20.1381C16.6059 20.4985 16.4626 20.9389 16.0839 21.1091Z" fill="#141414"/>
<path d="M12.0512 2C10.4647 2 9.16479 3.26126 9.16479 4.82282C9.16479 6.38438 10.4545 7.64565 12.0512 7.64565C13.6479 7.64565 14.9376 6.38438 14.9376 4.82282C14.9376 3.26126 13.6479 2 12.0512 2Z" fill="#141414"/>
<path d="M4.88639 13.8719C3.2999 13.8719 2 15.1331 2 16.6947C2 18.2563 3.28966 19.5175 4.88639 19.5175C6.48311 19.5175 7.77277 18.2563 7.77277 16.6947C7.77277 15.1331 6.47288 13.8719 4.88639 13.8719Z" fill="#141414"/>
<path d="M19.1136 13.8719C17.5271 13.8719 16.2272 15.1331 16.2272 16.6947C16.2272 18.2563 17.5169 19.5175 19.1136 19.5175C20.7103 19.5175 22 18.2563 22 16.6947C22 15.1331 20.7103 13.8719 19.1136 13.8719Z" fill="#141414"/>
</svg>
