<svg width="24" height="24" viewBox="0 0 24 24" fill="none" xmlns="http://www.w3.org/2000/svg">
<path d="M22 14.6019V16.7254C22 19.0913 20.3049 21.3215 18.0002 21.9712C17.8383 22.0099 17.6669 22.0099 17.5146 21.9712C16.3908 21.6609 15.4004 20.9627 14.7052 20.061C13.9529 19.1107 13.5148 17.9375 13.5148 16.7254V14.6019C13.5148 14.1947 13.81 13.7486 14.1719 13.5935L16.8194 12.4881C17.4193 12.2457 18.0859 12.2457 18.6859 12.4881L19.6382 12.8856L21.3429 13.5935C21.7048 13.7486 22 14.1947 22 14.6019Z" fill="#141414"/>
<path d="M20.0477 10.3743L19.8763 11.4118L19.2097 11.1403C18.2669 10.7524 17.2384 10.7524 16.2765 11.1403L13.6195 12.2554C12.7148 12.6432 12.0863 13.6032 12.0863 14.6019V16.7254C12.0863 17.8793 12.4006 19.0332 12.9815 20.061H5.98191C4.67723 20.061 3.44873 19.0041 3.22969 17.6951L2.02977 10.3743C1.87739 9.47252 2.32499 8.26047 3.02971 7.68839L9.296 2.58809C10.2578 1.80269 11.8197 1.80269 12.7815 2.59779L19.0478 7.68839C19.743 8.26047 20.2001 9.47252 20.0477 10.3743Z" fill="#141414"/>
</svg>
