<svg width="24" height="24" viewBox="0 0 24 24" fill="none" xmlns="http://www.w3.org/2000/svg">
<path d="M16.1196 8.29692C18.3902 10.5279 18.3902 14.1487 16.1196 16.3797C13.849 18.6107 10.1639 18.6107 7.8933 16.3797C5.62269 14.1487 5.62269 10.5279 7.8933 8.29692C10.1639 6.06593 13.849 6.06593 16.1196 8.29692Z" fill="#141414"/>
<path d="M8.51678 21.5C8.43303 21.5 8.33997 21.4817 8.25622 21.4543C6.16243 20.6314 4.46878 19.1776 3.33348 17.2575C2.2354 15.3831 1.79803 13.2618 2.08651 11.1039C2.13304 10.7291 2.49596 10.4639 2.86819 10.5096C3.24973 10.5553 3.51959 10.9028 3.47306 11.2777C3.23111 13.1338 3.60334 14.9625 4.54323 16.5717C5.51102 18.2175 6.97203 19.4702 8.76804 20.1742C9.12165 20.3205 9.29846 20.7137 9.15888 21.0703C9.05651 21.3354 8.78665 21.5 8.51678 21.5Z" fill="#141414"/>
<path d="M6.2834 5.80991C6.07867 5.80991 5.87395 5.71848 5.73436 5.54475C5.49241 5.25217 5.54825 4.82243 5.85534 4.5847C7.62343 3.22233 9.75444 2.5 12.0064 2.5C14.2026 2.5 16.2964 3.1949 18.0552 4.51155C18.3623 4.74013 18.4181 5.16988 18.1855 5.47161C17.9528 5.77334 17.5154 5.8282 17.2084 5.59962C15.6915 4.46583 13.8955 3.87151 12.0064 3.87151C10.0708 3.87151 8.23761 4.49326 6.71146 5.66362C6.58118 5.7642 6.43229 5.80991 6.2834 5.80991Z" fill="#141414"/>
<path d="M15.4961 21.5C15.2169 21.5 14.9564 21.3354 14.8447 21.0703C14.7051 20.7228 14.8726 20.3205 15.2355 20.1742C17.0315 19.461 18.4925 18.2175 19.4603 16.5717C20.4095 14.9625 20.7818 13.1338 20.5305 11.2868C20.484 10.9119 20.7538 10.5645 21.1354 10.5188C21.5076 10.4731 21.8705 10.7382 21.9171 11.1131C22.1962 13.2618 21.7682 15.3922 20.6701 17.2666C19.5441 19.1867 17.8411 20.6314 15.7473 21.4634C15.6729 21.4817 15.5892 21.5 15.4961 21.5Z" fill="#141414"/>
</svg>
