<svg width="24" height="24" viewBox="0 0 24 24" fill="none" xmlns="http://www.w3.org/2000/svg">
<path d="M17.8462 16.01C18.3821 16.01 18.8205 16.46 18.8205 17.01V18C18.8205 20.2 17.359 22 14.9231 22H9.07692C6.64103 22 5.17949 20.2 5.17949 18V17.01C5.17949 16.46 5.61795 16.01 6.15385 16.01H17.8462Z" fill="#141414"/>
<path d="M18.8205 6V13.5C18.8205 14.05 18.3821 14.5 17.8462 14.5H6.15385C5.61795 14.5 5.17949 14.05 5.17949 13.5V6C5.17949 3.8 6.64103 2 9.07692 2H14.9231C17.359 2 18.8205 3.8 18.8205 6Z" fill="#141414"/>
<path d="M3.23077 20.75C2.83128 20.75 2.5 20.41 2.5 20V4C2.5 3.59 2.83128 3.25 3.23077 3.25C3.63026 3.25 3.96154 3.59 3.96154 4V20C3.96154 20.41 3.63026 20.75 3.23077 20.75Z" fill="#141414"/>
<path d="M20.7692 20.75C20.3697 20.75 20.0385 20.41 20.0385 20V4C20.0385 3.59 20.3697 3.25 20.7692 3.25C21.1687 3.25 21.5 3.59 21.5 4V20C21.5 20.41 21.1687 20.75 20.7692 20.75Z" fill="#141414"/>
</svg>
