<svg width="24" height="24" viewBox="0 0 24 24" fill="none" xmlns="http://www.w3.org/2000/svg">
<path d="M20.8603 8.30406L13.9314 2.65856C12.8616 1.78219 11.1318 1.78219 10.072 2.64837L3.14302 8.30406C2.36314 8.93587 1.86322 10.2708 2.03319 11.2695L3.36299 19.3811C3.60295 20.8281 4.96275 22 6.40253 22H17.6008C19.0306 22 20.4004 20.8179 20.6404 19.3811L21.9702 11.2695C22.1302 10.2708 21.6302 8.93587 20.8603 8.30406ZM9.38208 17.292C8.82217 17.292 8.38223 16.8335 8.38223 16.273C8.38223 15.7125 8.83216 15.2539 9.38208 15.2539C9.932 15.2539 10.3819 15.7125 10.3819 16.273C10.3819 16.8335 9.932 17.292 9.38208 17.292ZM12.3916 17.0271C12.3816 17.0271 12.3816 17.0271 12.3716 17.0271C11.9617 17.0271 11.6317 16.6908 11.6217 16.2832C11.5917 14.9075 10.7019 14.0005 9.35209 13.9699C8.94215 13.9597 8.6122 13.6133 8.6222 13.1853C8.63219 12.7675 8.96214 12.4414 9.37208 12.4414C9.38208 12.4414 9.38208 12.4414 9.39208 12.4414C11.5418 12.4923 13.0815 14.0515 13.1215 16.2424C13.1315 16.6704 12.8116 17.0271 12.3916 17.0271ZM15.3812 17.0271C14.9612 17.0271 14.6313 16.6908 14.6213 16.273C14.6113 15.6004 14.5013 14.9584 14.3013 14.3572C13.7914 12.8694 12.7016 11.7688 11.2418 11.2389C10.6519 11.0249 10.022 10.9128 9.36208 10.9128C8.95215 10.9128 8.6122 10.5663 8.6222 10.1383C8.6222 9.72053 8.96214 9.38425 9.37208 9.38425H9.38208C10.212 9.39444 11.0018 9.5371 11.7417 9.80205C13.6314 10.4848 15.0412 11.9217 15.7111 13.8477C15.9711 14.6017 16.1111 15.417 16.1211 16.2526C16.1311 16.6806 15.8011 17.0271 15.3812 17.0271Z" fill="#141414"/>
</svg>
