<svg width="24" height="24" viewBox="0 0 24 24" fill="none" xmlns="http://www.w3.org/2000/svg">
<path d="M16.034 9.80101H7.96596C6.82444 9.80101 6.42781 9.04158 7.09531 8.11872L11.1293 2.50469C11.6034 1.83177 12.3966 1.83177 12.8707 2.50469L16.9047 8.11872C17.5722 9.04158 17.1756 9.80101 16.034 9.80101Z" fill="#141414"/>
<path d="M17.4077 17.4338H6.59226C5.06378 17.4338 4.54139 16.4244 5.44106 15.1939L9.30097 9.80101H14.699L18.5589 15.1939C19.4586 16.4244 18.9362 17.4338 17.4077 17.4338Z" fill="#141414"/>
<path d="M12.7255 17.4338V21.279C12.7255 21.6732 12.3966 22 12 22C11.6034 22 11.2745 21.6732 11.2745 21.279V17.4338H12.7255Z" fill="#141414"/>
</svg>
