<svg width="24" height="24" viewBox="0 0 24 24" fill="none" xmlns="http://www.w3.org/2000/svg">
<path d="M16.1971 2H7.8129C4.17108 2 2 4.17 2 7.81V16.18C2 19.83 4.17108 22 7.8129 22H16.1871C19.8289 22 22 19.83 22 16.19V7.81C22.01 4.17 19.8389 2 16.1971 2ZM15.7669 15.76C15.7068 16.61 15.6368 17.67 13.7158 17.67H10.2941C8.38318 17.67 8.30314 16.61 8.24311 15.76L7.93296 11.8C7.91295 11.54 8.00299 11.29 8.17308 11.1C8.34316 10.91 8.59329 10.81 8.84341 10.81H15.1666C15.4167 10.81 15.6668 10.92 15.8369 11.1C16.007 11.29 16.097 11.54 16.077 11.79L15.7669 15.76ZM16.8074 9.82C16.7874 9.82 16.7674 9.82 16.7473 9.82C15.7068 9.72 14.7564 9.65 13.8459 9.61C12.6253 9.55 11.4047 9.53 10.1741 9.58C9.57377 9.61 8.96347 9.65 8.36317 9.71L7.27263 9.82C7.25262 9.82 7.2226 9.82 7.20259 9.82C6.85242 9.82 6.55227 9.56 6.52225 9.2C6.48223 8.83 6.76237 8.49 7.13256 8.46L8.2231 8.35C8.65332 8.31 9.07352 8.28 9.50374 8.26L9.58378 7.79C9.66382 7.29 9.81389 6.33 11.3146 6.33H12.7053C14.2161 6.33 14.3662 7.32 14.4362 7.8L14.5162 8.28C15.2666 8.32 16.037 8.38 16.8774 8.46C17.2576 8.5 17.5277 8.83 17.4977 9.21C17.4577 9.56 17.1576 9.82 16.8074 9.82Z" fill="#141414"/>
</svg>
