<svg width="24" height="24" viewBox="0 0 24 24" fill="none" xmlns="http://www.w3.org/2000/svg">
<path d="M17.8774 6.05393L3.92449 20.1708C3.4947 20.6056 2.77507 20.5652 2.42524 20.0697C1.9255 19.3719 1.82555 18.4011 2.34528 17.5618L5.10389 13.082C5.47371 12.4854 5.47371 11.5146 5.10389 10.918L2.34528 6.4382C1.41575 4.94157 2.48521 3 4.22434 3H15.6686C16.3482 3 17.1878 3.47528 17.5476 4.05169L18.0174 4.8C18.2573 5.20449 18.2073 5.72022 17.8774 6.05393Z" fill="#141414"/>
<path d="M21.6256 13.1225L16.4482 20.1C16.0884 20.5955 15.2888 21 14.6691 21H7.51268C6.62313 21 6.17335 19.9079 6.80304 19.2708L18.3172 7.63146C18.767 7.1764 19.5366 7.2573 19.8764 7.81348L21.7255 10.8169C22.1253 11.464 22.0853 12.5056 21.6256 13.1225Z" fill="#141414"/>
</svg>
