<svg width="24" height="24" viewBox="0 0 24 24" fill="none" xmlns="http://www.w3.org/2000/svg">
<path d="M21.555 10.7425L20.195 9.1625C19.935 8.8625 19.725 8.3025 19.725 7.9025V6.2025C19.725 5.1425 18.855 4.2725 17.795 4.2725H16.095C15.705 4.2725 15.135 4.0625 14.835 3.8025L13.255 2.4425C12.565 1.8525 11.435 1.8525 10.735 2.4425L9.165 3.8125C8.865 4.0625 8.295 4.2725 7.905 4.2725H6.175C5.115 4.2725 4.245 5.1425 4.245 6.2025V7.9125C4.245 8.3025 4.035 8.8625 3.785 9.1625L2.435 10.7525C1.855 11.4425 1.855 12.5625 2.435 13.2525L3.785 14.8425C4.035 15.1425 4.245 15.7025 4.245 16.0925V17.8025C4.245 18.8625 5.115 19.7325 6.175 19.7325H7.905C8.295 19.7325 8.865 19.9425 9.165 20.2025L10.745 21.5625C11.435 22.1525 12.565 22.1525 13.265 21.5625L14.845 20.2025C15.145 19.9425 15.705 19.7325 16.105 19.7325H17.805C18.865 19.7325 19.735 18.8625 19.735 17.8025V16.1025C19.735 15.7125 19.945 15.1425 20.205 14.8425L21.565 13.2625C22.145 12.5725 22.145 11.4325 21.555 10.7425ZM16.155 10.1125L11.325 14.9425C11.185 15.0825 10.995 15.1625 10.795 15.1625C10.595 15.1625 10.405 15.0825 10.265 14.9425L7.845 12.5225C7.555 12.2325 7.555 11.7525 7.845 11.4625C8.135 11.1725 8.615 11.1725 8.905 11.4625L10.795 13.3525L15.095 9.0525C15.385 8.7625 15.865 8.7625 16.155 9.0525C16.445 9.3425 16.445 9.8225 16.155 10.1125Z" fill="#141414"/>
</svg>
