<svg width="24" height="24" viewBox="0 0 24 24" fill="none" xmlns="http://www.w3.org/2000/svg">
<path fill-rule="evenodd" clip-rule="evenodd" d="M16.1973 2C19.8388 2.00008 22.0098 4.16989 22 7.80957V16.1904C21.9998 19.83 19.8289 21.9998 16.1875 22H7.8125C4.17092 21.9998 2 19.8296 2 16.1797V7.80957C2.00017 4.16996 4.17107 2.00016 7.8125 2H16.1973ZM12.9248 14.8213C12.417 14.3216 11.5839 14.3215 11.0762 14.8213C10.5685 15.3211 10.5686 16.1281 11.0762 16.6279C11.3366 16.8714 11.6624 17 12.001 17C12.3394 16.9999 12.6645 16.8715 12.9248 16.6152C13.4326 16.1154 13.4326 15.3083 12.9248 14.8213ZM15.4248 12.3096C13.3935 10.4 10.568 10.3999 8.5498 12.3096C8.15958 12.6813 8.14694 13.2836 8.52441 13.668C8.90202 14.0522 9.51375 14.0649 9.9043 13.6934C11.1803 12.5015 12.821 12.5015 14.084 13.6934C14.2792 13.8727 14.5135 13.9628 14.7607 13.9629C15.021 13.9629 15.2686 13.86 15.4639 13.668C15.8415 13.2835 15.8285 12.6684 15.4248 12.3096ZM15.6465 7.83594C13.3028 6.72103 10.6985 6.72097 8.3418 7.83594C7.41745 8.27163 6.55818 8.8613 5.79004 9.60449C5.41243 9.97617 5.39877 10.5794 5.77637 10.9639C6.15397 11.3484 6.77962 11.3482 7.15723 10.9766C7.78223 10.387 8.45931 9.91245 9.18848 9.56641C10.9983 8.70781 12.9906 8.70774 14.8135 9.56641C15.5426 9.91244 16.2328 10.387 16.8447 10.9766C17.027 11.1558 17.2742 11.2451 17.5215 11.2451C17.7819 11.2451 18.0293 11.1424 18.2246 10.9502C18.6021 10.5785 18.5888 9.9633 18.1982 9.60449C17.4301 8.86135 16.5708 8.27161 15.6465 7.83594Z" fill="#141414"/>
</svg>
