<svg width="24" height="24" viewBox="0 0 24 24" fill="none" xmlns="http://www.w3.org/2000/svg">
<path d="M13.3794 18.5455C13.3794 18.8332 13.2985 19.1144 13.1469 19.3536C12.9953 19.5928 12.7799 19.7792 12.5279 19.8893C12.2758 19.9994 11.9985 20.0282 11.7309 19.9721C11.4633 19.9159 11.2176 19.7774 11.0246 19.574C10.8317 19.3706 10.7004 19.1114 10.6471 18.8293C10.5939 18.5471 10.6212 18.2547 10.7256 17.9889C10.83 17.7231 11.0068 17.4959 11.2337 17.3361C11.4605 17.1763 11.7272 17.091 12 17.091C12.3658 17.091 12.7167 17.2442 12.9754 17.517C13.234 17.7898 13.3794 18.1597 13.3794 18.5455ZM21.6219 7.62851C18.909 5.28227 15.5087 4 12 4C8.4913 4 5.09105 5.28227 2.37808 7.62851C2.27308 7.71942 2.18608 7.83125 2.12206 7.95761C2.05804 8.08397 2.01825 8.22239 2.00496 8.36497C1.99167 8.50754 2.00514 8.65148 2.04461 8.78857C2.08408 8.92565 2.14876 9.0532 2.23497 9.16393C2.32118 9.27465 2.42723 9.36639 2.54707 9.43389C2.6669 9.5014 2.79817 9.54336 2.93338 9.55737C3.06859 9.57139 3.20509 9.55718 3.3351 9.51556C3.4651 9.47395 3.58606 9.40574 3.69106 9.31483C6.03394 7.28902 8.97016 6.18189 12 6.18189C15.0298 6.18189 17.9661 7.28902 20.3089 9.31483C20.4139 9.40574 20.5349 9.47395 20.6649 9.51556C20.7949 9.55718 20.9314 9.57139 21.0666 9.55737C21.2018 9.54336 21.3331 9.5014 21.4529 9.43389C21.5728 9.36639 21.6788 9.27465 21.765 9.16393C21.8512 9.0532 21.9159 8.92565 21.9554 8.78857C21.9949 8.65148 22.0083 8.50754 21.995 8.36497C21.9818 8.22239 21.942 8.08397 21.8779 7.95761C21.8139 7.83125 21.7269 7.71942 21.6219 7.62851ZM18.8494 10.8766C16.8999 9.24921 14.4864 8.36375 12 8.36375C9.51359 8.36375 7.10006 9.24921 5.1506 10.8766C4.94093 11.0581 4.80724 11.3191 4.77833 11.6035C4.74942 11.888 4.8276 12.173 4.99603 12.3972C5.16446 12.6214 5.40967 12.7669 5.67884 12.8023C5.94801 12.8377 6.21961 12.7602 6.43513 12.5866C8.01902 11.2644 9.97991 10.5451 12 10.5451C14.0201 10.5451 15.981 11.2644 17.5649 12.5866C17.7804 12.7602 18.052 12.8377 18.3212 12.8023C18.5903 12.7669 18.8355 12.6214 19.004 12.3972C19.1724 12.173 19.2506 11.888 19.2217 11.6035C19.1928 11.3191 19.0591 11.0581 18.8494 10.8766ZM16.0579 14.1183C14.8786 13.2143 13.458 12.7274 12 12.7274C10.542 12.7274 9.12142 13.2143 7.94209 14.1183C7.7203 14.2888 7.57182 14.5452 7.5293 14.8311C7.48678 15.117 7.5537 15.409 7.71535 15.6428C7.87701 15.8767 8.12014 16.0333 8.39127 16.0781C8.6624 16.123 8.93931 16.0524 9.1611 15.8819C9.98614 15.2494 10.98 14.9087 12 14.9087C13.02 14.9087 14.0139 15.2494 14.8389 15.8819C14.9487 15.9663 15.0732 16.0271 15.2053 16.0608C15.3374 16.0944 15.4745 16.1003 15.6087 16.0781C15.743 16.0559 15.8718 16.0061 15.9877 15.9314C16.1037 15.8567 16.2046 15.7586 16.2846 15.6428C16.3647 15.527 16.4223 15.3958 16.4542 15.2565C16.4862 15.1172 16.4918 14.9726 16.4707 14.8311C16.4496 14.6895 16.4024 14.5537 16.3315 14.4314C16.2607 14.3091 16.1677 14.2027 16.0579 14.1183Z" fill="#141414"/>
</svg>
