<svg width="24" height="24" viewBox="0 0 24 24" fill="none" xmlns="http://www.w3.org/2000/svg">
<path d="M20.21 7.81994L12.51 12.2799C12.2 12.4599 11.81 12.4599 11.49 12.2799L3.78998 7.81994C3.23998 7.49994 3.09998 6.74994 3.51998 6.27994C3.80998 5.94994 4.13998 5.67994 4.48998 5.48994L9.90998 2.48994C11.07 1.83994 12.95 1.83994 14.11 2.48994L19.53 5.48994C19.88 5.67994 20.21 5.95994 20.5 6.27994C20.9 6.74994 20.76 7.49994 20.21 7.81994Z" fill="#141414"/>
<path d="M11.43 14.1399V20.9599C11.43 21.7199 10.66 22.2199 9.97998 21.8899C7.91998 20.8799 4.44998 18.9899 4.44998 18.9899C3.22998 18.2999 2.22998 16.5599 2.22998 15.1299V9.96994C2.22998 9.17994 3.05998 8.67994 3.73998 9.06994L10.93 13.2399C11.23 13.4299 11.43 13.7699 11.43 14.1399Z" fill="#141414"/>
<path d="M12.57 14.1399V20.9599C12.57 21.7199 13.34 22.2199 14.02 21.8899C16.08 20.8799 19.55 18.9899 19.55 18.9899C20.77 18.2999 21.77 16.5599 21.77 15.1299V9.96994C21.77 9.17994 20.94 8.67994 20.26 9.06994L13.07 13.2399C12.77 13.4299 12.57 13.7699 12.57 14.1399Z" fill="#141414"/>
</svg>
