<svg width="24" height="24" viewBox="0 0 24 24" fill="none" xmlns="http://www.w3.org/2000/svg">
<path d="M16.8571 5.12828L11.4762 2.2289C10.9048 1.9237 10.2286 1.9237 9.65714 2.2289L4.28571 5.12828C3.89524 5.34764 3.64762 5.76729 3.64762 6.22508C3.64762 6.69242 3.88571 7.11206 4.28571 7.32189L9.66667 10.2213C9.95238 10.3739 10.2667 10.4502 10.5714 10.4502C10.8762 10.4502 11.2 10.3739 11.4762 10.2213L16.8571 7.32189C17.2476 7.11206 17.4952 6.69242 17.4952 6.22508C17.4952 5.76729 17.2476 5.34764 16.8571 5.12828Z" fill="#141414"/>
<path d="M8.78095 11.2322L3.78095 8.73343C3.39048 8.53314 2.95238 8.56176 2.58095 8.78112C2.21905 9.01001 2 9.40105 2 9.83023V14.5608C2 15.381 2.45714 16.1154 3.19048 16.4874L8.19048 18.9862C8.3619 19.072 8.55238 19.1197 8.74286 19.1197C8.9619 19.1197 9.19048 19.0529 9.39048 18.9385C9.75238 18.7096 9.97143 18.3186 9.97143 17.8894V13.1588C9.9619 12.3386 9.50476 11.6042 8.78095 11.2322Z" fill="#141414"/>
<path d="M19.1429 9.83023V12.1764C18.6857 12.0429 18.2 11.9857 17.7143 11.9857C16.419 11.9857 15.1524 12.434 14.1524 13.2351C12.781 14.3128 12 15.9437 12 17.7082C12 18.1755 12.0571 18.6428 12.181 19.0911C12.0381 19.072 11.8952 19.0148 11.7619 18.9289C11.4 18.7096 11.181 18.3186 11.181 17.8894V13.1588C11.181 12.3386 11.6381 11.6042 12.3619 11.2322L17.3619 8.73343C17.7524 8.53314 18.1905 8.56176 18.5619 8.78112C18.9238 9.01001 19.1429 9.40105 19.1429 9.83023Z" fill="#141414"/>
<path d="M21.0286 14.99C20.2476 14.0267 19.0571 13.4163 17.7143 13.4163C16.7048 13.4163 15.7714 13.7692 15.0381 14.3605C14.0476 15.1426 13.4286 16.3538 13.4286 17.7082C13.4286 19.0529 14.0381 20.2451 15 21.0272C15.7333 21.6376 16.6857 22 17.7143 22C18.8 22 19.781 21.5899 20.5429 20.9318C21.4286 20.1402 22 18.9957 22 17.7082C22 16.6781 21.6381 15.7244 21.0286 14.99ZM18.6952 17.9752C18.6952 18.2232 18.5619 18.4616 18.3524 18.5856L17.0095 19.3867C16.8952 19.4535 16.7714 19.4917 16.6381 19.4917C16.4 19.4917 16.1619 19.3677 16.0286 19.1483C15.8286 18.805 15.9333 18.3662 16.2762 18.166L17.2667 17.5746V16.3729C17.2667 15.9819 17.5905 15.6576 17.981 15.6576C18.3714 15.6576 18.6952 15.9819 18.6952 16.3729V17.9752Z" fill="#141414"/>
</svg>
