<svg width="24" height="24" viewBox="0 0 24 24" fill="none" xmlns="http://www.w3.org/2000/svg">
<path d="M21.3023 9.90698C20.9209 9.90698 20.6047 9.5907 20.6047 9.2093V7.34884C20.6047 4.94884 19.0512 3.39535 16.6512 3.39535H7.34884C4.94884 3.39535 3.39535 4.94884 3.39535 7.34884V9.2093C3.39535 9.5907 3.07907 9.90698 2.69767 9.90698C2.31628 9.90698 2 9.5907 2 9.2093V7.34884C2 4.14884 4.14884 2 7.34884 2H16.6512C19.8512 2 22 4.14884 22 7.34884V9.2093C22 9.5907 21.6837 9.90698 21.3023 9.90698Z" fill="#141414"/>
<path d="M16.6512 22H7.34884C4.14884 22 2 19.8512 2 16.6512V14.7907C2 14.4093 2.31628 14.093 2.69767 14.093C3.07907 14.093 3.39535 14.4093 3.39535 14.7907V16.6512C3.39535 19.0512 4.94884 20.6047 7.34884 20.6047H16.6512C19.0512 20.6047 20.6047 19.0512 20.6047 16.6512V14.7907C20.6047 14.4093 20.9209 14.093 21.3023 14.093C21.6837 14.093 22 14.4093 22 14.7907V16.6512C22 19.8512 19.8512 22 16.6512 22Z" fill="#141414"/>
<path d="M16.093 8.47442L12.5953 6.58605C12.2233 6.3907 11.786 6.3907 11.414 6.58605L7.90698 8.47442C7.65581 8.61395 7.49767 8.88372 7.49767 9.1814C7.49767 9.48837 7.65581 9.75814 7.90698 9.89767L11.4047 11.786C11.5907 11.8884 11.7953 11.9349 12 11.9349C12.2047 11.9349 12.4093 11.8884 12.5953 11.786L16.093 9.89767C16.3442 9.75814 16.5023 9.48837 16.5023 9.1814C16.5023 8.88372 16.3442 8.61395 16.093 8.47442Z" fill="#141414"/>
<path d="M10.8279 12.4372L7.57209 10.8093C7.32093 10.6884 7.03256 10.6977 6.7907 10.8465C6.55814 10.9953 6.4186 11.2465 6.4186 11.5256V14.6047C6.4186 15.1349 6.71628 15.6186 7.1907 15.8512L10.4465 17.4791C10.5581 17.5349 10.6791 17.5628 10.8093 17.5628C10.9581 17.5628 11.0977 17.5256 11.2279 17.4419C11.4698 17.293 11.6093 17.0419 11.6093 16.7628V13.6837C11.6 13.1535 11.3116 12.6791 10.8279 12.4372Z" fill="#141414"/>
<path d="M17.2 10.8465C16.9581 10.6977 16.6698 10.6884 16.4186 10.8093L13.1628 12.4372C12.6884 12.6791 12.3907 13.1535 12.3907 13.6837V16.7628C12.3907 17.0419 12.5302 17.293 12.7721 17.4419C12.9023 17.5256 13.0419 17.5628 13.1907 17.5628C13.3116 17.5628 13.4326 17.5349 13.5535 17.4791L16.8093 15.8512C17.2837 15.6093 17.5814 15.1349 17.5814 14.6047V11.5256C17.5814 11.2465 17.4419 10.9953 17.2 10.8465Z" fill="#141414"/>
</svg>
