<svg width="24" height="24" viewBox="0 0 24 24" fill="none" xmlns="http://www.w3.org/2000/svg">
<path d="M16.8604 5.12903L11.4783 2.22895C10.9067 1.92368 10.2304 1.92368 9.65882 2.22895L4.28622 5.12903C3.89565 5.34845 3.64798 5.76819 3.64798 6.2261C3.64798 6.69355 3.88613 7.1133 4.28622 7.32317L9.66835 10.2232C9.95412 10.3759 10.2685 10.4522 10.5733 10.4522C10.8781 10.4522 11.202 10.3759 11.4783 10.2232L16.8604 7.32317C17.251 7.1133 17.4986 6.69355 17.4986 6.2261C17.4986 5.76819 17.251 5.34845 16.8604 5.12903Z" fill="#141414"/>
<path d="M8.78244 11.2345L3.78134 8.73505C3.39078 8.53472 2.95259 8.56333 2.58108 8.78275C2.2191 9.0117 2 9.40283 2 9.83212V14.5638C2 15.3842 2.45724 16.1188 3.19074 16.4908L8.19183 18.9903C8.3633 19.0761 8.55382 19.1238 8.74433 19.1238C8.96343 19.1238 9.19205 19.057 9.3921 18.9426C9.75408 18.7136 9.97317 18.3225 9.97317 17.8932V13.1615C9.96365 12.3411 9.50641 11.6065 8.78244 11.2345Z" fill="#141414"/>
<path d="M19.1466 9.83212V12.1789C18.6894 12.0453 18.2035 11.9881 17.7177 11.9881C16.4222 11.9881 15.1553 12.4365 14.155 13.2378C12.7833 14.3158 12.0022 15.9471 12.0022 17.7119C12.0022 18.1794 12.0593 18.6468 12.1832 19.0952C12.0403 19.0761 11.8974 19.0189 11.764 18.933C11.4021 18.7136 11.183 18.3225 11.183 17.8932V13.1615C11.183 12.3411 11.6402 11.6065 12.3642 11.2345L17.3653 8.73505C17.7558 8.53472 18.194 8.56333 18.5655 8.78275C18.9275 9.0117 19.1466 9.40283 19.1466 9.83212Z" fill="#141414"/>
<path d="M20.747 14.6783C19.8992 13.8293 18.7751 13.4 17.6606 13.4191C16.5841 13.4286 15.5077 13.8579 14.6885 14.6783C14.1169 15.2411 13.7454 15.9471 13.5644 16.6816C13.4597 17.0823 13.4215 17.4925 13.4501 17.9027V17.9504C13.4501 18.0172 13.4597 18.0744 13.4692 18.1508C13.4692 18.1508 13.4692 18.1508 13.4787 18.1603V18.1889C13.5644 19.1238 13.9645 20.0301 14.6885 20.7456C15.7935 21.8522 17.3462 22.2242 18.7465 21.8713C19.1657 21.7663 19.5753 21.5946 19.9563 21.3657C20.2421 21.2035 20.5088 20.9936 20.747 20.7456C21.4614 20.0301 21.871 19.1238 21.9568 18.1794C21.9663 18.1794 21.9663 18.1603 21.9663 18.1508C21.9853 18.084 21.9853 18.0077 21.9853 17.9409C21.9853 17.9313 21.9949 17.9123 21.9949 17.8932C22.052 16.7389 21.6329 15.556 20.747 14.6783ZM19.3657 19.3432C19.0895 19.6199 18.6417 19.6199 18.356 19.3432L17.7273 18.7136L17.0795 19.3623C16.7937 19.6485 16.346 19.6485 16.0697 19.3623C15.784 19.0857 15.784 18.6373 16.0697 18.3511L16.7175 17.7024L16.0888 17.0728C15.8125 16.7866 15.8125 16.3382 16.0888 16.0616C16.3746 15.7754 16.8223 15.7754 17.1081 16.0616L17.7273 16.6912L18.3274 16.0806C18.6132 15.804 19.0609 15.804 19.3467 16.0806C19.6229 16.3668 19.6229 16.8152 19.3467 17.1014L18.737 17.7024L19.3657 18.3225C19.6515 18.6087 19.6515 19.057 19.3657 19.3432Z" fill="#141414"/>
</svg>
