<svg width="24" height="24" viewBox="0 0 24 24" fill="none" xmlns="http://www.w3.org/2000/svg">
<path d="M16.8571 5.1253L11.4762 2.22868C10.9048 1.92377 10.2286 1.92377 9.65714 2.22868L4.28571 5.1253C3.89524 5.34445 3.64762 5.7637 3.64762 6.22106C3.64762 6.68795 3.88571 7.10719 4.28571 7.31682L9.66667 10.2134C9.95238 10.3659 10.2667 10.4421 10.5714 10.4421C10.8762 10.4421 11.2 10.3659 11.4762 10.2134L16.8571 7.31682C17.2476 7.10719 17.4952 6.68795 17.4952 6.22106C17.4952 5.7637 17.2476 5.34445 16.8571 5.1253Z" fill="#141414"/>
<path d="M8.78095 11.2234L3.78095 8.72701C3.39048 8.52692 2.95238 8.5555 2.58095 8.77465C2.21905 9.00333 2 9.394 2 9.82277V14.5488C2 15.3683 2.45714 16.102 3.19048 16.4736L8.19048 18.97C8.3619 19.0557 8.55238 19.1034 8.74286 19.1034C8.9619 19.1034 9.19048 19.0367 9.39048 18.9223C9.75238 18.6937 9.97143 18.303 9.97143 17.8742V13.1482C9.9619 12.3287 9.50476 11.595 8.78095 11.2234Z" fill="#141414"/>
<path d="M19.1429 9.82277V12.1667C18.6857 12.0333 18.2 11.9762 17.7143 11.9762C16.419 11.9762 15.1524 12.424 14.1524 13.2244C12.781 14.3011 12 15.9304 12 17.6932C12 18.1601 12.0571 18.627 12.181 19.0748C12.0381 19.0557 11.8952 18.9986 11.7619 18.9128C11.4 18.6937 11.181 18.303 11.181 17.8742V13.1482C11.181 12.3287 11.6381 11.595 12.3619 11.2234L17.3619 8.72701C17.7524 8.52692 18.1905 8.5555 18.5619 8.77465C18.9238 9.00333 19.1429 9.394 19.1429 9.82277Z" fill="#141414"/>
<path d="M21.0286 14.9967C20.2476 14.0343 19.0571 13.4245 17.7143 13.4245C16.7048 13.4245 15.7714 13.777 15.0381 14.3678C14.0476 15.1491 13.4286 16.3592 13.4286 17.7122C13.4286 18.5126 13.6571 19.2749 14.0476 19.9228C14.3048 20.3516 14.6286 20.7232 15.0095 21.0281H15.019C15.7524 21.6379 16.6952 22 17.7143 22C18.8 22 19.781 21.5998 20.5333 20.9328C20.8667 20.647 21.1524 20.304 21.381 19.9228C21.7714 19.2749 22 18.5126 22 17.7122C22 16.6832 21.6381 15.7303 21.0286 14.9967ZM19.8667 17.1787L17.581 19.2939C17.4476 19.4178 17.2667 19.4845 17.0952 19.4845C16.9143 19.4845 16.7333 19.4178 16.5905 19.2749L15.5333 18.2172C15.2571 17.9409 15.2571 17.4836 15.5333 17.2072C15.8095 16.9309 16.2667 16.9309 16.5429 17.2072L17.1143 17.7789L18.8952 16.1305C19.181 15.8637 19.6381 15.8828 19.9048 16.1687C20.181 16.464 20.1619 16.9119 19.8667 17.1787Z" fill="#141414"/>
</svg>
