<svg width="24" height="24" viewBox="0 0 24 24" fill="none" xmlns="http://www.w3.org/2000/svg">
<path d="M16.8571 5.12828L11.4762 2.2289C10.9048 1.9237 10.2286 1.9237 9.65714 2.2289L4.28571 5.12828C3.89524 5.34764 3.64762 5.76729 3.64762 6.22508C3.64762 6.69242 3.88571 7.11206 4.28571 7.32189L9.66667 10.2213C9.95238 10.3739 10.2667 10.4502 10.5714 10.4502C10.8762 10.4502 11.2 10.3739 11.4762 10.2213L16.8571 7.32189C17.2476 7.11206 17.4952 6.69242 17.4952 6.22508C17.4952 5.76729 17.2476 5.34764 16.8571 5.12828Z" fill="#141414"/>
<path d="M8.78095 11.2322L3.78095 8.73343C3.39048 8.53314 2.95238 8.56176 2.58095 8.78112C2.21905 9.01001 2 9.40105 2 9.83023V14.5608C2 15.381 2.45714 16.1154 3.19048 16.4874L8.19048 18.9862C8.3619 19.072 8.55238 19.1197 8.74286 19.1197C8.9619 19.1197 9.19048 19.0529 9.39048 18.9385C9.75238 18.7096 9.97143 18.3186 9.97143 17.8894V13.1588C9.9619 12.3386 9.50476 11.6042 8.78095 11.2322Z" fill="#141414"/>
<path d="M19.1429 9.83023V12.1764C18.6857 12.0429 18.2 11.9857 17.7143 11.9857C16.419 11.9857 15.1524 12.434 14.1524 13.2351C12.781 14.3128 12 15.9437 12 17.7082C12 18.1755 12.0571 18.6428 12.181 19.0911C12.0381 19.072 11.8952 19.0148 11.7619 18.9289C11.4 18.7096 11.181 18.3186 11.181 17.8894V13.1588C11.181 12.3386 11.6381 11.6042 12.3619 11.2322L17.3619 8.73343C17.7524 8.53314 18.1905 8.56176 18.5619 8.78112C18.9238 9.01001 19.1429 9.40105 19.1429 9.83023Z" fill="#141414"/>
<path d="M21.0476 15.0377C21.0476 15.0281 21.0381 15.0186 21.0286 15.0091C20.9905 14.9518 20.9429 14.8946 20.8952 14.8469C20.8857 14.8374 20.8762 14.8183 20.8667 14.8088C20.0952 13.9504 18.9619 13.4163 17.7143 13.4163C16.5143 13.4163 15.419 13.9123 14.6381 14.7134C13.8857 15.4859 13.4286 16.5446 13.4286 17.7082C13.4286 18.5093 13.6571 19.2723 14.0476 19.9208C14.2571 20.2737 14.5238 20.598 14.8286 20.865C14.8476 20.8746 14.8571 20.8841 14.8667 20.8937C14.9143 20.9413 14.9619 20.9795 15.019 21.0272C15.019 21.0272 15.019 21.0272 15.0286 21.0272C15.0381 21.0367 15.0476 21.0463 15.0571 21.0463C15.7714 21.6471 16.6952 22 17.7143 22C19.2762 22 20.6381 21.1607 21.381 19.9208C21.6 19.5489 21.7714 19.1388 21.8762 18.7096C21.9619 18.3853 22 18.0515 22 17.7082C22 16.6972 21.6476 15.7625 21.0476 15.0377ZM19.3143 18.4044H18.4286V19.3295C18.4286 19.7206 18.1048 20.0448 17.7143 20.0448C17.3238 20.0448 17 19.7206 17 19.3295V18.4044H16.1143C15.7238 18.4044 15.4 18.0801 15.4 17.6891C15.4 17.298 15.7238 16.9738 16.1143 16.9738H17V16.1249C17 15.7339 17.3238 15.4096 17.7143 15.4096C18.1048 15.4096 18.4286 15.7339 18.4286 16.1249V16.9738H19.3143C19.7048 16.9738 20.0286 17.298 20.0286 17.6891C20.0286 18.0801 19.7143 18.4044 19.3143 18.4044Z" fill="#141414"/>
</svg>
