<svg width="24" height="24" viewBox="0 0 24 24" fill="none" xmlns="http://www.w3.org/2000/svg">
<path d="M14.7848 22C14.5337 22 14.3013 21.8605 14.1804 21.6465C14.0595 21.4326 14.0595 21.1628 14.1897 20.9488L15.166 19.3209C15.3612 18.986 15.7889 18.8837 16.1237 19.0791C16.4584 19.2744 16.5607 19.7023 16.3654 20.0372L16.1144 20.4558C18.6806 19.8512 20.6053 17.5442 20.6053 14.7907C20.6053 14.4093 20.9214 14.093 21.3027 14.093C21.6839 14.093 22 14.4093 22 14.7907C21.9907 18.7628 18.755 22 14.7848 22Z" fill="#141414"/>
<path d="M2.69735 9.90698C2.31613 9.90698 2 9.5907 2 9.2093C2 5.23721 5.2357 2 9.20595 2C9.457 2 9.68945 2.13953 9.81032 2.35349C9.93119 2.56744 9.9312 2.83721 9.80102 3.05116L8.82473 4.68837C8.62947 5.01395 8.20177 5.12558 7.86704 4.92093C7.54161 4.72558 7.43003 4.29767 7.63459 3.96279L7.88563 3.54419C5.31009 4.14884 3.3947 6.45581 3.3947 9.2093C3.3947 9.5907 3.07857 9.90698 2.69735 9.90698Z" fill="#141414"/>
<path d="M10.7587 13.7209L7.83914 12.1488C7.53231 11.9814 7.16039 11.9814 6.85356 12.1488L3.93398 13.7209C3.72013 13.8326 3.58996 14.0651 3.58996 14.3163C3.58996 14.5674 3.72013 14.8 3.93398 14.9116L6.85356 16.4837C7.01162 16.5674 7.17899 16.6047 7.34635 16.6047C7.51371 16.6047 7.68108 16.5674 7.83914 16.4837L10.7587 14.9116C10.9726 14.8 11.1027 14.5674 11.1027 14.3163C11.1027 14.0651 10.9633 13.8419 10.7587 13.7209Z" fill="#141414"/>
<path d="M6.37006 17.0326L3.65504 15.6744C3.45049 15.5721 3.20874 15.5814 3.00418 15.7023C2.81822 15.8233 2.69735 16.0372 2.69735 16.2698V18.8372C2.69735 19.2837 2.9391 19.6837 3.33891 19.8791L6.05393 21.2372C6.14691 21.2744 6.24919 21.3023 6.35146 21.3023C6.47234 21.3023 6.59321 21.2651 6.70479 21.2C6.90005 21.0791 7.02092 20.8651 7.02092 20.6326V18.0651C7.02092 17.6279 6.76987 17.2279 6.37006 17.0326Z" fill="#141414"/>
<path d="M11.6792 15.7023C11.484 15.5814 11.2422 15.5721 11.0284 15.6744L8.31334 17.0326C7.91353 17.2279 7.67178 17.6279 7.67178 18.0744V20.6419C7.67178 20.8744 7.79265 21.0884 7.98791 21.2093C8.09949 21.2651 8.22036 21.3023 8.34124 21.3023C8.44351 21.3023 8.54579 21.2744 8.63877 21.2279L11.3538 19.8698C11.7536 19.6744 11.9954 19.2744 11.9954 18.8279V16.2605C11.9954 16.0372 11.8745 15.8233 11.6792 15.7023Z" fill="#141414"/>
<path d="M20.0567 4.4L17.1371 2.82791C16.8303 2.66047 16.4584 2.66047 16.1516 2.82791L13.232 4.4C13.0181 4.51163 12.888 4.74419 12.888 4.99535C12.888 5.24651 13.0181 5.47907 13.232 5.5907L16.1516 7.16279C16.3096 7.24651 16.477 7.28372 16.6444 7.28372C16.8117 7.28372 16.9791 7.24651 17.1371 7.16279L20.0567 5.5907C20.2706 5.47907 20.4007 5.24651 20.4007 4.99535C20.4007 4.73488 20.2613 4.51163 20.0567 4.4Z" fill="#141414"/>
<path d="M15.6681 7.70233L12.953 6.34419C12.7485 6.24186 12.5067 6.25116 12.3022 6.37209C12.1162 6.49302 11.9954 6.70698 11.9954 6.93954V9.50698C11.9954 9.95349 12.2371 10.3535 12.6369 10.5488L15.3519 11.907C15.4449 11.9535 15.5472 11.9814 15.6495 11.9814C15.7703 11.9814 15.8912 11.9442 16.0028 11.8791C16.198 11.7581 16.3189 11.5442 16.3189 11.3116V8.74419C16.3189 8.29767 16.0679 7.89767 15.6681 7.70233Z" fill="#141414"/>
<path d="M20.9772 6.37209C20.782 6.25116 20.5402 6.24186 20.3264 6.34419L17.6113 7.70233C17.2115 7.89767 16.9698 8.29767 16.9698 8.74419V11.3116C16.9698 11.5442 17.0907 11.7581 17.2859 11.8791C17.3975 11.9442 17.5184 11.9814 17.6392 11.9814C17.7415 11.9814 17.8438 11.9535 17.9368 11.907L20.6518 10.5488C21.0516 10.3442 21.2934 9.94419 21.2934 9.50698V6.93954C21.2934 6.70698 21.1725 6.49302 20.9772 6.37209Z" fill="#141414"/>
</svg>
