<svg width="24" height="24" viewBox="0 0 24 24" fill="none" xmlns="http://www.w3.org/2000/svg">
<path d="M20.4033 7.82014L12.522 12.2822C12.2047 12.4623 11.8055 12.4623 11.478 12.2822L3.59672 7.82014C3.03378 7.5 2.89048 6.74966 3.32037 6.27944C3.6172 5.94929 3.95496 5.67917 4.3132 5.48908L9.8608 2.48772C11.0481 1.83743 12.9724 1.83743 14.1597 2.48772L19.7073 5.48908C20.0655 5.67917 20.4033 5.9593 20.7001 6.27944C21.1095 6.74966 20.9662 7.5 20.4033 7.82014Z" fill="#141414"/>
<path d="M11.4166 14.143V20.9661C11.4166 21.7265 10.6285 22.2267 9.93245 21.8965C7.82395 20.8861 4.27226 18.9952 4.27226 18.9952C3.02354 18.3049 2 16.5641 2 15.1335V9.97112C2 9.18076 2.84954 8.68053 3.54555 9.07071L10.9048 13.2426C11.2119 13.4327 11.4166 13.7729 11.4166 14.143Z" fill="#141414"/>
<path d="M12.5834 14.143V20.9661C12.5834 21.7265 13.3715 22.2267 14.0676 21.8965C16.1761 20.8861 19.7277 18.9952 19.7277 18.9952C20.9765 18.3049 22 16.5641 22 15.1335V9.97112C22 9.18076 21.1505 8.68053 20.4545 9.07071L13.0952 13.2426C12.7881 13.4327 12.5834 13.7729 12.5834 14.143Z" fill="#141414"/>
</svg>
