<svg width="24" height="24" viewBox="0 0 24 24" fill="none" xmlns="http://www.w3.org/2000/svg">
<path d="M14.7848 22C14.5337 22 14.3013 21.8605 14.1804 21.6465C14.0595 21.4233 14.0595 21.1628 14.1897 20.9395L15.166 19.3116C15.3612 18.986 15.7889 18.8744 16.1237 19.0698C16.4584 19.2651 16.5607 19.693 16.3654 20.0279L16.1144 20.4465C18.6806 19.8419 20.6053 17.5349 20.6053 14.7814C20.6053 14.4 20.9214 14.0837 21.3027 14.0837C21.6839 14.0837 22 14.4 22 14.7814C21.9907 18.7628 18.755 22 14.7848 22Z" fill="#141414"/>
<path d="M2.69735 9.90698C2.31613 9.90698 2 9.5907 2 9.2093C2 5.23721 5.2357 2 9.20595 2C9.457 2 9.68945 2.13953 9.81032 2.35349C9.93119 2.57674 9.9312 2.83721 9.80102 3.06047L8.82473 4.68837C8.62947 5.01395 8.20177 5.12558 7.86704 4.92093C7.54161 4.72558 7.43003 4.29767 7.63459 3.96279L7.88563 3.54419C5.31009 4.14884 3.3947 6.45581 3.3947 9.2093C3.3947 9.5907 3.07857 9.90698 2.69735 9.90698Z" fill="#141414"/>
<path d="M16.0865 8.47442L12.5904 6.58605C12.2185 6.3907 11.7815 6.3907 11.4096 6.58605L7.90423 8.47442C7.65318 8.61395 7.49512 8.88372 7.49512 9.1814C7.49512 9.48837 7.65318 9.75814 7.90423 9.89767L11.4003 11.786C11.5862 11.8884 11.7908 11.9349 11.9954 11.9349C12.1999 11.9349 12.4045 11.8884 12.5904 11.786L16.0865 9.89767C16.3375 9.75814 16.4956 9.48837 16.4956 9.1814C16.4956 8.88372 16.3375 8.61395 16.0865 8.47442Z" fill="#141414"/>
<path d="M10.8238 12.4372L7.5695 10.8093C7.31846 10.6884 7.03022 10.6977 6.78847 10.8465C6.55602 10.9953 6.41655 11.2465 6.41655 11.5256V14.6047C6.41655 15.1349 6.71409 15.6186 7.18828 15.8512L10.4426 17.4791C10.5542 17.5349 10.675 17.5628 10.8052 17.5628C10.954 17.5628 11.0934 17.5256 11.2236 17.4419C11.4654 17.293 11.6048 17.0419 11.6048 16.7628V13.6837C11.5955 13.1535 11.3073 12.6791 10.8238 12.4372Z" fill="#141414"/>
<path d="M17.1929 10.8465C16.9512 10.6977 16.6629 10.6884 16.4119 10.8093L13.1576 12.4372C12.6834 12.6791 12.3859 13.1535 12.3859 13.6837V16.7628C12.3859 17.0419 12.5253 17.293 12.7671 17.4419C12.8973 17.5256 13.0367 17.5628 13.1855 17.5628C13.3064 17.5628 13.4272 17.5349 13.5481 17.4791L16.8024 15.8512C17.2766 15.6093 17.5742 15.1349 17.5742 14.6047V11.5256C17.5742 11.2465 17.4347 10.9953 17.1929 10.8465Z" fill="#141414"/>
</svg>
