<svg width="24" height="24" viewBox="0 0 24 24" fill="none" xmlns="http://www.w3.org/2000/svg">
<path d="M16.1971 2H7.8129C4.17108 2 2 4.18 2 7.82V16.19C2 19.83 4.17108 22 7.8129 22H16.1871C19.8289 22 22 19.83 22 16.19V7.82C22.01 4.18 19.8389 2 16.1971 2ZM11.5748 16.79C11.5748 17.09 11.4247 17.36 11.1646 17.52C11.0245 17.61 10.8744 17.65 10.7143 17.65C10.5843 17.65 10.4542 17.62 10.3241 17.56L6.8224 15.81C6.32215 15.55 6.00199 15.04 6.00199 14.47V11.16C6.00199 10.86 6.15207 10.59 6.4122 10.43C6.67233 10.27 6.98248 10.26 7.25262 10.39L10.7544 12.14C11.2646 12.4 11.5848 12.91 11.5848 13.48V16.79H11.5748ZM11.3647 11.44L7.60279 9.41C7.33266 9.26 7.16257 8.97 7.16257 8.64C7.16257 8.32 7.33266 8.02 7.60279 7.87L11.3647 5.84C11.7649 5.63 12.2351 5.63 12.6353 5.84L16.3972 7.87C16.6673 8.02 16.8374 8.31 16.8374 8.64C16.8374 8.97 16.6673 9.26 16.3972 9.41L12.6353 11.44C12.4352 11.55 12.2151 11.6 11.995 11.6C11.7749 11.6 11.5648 11.55 11.3647 11.44ZM18.008 14.47C18.008 15.04 17.6878 15.56 17.1776 15.81L13.6758 17.56C13.5558 17.62 13.4257 17.65 13.2856 17.65C13.1255 17.65 12.9755 17.61 12.8354 17.52C12.5753 17.36 12.4252 17.09 12.4252 16.79V13.48C12.4252 12.91 12.7454 12.39 13.2556 12.14L16.7574 10.39C17.0275 10.26 17.3376 10.27 17.5978 10.43C17.8579 10.59 18.008 10.86 18.008 11.16V14.47Z" fill="#141414"/>
</svg>
