<svg width="24" height="24" viewBox="0 0 24 24" fill="none" xmlns="http://www.w3.org/2000/svg">
<path d="M16.9811 5.13426L11.5552 2.22934C10.979 1.92355 10.2972 1.92355 9.72102 2.22934L4.30478 5.13426C3.91105 5.35404 3.66136 5.77449 3.66136 6.23316C3.66136 6.70139 3.90145 7.12183 4.30478 7.33206L9.73062 10.237C10.0187 10.3899 10.3356 10.4663 10.6429 10.4663C10.9502 10.4663 11.2767 10.3899 11.5552 10.237L16.9811 7.33206C17.3748 7.12183 17.6245 6.70139 17.6245 6.23316C17.6245 5.77449 17.3748 5.35404 16.9811 5.13426Z" fill="#141414"/>
<path d="M8.83752 11.2499L3.79581 8.7463C3.40208 8.54563 2.96033 8.5743 2.5858 8.79408C2.22087 9.02341 2 9.41519 2 9.8452V14.5848C2 15.4066 2.46096 16.1424 3.20041 16.5151L8.24212 19.0186C8.41498 19.1046 8.60704 19.1524 8.79911 19.1524C9.01998 19.1524 9.25046 19.0855 9.45213 18.9709C9.81705 18.7415 10.0379 18.3497 10.0379 17.9197V13.1801C10.0283 12.3583 9.56737 11.6226 8.83752 11.2499Z" fill="#141414"/>
<path d="M19.2859 9.8452V12.1959C18.8249 12.0621 18.3351 12.0048 17.8454 12.0048C16.5393 12.0048 15.2621 12.4539 14.2538 13.2566C12.8709 14.3364 12.0834 15.9704 12.0834 17.7382C12.0834 18.2064 12.141 18.6746 12.2659 19.1237C12.1218 19.1046 11.9778 19.0473 11.8433 18.9613C11.4784 18.7415 11.2575 18.3497 11.2575 17.9197V13.1801C11.2575 12.3583 11.7185 11.6226 12.4483 11.2499L17.4901 8.7463C17.8838 8.54563 18.3255 8.5743 18.7001 8.79408C19.065 9.02341 19.2859 9.41519 19.2859 9.8452Z" fill="#141414"/>
<path d="M21.7635 20.6049L20.9568 19.8022C21.3794 19.1715 21.6291 18.4071 21.6291 17.5948C21.6291 15.3684 19.814 13.5624 17.5765 13.5624C15.3389 13.5624 13.5239 15.3684 13.5239 17.5948C13.5239 19.8213 15.3389 21.6273 17.5765 21.6273C18.3928 21.6273 19.161 21.3789 19.7948 20.9584L20.6015 21.7611C20.7648 21.9236 20.9664 22 21.1777 22C21.389 22 21.6003 21.9236 21.7539 21.7611C22.0804 21.4362 22.0804 20.9202 21.7635 20.6049Z" fill="#141414"/>
</svg>
