<svg width="24" height="24" viewBox="0 0 24 24" fill="none" xmlns="http://www.w3.org/2000/svg">
<path d="M6 3C4.34315 3 3 4.34315 3 6V18C3 19.6569 4.34315 21 6 21H13.7639C13.2889 20.4692 13 19.7684 13 19C13 17.7042 13.8216 16.6002 14.9723 16.1807L14.382 15H9.61803L8.89443 16.4472C8.64744 16.9412 8.04676 17.1414 7.55279 16.8944C7.05881 16.6474 6.85858 16.0468 7.10557 15.5528L11.1056 7.55279C11.275 7.214 11.6212 7 12 7C12.3788 7 12.725 7.214 12.8944 7.55279L16.3836 14.5311C16.8977 13.6173 17.8768 13 19 13C19.7684 13 20.4692 13.2889 21 13.7639V6C21 4.34315 19.6569 3 18 3H6Z" fill="#141414"/>
<path d="M12 10.2361L13.382 13H10.618L12 10.2361Z" fill="#141414"/>
<path fill-rule="evenodd" clip-rule="evenodd" d="M19 15C19.5523 15 20 15.4477 20 16V18H22C22.5523 18 23 18.4477 23 19C23 19.5523 22.5523 20 22 20H20V22C20 22.5523 19.5523 23 19 23C18.4477 23 18 22.5523 18 22V20H16C15.4477 20 15 19.5523 15 19C15 18.4477 15.4477 18 16 18H18V16C18 15.4477 18.4477 15 19 15Z" fill="#141414"/>
</svg>
