<svg width="24" height="24" viewBox="0 0 24 24" fill="none" xmlns="http://www.w3.org/2000/svg">
<path d="M5 2C3.34315 2 2 3.34315 2 5V17C2 18.6569 3.34315 20 5 20H12.7639C12.2889 19.4692 12 18.7684 12 18C12 16.7042 12.8216 15.6002 13.9723 15.1807L13.382 14H8.61803L7.89443 15.4472C7.64744 15.9412 7.04676 16.1414 6.55279 15.8944C6.05881 15.6474 5.85858 15.0468 6.10557 14.5528L10.1056 6.55279C10.275 6.214 10.6212 6 11 6C11.3788 6 11.725 6.214 11.8944 6.55279L15.3836 13.5311C15.8977 12.6173 16.8768 12 18 12C18.7684 12 19.4692 12.2889 20 12.7639V5C20 3.34315 18.6569 2 17 2H5Z" fill="#141414"/>
<path d="M11 9.23607L12.382 12H9.61803L11 9.23607Z" fill="#141414"/>
<path fill-rule="evenodd" clip-rule="evenodd" d="M18 14C18.5523 14 19 14.4477 19 15V17H21C21.5523 17 22 17.4477 22 18C22 18.5523 21.5523 19 21 19H19V21C19 21.5523 18.5523 22 18 22C17.4477 22 17 21.5523 17 21V19H15C14.4477 19 14 18.5523 14 18C14 17.4477 14.4477 17 15 17H17V15C17 14.4477 17.4477 14 18 14Z" fill="#141414"/>
</svg>
