<svg width="24" height="24" viewBox="0 0 24 24" fill="none" xmlns="http://www.w3.org/2000/svg">
<path d="M5.15789 2C3.41384 2 2 3.41384 2 5.15789V17.7895C2 19.5335 3.41384 20.9474 5.15789 20.9474H13.5789C13.5789 20.1939 13.847 19.4404 14.383 18.8421C13.4004 17.7455 13.3184 16.1272 14.1369 14.9434L13.981 14.6316H8.96635L8.20466 16.155C7.94467 16.6749 7.31238 16.8857 6.79241 16.6257C6.27243 16.3657 6.06167 15.7334 6.32166 15.2135L10.5322 6.79241C10.7105 6.43579 11.075 6.21053 11.4737 6.21053C11.8724 6.21053 12.2369 6.43579 12.4152 6.79241L15.869 13.7C16.8824 13.4113 18.0118 13.639 18.8421 14.383C19.4404 13.847 20.1939 13.5789 20.9474 13.5789V5.15789C20.9474 3.41384 19.5335 2 17.7895 2H5.15789Z" fill="#141414"/>
<path d="M11.4737 9.61691L12.9284 12.5263H10.019L11.4737 9.61691Z" fill="#141414"/>
<path fill-rule="evenodd" clip-rule="evenodd" d="M15.9925 15.9925C16.4036 15.5814 17.0701 15.5814 17.4812 15.9925L18.8421 17.3535L20.203 15.9925C20.6141 15.5814 21.2806 15.5814 21.6917 15.9925C22.1028 16.4036 22.1028 17.0701 21.6917 17.4812L20.3308 18.8421L21.6917 20.203C22.1028 20.6141 22.1028 21.2806 21.6917 21.6917C21.2806 22.1028 20.6141 22.1028 20.203 21.6917L18.8421 20.3308L17.4812 21.6917C17.0701 22.1028 16.4036 22.1028 15.9925 21.6917C15.5814 21.2806 15.5814 20.6141 15.9925 20.203L17.3535 18.8421L15.9925 17.4812C15.5814 17.0701 15.5814 16.4036 15.9925 15.9925Z" fill="#141414"/>
</svg>
