<svg width="24" height="24" viewBox="0 0 24 24" fill="none" xmlns="http://www.w3.org/2000/svg">
<path fill-rule="evenodd" clip-rule="evenodd" d="M3 6C3 4.34315 4.34315 3 6 3H18C19.6569 3 21 4.34315 21 6V18C21 19.6569 19.6569 21 18 21H6C4.34315 21 3 19.6569 3 18V6ZM12 7C12.3788 7 12.725 7.214 12.8944 7.55279L16.8944 15.5528C17.1414 16.0468 16.9412 16.6474 16.4472 16.8944C15.9532 17.1414 15.3526 16.9412 15.1056 16.4472L14.382 15H9.61803L8.89443 16.4472C8.64744 16.9412 8.04676 17.1414 7.55279 16.8944C7.05881 16.6474 6.85858 16.0468 7.10557 15.5528L11.1056 7.55279C11.275 7.214 11.6212 7 12 7ZM10.618 13H13.382L12 10.2361L10.618 13Z" fill="#141414"/>
</svg>
