<svg width="24" height="24" viewBox="0 0 24 24" fill="none" xmlns="http://www.w3.org/2000/svg">
<path fill-rule="evenodd" clip-rule="evenodd" d="M2 5.33333C2 3.49238 3.49238 2 5.33333 2H18.6667C20.5076 2 22 3.49238 22 5.33333V18.6667C22 20.5076 20.5076 22 18.6667 22H5.33333C3.49238 22 2 20.5076 2 18.6667V5.33333ZM12 6.44444C12.4209 6.44444 12.8056 6.68223 12.9938 7.05865L17.4383 15.9475C17.7127 16.4964 17.4902 17.1638 16.9413 17.4383C16.3925 17.7127 15.7251 17.4902 15.4506 16.9413L14.6466 15.3333H9.35337L8.54936 16.9413C8.27493 17.4902 7.60752 17.7127 7.05865 17.4383C6.50979 17.1638 6.28732 16.4964 6.56175 15.9475L11.0062 7.05865C11.1944 6.68223 11.5791 6.44444 12 6.44444ZM10.4645 13.1111H13.5355L12 10.0401L10.4645 13.1111Z" fill="#141414"/>
</svg>
