<svg width="24" height="24" viewBox="0 0 24 24" fill="none" xmlns="http://www.w3.org/2000/svg">
<path d="M6 3C4.34315 3 3 4.34315 3 6V18C3 19.6569 4.34315 21 6 21H9.02119C9.00718 20.8638 9 20.7257 9 20.5858V19C9 17.9391 9.42143 16.9217 10.1716 16.1716L11.3431 15H9.61803L8.89443 16.4472C8.64744 16.9412 8.04676 17.1414 7.55279 16.8944C7.05881 16.6474 6.85858 16.0468 7.10557 15.5528L11.1056 7.55279C11.275 7.214 11.6212 7 12 7C12.3788 7 12.725 7.214 12.8944 7.55279L14.8597 11.4834L16.1716 10.1716C17.4803 8.86284 19.4703 8.65057 21 9.53475V6C21 4.34315 19.6569 3 18 3H6Z" fill="#141414"/>
<path d="M13.369 12.9741L12 10.2361L10.618 13H13.3431L13.369 12.9741Z" fill="#141414"/>
<path d="M20.4142 11.5858C19.6332 10.8047 18.3668 10.8047 17.5858 11.5858L17 12.1716L21.4142 16.5858L22 16C22.781 15.219 22.781 13.9526 22 13.1716L20.4142 11.5858Z" fill="#141414"/>
<path d="M20 18L15.5858 13.5858L11.5858 17.5858C11.2107 17.9609 11 18.4696 11 19V20.5858C11 21.6904 11.8954 22.5858 13 22.5858H14.5858C15.1162 22.5858 15.6249 22.3751 16 22L20 18Z" fill="#141414"/>
</svg>
