<svg width="24" height="24" viewBox="0 0 24 24" fill="none" xmlns="http://www.w3.org/2000/svg">
<path d="M5.06345 2C3.37155 2 2 3.37155 2 5.06345V17.3172C2 19.0091 3.37155 20.3807 5.06345 20.3807H8.14853C8.13422 20.2416 8.12689 20.1005 8.12689 19.9577V18.3384C8.12689 17.2551 8.55723 16.2161 9.32324 15.4501L10.5196 14.2538H8.758L8.01909 15.7316C7.76687 16.236 7.1535 16.4405 6.64907 16.1883C6.14465 15.9361 5.94019 15.3227 6.1924 14.8183L10.277 6.64907C10.45 6.30312 10.8036 6.08459 11.1903 6.08459C11.5771 6.08459 11.9307 6.30312 12.1037 6.64907L14.1106 10.6628L15.4501 9.32324C16.7865 7.98684 18.8186 7.77007 20.3807 8.67295V5.06345C20.3807 3.37155 19.0091 2 17.3172 2H5.06345Z" fill="#141414"/>
<path d="M12.5883 12.1851L11.1903 9.3891L9.77915 12.2115H12.5619L12.5883 12.1851Z" fill="#141414"/>
<path d="M19.7825 10.7674C18.9849 9.9698 17.6918 9.9698 16.8943 10.7674L16.2961 11.3656L20.8036 15.8731L21.4018 15.2749C22.1994 14.4774 22.1994 13.1843 21.4018 12.3867L19.7825 10.7674Z" fill="#141414"/>
<path d="M19.3595 17.3172L14.8519 12.8097L10.7674 16.8943C10.3844 17.2773 10.1692 17.7967 10.1692 18.3384V19.9577C10.1692 21.0856 11.0836 22 12.2115 22H13.8308C14.3725 22 14.8919 21.7848 15.2749 21.4018L19.3595 17.3172Z" fill="#141414"/>
</svg>
