<svg width="24" height="24" viewBox="0 0 24 24" fill="none" xmlns="http://www.w3.org/2000/svg">
<path d="M6 3C4.34315 3 3 4.34315 3 6V18C3 19.6569 4.34315 21 6 21H14C14 20.2842 14.2546 19.5683 14.7638 19C13.8304 17.9582 13.7525 16.4208 14.5301 15.2963L14.382 15H9.61803L8.89443 16.4472C8.64744 16.9412 8.04676 17.1414 7.55279 16.8944C7.05881 16.6474 6.85858 16.0468 7.10557 15.5528L11.1056 7.55279C11.275 7.214 11.6212 7 12 7C12.3788 7 12.725 7.214 12.8944 7.55279L16.1755 14.115C17.1382 13.8408 18.2112 14.0571 19 14.7638C19.5683 14.2546 20.2842 14 21 14V6C21 4.34315 19.6569 3 18 3H6Z" fill="#141414"/>
<path d="M12 10.2361L13.382 13H10.618L12 10.2361Z" fill="#141414"/>
<path fill-rule="evenodd" clip-rule="evenodd" d="M16.2929 16.2929C16.6834 15.9024 17.3166 15.9024 17.7071 16.2929L19 17.5858L20.2929 16.2929C20.6834 15.9024 21.3166 15.9024 21.7071 16.2929C22.0976 16.6834 22.0976 17.3166 21.7071 17.7071L20.4142 19L21.7071 20.2929C22.0976 20.6834 22.0976 21.3166 21.7071 21.7071C21.3166 22.0976 20.6834 22.0976 20.2929 21.7071L19 20.4142L17.7071 21.7071C17.3166 22.0976 16.6834 22.0976 16.2929 21.7071C15.9024 21.3166 15.9024 20.6834 16.2929 20.2929L17.5858 19L16.2929 17.7071C15.9024 17.3166 15.9024 16.6834 16.2929 16.2929Z" fill="#141414"/>
</svg>
