<svg width="24" height="24" viewBox="0 0 24 24" fill="none" xmlns="http://www.w3.org/2000/svg">
<path fill-rule="evenodd" clip-rule="evenodd" d="M11.3358 6.60834C10.6864 4.61819 12.5397 2.72482 14.4876 3.3882L19.296 5.02573C21.6835 5.83878 21.5205 9.34325 19.0684 9.92138L18.2848 10.1061C18.0991 10.1499 17.9541 10.298 17.9113 10.4878L17.7304 11.2883C17.1645 13.7936 13.7344 13.9601 12.9386 11.5209L11.3358 6.60834Z" fill="#141414"/>
<path d="M11.1943 2C9.63514 3.08204 8.75437 5.13682 9.4446 7.25236L11.0474 12.1649C12.2748 15.9269 16.9835 16.2454 18.9473 13.4227V20.4703C18.9473 21.6431 17.7072 22.3784 16.7105 21.7965L11.4682 18.736C11.1618 18.5571 10.7856 18.5571 10.4792 18.736L5.23682 21.7965C4.24012 22.3784 3 21.6431 3 20.4703V5.05489C3 3.36772 4.33872 2 5.99013 2H11.1943Z" fill="#141414"/>
</svg>
