<svg width="24" height="24" viewBox="0 0 24 24" fill="none" xmlns="http://www.w3.org/2000/svg">
<path d="M14.1708 2H7C5.34315 2 4 3.34315 4 5V20.1384C4 21.2901 5.24422 22.0122 6.24421 21.4408L11.5039 18.4353C11.8113 18.2596 12.1887 18.2596 12.4961 18.4353L17.7558 21.4408C18.7558 22.0122 20 21.2901 20 20.1384V9.82917C19.6401 9.70224 19.2996 9.50457 19 9.23618C17.8221 10.2916 16.0106 10.2533 14.8787 9.12132C13.7467 7.98937 13.7084 6.17791 14.7638 5C14.0138 4.16288 13.8161 3.00578 14.1708 2Z" fill="#141414"/>
<path fill-rule="evenodd" clip-rule="evenodd" d="M16.2929 2.29289C16.6834 1.90237 17.3166 1.90237 17.7071 2.29289L19 3.58579L20.2929 2.29289C20.6834 1.90237 21.3166 1.90237 21.7071 2.29289C22.0976 2.68342 22.0976 3.31658 21.7071 3.70711L20.4142 5L21.7071 6.29289C22.0976 6.68342 22.0976 7.31658 21.7071 7.70711C21.3166 8.09763 20.6834 8.09763 20.2929 7.70711L19 6.41421L17.7071 7.70711C17.3166 8.09763 16.6834 8.09763 16.2929 7.70711C15.9024 7.31658 15.9024 6.68342 16.2929 6.29289L17.5858 5L16.2929 3.70711C15.9024 3.31658 15.9024 2.68342 16.2929 2.29289Z" fill="#141414"/>
</svg>
