<svg width="24" height="24" viewBox="0 0 24 24" fill="none" xmlns="http://www.w3.org/2000/svg">
<path d="M13.1708 2H6C4.34315 2 3 3.36772 3 5.05489V20.4703C3 21.6431 4.24422 22.3784 5.24421 21.7965L10.5039 18.736C10.8113 18.5571 11.1887 18.5571 11.4961 18.736L16.7558 21.7965C17.7558 22.3784 19 21.6431 19 20.4703V9.97242C18.6401 9.84317 18.2996 9.64189 18 9.36858C16.8221 10.4433 15.0106 10.4043 13.8787 9.25162C12.7467 8.09896 12.7084 6.25436 13.7638 5.05489C13.0138 4.20246 12.8161 3.02418 13.1708 2Z" fill="#141414"/>
<path fill-rule="evenodd" clip-rule="evenodd" d="M15.2929 2.29825C15.6834 1.90058 16.3166 1.90058 16.7071 2.29825L18 3.6148L19.2929 2.29825C19.6834 1.90058 20.3166 1.90058 20.7071 2.29825C21.0976 2.69592 21.0976 3.34067 20.7071 3.73834L19.4142 5.05489L20.7071 6.37144C21.0976 6.76911 21.0976 7.41386 20.7071 7.81153C20.3166 8.2092 19.6834 8.2092 19.2929 7.81153L18 6.49498L16.7071 7.81153C16.3166 8.2092 15.6834 8.2092 15.2929 7.81153C14.9024 7.41386 14.9024 6.76911 15.2929 6.37144L16.5858 5.05489L15.2929 3.73834C14.9024 3.34067 14.9024 2.69592 15.2929 2.29825Z" fill="#141414"/>
</svg>
