<svg width="24" height="24" viewBox="0 0 24 24" fill="none" xmlns="http://www.w3.org/2000/svg">
<path d="M11.3675 2H7C5.34315 2 4 3.34315 4 5V20.1384C4 21.2901 5.24422 22.0122 6.24421 21.4408L11.5039 18.4353C11.8113 18.2596 12.1887 18.2596 12.4961 18.4353L17.7558 21.4408C18.7558 22.0122 20 21.2901 20 20.1384V12.8494C19.5429 12.9581 19.1136 13 18.75 13H13.75C12.8124 13 11.4713 12.7435 10.2783 11.8846C8.93311 10.916 8 9.32798 8 7.25C8 5.17202 8.93311 3.58396 10.2783 2.6154C10.6346 2.35887 11.003 2.1571 11.3675 2Z" fill="#141414"/>
<path fill-rule="evenodd" clip-rule="evenodd" d="M13.1784 3.54527C13.7158 2.84296 14.7412 2 16.25 2C17.5045 2 18.4007 2.64223 18.9506 3.3613C19.2485 3.75079 19.467 4.19022 19.5996 4.61168C19.9733 4.7077 20.3725 4.87349 20.7406 5.13847C21.4668 5.66136 22 6.52408 22 7.75C22 8.97592 21.4668 9.83864 20.7406 10.3615C20.0653 10.8477 19.285 11 18.75 11H13.75C13.1316 11 12.2264 10.8227 11.4469 10.2615C10.6165 9.66364 10 8.67592 10 7.25C10 5.82408 10.6165 4.83636 11.4469 4.23847C12.0103 3.83284 12.6394 3.62779 13.1784 3.54527Z" fill="#141414"/>
</svg>
