<svg width="24" height="24" viewBox="0 0 24 24" fill="none" xmlns="http://www.w3.org/2000/svg">
<path fill-rule="evenodd" clip-rule="evenodd" d="M4 5C4 3.34315 5.34315 2 7 2H17C18.6569 2 20 3.34315 20 5V20.1384C20 21.2901 18.7558 22.0122 17.7558 21.4408L12.4961 18.4353C12.1887 18.2596 11.8113 18.2596 11.5039 18.4353L6.24421 21.4408C5.24422 22.0122 4 21.2901 4 20.1384V5ZM15.6247 7.21913C16.056 7.56414 16.1259 8.19343 15.7809 8.62469L11.7809 13.6247C11.6032 13.8468 11.3393 13.9827 11.0553 13.9985C10.7713 14.0142 10.494 13.9082 10.2929 13.7071L8.29289 11.7071C7.90237 11.3166 7.90237 10.6834 8.29289 10.2929C8.68342 9.90237 9.31658 9.90237 9.70711 10.2929L10.9171 11.5029L14.2191 7.37531C14.5641 6.94404 15.1934 6.87412 15.6247 7.21913Z" fill="#141414"/>
</svg>
