<svg width="24" height="24" viewBox="0 0 24 24" fill="none" xmlns="http://www.w3.org/2000/svg">
<path d="M10.3675 2H6C4.34315 2 3 3.36772 3 5.05489V20.4703C3 21.6431 4.24422 22.3784 5.24421 21.7965L10.5039 18.736C10.8113 18.5571 11.1887 18.5571 11.4961 18.736L16.7558 21.7965C17.7558 22.3784 19 21.6431 19 20.4703V13.0479C18.5429 13.1586 18.1136 13.2013 17.75 13.2013H12.75C11.8124 13.2013 10.4713 12.9401 9.27834 12.0655C7.93311 11.0792 7 9.46206 7 7.34606C7 5.23006 7.93311 3.61294 9.27834 2.62666C9.63462 2.36544 10.003 2.15997 10.3675 2Z" fill="#141414"/>
<path fill-rule="evenodd" clip-rule="evenodd" d="M12.1784 3.57354C12.7158 2.85838 13.7412 2 15.25 2C16.5045 2 17.4007 2.65398 17.9506 3.38621C18.2485 3.78283 18.467 4.2303 18.5996 4.65947C18.9733 4.75724 19.3725 4.92607 19.7406 5.19589C20.4668 5.72836 21 6.60686 21 7.85521C21 9.10356 20.4668 9.98206 19.7406 10.5145C19.0653 11.0096 18.285 11.1647 17.75 11.1647H12.75C12.1316 11.1647 11.2264 10.9842 10.4469 10.4127C9.61653 9.80386 9 8.79807 9 7.34606C9 5.89405 9.61653 4.88826 10.4469 4.27942C11.0103 3.86638 11.6394 3.65757 12.1784 3.57354Z" fill="#141414"/>
</svg>
