<svg width="24" height="24" viewBox="0 0 24 24" fill="none" xmlns="http://www.w3.org/2000/svg">
<path fill-rule="evenodd" clip-rule="evenodd" d="M13 4.03659C13 2.91181 13.8954 2 15 2H19C20.1046 2 21 2.91181 21 4.03659V10.5501C21 11.6841 19.6536 12.252 18.8661 11.4501L17 9.54987L15.1339 11.4501C14.3464 12.252 13 11.6841 13 10.5501V4.03659Z" fill="#141414"/>
<path d="M11 10.5501C11 13.4985 14.5007 14.9751 16.5481 12.8902L17 12.4301L17.4519 12.8902C17.9131 13.3598 18.448 13.6487 19 13.7808V20.4703C19 21.6431 17.7558 22.3784 16.7558 21.7965L11.4961 18.736C11.1887 18.5571 10.8113 18.5571 10.5039 18.736L5.24421 21.7965C4.24422 22.3784 3 21.6431 3 20.4703V5.05489C3 3.36772 4.34315 2 6 2H11.5351C11.1948 2.59911 11 3.29469 11 4.03659V10.5501Z" fill="#141414"/>
</svg>
