<svg width="24" height="24" viewBox="0 0 24 24" fill="none" xmlns="http://www.w3.org/2000/svg">
<path fill-rule="evenodd" clip-rule="evenodd" d="M14 4C14 2.89543 14.8954 2 16 2H20C21.1046 2 22 2.89543 22 4V10.3964C22 11.5101 20.6536 12.0678 19.8661 11.2803L18 9.41421L16.1339 11.2803C15.3464 12.0678 14 11.5101 14 10.3964V4Z" fill="#141414"/>
<path d="M12 10.3964C12 13.2919 15.5007 14.7419 17.5481 12.6945L18 12.2426L18.4519 12.6945C18.9131 13.1557 19.448 13.4394 20 13.5692V20.1384C20 21.2901 18.7558 22.0122 17.7558 21.4408L12.4961 18.4353C12.1887 18.2596 11.8113 18.2596 11.5039 18.4353L6.24421 21.4408C5.24422 22.0122 4 21.2901 4 20.1384V5C4 3.34315 5.34315 2 7 2H12.5351C12.1948 2.58835 12 3.27143 12 4V10.3964Z" fill="#141414"/>
</svg>
