<svg width="24" height="24" viewBox="0 0 24 24" fill="none" xmlns="http://www.w3.org/2000/svg">
<path fill-rule="evenodd" clip-rule="evenodd" d="M14.7071 2.29825C15.0976 2.69592 15.0976 3.34067 14.7071 3.73834L13.4142 5.05489L14.7071 6.37144C15.0976 6.76911 15.0976 7.41386 14.7071 7.81153C14.3166 8.2092 13.6834 8.2092 13.2929 7.81153L11.2929 5.77494C10.9024 5.37727 10.9024 4.73252 11.2929 4.33485L13.2929 2.29825C13.6834 1.90058 14.3166 1.90058 14.7071 2.29825ZM17.2929 2.29825C17.6834 1.90058 18.3166 1.90058 18.7071 2.29825L20.7071 4.33485C21.0976 4.73252 21.0976 5.37727 20.7071 5.77494L18.7071 7.81153C18.3166 8.2092 17.6834 8.2092 17.2929 7.81153C16.9024 7.41386 16.9024 6.76911 17.2929 6.37144L18.5858 5.05489L17.2929 3.73834C16.9024 3.34067 16.9024 2.69592 17.2929 2.29825Z" fill="#141414"/>
<path d="M10.7574 2L9.87868 2.89476C8.70711 4.08777 8.70711 6.02202 9.87868 7.21503L11.8787 9.25162C13.0106 10.4043 14.8221 10.4433 16 9.36858C16.8371 10.1323 17.9942 10.3336 19 9.97242V20.4703C19 21.6431 17.7558 22.3784 16.7558 21.7965L11.4961 18.736C11.1887 18.5571 10.8113 18.5571 10.5039 18.736L5.24421 21.7965C4.24422 22.3784 3 21.6431 3 20.4703V5.05489C3 3.36772 4.34315 2 6 2H10.7574Z" fill="#141414"/>
</svg>
