<svg width="24" height="24" viewBox="0 0 24 24" fill="none" xmlns="http://www.w3.org/2000/svg">
<path fill-rule="evenodd" clip-rule="evenodd" d="M15.7071 2.29289C16.0976 2.68342 16.0976 3.31658 15.7071 3.70711L14.4142 5L15.7071 6.29289C16.0976 6.68342 16.0976 7.31658 15.7071 7.70711C15.3166 8.09763 14.6834 8.09763 14.2929 7.70711L12.2929 5.70711C11.9024 5.31658 11.9024 4.68342 12.2929 4.29289L14.2929 2.29289C14.6834 1.90237 15.3166 1.90237 15.7071 2.29289ZM18.2929 2.29289C18.6834 1.90237 19.3166 1.90237 19.7071 2.29289L21.7071 4.29289C22.0976 4.68342 22.0976 5.31658 21.7071 5.70711L19.7071 7.70711C19.3166 8.09763 18.6834 8.09763 18.2929 7.70711C17.9024 7.31658 17.9024 6.68342 18.2929 6.29289L19.5858 5L18.2929 3.70711C17.9024 3.31658 17.9024 2.68342 18.2929 2.29289Z" fill="#141414"/>
<path d="M11.7574 2L10.8787 2.87868C9.70711 4.05025 9.70711 5.94975 10.8787 7.12132L12.8787 9.12132C14.0106 10.2533 15.8221 10.2916 17 9.23618C17.8371 9.98621 18.9942 10.1839 20 9.82917V20.1384C20 21.2901 18.7558 22.0122 17.7558 21.4408L12.4961 18.4353C12.1887 18.2596 11.8113 18.2596 11.5039 18.4353L6.24421 21.4408C5.24422 22.0122 4 21.2901 4 20.1384V5C4 3.34315 5.34315 2 7 2H11.7574Z" fill="#141414"/>
</svg>
