<svg width="24" height="24" viewBox="0 0 24 24" fill="none" xmlns="http://www.w3.org/2000/svg">
<path fill-rule="evenodd" clip-rule="evenodd" d="M12 6.5C12 3.46243 14.4624 1 17.5 1C20.5376 1 23 3.46243 23 6.5C23 9.53757 20.5376 12 17.5 12C14.4624 12 12 9.53757 12 6.5ZM17 4C17.5523 4 18 4.44772 18 5V6H19C19.5523 6 20 6.44772 20 7C20 7.55228 19.5523 8 19 8H17C16.4477 8 16 7.55228 16 7V5C16 4.44772 16.4477 4 17 4Z" fill="#141414"/>
<path d="M11.4995 2C10.5579 3.25349 10 4.81159 10 6.5C10 10.6421 13.3579 14 17.5 14C18.3766 14 19.2181 13.8496 20 13.5732V20.1384C20 21.2901 18.7558 22.0122 17.7558 21.4408L12.4961 18.4353C12.1887 18.2596 11.8113 18.2596 11.5039 18.4353L6.24421 21.4408C5.24422 22.0122 4 21.2901 4 20.1384V5C4 3.34315 5.34315 2 7 2H11.4995Z" fill="#141414"/>
</svg>
