<svg width="24" height="24" viewBox="0 0 24 24" fill="none" xmlns="http://www.w3.org/2000/svg">
<path fill-rule="evenodd" clip-rule="evenodd" d="M11 5.05489C11 3.36772 12.3431 2 14 2H18C19.6569 2 21 3.36772 21 5.05489V7.09149C21 8.77866 19.6569 10.1464 18 10.1464H15.3028L12.5547 12.012C12.2478 12.2203 11.8533 12.2397 11.5281 12.0625C11.203 11.8853 11 11.5402 11 11.1647V5.05489Z" fill="#141414"/>
<path fill-rule="evenodd" clip-rule="evenodd" d="M9.99963 2C9.37194 2.85095 9 3.90869 9 5.05489V11.1647C9 12.2913 9.60895 13.3265 10.5844 13.8581C11.5599 14.3897 12.7435 14.3314 13.6641 13.7065L15.9083 12.183H18C18.3425 12.183 18.6769 12.1479 19 12.0811V20.4703C19 21.6431 17.7558 22.3784 16.7558 21.7965L11.4961 18.736C11.1887 18.5571 10.8113 18.5571 10.5039 18.736L5.24421 21.7965C4.24422 22.3784 3 21.6431 3 20.4703V5.05489C3 3.36772 4.34315 2 6 2H9.99963Z" fill="#141414"/>
</svg>
