<svg width="24" height="24" viewBox="0 0 24 24" fill="none" xmlns="http://www.w3.org/2000/svg">
<path d="M16.1969 12.201C16.2346 12.1623 16.271 12.1229 16.3062 12.0827C16.6102 11.7459 16.8243 11.3567 16.9485 10.9462C17.5163 10.7741 18.0129 10.4383 18.3833 9.99368C18.9161 10.1198 19.4766 10.0985 20 9.92986V20.1384C20 21.2901 18.7558 22.0122 17.7558 21.4408L12.4961 18.4353C12.1887 18.2596 11.8113 18.2596 11.5039 18.4353L6.24421 21.4408C5.24422 22.0122 4 21.2901 4 20.1384V5C4 3.34315 5.34315 2 7 2H16.1385C16.113 2.06898 16.0901 2.13869 16.0699 2.209C15.5045 2.38866 15.0125 2.73113 14.6481 3.1807C13.6661 2.96214 12.597 3.24247 11.8437 4.01626L9.87083 6.04299C8.71513 7.23023 8.7407 9.12955 9.92793 10.2853L11.9547 12.2582C13.1419 13.4139 15.0412 13.3883 16.1969 12.201Z" fill="#141414"/>
<path fill-rule="evenodd" clip-rule="evenodd" d="M18.2929 2.29289C18.6834 1.90237 19.3166 1.90237 19.7071 2.29289L21.7071 4.29289C22.0976 4.68342 22.0976 5.31658 21.7071 5.70711L19.7071 7.70711C19.3166 8.09763 18.6834 8.09763 18.2929 7.70711C17.9024 7.31658 17.9024 6.68342 18.2929 6.29289L18.5858 6H17C16.4477 6 16 5.55228 16 5C16 4.44772 16.4477 4 17 4H18.5858L18.2929 3.70711C17.9024 3.31658 17.9024 2.68342 18.2929 2.29289ZM14.7071 5.29289C15.0976 5.68342 15.0976 6.31658 14.7071 6.70711L14.4142 7H16C16.5523 7 17 7.44772 17 8C17 8.55228 16.5523 9 16 9H14.4142L14.7071 9.29289C15.0976 9.68342 15.0976 10.3166 14.7071 10.7071C14.3166 11.0976 13.6834 11.0976 13.2929 10.7071L11.2929 8.70711C10.9024 8.31658 10.9024 7.68342 11.2929 7.29289L13.2929 5.29289C13.6834 4.90237 14.3166 4.90237 14.7071 5.29289Z" fill="#141414"/>
</svg>
