<svg width="24" height="24" viewBox="0 0 24 24" fill="none" xmlns="http://www.w3.org/2000/svg">
<path d="M15.1969 12.3877C15.2346 12.3483 15.271 12.3081 15.3062 12.2672C15.6102 11.9242 15.8243 11.5279 15.9485 11.1098C16.5163 10.9347 17.0129 10.5927 17.3833 10.1399C17.9161 10.2684 18.4766 10.2467 19 10.075V20.4703C19 21.6431 17.7558 22.3784 16.7558 21.7965L11.4961 18.736C11.1887 18.5571 10.8113 18.5571 10.5039 18.736L5.24421 21.7965C4.24422 22.3784 3 21.6431 3 20.4703V5.05489C3 3.36772 4.34315 2 6 2H15.1385C15.113 2.07024 15.0901 2.14123 15.0699 2.21282C14.5045 2.39577 14.0125 2.74451 13.6481 3.20231C12.6661 2.97975 11.597 3.26521 10.8437 4.05315L8.87083 6.11697C7.71513 7.32593 7.7407 9.26001 8.92793 10.4369L10.9547 12.4458C12.1419 13.6227 14.0412 13.5967 15.1969 12.3877Z" fill="#141414"/>
<path fill-rule="evenodd" clip-rule="evenodd" d="M17.2929 2.29825C17.6834 1.90058 18.3166 1.90058 18.7071 2.29825L20.7071 4.33485C21.0976 4.73252 21.0976 5.37727 20.7071 5.77494L18.7071 7.81153C18.3166 8.2092 17.6834 8.2092 17.2929 7.81153C16.9024 7.41386 16.9024 6.76911 17.2929 6.37144L17.5858 6.07319H16C15.4477 6.07319 15 5.61728 15 5.05489C15 4.4925 15.4477 4.03659 16 4.03659H17.5858L17.2929 3.73834C16.9024 3.34067 16.9024 2.69592 17.2929 2.29825ZM13.7071 5.35314C14.0976 5.75081 14.0976 6.39557 13.7071 6.79323L13.4142 7.09149H15C15.5523 7.09149 16 7.54739 16 8.10978C16 8.67217 15.5523 9.12808 15 9.12808H13.4142L13.7071 9.42633C14.0976 9.824 14.0976 10.4688 13.7071 10.8664C13.3166 11.2641 12.6834 11.2641 12.2929 10.8664L10.2929 8.82983C9.90237 8.43216 9.90237 7.78741 10.2929 7.38974L12.2929 5.35314C12.6834 4.95547 13.3166 4.95547 13.7071 5.35314Z" fill="#141414"/>
</svg>
