<svg width="24" height="24" viewBox="0 0 24 24" fill="none" xmlns="http://www.w3.org/2000/svg">
<path fill-rule="evenodd" clip-rule="evenodd" d="M10.5789 7.3293C10.5789 4.38601 12.9118 2 15.7895 2C18.6672 2 21 4.38601 21 7.3293C21 10.2726 18.6672 12.6586 15.7895 12.6586C12.9118 12.6586 10.5789 10.2726 10.5789 7.3293ZM15.3158 4.90689C15.839 4.90689 16.2632 5.34071 16.2632 5.87585V6.84481H17.2105C17.7337 6.84481 18.1579 7.27863 18.1579 7.81378C18.1579 8.34892 17.7337 8.78274 17.2105 8.78274H15.3158C14.7926 8.78274 14.3684 8.34892 14.3684 7.81378V5.87585C14.3684 5.34071 14.7926 4.90689 15.3158 4.90689Z" fill="#141414"/>
<path d="M10.1047 2.96896C9.21276 4.18355 8.68421 5.69329 8.68421 7.3293C8.68421 11.3429 11.8653 14.5965 15.7895 14.5965C16.6199 14.5965 17.4171 14.4508 18.1579 14.183V20.5444C18.1579 21.6604 16.9792 22.36 16.0318 21.8064L11.049 18.8941C10.7577 18.7239 10.4002 18.7239 10.1089 18.8941L5.12609 21.8064C4.17873 22.36 3 21.6604 3 20.5444V5.87585C3 4.27042 4.27245 2.96896 5.84211 2.96896H10.1047Z" fill="#141414"/>
</svg>
