<svg width="24" height="24" viewBox="0 0 24 24" fill="none" xmlns="http://www.w3.org/2000/svg">
<path fill-rule="evenodd" clip-rule="evenodd" d="M4 5.05489C4 3.36772 5.34315 2 7 2H17C18.6569 2 20 3.36772 20 5.05489V20.4703C20 21.6431 18.7558 22.3784 17.7558 21.7965L12.4961 18.736C12.1887 18.5571 11.8113 18.5571 11.5039 18.736L6.24421 21.7965C5.24422 22.3784 4 21.6431 4 20.4703V5.05489ZM15.6247 7.31463C16.056 7.66595 16.1259 8.30676 15.7809 8.74591L11.7809 13.8374C11.6032 14.0636 11.3393 14.202 11.0553 14.218C10.7713 14.234 10.494 14.1261 10.2929 13.9213L8.29289 11.8847C7.90237 11.4871 7.90237 10.8423 8.29289 10.4446C8.68342 10.047 9.31658 10.047 9.70711 10.4446L10.9171 11.6767L14.2191 7.47366C14.5641 7.03451 15.1934 6.96331 15.6247 7.31463Z" fill="#141414"/>
</svg>
