<svg width="24" height="24" viewBox="0 0 24 24" fill="none" xmlns="http://www.w3.org/2000/svg">
<path fill-rule="evenodd" clip-rule="evenodd" d="M12 5C12 3.34315 13.3431 2 15 2H19C20.6569 2 22 3.34315 22 5V7C22 8.65685 20.6569 10 19 10H16.3028L13.5547 11.8321C13.2478 12.0366 12.8533 12.0557 12.5281 11.8817C12.203 11.7077 12 11.3688 12 11V5Z" fill="#141414"/>
<path fill-rule="evenodd" clip-rule="evenodd" d="M10.9996 2C10.3719 2.83566 10 3.87439 10 5V11C10 12.1064 10.609 13.123 11.5844 13.645C12.5599 14.1671 13.7435 14.1099 14.6641 13.4962L16.9083 12H19C19.3425 12 19.6769 11.9656 20 11.9V20.1384C20 21.2901 18.7558 22.0122 17.7558 21.4408L12.4961 18.4353C12.1887 18.2596 11.8113 18.2596 11.5039 18.4353L6.24421 21.4408C5.24422 22.0122 4 21.2901 4 20.1384V5C4 3.34315 5.34315 2 7 2H10.9996Z" fill="#141414"/>
</svg>
