<svg width="24" height="24" viewBox="0 0 24 24" fill="none" xmlns="http://www.w3.org/2000/svg">
<path d="M13.468 14.4171H10.5285C9.2587 14.4171 8.49884 15.1861 8.49884 16.4711V19.446C8.49884 20.731 9.2587 21.5 10.5285 21.5H13.468C14.7377 21.5 15.4976 20.731 15.4976 19.446V16.4711C15.4976 15.1861 14.7377 14.4171 13.468 14.4171ZM14.4078 18.3936C14.3078 18.4948 14.1578 18.5657 13.9979 18.5758H12.5881L12.5981 19.9822C12.5881 20.1543 12.5281 20.2959 12.4081 20.4173C12.3082 20.5185 12.1582 20.5893 11.9982 20.5893C11.6683 20.5893 11.3983 20.3161 11.3983 19.9822V18.5657L9.99857 18.5758C9.66863 18.5758 9.39868 18.2925 9.39868 17.9586C9.39868 17.6246 9.66863 17.3514 9.99857 17.3514L11.3983 17.3616V15.945C11.3983 15.6111 11.6683 15.3278 11.9982 15.3278C12.3282 15.3278 12.5981 15.6111 12.5981 15.945L12.5881 17.3514H13.9979C14.3278 17.3514 14.5978 17.6246 14.5978 17.9586C14.5878 18.1306 14.5178 18.2722 14.4078 18.3936Z" fill="#141414"/>
<path d="M20.1668 17.6348C19.6368 18.1306 19.027 18.5049 18.3671 18.7579C17.7072 19.0109 16.9973 18.5252 16.9973 17.8068V16.4711C16.9973 14.4981 15.4176 12.8993 13.468 12.8993H10.5285C8.57882 12.8993 6.99911 14.4981 6.99911 16.4711V18.0699C6.99911 18.6264 6.54919 19.0817 5.99929 19.0817H5.54937C3.0998 18.7073 2 16.6937 2 14.8927C2 13.1928 2.97983 11.3108 5.10944 10.7846C4.51955 8.427 5.01946 6.21107 6.53919 4.60224C8.26888 2.7708 11.0284 2.04228 13.408 2.79104C15.5976 3.46897 17.1373 5.29029 17.6872 7.8199C19.5969 8.25499 21.1266 9.71204 21.7365 11.7357C22.3964 13.9314 21.7965 16.1878 20.1668 17.6348Z" fill="#141414"/>
</svg>
