<svg width="24" height="24" viewBox="0 0 24 24" fill="none" xmlns="http://www.w3.org/2000/svg">
<path d="M20 13.6586V20.1384C20 21.2901 18.7558 22.0122 17.7558 21.4408L12.4961 18.4353C12.1887 18.2596 11.8113 18.2596 11.5039 18.4353L6.24421 21.4408C5.24422 22.0122 4 21.2901 4 20.1384V5C4 3.34315 5.34315 2 7 2H12.1707C12.0602 2.31278 12 2.64936 12 3V8C12 11.3137 14.6863 14 18 14C18.7013 14 19.3744 13.8797 20 13.6586Z" fill="#141414"/>
<path fill-rule="evenodd" clip-rule="evenodd" d="M15 2C15.5523 2 16 2.44772 16 3V8C16 9.10457 16.8954 10 18 10C19.1046 10 20 9.10457 20 8V4.5C20 4.22386 19.7761 4 19.5 4C19.2239 4 19 4.22386 19 4.5V8C19 8.55228 18.5523 9 18 9C17.4477 9 17 8.55228 17 8V4.5C17 3.11929 18.1193 2 19.5 2C20.8807 2 22 3.11929 22 4.5V8C22 10.2091 20.2091 12 18 12C15.7909 12 14 10.2091 14 8V3C14 2.44772 14.4477 2 15 2Z" fill="#141414"/>
</svg>
