<svg width="24" height="24" viewBox="0 0 24 24" fill="none" xmlns="http://www.w3.org/2000/svg">
<path d="M21.297 13.7753C21.1761 13.7753 21.0552 13.7465 20.9436 13.6696L18.6188 12.2286C17.4098 11.4793 15.9033 11.4793 14.6851 12.2286C13.0298 13.2565 10.9747 13.2565 9.31938 12.2286C8.11046 11.4793 6.60396 11.4793 5.38574 12.2286L3.06089 13.6696C2.72611 13.8714 2.29834 13.7657 2.10305 13.4199C1.90777 13.0836 2.01006 12.6321 2.34484 12.4304L4.66968 10.9894C6.32498 9.96145 8.38014 9.96145 10.0354 10.9894C11.2444 11.7387 12.7509 11.7387 13.9691 10.9894C15.6244 9.96145 17.6795 9.96145 19.3348 10.9894L21.6597 12.4304C21.9944 12.6321 22.0967 13.074 21.9014 13.4199C21.762 13.6504 21.5295 13.7753 21.297 13.7753Z" fill="#141414"/>
<path d="M7.34791 7.05061C6.41797 7.05061 5.48803 6.79123 4.66038 6.28208L2.33554 4.84107C2.01006 4.62973 1.89847 4.18782 2.10305 3.85158C2.29834 3.50574 2.72611 3.40007 3.06089 3.60181L5.38574 5.04281C6.59466 5.79214 8.10116 5.79214 9.31938 5.04281C10.9747 4.0149 13.0298 4.0149 14.6851 5.04281C15.894 5.79214 17.4005 5.79214 18.6188 5.04281L20.9436 3.60181C21.2784 3.40007 21.7062 3.50574 21.9014 3.85158C22.0967 4.18782 21.9944 4.63933 21.6597 4.84107L19.3348 6.28208C17.6795 7.31 15.6244 7.31 13.9691 6.28208C12.7602 5.53276 11.2537 5.53276 10.0354 6.28208C9.20779 6.79123 8.27785 7.05061 7.34791 7.05061Z" fill="#141414"/>
<path d="M21.297 20.5C21.1761 20.5 21.0552 20.4712 20.9436 20.3943L18.6188 18.9533C17.4098 18.204 15.9033 18.204 14.6851 18.9533C13.0298 19.9812 10.9747 19.9812 9.31938 18.9533C8.11046 18.204 6.60396 18.204 5.38574 18.9533L3.06089 20.3943C2.72611 20.5961 2.29834 20.4904 2.10305 20.1446C1.90777 19.8083 2.01006 19.3568 2.34484 19.1551L4.66968 17.7141C6.32498 16.6861 8.38014 16.6861 10.0354 17.7141C11.2444 18.4634 12.7509 18.4634 13.9691 17.7141C15.6244 16.6861 17.6795 16.6861 19.3348 17.7141L21.6597 19.1551C21.9944 19.3568 22.0967 19.7987 21.9014 20.1446C21.762 20.3751 21.5295 20.5 21.297 20.5Z" fill="#141414"/>
</svg>
