<svg width="24" height="24" viewBox="0 0 24 24" fill="none" xmlns="http://www.w3.org/2000/svg">
<path fill-rule="evenodd" clip-rule="evenodd" d="M2 3.25C2 2.55964 2.55964 2 3.25 2H7C7.69036 2 8.25 2.55964 8.25 3.25C8.25 3.94036 7.69036 4.5 7 4.5H4.5V19.5H7C7.69036 19.5 8.25 20.0596 8.25 20.75C8.25 21.4404 7.69036 22 7 22H3.25C2.55964 22 2 21.4404 2 20.75V3.25ZM15.75 3.25C15.75 2.55964 16.3096 2 17 2H20.75C21.4404 2 22 2.55964 22 3.25V20.75C22 21.4404 21.4404 22 20.75 22H17C16.3096 22 15.75 21.4404 15.75 20.75C15.75 20.0596 16.3096 19.5 17 19.5H19.5V4.5H17C16.3096 4.5 15.75 3.94036 15.75 3.25ZM7 15.75C7 15.0596 7.55964 14.5 8.25 14.5H8.2625C8.95286 14.5 9.5125 15.0596 9.5125 15.75C9.5125 16.4404 8.95286 17 8.2625 17H8.25C7.55964 17 7 16.4404 7 15.75ZM10.75 15.75C10.75 15.0596 11.3096 14.5 12 14.5H12.0125C12.7029 14.5 13.2625 15.0596 13.2625 15.75C13.2625 16.4404 12.7029 17 12.0125 17H12C11.3096 17 10.75 16.4404 10.75 15.75ZM14.5 15.75C14.5 15.0596 15.0596 14.5 15.75 14.5H15.7625C16.4529 14.5 17.0125 15.0596 17.0125 15.75C17.0125 16.4404 16.4529 17 15.7625 17H15.75C15.0596 17 14.5 16.4404 14.5 15.75Z" fill="#141414"/>
</svg>
