<svg width="24" height="24" viewBox="0 0 24 24" fill="none" xmlns="http://www.w3.org/2000/svg">
<path fill-rule="evenodd" clip-rule="evenodd" d="M4 5C4 4.44772 4.44772 4 5 4H8C8.55228 4 9 4.44772 9 5C9 5.55228 8.55228 6 8 6H6V18H8C8.55228 18 9 18.4477 9 19C9 19.5523 8.55228 20 8 20H5C4.44772 20 4 19.5523 4 19V5ZM15 5C15 4.44772 15.4477 4 16 4H19C19.5523 4 20 4.44772 20 5V19C20 19.5523 19.5523 20 19 20H16C15.4477 20 15 19.5523 15 19C15 18.4477 15.4477 18 16 18H18V6H16C15.4477 6 15 5.55228 15 5ZM8 15C8 14.4477 8.44772 14 9 14H9.01C9.56228 14 10.01 14.4477 10.01 15C10.01 15.5523 9.56228 16 9.01 16H9C8.44772 16 8 15.5523 8 15ZM11 15C11 14.4477 11.4477 14 12 14H12.01C12.5623 14 13.01 14.4477 13.01 15C13.01 15.5523 12.5623 16 12.01 16H12C11.4477 16 11 15.5523 11 15ZM14 15C14 14.4477 14.4477 14 15 14H15.01C15.5623 14 16.01 14.4477 16.01 15C16.01 15.5523 15.5623 16 15.01 16H15C14.4477 16 14 15.5523 14 15Z" fill="#141414"/>
</svg>
