<svg width="24" height="24" viewBox="0 0 24 24" fill="none" xmlns="http://www.w3.org/2000/svg">
<path d="M19 13.8719V20.4703C19 21.6431 17.7558 22.3784 16.7558 21.7965L11.4961 18.736C11.1887 18.5571 10.8113 18.5571 10.5039 18.736L5.24421 21.7965C4.24422 22.3784 3 21.6431 3 20.4703V5.05489C3 3.36772 4.34315 2 6 2H11.1707C11.0602 2.3185 11 2.66125 11 3.0183V8.10978C11 11.4841 13.6863 14.2196 17 14.2196C17.7013 14.2196 18.3744 14.0971 19 13.8719Z" fill="#141414"/>
<path fill-rule="evenodd" clip-rule="evenodd" d="M14 2C14.5523 2 15 2.45591 15 3.0183V8.10978C15 9.23456 15.8954 10.1464 17 10.1464C18.1046 10.1464 19 9.23456 19 8.10978V4.54574C19 4.26455 18.7761 4.03659 18.5 4.03659C18.2239 4.03659 18 4.26455 18 4.54574V8.10978C18 8.67217 17.5523 9.12808 17 9.12808C16.4477 9.12808 16 8.67217 16 8.10978V4.54574C16 3.13977 17.1193 2 18.5 2C19.8807 2 21 3.13977 21 4.54574V8.10978C21 10.3593 19.2091 12.183 17 12.183C14.7909 12.183 13 10.3593 13 8.10978V3.0183C13 2.45591 13.4477 2 14 2Z" fill="#141414"/>
</svg>
