<svg width="24" height="24" viewBox="0 0 24 24" fill="none" xmlns="http://www.w3.org/2000/svg">
<path fill-rule="evenodd" clip-rule="evenodd" d="M2 3.25C2 2.55964 2.55964 2 3.25 2H7C7.69036 2 8.25 2.55964 8.25 3.25C8.25 3.94036 7.69036 4.5 7 4.5H4.5V19.5H7C7.69036 19.5 8.25 20.0596 8.25 20.75C8.25 21.4404 7.69036 22 7 22H3.25C2.55964 22 2 21.4404 2 20.75V3.25ZM15.75 3.25C15.75 2.55964 16.3096 2 17 2H20.75C21.4404 2 22 2.55964 22 3.25V20.75C22 21.4404 21.4404 22 20.75 22H17C16.3096 22 15.75 21.4404 15.75 20.75C15.75 20.0596 16.3096 19.5 17 19.5H19.5V4.5H17C16.3096 4.5 15.75 3.94036 15.75 3.25Z" fill="#141414"/>
</svg>
