<svg width="24" height="24" viewBox="0 0 24 24" fill="none" xmlns="http://www.w3.org/2000/svg">
<path d="M20.4686 11.6027H3.53143C3.29257 11.6027 3.07543 11.4432 2.99943 11.2199C0.0137143 1.55615 15.0834 -2.15415 16.8314 8.22193C18.6337 8.44519 20.056 9.44452 20.9354 10.7841C21.1634 11.1349 20.892 11.6027 20.4686 11.6027Z" fill="#141414"/>
<path d="M20.6857 15.6213H3.31429C2.86914 15.6213 2.5 15.2598 2.5 14.8239C2.5 14.388 2.86914 14.0266 3.31429 14.0266H20.6857C21.1309 14.0266 21.5 14.388 21.5 14.8239C21.5 15.2598 21.1309 15.6213 20.6857 15.6213Z" fill="#141414"/>
<path d="M18.5143 18.8106H5.48571C5.04057 18.8106 4.67143 18.4492 4.67143 18.0133C4.67143 17.5774 5.04057 17.2159 5.48571 17.2159H18.5143C18.9594 17.2159 19.3286 17.5774 19.3286 18.0133C19.3286 18.4492 18.9594 18.8106 18.5143 18.8106Z" fill="#141414"/>
<path d="M15.2571 22H8.74286C8.29771 22 7.92857 21.6385 7.92857 21.2027C7.92857 20.7668 8.29771 20.4053 8.74286 20.4053H15.2571C15.7023 20.4053 16.0714 20.7668 16.0714 21.2027C16.0714 21.6385 15.7023 22 15.2571 22Z" fill="#141414"/>
</svg>
