<svg width="24" height="24" viewBox="0 0 24 24" fill="none" xmlns="http://www.w3.org/2000/svg">
<path d="M20.1668 17.6348C19.6368 18.1306 19.027 18.5049 18.3671 18.7579C17.7072 19.0109 16.9973 18.5252 16.9973 17.8068V16.4711C16.9973 14.4981 15.4176 12.8993 13.468 12.8993H10.5285C8.57882 12.8993 6.99911 14.4981 6.99911 16.4711V18.0699C6.99911 18.6264 6.54919 19.0817 5.99929 19.0817H5.54937C3.0998 18.7073 2 16.6937 2 14.8927C2 13.1928 2.97983 11.3108 5.10944 10.7846C4.51955 8.427 5.01946 6.21107 6.53919 4.60224C8.26888 2.7708 11.0284 2.04228 13.408 2.79104C15.5976 3.46897 17.1373 5.29029 17.6872 7.8199C19.5969 8.25499 21.1266 9.71204 21.7365 11.7357C22.3964 13.9314 21.7965 16.1878 20.1668 17.6348Z" fill="#141414"/>
<path d="M13.468 14.4171H10.5285C9.2587 14.4171 8.49884 15.1861 8.49884 16.4711V19.446C8.49884 20.731 9.2587 21.5 10.5285 21.5H13.468C14.7377 21.5 15.4976 20.731 15.4976 19.446V16.4711C15.4976 15.1861 14.7377 14.4171 13.468 14.4171ZM10.4985 17.6955C10.0786 17.6955 9.74862 17.3514 9.74862 16.9366C9.74862 16.5217 10.0786 16.1777 10.4985 16.1777C10.9184 16.1777 11.2483 16.5217 11.2483 16.9366C11.2483 17.3514 10.9084 17.6955 10.4985 17.6955ZM11.9982 19.9721C11.5883 19.9721 11.2483 19.6281 11.2483 19.2132C11.2483 18.7984 11.5883 18.4544 11.9982 18.4544C12.4081 18.4544 12.7481 18.7984 12.7481 19.2132C12.7481 19.6281 12.4181 19.9721 11.9982 19.9721ZM13.5079 17.6955C13.088 17.6955 12.7581 17.3514 12.7581 16.9366C12.7581 16.5217 13.088 16.1777 13.5079 16.1777C13.9279 16.1777 14.2578 16.5217 14.2578 16.9366C14.2578 17.3514 13.9179 17.6955 13.5079 17.6955Z" fill="#141414"/>
</svg>
