<svg width="24" height="24" viewBox="0 0 24 24" fill="none" xmlns="http://www.w3.org/2000/svg">
<path d="M20.17 17.5701C19.64 18.0601 19.03 18.4301 18.37 18.6801C17.71 18.9301 17 18.4501 17 17.7401V16.4201C17 14.4701 15.42 12.8901 13.47 12.8901H10.53C8.58 12.8901 7 14.4701 7 16.4201V18.0001C7 18.5501 6.55 19.0001 6 19.0001H5.55C3.1 18.6301 2 16.6401 2 14.8601C2 13.1801 2.98 11.3201 5.11 10.8001C4.52 8.47006 5.02 6.28006 6.54 4.69006C8.27 2.88006 11.03 2.16006 13.41 2.90006C15.6 3.57006 17.14 5.37006 17.69 7.87006C19.6 8.30006 21.13 9.74006 21.74 11.7401C22.4 13.9101 21.8 16.1401 20.17 17.5701Z" fill="#141414"/>
<path d="M13.47 14.3901H10.53C9.26 14.3901 8.5 15.1501 8.5 16.4201V19.3601C8.5 20.6301 9.26 21.3901 10.53 21.3901H13.47C14.74 21.3901 15.5 20.6301 15.5 19.3601V16.4201C15.5 15.1501 14.74 14.3901 13.47 14.3901ZM10.5 17.6301C10.08 17.6301 9.75 17.2901 9.75 16.8801C9.75 16.4701 10.08 16.1301 10.5 16.1301C10.92 16.1301 11.25 16.4701 11.25 16.8801C11.25 17.2901 10.91 17.6301 10.5 17.6301ZM12 19.8801C11.59 19.8801 11.25 19.5401 11.25 19.1301C11.25 18.7201 11.59 18.3801 12 18.3801C12.41 18.3801 12.75 18.7201 12.75 19.1301C12.75 19.5401 12.42 19.8801 12 19.8801ZM13.51 17.6301C13.09 17.6301 12.76 17.2901 12.76 16.8801C12.76 16.4701 13.09 16.1301 13.51 16.1301C13.93 16.1301 14.26 16.4701 14.26 16.8801C14.26 17.2901 13.92 17.6301 13.51 17.6301Z" fill="#141414"/>
</svg>
