<svg width="24" height="24" viewBox="0 0 24 24" fill="none" xmlns="http://www.w3.org/2000/svg">
<path d="M20.17 17.5701C19.64 18.0601 19.03 18.4301 18.37 18.6801C17.71 18.9301 17 18.4501 17 17.7401V16.4201C17 14.4701 15.42 12.8901 13.47 12.8901H10.53C8.58 12.8901 7 14.4701 7 16.4201V18.0001C7 18.5501 6.55 19.0001 6 19.0001H5.55C3.1 18.6301 2 16.6401 2 14.8601C2 13.1801 2.98 11.3201 5.11 10.8001C4.52 8.47006 5.02 6.28006 6.54 4.69006C8.27 2.88006 11.03 2.16006 13.41 2.90006C15.6 3.57006 17.14 5.37006 17.69 7.87006C19.6 8.30006 21.13 9.74006 21.74 11.7401C22.4 13.9101 21.8 16.1401 20.17 17.5701Z" fill="#141414"/>
<path d="M13.47 14.3901H10.53C9.26 14.3901 8.5 15.1501 8.5 16.4201V19.3601C8.5 20.6301 9.26 21.3901 10.53 21.3901H13.47C14.74 21.3901 15.5 20.6301 15.5 19.3601V16.4201C15.5 15.1501 14.74 14.3901 13.47 14.3901ZM13.67 18.0501L12 19.9501L11.8 20.1801C11.53 20.4901 11.3 20.4101 11.3 19.9901V18.2101H10.54C10.19 18.2101 10.1 18.0001 10.33 17.7401L12 15.8401L12.2 15.6101C12.47 15.3001 12.7 15.3801 12.7 15.8001V17.5801H13.46C13.81 17.5701 13.9 17.7901 13.67 18.0501Z" fill="#141414"/>
</svg>
