<svg width="24" height="24" viewBox="0 0 24 24" fill="none" xmlns="http://www.w3.org/2000/svg">
<path d="M21.27 8.75997C21.27 9.77997 20.8 10.7 20.04 11.3C19.49 11.75 18.78 12.02 18.01 12.02C16.22 12.02 14.76 10.56 14.76 8.76997C14.76 7.87997 15.12 7.06997 15.72 6.47997V6.46997C16.31 5.87997 17.12 5.50997 18.01 5.50997C19.81 5.50997 21.27 6.96997 21.27 8.75997Z" fill="#141414"/>
<path d="M20.18 18.73C19.13 19.69 17.78 20.22 16.35 20.22H5.97C3.23 20.02 2.01 17.91 2.01 16.03C2.01 14.35 2.98 12.49 5.11 11.97C4.18 8.38997 5.96 5.88997 8.04 4.69997C10.1 3.52997 13 3.33997 15.18 4.94997C14.99 5.08997 14.82 5.23997 14.65 5.40997L14.22 5.85997V5.91997C13.6 6.72997 13.26 7.71997 13.26 8.75997C13.26 11.38 15.4 13.51 18.02 13.51C19.1 13.51 20.15 13.14 20.97 12.47C21.12 12.35 21.27 12.22 21.4 12.08C22.39 14.16 22.25 16.92 20.18 18.73Z" fill="#141414"/>
</svg>
