<svg width="24" height="24" viewBox="0 0 24 24" fill="none" xmlns="http://www.w3.org/2000/svg">
<path d="M20.1668 17.6348C19.6368 18.1306 19.027 18.5049 18.3671 18.7579C17.7072 19.0109 16.9973 18.5252 16.9973 17.8068V16.4711C16.9973 14.4981 15.4176 12.8993 13.468 12.8993H10.5285C8.57882 12.8993 6.99911 14.4981 6.99911 16.4711V18.0699C6.99911 18.6264 6.54919 19.0817 5.99929 19.0817H5.54937C3.0998 18.7073 2 16.6937 2 14.8927C2 13.1928 2.97983 11.3108 5.10944 10.7846C4.51955 8.427 5.01946 6.21107 6.53919 4.60224C8.26888 2.7708 11.0284 2.04228 13.408 2.79104C15.5976 3.46897 17.1373 5.29029 17.6872 7.8199C19.5969 8.25499 21.1266 9.71204 21.7365 11.7357C22.3964 13.9314 21.7965 16.1878 20.1668 17.6348Z" fill="#141414"/>
<path d="M13.468 14.4171H10.5285C9.2587 14.4171 8.49884 15.1861 8.49884 16.4711V19.446C8.49884 20.731 9.2587 21.5 10.5285 21.5H13.468C14.7377 21.5 15.4976 20.731 15.4976 19.446V16.4711C15.4976 15.1861 14.7377 14.4171 13.468 14.4171ZM11.7083 18.9198L10.4685 20.1644C10.3785 20.2554 10.2585 20.306 10.1485 20.306C10.0186 20.306 9.90859 20.2554 9.8186 20.1644C9.63864 19.9822 9.63864 19.6888 9.8186 19.5067L11.0484 18.252C11.2383 18.0699 11.5283 18.0699 11.7083 18.252C11.8882 18.4341 11.8882 18.7377 11.7083 18.9198ZM11.7083 16.4104L10.4685 17.6651C10.3785 17.7562 10.2585 17.8068 10.1485 17.8068C10.0186 17.8068 9.90859 17.7562 9.8186 17.6651C9.63864 17.483 9.63864 17.1794 9.8186 16.9973L11.0484 15.7527C11.2383 15.5706 11.5283 15.5706 11.7083 15.7527C11.8882 15.9349 11.8882 16.2283 11.7083 16.4104ZM14.1778 18.9198L12.948 20.1644C12.8481 20.2554 12.7381 20.306 12.6181 20.306C12.4981 20.306 12.3781 20.2554 12.2882 20.1644C12.1082 19.9822 12.1082 19.6888 12.2882 19.5067L13.5279 18.252C13.7079 18.0699 13.9979 18.0699 14.1778 18.252C14.3578 18.4341 14.3578 18.7377 14.1778 18.9198ZM14.1778 16.4104L12.948 17.6651C12.8481 17.7562 12.7381 17.8068 12.6181 17.8068C12.4981 17.8068 12.3781 17.7562 12.2882 17.6651C12.1082 17.483 12.1082 17.1794 12.2882 16.9973L13.5279 15.7527C13.7079 15.5706 13.9979 15.5706 14.1778 15.7527C14.3578 15.9349 14.3578 16.2283 14.1778 16.4104Z" fill="#141414"/>
</svg>
