<svg width="24" height="24" viewBox="0 0 24 24" fill="none" xmlns="http://www.w3.org/2000/svg">
<path d="M20.61 10.83C19.84 9.90996 18.85 9.30996 17.7 9.04996C17.44 7.88996 16.99 6.88996 16.33 6.05996C16.31 6.02996 16.29 5.99996 16.27 5.97996C14.07 3.31996 10.47 3.32996 8.04 4.70996C5.96 5.89996 4.19 8.40996 5.12 11.99C2.99 12.51 2.01 14.37 2.01 16.05C2.01 17.93 3.24 20.04 5.98 20.24H16.32C16.33 20.24 16.35 20.24 16.36 20.24C17.78 20.24 19.14 19.71 20.19 18.75C22.7 16.53 22.37 12.91 20.61 10.83Z" fill="#141414"/>
<path d="M21.76 8.73996C21.76 9.07996 21.72 9.40996 21.62 9.72996C20.89 8.87996 19.96 8.24996 18.93 7.85996C18.61 6.85996 18.15 5.96996 17.55 5.18996C17.52 5.14996 17.49 5.10996 17.45 5.05996C17.64 5.01996 17.84 5.00996 18.03 5.00996C20.09 5.00996 21.76 6.67996 21.76 8.73996Z" fill="#141414"/>
</svg>
