<svg width="24" height="24" viewBox="0 0 24 24" fill="none" xmlns="http://www.w3.org/2000/svg">
<path d="M20.17 17.5701C19.64 18.0601 19.03 18.4301 18.37 18.6801C17.71 18.9301 17 18.4501 17 17.7401V16.4201C17 14.4701 15.42 12.8901 13.47 12.8901H10.53C8.58 12.8901 7 14.4701 7 16.4201V18.0001C7 18.5501 6.55 19.0001 6 19.0001H5.55C3.1 18.6301 2 16.6401 2 14.8601C2 13.1801 2.98 11.3201 5.11 10.8001C4.52 8.47006 5.02 6.28006 6.54 4.69006C8.27 2.88006 11.03 2.16006 13.41 2.90006C15.6 3.57006 17.14 5.37006 17.69 7.87006C19.6 8.30006 21.13 9.74006 21.74 11.7401C22.4 13.9101 21.8 16.1401 20.17 17.5701Z" fill="#141414"/>
<path d="M13.47 14.3901H10.53C9.26 14.3901 8.5 15.1501 8.5 16.4201V19.3601C8.5 20.6301 9.26 21.3901 10.53 21.3901H13.47C14.74 21.3901 15.5 20.6301 15.5 19.3601V16.4201C15.5 15.1501 14.74 14.3901 13.47 14.3901ZM11.71 18.8401L10.47 20.0701C10.38 20.1601 10.26 20.2101 10.15 20.2101C10.02 20.2101 9.91 20.1601 9.82 20.0701C9.64 19.8901 9.64 19.6001 9.82 19.4201L11.05 18.1801C11.24 18.0001 11.53 18.0001 11.71 18.1801C11.89 18.3601 11.89 18.6601 11.71 18.8401ZM11.71 16.3601L10.47 17.6001C10.38 17.6901 10.26 17.7401 10.15 17.7401C10.02 17.7401 9.91 17.6901 9.82 17.6001C9.64 17.4201 9.64 17.1201 9.82 16.9401L11.05 15.7101C11.24 15.5301 11.53 15.5301 11.71 15.7101C11.89 15.8901 11.89 16.1801 11.71 16.3601ZM14.18 18.8401L12.95 20.0701C12.85 20.1601 12.74 20.2101 12.62 20.2101C12.5 20.2101 12.38 20.1601 12.29 20.0701C12.11 19.8901 12.11 19.6001 12.29 19.4201L13.53 18.1801C13.71 18.0001 14 18.0001 14.18 18.1801C14.36 18.3601 14.36 18.6601 14.18 18.8401ZM14.18 16.3601L12.95 17.6001C12.85 17.6901 12.74 17.7401 12.62 17.7401C12.5 17.7401 12.38 17.6901 12.29 17.6001C12.11 17.4201 12.11 17.1201 12.29 16.9401L13.53 15.7101C13.71 15.5301 14 15.5301 14.18 15.7101C14.36 15.8901 14.36 16.1801 14.18 16.3601Z" fill="#141414"/>
</svg>
