<svg width="24" height="24" viewBox="0 0 24 24" fill="none" xmlns="http://www.w3.org/2000/svg">
<path d="M15.3753 2.51333C16.7346 2.51333 18.0386 3.06629 18.9997 4.05208C19.9609 5.03788 20.5 6.37525 20.5 7.76938V8.41042C20.5 8.61444 20.4209 8.80954 20.2803 8.9538C20.1396 9.09806 19.9494 9.17917 19.7505 9.17917C19.5515 9.17917 19.3613 9.09806 19.2207 8.9538C19.08 8.80954 19.0009 8.61444 19.0009 8.41042V7.76938C19.0009 6.78329 18.6187 5.83737 17.9389 5.1401C17.2591 4.44283 16.3368 4.05083 15.3753 4.05083H14.1253C13.1639 4.05083 12.2416 4.44283 11.5618 5.1401C10.8819 5.83737 10.4997 6.78329 10.4997 7.76938V16.744C10.4997 17.73 10.8819 18.676 11.5618 19.3732C12.2416 20.0705 13.1639 20.4625 14.1253 20.4625H15.3753C16.3368 20.4625 17.2591 20.0705 17.9389 19.3732C18.6187 18.676 19.0009 17.73 19.0009 16.744V16.1029C19.0009 15.8989 19.08 15.7038 19.2207 15.5595C19.3613 15.4153 19.5515 15.3342 19.7505 15.3342C19.9494 15.3342 20.1396 15.4153 20.2803 15.5595C20.4209 15.7038 20.5 15.8989 20.5 16.1029V16.744C20.5 18.1381 19.9609 19.4755 18.9997 20.4613C18.0386 21.447 16.7346 22 15.3753 22H14.1253C12.766 22 11.4621 21.447 10.5009 20.4613C10.0251 19.9732 9.64762 19.3936 9.39006 18.756C9.1325 18.1182 9.00065 17.4343 9.00065 16.744V7.76938C9.00065 6.37525 9.53978 5.03788 10.5009 4.05208C11.4621 3.06629 12.766 2.51333 14.1253 2.51333H15.3753Z" fill="#141414"/>
<path d="M5.06254 2C5.47787 2 5.87534 2.16865 6.168 2.46881C6.46066 2.76897 6.62509 3.17663 6.62509 3.6026C6.62509 4.02858 6.46066 4.43624 6.168 4.7364C5.87534 5.03656 5.47787 5.20521 5.06254 5.20521C4.85589 5.20521 4.65255 5.16437 4.46447 5.08455C4.27489 5.00398 4.10219 4.88522 3.95709 4.7364C3.81199 4.58758 3.6962 4.41045 3.61764 4.21601C3.53982 4.02311 3.5 3.81456 3.5 3.6026C3.5 3.39065 3.53982 3.1821 3.61764 2.98919C3.6962 2.79476 3.81199 2.61763 3.95709 2.46881C4.10219 2.31999 4.27489 2.20123 4.46447 2.12066C4.65255 2.04084 4.85589 2 5.06254 2Z" fill="#141414"/>
</svg>
