<svg width="24" height="24" viewBox="0 0 24 24" fill="none" xmlns="http://www.w3.org/2000/svg">
<path d="M20.1668 17.6348C19.6368 18.1306 19.027 18.5049 18.3671 18.7579C17.7072 19.0109 16.9973 18.5252 16.9973 17.8068V16.4711C16.9973 14.4981 15.4176 12.8993 13.468 12.8993H10.5285C8.57882 12.8993 6.99911 14.4981 6.99911 16.4711V18.0699C6.99911 18.6264 6.54919 19.0817 5.99929 19.0817H5.54937C3.0998 18.7073 2 16.6937 2 14.8927C2 13.1928 2.97983 11.3108 5.10944 10.7846C4.51955 8.427 5.01946 6.21107 6.53919 4.60224C8.26888 2.7708 11.0284 2.04228 13.408 2.79104C15.5976 3.46897 17.1373 5.29029 17.6872 7.8199C19.5969 8.25499 21.1266 9.71204 21.7365 11.7357C22.3964 13.9314 21.7965 16.1878 20.1668 17.6348Z" fill="#141414"/>
<path d="M13.468 14.4171H10.5285C9.2587 14.4171 8.49884 15.1861 8.49884 16.4711V19.446C8.49884 20.731 9.2587 21.5 10.5285 21.5H13.468C14.7377 21.5 15.4976 20.731 15.4976 19.446V16.4711C15.4976 15.1861 14.7377 14.4171 13.468 14.4171ZM13.9679 19.021C14.2178 19.2739 14.2178 19.6888 13.9679 19.9418C13.8379 20.0632 13.6779 20.1239 13.5079 20.1239C13.348 20.1239 13.188 20.0632 13.058 19.9418L11.9982 18.8692L10.9484 19.9418C10.8184 20.0632 10.6585 20.1239 10.4885 20.1239C10.3285 20.1239 10.1685 20.0632 10.0386 19.9418C9.78861 19.6888 9.78861 19.2739 10.0386 19.021L11.0984 17.9484L10.0386 16.886C9.78861 16.633 9.78861 16.2182 10.0386 15.9652C10.2885 15.7123 10.6984 15.7123 10.9484 15.9652L11.9982 17.0378L13.058 15.9652C13.308 15.7123 13.7179 15.7123 13.9679 15.9652C14.2178 16.2182 14.2178 16.633 13.9679 16.886L12.9081 17.9484L13.9679 19.021Z" fill="#141414"/>
</svg>
