<svg width="24" height="24" viewBox="0 0 24 24" fill="none" xmlns="http://www.w3.org/2000/svg">
<path d="M21.2742 8.8451C21.2742 9.83795 20.8038 10.7335 20.0433 11.3175C19.4928 11.7555 18.7823 12.0183 18.0118 12.0183C16.2204 12.0183 14.7594 10.5972 14.7594 8.85484C14.7594 7.98853 15.1196 7.2001 15.7201 6.6258V6.61607C16.3105 6.04178 17.1211 5.68163 18.0118 5.68163C19.8131 5.68163 21.2742 7.10276 21.2742 8.8451Z" fill="#141414"/>
<path d="M20.1834 18.5497C19.1326 19.4841 17.7816 20 16.3505 20H5.96291C3.2209 19.8053 2 17.7515 2 15.9216C2 14.2863 2.97071 12.4758 5.10228 11.9696C4.17159 8.48495 5.9529 6.05151 8.03443 4.89319C10.0959 3.75434 12.9981 3.5694 15.1797 5.13654C14.9895 5.27281 14.8194 5.41882 14.6493 5.58429L14.219 6.02231V6.08071C13.5985 6.86915 13.2583 7.83279 13.2583 8.8451C13.2583 11.3953 15.3998 13.4686 18.0218 13.4686C19.1026 13.4686 20.1533 13.1085 20.9739 12.4563C21.124 12.3395 21.2742 12.213 21.4042 12.0767C22.395 14.1013 22.2549 16.7879 20.1834 18.5497Z" fill="#141414"/>
</svg>
