<svg width="24" height="24" viewBox="0 0 24 24" fill="none" xmlns="http://www.w3.org/2000/svg">
<path d="M21.7365 12.8846C21.4765 12.0475 21.0466 11.3175 20.4767 10.7237C19.7468 9.91582 18.777 9.361 17.6872 9.11765C17.1373 6.68421 15.5976 4.93214 13.408 4.27998C11.0284 3.55968 8.26888 4.26051 6.53919 6.02232C5.01946 7.56999 4.51955 9.70168 5.10944 11.9696C3.1098 12.4466 2.11998 14.0721 2.01 15.6198C2 15.7269 2 15.8242 2 15.9216C2 17.7515 3.22978 19.8053 5.96929 20H16.3474C17.7672 20 19.1269 19.4841 20.1668 18.5594C21.7965 17.1675 22.3964 14.9968 21.7365 12.8846Z" fill="#141414"/>
</svg>
