<svg width="24" height="24" viewBox="0 0 24 24" fill="none" xmlns="http://www.w3.org/2000/svg">
<path d="M13.47 14.3901H10.53C9.26 14.3901 8.5 15.1501 8.5 16.4201V19.3601C8.5 20.6301 9.26 21.3901 10.53 21.3901H13.47C14.74 21.3901 15.5 20.6301 15.5 19.3601V16.4201C15.5 15.1501 14.74 14.3901 13.47 14.3901ZM14.41 18.3201C14.31 18.4201 14.16 18.4901 14 18.5001H12.59L12.6 19.8901C12.59 20.0601 12.53 20.2001 12.41 20.3201C12.31 20.4201 12.16 20.4901 12 20.4901C11.67 20.4901 11.4 20.2201 11.4 19.8901V18.4901L10 18.5001C9.67 18.5001 9.4 18.2201 9.4 17.8901C9.4 17.5601 9.67 17.2901 10 17.2901L11.4 17.3001V15.9001C11.4 15.5701 11.67 15.2901 12 15.2901C12.33 15.2901 12.6 15.5701 12.6 15.9001L12.59 17.2901H14C14.33 17.2901 14.6 17.5601 14.6 17.8901C14.59 18.0601 14.52 18.2001 14.41 18.3201Z" fill="#141414"/>
<path d="M20.17 17.5701C19.64 18.0601 19.03 18.4301 18.37 18.6801C17.71 18.9301 17 18.4501 17 17.7401V16.4201C17 14.4701 15.42 12.8901 13.47 12.8901H10.53C8.58 12.8901 7 14.4701 7 16.4201V18.0001C7 18.5501 6.55 19.0001 6 19.0001H5.55C3.1 18.6301 2 16.6401 2 14.8601C2 13.1801 2.98 11.3201 5.11 10.8001C4.52 8.47006 5.02 6.28006 6.54 4.69006C8.27 2.88006 11.03 2.16006 13.41 2.90006C15.6 3.57006 17.14 5.37006 17.69 7.87006C19.6 8.30006 21.13 9.74006 21.74 11.7401C22.4 13.9101 21.8 16.1401 20.17 17.5701Z" fill="#141414"/>
</svg>
