<svg width="24" height="24" viewBox="0 0 24 24" fill="none" xmlns="http://www.w3.org/2000/svg">
<path d="M20.608 10.846C19.8376 9.95105 18.8472 9.36737 17.6967 9.11444C17.4366 7.986 16.9864 7.01321 16.3261 6.20579C16.3061 6.17661 16.2861 6.14742 16.2661 6.12797C14.0652 3.54034 10.4636 3.55007 8.03259 4.89252C5.95169 6.05014 4.18093 8.49186 5.11133 11.9745C2.98042 12.4803 2 14.2897 2 15.924C2 17.7528 3.23053 19.8054 5.9717 20H16.3161C16.3261 20 16.3461 20 16.3562 20C17.7768 20 19.1373 19.4844 20.1878 18.5505C22.6989 16.3909 22.3687 12.8694 20.608 10.846Z" fill="#141414"/>
<path d="M21.7585 8.81288C21.7585 9.14363 21.7185 9.46465 21.6184 9.77594C20.8881 8.94907 19.9577 8.33621 18.9273 7.95682C18.6071 6.98403 18.1469 6.11824 17.5467 5.35946C17.5166 5.32055 17.4866 5.28164 17.4466 5.233C17.6367 5.19409 17.8368 5.18436 18.0269 5.18436C20.0878 5.18436 21.7585 6.80892 21.7585 8.81288Z" fill="#141414"/>
</svg>
