<svg width="24" height="24" viewBox="0 0 24 24" fill="none" xmlns="http://www.w3.org/2000/svg">
<path d="M16.5 4.40039C17.5874 4.40039 18.6305 4.83169 19.3994 5.60059C20.1683 6.36948 20.5996 7.41261 20.5996 8.5V9C20.5996 9.15913 20.5363 9.31131 20.4238 9.42383C20.3113 9.53635 20.1591 9.59961 20 9.59961C19.8409 9.59961 19.6887 9.53635 19.5762 9.42383C19.4637 9.31131 19.4004 9.15913 19.4004 9V8.5C19.4004 7.73087 19.0946 6.99307 18.5508 6.44922C18.0069 5.90536 17.2691 5.59961 16.5 5.59961H15.5C14.7309 5.59961 13.9931 5.90536 13.4492 6.44922C12.9054 6.99307 12.5996 7.73087 12.5996 8.5V15.5C12.5996 16.2691 12.9054 17.0069 13.4492 17.5508C13.9931 18.0946 14.7309 18.4004 15.5 18.4004H16.5C17.2691 18.4004 18.0069 18.0946 18.5508 17.5508C19.0946 17.0069 19.4004 16.2691 19.4004 15.5V15C19.4004 14.8409 19.4637 14.6887 19.5762 14.5762C19.6887 14.4637 19.8409 14.4004 20 14.4004C20.1591 14.4004 20.3113 14.4637 20.4238 14.5762C20.5363 14.6887 20.5996 14.8409 20.5996 15V15.5C20.5996 16.5874 20.1683 17.6305 19.3994 18.3994C18.6305 19.1683 17.5874 19.5996 16.5 19.5996H15.5C14.4126 19.5996 13.3695 19.1683 12.6006 18.3994C12.2199 18.0188 11.918 17.5667 11.7119 17.0693C11.5059 16.5719 11.4004 16.0384 11.4004 15.5V8.5C11.4004 7.41261 11.8317 6.36948 12.6006 5.60059C13.3695 4.83169 14.4126 4.40039 15.5 4.40039H16.5Z" fill="#141414"/>
<path d="M8.25 4C8.58225 4 8.90022 4.13154 9.13434 4.36566C9.36846 4.59978 9.5 4.91775 9.5 5.25C9.5 5.58225 9.36846 5.90022 9.13434 6.13434C8.90022 6.36846 8.58225 6.5 8.25 6.5C8.08468 6.5 7.92201 6.46815 7.77155 6.40589C7.6199 6.34304 7.48174 6.25042 7.36566 6.13434C7.24958 6.01826 7.15696 5.8801 7.09411 5.72845C7.03185 5.57799 7 5.41532 7 5.25C7 5.08468 7.03185 4.92201 7.09411 4.77155C7.15696 4.6199 7.24958 4.48174 7.36566 4.36566C7.48174 4.24958 7.6199 4.15696 7.77155 4.09411C7.92201 4.03185 8.08468 4 8.25 4Z" fill="#141414"/>
</svg>
