<svg width="24" height="24" viewBox="0 0 24 24" fill="none" xmlns="http://www.w3.org/2000/svg">
<path d="M20.17 17.5701C19.64 18.0601 19.03 18.4301 18.37 18.6801C17.71 18.9301 17 18.4501 17 17.7401V16.4201C17 14.4701 15.42 12.8901 13.47 12.8901H10.53C8.58 12.8901 7 14.4701 7 16.4201V18.0001C7 18.5501 6.55 19.0001 6 19.0001H5.55C3.1 18.6301 2 16.6401 2 14.8601C2 13.1801 2.98 11.3201 5.11 10.8001C4.52 8.47006 5.02 6.28006 6.54 4.69006C8.27 2.88006 11.03 2.16006 13.41 2.90006C15.6 3.57006 17.14 5.37006 17.69 7.87006C19.6 8.30006 21.13 9.74006 21.74 11.7401C22.4 13.9101 21.8 16.1401 20.17 17.5701Z" fill="#141414"/>
<path d="M13.47 14.3901H10.53C9.26 14.3901 8.5 15.1501 8.5 16.4201V19.3601C8.5 20.6301 9.26 21.3901 10.53 21.3901H13.47C14.74 21.3901 15.5 20.6301 15.5 19.3601V16.4201C15.5 15.1501 14.74 14.3901 13.47 14.3901ZM13.97 18.9401C14.22 19.1901 14.22 19.6001 13.97 19.8501C13.84 19.9701 13.68 20.0301 13.51 20.0301C13.35 20.0301 13.19 19.9701 13.06 19.8501L12 18.7901L10.95 19.8501C10.82 19.9701 10.66 20.0301 10.49 20.0301C10.33 20.0301 10.17 19.9701 10.04 19.8501C9.79 19.6001 9.79 19.1901 10.04 18.9401L11.1 17.8801L10.04 16.8301C9.79 16.5801 9.79 16.1701 10.04 15.9201C10.29 15.6701 10.7 15.6701 10.95 15.9201L12 16.9801L13.06 15.9201C13.31 15.6701 13.72 15.6701 13.97 15.9201C14.22 16.1701 14.22 16.5801 13.97 16.8301L12.91 17.8801L13.97 18.9401Z" fill="#141414"/>
</svg>
