<svg width="24" height="24" viewBox="0 0 24 24" fill="none" xmlns="http://www.w3.org/2000/svg">
<path d="M16.59 7.41L6.30999 17.69C5.82999 18.17 5.00999 18.06 4.71999 17.45C4.19999 16.38 3.89999 15.17 3.89999 13.9C3.87999 8.38 9.47999 3.66 11.38 2.21C11.75 1.93 12.25 1.93 12.61 2.21C13.48 2.87 15.11 4.24 16.64 6.04C16.98 6.44 16.96 7.04 16.59 7.41Z" fill="#141414"/>
<path d="M20.1 13.91C20.1 18.37 16.47 22 12 22C10.21 22 8.53999 21.42 7.18999 20.42C6.69999 20.06 6.65999 19.34 7.08999 18.91L17.16 8.84C17.63 8.37 18.42 8.47 18.74 9.05C19.56 10.56 20.11 12.2 20.1 13.91Z" fill="#141414"/>
</svg>
