<svg width="24" height="24" viewBox="0 0 24 24" fill="none" xmlns="http://www.w3.org/2000/svg">
<path d="M16.5332 7.41L6.38027 17.69C5.9062 18.17 5.09634 18.06 4.80992 17.45C4.29635 16.38 4.00005 15.17 4.00005 13.9C3.9803 8.38 9.5111 3.66 11.3876 2.21C11.753 1.93 12.2469 1.93 12.6024 2.21C13.4617 2.87 15.0715 4.24 16.5826 6.04C16.9184 6.44 16.8987 7.04 16.5332 7.41Z" fill="#141414"/>
<path d="M19.9999 13.91C19.9999 18.37 16.4147 22 12 22C10.2321 22 8.58272 21.42 7.2494 20.42C6.76545 20.06 6.72595 19.34 7.15063 18.91L17.0962 8.84C17.5604 8.37 18.3406 8.47 18.6567 9.05C19.4665 10.56 20.0097 12.2 19.9999 13.91Z" fill="#141414"/>
</svg>
