<svg width="24" height="24" viewBox="0 0 24 24" fill="none" xmlns="http://www.w3.org/2000/svg">
<path d="M19.6354 4.20117C19.8388 4.20117 20.0326 4.28198 20.1765 4.42584C20.3204 4.56969 20.4012 4.76358 20.4012 4.9669C20.4012 5.17022 20.3204 5.36411 20.1765 5.50797C20.0326 5.65183 19.8388 5.73263 19.6354 5.73263H12.7326V10.9111H18.6769C18.8314 10.9111 18.9799 10.958 19.1056 11.0431L19.1674 11.089L19.2142 11.1311L19.2704 11.1929C19.3808 11.3285 19.4426 11.4991 19.4426 11.6769C19.4426 11.8802 19.3618 12.0741 19.2179 12.2179C19.0741 12.3618 18.8802 12.4426 18.6769 12.4426H12.7326V18.3868C12.7326 18.5902 12.6518 18.7841 12.508 18.9279C12.3641 19.0718 12.1702 19.1526 11.9669 19.1526C11.7636 19.1526 11.5697 19.0718 11.4258 18.9279C11.282 18.7841 11.2012 18.5902 11.2012 18.3868V5.92547C11.2012 5.46829 11.3818 5.02961 11.7057 4.70573C12.0296 4.38185 12.4683 4.20117 12.9255 4.20117H19.6354Z" fill="#141414"/>
<path d="M7.25 4C7.41261 4 7.57609 4.03516 7.72871 4.09834C7.88271 4.16238 8.02197 4.25181 8.13508 4.36492C8.24819 4.47803 8.33761 4.61729 8.40166 4.77129C8.46484 4.92391 8.5 5.08739 8.5 5.25C8.5 5.41261 8.46484 5.57609 8.40166 5.72871C8.33762 5.88271 8.24819 6.02197 8.13508 6.13508C8.02197 6.24819 7.88271 6.33762 7.72871 6.40166C7.57609 6.46484 7.41261 6.5 7.25 6.5C6.91775 6.5 6.59822 6.36838 6.36492 6.13508C6.20861 5.97876 6.09764 5.78209 6.04145 5.57022L6.02113 5.47838L6.00406 5.37354L6 5.25C6 4.91775 6.13162 4.59822 6.36492 4.36492C6.59822 4.13162 6.91775 4 7.25 4Z" fill="#141414"/>
</svg>
