<svg width="24" height="24" viewBox="0 0 24 24" fill="none" xmlns="http://www.w3.org/2000/svg">
<path d="M20.4897 2.26553C20.758 2.26553 21.0138 2.37219 21.2036 2.56206C21.3934 2.75194 21.5 3.00786 21.5 3.27622C21.5 3.54459 21.3934 3.8005 21.2036 3.99038C21.0138 4.18026 20.758 4.28692 20.4897 4.28692H11.3826V11.1221H19.2251C19.429 11.1221 19.6249 11.184 19.7907 11.2963L19.8722 11.3568L19.934 11.4124L20.0081 11.494C20.1538 11.6729 20.2353 11.8981 20.2353 12.1328C20.2353 12.4011 20.1287 12.657 19.9389 12.8469C19.7491 13.0368 19.4933 13.1435 19.2251 13.1435H11.3826V20.9893C11.3826 21.2577 11.276 21.5136 11.0862 21.7035C10.8964 21.8933 10.6406 22 10.3724 22C10.1041 22 9.8483 21.8933 9.65851 21.7035C9.46871 21.5136 9.3621 21.2577 9.3621 20.9893V4.54144C9.3621 3.93801 9.60047 3.359 10.0278 2.9315C10.4551 2.504 11.0339 2.26553 11.637 2.26553H20.4897Z" fill="#141414"/>
<path d="M4.14917 2C4.36371 2 4.57939 2.0464 4.78075 2.1298C4.98392 2.21433 5.16766 2.33237 5.31689 2.48166C5.46611 2.63095 5.5841 2.81477 5.6686 3.01804C5.75196 3.21948 5.79834 3.43526 5.79834 3.64988C5.79834 3.86451 5.75196 4.08029 5.6686 4.28173C5.5841 4.485 5.46612 4.66881 5.31689 4.81811C5.16766 4.9674 4.98392 5.08544 4.78075 5.16997C4.57939 5.25337 4.36371 5.29977 4.14917 5.29977C3.71082 5.29977 3.28925 5.12604 2.98146 4.81811C2.77523 4.61179 2.62882 4.35219 2.55469 4.07255L2.52788 3.95133L2.50536 3.81294L2.5 3.64988C2.5 3.21135 2.67366 2.7896 2.98146 2.48166C3.28925 2.17373 3.71082 2 4.14917 2Z" fill="#141414"/>
</svg>
