<svg width="24" height="24" viewBox="0 0 24 24" fill="none" xmlns="http://www.w3.org/2000/svg">
<path d="M9.32 13.28H12.41V20.48C12.41 21.54 13.73 22.04 14.43 21.24L22 12.64C22.66 11.89 22.13 10.72 21.13 10.72H18.04V3.51997C18.04 2.45997 16.72 1.95997 16.02 2.75997L8.45 11.36C7.8 12.11 8.33 13.28 9.32 13.28Z" fill="#141414"/>
<path d="M8.5 4.74997H1.5C1.09 4.74997 0.75 4.40997 0.75 3.99997C0.75 3.58997 1.09 3.24997 1.5 3.24997H8.5C8.91 3.24997 9.25 3.58997 9.25 3.99997C9.25 4.40997 8.91 4.74997 8.5 4.74997Z" fill="#141414"/>
<path d="M7.5 20.75H1.5C1.09 20.75 0.75 20.41 0.75 20C0.75 19.59 1.09 19.25 1.5 19.25H7.5C7.91 19.25 8.25 19.59 8.25 20C8.25 20.41 7.91 20.75 7.5 20.75Z" fill="#141414"/>
<path d="M4.5 12.75H1.5C1.09 12.75 0.75 12.41 0.75 12C0.75 11.59 1.09 11.25 1.5 11.25H4.5C4.91 11.25 5.25 11.59 5.25 12C5.25 12.41 4.91 12.75 4.5 12.75Z" fill="#141414"/>
</svg>
