<svg width="24" height="24" viewBox="0 0 24 24" fill="none" xmlns="http://www.w3.org/2000/svg">
<path d="M9.95646 13.1957H12.8252V19.9217C12.8252 20.912 14.0507 21.379 14.7006 20.6317L21.7287 12.5979C22.3414 11.8972 21.8494 10.8043 20.921 10.8043H18.0522V4.07826C18.0522 3.08804 16.8267 2.62096 16.1768 3.36829L9.14875 11.4021C8.54528 12.1028 9.03734 13.1957 9.95646 13.1957Z" fill="#141414"/>
<path d="M9.19517 5.22729H2.69631C2.31566 5.22729 2 4.90967 2 4.52666C2 4.14365 2.31566 3.82603 2.69631 3.82603H9.19517C9.57582 3.82603 9.89148 4.14365 9.89148 4.52666C9.89148 4.90967 9.57582 5.22729 9.19517 5.22729Z" fill="#141414"/>
<path d="M8.26676 20.174H2.69631C2.31566 20.174 2 19.8563 2 19.4733C2 19.0903 2.31566 18.7727 2.69631 18.7727H8.26676C8.64741 18.7727 8.96307 19.0903 8.96307 19.4733C8.96307 19.8563 8.64741 20.174 8.26676 20.174Z" fill="#141414"/>
<path d="M5.48153 12.7006H2.69631C2.31566 12.7006 2 12.383 2 12C2 11.617 2.31566 11.2994 2.69631 11.2994H5.48153C5.86218 11.2994 6.17784 11.617 6.17784 12C6.17784 12.383 5.86218 12.7006 5.48153 12.7006Z" fill="#141414"/>
</svg>
