<svg width="24" height="24" viewBox="0 0 24 24" fill="none" xmlns="http://www.w3.org/2000/svg">
<path fill-rule="evenodd" clip-rule="evenodd" d="M8.08336 2.60063C8.24553 2.23525 8.60692 2 9.00735 2H16.9929C17.7438 2 18.2333 2.79083 17.8969 3.46354L15.6255 8.00633H18.9871C19.8881 8.00633 20.3386 9.09547 19.7019 9.73214L7.73598 21.6977C6.98117 22.4525 5.72382 21.6757 6.06218 20.6637L8.61293 13.0116H5.01105C4.84261 13.0116 4.67685 12.9695 4.52881 12.8892C4.38077 12.8088 4.25514 12.6928 4.16335 12.5516C4.07155 12.4103 4.01649 12.2484 4.00317 12.0805C3.98984 11.9126 4.01868 11.744 4.08706 11.5901L8.08336 2.60063Z" fill="#141414"/>
</svg>
