<svg width="24" height="24" viewBox="0 0 24 24" fill="none" xmlns="http://www.w3.org/2000/svg">
<path fill-rule="evenodd" clip-rule="evenodd" d="M8.084 2.6C8.246 2.235 8.607 2 9.007 2H16.984C17.734 2 18.223 2.79 17.887 3.462L15.618 8H18.976C19.876 8 20.326 9.088 19.69 9.724L7.737 21.677C6.983 22.431 5.727 21.655 6.065 20.644L8.613 13H5.015C4.84674 13 4.68115 12.958 4.53327 12.8777C4.38539 12.7974 4.2599 12.6815 4.16821 12.5404C4.07651 12.3994 4.02151 12.2376 4.0082 12.0699C3.99489 11.9022 4.0237 11.7338 4.092 11.58L8.084 2.6Z" fill="#141414"/>
</svg>
