<svg width="24" height="24" viewBox="0 0 24 24" fill="none" xmlns="http://www.w3.org/2000/svg">
<path d="M16.868 18.983C16.9949 19.017 17.1138 19.0757 17.218 19.1556C17.3222 19.2356 17.4096 19.3353 17.4753 19.4491C17.5409 19.5628 17.5835 19.6884 17.6006 19.8186C17.6177 19.9488 17.609 20.0811 17.575 20.208L17.316 21.174C17.2473 21.4302 17.0797 21.6486 16.8499 21.7812C16.6202 21.9138 16.3472 21.9497 16.091 21.881C15.8348 21.8123 15.6164 21.6447 15.4838 21.4149C15.3512 21.1852 15.3153 20.9122 15.384 20.656L15.644 19.69C15.7127 19.434 15.8802 19.2157 16.1097 19.0832C16.3392 18.9506 16.612 18.9146 16.868 18.983ZM9.86801 18.983C9.99488 19.017 10.1138 19.0757 10.218 19.1556C10.3222 19.2356 10.4096 19.3353 10.4753 19.4491C10.5409 19.5628 10.5835 19.6884 10.6006 19.8186C10.6177 19.9488 10.609 20.0811 10.575 20.208L10.316 21.174C10.2473 21.4302 10.0797 21.6486 9.84994 21.7812C9.62021 21.9138 9.34721 21.9497 9.09101 21.881C8.83481 21.8123 8.6164 21.6447 8.48381 21.4149C8.35122 21.1852 8.31532 20.9122 8.38401 20.656L8.64401 19.69C8.71269 19.434 8.88018 19.2157 9.10969 19.0832C9.3392 18.9506 9.61195 18.9146 9.86801 18.983ZM14.018 16.568C14.2545 16.6316 14.4594 16.7797 14.594 16.9843C14.7285 17.1888 14.7833 17.4357 14.748 17.678L14.725 17.793L14.207 19.725C14.1404 19.9708 13.9825 20.182 13.7655 20.3154C13.5486 20.4488 13.2889 20.4944 13.0394 20.4428C12.79 20.3913 12.5696 20.2465 12.4233 20.038C12.277 19.8296 12.2157 19.5731 12.252 19.321L12.275 19.207L12.793 17.275C12.827 17.1481 12.8857 17.0292 12.9656 16.925C13.0456 16.8208 13.1453 16.7334 13.2591 16.6678C13.3728 16.6021 13.4984 16.5595 13.6286 16.5424C13.7588 16.5253 13.8912 16.534 14.018 16.568ZM7.01801 16.568C7.14488 16.602 7.2638 16.6607 7.368 16.7406C7.47219 16.8206 7.55961 16.9203 7.62526 17.0341C7.69092 17.1478 7.73352 17.2734 7.75063 17.4036C7.76775 17.5338 7.75904 17.6661 7.72501 17.793L7.20701 19.725C7.173 19.8519 7.11434 19.9708 7.03437 20.075C6.9544 20.1791 6.85469 20.2666 6.74094 20.3322C6.62719 20.3979 6.50162 20.4405 6.3714 20.4576C6.24118 20.4747 6.10887 20.466 5.98201 20.432C5.85516 20.398 5.73624 20.3393 5.63206 20.2594C5.52787 20.1794 5.44046 20.0797 5.37481 19.9659C5.30916 19.8522 5.26655 19.7266 5.24943 19.5964C5.23231 19.4662 5.241 19.3339 5.27501 19.207L5.79301 17.275C5.82701 17.1481 5.88567 17.0292 5.96564 16.925C6.0456 16.8208 6.14531 16.7334 6.25906 16.6678C6.37282 16.6021 6.49839 16.5595 6.62862 16.5424C6.75884 16.5253 6.89116 16.534 7.01801 16.568ZM10.903 15.119C11.0299 15.153 11.1488 15.2117 11.253 15.2916C11.3572 15.3716 11.4446 15.4713 11.5103 15.5851C11.5759 15.6988 11.6185 15.8244 11.6356 15.9546C11.6527 16.0848 11.644 16.2171 11.61 16.344L11.351 17.31C11.3199 17.4399 11.2631 17.5623 11.1839 17.6699C11.1047 17.7775 11.0047 17.8681 10.8899 17.9364C10.7751 18.0047 10.6478 18.0494 10.5155 18.0677C10.3831 18.0859 10.2485 18.0775 10.1194 18.0429C9.99039 18.0083 9.8696 17.9482 9.76419 17.8661C9.65878 17.7841 9.57088 17.6817 9.50568 17.5651C9.44049 17.4485 9.39932 17.32 9.3846 17.1872C9.36989 17.0544 9.38193 16.9201 9.42001 16.792L9.67801 15.826C9.71201 15.6991 9.77067 15.5802 9.85063 15.476C9.9306 15.3718 10.0303 15.2844 10.1441 15.2188C10.2578 15.1531 10.3834 15.1105 10.5136 15.0934C10.6438 15.0763 10.7762 15.085 10.903 15.119ZM17.903 15.119C18.0299 15.153 18.1488 15.2117 18.253 15.2916C18.3572 15.3716 18.4446 15.4713 18.5103 15.5851C18.5759 15.6988 18.6185 15.8244 18.6356 15.9546C18.6527 16.0848 18.644 16.2171 18.61 16.344L18.352 17.31C18.2833 17.5662 18.1157 17.7846 17.8859 17.9172C17.6562 18.0498 17.3832 18.0857 17.127 18.017C16.8708 17.9483 16.6524 17.7807 16.5198 17.5509C16.3872 17.3212 16.3513 17.0482 16.42 16.792L16.678 15.826C16.712 15.6991 16.7707 15.5802 16.8506 15.476C16.9306 15.3718 17.0303 15.2844 17.1441 15.2188C17.2578 15.1531 17.3834 15.1105 17.5136 15.0934C17.6438 15.0763 17.7762 15.085 17.903 15.119ZM11.5 2C12.8224 1.99987 14.1134 2.40298 15.2008 3.15554C16.2882 3.9081 17.1203 4.97433 17.586 6.212C18.5515 6.47693 19.4354 6.97918 20.1572 7.673C20.879 8.36683 21.4157 9.23019 21.7186 10.1845C22.0214 11.1388 22.0808 12.1536 21.8912 13.1367C21.7016 14.1198 21.269 15.0398 20.633 15.813C20.5735 15.1597 20.3016 14.5438 19.8588 14.0598C19.4161 13.5757 18.8269 13.25 18.1814 13.1326C17.536 13.0152 16.8699 13.1125 16.285 13.4097C15.7001 13.7068 15.2288 14.1875 14.943 14.778C14.4063 14.5478 13.8144 14.4784 13.239 14.578C12.9657 14.107 12.5692 13.7193 12.0923 13.4565C11.6154 13.1937 11.0759 13.0656 10.5317 13.086C9.98752 13.1065 9.45917 13.2747 9.0033 13.5726C8.54744 13.8705 8.18125 14.2868 7.94401 14.777C7.54856 14.607 7.12114 14.524 6.69079 14.5338C6.26043 14.5435 5.83722 14.6458 5.4499 14.8337C5.06257 15.0215 4.72021 15.2905 4.44605 15.6223C4.17189 15.9542 3.97236 16.3412 3.86101 16.757V16.892C3.19171 16.3524 2.67283 15.6494 2.3545 14.8508C2.03617 14.0522 1.92914 13.185 2.04374 12.3329C2.15833 11.4809 2.49069 10.6728 3.00872 9.98665C3.52674 9.30052 4.21293 8.75956 5.00101 8.416C5.0231 6.70686 5.71752 5.07521 6.93391 3.87436C8.15029 2.67351 9.79074 2.00012 11.5 2Z" fill="#141414"/>
</svg>
