<svg width="24" height="24" viewBox="0 0 24 24" fill="none" xmlns="http://www.w3.org/2000/svg">
<path d="M16.8684 19.0554C16.9953 19.0895 17.1142 19.1484 17.2184 19.2287C17.3226 19.309 17.41 19.4092 17.4756 19.5234C17.5413 19.6377 17.5839 19.7638 17.601 19.8945C17.6181 20.0253 17.6094 20.1582 17.5754 20.2856L17.3164 21.2557C17.2477 21.513 17.0801 21.7324 16.8503 21.8655C16.6206 21.9987 16.3476 22.0347 16.0914 21.9657C15.8352 21.8968 15.6168 21.7284 15.4842 21.4977C15.3517 21.267 15.3158 20.9928 15.3845 20.7355L15.6444 19.7654C15.7131 19.5083 15.8806 19.2891 16.1101 19.156C16.3396 19.0229 16.6124 18.9867 16.8684 19.0554ZM9.86864 19.0554C9.9955 19.0895 10.1144 19.1484 10.2186 19.2287C10.3228 19.309 10.4102 19.4092 10.4759 19.5234C10.5415 19.6377 10.5841 19.7638 10.6012 19.8945C10.6183 20.0253 10.6096 20.1582 10.5756 20.2856L10.3166 21.2557C10.2479 21.513 10.0803 21.7324 9.85056 21.8655C9.62084 21.9987 9.34785 22.0347 9.09166 21.9657C8.83547 21.8968 8.61706 21.7284 8.48448 21.4977C8.35189 21.267 8.316 20.9928 8.38469 20.7355L8.64468 19.7654C8.71335 19.5083 8.88084 19.2891 9.11034 19.156C9.33984 19.0229 9.61258 18.9867 9.86864 19.0554ZM14.0185 16.6301C14.255 16.6939 14.4599 16.8427 14.5944 17.0481C14.729 17.2536 14.7838 17.5015 14.7485 17.7448L14.7255 17.8603L14.2075 19.8005C14.1409 20.0474 13.983 20.2595 13.766 20.3935C13.5491 20.5274 13.2894 20.5732 13.04 20.5214C12.7905 20.4697 12.5702 20.3243 12.4238 20.1149C12.2775 19.9055 12.2163 19.648 12.2526 19.3948L12.2756 19.2803L12.7935 17.3401C12.8275 17.2127 12.8862 17.0933 12.9662 16.9886C13.0461 16.884 13.1458 16.7962 13.2596 16.7303C13.3733 16.6643 13.4989 16.6216 13.6291 16.6044C13.7593 16.5872 13.8916 16.5959 14.0185 16.6301ZM7.01873 16.6301C7.14559 16.6642 7.26451 16.7231 7.3687 16.8034C7.47289 16.8838 7.56031 16.9839 7.62596 17.0981C7.69161 17.2124 7.73421 17.3385 7.75133 17.4693C7.76844 17.6 7.75974 17.7329 7.72571 17.8603L7.20773 19.8005C7.17371 19.9279 7.11505 20.0474 7.03508 20.152C6.95512 20.2566 6.85541 20.3444 6.74167 20.4103C6.62792 20.4763 6.50235 20.5191 6.37214 20.5363C6.24193 20.5534 6.10962 20.5447 5.98277 20.5106C5.85591 20.4764 5.737 20.4175 5.63282 20.3372C5.52864 20.2569 5.44123 20.1567 5.37558 20.0425C5.30993 19.9283 5.26733 19.8022 5.25021 19.6714C5.23309 19.5406 5.24178 19.4077 5.27579 19.2803L5.79377 17.3401C5.82777 17.2127 5.88643 17.0933 5.96639 16.9886C6.04635 16.884 6.14606 16.7962 6.25981 16.7303C6.37356 16.6643 6.49913 16.6216 6.62935 16.6044C6.75957 16.5872 6.89188 16.5959 7.01873 16.6301ZM10.9036 15.1749C11.0305 15.2091 11.1494 15.268 11.2536 15.3483C11.3578 15.4286 11.4452 15.5287 11.5108 15.643C11.5765 15.7572 11.6191 15.8833 11.6362 16.0141C11.6533 16.1449 11.6446 16.2777 11.6106 16.4051L11.3516 17.3753C11.3205 17.5057 11.2636 17.6286 11.1844 17.7367C11.1053 17.8447 11.0053 17.9357 10.8905 18.0043C10.7757 18.073 10.6484 18.1178 10.5161 18.1361C10.3837 18.1545 10.2491 18.1461 10.12 18.1113C9.99101 18.0765 9.87023 18.0162 9.76482 17.9337C9.65941 17.8513 9.57151 17.7485 9.50632 17.6314C9.44113 17.5143 9.39996 17.3853 9.38524 17.2519C9.37053 17.1186 9.38257 16.9836 9.42065 16.855L9.67864 15.8849C9.71264 15.7575 9.7713 15.6381 9.85126 15.5335C9.93122 15.4288 10.0309 15.341 10.1447 15.2751C10.2584 15.2092 10.384 15.1664 10.5142 15.1492C10.6444 15.132 10.7767 15.1407 10.9036 15.1749ZM17.9034 15.1749C18.0302 15.2091 18.1492 15.268 18.2533 15.3483C18.3575 15.4286 18.4449 15.5287 18.5106 15.643C18.5763 15.7572 18.6188 15.8833 18.636 16.0141C18.6531 16.1449 18.6444 16.2777 18.6103 16.4051L18.3524 17.3753C18.2837 17.6325 18.116 17.8519 17.8863 17.985C17.6566 18.1182 17.3836 18.1542 17.1274 18.0853C16.8712 18.0163 16.6528 17.8479 16.5202 17.6172C16.3876 17.3865 16.3517 17.1123 16.4204 16.855L16.6784 15.8849C16.7124 15.7575 16.7711 15.6381 16.851 15.5335C16.931 15.4288 17.0307 15.341 17.1444 15.2751C17.2582 15.2092 17.3838 15.1664 17.514 15.1492C17.6442 15.132 17.7765 15.1407 17.9034 15.1749ZM11.5006 2C12.8229 1.99987 14.1139 2.4047 15.2013 3.16046C16.2886 3.91623 17.1206 4.98701 17.5864 6.22995C18.5518 6.49601 19.4357 7.0004 20.1575 7.69718C20.8792 8.39397 21.416 9.26101 21.7188 10.2194C22.0217 11.1777 22.081 12.1969 21.8914 13.1842C21.7018 14.1714 21.2693 15.0954 20.6333 15.8719C20.5738 15.2158 20.3019 14.5973 19.8591 14.1112C19.4164 13.625 18.8272 13.2979 18.1818 13.18C17.5364 13.0621 16.8703 13.1599 16.2854 13.4583C15.7006 13.7567 15.2292 14.2394 14.9435 14.8325C14.4068 14.6013 13.8149 14.5315 13.2395 14.6316C12.9662 14.1586 12.5698 13.7693 12.0929 13.5053C11.6159 13.2414 11.0765 13.1128 10.5323 13.1333C9.98814 13.1538 9.45981 13.3227 9.00395 13.6219C8.5481 13.9211 8.18193 14.3392 7.9447 14.8315C7.54926 14.6607 7.12186 14.5774 6.69152 14.5872C6.26118 14.597 5.83798 14.6997 5.45067 14.8884C5.06336 15.077 4.721 15.3471 4.44685 15.6804C4.1727 16.0137 3.97318 16.4023 3.86184 16.8199V16.9555C3.19255 16.4136 2.6737 15.7076 2.35538 14.9055C2.03706 14.1035 1.93003 13.2326 2.04462 12.377C2.15921 11.5213 2.49156 10.7097 3.00957 10.0207C3.52757 9.33164 4.21374 8.78837 5.0018 8.44335C5.02389 6.72693 5.71829 5.08832 6.93463 3.88235C8.15097 2.67638 9.79136 2.00012 11.5006 2Z" fill="#141414"/>
</svg>
