<svg width="24" height="24" viewBox="0 0 24 24" fill="none" xmlns="http://www.w3.org/2000/svg">
<path d="M17.9199 12.8012C18.1749 12.8012 18.3934 12.5814 18.3752 12.3251C18.1293 9.0012 15.3789 6.39157 12.0182 6.39157C8.65756 6.39157 5.9071 9.0012 5.6612 12.3251C5.64299 12.5814 5.86157 12.8012 6.11658 12.8012H17.9199Z" fill="#141414"/>
<path d="M21.1257 13.488H21.0528C20.5519 13.488 20.1421 13.0759 20.1421 12.5723C20.1421 12.0687 20.5519 11.6566 21.0528 11.6566C21.5537 11.6566 22 12.0687 22 12.5723C22 13.0759 21.6266 13.488 21.1257 13.488ZM2.98361 13.488H2.91075C2.40984 13.488 2 13.0759 2 12.5723C2 12.0687 2.40984 11.6566 2.91075 11.6566C3.41166 11.6566 3.85792 12.0687 3.85792 12.5723C3.85792 13.0759 3.48452 13.488 2.98361 13.488ZM18.4026 7.06916C18.1658 7.06916 17.9381 6.97759 17.7559 6.80361C17.4007 6.44651 17.4007 5.86964 17.7559 5.51253L17.8743 5.39349C18.2295 5.03639 18.8033 5.03639 19.1585 5.39349C19.5137 5.7506 19.5137 6.32747 19.1585 6.68458L19.0401 6.80361C18.867 6.97759 18.6393 7.06916 18.4026 7.06916ZM5.63388 7.06916C5.39709 7.06916 5.1694 6.97759 4.98725 6.80361L4.86885 6.67542C4.51366 6.31831 4.51366 5.74145 4.86885 5.38434C5.22404 5.02723 5.79781 5.02723 6.15301 5.38434L6.2714 5.50337C6.62659 5.86048 6.62659 6.43735 6.2714 6.79446C6.09836 6.97759 5.86157 7.06916 5.63388 7.06916ZM12.0182 4.36795C11.5173 4.36795 11.1075 3.99253 11.1075 3.48892V3.41566C11.1075 2.91205 11.5173 2.5 12.0182 2.5C12.5191 2.5 12.929 2.91205 12.929 3.41566C12.929 3.91928 12.5191 4.36795 12.0182 4.36795Z" fill="#141414"/>
<path d="M19.3042 16.006H4.73224C4.35883 16.006 4.04918 15.6947 4.04918 15.3193C4.04918 14.9439 4.35883 14.6325 4.73224 14.6325H19.3042C19.6776 14.6325 19.9873 14.9439 19.9873 15.3193C19.9873 15.6947 19.6776 16.006 19.3042 16.006Z" fill="#141414"/>
<path d="M17.4827 18.753H6.55373C6.18033 18.753 5.87067 18.4417 5.87067 18.0663C5.87067 17.6908 6.18033 17.3795 6.55373 17.3795H17.4827C17.8561 17.3795 18.1658 17.6908 18.1658 18.0663C18.1658 18.4417 17.8561 18.753 17.4827 18.753Z" fill="#141414"/>
<path d="M14.7505 21.5H9.28597C8.91257 21.5 8.60291 21.1887 8.60291 20.8133C8.60291 20.4378 8.91257 20.1265 9.28597 20.1265H14.7505C15.1239 20.1265 15.4335 20.4378 15.4335 20.8133C15.4335 21.1887 15.1239 21.5 14.7505 21.5Z" fill="#141414"/>
</svg>
