<svg width="24" height="24" viewBox="0 0 24 24" fill="none" xmlns="http://www.w3.org/2000/svg">
<path d="M9.10719 19.0728C9.36322 19.142 9.58151 19.3107 9.71409 19.5419C9.84668 19.7731 9.88271 20.0478 9.81428 20.3058L9.55425 21.2798C9.47996 21.5314 9.31114 21.7438 9.0837 21.8719C8.85626 22 8.58817 22.0336 8.33649 21.9656C8.08481 21.8976 7.86942 21.7334 7.73616 21.5078C7.60291 21.2823 7.5623 21.0133 7.623 20.7581L7.88203 19.785C7.91603 19.6572 7.9747 19.5374 8.05468 19.4325C8.13465 19.3275 8.23437 19.2395 8.34814 19.1733C8.46191 19.1072 8.5875 19.0643 8.71774 19.047C8.84798 19.0298 8.98032 19.0386 9.10719 19.0728ZM13.7778 17.9094C14.0336 17.9788 14.2517 18.1476 14.3841 18.3788C14.5165 18.6099 14.5524 18.8845 14.4839 19.1423L14.2259 20.1154C14.1924 20.2437 14.1341 20.3641 14.0543 20.4697C13.9745 20.5753 13.8748 20.6639 13.7609 20.7306C13.647 20.7972 13.5211 20.8405 13.3905 20.858C13.26 20.8756 13.1272 20.8669 13 20.8326C12.8727 20.7983 12.7535 20.739 12.649 20.6582C12.5446 20.5773 12.457 20.4765 12.3914 20.3615C12.3257 20.2464 12.2833 20.1195 12.2665 19.9879C12.2498 19.8563 12.259 19.7226 12.2936 19.5946L12.5526 18.6216C12.6213 18.3637 12.7888 18.1438 13.0184 18.0103C13.2479 17.8768 13.5207 17.8405 13.7768 17.9094H13.7778ZM10.1423 15.1806C10.2692 15.2149 10.3881 15.2739 10.4924 15.3545C10.5966 15.435 10.684 15.5355 10.7497 15.6501C10.8153 15.7646 10.8579 15.8911 10.875 16.0223C10.8922 16.1535 10.8834 16.2868 10.8494 16.4146L10.5904 17.3876C10.5217 17.6457 10.354 17.8657 10.1242 17.9993C9.89448 18.1328 9.62146 18.169 9.36522 18.0998C9.10899 18.0306 8.89054 17.8617 8.75794 17.6303C8.62533 17.3989 8.58943 17.1239 8.65813 16.8658L8.91817 15.8928C8.98685 15.6349 9.15436 15.4151 9.3839 15.2815C9.61344 15.148 9.88623 15.1117 10.1423 15.1806ZM11.5035 2C12.8261 1.99987 14.1172 2.40592 15.2048 3.16398C16.2923 3.92204 17.1245 4.99606 17.5903 6.24277C18.9561 6.62142 20.1449 7.47433 20.9465 8.65067C21.7481 9.82701 22.1108 11.251 21.9705 12.6707C21.8302 14.0904 21.1959 15.4144 20.1797 16.4085C19.1636 17.4026 17.8312 18.0028 16.4181 18.1028C16.7782 17.7372 17.0512 17.2768 17.1932 16.745L17.4523 15.7719C17.6512 15.0314 17.563 14.2425 17.2058 13.5651C16.8485 12.8876 16.2488 12.3724 15.5282 12.1238C14.8077 11.8753 14.0203 11.912 13.3257 12.2265C12.631 12.5411 12.0811 13.1099 11.7875 13.8177C11.3997 13.4969 10.9381 13.2792 10.4451 13.1846C9.95203 13.0899 9.44331 13.1214 8.96547 13.276C8.48763 13.4307 8.05595 13.7036 7.70993 14.0697C7.36392 14.4359 7.11464 14.8837 6.98491 15.372L6.72688 16.3451C6.58974 16.857 6.5894 17.3963 6.72588 17.9084C6.66592 17.9687 6.60852 18.0315 6.55386 18.0968C5.4475 17.9968 4.40568 17.5287 3.59276 16.7662C2.77985 16.0038 2.24212 14.9905 2.06441 13.8861C1.88671 12.7817 2.07914 11.6492 2.61136 10.6672C3.14358 9.68523 3.98528 8.90966 5.00366 8.46288C5.02575 6.74126 5.72026 5.09768 6.9368 3.88806C8.15335 2.67843 9.794 2.00012 11.5035 2ZM14.8129 14.0172C14.9398 14.0514 15.0588 14.1105 15.163 14.191C15.2672 14.2716 15.3546 14.372 15.4203 14.4866C15.4859 14.6012 15.5285 14.7277 15.5456 14.8589C15.5628 14.99 15.5541 15.1233 15.52 15.2511L15.26 16.2242C15.1857 16.4757 15.0169 16.6882 14.7894 16.8162C14.562 16.9443 14.2939 16.9779 14.0422 16.9099C13.7906 16.8419 13.5752 16.6777 13.4419 16.4522C13.3086 16.2266 13.268 15.9576 13.3287 15.7024L13.5878 14.7293C13.6218 14.6015 13.6804 14.4817 13.7604 14.3768C13.8404 14.2718 13.9401 14.1838 14.0539 14.1176C14.1677 14.0515 14.2932 14.0086 14.4235 13.9914C14.5537 13.9741 14.6861 13.9829 14.8129 14.0172Z" fill="#141414"/>
</svg>
