<svg width="24" height="24" viewBox="0 0 24 24" fill="none" xmlns="http://www.w3.org/2000/svg">
<path d="M9.10401 18.949C9.36 19.0177 9.57826 19.1852 9.71083 19.4147C9.8434 19.6442 9.87943 19.9169 9.81101 20.173L9.55101 21.14C9.47674 21.3897 9.30793 21.6006 9.08052 21.7278C8.85311 21.8549 8.58505 21.8883 8.33341 21.8208C8.08177 21.7533 7.8664 21.5902 7.73316 21.3663C7.59992 21.1424 7.55932 20.8754 7.62001 20.622L7.87901 19.656C7.91301 19.5291 7.97167 19.4102 8.05163 19.306C8.1316 19.2018 8.23131 19.1144 8.34506 19.0488C8.45882 18.9831 8.58439 18.9405 8.71461 18.9234C8.84484 18.9063 8.97715 18.915 9.10401 18.949ZM13.774 17.794C14.0298 17.8629 14.2478 18.0305 14.3802 18.26C14.5126 18.4894 14.5485 18.7621 14.48 19.018L14.222 19.984C14.1886 20.1114 14.1303 20.2309 14.0505 20.3357C13.9707 20.4405 13.871 20.5285 13.7571 20.5947C13.6432 20.6609 13.5174 20.7039 13.3868 20.7213C13.2562 20.7386 13.1235 20.7301 12.9963 20.696C12.8691 20.662 12.7498 20.6031 12.6454 20.5228C12.5409 20.4426 12.4534 20.3425 12.3878 20.2283C12.3222 20.1141 12.2797 19.988 12.2629 19.8574C12.2462 19.7267 12.2554 19.5941 12.29 19.467L12.549 18.501C12.6177 18.245 12.7852 18.0267 13.0147 17.8942C13.2442 17.7616 13.5169 17.7256 13.773 17.794H13.774ZM10.139 15.085C10.2659 15.119 10.3848 15.1777 10.489 15.2576C10.5932 15.3376 10.6806 15.4373 10.7463 15.5511C10.8119 15.6648 10.8545 15.7904 10.8716 15.9206C10.8887 16.0508 10.88 16.1831 10.846 16.31L10.587 17.276C10.5183 17.5322 10.3507 17.7506 10.1209 17.8832C9.8912 18.0158 9.61821 18.0517 9.36201 17.983C9.10581 17.9143 8.88739 17.7467 8.7548 17.5169C8.62222 17.2872 8.58632 17.0142 8.65501 16.758L8.91501 15.792C8.98368 15.536 9.15118 15.3177 9.38069 15.1852C9.6102 15.0526 9.88295 15.0166 10.139 15.085ZM11.5 2C12.8224 1.99987 14.1134 2.40298 15.2008 3.15554C16.2882 3.9081 17.1203 4.97433 17.586 6.212C18.9516 6.5879 20.1403 7.43463 20.9418 8.60243C21.7432 9.77023 22.1059 11.1839 21.9656 12.5933C21.8253 14.0027 21.1911 15.3171 20.1751 16.304C19.1592 17.2909 17.8269 17.8867 16.414 17.986C16.774 17.623 17.047 17.166 17.189 16.638L17.448 15.672C17.6469 14.9369 17.5588 14.1537 17.2015 13.4812C16.8443 12.8087 16.2447 12.2972 15.5242 12.0504C14.8038 11.8036 14.0165 11.8401 13.3219 12.1524C12.6274 12.4646 12.0776 13.0293 11.784 13.732C11.3962 13.4135 10.9347 13.1974 10.4417 13.1034C9.94874 13.0095 9.44009 13.0407 8.96231 13.1942C8.48453 13.3478 8.0529 13.6187 7.70693 13.9822C7.36097 14.3457 7.11172 14.7902 6.98201 15.275L6.72401 16.241C6.58689 16.7492 6.58654 17.2846 6.72301 17.793C6.66305 17.8529 6.60567 17.9153 6.55101 17.98C5.44479 17.8808 4.40311 17.416 3.5903 16.6591C2.77749 15.9022 2.23983 14.8962 2.06215 13.7999C1.88447 12.7035 2.07688 11.5792 2.60902 10.6044C3.14117 9.62948 3.98276 8.85954 5.00101 8.416C5.0231 6.70686 5.71752 5.07521 6.93391 3.87436C8.15029 2.67351 9.79073 2.00012 11.5 2ZM14.809 13.93C14.9359 13.964 15.0548 14.0227 15.159 14.1026C15.2632 14.1826 15.3506 14.2823 15.4163 14.3961C15.4819 14.5098 15.5245 14.6354 15.5416 14.7656C15.5587 14.8958 15.55 15.0281 15.516 15.155L15.256 16.121C15.1817 16.3707 15.0129 16.5816 14.7855 16.7088C14.5581 16.8359 14.2901 16.8693 14.0384 16.8018C13.7868 16.7343 13.5714 16.5712 13.4382 16.3473C13.3049 16.1234 13.2643 15.8564 13.325 15.603L13.584 14.637C13.618 14.5101 13.6767 14.3912 13.7566 14.287C13.8366 14.1828 13.9363 14.0954 14.0501 14.0298C14.1638 13.9641 14.2894 13.9215 14.4196 13.9044C14.5498 13.8873 14.6822 13.896 14.809 13.93Z" fill="#141414"/>
</svg>
