<svg width="24" height="24" viewBox="0 0 24 24" fill="none" xmlns="http://www.w3.org/2000/svg">
<path fill-rule="evenodd" clip-rule="evenodd" d="M12 2C12.5523 2 13 2.44772 13 3V6.58579L15.2929 4.29289C15.6834 3.90237 16.3166 3.90237 16.7071 4.29289C17.0976 4.68342 17.0976 5.31658 16.7071 5.70711L13 9.41421V11H15.5L18.2 7.4C18.5314 6.95817 19.1582 6.86863 19.6 7.2C20.0418 7.53137 20.1314 8.15817 19.8 8.6L18 11H21C21.5523 11 22 11.4477 22 12C22 12.5523 21.5523 13 21 13H18L19.8 15.4C20.1314 15.8418 20.0418 16.4686 19.6 16.8C19.1582 17.1314 18.5314 17.0418 18.2 16.6L15.5 13H13V14.5858L16.7071 18.2929C17.0976 18.6834 17.0976 19.3166 16.7071 19.7071C16.3166 20.0976 15.6834 20.0976 15.2929 19.7071L13 17.4142V21C13 21.5523 12.5523 22 12 22C11.4477 22 11 21.5523 11 21V17.4142L8.70711 19.7071C8.31658 20.0976 7.68342 20.0976 7.29289 19.7071C6.90237 19.3166 6.90237 18.6834 7.29289 18.2929L11 14.5858V13H9.41421L5.70711 16.7071C5.31658 17.0976 4.68342 17.0976 4.29289 16.7071C3.90237 16.3166 3.90237 15.6834 4.29289 15.2929L6.58579 13H3C2.44772 13 2 12.5523 2 12C2 11.4477 2.44772 11 3 11H6.58579L4.29289 8.70711C3.90237 8.31658 3.90237 7.68342 4.29289 7.29289C4.68342 6.90237 5.31658 6.90237 5.70711 7.29289L9.41421 11H11V9.41421L7.29289 5.70711C6.90237 5.31658 6.90237 4.68342 7.29289 4.29289C7.68342 3.90237 8.31658 3.90237 8.70711 4.29289L11 6.58579V3C11 2.44772 11.4477 2 12 2Z" fill="#141414"/>
</svg>
