<svg width="24" height="24" viewBox="0 0 24 24" fill="none" xmlns="http://www.w3.org/2000/svg">
<path d="M19.5323 7.81105L17.8524 8.35198L18.8889 9.76891C18.9437 9.83953 18.9836 9.92033 19.0064 10.0065C19.0292 10.0927 19.0343 10.1826 19.0215 10.2708C19.0087 10.359 18.9781 10.4438 18.9317 10.5201C18.8853 10.5964 18.824 10.6627 18.7513 10.7151C18.6787 10.7674 18.5961 10.8048 18.5087 10.825C18.4212 10.8452 18.3305 10.8478 18.242 10.8326C18.1535 10.8175 18.069 10.7849 17.9934 10.7367C17.9178 10.6886 17.8527 10.6259 17.802 10.5524L16.7679 9.13546L15.7314 10.5524C15.6246 10.69 15.468 10.7809 15.2948 10.8057C15.1216 10.8305 14.9455 10.7872 14.8039 10.6852C14.6623 10.5831 14.5664 10.4303 14.5366 10.2592C14.5069 10.0881 14.5455 9.91217 14.6444 9.76891L15.681 8.35198L14.001 7.81105C13.8314 7.75645 13.6907 7.63726 13.6097 7.4797C13.5288 7.32214 13.5142 7.13912 13.5692 6.9709C13.6242 6.80268 13.7444 6.66304 13.9032 6.58269C14.0619 6.50235 14.2464 6.48789 14.4159 6.54249L16.0959 7.08425V5.33394C16.0959 5.15709 16.1667 4.98749 16.2927 4.86245C16.4188 4.7374 16.5897 4.66715 16.7679 4.66715C16.9461 4.66715 17.1171 4.7374 17.2431 4.86245C17.3691 4.98749 17.4399 5.15709 17.4399 5.33394V7.08425L19.1199 6.54332C19.2894 6.48861 19.4739 6.50297 19.6328 6.58323C19.7917 6.6635 19.9119 6.8031 19.967 6.97132C20.0222 7.13954 20.0077 7.32261 19.9268 7.48024C19.8459 7.63788 19.7052 7.75718 19.5357 7.81189L19.5323 7.81105ZM13.4079 17.3361C13.4073 18.1385 13.1982 18.9272 12.8008 19.6261C12.4034 20.325 11.8312 20.9104 11.1393 21.3258C10.4474 21.7412 9.65928 21.9726 8.85098 21.9977C8.04268 22.0228 7.24152 21.8407 6.52484 21.469C5.80815 21.0972 5.20016 20.5484 4.75954 19.8756C4.31892 19.2027 4.06057 18.4285 4.00942 17.6277C3.95827 16.8269 4.11605 16.0265 4.46754 15.3038C4.81902 14.5812 5.35233 13.9606 6.01599 13.5021V4.66715C6.01599 3.95978 6.29918 3.28138 6.80328 2.78119C7.30737 2.281 7.99107 2 8.70397 2C9.41687 2 10.1006 2.281 10.6047 2.78119C11.1088 3.28138 11.392 3.95978 11.392 4.66715V13.5021C12.0136 13.9335 12.5213 14.5072 12.8723 15.1746C13.2232 15.842 13.4069 16.5834 13.4079 17.3361ZM5.41287 16.6693H11.9951C11.8994 16.2074 11.7064 15.7707 11.4287 15.3879C11.1511 15.0051 10.7951 14.6848 10.384 14.4481C10.2818 14.3896 10.1969 14.3054 10.138 14.204C10.079 14.1026 10.0479 13.9876 10.048 13.8705V4.66715C10.048 4.31346 9.90636 3.97426 9.65432 3.72417C9.40227 3.47408 9.06042 3.33358 8.70397 3.33358C8.34752 3.33358 8.00567 3.47408 7.75363 3.72417C7.50158 3.97426 7.35998 4.31346 7.35998 4.66715V13.8705C7.36001 13.9876 7.32897 14.1026 7.26999 14.204C7.211 14.3054 7.12616 14.3896 7.02398 14.4481C6.61288 14.6848 6.25684 15.0051 5.97919 15.3879C5.70154 15.7707 5.50855 16.2074 5.41287 16.6693Z" fill="#141414"/>
</svg>
