<svg width="24" height="24" viewBox="0 0 24 24" fill="none" xmlns="http://www.w3.org/2000/svg">
<path d="M12.4967 12.8703C12.7269 12.9987 12.8953 13.2109 12.9651 13.4604C13.0348 13.7099 13.0002 13.9762 12.8687 14.2007L11.7237 16.1554H12.8287C13.0214 16.1554 13.2107 16.2048 13.3777 16.2986C13.5447 16.3924 13.6835 16.5273 13.7802 16.6899C13.877 16.8525 13.9282 17.037 13.9288 17.2249C13.9294 17.4129 13.8794 17.5977 13.7837 17.7609L11.8687 21.0284C11.7338 21.2465 11.5168 21.4045 11.2641 21.4686C11.0114 21.5327 10.743 21.4978 10.5163 21.3715C10.2896 21.2451 10.1225 21.0373 10.0508 20.7924C9.97914 20.5475 10.0085 20.2849 10.1327 20.0609L11.2777 18.1062H10.1727C9.97996 18.1062 9.79063 18.0568 9.62363 17.963C9.45664 17.8692 9.31784 17.7343 9.22113 17.5717C9.12442 17.4091 9.07319 17.2246 9.07258 17.0367C9.07197 16.8487 9.122 16.6639 9.21765 16.5007L11.1327 13.2332C11.2643 13.0087 11.4819 12.8443 11.7377 12.7763C11.9935 12.7083 12.2665 12.7421 12.4967 12.8703ZM14.9997 18.5949C15.0303 18.4676 15.0868 18.3477 15.1658 18.2422C15.2448 18.1366 15.3447 18.0477 15.4596 17.9805C15.5746 17.9134 15.7022 17.8695 15.8349 17.8514C15.9675 17.8333 16.1026 17.8414 16.232 17.8752C16.3614 17.909 16.4825 17.9678 16.5882 18.0481C16.6939 18.1285 16.7819 18.2287 16.8471 18.3429C16.9122 18.457 16.9532 18.5828 16.9676 18.7127C16.982 18.8426 16.9695 18.974 16.9308 19.0991L16.6728 20.0414C16.6393 20.1656 16.581 20.2822 16.5012 20.3844C16.4214 20.4866 16.3217 20.5725 16.2078 20.637C16.0939 20.7015 15.9681 20.7435 15.8375 20.7605C15.707 20.7774 15.5743 20.7691 15.447 20.7358C15.3198 20.7026 15.2005 20.6452 15.0961 20.5669C14.9917 20.4886 14.9041 20.391 14.8385 20.2796C14.7729 20.1682 14.7304 20.0453 14.7137 19.9179C14.6969 19.7904 14.7061 19.661 14.7407 19.5371L14.9997 18.5949ZM5.2196 18.5949C5.25306 18.4706 5.31135 18.354 5.39113 18.2518C5.47092 18.1496 5.57062 18.0637 5.68451 17.9992C5.79841 17.9347 5.92425 17.8927 6.05481 17.8757C6.18538 17.8588 6.31809 17.8672 6.44533 17.9004C6.57257 17.9336 6.69182 17.991 6.79625 18.0693C6.90068 18.1476 6.98823 18.2452 7.05386 18.3566C7.11949 18.468 7.16191 18.5909 7.17869 18.7183C7.19546 18.8458 7.18627 18.9752 7.15163 19.0991L6.89162 20.0414C6.81659 20.2839 6.64771 20.4885 6.42075 20.6118C6.19378 20.7351 5.92655 20.7673 5.67561 20.7018C5.42467 20.6363 5.20972 20.4781 5.07627 20.2607C4.94281 20.0433 4.90133 19.7838 4.9606 19.5371L5.2196 18.5949ZM11.5007 2.5C12.8231 2.49988 14.1141 2.89306 15.2015 3.6271C16.2889 4.36113 17.121 5.40112 17.5868 6.60833C18.6706 6.89853 19.6492 7.47975 20.411 8.2858C21.1728 9.09186 21.6873 10.0904 21.8958 11.1676C22.1043 12.2449 21.9985 13.3576 21.5905 14.3791C21.1825 15.4006 20.4886 16.2898 19.5878 16.9455L19.6148 16.8626L19.8988 15.8355C20.0694 15.216 20.0266 14.559 19.777 13.9656C19.5274 13.3722 19.0848 12.8752 18.5173 12.5511C17.9498 12.227 17.2888 12.0938 16.6361 12.1719C15.9834 12.25 15.3751 12.5352 14.9047 12.9835C14.7554 12.4198 14.4371 11.9123 13.9906 11.526C13.544 11.1397 12.9894 10.8922 12.3978 10.815C11.8061 10.7378 11.2044 10.8345 10.6694 11.0927C10.1344 11.351 9.69058 11.759 9.39466 12.2646L9.08965 12.7884C8.70009 12.4858 8.23942 12.2825 7.74919 12.1969C7.25897 12.1113 6.75461 12.1461 6.28161 12.2981C5.80862 12.4502 5.38187 12.7147 5.03986 13.0678C4.69786 13.4209 4.45135 13.8515 4.32259 14.3207L4.06359 15.2629C3.92661 15.759 3.92661 16.2816 4.06359 16.7777C3.98693 16.8525 3.91449 16.9313 3.84658 17.0138C3.1808 16.486 2.66544 15.8 2.35007 15.0218C2.0347 14.2436 1.92993 13.3993 2.04585 12.5702C2.16176 11.741 2.49445 10.9549 3.01193 10.2875C3.5294 9.62004 4.21425 9.09368 5.0006 8.75906C5.02243 7.09165 5.71688 5.49976 6.93353 4.32823C8.15017 3.1567 9.79104 2.49986 11.5007 2.5ZM17.2598 14.1364C17.3866 14.1695 17.5056 14.2267 17.6097 14.3047C17.7139 14.3827 17.8014 14.48 17.867 14.5909C17.9327 14.7019 17.9753 14.8244 17.9924 14.9514C18.0095 15.0784 18.0008 15.2075 17.9668 15.3312L17.7078 16.2734C17.6391 16.5233 17.4714 16.7364 17.2417 16.8657C17.0119 16.995 16.739 17.03 16.4827 16.963C16.2265 16.896 16.0081 16.7325 15.8755 16.5084C15.7429 16.2844 15.707 16.0181 15.7757 15.7682L16.0347 14.826C16.0687 14.7022 16.1274 14.5862 16.2074 14.4846C16.2873 14.383 16.387 14.2977 16.5008 14.2337C16.6146 14.1696 16.7401 14.1281 16.8704 14.1114C17.0006 14.0947 17.1329 14.1032 17.2598 14.1364ZM7.47963 14.1364C7.6065 14.1695 7.72542 14.2267 7.82962 14.3047C7.93381 14.3827 8.02123 14.48 8.08689 14.5909C8.15254 14.7019 8.19514 14.8244 8.21226 14.9514C8.22937 15.0784 8.22067 15.2075 8.18664 15.3312L7.92764 16.2734C7.85895 16.5233 7.69129 16.7364 7.46156 16.8657C7.23182 16.995 6.95882 17.03 6.70262 16.963C6.44642 16.896 6.228 16.7325 6.09541 16.5084C5.96282 16.2844 5.92692 16.0181 5.99561 15.7682L6.25462 14.826C6.28861 14.7022 6.34727 14.5862 6.42724 14.4846C6.50721 14.383 6.60691 14.2977 6.72067 14.2337C6.83443 14.1696 6.96001 14.1281 7.09023 14.1114C7.22045 14.0947 7.35277 14.1032 7.47963 14.1364Z" fill="#141414"/>
</svg>
