<svg width="24" height="24" viewBox="0 0 24 24" fill="none" xmlns="http://www.w3.org/2000/svg">
<path d="M12.496 12.632C12.7261 12.7636 12.8946 12.9812 12.9644 13.237C13.0341 13.4928 12.9995 13.7658 12.868 13.996L11.723 16H12.828C13.0207 16 13.21 16.0506 13.377 16.1468C13.544 16.2429 13.6828 16.3813 13.7795 16.548C13.8762 16.7147 13.9275 16.9038 13.9281 17.0965C13.9287 17.2892 13.8786 17.4787 13.783 17.646L11.868 20.996C11.7331 21.2196 11.5161 21.3815 11.2634 21.4473C11.0107 21.513 10.7423 21.4772 10.5156 21.3477C10.2889 21.2181 10.1218 21.0051 10.0502 20.754C9.97847 20.5029 10.0078 20.2337 10.132 20.004L11.277 18H10.172C9.97929 18 9.78996 17.9494 9.62297 17.8532C9.45597 17.7571 9.31718 17.6187 9.22047 17.452C9.12376 17.2853 9.07254 17.0962 9.07193 16.9035C9.07132 16.7108 9.12134 16.5213 9.21699 16.354L11.132 13.004C11.2636 12.7738 11.4812 12.6054 11.737 12.5356C11.9928 12.4659 12.2658 12.5005 12.496 12.632ZM14.999 18.501C15.0296 18.3706 15.086 18.2476 15.165 18.1394C15.244 18.0312 15.344 17.94 15.4589 17.8712C15.5738 17.8024 15.7014 17.7573 15.8341 17.7388C15.9668 17.7202 16.1018 17.7285 16.2312 17.7632C16.3607 17.7978 16.4818 17.8581 16.5874 17.9405C16.6931 18.0228 16.7811 18.1256 16.8463 18.2426C16.9115 18.3597 16.9525 18.4886 16.9668 18.6218C16.9812 18.755 16.9687 18.8897 16.93 19.018L16.672 19.984C16.6385 20.1114 16.5802 20.2309 16.5005 20.3357C16.4207 20.4405 16.321 20.5285 16.2071 20.5947C16.0932 20.6609 15.9674 20.7039 15.8368 20.7213C15.7062 20.7386 15.5735 20.7301 15.4463 20.696C15.319 20.662 15.1998 20.6031 15.0954 20.5228C14.9909 20.4426 14.9034 20.3425 14.8378 20.2283C14.7721 20.1141 14.7297 19.988 14.7129 19.8574C14.6962 19.7267 14.7054 19.5941 14.74 19.467L14.999 18.501ZM5.21899 18.501C5.25245 18.3736 5.31074 18.2541 5.39052 18.1493C5.47031 18.0445 5.57001 17.9565 5.6839 17.8903C5.79779 17.8241 5.92363 17.7811 6.05419 17.7637C6.18476 17.7464 6.31747 17.7549 6.4447 17.789C6.57194 17.823 6.6912 17.8819 6.79563 17.9622C6.90006 18.0424 6.9876 18.1425 7.05323 18.2567C7.11885 18.3709 7.16128 18.497 7.17805 18.6276C7.19483 18.7583 7.18564 18.8909 7.15099 19.018L6.89099 19.984C6.81596 20.2327 6.64708 20.4424 6.42012 20.5688C6.19316 20.6952 5.92593 20.7283 5.67499 20.6611C5.42406 20.5939 5.20911 20.4317 5.07566 20.2089C4.94221 19.986 4.90073 19.7199 4.96 19.467L5.21899 18.501ZM11.5 2C12.8224 1.99987 14.1134 2.40298 15.2008 3.15554C16.2882 3.9081 17.1202 4.97433 17.586 6.212C18.6699 6.50953 19.6484 7.10541 20.4102 7.9318C21.172 8.7582 21.6864 9.78189 21.895 10.8863C22.1035 11.9908 21.9977 13.1316 21.5897 14.1788C21.1816 15.2261 20.4877 16.1378 19.587 16.81L19.614 16.725L19.898 15.672C20.0686 15.0369 20.0258 14.3633 19.7762 13.7549C19.5266 13.1465 19.084 12.637 18.5165 12.3047C17.949 11.9725 17.2881 11.8359 16.6354 11.916C15.9826 11.996 15.3743 12.2884 14.904 12.748C14.7547 12.1701 14.4364 11.6498 13.9898 11.2538C13.5433 10.8578 12.9887 10.6039 12.3971 10.5248C11.8055 10.4457 11.2037 10.5448 10.6687 10.8096C10.1337 11.0743 9.68992 11.4926 9.39399 12.011L9.08899 12.548C8.69944 12.2377 8.23877 12.0293 7.74855 11.9416C7.25833 11.8538 6.75398 11.8895 6.28099 12.0454C5.808 12.2013 5.38126 12.4724 5.03926 12.8345C4.69726 13.1965 4.45076 13.6379 4.322 14.119L4.063 15.085C3.92602 15.5936 3.92602 16.1294 4.063 16.638C3.98634 16.7147 3.9139 16.7955 3.84599 16.88C3.18022 16.3389 2.66486 15.6356 2.3495 14.8378C2.03413 14.0399 1.92937 13.1743 2.04528 12.3243C2.16119 11.4742 2.49388 10.6683 3.01135 9.984C3.52882 9.29971 4.21365 8.76007 4.99999 8.417C5.02183 6.70752 5.71627 5.07546 6.9329 3.87437C8.14953 2.67327 9.79037 1.99986 11.5 2ZM17.259 13.93C17.3859 13.964 17.5048 14.0227 17.609 14.1026C17.7132 14.1826 17.8006 14.2823 17.8662 14.3961C17.9319 14.5098 17.9745 14.6354 17.9916 14.7656C18.0087 14.8958 18 15.0281 17.966 15.155L17.707 16.121C17.6383 16.3772 17.4707 16.5956 17.2409 16.7282C17.0112 16.8608 16.7382 16.8967 16.482 16.828C16.2258 16.7593 16.0074 16.5917 15.8748 16.3619C15.7422 16.1322 15.7063 15.8592 15.775 15.603L16.034 14.637C16.068 14.5101 16.1267 14.3912 16.2066 14.287C16.2866 14.1828 16.3863 14.0954 16.5 14.0298C16.6138 13.9641 16.7394 13.9215 16.8696 13.9044C16.9998 13.8873 17.1321 13.896 17.259 13.93ZM7.47899 13.93C7.60586 13.964 7.72478 14.0227 7.82898 14.1026C7.93317 14.1826 8.02059 14.2823 8.08624 14.3961C8.1519 14.5098 8.1945 14.6354 8.21161 14.7656C8.22873 14.8958 8.22002 15.0281 8.18599 15.155L7.92699 16.121C7.8583 16.3772 7.69065 16.5956 7.46092 16.7282C7.23119 16.8608 6.95819 16.8967 6.70199 16.828C6.4458 16.7593 6.22738 16.5917 6.09479 16.3619C5.9622 16.1322 5.9263 15.8592 5.99499 15.603L6.25399 14.637C6.28799 14.5101 6.34665 14.3912 6.42662 14.287C6.50658 14.1828 6.60629 14.0954 6.72005 14.0298C6.8338 13.9641 6.95938 13.9215 7.0896 13.9044C7.21982 13.8873 7.35214 13.896 7.47899 13.93Z" fill="#141414"/>
</svg>
