<svg width="24" height="24" viewBox="0 0 24 24" fill="none" xmlns="http://www.w3.org/2000/svg">
<path d="M14.5714 13.5049V4.66626C14.5714 3.95912 14.3005 3.28095 13.8183 2.78093C13.336 2.28091 12.682 2 12 2C11.318 2 10.664 2.28091 10.1817 2.78093C9.69949 3.28095 9.42857 3.95912 9.42857 4.66626V13.5049C8.64237 14.0725 8.05139 14.8855 7.74166 15.8255C7.43194 16.7656 7.41962 17.7835 7.7065 18.7313C7.99339 19.6791 8.56451 20.5072 9.33673 21.0951C10.109 21.683 11.042 22 12 22C12.958 22 13.891 21.683 14.6633 21.0951C15.4355 20.5072 16.0066 19.6791 16.2935 18.7313C16.5804 17.7835 16.5681 16.7656 16.2583 15.8255C15.9486 14.8855 15.3576 14.0725 14.5714 13.5049ZM12 3.33313C12.341 3.33313 12.668 3.47358 12.9091 3.7236C13.1503 3.97361 13.2857 4.31269 13.2857 4.66626V9.99878H10.7143V4.66626C10.7143 4.31269 10.8497 3.97361 11.0909 3.7236C11.332 3.47358 11.659 3.33313 12 3.33313Z" fill="#141414"/>
<path d="M14.5714 13.5049V4.66626C14.5714 3.95912 14.3005 3.28095 13.8183 2.78093C13.336 2.28091 12.682 2 12 2C11.318 2 10.664 2.28091 10.1817 2.78093C9.69949 3.28095 9.42857 3.95912 9.42857 4.66626V13.5049C8.64237 14.0725 8.05139 14.8855 7.74166 15.8255C7.43194 16.7656 7.41962 17.7835 7.7065 18.7313C7.99339 19.6791 8.56451 20.5072 9.33673 21.0951C10.109 21.683 11.042 22 12 22C12.958 22 13.891 21.683 14.6633 21.0951C15.4355 20.5072 16.0066 19.6791 16.2935 18.7313C16.5804 17.7835 16.5681 16.7656 16.2583 15.8255C15.9486 14.8855 15.3576 14.0725 14.5714 13.5049ZM12 3.33313C12.341 3.33313 12.668 3.47358 12.9091 3.7236C13.1503 3.97361 13.2857 4.31269 13.2857 4.66626V9.99878H10.7143V4.66626C10.7143 4.31269 10.8497 3.97361 11.0909 3.7236C11.332 3.47358 11.659 3.33313 12 3.33313Z" fill="#141414"/>
</svg>
