<svg width="24" height="24" viewBox="0 0 24 24" fill="none" xmlns="http://www.w3.org/2000/svg">
<path d="M11.6738 13.5049V4.66626C11.6738 3.95912 11.3989 3.28095 10.9097 2.78093C10.4205 2.28091 9.75699 2 9.06513 2C8.37328 2 7.70976 2.28091 7.22054 2.78093C6.73132 3.28095 6.45649 3.95912 6.45649 4.66626V13.5049C5.6589 14.0725 5.05937 14.8855 4.74516 15.8255C4.43095 16.7656 4.41845 17.7835 4.70949 18.7313C5.00053 19.6791 5.57992 20.5072 6.36332 21.0951C7.14671 21.683 8.09324 22 9.06513 22C10.037 22 10.9836 21.683 11.767 21.0951C12.5504 20.5072 13.1297 19.6791 13.4208 18.7313C13.7118 17.7835 13.6993 16.7656 13.3851 15.8255C13.0709 14.8855 12.4714 14.0725 11.6738 13.5049ZM10.3695 5.99939H7.76081V4.66626C7.76081 4.31269 7.89823 3.97361 8.14284 3.7236C8.38745 3.47359 8.7192 3.33313 9.06513 3.33313C9.41106 3.33313 9.74282 3.47359 9.98743 3.7236C10.232 3.97361 10.3695 4.31269 10.3695 4.66626V5.99939ZM13.7362 8.06324C13.6418 7.91518 13.6087 7.73483 13.6443 7.56186C13.68 7.38889 13.7813 7.23746 13.9262 7.14088C15.149 6.32518 16.1166 6.74511 16.821 7.05257C17.4617 7.33252 17.8498 7.49916 18.4913 7.0734C18.6363 6.97683 18.8128 6.94307 18.9822 6.97956C19.1515 7.01604 19.2997 7.11978 19.3942 7.26795C19.4886 7.41612 19.5217 7.59658 19.486 7.76963C19.4503 7.94268 19.3488 8.09416 19.2038 8.19073C18.6747 8.54317 18.1954 8.66565 17.7625 8.66565C17.1919 8.66565 16.7093 8.45402 16.309 8.27988C15.6683 7.99909 15.2802 7.83245 14.6387 8.25821C14.5669 8.30598 14.4866 8.33883 14.4024 8.35489C14.3182 8.37094 14.2317 8.36988 14.1479 8.35178C14.0641 8.33367 13.9847 8.29887 13.914 8.24937C13.8434 8.19986 13.783 8.13661 13.7362 8.06324ZM19.3937 9.93463C19.4882 10.0827 19.5213 10.263 19.4856 10.436C19.45 10.609 19.3486 10.7604 19.2038 10.857C18.6747 11.2094 18.1954 11.3319 17.7625 11.3319C17.1919 11.3319 16.7093 11.1203 16.309 10.9461C15.6675 10.6662 15.2802 10.4979 14.6387 10.9253C14.5669 10.9731 14.4866 11.006 14.4024 11.0221C14.3182 11.0382 14.2317 11.0372 14.1478 11.0191C14.064 11.0011 13.9845 10.9663 13.9138 10.9168C13.8431 10.8673 13.7826 10.8041 13.7358 10.7308C13.6414 10.5826 13.6083 10.4021 13.644 10.2291C13.6797 10.056 13.7812 9.90455 13.9262 9.80798C15.149 8.99227 16.1166 9.41221 16.821 9.71966C17.4625 9.99962 17.8498 10.1688 18.4913 9.74049C18.6362 9.64394 18.8126 9.61015 18.9819 9.64656C19.1511 9.68297 19.2993 9.78658 19.3937 9.93463Z" fill="#141414"/>
</svg>
