<svg width="24" height="24" viewBox="0 0 24 24" fill="none" xmlns="http://www.w3.org/2000/svg">
<path d="M17.1136 5.99939C16.6417 5.99939 16.1803 6.13622 15.7878 6.39257C15.3954 6.64892 15.0895 7.01328 14.9089 7.43958C14.7283 7.86587 14.681 8.33496 14.7731 8.78751C14.8652 9.24007 15.0925 9.65576 15.4262 9.98204C15.76 10.3083 16.1852 10.5305 16.6481 10.6205C17.111 10.7105 17.5908 10.6643 18.0269 10.4878C18.4629 10.3112 18.8356 10.0122 19.0978 9.6285C19.36 9.24485 19.5 8.79379 19.5 8.33237C19.5 7.71363 19.2486 7.12022 18.8011 6.68271C18.3535 6.24519 17.7465 5.99939 17.1136 5.99939ZM17.1136 9.33222C16.9114 9.33222 16.7136 9.27358 16.5454 9.16371C16.3773 9.05385 16.2462 8.89769 16.1688 8.715C16.0914 8.5323 16.0711 8.33126 16.1106 8.13731C16.15 7.94336 16.2474 7.7652 16.3905 7.62537C16.5335 7.48554 16.7157 7.39031 16.9141 7.35173C17.1125 7.31315 17.3181 7.33295 17.505 7.40863C17.6919 7.48431 17.8516 7.61246 17.964 7.77689C18.0764 7.94131 18.1364 8.13462 18.1364 8.33237C18.1364 8.59755 18.0286 8.85186 17.8368 9.03937C17.645 9.22688 17.3849 9.33222 17.1136 9.33222ZM12 13.5049V4.66626C12 3.95912 11.7127 3.28095 11.2012 2.78093C10.6897 2.28091 9.99605 2 9.27273 2C8.54941 2 7.85572 2.28091 7.34425 2.78093C6.83279 3.28095 6.54545 3.95912 6.54545 4.66626V13.5049C5.7116 14.0725 5.08481 14.8855 4.75631 15.8255C4.42781 16.7656 4.41475 17.7835 4.71902 18.7313C5.02329 19.6791 5.62902 20.5072 6.44805 21.0951C7.26707 21.683 8.25664 22 9.27273 22C10.2888 22 11.2784 21.683 12.0974 21.0951C12.9164 20.5072 13.5222 19.6791 13.8264 18.7313C14.1307 17.7835 14.1176 16.7656 13.7891 15.8255C13.4606 14.8855 12.8339 14.0725 12 13.5049ZM10.6364 9.99878H7.90909V4.66626C7.90909 4.31269 8.05276 3.97361 8.30849 3.7236C8.56422 3.47359 8.91107 3.33313 9.27273 3.33313C9.63439 3.33313 9.98123 3.47359 10.237 3.7236C10.4927 3.97361 10.6364 4.31269 10.6364 4.66626V9.99878Z" fill="#141414"/>
</svg>
