<svg width="24" height="24" viewBox="0 0 24 24" fill="none" xmlns="http://www.w3.org/2000/svg">
<path d="M13 3C13 2.73478 12.8947 2.48043 12.7071 2.29289C12.5196 2.10536 12.2652 2 12 2C11.7348 2 11.4805 2.10536 11.2929 2.29289C11.1054 2.48043 11 2.73478 11 3V3.056C8.84802 3.29651 6.85486 4.30484 5.38617 5.89605C3.91747 7.48726 3.07171 9.55465 3.00403 11.719C2.99907 11.8856 3.02765 12.0515 3.08807 12.2069C3.14849 12.3623 3.23951 12.5039 3.35574 12.6234C3.47197 12.7429 3.61102 12.8378 3.76465 12.9025C3.91827 12.9672 4.08334 13.0003 4.25003 13H11V19C11 19.394 11.0776 19.7841 11.2284 20.1481C11.3792 20.512 11.6001 20.8427 11.8787 21.1213C12.1573 21.3999 12.488 21.6209 12.852 21.7716C13.216 21.9224 13.6061 22 14 22C14.394 22 14.7841 21.9224 15.1481 21.7716C15.5121 21.6209 15.8428 21.3999 16.1214 21.1213C16.3999 20.8427 16.6209 20.512 16.7717 20.1481C16.9224 19.7841 17 19.394 17 19V18C17 17.7348 16.8947 17.4804 16.7071 17.2929C16.5196 17.1054 16.2652 17 16 17C15.7348 17 15.4805 17.1054 15.2929 17.2929C15.1054 17.4804 15 17.7348 15 18V19C15 19.2652 14.8947 19.5196 14.7071 19.7071C14.5196 19.8946 14.2652 20 14 20C13.7348 20 13.4805 19.8946 13.2929 19.7071C13.1054 19.5196 13 19.2652 13 19V13H19.75C20.432 13 21.018 12.441 20.995 11.719C20.9274 9.5548 20.0818 7.48753 18.6133 5.89635C17.1448 4.30516 15.1519 3.29673 13 3.056V3Z" fill="#141414"/>
</svg>
