<svg width="24" height="24" viewBox="0 0 24 24" fill="none" xmlns="http://www.w3.org/2000/svg">
<path d="M13.0009 3C13.0009 2.73478 12.8955 2.48043 12.7079 2.29289C12.5202 2.10536 12.2658 2 12.0004 2C11.7351 2 11.4807 2.10536 11.293 2.29289C11.1054 2.48043 11 2.73478 11 3V3.056C8.84707 3.29651 6.85305 4.30484 5.38372 5.89605C3.91439 7.48726 3.06827 9.55465 3.00055 11.719C2.99559 11.8856 3.02418 12.0515 3.08463 12.2069C3.14507 12.3623 3.23614 12.5039 3.35241 12.6234C3.46869 12.7429 3.60781 12.8378 3.7615 12.9025C3.91519 12.9672 4.08033 13.0003 4.24709 13H11V19C11 19.394 11.0776 19.7841 11.2285 20.1481C11.3793 20.512 11.6004 20.8427 11.8791 21.1213C12.1578 21.3999 12.4886 21.6209 12.8528 21.7716C13.2169 21.9224 13.6072 22 14.0013 22C14.3955 22 14.7857 21.9224 15.1499 21.7716C15.514 21.6209 15.8449 21.3999 16.1236 21.1213C16.4023 20.8427 16.6233 20.512 16.7742 20.1481C16.925 19.7841 17.0026 19.394 17.0026 19V18C17.0026 17.7348 16.8972 17.4804 16.7096 17.2929C16.522 17.1054 16.2675 17 16.0022 17C15.7368 17 15.4824 17.1054 15.2948 17.2929C15.1072 17.4804 15.0017 17.7348 15.0017 18V19C15.0017 19.2652 14.8963 19.5196 14.7087 19.7071C14.5211 19.8946 14.2666 20 14.0013 20C13.736 20 13.4815 19.8946 13.2939 19.7071C13.1063 19.5196 13.0009 19.2652 13.0009 19V13H19.7538C20.4361 13 21.0224 12.441 20.9993 11.719C20.9317 9.5548 20.0857 7.48753 18.6166 5.89635C17.1474 4.30516 15.1536 3.29673 13.0009 3.056V3Z" fill="#141414"/>
</svg>
