<svg width="24" height="24" viewBox="0 0 24 24" fill="none" xmlns="http://www.w3.org/2000/svg">
<path d="M18.0465 21C15.8698 21 14.093 19.2706 14.093 17.1519V16.6992C14.093 16.328 14.4093 16.0201 14.7907 16.0201C15.1721 16.0201 15.4884 16.328 15.4884 16.6992V17.1519C15.4884 18.5282 16.6326 19.6419 18.0465 19.6419C19.4605 19.6419 20.6047 18.5282 20.6047 17.1519C20.6047 15.7757 19.4605 14.662 18.0465 14.662H2.69767C2.31628 14.662 2 14.3541 2 13.9829C2 13.6117 2.31628 13.3038 2.69767 13.3038H18.0465C20.2233 13.3038 22 15.0332 22 17.1519C22 19.2706 20.2233 21 18.0465 21Z" fill="#141414"/>
<path d="M18.0465 11.9457H2.69767C2.31628 11.9457 2 11.6378 2 11.2666C2 10.8954 2.31628 10.5875 2.69767 10.5875H18.0465C19.4605 10.5875 20.6047 9.47384 20.6047 8.09759C20.6047 6.72133 19.4605 5.60765 18.0465 5.60765C16.6326 5.60765 15.4884 6.72133 15.4884 8.09759V8.5503C15.4884 8.92153 15.1721 9.22938 14.7907 9.22938C14.4093 9.22938 14.093 8.92153 14.093 8.5503V8.09759C14.093 5.97887 15.8698 4.2495 18.0465 4.2495C20.2233 4.2495 22 5.97887 22 8.09759C22 10.2163 20.2233 11.9457 18.0465 11.9457Z" fill="#141414"/>
<path d="M9.49767 9.22938H2.69767C2.31628 9.22938 2 8.92153 2 8.5503C2 8.17907 2.31628 7.87123 2.69767 7.87123H9.49767C10.493 7.87123 11.3023 7.0835 11.3023 6.11469C11.3023 5.14587 10.493 4.35815 9.49767 4.35815C8.50233 4.35815 7.69302 5.14587 7.69302 6.11469V6.45875C7.69302 6.82998 7.37674 7.13783 6.99535 7.13783C6.61395 7.13783 6.29767 6.83903 6.29767 6.45875V6.11469C6.29767 4.39437 7.73023 3 9.49767 3C11.2651 3 12.6977 4.39437 12.6977 6.11469C12.6977 7.83501 11.2651 9.22938 9.49767 9.22938Z" fill="#141414"/>
</svg>
