<svg width="24" height="24" viewBox="0 0 24 24" fill="none" xmlns="http://www.w3.org/2000/svg">
<path d="M8.82005 4.90003L7.54005 2.78003C7.06005 2.00003 6.11005 1.56003 5.22005 1.82003C3.88005 2.22003 3.36005 3.73003 4.03005 4.84003L5.35005 7.01003C5.50005 7.24003 5.81005 7.32003 6.04005 7.18003L8.65005 5.59003C8.89005 5.44003 8.97005 5.13003 8.82005 4.90003Z" fill="#141414"/>
<path d="M19.7401 14.21L16.9301 10.41C15.9501 9.09003 14.25 8.47003 12.6501 8.90003C12.6501 8.89003 12.6401 8.89003 12.6401 8.88003L10.9801 6.15003C10.6801 5.68003 10.0601 5.53004 9.59005 5.82003L6.12005 7.93003C5.64005 8.21003 5.49005 8.84003 5.78005 9.32003L7.43005 12.05C7.43005 12.05 7.43005 12.06 7.44005 12.06C6.33005 13.29 6.09005 15.08 6.83005 16.57L8.91005 20.81C9.55005 22.12 11.0601 22.62 12.3401 21.96C12.4401 21.91 12.4701 21.79 12.4101 21.69L10.8501 19.11C10.6301 18.75 10.7401 18.29 11.1001 18.06C11.4601 17.85 11.92 17.96 12.1501 18.31L13.7201 20.89C13.7801 20.98 13.9001 21.01 13.9901 20.96L14.9501 20.38C15.0401 20.32 15.0701 20.2 15.0201 20.11L13.4501 17.53C13.2401 17.17 13.3501 16.71 13.7001 16.48C14.0701 16.27 14.5301 16.38 14.7501 16.73L16.3201 19.31C16.3801 19.4 16.5001 19.43 16.5901 19.38L17.5501 18.8C17.6401 18.74 17.6701 18.62 17.6201 18.53L16.0501 15.95C15.8401 15.59 15.9501 15.13 16.3001 14.9C16.6701 14.69 17.1301 14.8 17.3501 15.15L18.9301 17.72C18.9901 17.81 19.1101 17.84 19.2001 17.78C20.3601 16.95 20.6201 15.39 19.7401 14.21Z" fill="#141414"/>
</svg>
