<svg width="24" height="24" viewBox="0 0 24 24" fill="none" xmlns="http://www.w3.org/2000/svg">
<path d="M20.42 9.00012C20.28 8.99012 20.1 8.98012 19.9 8.98012C19.51 8.98012 19.2 9.29012 19.2 9.68012V14.3301C19.2 14.7201 19.51 15.0301 19.9 15.0301C20.1 15.0301 20.27 15.0201 20.44 15.0101C22 14.8301 22 13.7301 22 12.9301V11.0701C22 10.2701 22 9.17012 20.42 9.00012Z" fill="#141414"/>
<path d="M18.28 10.1401V13.8601C18.28 16.8101 15.88 19.2101 12.93 19.2101H9.26C8.47 19.2101 7.99 18.3401 8.41 17.6801L15.67 6.20012C16.03 5.63012 16.84 5.58012 17.29 6.09012C18.01 6.92012 18.28 8.21012 18.28 10.1401Z" fill="#141414"/>
<path d="M16.4 1.87012C16.05 1.65012 15.59 1.75012 15.37 2.10012L13.66 4.81012C13.43 4.80012 13.19 4.79012 12.93 4.79012H7.35C3.25 4.79012 2 6.04012 2 10.1401V13.8601C2 16.9101 2.7 18.3701 4.74 18.9201L3.37 21.1001C3.15 21.4501 3.25 21.9101 3.6 22.1301C3.72 22.2101 3.86 22.2501 4 22.2501C4.25 22.2501 4.49 22.1301 4.63 21.9001L16.63 2.90012C16.86 2.55012 16.75 2.09012 16.4 1.87012Z" fill="#141414"/>
</svg>
