<svg width="24" height="24" viewBox="0 0 24 24" fill="none" xmlns="http://www.w3.org/2000/svg">
<path d="M5.33011 19.4201C5.22011 19.4201 5.10011 19.3901 5.00011 19.3401L2.78011 18.2301C2.53011 18.1001 2.37011 17.8401 2.37011 17.5601V14.7801C2.37011 14.3701 2.71011 14.0301 3.12011 14.0301C3.53011 14.0301 3.87011 14.3701 3.87011 14.7801V17.0901L5.67011 18.0001C6.04011 18.1801 6.19011 18.6301 6.00011 19.0001C5.87011 19.2601 5.61011 19.4201 5.33011 19.4201Z" fill="#141414"/>
<path d="M12.0001 22.7501C11.9401 22.7501 11.8801 22.7401 11.8301 22.7301C11.7701 22.7201 11.7101 22.6901 11.6501 22.6601L9.44011 21.5601C9.07011 21.3701 8.92011 20.9201 9.10011 20.5501C9.29011 20.1801 9.74011 20.0301 10.1101 20.2101L11.2501 20.7801V19.2201C11.2501 18.8101 11.5901 18.4701 12.0001 18.4701C12.4101 18.4701 12.7501 18.8101 12.7501 19.2201V20.7801L13.8901 20.2101C14.2601 20.0301 14.7101 20.1801 14.9001 20.5501C15.0901 20.9201 14.9401 21.3701 14.5601 21.5601L12.3501 22.6601C12.2901 22.6901 12.2301 22.7101 12.1701 22.7301C12.1101 22.7401 12.0601 22.7501 12.0001 22.7501Z" fill="#141414"/>
<path d="M18.6701 19.4201C18.4001 19.4201 18.1301 19.2701 18.0001 19.0101C17.8101 18.6401 17.9601 18.1901 18.3401 18.0001L20.1501 17.1001V14.7901C20.1501 14.3801 20.4901 14.0401 20.9001 14.0401C21.3101 14.0401 21.6501 14.3801 21.6501 14.7901V17.5701C21.6501 17.8501 21.4901 18.1101 21.2401 18.2401L19.0001 19.3401C18.8901 19.3901 18.7801 19.4201 18.6701 19.4201Z" fill="#141414"/>
<path d="M12.0001 14.4201C11.5901 14.4201 11.2501 14.0801 11.2501 13.6701V11.3601L9.44011 10.4601C9.07011 10.2701 8.92011 9.82006 9.10011 9.45006C9.29011 9.08006 9.74011 8.93006 10.1101 9.11006L12.0001 10.0501L13.8901 9.11006C14.2601 8.93006 14.7101 9.07006 14.9001 9.45006C15.0901 9.82006 14.9401 10.2701 14.5601 10.4601L12.7501 11.3601V13.6701C12.7501 14.0801 12.4101 14.4201 12.0001 14.4201Z" fill="#141414"/>
<path d="M3.11011 9.97006C2.70011 9.97006 2.36011 9.63006 2.36011 9.22006V6.45006C2.36011 6.39006 2.37011 6.33006 2.38011 6.28006C2.40011 6.19006 2.43011 6.12006 2.47011 6.05006C2.50011 6.00006 2.54011 5.96006 2.58011 5.92006C2.62011 5.88006 2.67011 5.84006 2.72011 5.81006C2.74011 5.80006 2.77011 5.78006 2.79011 5.77006L5.00011 4.66006C5.37011 4.48006 5.82011 4.63006 6.00011 5.00006C6.19011 5.37006 6.04011 5.82006 5.67011 6.00006L4.79011 6.44006L5.67011 6.88006C6.04011 7.07006 6.19011 7.52006 6.00011 7.89006C5.82011 8.26006 5.37011 8.41006 5.00011 8.23006L3.86011 7.66006V9.22006C3.86011 9.64006 3.53011 9.97006 3.11011 9.97006Z" fill="#141414"/>
<path d="M14.2201 3.86006C14.1101 3.86006 13.9901 3.83006 13.8901 3.78006L12.0001 2.84006L10.1101 3.78006C9.74011 3.97006 9.29011 3.82006 9.11011 3.45006C8.92011 3.08006 9.07011 2.63006 9.44011 2.44006L11.6601 1.33006C11.8701 1.22006 12.1201 1.22006 12.3301 1.33006L14.5501 2.44006C14.9201 2.63006 15.0701 3.08006 14.8901 3.45006C14.7601 3.71006 14.5001 3.86006 14.2201 3.86006Z" fill="#141414"/>
<path d="M20.8901 9.97006C20.4801 9.97006 20.1401 9.63006 20.1401 9.22006V7.66006L19.0001 8.23006C18.6301 8.41006 18.1801 8.26006 18.0001 7.89006C17.8101 7.52006 17.9601 7.07006 18.3401 6.88006L19.2201 6.44006L18.3301 6.00006C17.9601 5.82006 17.8101 5.37006 18.0001 5.00006C18.1901 4.63006 18.6301 4.48006 19.0001 4.66006L21.2101 5.76006C21.2301 5.77006 21.2601 5.78006 21.2801 5.80006C21.3401 5.83006 21.3901 5.88006 21.4401 5.93006C21.4701 5.97006 21.5001 6.01006 21.5301 6.05006C21.5701 6.12006 21.6001 6.19006 21.6201 6.27006C21.6301 6.33006 21.6401 6.39006 21.6401 6.44006V9.21006C21.6401 9.64006 21.3001 9.97006 20.8901 9.97006Z" fill="#141414"/>
</svg>
