<svg width="24" height="24" viewBox="0 0 24 24" fill="none" xmlns="http://www.w3.org/2000/svg">
<path d="M6 5.12012C5.59 5.12012 5.25 4.78012 5.25 4.37012V2.62012C5.25 2.21012 5.59 1.87012 6 1.87012C6.41 1.87012 6.75 2.21012 6.75 2.62012V4.37012C6.75 4.79012 6.41 5.12012 6 5.12012Z" fill="#141414"/>
<path d="M10 5.12012C9.59 5.12012 9.25 4.78012 9.25 4.37012V2.62012C9.25 2.21012 9.59 1.87012 10 1.87012C10.41 1.87012 10.75 2.21012 10.75 2.62012V4.37012C10.75 4.79012 10.41 5.12012 10 5.12012Z" fill="#141414"/>
<path d="M14 5.12012C13.59 5.12012 13.25 4.78012 13.25 4.37012V2.62012C13.25 2.21012 13.59 1.87012 14 1.87012C14.41 1.87012 14.75 2.21012 14.75 2.62012V4.37012C14.75 4.79012 14.41 5.12012 14 5.12012Z" fill="#141414"/>
<path d="M22.25 13.2501C22.25 10.6301 20.22 8.51012 17.66 8.29012C16.92 7.08012 15.6 6.26012 14.08 6.26012H6.71C4.39 6.26012 2.5 8.15012 2.5 10.4701V11.0001H18.29V10.4701C18.29 10.2801 18.26 10.0901 18.23 9.91012C19.68 10.3401 20.75 11.6601 20.75 13.2501C20.75 14.8201 19.71 16.1301 18.29 16.5701V12.0001H2.5V17.7901C2.5 20.1101 4.39 22.0001 6.71 22.0001H14.08C16.28 22.0001 18.07 20.3001 18.25 18.1401C20.53 17.6801 22.25 15.6601 22.25 13.2501Z" fill="#141414"/>
</svg>
