<svg width="24" height="24" viewBox="0 0 24 24" fill="none" xmlns="http://www.w3.org/2000/svg">
<path d="M22 5.71002V15.29C22 18.05 19.76 20.29 17 20.29H7C6.54 20.29 6.1 20.23 5.67 20.11C5.05 19.94 4.85 19.15 5.31 18.69L15.94 8.06002C16.16 7.84002 16.49 7.79002 16.8 7.85002C17.12 7.91002 17.47 7.82002 17.72 7.58002L20.29 5.00002C21.23 4.06002 22 4.37002 22 5.71002Z" fill="#141414"/>
<path d="M14.64 7.36002L4.17 17.83C3.69 18.31 2.89 18.19 2.57 17.59C2.2 16.91 2 16.12 2 15.29V5.71002C2 4.37002 2.77 4.06002 3.71 5.00002L6.29 7.59002C6.68 7.97002 7.32 7.97002 7.71 7.59002L11.29 4.00002C11.68 3.61002 12.32 3.61002 12.71 4.00002L14.65 5.94002C15.03 6.33002 15.03 6.97002 14.64 7.36002Z" fill="#141414"/>
</svg>
