<svg width="24" height="24" viewBox="0 0 24 24" fill="none" xmlns="http://www.w3.org/2000/svg">
<path fill-rule="evenodd" clip-rule="evenodd" d="M21.1919 5.46491C21.3794 5.65243 21.4847 5.90674 21.4847 6.17191C21.4847 6.43707 21.3794 6.69138 21.1919 6.87891L9.94995 18.1219C9.8478 18.2241 9.72651 18.3052 9.59302 18.3605C9.45953 18.4158 9.31645 18.4443 9.17195 18.4443C9.02745 18.4443 8.88437 18.4158 8.75088 18.3605C8.61739 18.3052 8.4961 18.2241 8.39395 18.1219L2.80795 12.5359C2.71504 12.443 2.64134 12.3327 2.59106 12.2113C2.54077 12.0899 2.51489 11.9598 2.51489 11.8284C2.51489 11.697 2.54077 11.5669 2.59106 11.4455C2.64134 11.3241 2.71504 11.2138 2.80795 11.1209C2.90086 11.028 3.01116 10.9543 3.13255 10.904C3.25395 10.8537 3.38405 10.8278 3.51545 10.8278C3.64684 10.8278 3.77695 10.8537 3.89834 10.904C4.01974 10.9543 4.13004 11.028 4.22295 11.1209L9.17295 16.0709L19.7769 5.46491C19.9645 5.27743 20.2188 5.17212 20.4839 5.17212C20.7491 5.17212 21.0044 5.27743 21.1919 5.46491Z" fill="#141414"/>
</svg>
