<svg width="24" height="24" viewBox="0 0 24 24" fill="none" xmlns="http://www.w3.org/2000/svg">
<path d="M2.222 11.1209C2.39419 10.9488 2.62329 10.8453 2.86632 10.83C3.10934 10.8148 3.34959 10.8887 3.542 11.0379L3.636 11.1209L7.878 15.3639C8.05735 15.5439 8.16147 15.7854 8.16923 16.0393C8.17698 16.2933 8.08778 16.5406 7.91975 16.7312C7.75172 16.9218 7.51745 17.0412 7.26452 17.0653C7.0116 17.0894 6.75899 17.0163 6.558 16.8609L6.464 16.7779L2.222 12.5359C2.12902 12.4431 2.05526 12.3328 2.00494 12.2114C1.95461 12.09 1.92871 11.9598 1.92871 11.8284C1.92871 11.697 1.95461 11.5669 2.00494 11.4455C2.05526 11.3241 2.12902 11.2138 2.222 11.1209ZM22.778 5.46493C22.9502 5.63712 23.0536 5.86622 23.0689 6.10925C23.0842 6.35227 23.0103 6.59253 22.861 6.78493L22.778 6.87893L12.949 16.7069C12.7585 16.8977 12.5045 17.0119 12.2354 17.0277C11.9662 17.0436 11.7006 16.96 11.489 16.7929L11.393 16.7079L7.222 12.5359C7.04074 12.3564 6.93497 12.1144 6.92631 11.8594C6.91766 11.6044 7.00679 11.3558 7.17546 11.1643C7.34413 10.9729 7.57958 10.8532 7.83362 10.8297C8.08766 10.8062 8.34108 10.8807 8.542 11.0379L8.636 11.1209L12.171 14.6569L21.364 5.46493C21.5515 5.27746 21.8058 5.17214 22.071 5.17214C22.3362 5.17214 22.5905 5.27746 22.778 5.46493ZM17.778 5.46493C17.9502 5.63712 18.0536 5.86622 18.0689 6.10925C18.0842 6.35227 18.0103 6.59253 17.861 6.78493L17.778 6.87893L12.828 11.8289C12.648 12.0083 12.4066 12.1124 12.1526 12.1202C11.8987 12.1279 11.6513 12.0387 11.4607 11.8707C11.2702 11.7026 11.1507 11.4684 11.1266 11.2155C11.1025 10.9625 11.1756 10.7099 11.331 10.5089L11.414 10.4139L16.364 5.46393C16.5515 5.27646 16.8058 5.17114 17.071 5.17114C17.3362 5.17114 17.5905 5.27746 17.778 5.46493Z" fill="#141414"/>
</svg>
