<svg width="24" height="24" viewBox="0 0 24 24" fill="none" xmlns="http://www.w3.org/2000/svg">
<path d="M17.5 10.12C17.17 10.04 16.82 10 16.46 10C13.84 10 11.71 12.13 11.71 14.75C11.71 15.64 11.96 16.48 12.4 17.2C12.77 17.82 13.28 18.35 13.9 18.73C14.64 19.22 15.52 19.5 16.46 19.5C18.2 19.5 19.71 18.57 20.53 17.2C20.97 16.48 21.21 15.64 21.21 14.75C21.21 12.49 19.63 10.59 17.5 10.12ZM18.83 14.13L16.29 16.47C16.15 16.6 15.96 16.67 15.78 16.67C15.59 16.67 15.4 16.6 15.25 16.45L14.08 15.28C13.79 14.99 13.79 14.51 14.08 14.22C14.37 13.93 14.85 13.93 15.14 14.22L15.8 14.88L17.81 13.03C18.12 12.75 18.59 12.77 18.87 13.07C19.15 13.38 19.13 13.85 18.83 14.13Z" fill="#141414"/>
<path d="M20.16 4.02V6.24C20.16 7.05 19.66 8.06 19.16 8.57L18.98 8.73C18.84 8.86 18.63 8.89 18.45 8.83C18.25 8.76 18.05 8.71 17.85 8.66C17.41 8.55 16.94 8.5 16.46 8.5C13.01 8.5 10.21 11.3 10.21 14.75C10.21 15.89 10.52 17.01 11.11 17.97C11.61 18.81 12.31 19.51 13.07 19.98C13.3 20.13 13.39 20.45 13.19 20.63C13.12 20.69 13.05 20.74 12.98 20.79L11.58 21.7C10.28 22.51 8.49 21.6 8.49 19.98V14.63C8.49 13.92 8.09 13.01 7.69 12.51L3.9 8.47C3.4 7.96 3 7.05 3 6.45V4.12C3 2.91 3.9 2 4.99 2H18.17C19.26 2 20.16 2.91 20.16 4.02Z" fill="#141414"/>
</svg>
