<svg width="24" height="24" viewBox="0 0 24 24" fill="none" xmlns="http://www.w3.org/2000/svg">
<path d="M17.5 6.37C17.17 6.29 16.82 6.25 16.46 6.25C13.84 6.25 11.71 8.38 11.71 11C11.71 11.89 11.96 12.73 12.4 13.45C12.77 14.07 13.28 14.6 13.9 14.98C14.64 15.47 15.52 15.75 16.46 15.75C18.2 15.75 19.71 14.82 20.53 13.45C20.97 12.73 21.21 11.89 21.21 11C21.21 8.74 19.63 6.84 17.5 6.37ZM18.41 10.57L15.98 13C15.89 13.09 15.7 13.18 15.57 13.2L14.64 13.33C14.3 13.38 14.07 13.14 14.12 12.81L14.25 11.88C14.27 11.75 14.36 11.57 14.45 11.47L16.88 9.04C17.3 8.62 17.79 8.42 18.4 9.04C19.01 9.66 18.83 10.15 18.41 10.57Z" fill="#141414"/>
<path d="M20.16 4.02V4.98C20.16 5.39 19.69 5.64 19.32 5.45C18.86 5.21 18.37 5.03 17.85 4.91C17.41 4.8 16.94 4.75 16.46 4.75C13.01 4.75 10.21 7.55 10.21 11C10.21 12.14 10.52 13.26 11.11 14.22C11.61 15.06 12.31 15.76 13.07 16.23C13.24 16.34 13.42 16.44 13.59 16.54C13.76 16.63 13.88 16.81 13.88 17V19.07C13.88 19.68 13.48 20.49 12.98 20.79L11.58 21.7C10.28 22.51 8.49 21.6 8.49 19.98V14.63C8.49 13.92 8.09 13.01 7.69 12.51L3.9 8.47C3.4 7.96 3 7.05 3 6.45V4.12C3 2.91 3.9 2 4.99 2H18.17C19.26 2 20.16 2.91 20.16 4.02Z" fill="#141414"/>
</svg>
