<svg width="24" height="24" viewBox="0 0 24 24" fill="none" xmlns="http://www.w3.org/2000/svg">
<path d="M21.7699 2.2299C21.4699 1.9299 20.9799 1.9299 20.6799 2.2299L2.22988 20.6899C1.92988 20.9899 1.92988 21.4799 2.22988 21.7799C2.37988 21.9199 2.56988 21.9999 2.76988 21.9999C2.96988 21.9999 3.15988 21.9199 3.30988 21.7699L21.7699 3.3099C22.0799 3.0099 22.0799 2.5299 21.7699 2.2299Z" fill="#141414"/>
<path d="M14.8199 3.5199V9.1799L9.17988 14.8199V13.2799H6.08988C4.68988 13.2799 4.29988 12.4199 5.22988 11.3699L12.7999 2.7599C13.9099 1.4999 14.8199 1.8399 14.8199 3.5199Z" fill="#141414"/>
<path d="M18.7699 12.6299L11.1999 21.2399C10.0899 22.4999 9.17988 22.1599 9.17988 20.4799V17.8199L16.2799 10.7199H17.9099C19.3099 10.7199 19.6999 11.5799 18.7699 12.6299Z" fill="#141414"/>
</svg>
