<svg width="24" height="24" viewBox="0 0 24 24" fill="none" xmlns="http://www.w3.org/2000/svg">
<path d="M20.54 19.0399C20.39 19.1899 20.2 19.2599 20.01 19.2599C19.82 19.2599 19.63 19.1899 19.48 19.0399L14.53 14.0899L15.59 13.0299L20.54 17.9799C20.83 18.2699 20.83 18.7499 20.54 19.0399Z" fill="#141414"/>
<path d="M6.47 9.27993L12.27 15.0799C12.66 15.4699 12.66 16.0999 12.27 16.4899L11.37 17.3999C10.56 18.1999 9.28 18.1999 8.48 17.3999L4.14 13.0599C3.35 12.2699 3.35 10.9799 4.14 10.1799L5.05 9.26993C5.44 8.88993 6.08 8.88993 6.47 9.27993Z" fill="#141414"/>
<path d="M18.59 10.1899L14.78 13.9899C14.38 14.3899 13.74 14.3899 13.34 13.9899L7.56 8.20993C7.16 7.80993 7.16 7.16993 7.56 6.76993L11.37 2.95993C12.16 2.16993 13.45 2.16993 14.25 2.95993L18.59 7.29993C19.38 8.09993 19.38 9.37993 18.59 10.1899Z" fill="#141414"/>
<path d="M8 21.7499H2C1.59 21.7499 1.25 21.4099 1.25 20.9999C1.25 20.5899 1.59 20.2499 2 20.2499H8C8.41 20.2499 8.75 20.5899 8.75 20.9999C8.75 21.4099 8.41 21.7499 8 21.7499Z" fill="#141414"/>
</svg>
