<svg width="24" height="24" viewBox="0 0 24 24" fill="none" xmlns="http://www.w3.org/2000/svg">
<path d="M20.9599 17.8399L19.3299 18.3899C18.8799 18.5399 18.5199 18.8899 18.3699 19.3499L17.8199 20.9799C17.3499 22.3899 15.3699 22.3599 14.9299 20.9499L13.0799 14.9999C12.7199 13.8199 13.8099 12.7199 14.9799 13.0899L20.9399 14.9399C22.3399 15.3799 22.3599 17.3699 20.9599 17.8399Z" fill="#141414"/>
<path d="M20.9999 11.4999C20.9999 11.9299 20.9699 12.3599 20.9199 12.7799C20.8799 13.0799 20.5699 13.2599 20.2799 13.1699L15.4299 11.6599C14.3499 11.3299 13.1999 11.6099 12.3999 12.3999C11.5999 13.1999 11.3099 14.3699 11.6499 15.4499L13.1499 20.2799C13.2399 20.5699 13.0499 20.8799 12.7499 20.9199C12.3299 20.9699 11.9199 20.9999 11.4999 20.9999C6.15991 20.9999 1.85991 16.6099 1.99991 11.2299C2.13991 6.26991 6.26991 2.13991 11.2299 1.99991C16.6099 1.85991 20.9999 6.15991 20.9999 11.4999Z" fill="#141414"/>
</svg>
