<svg width="24" height="24" viewBox="0 0 24 24" fill="none" xmlns="http://www.w3.org/2000/svg">
<path d="M20.8632 8.3762L13.9332 2.8362C12.8632 1.9762 11.1332 1.9762 10.0732 2.8262L3.14319 8.3762C2.36319 8.9962 1.86319 10.3062 2.03319 11.2862L3.36319 19.2462C3.60319 20.6662 4.96319 21.8162 6.40319 21.8162H17.6032C19.0332 21.8162 20.4032 20.6562 20.6432 19.2462L21.9732 11.2862C22.1332 10.3062 21.6332 8.9962 20.8632 8.3762ZM9.38319 17.1962C8.82319 17.1962 8.38319 16.7462 8.38319 16.1962C8.38319 15.6462 8.83319 15.1962 9.38319 15.1962C9.9332 15.1962 10.3832 15.6462 10.3832 16.1962C10.3832 16.7462 9.9332 17.1962 9.38319 17.1962ZM12.3932 16.9362C12.3832 16.9362 12.3832 16.9362 12.3732 16.9362C11.9632 16.9362 11.6332 16.6062 11.6232 16.2062C11.5932 14.8562 10.7032 13.9662 9.3532 13.9362C8.9432 13.9262 8.61319 13.5862 8.62319 13.1662C8.63319 12.7562 8.96319 12.4362 9.37319 12.4362C9.38319 12.4362 9.38319 12.4362 9.3932 12.4362C11.5432 12.4862 13.0832 14.0162 13.1232 16.1662C13.1332 16.5862 12.8132 16.9362 12.3932 16.9362ZM15.3832 16.9362C14.9632 16.9362 14.6332 16.6062 14.6232 16.1962C14.6132 15.5362 14.5032 14.9062 14.3032 14.3162C13.7932 12.8562 12.7032 11.7762 11.2432 11.2562C10.6532 11.0462 10.0232 10.9362 9.36319 10.9362C8.95319 10.9362 8.61319 10.5962 8.62319 10.1762C8.62319 9.7662 8.96319 9.4362 9.37319 9.4362H9.38319C10.2132 9.4462 11.0032 9.5862 11.7432 9.8462C13.6332 10.5162 15.0432 11.9262 15.7132 13.8162C15.9732 14.5562 16.1132 15.3562 16.1232 16.1762C16.1332 16.5962 15.8032 16.9362 15.3832 16.9362Z" fill="#141414"/>
</svg>
