<svg width="24" height="24" viewBox="0 0 24 24" fill="none" xmlns="http://www.w3.org/2000/svg">
<path d="M16.42 7.95011C18.86 10.3901 18.86 14.3501 16.42 16.7901C13.98 19.2301 10.02 19.2301 7.58003 16.7901C5.14003 14.3501 5.14003 10.3901 7.58003 7.95011C10.02 5.51011 13.98 5.51011 16.42 7.95011Z" fill="#141414"/>
<path d="M8.25003 22.3901C8.16003 22.3901 8.06003 22.3701 7.97003 22.3401C5.72003 21.4401 3.90003 19.8501 2.68003 17.7501C1.50003 15.7001 1.03003 13.3801 1.34003 11.0201C1.39003 10.6101 1.78003 10.3201 2.18003 10.3701C2.59003 10.4201 2.88003 10.8001 2.83003 11.2101C2.57003 13.2401 2.97003 15.2401 3.98003 17.0001C5.02003 18.8001 6.59003 20.1701 8.52003 20.9401C8.90003 21.1001 9.09003 21.5301 8.94003 21.9201C8.83003 22.2101 8.54003 22.3901 8.25003 22.3901Z" fill="#141414"/>
<path d="M5.85003 5.23011C5.63003 5.23011 5.41003 5.13011 5.26003 4.94011C5.00003 4.62011 5.06003 4.15011 5.39003 3.89011C7.29003 2.40011 9.58003 1.61011 12 1.61011C14.36 1.61011 16.61 2.37011 18.5 3.81011C18.83 4.06011 18.89 4.53011 18.64 4.86011C18.39 5.19011 17.92 5.25011 17.59 5.00011C15.96 3.76011 14.03 3.11011 12 3.11011C9.92003 3.11011 7.95003 3.79011 6.31003 5.07011C6.17003 5.18011 6.01003 5.23011 5.85003 5.23011Z" fill="#141414"/>
<path d="M15.75 22.3901C15.45 22.3901 15.17 22.2101 15.05 21.9201C14.9 21.5401 15.08 21.1001 15.47 20.9401C17.4 20.1601 18.97 18.8001 20.01 17.0001C21.03 15.2401 21.43 13.2401 21.16 11.2201C21.11 10.8101 21.4 10.4301 21.81 10.3801C22.21 10.3301 22.6 10.6201 22.65 11.0301C22.95 13.3801 22.49 15.7101 21.31 17.7601C20.1 19.8601 18.27 21.4401 16.02 22.3501C15.94 22.3701 15.85 22.3901 15.75 22.3901Z" fill="#141414"/>
</svg>
