<svg width="24" height="24" viewBox="0 0 24 24" fill="none" xmlns="http://www.w3.org/2000/svg">
<path d="M8.99993 14.22H3.91993C3.30993 14.22 2.74993 14.53 2.42993 15.05C2.10993 15.56 2.07993 16.17 2.33993 16.71C3.56993 19.23 5.78993 21.21 8.42993 22.14C8.60993 22.2 8.80993 22.24 8.99993 22.24C9.34993 22.24 9.69993 22.13 9.99993 21.92C10.4699 21.59 10.7499 21.05 10.7499 20.48L10.7599 15.98C10.7599 15.51 10.5799 15.07 10.2499 14.74C9.90993 14.41 9.46993 14.22 8.99993 14.22Z" fill="#141414"/>
<path d="M22.4799 9.6C21.3599 4.68 17.0499 1.25 11.9999 1.25C6.94993 1.25 2.63993 4.68 1.51993 9.6C1.39993 10.12 1.51993 10.65 1.85993 11.07C2.19993 11.49 2.69993 11.73 3.23993 11.73H20.7699C21.3099 11.73 21.8099 11.49 22.1499 11.07C22.4799 10.65 22.5999 10.11 22.4799 9.6Z" fill="#141414"/>
<path d="M20.0599 14.27L14.9999 14.26C14.5299 14.26 14.0899 14.44 13.7599 14.77C13.4299 15.1 13.2499 15.54 13.2499 16.01L13.2599 20.49C13.2599 21.06 13.5399 21.6 14.0099 21.93C14.3099 22.14 14.6599 22.25 15.0099 22.25C15.1999 22.25 15.3899 22.22 15.5699 22.15C18.1899 21.23 20.4099 19.26 21.6399 16.77C21.8999 16.24 21.8699 15.62 21.5599 15.12C21.2299 14.58 20.6699 14.27 20.0599 14.27Z" fill="#141414"/>
</svg>
