<svg width="24" height="24" viewBox="0 0 24 24" fill="none" xmlns="http://www.w3.org/2000/svg">
<path d="M17.8801 6.1201L3.92009 20.0801C3.49009 20.5101 2.77009 20.4701 2.42009 19.9801C1.92009 19.2901 1.82009 18.3301 2.34009 17.5001L5.10009 13.0701C5.47009 12.4801 5.47009 11.5201 5.10009 10.9301L2.34009 6.5001C1.41009 5.0201 2.48009 3.1001 4.22009 3.1001H15.6701C16.3501 3.1001 17.1901 3.5701 17.5501 4.1401L18.0201 4.8801C18.2601 5.2801 18.2101 5.7901 17.8801 6.1201Z" fill="#141414"/>
<path d="M21.6301 13.1101L16.4501 20.0101C16.0901 20.5001 15.2901 20.9001 14.6701 20.9001H7.51009C6.62009 20.9001 6.17009 19.8201 6.80009 19.1901L18.3201 7.6801C18.7701 7.2301 19.5401 7.3101 19.8801 7.8601L21.7301 10.8301C22.1301 11.4701 22.0901 12.5001 21.6301 13.1101Z" fill="#141414"/>
</svg>
