<svg width="24" height="24" viewBox="0 0 24 24" fill="none" xmlns="http://www.w3.org/2000/svg">
<path d="M16.1701 10.0601H7.83009C6.65009 10.0601 6.24009 9.27007 6.93009 8.31007L11.1001 2.47007C11.5901 1.77007 12.4101 1.77007 12.9001 2.47007L17.0701 8.31007C17.7601 9.27007 17.3501 10.0601 16.1701 10.0601Z" fill="#141414"/>
<path d="M17.5901 18.0001H6.41009C4.83009 18.0001 4.29009 16.9501 5.22009 15.6701L9.21009 10.0601H14.7901L18.7801 15.6701C19.7101 16.9501 19.1701 18.0001 17.5901 18.0001Z" fill="#141414"/>
<path d="M12.7501 18.0001V22.0001C12.7501 22.4101 12.4101 22.7501 12.0001 22.7501C11.5901 22.7501 11.2501 22.4101 11.2501 22.0001V18.0001H12.7501Z" fill="#141414"/>
</svg>
