<svg width="24" height="24" viewBox="0 0 24 24" fill="none" xmlns="http://www.w3.org/2000/svg">
<path d="M11.2499 3.9001V12.9201C11.2499 13.2501 11.0899 13.5501 10.8199 13.7401L3.60993 18.7901C3.01993 19.2001 2.17993 18.8801 2.04993 18.1701C1.89993 17.3101 2.09993 16.3001 2.69993 15.2101L8.75993 4.3101C8.98993 3.9001 9.23993 3.5401 9.49993 3.2301C10.0999 2.5301 11.2499 2.9801 11.2499 3.9001Z" fill="#141414"/>
<path d="M20.3899 18.7901L13.1799 13.7401C12.9099 13.5501 12.7499 13.2501 12.7499 12.9201V3.9001C12.7499 2.9801 13.8999 2.5301 14.4999 3.2301C14.7599 3.5401 15.0099 3.9001 15.2399 4.3101L21.2999 15.2101C21.8999 16.3001 22.0999 17.3101 21.9499 18.1701C21.8199 18.8801 20.9799 19.2001 20.3899 18.7901Z" fill="#141414"/>
<path d="M5.25993 19.1401L11.4099 15.0401C11.7399 14.8201 12.2799 14.8201 12.6099 15.0401L18.7599 19.1401C20.3899 20.2301 20.1199 21.1201 18.1599 21.1201H5.84993C3.89993 21.1101 3.62993 20.2201 5.25993 19.1401Z" fill="#141414"/>
</svg>
