<svg width="24" height="24" viewBox="0 0 24 24" fill="none" xmlns="http://www.w3.org/2000/svg">
<path d="M21.555 10.7401L20.195 9.16006C19.935 8.86006 19.725 8.30006 19.725 7.90006V6.20006C19.725 5.14006 18.855 4.27006 17.795 4.27006H16.095C15.705 4.27006 15.135 4.06006 14.835 3.80006L13.255 2.44006C12.565 1.85006 11.435 1.85006 10.735 2.44006L9.165 3.81006C8.865 4.06006 8.295 4.27006 7.905 4.27006H6.175C5.115 4.27006 4.245 5.14006 4.245 6.20006V7.91006C4.245 8.30006 4.035 8.86006 3.785 9.16006L2.435 10.7501C1.855 11.4401 1.855 12.5601 2.435 13.2501L3.785 14.8401C4.035 15.1401 4.245 15.7001 4.245 16.0901V17.8001C4.245 18.8601 5.115 19.7301 6.175 19.7301H7.905C8.295 19.7301 8.865 19.9401 9.165 20.2001L10.745 21.5601C11.435 22.1501 12.565 22.1501 13.265 21.5601L14.845 20.2001C15.145 19.9401 15.705 19.7301 16.105 19.7301H17.805C18.865 19.7301 19.735 18.8601 19.735 17.8001V16.1001C19.735 15.7101 19.945 15.1401 20.205 14.8401L21.565 13.2601C22.145 12.5701 22.145 11.4301 21.555 10.7401ZM16.155 10.1101L11.325 14.9401C11.185 15.0801 10.995 15.1601 10.795 15.1601C10.595 15.1601 10.405 15.0801 10.265 14.9401L7.845 12.5201C7.555 12.2301 7.555 11.7501 7.845 11.4601C8.135 11.1701 8.615 11.1701 8.905 11.4601L10.795 13.3501L15.095 9.05006C15.385 8.76006 15.865 8.76006 16.155 9.05006C16.445 9.34006 16.445 9.82006 16.155 10.1101Z" fill="#141414"/>
</svg>
