<svg width="24" height="24" viewBox="0 0 24 24" fill="none" xmlns="http://www.w3.org/2000/svg">
<path d="M19.09 12.5899C18.93 12.5899 18.77 12.5399 18.63 12.4299C14.6 9.3199 9.39001 9.3199 5.36001 12.4299C5.03001 12.6799 4.56001 12.6199 4.31001 12.2999C4.06001 11.9699 4.12001 11.4999 4.44001 11.2499C9.03001 7.6999 14.96 7.6999 19.54 11.2499C19.87 11.4999 19.93 11.9699 19.67 12.2999C19.54 12.4899 19.32 12.5899 19.09 12.5899Z" fill="#141414"/>
<path d="M22 9.1099C21.84 9.1099 21.68 9.0599 21.54 8.9499C15.74 4.4699 8.25001 4.4699 2.46001 8.9499C2.13001 9.1999 1.66001 9.1399 1.41001 8.8199C1.15001 8.4999 1.21001 8.0199 1.54001 7.7699C7.89001 2.8599 16.1 2.8599 22.46 7.7699C22.79 8.0199 22.85 8.4899 22.59 8.8199C22.45 9.0099 22.22 9.1099 22 9.1099Z" fill="#141414"/>
<path d="M17.21 16.2399C17.05 16.2399 16.89 16.1899 16.75 16.0799C13.87 13.8499 10.14 13.8499 7.25001 16.0799C6.92001 16.3299 6.45001 16.2699 6.20001 15.9499C5.95001 15.6199 6.01001 15.1499 6.33001 14.8999C9.77001 12.2399 14.22 12.2399 17.66 14.8999C17.99 15.1499 18.05 15.6199 17.79 15.9499C17.65 16.1399 17.43 16.2399 17.21 16.2399Z" fill="#141414"/>
<path d="M14.6 19.8999C14.44 19.8999 14.28 19.8499 14.14 19.7399C12.84 18.7299 11.15 18.7299 9.85001 19.7399C9.52001 19.9899 9.05001 19.9299 8.80001 19.6099C8.55001 19.2799 8.61001 18.8099 8.93001 18.5599C10.79 17.1199 13.19 17.1199 15.05 18.5599C15.38 18.8099 15.44 19.2799 15.18 19.6099C15.05 19.7899 14.83 19.8999 14.6 19.8999Z" fill="#141414"/>
</svg>
