<svg width="24" height="24" viewBox="0 0 24 24" fill="none" xmlns="http://www.w3.org/2000/svg">
<path d="M20.9046 9.85526C20.1616 5.61651 16.5134 2.33028 12.2176 2.02547C6.40714 1.60636 1.60641 6.41663 2.02552 12.2175C2.33033 16.5134 5.61654 20.1521 9.85529 20.8951C10.9507 21.0856 12.0175 21.0856 13.0367 20.9141C13.332 20.8665 13.5035 20.5426 13.3892 20.2759C13.1034 19.6282 12.951 18.9138 12.951 18.1804C12.951 16.5706 13.6654 15.0846 14.9227 14.094C15.8467 13.351 17.0088 12.9415 18.1899 12.9415C18.9329 12.9415 19.6377 13.0939 20.2759 13.3796C20.5522 13.5034 20.8665 13.3225 20.9236 13.0272C21.0951 12.0175 21.0951 10.9507 20.9046 9.85526ZM13.9035 13.0177L11.6175 14.3321C10.1982 15.1513 9.03611 14.4845 9.03611 12.8367V10.1982C9.03611 8.55982 10.1982 7.88352 11.6175 8.7027L13.9035 10.0172C15.3228 10.8554 15.3228 12.189 13.9035 13.0177Z" fill="#141414"/>
<path d="M18.1899 14.3798C17.2945 14.3798 16.4658 14.6941 15.8086 15.218C14.9323 15.9133 14.3798 16.9897 14.3798 18.1899C14.3798 18.9043 14.5798 19.5806 14.9323 20.1521C15.5895 21.257 16.7992 22 18.1899 22C19.1519 22 20.0283 21.6476 20.695 21.0475C20.9903 20.7998 21.2475 20.495 21.4475 20.1521C21.8 19.5806 22 18.9043 22 18.1899C22 16.0848 20.295 14.3798 18.1899 14.3798ZM19.6187 18.8852H18.9043V19.6282C18.9043 20.0187 18.5804 20.3426 18.1899 20.3426C17.7994 20.3426 17.4755 20.0187 17.4755 19.6282V18.8852H16.7611C16.3706 18.8852 16.0467 18.5614 16.0467 18.1708C16.0467 17.7803 16.3706 17.4564 16.7611 17.4564H17.4755V16.7801C17.4755 16.3896 17.7994 16.0657 18.1899 16.0657C18.5804 16.0657 18.9043 16.3896 18.9043 16.7801V17.4564H19.6187C20.0092 17.4564 20.3331 17.7803 20.3331 18.1708C20.3331 18.5614 20.0092 18.8852 19.6187 18.8852Z" fill="#141414"/>
</svg>
