<svg width="24" height="24" viewBox="0 0 24 24" fill="none" xmlns="http://www.w3.org/2000/svg">
<path d="M16.1971 2H7.8129C4.17108 2 2 4.17 2 7.81V16.18C2 19.83 4.17108 22 7.8129 22H16.1871C19.8289 22 22 19.83 22 16.19V7.81C22.01 4.17 19.8389 2 16.1971 2ZM6.75237 14.14C6.75237 14.55 6.4122 14.89 6.00199 14.89C5.59179 14.89 5.25162 14.55 5.25162 14.14V9.86C5.25162 9.45 5.59179 9.11 6.00199 9.11C6.4122 9.11 6.75237 9.45 6.75237 9.86V14.14ZM9.75386 15.57C9.75386 15.98 9.41369 16.32 9.00349 16.32C8.59329 16.32 8.25312 15.98 8.25312 15.57V8.43C8.25312 8.02 8.59329 7.68 9.00349 7.68C9.41369 7.68 9.75386 8.02 9.75386 8.43V15.57ZM12.7554 17C12.7554 17.41 12.4152 17.75 12.005 17.75C11.5948 17.75 11.2546 17.41 11.2546 17V7C11.2546 6.59 11.5948 6.25 12.005 6.25C12.4152 6.25 12.7554 6.59 12.7554 7V17ZM15.7569 15.57C15.7569 15.98 15.4167 16.32 15.0065 16.32C14.5963 16.32 14.2561 15.98 14.2561 15.57V8.43C14.2561 8.02 14.5963 7.68 15.0065 7.68C15.4167 7.68 15.7569 8.02 15.7569 8.43V15.57ZM18.7584 14.14C18.7584 14.55 18.4182 14.89 18.008 14.89C17.5978 14.89 17.2576 14.55 17.2576 14.14V9.86C17.2576 9.45 17.5978 9.11 18.008 9.11C18.4182 9.11 18.7584 9.45 18.7584 9.86V14.14Z" fill="#141414"/>
</svg>
