<svg width="24" height="24" viewBox="0 0 24 24" fill="none" xmlns="http://www.w3.org/2000/svg">
<path d="M21.6869 16.6506L18.67 9.59518C18.1206 8.30361 17.3013 7.57108 16.3664 7.52289C15.4411 7.4747 14.5447 8.12048 13.8603 9.35422L12.029 12.641C11.6434 13.3349 11.094 13.7494 10.4964 13.7976C9.88919 13.8554 9.28195 13.5373 8.79038 12.9108L8.57833 12.641C7.89398 11.7831 7.04578 11.3687 6.1783 11.4554C5.31081 11.5422 4.56863 12.1398 4.07706 13.1133L2.40957 16.4386C1.81197 17.6434 1.8698 19.041 2.57343 20.1783C3.27705 21.3157 4.50116 22 5.84094 22H18.1399C19.4315 22 20.6363 21.3542 21.3496 20.2747C22.0821 19.1952 22.1978 17.8361 21.6869 16.6506Z" fill="#141414"/>
<path d="M7.18072 8.51566C8.97999 8.51566 10.4386 7.05708 10.4386 5.25783C10.4386 3.45858 8.97999 2 7.18072 2C5.38144 2 3.92284 3.45858 3.92284 5.25783C3.92284 7.05708 5.38144 8.51566 7.18072 8.51566Z" fill="#141414"/>
</svg>
