<svg width="24" height="24" viewBox="0 0 24 24" fill="none" xmlns="http://www.w3.org/2000/svg">
<path d="M18.3904 14.3929C17.3523 14.3262 16.2856 14.7073 15.4952 15.4979C14.0095 16.9839 14.0095 19.3939 15.4952 20.8894C15.9999 21.3943 16.619 21.7277 17.2761 21.8896C17.638 21.9849 18.019 22.0135 18.3999 21.9944C19.3047 21.9563 20.1904 21.5943 20.8856 20.899C21.8666 19.9178 22.1999 18.5366 21.8856 17.2887C21.7332 16.6315 21.3904 16.0123 20.8856 15.5074C20.1999 14.8121 19.3047 14.4406 18.3904 14.3929ZM20.3237 18.1746C20.3237 18.3747 20.2475 18.5461 20.1142 18.6795C19.9809 18.8128 19.8094 18.8891 19.6094 18.8891H18.9047V19.6321C18.9047 19.8321 18.8285 20.0036 18.6952 20.1369C18.5618 20.2703 18.3904 20.3465 18.1904 20.3465C17.7999 20.3465 17.4761 20.0226 17.4761 19.6321V18.8891H16.7618C16.3714 18.8891 16.0475 18.5652 16.0475 18.1746C16.0475 17.7841 16.3714 17.4602 16.7618 17.4602H17.4761V16.7839C17.4761 16.3933 17.7999 16.0694 18.1904 16.0694C18.5809 16.0694 18.9047 16.3933 18.9047 16.7839V17.4602H19.6094C20.0094 17.4602 20.3237 17.7841 20.3237 18.1746Z" fill="#141414"/>
<path d="M11.7428 11.5924C11.3523 11.5924 11.038 11.9067 11.038 12.2973C11.038 12.6878 11.3523 13.0022 11.7428 13.0022C12.1333 13.0022 12.4476 12.6878 12.4476 12.2973C12.4476 11.9067 12.1333 11.5924 11.7428 11.5924Z" fill="#141414"/>
<path d="M6.53331 12.5354C6.14284 12.5354 5.82855 12.8498 5.82855 13.2403C5.82855 13.6309 6.14284 13.9452 6.53331 13.9452C6.92378 13.9452 7.23807 13.6309 7.23807 13.2403C7.23807 12.8498 6.92378 12.5354 6.53331 12.5354Z" fill="#141414"/>
<path d="M15.5142 2H7.5333C7.26664 2 7.0095 2.00953 6.76188 2.04763C3.7619 2.32387 2 4.33379 2 7.53443V15.517C2 18.7176 3.7619 20.7275 6.76188 21.0038C7.0095 21.0419 7.26664 21.0514 7.5333 21.0514H12.9523C13.3238 21.0514 13.5618 20.6323 13.419 20.2893C13.1428 19.6321 12.9523 18.87 12.9523 18.1937C12.9523 15.3074 15.3047 12.9545 18.1904 12.9545C18.9142 12.9545 19.619 13.0974 20.2666 13.3832C20.619 13.5356 21.0475 13.2975 21.0475 12.9164V7.53443C21.0475 4.06708 18.9809 2 15.5142 2ZM13.8857 7.76304V12.2973C13.8857 12.3068 13.8761 12.3163 13.8761 12.3354C13.8571 13.4975 12.9142 14.4406 11.7428 14.4406C10.5619 14.4406 9.60948 13.4785 9.60948 12.3068C9.60948 11.1256 10.5714 10.173 11.7428 10.173C11.9904 10.173 12.2285 10.2207 12.4571 10.3064V8.69656L8.67616 9.72534V13.2498C8.67616 13.2594 8.66663 13.2689 8.66663 13.2784C8.64758 14.4406 7.70473 15.3741 6.53331 15.3741C5.35236 15.3741 4.39999 14.412 4.39999 13.2403C4.39999 12.0687 5.36189 11.1066 6.53331 11.1066C6.78093 11.1066 7.01902 11.1542 7.23807 11.2399V7.51538C7.23807 6.62949 7.79045 5.91506 8.63806 5.68644L11.4761 4.90534C12.3619 4.66719 12.9047 4.90534 13.2095 5.13395C13.6476 5.46735 13.8666 6.01032 13.8666 6.73427V7.76304H13.8857Z" fill="#141414"/>
</svg>
