<svg width="24" height="24" viewBox="0 0 24 24" fill="none" xmlns="http://www.w3.org/2000/svg">
<path d="M20.0667 2H17.2667C16.4381 2 15.8286 2.34286 15.5524 2.95238C15.4 3.22857 15.3333 3.55238 15.3333 3.93333V6.73333C15.3333 7.94286 16.0571 8.66667 17.2667 8.66667H20.0667C20.4476 8.66667 20.7714 8.6 21.0476 8.44762C21.6571 8.17143 22 7.5619 22 6.73333V3.93333C22 2.72381 21.2762 2 20.0667 2ZM20.9619 5.74286C20.8667 5.8381 20.7238 5.90476 20.5714 5.91429H19.2286V6.4L19.2381 7.2381C19.2286 7.4 19.1714 7.53333 19.0571 7.64762C18.9619 7.74286 18.819 7.80952 18.6667 7.80952C18.3524 7.80952 18.0952 7.55238 18.0952 7.2381V5.90476L16.7619 5.91429C16.4476 5.91429 16.1905 5.64762 16.1905 5.33333C16.1905 5.01905 16.4476 4.7619 16.7619 4.7619L17.6 4.77143H18.0952V3.4381C18.0952 3.12381 18.3524 2.85714 18.6667 2.85714C18.981 2.85714 19.2381 3.12381 19.2381 3.4381L19.2286 4.11429V4.7619H20.5714C20.8857 4.7619 21.1429 5.01905 21.1429 5.33333C21.1333 5.49524 21.0667 5.62857 20.9619 5.74286Z" fill="#141414"/>
<path d="M8.66667 10.9333C9.91851 10.9333 10.9333 9.91851 10.9333 8.66667C10.9333 7.41482 9.91851 6.4 8.66667 6.4C7.41482 6.4 6.4 7.41482 6.4 8.66667C6.4 9.91851 7.41482 10.9333 8.66667 10.9333Z" fill="#141414"/>
<path d="M20.0667 8.66667H19.619V13.0571L19.4952 12.9524C18.7524 12.3143 17.5524 12.3143 16.8095 12.9524L12.8476 16.3524C12.1048 16.9905 10.9048 16.9905 10.1619 16.3524L9.83809 16.0857C9.1619 15.4952 8.08571 15.4381 7.32381 15.9524L3.7619 18.3429C3.55238 17.8095 3.42857 17.1905 3.42857 16.4667V8.48571C3.42857 5.8 4.84762 4.38095 7.53333 4.38095H15.3333V3.93333C15.3333 3.55238 15.4 3.22857 15.5524 2.95238H7.53333C4.06667 2.95238 2 5.01905 2 8.48571V16.4667C2 17.5048 2.18095 18.4095 2.53333 19.1714C3.35238 20.981 5.10476 22 7.53333 22H15.5143C18.981 22 21.0476 19.9333 21.0476 16.4667V8.44762C20.7714 8.6 20.4476 8.66667 20.0667 8.66667Z" fill="#141414"/>
</svg>
