<svg width="24" height="24" viewBox="0 0 24 24" fill="none" xmlns="http://www.w3.org/2000/svg">
<path d="M14.1238 5.67619V2.47619C14.1238 2.20952 13.9143 2 13.6476 2H9.4C9.13333 2 8.92381 2.20952 8.92381 2.47619V5.67619C8.92381 5.94286 9.13333 6.15238 9.4 6.15238H13.6476C13.9143 6.15238 14.1238 5.94286 14.1238 5.67619Z" fill="#141414"/>
<path d="M7 2.01905C4.5619 2.17143 2.89524 3.42857 2.27619 5.52381C2.18095 5.8381 2.40952 6.15238 2.73333 6.15238H7.01905C7.28571 6.15238 7.49524 5.94286 7.49524 5.67619V2.49524C7.49524 2.22857 7.26667 2 7 2.01905Z" fill="#141414"/>
<path d="M16.0476 2.00952C18.4857 2.1619 20.1524 3.41905 20.7714 5.51429C20.8667 5.82857 20.6381 6.14286 20.3143 6.14286H16.0286C15.7619 6.14286 15.5524 5.93333 15.5524 5.66667V2.48571C15.5524 2.21905 15.781 1.99048 16.0476 2.00952Z" fill="#141414"/>
<path d="M21.0476 15.0476C21.0476 15.0381 21.0381 15.0286 21.0286 15.019C20.9905 14.9619 20.9429 14.9048 20.8952 14.8571C20.8857 14.8476 20.8762 14.8286 20.8667 14.819C20.0952 13.9619 18.9619 13.4286 17.7143 13.4286C16.5143 13.4286 15.419 13.9238 14.6381 14.7238C13.8857 15.4952 13.4286 16.5524 13.4286 17.7143C13.4286 18.5143 13.6571 19.2762 14.0476 19.9238C14.2571 20.2762 14.5238 20.6 14.8286 20.8667C14.8476 20.8762 14.8571 20.8857 14.8667 20.8952C14.9143 20.9429 14.9619 20.981 15.019 21.0286C15.019 21.0286 15.019 21.0286 15.0286 21.0286C15.0381 21.0381 15.0476 21.0476 15.0571 21.0476C15.7714 21.6476 16.6952 22 17.7143 22C19.2762 22 20.6381 21.1619 21.381 19.9238C21.6 19.5524 21.7714 19.1429 21.8762 18.7143C21.9619 18.3905 22 18.0571 22 17.7143C22 16.7048 21.6476 15.7714 21.0476 15.0476ZM19.3143 18.4095H18.4286V19.3333C18.4286 19.7238 18.1048 20.0476 17.7143 20.0476C17.3238 20.0476 17 19.7238 17 19.3333V18.4095H16.1143C15.7238 18.4095 15.4 18.0857 15.4 17.6952C15.4 17.3048 15.7238 16.981 16.1143 16.981H17V16.1333C17 15.7429 17.3238 15.419 17.7143 15.419C18.1048 15.419 18.4286 15.7429 18.4286 16.1333V16.981H19.3143C19.7048 16.981 20.0286 17.3048 20.0286 17.6952C20.0286 18.0857 19.7143 18.4095 19.3143 18.4095Z" fill="#141414"/>
<path d="M21.0476 8.05714V12.2286C21.0476 12.581 20.6762 12.8095 20.3619 12.6476C19.5619 12.2286 18.6476 12 17.7143 12C16.181 12 14.6857 12.6286 13.619 13.7238C12.5714 14.7905 12 16.2095 12 17.7143C12 18.4857 12.3048 19.4762 12.6857 20.3048C12.8381 20.6381 12.6095 21.0476 12.2381 21.0476H7.53333C4.47619 21.0476 2 18.5714 2 15.5143V8.05714C2 7.79048 2.20952 7.58095 2.47619 7.58095H20.5714C20.8381 7.58095 21.0476 7.79048 21.0476 8.05714Z" fill="#141414"/>
</svg>
