<svg width="24" height="24" viewBox="0 0 24 24" fill="none" xmlns="http://www.w3.org/2000/svg">
<path d="M9.67382 13.92C8.93345 13.92 8.34316 14.52 8.34316 15.26C8.34316 16 8.94346 16.59 9.67382 16.59C10.4142 16.59 11.0145 15.99 11.0145 15.26C11.0145 14.52 10.4142 13.92 9.67382 13.92Z" fill="#141414"/>
<path d="M16.1971 2H7.8129C4.17108 2 2 4.17 2 7.81V16.18C2 19.83 4.17108 22 7.8129 22H16.1871C19.8289 22 22 19.83 22 16.19V7.81C22.01 4.17 19.8389 2 16.1971 2ZM17.1275 9.8C17.1275 10.41 16.8674 10.95 16.4272 11.27C16.147 11.47 15.8069 11.58 15.4467 11.58C15.2366 11.58 15.0265 11.54 14.8064 11.47L12.5152 10.71C12.5052 10.71 12.4852 10.7 12.4752 10.69V15.25C12.4752 16.79 11.2146 18.05 9.67382 18.05C8.13306 18.05 6.87243 16.79 6.87243 15.25C6.87243 13.71 8.13306 12.45 9.67382 12.45C10.1641 12.45 10.6143 12.59 11.0145 12.8V8.02C11.0145 7.41 11.2746 6.87 11.7148 6.55C12.1651 6.23 12.7554 6.15 13.3356 6.35L15.6268 7.11C16.4872 7.4 17.1375 8.3 17.1375 9.2V9.8H17.1275Z" fill="#141414"/>
</svg>
