<svg width="24" height="24" viewBox="0 0 24 24" fill="none" xmlns="http://www.w3.org/2000/svg">
<path d="M18.1488 6C17.5237 6 16.9498 5.65 16.6628 5.11L15.925 3.66C15.4536 2.75 14.2238 2 13.1785 2H10.8317C9.77618 2 8.54642 2.75 8.07501 3.66L7.33715 5.11C7.0502 5.65 6.47632 6 5.85119 6C3.62737 6 1.86471 7.83 2.00818 9.99L2.54108 18.25C2.66405 20.31 3.80158 22 6.63004 22H17.37C20.1984 22 21.3257 20.31 21.4589 18.25L21.9918 9.99C22.1353 7.83 20.3726 6 18.1488 6ZM10.4628 7.25H13.5372C13.9574 7.25 14.3058 7.59 14.3058 8C14.3058 8.41 13.9574 8.75 13.5372 8.75H10.4628C10.0426 8.75 9.69419 8.41 9.69419 8C9.69419 7.59 10.0426 7.25 10.4628 7.25ZM12 18.12C10.0939 18.12 8.53617 16.61 8.53617 14.74C8.53617 12.87 10.0836 11.36 12 11.36C13.9164 11.36 15.4638 12.87 15.4638 14.74C15.4638 16.61 13.9061 18.12 12 18.12Z" fill="#141414"/>
</svg>
