<svg width="24" height="24" viewBox="0 0 24 24" fill="none" xmlns="http://www.w3.org/2000/svg">
<path d="M21.7651 2.23C21.4651 1.93 20.9751 1.93 20.6751 2.23L2.22512 20.69C1.92512 20.99 1.92512 21.48 2.22512 21.78C2.37512 21.92 2.56512 22 2.76512 22C2.96512 22 3.15512 21.92 3.30512 21.77L21.7651 3.31C22.0751 3.01 22.0751 2.53 21.7651 2.23Z" fill="#141414"/>
<path d="M16.5451 5.11L15.8251 3.66C15.3651 2.75 14.1651 2 13.1451 2H10.8551C9.82512 2 8.62512 2.75 8.16512 3.66L7.44512 5.11C7.16512 5.65 6.60512 6 5.99512 6C3.82512 6 2.10512 7.83 2.24512 9.99L2.76512 18.25C2.81512 19.1 3.02512 19.89 3.47512 20.52L17.9951 6C17.3851 6 16.8251 5.65 16.5451 5.11ZM9.49512 10.75H6.49512C6.08512 10.75 5.74512 10.41 5.74512 10C5.74512 9.59 6.08512 9.25 6.49512 9.25H9.49512C9.90512 9.25 10.2451 9.59 10.2451 10C10.2451 10.41 9.90512 10.75 9.49512 10.75Z" fill="#141414"/>
<path d="M21.7451 9.99L21.2251 18.25C21.0951 20.31 19.9951 22 17.2351 22H7.40512C6.51512 22 6.06512 20.92 6.69512 20.29L9.16512 17.82C9.47512 17.51 9.95512 17.47 10.3451 17.69C11.0351 18.08 11.8651 18.23 12.7451 18.04C14.0151 17.77 15.0451 16.73 15.2951 15.45C15.4651 14.59 15.3151 13.78 14.9351 13.11C14.7151 12.72 14.7451 12.23 15.0651 11.92L19.5651 7.42C19.9751 7.01 20.6651 7.06 21.0151 7.53C21.5351 8.21 21.8051 9.07 21.7451 9.99Z" fill="#141414"/>
</svg>
