<svg width="24" height="24" viewBox="0 0 24 24" fill="none" xmlns="http://www.w3.org/2000/svg">
<path d="M15.7199 9.6901C13.6699 7.6301 10.3299 7.6301 8.27994 9.6901C6.21994 11.7501 6.21994 15.0801 8.27994 17.1301C10.3399 19.1901 13.6699 19.1901 15.7199 17.1301C17.7799 15.0701 17.7799 11.7401 15.7199 9.6901ZM12.5299 13.9401L10.9399 15.5301C10.7899 15.6801 10.5999 15.7501 10.4099 15.7501C10.2199 15.7501 10.0199 15.6801 9.87994 15.5301C9.58994 15.2401 9.58994 14.7601 9.87994 14.4601L11.4699 12.8701C11.7599 12.5801 12.2399 12.5801 12.5399 12.8701C12.8299 13.1701 12.8299 13.6501 12.5299 13.9401Z" fill="#141414"/>
<path d="M19.5999 5.8101C19.3799 5.5901 19.0999 5.4701 18.7899 5.4701C18.4799 5.4701 18.1999 5.5901 17.9799 5.8001C17.5299 6.2501 17.5299 6.9701 17.9799 7.4201C18.1999 7.6401 18.4799 7.7601 18.7899 7.7601C19.0999 7.7601 19.3799 7.6401 19.5999 7.4301C19.8199 7.2101 19.9399 6.9301 19.9399 6.6201C19.9399 6.3101 19.8199 6.0201 19.5999 5.8101Z" fill="#141414"/>
<path d="M6.01994 19.3901C5.79994 19.1701 5.51994 19.0501 5.20994 19.0501C4.89994 19.0501 4.61994 19.1701 4.39994 19.3801C4.17994 19.6001 4.05994 19.8801 4.05994 20.1901C4.05994 20.5001 4.17994 20.7801 4.39994 21.0001C4.61994 21.2201 4.91994 21.3301 5.20994 21.3301C5.49994 21.3301 5.79994 21.2201 6.01994 20.9901C6.45994 20.5601 6.45994 19.8301 6.01994 19.3901Z" fill="#141414"/>
<path d="M22.4099 12.6001C22.1999 12.3801 21.9099 12.2701 21.5999 12.2601C21.2899 12.2601 21.0099 12.3801 20.7899 12.6001C20.3399 13.0501 20.3399 13.7701 20.7899 14.2201C21.0099 14.4401 21.3099 14.5501 21.5999 14.5501C21.8899 14.5501 22.1899 14.4401 22.4099 14.2201C22.8599 13.7701 22.8599 13.0401 22.4099 12.6001Z" fill="#141414"/>
<path d="M3.20994 12.6001C2.76994 12.1601 2.03994 12.1501 1.58994 12.6001C1.13994 13.0501 1.13994 13.7701 1.58994 14.2201C1.80994 14.4401 2.10994 14.5501 2.39994 14.5501C2.68994 14.5501 2.98994 14.4401 3.20994 14.2201C3.64994 13.7701 3.64994 13.0401 3.20994 12.6001Z" fill="#141414"/>
<path d="M19.5999 19.3901C19.1499 18.9401 18.4299 18.9401 17.9799 19.3901C17.5299 19.8401 17.5299 20.5601 17.9799 21.0101C18.1999 21.2301 18.4999 21.3401 18.7899 21.3401C19.0799 21.3401 19.3799 21.2301 19.5999 21.0101C19.8199 20.7901 19.9399 20.5001 19.9399 20.2001C19.9399 19.8901 19.8199 19.6001 19.5999 19.3901Z" fill="#141414"/>
<path d="M6.01994 5.8101C5.79994 5.5901 5.51994 5.4701 5.20994 5.4701C4.89994 5.4701 4.61994 5.5901 4.39994 5.8001C4.17994 6.0201 4.05994 6.3001 4.05994 6.6101C4.05994 6.9201 4.17994 7.2101 4.39994 7.4201C4.61994 7.6401 4.89994 7.7601 5.20994 7.7601C5.51994 7.7601 5.79994 7.6401 6.01994 7.4301C6.45994 6.9801 6.45994 6.2501 6.01994 5.8101Z" fill="#141414"/>
<path d="M12.8099 3.0001C12.8099 2.9901 12.8099 2.9901 12.8099 3.0001C12.3599 2.5501 11.6399 2.5501 11.1899 3.0001C10.9699 3.2201 10.8499 3.5101 10.8499 3.8101C10.8499 4.1201 10.9699 4.4001 11.1799 4.6201C11.3999 4.8401 11.6799 4.9601 11.9899 4.9601C12.2999 4.9601 12.5799 4.8401 12.7999 4.6201C13.2599 4.1701 13.2599 3.4401 12.8099 3.0001Z" fill="#141414"/>
</svg>
