<svg width="24" height="24" viewBox="0 0 24 24" fill="none" xmlns="http://www.w3.org/2000/svg">
<path d="M15.4613 9.89633C13.5539 8.02135 10.4461 8.02135 8.53873 9.89633C6.622 11.7713 6.622 14.8022 8.53873 16.6681C10.4555 18.5431 13.5539 18.5431 15.4613 16.6681C17.378 14.7931 17.378 11.7622 15.4613 9.89633ZM12.4931 13.7646L11.0137 15.2118C10.8742 15.3483 10.6974 15.4121 10.5206 15.4121C10.3438 15.4121 10.1577 15.3483 10.0274 15.2118C9.75762 14.9479 9.75762 14.511 10.0274 14.2379L11.5069 12.7907C11.7767 12.5268 12.2233 12.5268 12.5024 12.7907C12.7723 13.0638 12.7723 13.5007 12.4931 13.7646Z" fill="#141414"/>
<path d="M19.0714 6.36481C18.8667 6.16457 18.6062 6.05535 18.3177 6.05535C18.0293 6.05535 17.7688 6.16457 17.5641 6.35571C17.1454 6.76529 17.1454 7.42063 17.5641 7.83021C17.7688 8.03045 18.0293 8.13967 18.3177 8.13967C18.6062 8.13967 18.8667 8.03045 19.0714 7.83931C19.2761 7.63907 19.3878 7.38422 19.3878 7.10206C19.3878 6.8199 19.2761 6.55595 19.0714 6.36481Z" fill="#141414"/>
<path d="M6.43591 18.7251C6.23122 18.5249 5.97069 18.4157 5.68225 18.4157C5.39381 18.4157 5.13329 18.5249 4.92859 18.716C4.72389 18.9163 4.61224 19.1711 4.61224 19.4533C4.61224 19.7354 4.72389 19.9903 4.92859 20.1905C5.13329 20.3908 5.41242 20.4909 5.68225 20.4909C5.95208 20.4909 6.23122 20.3908 6.43591 20.1814C6.84531 19.7901 6.84531 19.1256 6.43591 18.7251Z" fill="#141414"/>
<path d="M21.686 12.545C21.4906 12.3447 21.2207 12.2446 20.9323 12.2355C20.6439 12.2355 20.3833 12.3447 20.1786 12.545C19.7599 12.9546 19.7599 13.6099 20.1786 14.0195C20.3833 14.2197 20.6625 14.3198 20.9323 14.3198C21.2021 14.3198 21.4813 14.2197 21.686 14.0195C22.1047 13.6099 22.1047 12.9455 21.686 12.545Z" fill="#141414"/>
<path d="M3.82135 12.545C3.41196 12.1445 2.73273 12.1354 2.31403 12.545C1.89532 12.9546 1.89532 13.6099 2.31403 14.0195C2.51873 14.2197 2.79786 14.3198 3.06769 14.3198C3.33752 14.3198 3.61665 14.2197 3.82135 14.0195C4.23075 13.6099 4.23075 12.9455 3.82135 12.545Z" fill="#141414"/>
<path d="M19.0714 18.7251C18.6527 18.3156 17.9828 18.3156 17.5641 18.7251C17.1454 19.1347 17.1454 19.7901 17.5641 20.1996C17.7688 20.3999 18.0479 20.5 18.3177 20.5C18.5876 20.5 18.8667 20.3999 19.0714 20.1996C19.2761 19.9994 19.3878 19.7354 19.3878 19.4624C19.3878 19.1802 19.2761 18.9163 19.0714 18.7251Z" fill="#141414"/>
<path d="M6.43591 6.36481C6.23122 6.16457 5.97069 6.05535 5.68225 6.05535C5.39381 6.05535 5.13329 6.16457 4.92859 6.35571C4.72389 6.55595 4.61224 6.8108 4.61224 7.09296C4.61224 7.37512 4.72389 7.63907 4.92859 7.83021C5.13329 8.03045 5.39381 8.13967 5.68225 8.13967C5.97069 8.13967 6.23122 8.03045 6.43591 7.83931C6.84531 7.42973 6.84531 6.76529 6.43591 6.36481Z" fill="#141414"/>
<path d="M12.7537 3.80719C12.7537 3.79809 12.7537 3.79809 12.7537 3.80719C12.335 3.3976 11.665 3.3976 11.2463 3.80719C11.0416 4.00743 10.93 4.27138 10.93 4.54444C10.93 4.8266 11.0416 5.08145 11.237 5.28169C11.4417 5.48193 11.7023 5.59115 11.9907 5.59115C12.2791 5.59115 12.5397 5.48193 12.7444 5.28169C13.1724 4.87211 13.1724 4.20767 12.7537 3.80719Z" fill="#141414"/>
</svg>
