<svg width="24" height="24" viewBox="0 0 24 24" fill="none" xmlns="http://www.w3.org/2000/svg">
<path d="M6.31806 15.6367C6.86046 15.6367 7.38039 15.8523 7.76407 16.2359C8.14774 16.6196 8.36333 17.1395 8.36333 17.6819V21.0911L8.35889 21.181C8.3382 21.3891 8.24618 21.5845 8.09699 21.7337C7.92647 21.9042 7.69551 22 7.45444 22C7.21338 22 6.98242 21.9042 6.8119 21.7337C6.64138 21.5631 6.54556 21.3322 6.54556 21.0911V17.4544H2.90889C2.66782 17.4544 2.43686 17.3586 2.26634 17.1881C2.09582 17.0176 2 16.7866 2 16.5456C2 16.3045 2.09582 16.0735 2.26634 15.903C2.43686 15.7325 2.66782 15.6367 2.90889 15.6367H6.31806ZM21.0911 15.6367L21.181 15.6411C21.3891 15.6618 21.5845 15.7538 21.7337 15.903C21.9042 16.0735 22 16.3045 22 16.5456C22 16.7866 21.9042 17.0176 21.7337 17.1881C21.5631 17.3586 21.3322 17.4544 21.0911 17.4544H17.4544V21.0911C17.4544 21.3322 17.3586 21.5631 17.1881 21.7337C17.0176 21.9042 16.7866 22 16.5456 22C16.3045 22 16.0735 21.9042 15.903 21.7337C15.7538 21.5845 15.6618 21.3891 15.6411 21.181L15.6367 21.0911V17.6819C15.6367 17.1395 15.8523 16.6196 16.2359 16.2359C16.6196 15.8523 17.1395 15.6367 17.6819 15.6367H21.0911ZM7.45444 2C7.69551 2 7.92647 2.09582 8.09699 2.26634C8.26751 2.43686 8.36333 2.66782 8.36333 2.90889V6.31806C8.36333 6.86046 8.14774 7.38039 7.76407 7.76407C7.38039 8.14774 6.86046 8.36333 6.31806 8.36333H2.90889C2.66782 8.36333 2.43686 8.26751 2.26634 8.09699C2.09582 7.92647 2 7.69551 2 7.45444C2 7.21338 2.09582 6.98242 2.26634 6.8119C2.43686 6.64138 2.66782 6.54556 2.90889 6.54556H6.54556V2.90889C6.54556 2.66782 6.64138 2.43686 6.8119 2.26634C6.98242 2.09582 7.21338 2 7.45444 2ZM16.5456 2C16.7866 2 17.0176 2.09582 17.1881 2.26634C17.3586 2.43686 17.4544 2.66782 17.4544 2.90889V6.54556H21.0911C21.3322 6.54556 21.5631 6.64138 21.7337 6.8119C21.9042 6.98242 22 7.21338 22 7.45444C22 7.69551 21.9042 7.92647 21.7337 8.09699C21.5845 8.24618 21.3891 8.3382 21.181 8.35889L21.0911 8.36333H17.6819C17.1395 8.36333 16.6196 8.14774 16.2359 7.76407C15.8523 7.38039 15.6367 6.86046 15.6367 6.31806V2.90889C15.6367 2.66782 15.7325 2.43686 15.903 2.26634C16.0735 2.09582 16.3045 2 16.5456 2Z" fill="#141414"/>
</svg>
