<svg width="24" height="24" viewBox="0 0 24 24" fill="none" xmlns="http://www.w3.org/2000/svg">
<path d="M20.0667 2H17.2667C16.0571 2 15.3333 2.72381 15.3333 3.93333V6.73333C15.3333 7.94286 16.0571 8.66667 17.2667 8.66667H20.0667C21.2762 8.66667 22 7.94286 22 6.73333V3.93333C22 2.72381 21.2762 2 20.0667 2ZM18.2 7.30476C18.1714 7.33333 18.1048 7.37143 18.0571 7.37143L17.0667 7.51429C17.0381 7.52381 17 7.52381 16.9714 7.52381C16.8286 7.52381 16.7048 7.47619 16.619 7.38095C16.5048 7.26667 16.4571 7.10476 16.4857 6.93333L16.6286 5.94286C16.6381 5.89524 16.6667 5.82857 16.6952 5.8L18.3143 4.18095C18.3429 4.24762 18.3714 4.32381 18.4 4.4C18.4381 4.47619 18.4762 4.54286 18.5143 4.60952C18.5429 4.66667 18.581 4.72381 18.619 4.7619C18.6571 4.81905 18.6952 4.87619 18.7238 4.90476C18.7429 4.93333 18.7524 4.94286 18.7619 4.95238C18.8476 5.05714 18.9429 5.15238 19.0286 5.21905C19.0476 5.2381 19.0667 5.25714 19.0762 5.25714C19.1238 5.29524 19.181 5.34286 19.219 5.37143C19.2762 5.40952 19.3238 5.44762 19.381 5.47619C19.4476 5.51429 19.5238 5.55238 19.6 5.59048C19.6762 5.62857 19.7524 5.65714 19.819 5.67619L18.2 7.30476ZM20.4762 5.02857L20.1714 5.33333C20.1524 5.3619 20.1238 5.37143 20.0952 5.37143C20.0857 5.37143 20.0762 5.37143 20.0667 5.37143C19.381 5.17143 18.8381 4.62857 18.6381 3.94286C18.6286 3.90476 18.6381 3.86667 18.6667 3.8381L18.981 3.52381C19.4952 3.00952 19.981 3.01905 20.4857 3.52381C20.7429 3.78095 20.8667 4.02857 20.8667 4.27619C20.8571 4.52381 20.7333 4.77143 20.4762 5.02857Z" fill="#141414"/>
<path d="M8.66667 10.9333C9.91851 10.9333 10.9333 9.91851 10.9333 8.66667C10.9333 7.41482 9.91851 6.4 8.66667 6.4C7.41482 6.4 6.4 7.41482 6.4 8.66667C6.4 9.91851 7.41482 10.9333 8.66667 10.9333Z" fill="#141414"/>
<path d="M20.0667 8.66667H19.619V13.0571L19.4952 12.9524C18.7524 12.3143 17.5524 12.3143 16.8095 12.9524L12.8476 16.3524C12.1048 16.9905 10.9048 16.9905 10.1619 16.3524L9.83809 16.0857C9.1619 15.4952 8.08571 15.4381 7.32381 15.9524L3.7619 18.3429C3.55238 17.8095 3.42857 17.1905 3.42857 16.4667V8.48571C3.42857 5.8 4.84762 4.38095 7.53333 4.38095H15.3333V3.93333C15.3333 3.55238 15.4 3.22857 15.5524 2.95238H7.53333C4.06667 2.95238 2 5.01905 2 8.48571V16.4667C2 17.5048 2.18095 18.4095 2.53333 19.1714C3.35238 20.981 5.10476 22 7.53333 22H15.5143C18.981 22 21.0476 19.9333 21.0476 16.4667V8.44762C20.7714 8.6 20.4476 8.66667 20.0667 8.66667Z" fill="#141414"/>
</svg>
