<svg width="24" height="24" viewBox="0 0 24 24" fill="none" xmlns="http://www.w3.org/2000/svg">
<path d="M3.00988 15.6411C3.2132 15.6638 3.40443 15.756 3.55144 15.903C3.72196 16.0735 3.81778 16.3045 3.81778 16.5456V20.1822H7.45444C7.69551 20.1822 7.92647 20.278 8.09699 20.4486C8.26751 20.6191 8.36333 20.85 8.36333 21.0911L8.35889 21.181C8.3382 21.3891 8.24618 21.5845 8.09699 21.7337C7.92647 21.9042 7.69551 22 7.45444 22H4.04528C3.50288 22 2.98294 21.7844 2.59927 21.4007C2.21559 21.0171 2 20.4971 2 19.9547V16.5456C2 16.3045 2.09582 16.0735 2.26634 15.903C2.43582 15.7335 2.66499 15.6367 2.90445 15.6356L3.00988 15.6411ZM21.181 15.6411C21.3891 15.6618 21.5845 15.7538 21.7337 15.903C21.9042 16.0735 22 16.3045 22 16.5456V19.9547L21.99 20.1567C21.9435 20.625 21.7365 21.065 21.4007 21.4007C21.065 21.7365 20.625 21.9435 20.1567 21.99L19.9547 22H16.5456C16.3045 22 16.0735 21.9042 15.903 21.7337C15.7538 21.5845 15.6618 21.3891 15.6411 21.181L15.6367 21.0911C15.6367 20.85 15.7325 20.6191 15.903 20.4486C16.0735 20.278 16.3045 20.1822 16.5456 20.1822H20.1822V16.5456C20.1822 16.3045 20.278 16.0735 20.4486 15.903C20.6191 15.7325 20.85 15.6367 21.0911 15.6367L21.181 15.6411ZM19.9547 2C20.4971 2 21.0171 2.21559 21.4007 2.59927C21.7844 2.98294 22 3.50288 22 4.04528V7.45444C22 7.69551 21.9042 7.92647 21.7337 8.09699C21.5845 8.24618 21.3891 8.3382 21.181 8.35889L21.0911 8.36333C20.85 8.36333 20.6191 8.26751 20.4486 8.09699C20.278 7.92647 20.1822 7.69551 20.1822 7.45444V3.81778H16.5456C16.3045 3.81778 16.0735 3.72196 15.903 3.55144C15.756 3.40443 15.6638 3.2132 15.6411 3.00988L15.6367 2.90889C15.6367 2.66782 15.7325 2.43686 15.903 2.26634C16.0735 2.09582 16.3045 2 16.5456 2H19.9547ZM7.45444 2C7.69551 2 7.92647 2.09582 8.09699 2.26634C8.24202 2.41137 8.33203 2.60105 8.35557 2.80457L8.36333 2.91666C8.3613 3.15488 8.26571 3.38272 8.09699 3.55144C7.92647 3.72196 7.69551 3.81778 7.45444 3.81778H3.81778V7.45444C3.81778 7.69551 3.72196 7.92647 3.55144 8.09699C3.40524 8.24319 3.21417 8.33383 3.00988 8.35668L2.90445 8.36111C2.66404 8.35994 2.43515 8.2658 2.26634 8.09699C2.09582 7.92647 2 7.69551 2 7.45444V4.04528C2 3.50288 2.21559 2.98294 2.59927 2.59927C2.98294 2.21559 3.50288 2 4.04528 2H7.45444Z" fill="#141414"/>
</svg>
