<svg width="24" height="24" viewBox="0 0 24 24" fill="none" xmlns="http://www.w3.org/2000/svg">
<path d="M14.43 16.92H12.14C11.73 16.92 11.39 16.58 11.39 16.17C11.39 15.76 11.73 15.42 12.14 15.42H14.43C14.86 15.42 15.21 15.07 15.21 14.64C15.21 14.21 14.86 13.86 14.43 13.86H12.14C11.9 13.86 11.67 13.74 11.53 13.55C11.39 13.36 11.35 13.1 11.43 12.87L12.19 10.58C12.29 10.27 12.58 10.07 12.9 10.07H15.96C16.37 10.07 16.71 10.41 16.71 10.82C16.71 11.23 16.37 11.57 15.96 11.57H13.44L13.18 12.36H14.43C15.69 12.36 16.71 13.38 16.71 14.64C16.71 15.9 15.68 16.92 14.43 16.92Z" fill="#141414"/>
<path d="M9.53998 16.92C9.12998 16.92 8.78998 16.58 8.78998 16.17V12.78L8.59998 13C8.31998 13.31 7.84998 13.33 7.53998 13.06C7.23998 12.78 7.20998 12.31 7.48998 12L8.98998 10.33C9.19998 10.1 9.52997 10.02 9.81997 10.13C10.11 10.24 10.3 10.52 10.3 10.83V16.18C10.29 16.59 9.95998 16.92 9.53998 16.92Z" fill="#141414"/>
<path d="M19.69 7.35002C19.44 7.02002 18.97 6.95002 18.64 7.20002C18.31 7.45002 18.24 7.92002 18.49 8.25002C19.57 9.69002 20.14 11.37 20.14 13.11C20.14 17.6 16.49 21.25 12 21.25C7.50998 21.25 3.85998 17.6 3.85998 13.11C3.85998 8.62002 7.50998 4.98002 12 4.98002C12.58 4.98002 13.17 5.05002 13.81 5.20002C13.84 5.21002 13.87 5.20002 13.9 5.20002C13.93 5.20002 13.95 5.22002 13.97 5.22002C14 5.22002 14.02 5.21002 14.05 5.21002C14.08 5.21002 14.11 5.20002 14.15 5.19002C14.21 5.18002 14.26 5.15002 14.31 5.13002C14.34 5.11002 14.37 5.10002 14.4 5.08002C14.41 5.07002 14.43 5.07002 14.44 5.06002C14.47 5.04002 14.48 5.01002 14.5 4.99002C14.54 4.95002 14.57 4.92002 14.6 4.87002C14.63 4.83002 14.64 4.78002 14.66 4.73002C14.67 4.70002 14.69 4.67002 14.7 4.64002C14.7 4.62002 14.7 4.61002 14.7 4.59002C14.71 4.54002 14.71 4.49002 14.7 4.44002C14.7 4.39002 14.7 4.35002 14.69 4.30002C14.68 4.26002 14.66 4.22002 14.64 4.17002C14.62 4.12002 14.6 4.07002 14.57 4.03002C14.57 4.02002 14.57 4.01002 14.56 4.00002L12.58 1.53002C12.32 1.21002 11.85 1.15002 11.53 1.41002C11.21 1.67002 11.16 2.14002 11.41 2.46002L12.23 3.48002C12.15 3.48002 12.07 3.47002 11.99 3.47002C6.67998 3.47002 2.34998 7.79002 2.34998 13.11C2.34998 18.43 6.66997 22.75 11.99 22.75C17.31 22.75 21.63 18.43 21.63 13.11C21.64 11.04 20.96 9.05002 19.69 7.35002Z" fill="#141414"/>
</svg>
