<svg width="24" height="24" viewBox="0 0 24 24" fill="none" xmlns="http://www.w3.org/2000/svg">
<path d="M8.66667 10.9333C9.91851 10.9333 10.9333 9.91851 10.9333 8.66667C10.9333 7.41482 9.91851 6.4 8.66667 6.4C7.41482 6.4 6.4 7.41482 6.4 8.66667C6.4 9.91851 7.41482 10.9333 8.66667 10.9333Z" fill="#141414"/>
<path d="M20.0667 8.66667H19.619V13.0571L19.4952 12.9524C18.7524 12.3143 17.5524 12.3143 16.8095 12.9524L12.8476 16.3524C12.1048 16.9905 10.9048 16.9905 10.1619 16.3524L9.83809 16.0857C9.1619 15.4952 8.08571 15.4381 7.32381 15.9524L3.7619 18.3429C3.55238 17.8095 3.42857 17.1905 3.42857 16.4667V8.48571C3.42857 5.8 4.84762 4.38095 7.53333 4.38095H15.3333V3.93333C15.3333 3.55238 15.4 3.22857 15.5524 2.95238H7.53333C4.06667 2.95238 2 5.01905 2 8.48571V16.4667C2 17.5048 2.18095 18.4095 2.53333 19.1714C3.35238 20.981 5.10476 22 7.53333 22H15.5143C18.981 22 21.0476 19.9333 21.0476 16.4667V8.44762C20.7714 8.6 20.4476 8.66667 20.0667 8.66667Z" fill="#141414"/>
<path d="M20.0667 2H17.2667C16.4381 2 15.8286 2.34286 15.5524 2.95238C15.4 3.22857 15.3333 3.55238 15.3333 3.93333V4.38095V6.73333C15.3333 7.94286 16.0571 8.66667 17.2667 8.66667H19.619H20.0667C20.4476 8.66667 20.7714 8.6 21.0476 8.44762C21.6571 8.17143 22 7.5619 22 6.73333V3.93333C22 2.72381 21.2762 2 20.0667 2ZM19.4286 6.96191C19.1238 7.14286 18.8286 7.2381 18.6667 7.2381C18.2381 7.2381 17.019 6.64762 16.6571 5.50476C16.6 5.33333 16.5714 5.14286 16.5714 4.96191C16.5714 4.8 16.5905 4.6381 16.6381 4.48571C16.7619 4.0381 17.0571 3.64762 17.5524 3.48571C17.7429 3.42857 17.9429 3.40952 18.1238 3.44762C18.3143 3.47619 18.4952 3.55238 18.6571 3.67619C18.9619 3.4381 19.381 3.3619 19.781 3.48571C20.6476 3.77143 20.9238 4.75238 20.6762 5.50476C20.6381 5.61905 20.5905 5.73333 20.5333 5.8381C20.2762 6.35238 19.8381 6.73333 19.4286 6.96191Z" fill="#141414"/>
</svg>
