<svg width="24" height="24" viewBox="0 0 24 24" fill="none" xmlns="http://www.w3.org/2000/svg">
<path d="M19.48 7.09003C19.22 6.77003 18.75 6.72003 18.43 6.98003C18.11 7.24003 18.06 7.71003 18.32 8.03003C19.45 9.43003 20.08 11.09 20.14 12.83C20.3 17.31 16.78 21.09 12.29 21.24C7.80003 21.4 4.03003 17.88 3.87003 13.4C3.71003 8.92003 7.23003 5.14003 11.72 4.99003C12.29 4.97003 12.89 5.02003 13.54 5.15003C13.58 5.16003 13.62 5.15003 13.66 5.15003C13.76 5.20003 13.88 5.23003 13.99 5.23003C14.16 5.23003 14.32 5.18003 14.46 5.06003C14.78 4.80003 14.83 4.33003 14.58 4.01003L12.6 1.54003C12.34 1.22003 11.87 1.16003 11.55 1.42003C11.23 1.68003 11.18 2.15003 11.43 2.47003L12.26 3.50003C12.07 3.49003 11.87 3.48003 11.68 3.49003C6.37003 3.67003 2.20003 8.15003 2.39003 13.46C2.58003 18.77 7.05003 22.94 12.36 22.75C17.67 22.56 21.84 18.09 21.65 12.78C21.56 10.71 20.82 8.74003 19.48 7.09003Z" fill="#141414"/>
<path d="M12.38 16.92H10.09C9.68003 16.92 9.34003 16.58 9.34003 16.17C9.34003 15.76 9.68003 15.42 10.09 15.42H12.38C12.81 15.42 13.16 15.07 13.16 14.64C13.16 14.21 12.81 13.86 12.38 13.86H10.09C9.85003 13.86 9.62003 13.74 9.48003 13.55C9.34003 13.36 9.30003 13.1 9.38003 12.87L10.14 10.58C10.24 10.27 10.53 10.07 10.85 10.07H13.91C14.32 10.07 14.66 10.41 14.66 10.82C14.66 11.23 14.32 11.57 13.91 11.57H11.39L11.13 12.36H12.38C13.64 12.36 14.66 13.38 14.66 14.64C14.66 15.9 13.64 16.92 12.38 16.92Z" fill="#141414"/>
</svg>
