<svg width="24" height="24" viewBox="0 0 24 24" fill="none" xmlns="http://www.w3.org/2000/svg">
<path d="M4.08887 15.2041C4.26779 15.2241 4.43607 15.3052 4.56543 15.4346C4.71549 15.5846 4.7998 15.7879 4.7998 16V19.2002H8C8.21214 19.2002 8.41537 19.2845 8.56543 19.4346C8.71549 19.5846 8.7998 19.7879 8.7998 20L8.7959 20.0791C8.77769 20.2622 8.69671 20.4341 8.56543 20.5654C8.41537 20.7155 8.21214 20.7998 8 20.7998H5C4.5227 20.7998 4.06517 20.6101 3.72754 20.2725C3.38991 19.9348 3.2002 19.4773 3.2002 19V16C3.2002 15.7879 3.28451 15.5846 3.43457 15.4346C3.58371 15.2854 3.78537 15.2002 3.99609 15.1992L4.08887 15.2041ZM20.0791 15.2041C20.2622 15.2223 20.4341 15.3033 20.5654 15.4346C20.7155 15.5846 20.7998 15.7879 20.7998 16V19L20.791 19.1777C20.7501 19.5898 20.5679 19.977 20.2725 20.2725C19.977 20.5679 19.5898 20.7501 19.1777 20.791L19 20.7998H16C15.7879 20.7998 15.5846 20.7155 15.4346 20.5654C15.3033 20.4341 15.2223 20.2622 15.2041 20.0791L15.2002 20C15.2002 19.7879 15.2845 19.5846 15.4346 19.4346C15.5846 19.2845 15.7879 19.2002 16 19.2002H19.2002V16C19.2002 15.7879 19.2845 15.5846 19.4346 15.4346C19.5846 15.2845 19.7879 15.2002 20 15.2002L20.0791 15.2041ZM19 3.2002C19.4773 3.2002 19.9348 3.38991 20.2725 3.72754C20.6101 4.06517 20.7998 4.5227 20.7998 5V8C20.7998 8.21214 20.7155 8.41537 20.5654 8.56543C20.4341 8.69671 20.2622 8.77769 20.0791 8.7959L20 8.7998C19.7879 8.7998 19.5846 8.71549 19.4346 8.56543C19.2845 8.41537 19.2002 8.21214 19.2002 8V4.7998H16C15.7879 4.7998 15.5846 4.71549 15.4346 4.56543C15.3052 4.43607 15.2241 4.26779 15.2041 4.08887L15.2002 4C15.2002 3.78786 15.2845 3.58463 15.4346 3.43457C15.5846 3.28451 15.7879 3.2002 16 3.2002H19ZM8 3.2002C8.21214 3.2002 8.41537 3.28451 8.56543 3.43457C8.69305 3.56219 8.77226 3.72911 8.79297 3.9082L8.7998 4.00684C8.79801 4.21647 8.71389 4.41696 8.56543 4.56543C8.41537 4.71549 8.21214 4.7998 8 4.7998H4.7998V8C4.7998 8.21214 4.71549 8.41537 4.56543 8.56543C4.43678 8.69408 4.26864 8.77384 4.08887 8.79395L3.99609 8.79785C3.78454 8.79682 3.58312 8.71398 3.43457 8.56543C3.28451 8.41537 3.2002 8.21214 3.2002 8V5C3.2002 4.5227 3.38991 4.06517 3.72754 3.72754C4.06517 3.38991 4.5227 3.2002 5 3.2002H8Z" fill="#141414"/>
</svg>
