<svg width="24" height="24" viewBox="0 0 24 24" fill="none" xmlns="http://www.w3.org/2000/svg">
<path d="M7 15.2002C7.4773 15.2002 7.93483 15.3899 8.27246 15.7275C8.61009 16.0652 8.7998 16.5227 8.7998 17V20L8.7959 20.0791C8.77769 20.2622 8.69671 20.4341 8.56543 20.5654C8.41537 20.7155 8.21214 20.7998 8 20.7998C7.78786 20.7998 7.58463 20.7155 7.43457 20.5654C7.28451 20.4154 7.2002 20.2121 7.2002 20V16.7998H4C3.78786 16.7998 3.58463 16.7155 3.43457 16.5654C3.28451 16.4154 3.2002 16.2121 3.2002 16C3.2002 15.7879 3.28451 15.5846 3.43457 15.4346C3.58463 15.2845 3.78786 15.2002 4 15.2002H7ZM20 15.2002L20.0791 15.2041C20.2622 15.2223 20.4341 15.3033 20.5654 15.4346C20.7155 15.5846 20.7998 15.7879 20.7998 16C20.7998 16.2121 20.7155 16.4154 20.5654 16.5654C20.4154 16.7155 20.2121 16.7998 20 16.7998H16.7998V20C16.7998 20.2121 16.7155 20.4154 16.5654 20.5654C16.4154 20.7155 16.2121 20.7998 16 20.7998C15.7879 20.7998 15.5846 20.7155 15.4346 20.5654C15.3033 20.4341 15.2223 20.2622 15.2041 20.0791L15.2002 20V17C15.2002 16.5227 15.3899 16.0652 15.7275 15.7275C16.0652 15.3899 16.5227 15.2002 17 15.2002H20ZM8 3.2002C8.21214 3.2002 8.41537 3.28451 8.56543 3.43457C8.71549 3.58463 8.7998 3.78786 8.7998 4V7C8.7998 7.4773 8.61009 7.93483 8.27246 8.27246C7.93483 8.61009 7.4773 8.7998 7 8.7998H4C3.78786 8.7998 3.58463 8.71549 3.43457 8.56543C3.28451 8.41537 3.2002 8.21214 3.2002 8C3.2002 7.78786 3.28451 7.58463 3.43457 7.43457C3.58463 7.28451 3.78786 7.2002 4 7.2002H7.2002V4C7.2002 3.78786 7.28451 3.58463 7.43457 3.43457C7.58463 3.28451 7.78786 3.2002 8 3.2002ZM16 3.2002C16.2121 3.2002 16.4154 3.28451 16.5654 3.43457C16.7155 3.58463 16.7998 3.78786 16.7998 4V7.2002H20C20.2121 7.2002 20.4154 7.28451 20.5654 7.43457C20.7155 7.58463 20.7998 7.78786 20.7998 8C20.7998 8.21214 20.7155 8.41537 20.5654 8.56543C20.4341 8.69671 20.2622 8.77769 20.0791 8.7959L20 8.7998H17C16.5227 8.7998 16.0652 8.61009 15.7275 8.27246C15.3899 7.93483 15.2002 7.4773 15.2002 7V4C15.2002 3.78786 15.2845 3.58463 15.4346 3.43457C15.5846 3.28451 15.7879 3.2002 16 3.2002Z" fill="#141414"/>
</svg>
