<svg width="24" height="24" viewBox="0 0 24 24" fill="none" xmlns="http://www.w3.org/2000/svg">
<path d="M14.2779 16.5774H12.14C11.7572 16.5774 11.4398 16.2612 11.4398 15.8798C11.4398 15.4985 11.7572 15.1823 12.14 15.1823H14.2779C14.6794 15.1823 15.0062 14.8567 15.0062 14.4568C15.0062 14.0568 14.6794 13.7313 14.2779 13.7313H12.14C11.9159 13.7313 11.7012 13.6197 11.5705 13.4429C11.4398 13.2662 11.4024 13.0244 11.4771 12.8105L12.1867 10.6805C12.28 10.3922 12.5508 10.2061 12.8495 10.2061H15.7064C16.0891 10.2061 16.4066 10.5224 16.4066 10.9037C16.4066 11.2851 16.0891 11.6013 15.7064 11.6013H13.3537L13.1109 12.3361H14.2779C15.4543 12.3361 16.4066 13.2848 16.4066 14.4568C16.4066 15.6287 15.445 16.5774 14.2779 16.5774Z" fill="#141414"/>
<path d="M9.71262 16.5774C9.32984 16.5774 9.01241 16.2612 9.01241 15.8798V12.7267L8.83503 12.9314C8.57362 13.2197 8.13483 13.2383 7.84541 12.9872C7.56533 12.7267 7.53732 12.2896 7.79873 12.0013L9.19914 10.448C9.39519 10.234 9.70328 10.1596 9.97403 10.2619C10.2448 10.3643 10.4222 10.6247 10.4222 10.913V15.8891C10.4128 16.2705 10.1047 16.5774 9.71262 16.5774Z" fill="#141414"/>
<path d="M19.1887 7.67622C18.9553 7.36929 18.5165 7.30418 18.2084 7.53671C17.9003 7.76923 17.835 8.20639 18.0684 8.51333C19.0767 9.85269 19.6088 11.4153 19.6088 13.0337C19.6088 17.2099 16.2012 20.6048 12.0093 20.6048C7.8174 20.6048 4.40974 17.2099 4.40974 13.0337C4.40974 8.85747 7.8174 5.47185 12.0093 5.47185C12.5508 5.47185 13.1016 5.53696 13.6991 5.67648C13.7271 5.68578 13.7551 5.67648 13.7831 5.67648C13.8111 5.67648 13.8298 5.69508 13.8485 5.69508C13.8765 5.69508 13.8952 5.68578 13.9232 5.68578C13.9512 5.68578 13.9792 5.67648 14.0165 5.66717C14.0726 5.65787 14.1192 5.62997 14.1659 5.61137C14.1939 5.59277 14.2219 5.58346 14.2499 5.56486C14.2593 5.55556 14.2779 5.55556 14.2873 5.54626C14.3153 5.52766 14.3246 5.49975 14.3433 5.48115C14.3806 5.44395 14.4087 5.41604 14.4367 5.36954C14.4647 5.33233 14.474 5.28583 14.4927 5.23932C14.502 5.21142 14.5207 5.18351 14.53 5.15561C14.53 5.13701 14.53 5.12771 14.53 5.10911C14.5394 5.0626 14.5394 5.01609 14.53 4.96959C14.53 4.92308 14.53 4.88588 14.5207 4.83937C14.5113 4.80217 14.4927 4.76496 14.474 4.71846C14.4553 4.67195 14.4367 4.62545 14.4086 4.58824C14.4086 4.57894 14.4087 4.56964 14.3993 4.56034L12.5508 2.26295C12.308 1.96532 11.8692 1.90951 11.5705 2.15134C11.2717 2.39317 11.2251 2.83032 11.4585 3.12796L12.224 4.07668C12.1493 4.07668 12.0746 4.06738 11.9999 4.06738C7.04251 4.06738 3 8.08547 3 13.0337C3 17.9819 7.03317 22 11.9999 22C16.9667 22 20.9999 17.9819 20.9999 13.0337C21.0092 11.1083 20.3744 9.25742 19.1887 7.67622Z" fill="#141414"/>
</svg>
