<svg width="24" height="24" viewBox="0 0 24 24" fill="none" xmlns="http://www.w3.org/2000/svg">
<path d="M12.3641 16.5746H10.2261C9.84336 16.5746 9.52593 16.2582 9.52593 15.8767C9.52593 15.4951 9.84336 15.1787 10.2261 15.1787H12.3641C12.7656 15.1787 13.0923 14.853 13.0923 14.4529C13.0923 14.0527 12.7656 13.727 12.3641 13.727H10.2261C10.0021 13.727 9.78734 13.6153 9.65664 13.4385C9.52593 13.2617 9.48859 13.0198 9.56328 12.8057L10.2728 10.6747C10.3662 10.3862 10.6369 10.2001 10.9357 10.2001H13.7925C14.1753 10.2001 14.4927 10.5165 14.4927 10.898C14.4927 11.2796 14.1753 11.596 13.7925 11.596H11.4398L11.1971 12.3311H12.3641C13.5405 12.3311 14.4927 13.2803 14.4927 14.4529C14.4927 15.6254 13.5405 16.5746 12.3641 16.5746Z" fill="#141414"/>
<path d="M12.0093 4.06744C11.9346 4.06744 11.86 4.07675 11.7853 4.07675L12.5508 3.12754C12.7936 2.82975 12.7469 2.38307 12.4388 2.15042C12.1307 1.91777 11.7012 1.95499 11.4585 2.26209L9.61929 4.55135C9.60996 4.56066 9.60996 4.56997 9.60062 4.58858C9.57261 4.6258 9.55394 4.67233 9.53527 4.70955C9.5166 4.75608 9.49793 4.79331 9.48859 4.83053C9.47925 4.87706 9.47925 4.91429 9.47925 4.96081C9.47925 5.00734 9.47925 5.05387 9.47925 5.1004C9.47925 5.11902 9.47925 5.12832 9.47925 5.14693C9.48859 5.17485 9.50726 5.19346 9.5166 5.22138C9.53527 5.26791 9.55394 5.30513 9.57262 5.35166C9.60062 5.38889 9.62863 5.42611 9.66598 5.45403C9.68465 5.48195 9.69398 5.50987 9.72199 5.52848C9.74066 5.53778 9.75 5.54709 9.76867 5.5564C9.79668 5.57501 9.81535 5.58431 9.84336 5.59362C9.89004 5.62154 9.94606 5.64015 10.0021 5.64945C10.0301 5.66807 10.0581 5.66807 10.0861 5.66807C10.1141 5.66807 10.1328 5.67737 10.1608 5.67737C10.1888 5.67737 10.2075 5.66807 10.2261 5.65876C10.2541 5.65876 10.2822 5.66807 10.3102 5.65876C10.9077 5.51917 11.4678 5.45403 12 5.45403C16.1919 5.45403 19.5996 8.8507 19.5996 13.0291C19.5996 17.2074 16.1919 20.6041 12 20.6041C7.80809 20.6041 4.40042 17.2074 4.40042 13.0291C4.40042 11.4098 4.93257 9.84644 5.94087 8.50638C6.17427 8.19928 6.10892 7.7619 5.80083 7.52926C5.49274 7.29661 5.05394 7.36175 4.82054 7.66884C3.62552 9.25086 3 11.1027 3 13.0291C3 17.9705 7.03319 22 12 22C16.9668 22 21 17.9798 21 13.0291C21 8.07831 16.9668 4.06744 12.0093 4.06744Z" fill="#141414"/>
</svg>
