<svg width="24" height="24" viewBox="0 0 24 24" fill="none" xmlns="http://www.w3.org/2000/svg">
<path d="M18.9674 7.42604C18.7246 7.12835 18.2856 7.08184 17.9868 7.32371C17.6879 7.56558 17.6412 8.00281 17.884 8.3005C18.9394 9.60289 19.5278 11.1472 19.5839 12.7658C19.7333 16.9335 16.4457 20.4499 12.2522 20.5895C8.05863 20.7383 4.53755 17.4637 4.38811 13.2961C4.23868 9.12845 7.52627 5.612 11.7198 5.47246C12.2522 5.45385 12.8126 5.50037 13.4196 5.6213C13.457 5.6306 13.4944 5.6213 13.5317 5.6213C13.6251 5.66782 13.7372 5.69572 13.8399 5.69572C13.9987 5.69572 14.1481 5.64921 14.2789 5.53758C14.5778 5.2957 14.6245 4.85847 14.391 4.56078L12.5417 2.263C12.2989 1.96531 11.8599 1.90949 11.561 2.15136C11.2622 2.39324 11.2155 2.83047 11.449 3.12816L12.2242 4.08634C12.0467 4.07704 11.8599 4.06774 11.6824 4.07704C6.72305 4.24449 2.82838 8.41214 3.00583 13.3519C3.18329 18.2917 7.35815 22.1709 12.3176 21.9942C17.277 21.8174 21.1716 17.6591 20.9942 12.7193C20.9101 10.7936 20.219 8.961 18.9674 7.42604Z" fill="#141414"/>
<path d="M12.3362 16.5707H10.1974C9.8145 16.5707 9.49695 16.2544 9.49695 15.873C9.49695 15.4915 9.8145 15.1753 10.1974 15.1753H12.3362C12.7378 15.1753 13.0647 14.8497 13.0647 14.4496C13.0647 14.0496 12.7378 13.724 12.3362 13.724H10.1974C9.97328 13.724 9.75846 13.6124 9.62771 13.4356C9.49695 13.2589 9.45959 13.017 9.53431 12.803L10.2441 10.6727C10.3375 10.3843 10.6084 10.1983 10.9073 10.1983H13.7652C14.1481 10.1983 14.4657 10.5146 14.4657 10.896C14.4657 11.2774 14.1481 11.5937 13.7652 11.5937H11.4116L11.1688 12.3286H12.3362C13.513 12.3286 14.4657 13.2775 14.4657 14.4496C14.4657 15.6218 13.513 16.5707 12.3362 16.5707Z" fill="#141414"/>
</svg>
