<svg width="24" height="24" viewBox="0 0 24 24" fill="none" xmlns="http://www.w3.org/2000/svg">
<path d="M9.69398 16.3431C9.3112 16.3431 8.99378 16.0267 8.99378 15.6453V12.4912L8.81639 12.6959C8.55498 12.9843 8.11618 13.0029 7.82676 12.7517C7.53734 12.4912 7.51867 12.0539 7.77075 11.7655L9.17116 10.2117C9.36722 9.99767 9.67531 9.92324 9.94606 10.0256C10.2168 10.1279 10.3942 10.3884 10.3942 10.6769V15.6546C10.3942 16.0361 10.0861 16.3431 9.69398 16.3431Z" fill="#141414"/>
<path d="M11.9907 4.07094C11.916 4.07094 11.8413 4.08025 11.7666 4.08025L12.5322 3.13122C12.7749 2.83349 12.7282 2.38689 12.4201 2.15429C12.1214 1.91238 11.6826 1.9589 11.4398 2.26594L9.60062 4.55476C9.59129 4.56406 9.59129 4.57337 9.58195 4.59197C9.55394 4.62919 9.53527 4.67571 9.5166 4.71293C9.49793 4.75945 9.47925 4.79666 9.46992 4.83388C9.46058 4.8804 9.46058 4.91762 9.46058 4.96414C9.46058 5.01066 9.46058 5.05718 9.46058 5.1037C9.46058 5.12231 9.46058 5.13161 9.46058 5.15022C9.46992 5.17813 9.48859 5.19674 9.49793 5.23396C9.5166 5.28048 9.52593 5.3177 9.55394 5.35491C9.58195 5.39213 9.60996 5.42935 9.6473 5.46656C9.66598 5.48517 9.68465 5.51308 9.70332 5.53169C9.71266 5.54099 9.73133 5.54099 9.74066 5.5503C9.76867 5.56891 9.79668 5.58752 9.83402 5.59682C9.88071 5.62473 9.92739 5.64334 9.97407 5.65264C10.0114 5.67125 10.0394 5.67125 10.0768 5.67125C10.1048 5.67125 10.1234 5.68056 10.1515 5.68056C10.1701 5.68056 10.1981 5.67125 10.2168 5.66195C10.2448 5.66195 10.2728 5.66195 10.3102 5.66195C10.9077 5.52239 11.4678 5.45726 12 5.45726C16.1919 5.45726 19.5996 8.85327 19.5996 13.0308C19.5996 17.2084 16.1919 20.6044 12 20.6044C7.80809 20.6044 4.40042 17.2084 4.40042 13.0308C4.40042 11.4119 4.93257 9.84881 5.94087 8.50901C6.17427 8.20198 6.10892 7.76468 5.80083 7.53208C5.49274 7.29948 5.05394 7.3646 4.82054 7.67164C3.62552 9.25334 3 11.1049 3 13.0308C3 17.9713 7.0332 22 12 22C16.9668 22 21 17.9806 21 13.0308C21 8.08102 16.9481 4.07094 11.9907 4.07094Z" fill="#141414"/>
<path d="M13.8579 16.3431C12.4388 16.3431 11.2905 15.1987 11.2905 13.7845V12.5284C11.2905 11.1142 12.4388 9.96976 13.8579 9.96976C15.277 9.96976 16.4253 11.1142 16.4253 12.5284V13.7845C16.4253 15.1987 15.277 16.3431 13.8579 16.3431ZM13.8579 11.3747C13.2137 11.3747 12.6909 11.8957 12.6909 12.5377V13.7938C12.6909 14.4357 13.2137 14.9568 13.8579 14.9568C14.5021 14.9568 15.0249 14.4357 15.0249 13.7938V12.5377C15.0249 11.8957 14.5021 11.3747 13.8579 11.3747Z" fill="#141414"/>
</svg>
