<svg width="24" height="24" viewBox="0 0 24 24" fill="none" xmlns="http://www.w3.org/2000/svg">
<path d="M19.1887 7.67341C18.9553 7.36641 18.5165 7.30129 18.2084 7.53387C17.9003 7.76644 17.835 8.20368 18.0684 8.51068C19.0767 9.85031 19.6088 11.4132 19.6088 13.0319C19.6088 17.209 16.2012 20.6046 12.0093 20.6046C7.8174 20.6046 4.40974 17.209 4.40974 13.0319C4.40974 8.85489 7.8174 5.46861 12.0093 5.46861C12.5508 5.46861 13.1016 5.53373 13.6991 5.67327C13.7271 5.68258 13.7551 5.67327 13.7925 5.67327C13.8111 5.67327 13.8392 5.69188 13.8578 5.69188C13.8858 5.69188 13.9045 5.68258 13.9325 5.68258C13.9699 5.68258 13.9979 5.67327 14.0259 5.66397C14.0726 5.65467 14.1192 5.63606 14.1659 5.60815C14.1939 5.58955 14.2313 5.58024 14.2593 5.56164C14.2686 5.55233 14.2873 5.55233 14.2966 5.54303C14.3246 5.52443 14.334 5.49652 14.3526 5.47791C14.39 5.4407 14.418 5.41279 14.446 5.36627C14.474 5.32906 14.4833 5.28255 14.502 5.24534C14.5113 5.21743 14.53 5.18952 14.5394 5.16161C14.5394 5.143 14.5394 5.1337 14.5394 5.11509C14.5487 5.06858 14.5487 5.02206 14.5394 4.97555C14.5394 4.92903 14.5394 4.89182 14.53 4.84531C14.5207 4.8081 14.502 4.77088 14.4833 4.72437C14.4647 4.67785 14.446 4.63134 14.418 4.59413C14.4087 4.57552 14.4087 4.56622 14.3993 4.55692L12.5508 2.25908C12.308 1.96138 11.8692 1.91487 11.5705 2.14744C11.2717 2.38932 11.2251 2.82656 11.4585 3.12426L12.224 4.07316C12.1493 4.07316 12.0746 4.06386 11.9999 4.06386C7.04251 4.06386 3 8.08274 3 13.0319C3 17.9811 7.03317 22 11.9999 22C16.9667 22 20.9999 17.9811 20.9999 13.0319C21.0092 11.1062 20.3744 9.25492 19.1887 7.67341Z" fill="#141414"/>
<path d="M9.71262 16.3438C9.32984 16.3438 9.01241 16.0275 9.01241 15.6461V12.4924L8.83503 12.697C8.57362 12.9854 8.13483 13.004 7.84541 12.7528C7.55599 12.4924 7.53732 12.0551 7.78939 11.7667L9.1898 10.2131C9.38586 9.99916 9.69395 9.92473 9.96469 10.0271C10.2354 10.1294 10.4128 10.3899 10.4128 10.6783V15.6554C10.4128 16.0368 10.1047 16.3438 9.71262 16.3438Z" fill="#141414"/>
<path d="M13.8765 16.3438C12.4574 16.3438 11.3091 15.1995 11.3091 13.7855V12.5296C11.3091 11.1155 12.4574 9.97125 13.8765 9.97125C15.2956 9.97125 16.4439 11.1155 16.4439 12.5296V13.7855C16.4439 15.1995 15.2956 16.3438 13.8765 16.3438ZM13.8765 11.376C13.2323 11.376 12.7095 11.897 12.7095 12.5389V13.7948C12.7095 14.4367 13.2323 14.9576 13.8765 14.9576C14.5207 14.9576 15.0435 14.4367 15.0435 13.7948V12.5389C15.0435 11.897 14.5207 11.376 13.8765 11.376Z" fill="#141414"/>
</svg>
