<svg width="24" height="24" viewBox="0 0 24 24" fill="none" xmlns="http://www.w3.org/2000/svg">
<path d="M17.5941 16.4241C17.4451 16.4241 17.3055 16.3775 17.1751 16.2844C16.8679 16.0516 16.8027 15.6139 17.0355 15.3066C18.4971 13.3603 18.4971 10.6411 17.0355 8.69483C16.8027 8.38752 16.8679 7.94984 17.1751 7.71704C17.4824 7.48423 17.9199 7.54941 18.1527 7.85672C19.9774 10.2966 19.9774 13.7049 18.1527 16.1447C18.013 16.3309 17.8082 16.4241 17.5941 16.4241Z" fill="#141414"/>
<path d="M19.2978 18.7521C19.1488 18.7521 19.0092 18.7056 18.8789 18.6125C18.5716 18.3797 18.5065 17.942 18.7392 17.6347C21.225 14.3195 21.225 9.68194 18.7392 6.36675C18.5065 6.05944 18.5716 5.62176 18.8789 5.38895C19.1861 5.15615 19.6236 5.22133 19.8564 5.52864C22.7145 9.33738 22.7145 14.664 19.8564 18.4728C19.7261 18.659 19.5119 18.7521 19.2978 18.7521Z" fill="#141414"/>
<path d="M13.8887 4.34597C12.846 3.76861 11.5147 3.91761 10.1555 4.76503L7.43698 6.46918C7.25079 6.58093 7.03666 6.64612 6.82253 6.64612H5.49121C3.23822 6.64612 2 7.88466 2 10.1382V13.8632C2 16.1168 3.23822 17.3553 5.49121 17.3553H6.82253C7.03666 17.3553 7.25079 17.4205 7.43698 17.5322L10.1555 19.2364C10.9747 19.7486 11.7754 20 12.5202 20C13.0043 20 13.4698 19.8883 13.8887 19.6554C14.9221 19.0781 15.4994 17.8768 15.4994 16.2751V7.72635C15.4994 6.12463 14.9221 4.92334 13.8887 4.34597Z" fill="#141414"/>
</svg>
