<svg width="24" height="24" viewBox="0 0 24 24" fill="none" xmlns="http://www.w3.org/2000/svg">
<path d="M22.02 16.8201L18.89 9.50012C18.32 8.16012 17.47 7.40012 16.5 7.35012C15.54 7.30012 14.61 7.97012 13.9 9.25012L12 12.6601C11.6 13.3801 11.03 13.8101 10.41 13.8601C9.78001 13.9201 9.15002 13.5901 8.64002 12.9401L8.42002 12.6601C7.71002 11.7701 6.83002 11.3401 5.93002 11.4301C5.03002 11.5201 4.26002 12.1401 3.75002 13.1501L2.02002 16.6001C1.40002 17.8501 1.46002 19.3001 2.19002 20.4801C2.92002 21.6601 4.19002 22.3701 5.58002 22.3701H18.34C19.68 22.3701 20.93 21.7001 21.67 20.5801C22.43 19.4601 22.55 18.0501 22.02 16.8201Z" fill="#141414"/>
<path d="M6.97002 8.38012C8.83674 8.38012 10.35 6.86684 10.35 5.00012C10.35 3.13339 8.83674 1.62012 6.97002 1.62012C5.10329 1.62012 3.59002 3.13339 3.59002 5.00012C3.59002 6.86684 5.10329 8.38012 6.97002 8.38012Z" fill="#141414"/>
</svg>
