<svg width="24" height="24" viewBox="0 0 24 24" fill="none" xmlns="http://www.w3.org/2000/svg">
<path d="M20.0667 2H17.2667C16.0571 2 15.3333 2.72381 15.3333 3.93333V6.73333C15.3333 7.94286 16.0571 8.66667 17.2667 8.66667H20.0667C21.2762 8.66667 22 7.94286 22 6.73333V3.93333C22 2.72381 21.2762 2 20.0667 2ZM20.2762 5.15238C20.1619 5.26667 20.0095 5.32381 19.8571 5.32381C19.7048 5.32381 19.5524 5.26667 19.4381 5.15238L19.2667 4.98095V7.11429C19.2667 7.44762 19 7.71429 18.6667 7.71429C18.3333 7.71429 18.0667 7.44762 18.0667 7.11429V4.98095L17.8952 5.15238C17.6667 5.38095 17.2857 5.38095 17.0571 5.15238C16.8286 4.92381 16.8286 4.54286 17.0571 4.31429L18.2476 3.12381C18.2952 3.07619 18.3619 3.0381 18.4286 3.00952C18.4476 3 18.4667 3 18.4857 2.99048C18.5333 2.97143 18.581 2.9619 18.6381 2.9619C18.6571 2.9619 18.6762 2.9619 18.6952 2.9619C18.7619 2.9619 18.819 2.97143 18.8857 3C18.8952 3 18.8952 3 18.9048 3C18.9714 3.02857 19.0286 3.06667 19.0762 3.11429C19.0857 3.12381 19.0857 3.12381 19.0952 3.12381L20.2857 4.31429C20.5143 4.54286 20.5143 4.92381 20.2762 5.15238Z" fill="#141414"/>
<path d="M8.66667 10.9333C9.91851 10.9333 10.9333 9.91851 10.9333 8.66667C10.9333 7.41482 9.91851 6.4 8.66667 6.4C7.41482 6.4 6.4 7.41482 6.4 8.66667C6.4 9.91851 7.41482 10.9333 8.66667 10.9333Z" fill="#141414"/>
<path d="M20.0667 8.66667H19.619V13.0571L19.4952 12.9524C18.7524 12.3143 17.5524 12.3143 16.8095 12.9524L12.8476 16.3524C12.1048 16.9905 10.9048 16.9905 10.1619 16.3524L9.83809 16.0857C9.1619 15.4952 8.08571 15.4381 7.32381 15.9524L3.7619 18.3429C3.55238 17.8095 3.42857 17.1905 3.42857 16.4667V8.48571C3.42857 5.8 4.84762 4.38095 7.53333 4.38095H15.3333V3.93333C15.3333 3.55238 15.4 3.22857 15.5524 2.95238H7.53333C4.06667 2.95238 2 5.01905 2 8.48571V16.4667C2 17.5048 2.18095 18.4095 2.53333 19.1714C3.35238 20.981 5.10476 22 7.53333 22H15.5143C18.981 22 21.0476 19.9333 21.0476 16.4667V8.44762C20.7714 8.6 20.4476 8.66667 20.0667 8.66667Z" fill="#141414"/>
</svg>
