<svg width="24" height="24" viewBox="0 0 24 24" fill="none" xmlns="http://www.w3.org/2000/svg">
<path d="M20.0667 2H17.2667C16.0571 2 15.3333 2.72381 15.3333 3.93333V6.73333C15.3333 7.94286 16.0571 8.66667 17.2667 8.66667H20.0667C21.2762 8.66667 22 7.94286 22 6.73333V3.93333C22 2.72381 21.2762 2 20.0667 2ZM20.6952 4.33333L18.4381 6.97143C18.3524 7.07619 18.219 7.14286 18.0857 7.14286C18.0762 7.14286 18.0762 7.14286 18.0667 7.14286C17.9333 7.14286 17.8095 7.09524 17.7143 7L16.6667 5.97143C16.4762 5.78095 16.4762 5.46667 16.6667 5.27619C16.8571 5.08571 17.1714 5.07619 17.3619 5.27619L18.0286 5.93333L19.9333 3.70476C20.1143 3.49524 20.419 3.47619 20.6286 3.64762C20.8476 3.81905 20.8667 4.13333 20.6952 4.33333Z" fill="#141414"/>
<path d="M8.66667 10.9333C9.91851 10.9333 10.9333 9.91851 10.9333 8.66667C10.9333 7.41482 9.91851 6.4 8.66667 6.4C7.41482 6.4 6.4 7.41482 6.4 8.66667C6.4 9.91851 7.41482 10.9333 8.66667 10.9333Z" fill="#141414"/>
<path d="M20.0667 8.66667H19.619V13.0571L19.4952 12.9524C18.7524 12.3143 17.5524 12.3143 16.8095 12.9524L12.8476 16.3524C12.1048 16.9905 10.9048 16.9905 10.1619 16.3524L9.83809 16.0857C9.1619 15.4952 8.08571 15.4381 7.32381 15.9524L3.7619 18.3429C3.55238 17.8095 3.42857 17.1905 3.42857 16.4667V8.48571C3.42857 5.8 4.84762 4.38095 7.53333 4.38095H15.3333V3.93333C15.3333 3.55238 15.4 3.22857 15.5524 2.95238H7.53333C4.06667 2.95238 2 5.01905 2 8.48571V16.4667C2 17.5048 2.18095 18.4095 2.53333 19.1714C3.35238 20.981 5.10476 22 7.53333 22H15.5143C18.981 22 21.0476 19.9333 21.0476 16.4667V8.44762C20.7714 8.6 20.4476 8.66667 20.0667 8.66667Z" fill="#141414"/>
</svg>
