<svg width="24" height="24" viewBox="0 0 24 24" fill="none" xmlns="http://www.w3.org/2000/svg">
<path d="M19.7931 17.2536C19.6232 17.2536 19.4638 17.1983 19.3151 17.0877C18.9645 16.8112 18.8902 16.2915 19.1558 15.9266C20.8235 13.6154 20.8235 10.3863 19.1558 8.07511C18.8902 7.71018 18.9645 7.19044 19.3151 6.91398C19.6656 6.63752 20.1649 6.71493 20.4305 7.07986C22.5232 9.97715 22.5232 14.0245 20.4305 16.9218C20.2818 17.143 20.0374 17.2536 19.7931 17.2536Z" fill="#141414"/>
<path d="M15.5653 2.91084C14.3755 2.22522 12.8565 2.40216 11.3055 3.40847L8.20369 5.43216C7.99124 5.56486 7.74691 5.64226 7.50259 5.64226H5.98353C3.41283 5.64226 2 7.11303 2 9.78916V14.2125C2 16.8886 3.41283 18.3594 5.98353 18.3594H7.50259C7.74691 18.3594 7.99124 18.4368 8.20369 18.5695L11.3055 20.5932C12.2403 21.2014 13.1539 21.5 14.0037 21.5C14.5561 21.5 15.0872 21.3673 15.5653 21.0908C16.7444 20.4052 17.403 18.9787 17.403 17.0766V6.92504C17.403 5.02299 16.7444 3.59646 15.5653 2.91084Z" fill="#141414"/>
</svg>
