<svg width="24" height="24" viewBox="0 0 24 24" fill="none" xmlns="http://www.w3.org/2000/svg">
<path d="M16.42 6.41988V7.57988L9.14 14.8599C8.18 13.9899 7.58 12.7099 7.58 11.3399V6.41988C7.58 4.35988 8.98 2.64988 10.88 2.15988C11.07 2.10988 11.25 2.26988 11.25 2.45988V3.99988C11.25 4.40988 11.59 4.74988 12 4.74988C12.41 4.74988 12.75 4.40988 12.75 3.99988V2.45988C12.75 2.26988 12.93 2.10988 13.12 2.15988C15.02 2.64988 16.42 4.35988 16.42 6.41988Z" fill="#141414"/>
<path d="M19.81 9.80988V11.3999C19.81 15.4699 16.68 18.8199 12.7 19.1699V21.2999C12.7 21.6899 12.39 21.9999 12 21.9999C11.61 21.9999 11.3 21.6899 11.3 21.2999V19.1699C10.21 19.0699 9.18 18.7499 8.26 18.2399L9.29 17.2099C10.11 17.5899 11.03 17.8099 12 17.8099C15.54 17.8099 18.42 14.9299 18.42 11.3999V9.80988C18.42 9.42988 18.73 9.11988 19.12 9.11988C19.5 9.11988 19.81 9.42988 19.81 9.80988Z" fill="#141414"/>
<path d="M16.42 10.0799V11.5299C16.42 14.1099 14.2 16.1799 11.56 15.9299C11.28 15.8999 11 15.8499 10.74 15.7599L16.42 10.0799Z" fill="#141414"/>
<path d="M21.77 2.22988C21.47 1.92988 20.98 1.92988 20.68 2.22988L7.23 15.6799C6.2 14.5499 5.57999 13.0499 5.57999 11.3999V9.80988C5.57999 9.42988 5.27 9.11988 4.88 9.11988C4.5 9.11988 4.19 9.42988 4.19 9.80988V11.3999C4.19 13.4299 4.97 15.2799 6.24 16.6699L2.22 20.6899C1.92 20.9899 1.92 21.4799 2.22 21.7799C2.38 21.9199 2.57 21.9999 2.77 21.9999C2.97 21.9999 3.16 21.9199 3.31 21.7699L21.77 3.30988C22.08 3.00988 22.08 2.52988 21.77 2.22988Z" fill="#141414"/>
</svg>
