<svg width="24" height="24" viewBox="0 0 24 24" fill="none" xmlns="http://www.w3.org/2000/svg">
<path d="M21.3023 3.89024H2.69767C2.31628 3.89024 2 3.57512 2 3.19512C2 2.81512 2.31628 2.5 2.69767 2.5H21.3023C21.6837 2.5 22 2.81512 22 3.19512C22 3.57512 21.6837 3.89024 21.3023 3.89024Z" fill="#141414"/>
<path d="M11.0698 9.45122H2.69767C2.31628 9.45122 2 9.1361 2 8.7561C2 8.3761 2.31628 8.06098 2.69767 8.06098H11.0698C11.4512 8.06098 11.7674 8.3761 11.7674 8.7561C11.7674 9.1361 11.4512 9.45122 11.0698 9.45122Z" fill="#141414"/>
<path d="M8.27907 15.0122H2.69767C2.31628 15.0122 2 14.6971 2 14.3171C2 13.9371 2.31628 13.622 2.69767 13.622H8.27907C8.66047 13.622 8.97674 13.9371 8.97674 14.3171C8.97674 14.6971 8.66047 15.0122 8.27907 15.0122Z" fill="#141414"/>
<path d="M6.4186 20.5732H2.69767C2.31628 20.5732 2 20.258 2 19.878C2 19.498 2.31628 19.1829 2.69767 19.1829H6.4186C6.8 19.1829 7.11628 19.498 7.11628 19.878C7.11628 20.258 6.8 20.5732 6.4186 20.5732Z" fill="#141414"/>
<path d="M21.1721 7.53268C20.6233 7.11561 19.8698 7.0322 18.986 7.27317L14.9395 8.36683C13.8512 8.66341 13.1814 9.5439 13.1814 10.6561V16.4302C12.7907 16.2078 12.3349 16.0688 11.8512 16.0688C10.3535 16.0688 9.12558 17.2829 9.12558 18.7844C9.12558 20.2766 10.3442 21.5 11.8512 21.5C13.3581 21.5 14.5767 20.2859 14.5767 18.7844V13.5478L20.6047 11.9073V15.0863C20.214 14.8639 19.7581 14.7249 19.2744 14.7249C17.7767 14.7249 16.5488 15.939 16.5488 17.4405C16.5488 18.9327 17.7674 20.1561 19.2744 20.1561C20.7814 20.1561 22 18.942 22 17.4405V9.56244C22 8.62634 21.7209 7.94049 21.1721 7.53268ZM11.8512 20.1098C11.1163 20.1098 10.5209 19.5166 10.5209 18.7844C10.5209 18.0522 11.1163 17.459 11.8512 17.459C12.586 17.459 13.1814 18.0522 13.1814 18.7844C13.1814 19.5166 12.586 20.1098 11.8512 20.1098ZM19.2744 18.7659C18.5395 18.7659 17.9442 18.1727 17.9442 17.4405C17.9442 16.7083 18.5395 16.1151 19.2744 16.1151C20.0093 16.1151 20.6047 16.7083 20.6047 17.4405C20.6047 18.1727 20.0093 18.7659 19.2744 18.7659Z" fill="#141414"/>
</svg>
