<svg width="24" height="24" viewBox="0 0 24 24" fill="none" xmlns="http://www.w3.org/2000/svg">
<path d="M21 5.17883V16.4796C21 18.4598 19.3701 20.0699 17.3656 20.0699C15.3712 20.0699 13.7312 18.4598 13.7312 16.4796C13.7312 14.5095 15.3712 12.8994 17.3656 12.8994C18.216 12.8994 18.9753 13.1894 19.5928 13.6694V7.719L10.2688 10.3392V18.4097C10.2688 20.3899 8.6288 22 6.63442 22C4.62992 22 3 20.3899 3 18.4097C3 16.4396 4.62992 14.8295 6.63442 14.8295C7.47469 14.8295 8.23397 15.1195 8.85152 15.5896V6.74894C8.85152 5.27883 9.75253 4.13875 11.18 3.75873L17.0315 2.17862C18.216 1.85859 19.2182 1.9686 19.9269 2.50864C20.6457 3.03868 21 3.93874 21 5.17883Z" fill="#141414"/>
</svg>
