<svg width="24" height="24" viewBox="0 0 24 24" fill="none" xmlns="http://www.w3.org/2000/svg">
<path d="M18.2 5.85542H6.8C6.4105 5.85542 6.0875 5.52771 6.0875 5.13253C6.0875 4.73735 6.4105 4.40964 6.8 4.40964H18.2C18.5895 4.40964 18.9125 4.73735 18.9125 5.13253C18.9125 5.52771 18.5895 5.85542 18.2 5.85542Z" fill="#141414"/>
<path d="M15.35 3.44578H9.65C9.2605 3.44578 8.9375 3.11807 8.9375 2.72289C8.9375 2.32771 9.2605 2 9.65 2H15.35C15.7395 2 16.0625 2.32771 16.0625 2.72289C16.0625 3.11807 15.7395 3.44578 15.35 3.44578Z" fill="#141414"/>
<path d="M14.3145 16.4193C13.9915 16.4193 13.7255 16.6892 13.7255 17.0169C13.7255 17.3446 13.9915 17.6145 14.3145 17.6145C14.6375 17.6145 14.9035 17.3446 14.9035 17.0169C14.9035 16.6892 14.6375 16.4193 14.3145 16.4193Z" fill="#141414"/>
<path d="M10.1345 17.894C10.1345 17.5663 9.8685 17.306 9.5455 17.306C9.2225 17.306 8.9565 17.5759 8.9565 17.9036C8.9565 18.2313 9.2225 18.5012 9.5455 18.5012C9.8685 18.4916 10.1345 18.2217 10.1345 17.894Z" fill="#141414"/>
<path d="M18.2 7.54217H6.8C4.71 7.54217 3 9.27711 3 11.3976V18.1446C3 20.2651 4.71 22 6.8 22H18.2C20.29 22 22 20.2651 22 18.1446V11.3976C22 9.27711 20.29 7.54217 18.2 7.54217ZM16.3285 17.0169C16.3285 17.0361 16.319 17.0458 16.319 17.0651C16.2905 18.1639 15.407 19.0602 14.3145 19.0602C13.203 19.0602 12.3005 18.1446 12.3005 17.0169C12.3005 15.8892 13.203 14.9735 14.3145 14.9735C14.5235 14.9735 14.7135 15.012 14.9035 15.0699V13.7494L11.5595 14.6747V17.894C11.5595 19.0217 10.657 19.9374 9.5455 19.9374C8.434 19.9374 7.5315 19.0217 7.5315 17.894C7.5315 16.7663 8.434 15.8506 9.5455 15.8506C9.7545 15.8506 9.9445 15.8892 10.1345 15.947V12.5735C10.1345 11.7157 10.657 11.0217 11.4645 10.8096L14.058 10.0867C14.894 9.86506 15.407 10.0867 15.7015 10.3181C15.9865 10.5398 16.3285 10.9928 16.3285 11.8506V17.0169Z" fill="#141414"/>
</svg>
