<svg width="24" height="24" viewBox="0 0 24 24" fill="none" xmlns="http://www.w3.org/2000/svg">
<path d="M17 4.92683H16V3.47317C16 2.66341 15.32 2 14.49 2H9.51C8.68 2 8 2.66341 8 3.47317V4.92683H7C5.9 4.92683 5 5.80488 5 6.87805V7.00488C5.32 6.91707 5.65 6.87805 6 6.87805H18C18.35 6.87805 18.68 6.91707 19 7.00488V6.87805C19 5.80488 18.1 4.92683 17 4.92683Z" fill="#141414"/>
<path d="M13.93 16.8098C13.61 16.8098 13.36 17.0634 13.36 17.3659C13.36 17.6683 13.62 17.922 13.93 17.922C14.24 17.922 14.5 17.6683 14.5 17.3659C14.5 17.0634 14.24 16.8098 13.93 16.8098Z" fill="#141414"/>
<path d="M9.07 17.6683C8.75 17.6683 8.5 17.922 8.5 18.2244C8.5 18.5268 8.76 18.7805 9.07 18.7805C9.38 18.7805 9.64 18.5268 9.64 18.2244C9.64 17.922 9.39 17.6683 9.07 17.6683Z" fill="#141414"/>
<path d="M19 8.46829C18.68 8.38049 18.35 8.34146 18 8.34146H6C5.65 8.34146 5.32 8.38049 5 8.46829C3.28 8.90732 2 10.439 2 12.2439V18.0976C2 20.2439 3.8 22 6 22H18C20.2 22 22 20.2439 22 18.0976V12.2439C22 10.439 20.72 8.90732 19 8.46829ZM16 17.3659C16 18.478 15.07 19.3854 13.93 19.3854C12.79 19.3854 11.86 18.478 11.86 17.3659C11.86 16.2537 12.79 15.3463 13.93 15.3463C14.13 15.3463 14.32 15.3854 14.5 15.4341V14.2049L11.15 15.0927V18.2244C11.15 18.2341 11.15 18.2439 11.14 18.2537C11.13 19.3561 10.2 20.2537 9.07 20.2537C7.93 20.2537 7 19.3463 7 18.2244C7 17.1024 7.93 16.2049 9.07 16.2049C9.27 16.2049 9.46 16.2439 9.65 16.2927V13.0244C9.65 12.1854 10.19 11.5024 11.01 11.2878L13.66 10.5756C14.51 10.3512 15.05 10.5659 15.35 10.7902C15.65 11.0146 16 11.4537 16 12.322V17.3659Z" fill="#141414"/>
</svg>
