<svg width="24" height="24" viewBox="0 0 24 24" fill="none" xmlns="http://www.w3.org/2000/svg">
<path d="M20.5795 11.5962L19.9924 11.3967L18.411 10.8741C17.8617 10.6936 17.303 10.7601 16.8769 11.0641C16.4602 11.3777 16.214 11.8812 16.214 12.4703V17.0214C15.8352 16.8124 15.4091 16.6793 14.9451 16.6793C13.4867 16.6793 12.303 17.8765 12.303 19.3397C12.303 19.5867 12.3409 19.8242 12.3977 20.0523C12.7102 21.1829 13.733 22 14.9451 22C16.3939 22 17.5682 20.8409 17.5966 19.3967V15.0166C17.6155 15.0166 17.625 15.0261 17.6439 15.0356L19.803 15.7577C19.8409 15.7672 19.8883 15.7862 19.9261 15.7862C20.0966 15.8337 20.2481 15.8527 20.4091 15.8527C20.75 15.8527 21.072 15.7577 21.3371 15.5582C21.7633 15.2542 22 14.7506 22 14.1615V13.5914C22 12.7268 21.3939 11.8717 20.5795 11.5962ZM14.9451 20.6128C14.5095 20.6128 14.1307 20.3943 13.9034 20.0523C13.7614 19.8527 13.6856 19.6057 13.6856 19.3397C13.6856 18.6461 14.2538 18.076 14.9451 18.076C15.6458 18.076 16.214 18.6461 16.214 19.3397C16.214 19.5582 16.1572 19.7577 16.0625 19.9287C15.8542 20.3373 15.428 20.6128 14.9451 20.6128Z" fill="#141414"/>
<path d="M22 13.5914V14.1615C22 14.7506 21.7633 15.2542 21.3371 15.5582C21.072 15.7577 20.75 15.8527 20.4091 15.8527C20.2481 15.8527 20.0966 15.8337 19.9261 15.7862C19.8883 15.7862 19.8409 15.7672 19.803 15.7577L17.6439 15.0356C17.625 15.0261 17.6155 15.0166 17.5966 15.0166V19.3967C17.5682 20.8409 16.3939 22 14.9451 22C13.733 22 12.7102 21.1829 12.3977 20.0523C12.3409 19.8242 12.303 19.5867 12.303 19.3397C12.303 17.8765 13.4867 16.6793 14.9451 16.6793C15.4091 16.6793 15.8352 16.8124 16.214 17.0214V12.4703C16.214 11.8812 16.4602 11.3777 16.8769 11.0641C17.303 10.7601 17.8617 10.6936 18.411 10.8741L19.9924 11.3967L20.5795 11.5962C21.3939 11.8717 22 12.7268 22 13.5914Z" fill="#141414"/>
<path d="M19.9924 7.24466V9.2399C19.9924 9.56295 19.6799 9.79097 19.3674 9.68646L18.8561 9.51544C17.8617 9.2019 16.8485 9.33492 16.0246 9.92399C15.2386 10.5131 14.7936 11.4442 14.7936 12.4703V14.7981C14.7936 15.0546 14.5947 15.2637 14.339 15.3017C12.3883 15.5962 10.8826 17.2969 10.8826 19.3397C10.8826 19.3872 10.8826 19.4347 10.8826 19.4822C10.892 19.7767 10.6742 20.0523 10.3712 20.0523H7.22727C3.96023 20.0523 2 18.095 2 14.8076V7.24466C2 3.95724 3.96023 2 7.22727 2H14.7652C18.0322 2 19.9924 3.95724 19.9924 7.24466Z" fill="#141414"/>
</svg>
