<svg width="24" height="24" viewBox="0 0 24 24" fill="none" xmlns="http://www.w3.org/2000/svg">
<path d="M17.3361 5.58554L7.25534 15.812C6.56176 14.8578 6.18171 13.6916 6.18171 12.4289V7.88916C6.18171 6.11566 6.96081 4.5253 8.19596 3.44578V7.43614C8.19596 7.81205 8.5 8.12048 8.86104 8.12048C9.23159 8.12048 9.53563 7.81205 9.53563 7.43614V2.5494C9.97268 2.32771 10.4382 2.17349 10.9228 2.08675V5.61446C10.9228 6 11.2268 6.2988 11.5974 6.2988C11.9679 6.2988 12.272 6 12.272 5.61446V2C14.5428 2.10602 16.5 3.55181 17.3361 5.58554Z" fill="#141414"/>
<path d="M17.8112 8.63133V12.4289C17.8112 15.6771 15.1983 18.3277 11.9964 18.3277C11.8254 18.3277 11.6544 18.3181 11.4834 18.2988C11.4074 18.2988 11.3314 18.2892 11.2648 18.2795C11.1413 18.2602 11.0178 18.241 10.9038 18.2217C10.8563 18.2217 10.8183 18.2024 10.7613 18.1928C10.6283 18.1639 10.4952 18.1253 10.3717 18.0867C10.1627 18.0289 9.96318 17.9518 9.77316 17.8747C9.64964 17.8265 9.53563 17.7783 9.42161 17.7108C9.39311 17.7012 9.37411 17.6819 9.34561 17.6723C9.25059 17.6241 9.15558 17.5759 9.06057 17.5084L17.8112 8.63133Z" fill="#141414"/>
<path d="M21.2601 10.6747V12.6024C21.2601 17.788 17.1081 22 11.9964 22C9.98218 22 8.05344 21.3446 6.46675 20.1398L7.49287 19.0988C8.80404 20.0434 10.3622 20.5542 11.9964 20.5542C16.3195 20.5542 19.8349 16.988 19.8349 12.6024V10.6747C19.8349 10.2795 20.158 9.95181 20.5475 9.95181C20.9371 9.95181 21.2601 10.2795 21.2601 10.6747Z" fill="#141414"/>
<path d="M21.2791 2.22169C20.9941 1.93253 20.5285 1.93253 20.2435 2.22169L2.71378 20.0145C2.42874 20.3036 2.42874 20.7759 2.71378 21.0651C2.85629 21.2 3.03682 21.2771 3.22684 21.2771C3.41686 21.2771 3.59739 21.2 3.7399 21.0554L21.2791 3.26265C21.5736 2.97349 21.5736 2.51084 21.2791 2.22169Z" fill="#141414"/>
</svg>
