<svg width="24" height="24" viewBox="0 0 24 24" fill="none" xmlns="http://www.w3.org/2000/svg">
<path d="M21.7977 13.3231L20.4487 11.9728L21.7511 10.669C22.0209 10.399 22.0209 9.952 21.7511 9.68194C21.4813 9.41188 21.0348 9.41188 20.765 9.68194L19.4625 10.9857L18.1135 9.63538C17.8437 9.36532 17.3971 9.36532 17.1273 9.63538C16.8575 9.90543 16.8575 10.3524 17.1273 10.6225L18.4763 11.9728L17.0901 13.3603C16.8203 13.6304 16.8203 14.0774 17.0901 14.3474C17.2297 14.4871 17.4064 14.5523 17.5832 14.5523C17.76 14.5523 17.9367 14.4871 18.0763 14.3474L19.4625 12.9599L20.8115 14.3102C20.951 14.4499 21.1278 14.515 21.3046 14.515C21.4813 14.515 21.6581 14.4499 21.7977 14.3102C22.0675 14.0401 22.0675 13.6024 21.7977 13.3231Z" fill="#141414"/>
<path d="M13.8805 4.34597C12.8385 3.76861 11.5081 3.91761 10.1498 4.76503L7.43319 6.46918C7.24712 6.58093 7.03314 6.64612 6.81917 6.64612H5.48878C3.23735 6.64612 2 7.88466 2 10.1382V13.8632C2 16.1168 3.23735 17.3553 5.48878 17.3553H6.81917C7.03314 17.3553 7.24712 17.4205 7.43319 17.5322L10.1498 19.2364C10.9685 19.7486 11.7686 20 12.5129 20C12.9966 20 13.4618 19.8883 13.8805 19.6554C14.9131 19.0781 15.4899 17.8768 15.4899 16.2751V7.72635C15.4899 6.12463 14.9131 4.92334 13.8805 4.34597Z" fill="#141414"/>
</svg>
