<svg width="24" height="24" viewBox="0 0 24 24" fill="none" xmlns="http://www.w3.org/2000/svg">
<path d="M12.0098 22C7.04703 22 3 17.8856 3 12.8179V10.9313C3 10.5399 3.3151 10.2288 3.68928 10.2288C4.06345 10.2288 4.37855 10.5499 4.37855 10.9313V12.8179C4.37855 17.1029 7.79539 20.585 12 20.585C16.2045 20.585 19.6214 17.1029 19.6214 12.8179V10.9313C19.6214 10.5399 19.9365 10.2288 20.3107 10.2288C20.6848 10.2288 20.9999 10.5499 20.9999 10.9313V12.8179C21.0196 17.8856 16.9726 22 12.0098 22Z" fill="#141414"/>
<path d="M12.0098 2C8.70129 2 6.00327 4.74962 6.00327 8.12143V12.8279C6.00327 16.1997 8.70129 18.9493 12.0098 18.9493C15.3183 18.9493 18.0164 16.1997 18.0164 12.8279V8.12143C18.0164 4.74962 15.3183 2 12.0098 2ZM14.1564 10.6202C14.0875 10.8911 13.8413 11.0718 13.5755 11.0718C13.5262 11.0718 13.4671 11.0617 13.4179 11.0517C12.4135 10.7707 11.3501 10.7707 10.3457 11.0517C10.0208 11.142 9.69582 10.9513 9.6072 10.6202C9.51857 10.299 9.70566 9.95785 10.0306 9.86754C11.2418 9.52634 12.5218 9.52634 13.733 9.86754C14.0579 9.95785 14.245 10.289 14.1564 10.6202ZM14.9934 7.84044C14.9048 8.09132 14.6783 8.24185 14.4321 8.24185C14.3632 8.24185 14.2943 8.23181 14.2253 8.20171C12.7188 7.63974 11.0645 7.63974 9.55796 8.20171C9.24286 8.32213 8.89823 8.16157 8.78007 7.84044C8.67175 7.52935 8.8293 7.17812 9.1444 7.0577C10.9168 6.40542 12.8665 6.40542 14.6291 7.0577C14.9442 7.17812 15.1017 7.52935 14.9934 7.84044Z" fill="#141414"/>
</svg>
