<svg width="24" height="24" viewBox="0 0 24 24" fill="none" xmlns="http://www.w3.org/2000/svg">
<path d="M14.5463 13.67C14.1861 13.67 13.8959 13.96 13.8959 14.32C13.8959 14.68 14.1861 14.97 14.5463 14.97C14.9064 14.97 15.1966 14.68 15.1966 14.32C15.1866 13.96 14.8964 13.67 14.5463 13.67Z" fill="#141414"/>
<path d="M9.06352 14.66C8.70334 14.66 8.4132 14.95 8.4132 15.31C8.4132 15.67 8.70334 15.96 9.06352 15.96C9.4237 15.96 9.71384 15.67 9.71384 15.31C9.71384 14.95 9.4237 14.66 9.06352 14.66Z" fill="#141414"/>
<path d="M16.1971 2H7.8129C4.17108 2 2 4.17 2 7.81V16.18C2 19.83 4.17108 22 7.8129 22H16.1871C19.8289 22 22 19.83 22 16.19V7.81C22.01 4.17 19.8389 2 16.1971 2ZM16.8874 14.31C16.8874 15.6 15.8369 16.65 14.5463 16.65C13.2556 16.65 12.2051 15.6 12.2051 14.31C12.2051 13.02 13.2556 11.97 14.5463 11.97C14.7764 11.97 14.9865 12.01 15.1966 12.07V10.65L11.4147 11.68V15.3C11.4147 15.31 11.4047 15.32 11.4047 15.33C11.3947 16.61 10.3442 17.64 9.06352 17.64C7.77288 17.64 6.72235 16.59 6.72235 15.3C6.72235 14.01 7.77288 12.96 9.06352 12.96C9.29363 12.96 9.50374 13 9.71384 13.06V9.29C9.71384 8.32 10.3141 7.53 11.2546 7.28L14.2461 6.46C15.2066 6.2 15.8069 6.45 16.147 6.71C16.4772 6.97 16.8874 7.48 16.8874 8.48V14.31Z" fill="#141414"/>
</svg>
