<svg width="24" height="24" viewBox="0 0 24 24" fill="none" xmlns="http://www.w3.org/2000/svg">
<path d="M19.819 16.781C19.4667 17.9429 18.7714 18.8381 17.781 19.3905C17.7429 19.2381 17.7238 19.0762 17.7238 18.9143C17.7238 17.7524 18.6667 16.8 19.819 16.781Z" fill="#141414"/>
<path d="M20.0952 7.25714V9.12759C20.0952 9.62524 19.7009 10.028 19.219 10.1524L16.4095 10.9333C14.9238 11.3143 13.9333 12.6 13.9333 14.1333V15.6047C13.9333 16.0566 13.607 16.4339 13.2011 16.6327C12.234 17.1066 11.4951 18.068 11.2162 19.153C11.0853 19.6625 10.6688 20.0952 10.1429 20.0952H7.25714C3.97143 20.0952 2 18.1333 2 14.8381V7.25714C2 3.9619 3.97143 2 7.25714 2H14.8381C18.1238 2 20.0952 3.9619 20.0952 7.25714Z" fill="#141414"/>
<path d="M21.3429 11.7619C21.0952 11.581 20.6952 11.3905 20.0952 11.4476C19.9429 11.4571 19.781 11.4857 19.6 11.5333L16.7619 12.3143C15.9143 12.5333 15.3619 13.2476 15.3619 14.1333V17.8571C15.1429 17.781 14.9048 17.7333 14.6571 17.7333C13.4762 17.7333 12.5143 18.6857 12.5143 19.8667C12.5143 19.9429 12.5143 20.019 12.5238 20.0952C12.6381 21.1619 13.5524 22 14.6571 22C15.819 22 16.7619 21.0571 16.781 19.9048C16.781 19.8857 16.7905 19.8762 16.7905 19.8667V16.3524L20.0762 15.4476L20.5714 15.3143V16.9143C20.3524 16.8381 20.1143 16.781 19.8571 16.781H19.819C18.6667 16.8 17.7238 17.7524 17.7238 18.9143C17.7238 19.0762 17.7429 19.2381 17.781 19.3905C18 20.3429 18.8476 21.0571 19.8571 21.0571C21.0286 21.0571 21.9714 20.1143 21.9905 18.9524C21.9905 18.9429 22 18.9333 22 18.9143V13.3619C22 12.6381 21.781 12.1048 21.3429 11.7619ZM14.6571 20.5714C14.3429 20.5714 14.0762 20.3714 13.9905 20.0952C13.9524 20.0286 13.9429 19.9429 13.9429 19.8667C13.9429 19.4762 14.2667 19.1619 14.6571 19.1619C15.0381 19.1619 15.3619 19.4762 15.3619 19.8667C15.3619 19.9429 15.3524 20.0095 15.3238 20.0762C15.2381 20.3619 14.9714 20.5714 14.6571 20.5714ZM19.8571 19.6286C19.4762 19.6286 19.1524 19.3048 19.1524 18.9143C19.1524 18.5333 19.4762 18.2095 19.8571 18.2095C20.2476 18.2095 20.5714 18.5333 20.5714 18.9143C20.5714 19.3048 20.2476 19.6286 19.8571 19.6286Z" fill="#141414"/>
</svg>
