<svg width="24" height="24" viewBox="0 0 24 24" fill="none" xmlns="http://www.w3.org/2000/svg">
<path d="M16.4195 6.41623V7.57652L9.1422 14.8583C8.18256 13.9881 7.58278 12.7078 7.58278 11.3375V6.41623C7.58278 4.35571 8.98226 2.64528 10.8815 2.15516C11.0715 2.10515 11.2514 2.26519 11.2514 2.45524V3.99562C11.2514 4.40572 11.5913 4.74581 12.0011 4.74581C12.411 4.74581 12.7508 4.40572 12.7508 3.99562V2.45524C12.7508 2.26519 12.9308 2.10515 13.1207 2.15516C15.02 2.64528 16.4195 4.35571 16.4195 6.41623Z" fill="#141414"/>
<path d="M19.8082 9.80707V11.3975C19.8082 15.4685 16.6794 18.8193 12.7009 19.1694V21.2999C12.7009 21.69 12.391 22.0001 12.0011 22.0001C11.6113 22.0001 11.3014 21.69 11.3014 21.2999V19.1694C10.2118 19.0694 9.18219 18.7493 8.26253 18.2392L9.29214 17.2089C10.1118 17.589 11.0315 17.8091 12.0011 17.8091C15.5398 17.8091 18.4187 14.9284 18.4187 11.3975V9.80707C18.4187 9.42698 18.7286 9.1169 19.1185 9.1169C19.4983 9.1169 19.8082 9.42698 19.8082 9.80707Z" fill="#141414"/>
<path d="M16.4195 10.0771V11.5275C16.4195 14.1081 14.2003 16.1787 11.5613 15.9286C11.2814 15.8986 11.0015 15.8486 10.7416 15.7586L16.4195 10.0771Z" fill="#141414"/>
<path d="M21.7675 2.22518C21.4676 1.9251 20.9778 1.9251 20.6779 2.22518L7.23292 15.6785C6.2033 14.5483 5.58353 13.0479 5.58353 11.3975V9.80707C5.58353 9.42698 5.27365 9.1169 4.8838 9.1169C4.50394 9.1169 4.19406 9.42698 4.19406 9.80707V11.3975C4.19406 13.428 4.97376 15.2784 6.24329 16.6688L2.22479 20.6898C1.92491 20.9899 1.92491 21.48 2.22479 21.7801C2.38473 21.9201 2.57466 22.0001 2.77459 22.0001C2.97451 22.0001 3.16444 21.9201 3.31438 21.7701L21.7675 3.30545C22.0773 3.00537 22.0773 2.52525 21.7675 2.22518Z" fill="#141414"/>
</svg>
