<svg width="24" height="24" viewBox="0 0 24 24" fill="none" xmlns="http://www.w3.org/2000/svg">
<path d="M3.23663 9.6C3.16225 9.6 3.07857 9.5907 3.00418 9.56279C2.64156 9.43256 2.4556 9.03256 2.57648 8.66977C3.19944 6.92093 4.27801 5.38605 5.7192 4.22326C6.01674 3.9814 6.45374 4.02791 6.69549 4.32558C6.93724 4.62326 6.89075 5.06047 6.59321 5.31163C5.36588 6.30698 4.42678 7.62791 3.89679 9.13488C3.79451 9.42326 3.52487 9.6 3.23663 9.6Z" fill="#141414"/>
<path d="M3.23663 15.7953C2.9484 15.7953 2.67875 15.6186 2.57648 15.3302C2.19526 14.2512 2 13.1256 2 12C2 11.6186 2.31613 11.3023 2.69735 11.3023C3.07857 11.3023 3.3947 11.6186 3.3947 12C3.3947 12.9674 3.56206 13.9349 3.89679 14.8651C4.02696 15.2279 3.83171 15.6279 3.46908 15.7581C3.3947 15.786 3.31102 15.7953 3.23663 15.7953Z" fill="#141414"/>
<path d="M11.9954 22C11.0098 22 10.0335 21.8512 9.08508 21.5628C8.71316 21.4512 8.5086 21.0605 8.62018 20.6884C8.73175 20.3163 9.12227 20.1116 9.49419 20.2233C10.3031 20.4744 11.1492 20.5953 11.9954 20.5953C16.7373 20.5953 20.596 16.7349 20.596 11.9907C20.596 11.507 20.5495 11.0047 20.4565 10.4744C20.3914 10.093 20.6425 9.73023 21.0237 9.66512C21.3956 9.6 21.7675 9.85116 21.8326 10.2326C21.9442 10.8465 22 11.4233 22 12C21.9907 17.5163 17.5091 22 11.9954 22Z" fill="#141414"/>
<path d="M6.15621 19.907C5.99814 19.907 5.84937 19.8605 5.7192 19.7488C5.18921 19.3209 4.76151 18.9116 4.39888 18.493C4.14784 18.2047 4.18503 17.7581 4.47327 17.507C4.7708 17.2558 5.20781 17.293 5.45886 17.5814C5.76569 17.9349 6.13761 18.2884 6.59321 18.6605C6.89075 18.9023 6.93724 19.3395 6.69549 19.6372C6.56532 19.814 6.36076 19.907 6.15621 19.907Z" fill="#141414"/>
<path d="M19.6569 7.43256C19.4338 7.43256 19.2199 7.33023 19.0804 7.12558C17.4812 4.7907 14.8219 3.39535 11.9954 3.39535C11.1492 3.39535 10.3031 3.51628 9.49419 3.76744C9.13157 3.87907 8.74105 3.67442 8.62018 3.30233C8.4993 2.93023 8.71316 2.53953 9.08508 2.42791C10.0335 2.14884 11.0098 2 11.9954 2C15.2868 2 18.3645 3.62791 20.2334 6.34419C20.4472 6.66047 20.3729 7.09767 20.0567 7.31163C19.9358 7.39535 19.7964 7.43256 19.6569 7.43256Z" fill="#141414"/>
<path d="M15.7424 6.88372C15.4356 6.65116 14.8777 6.4186 13.9851 6.66047L11.0191 7.46046C10.1636 7.70233 9.60576 8.42791 9.60576 9.32093V13.2465C9.36402 13.1535 9.10367 13.0977 8.82473 13.0977C7.62529 13.0977 6.649 14.0744 6.649 15.2744C6.649 16.4744 7.62529 17.4512 8.82473 17.4512C10.0149 17.4512 10.9726 16.493 10.9912 15.3116C10.9912 15.3023 11.0005 15.293 11.0005 15.2744V11.3767L15.0172 10.2791V12.2605C14.7755 12.1674 14.5151 12.1116 14.2362 12.1116C13.0367 12.1116 12.0604 13.0884 12.0604 14.2884C12.0604 15.4884 13.0367 16.4651 14.2362 16.4651C15.4356 16.4651 16.4119 15.4884 16.4119 14.2884V8.51163C16.4119 7.76744 16.1888 7.21861 15.7424 6.88372ZM8.82473 16.0558C8.39702 16.0558 8.0437 15.7023 8.0437 15.2744C8.0437 14.8465 8.39702 14.493 8.82473 14.493C9.25244 14.493 9.60576 14.8465 9.60576 15.2744C9.60576 15.7023 9.25244 16.0558 8.82473 16.0558ZM14.2362 15.0698C13.8085 15.0698 13.4551 14.7163 13.4551 14.2884C13.4551 13.8605 13.8085 13.507 14.2362 13.507C14.6639 13.507 15.0172 13.8605 15.0172 14.2884C15.0172 14.7163 14.6639 15.0698 14.2362 15.0698Z" fill="#141414"/>
</svg>
