<svg width="24" height="24" viewBox="0 0 24 24" fill="none" xmlns="http://www.w3.org/2000/svg">
<path d="M21.0228 3.35814C20.9483 3.1907 20.818 3.05116 20.6412 2.97674C20.5575 2.94884 20.4737 2.93023 20.3806 2.93023H16.658C16.2764 2.93023 15.96 3.24651 15.96 3.62791C15.96 4.0093 16.2764 4.32558 16.658 4.32558H18.6961L14.3034 8.71628C14.0335 8.98605 14.0335 9.43256 14.3034 9.70233C14.443 9.84186 14.6198 9.90698 14.7966 9.90698C14.9735 9.90698 15.1503 9.84186 15.2899 9.70233L19.6826 5.31163V7.34884C19.6826 7.73023 19.9991 8.04651 20.3806 8.04651C20.7622 8.04651 21.0786 7.73023 21.0786 7.34884V3.62791C21.0786 3.53488 21.06 3.45116 21.0228 3.35814Z" fill="#141414"/>
<path d="M8.7194 14.2977L4.32666 18.6884V16.6512C4.32666 16.2698 4.01024 15.9535 3.62866 15.9535C3.24709 15.9535 2.93066 16.2698 2.93066 16.6512V20.3721C2.93066 20.4651 2.94928 20.5488 2.9865 20.6419C3.06096 20.8093 3.19125 20.9488 3.36808 21.0233C3.44253 21.0512 3.5356 21.0698 3.62866 21.0698H7.35132C7.73289 21.0698 8.04932 20.7535 8.04932 20.3721C8.04932 19.9907 7.73289 19.6744 7.35132 19.6744H5.31317L9.7059 15.2837C9.9758 15.014 9.9758 14.5674 9.7059 14.2977C9.43601 14.0279 8.98929 14.0279 8.7194 14.2977Z" fill="#141414"/>
<path d="M2.88413 14.5581C2.5584 14.5581 2.26989 14.3256 2.20475 14C2.07445 13.3488 2 12.6698 2 12C2 6.48372 6.4858 2 12.0046 2C12.684 2 13.3634 2.06512 14.0242 2.20465C14.4058 2.27907 14.6477 2.65116 14.5733 3.02326C14.4988 3.40465 14.1173 3.63721 13.7543 3.57209C13.168 3.45116 12.591 3.39535 12.0046 3.39535C7.25826 3.39535 3.396 7.25581 3.396 12C3.396 12.5767 3.45184 13.1628 3.57282 13.7209C3.64728 14.1023 3.4053 14.4651 3.02373 14.5395C2.9772 14.5581 2.93066 14.5581 2.88413 14.5581Z" fill="#141414"/>
<path d="M12.0046 22C11.3253 22 10.6459 21.9349 9.9851 21.7953C9.60353 21.7209 9.36156 21.3488 9.43601 20.9767C9.51046 20.5953 9.89204 20.3628 10.255 20.4279C10.8227 20.5395 11.409 20.6047 11.9953 20.6047C16.7417 20.6047 20.604 16.7442 20.604 12C20.604 11.4233 20.5481 10.8465 20.4365 10.2791C20.362 9.89767 20.604 9.53488 20.9856 9.46047C21.3671 9.38605 21.7301 9.62791 21.8045 10.0093C21.9348 10.6605 22 11.3302 22 12C22.0093 17.5163 17.5235 22 12.0046 22Z" fill="#141414"/>
</svg>
