<svg width="24" height="24" viewBox="0 0 24 24" fill="none" xmlns="http://www.w3.org/2000/svg">
<path d="M19.3287 9.764C18.9547 9.764 18.6574 10.0585 18.6574 10.429V11.93C18.6574 15.293 15.8952 18.029 12.5001 18.029C9.10493 18.029 6.34278 15.293 6.34278 11.93V10.4195C6.34278 10.049 6.04547 9.7545 5.67142 9.7545C5.29738 9.7545 5.00007 10.049 5.00007 10.4195V11.9205C5.00007 15.787 8.00199 18.9695 11.8287 19.3115V21.335C11.8287 21.7055 12.126 22 12.5001 22C12.8741 22 13.1714 21.7055 13.1714 21.335V19.3115C16.9886 18.979 20.0001 15.787 20.0001 11.9205V10.4195C19.9905 10.0585 19.6932 9.764 19.3287 9.764Z" fill="#141414"/>
<path d="M12.5001 3C10.1599 3 8.26094 4.881 8.26094 7.199V12.063C8.26094 14.381 10.1599 16.262 12.5001 16.262C14.8402 16.262 16.7392 14.381 16.7392 12.063V7.199C16.7392 4.881 14.8402 3 12.5001 3ZM13.7565 9.6025C13.6893 9.8495 13.4687 10.011 13.2194 10.011C13.1714 10.011 13.1235 10.0015 13.0755 9.992C12.7015 9.8875 12.3083 9.8875 11.9342 9.992C11.6273 10.0775 11.33 9.897 11.2533 9.6025C11.1669 9.308 11.3492 9.004 11.6465 8.928C12.2123 8.776 12.807 8.776 13.3728 8.928C13.6606 9.004 13.8332 9.308 13.7565 9.6025ZM14.2648 7.7595C14.1785 7.9875 13.9675 8.1205 13.7373 8.1205C13.6701 8.1205 13.6126 8.111 13.5455 8.092C12.8741 7.845 12.126 7.845 11.4547 8.092C11.1669 8.1965 10.8409 8.0445 10.7354 7.7595C10.6299 7.4745 10.7833 7.1515 11.071 7.0565C11.9918 6.724 13.0084 6.724 13.9291 7.0565C14.2168 7.161 14.3703 7.4745 14.2648 7.7595Z" fill="#141414"/>
</svg>
