<svg width="24" height="24" viewBox="0 0 24 24" fill="none" xmlns="http://www.w3.org/2000/svg">
<path d="M20.5 6.69767V7.78472C20.5 8.69524 20.1416 9.47569 19.5076 9.93095C19.1124 10.2283 18.6254 10.3676 18.12 10.3676C17.8076 10.3676 17.4951 10.3212 17.1735 10.2097L12.2297 8.54659V17.5868C12.2297 20.021 10.2724 22 7.86486 22C5.4573 22 3.5 20.021 3.5 17.5868C3.5 15.1525 5.4573 13.1735 7.86486 13.1735C9.0227 13.1735 10.0703 13.6381 10.8514 14.3814V4.57931C10.8514 3.67808 11.2189 2.89764 11.853 2.43309C12.487 1.97783 13.3324 1.87562 14.1778 2.15436L18.2395 3.52943C19.4892 3.94752 20.5 5.36905 20.5 6.69767Z" fill="#141414"/>
</svg>
