<svg width="24" height="24" viewBox="0 0 24 24" fill="none" xmlns="http://www.w3.org/2000/svg">
<path d="M12 2C6.48 2 2 6.48 2 12C2 17.52 6.48 22 12 22C17.52 22 22 17.52 22 12C22 6.48 17.53 2 12 2ZM10.75 15.03C10.75 15.51 10.55 15.7 10.04 15.7H8.74C8.23 15.7 8.03 15.51 8.03 15.03V8.97C8.03 8.49 8.23 8.3 8.74 8.3H10.03C10.54 8.3 10.74 8.49 10.74 8.97V15.03H10.75ZM16.03 15.03C16.03 15.51 15.83 15.7 15.32 15.7H14.03C13.52 15.7 13.32 15.51 13.32 15.03V8.97C13.32 8.49 13.52 8.3 14.03 8.3H15.32C15.83 8.3 16.03 8.49 16.03 8.97V15.03Z" fill="#141414"/>
</svg>
