<svg width="24" height="24" viewBox="0 0 24 24" fill="none" xmlns="http://www.w3.org/2000/svg">
<path d="M21.28 15.7199C20.63 15.2699 19.84 14.9999 19 14.9999C18.06 14.9999 17.19 15.3299 16.5 15.8799C15.58 16.6099 15 17.7399 15 18.9999C15 19.7499 15.21 20.4599 15.58 21.0599C15.62 21.1299 15.67 21.1999 15.73 21.2699C16.43 22.3099 17.63 22.9999 19 22.9999C20.01 22.9999 20.93 22.6299 21.63 21.9999C21.94 21.7399 22.21 21.4199 22.42 21.0599C22.79 20.4599 23 19.7499 23 18.9999C23 17.6399 22.32 16.4399 21.28 15.7199ZM20.6 20.5799C20.45 20.7299 20.26 20.7999 20.07 20.7999C19.88 20.7999 19.69 20.7299 19.54 20.5799L19.01 20.0499L18.46 20.5999C18.31 20.7499 18.12 20.8199 17.93 20.8199C17.74 20.8199 17.55 20.7499 17.4 20.5999C17.11 20.3099 17.11 19.8299 17.4 19.5399L17.95 18.9899L17.42 18.4599C17.13 18.1699 17.13 17.6899 17.42 17.3999C17.71 17.1099 18.19 17.1099 18.48 17.3999L19.01 17.9299L19.51 17.4299C19.8 17.1399 20.28 17.1399 20.57 17.4299C20.86 17.7199 20.86 18.1999 20.57 18.4899L20.07 18.9899L20.6 19.5199C20.89 19.8099 20.89 20.2799 20.6 20.5799Z" fill="#141414"/>
<path d="M21.85 10.2499C21.07 5.79992 17.24 2.34992 12.73 2.02992C6.63002 1.58992 1.59002 6.63991 2.03002 12.7299C2.35002 17.2399 5.80002 21.0599 10.25 21.8399C11.4 22.0399 12.52 22.0399 13.59 21.8599C13.9 21.8099 14.08 21.4699 13.96 21.1899C13.66 20.5099 13.5 19.7599 13.5 18.9899C13.5 17.2999 14.25 15.7399 15.57 14.6999C16.54 13.9199 17.76 13.4899 19 13.4899C19.78 13.4899 20.52 13.6499 21.19 13.9499C21.48 14.0799 21.81 13.8899 21.87 13.5799C22.05 12.5199 22.05 11.3999 21.85 10.2499ZM14.5 13.5699L12.1 14.9499C10.61 15.8099 9.39002 15.1099 9.39002 13.3799V10.6099C9.39002 8.88991 10.61 8.17992 12.1 9.03992L14.5 10.4199C15.99 11.2999 15.99 12.6999 14.5 13.5699Z" fill="#141414"/>
</svg>
