<svg width="24" height="24" viewBox="0 0 24 24" fill="none" xmlns="http://www.w3.org/2000/svg">
<path d="M19.07 19.82C18.88 19.82 18.69 19.75 18.54 19.6C18.25 19.31 18.25 18.83 18.54 18.54C22.15 14.93 22.15 9.06004 18.54 5.46004C18.25 5.17004 18.25 4.69004 18.54 4.40004C18.83 4.11004 19.31 4.11004 19.6 4.40004C23.79 8.59004 23.79 15.41 19.6 19.6C19.45 19.75 19.26 19.82 19.07 19.82Z" fill="#141414"/>
<path d="M4.93001 19.82C4.74001 19.82 4.55001 19.75 4.40001 19.6C0.210007 15.41 0.210007 8.59004 4.40001 4.40004C4.69001 4.11004 5.17001 4.11004 5.46001 4.40004C5.75001 4.69004 5.75001 5.17004 5.46001 5.46004C1.85001 9.07004 1.85001 14.94 5.46001 18.54C5.75001 18.83 5.75001 19.31 5.46001 19.6C5.31001 19.75 5.12001 19.82 4.93001 19.82Z" fill="#141414"/>
<path d="M12 22.71C10.75 22.7 9.56001 22.5 8.45001 22.11C8.06001 21.97 7.85001 21.54 7.99001 21.15C8.13001 20.76 8.55001 20.55 8.95001 20.69C9.91001 21.02 10.93 21.2 12.01 21.2C13.08 21.2 14.11 21.02 15.06 20.69C15.45 20.56 15.88 20.76 16.02 21.15C16.16 21.54 15.95 21.97 15.56 22.11C14.44 22.5 13.25 22.71 12 22.71Z" fill="#141414"/>
<path d="M15.3 3.34004C15.22 3.34004 15.13 3.33004 15.05 3.30004C14.1 2.96004 13.07 2.79004 12 2.79004C10.93 2.79004 9.91001 2.97004 8.95001 3.30004C8.55001 3.43004 8.13001 3.23004 7.99001 2.84004C7.85001 2.45004 8.06001 2.02004 8.45001 1.88004C9.57001 1.49004 10.76 1.29004 12 1.29004C13.24 1.29004 14.44 1.49004 15.55 1.88004C15.94 2.02004 16.15 2.45004 16.01 2.84004C15.9 3.15004 15.61 3.34004 15.3 3.34004Z" fill="#141414"/>
<path d="M8.74001 10.33C8.74001 8.25004 10.21 7.40004 12.01 8.44004L14.91 10.12C16.71 11.16 16.71 12.86 14.91 13.9L12.01 15.58C10.21 16.62 8.74001 15.77 8.74001 13.69V10.33Z" fill="#141414"/>
</svg>
