<svg width="24" height="24" viewBox="0 0 24 24" fill="none" xmlns="http://www.w3.org/2000/svg">
<path d="M18.5813 19.3016C18.4045 19.3016 18.2276 19.2362 18.088 19.0962C17.818 18.8254 17.818 18.3772 18.088 18.1064C21.4485 14.7358 21.4485 9.2549 18.088 5.89356C17.818 5.62278 17.818 5.1746 18.088 4.90383C18.3579 4.63305 18.8047 4.63305 19.0747 4.90383C22.9751 8.81606 22.9751 15.1839 19.0747 19.0962C18.9351 19.2362 18.7582 19.3016 18.5813 19.3016Z" fill="#141414"/>
<path d="M5.41866 19.3016C5.2418 19.3016 5.06493 19.2362 4.9253 19.0962C1.0249 15.1839 1.0249 8.81606 4.9253 4.90383C5.19525 4.63305 5.64208 4.63305 5.91203 4.90383C6.18199 5.1746 6.18199 5.62278 5.91203 5.89356C2.55155 9.26424 2.55155 14.7451 5.91203 18.1064C6.18199 18.3772 6.18199 18.8254 5.91203 19.0962C5.7724 19.2362 5.59553 19.3016 5.41866 19.3016Z" fill="#141414"/>
<path d="M12 22C10.8364 21.9907 9.72865 21.8039 8.69537 21.4398C8.33232 21.3091 8.13684 20.9076 8.26716 20.5434C8.39749 20.1793 8.78846 19.9832 9.16081 20.1139C10.0545 20.422 11.004 20.5901 12.0093 20.5901C13.0054 20.5901 13.9642 20.422 14.8485 20.1139C15.2115 19.9925 15.6118 20.1793 15.7421 20.5434C15.8725 20.9076 15.677 21.3091 15.3139 21.4398C14.2714 21.8039 13.1636 22 12 22Z" fill="#141414"/>
<path d="M15.0719 3.9141C14.9974 3.9141 14.9137 3.90476 14.8392 3.87675C13.9549 3.55929 12.996 3.40056 12 3.40056C11.004 3.40056 10.0545 3.56863 9.16081 3.87675C8.78846 3.99813 8.39749 3.81139 8.26716 3.44725C8.13684 3.0831 8.33232 2.68161 8.69537 2.55089C9.73796 2.18674 10.8457 2 12 2C13.1543 2 14.2714 2.18674 15.3046 2.55089C15.6677 2.68161 15.8632 3.0831 15.7328 3.44725C15.6304 3.73669 15.3605 3.9141 15.0719 3.9141Z" fill="#141414"/>
<path d="M8.96532 10.4407C8.96532 8.4986 10.3337 7.70495 12.0093 8.676L14.7089 10.2446C16.3845 11.2157 16.3845 12.803 14.7089 13.774L12.0093 15.3427C10.3337 16.3137 8.96532 15.5201 8.96532 13.578V10.4407Z" fill="#141414"/>
</svg>
