<svg width="24" height="24" viewBox="0 0 24 24" fill="none" xmlns="http://www.w3.org/2000/svg">
<path d="M21.85 10.2499C21.07 5.79992 17.24 2.34992 12.73 2.02992C6.62996 1.58992 1.58996 6.63991 2.02996 12.7299C2.34996 17.2399 5.79996 21.0599 10.25 21.8399C11.4 22.0399 12.52 22.0399 13.59 21.8599C13.9 21.8099 14.08 21.4699 13.96 21.1899C13.66 20.5099 13.5 19.7599 13.5 18.9899C13.5 17.2999 14.25 15.7399 15.57 14.6999C16.54 13.9199 17.76 13.4899 19 13.4899C19.78 13.4899 20.52 13.6499 21.19 13.9499C21.48 14.0799 21.81 13.8899 21.87 13.5799C22.05 12.5199 22.05 11.3999 21.85 10.2499ZM14.5 13.5699L12.1 14.9499C10.61 15.8099 9.38996 15.1099 9.38996 13.3799V10.6099C9.38996 8.88991 10.61 8.17992 12.1 9.03992L14.5 10.4199C15.99 11.2999 15.99 12.6999 14.5 13.5699Z" fill="#141414"/>
<path d="M19 14.9999C18.06 14.9999 17.19 15.3299 16.5 15.8799C15.58 16.6099 15 17.7399 15 18.9999C15 19.7499 15.21 20.4599 15.58 21.0599C16.27 22.2199 17.54 22.9999 19 22.9999C20.01 22.9999 20.93 22.6299 21.63 21.9999C21.94 21.7399 22.21 21.4199 22.42 21.0599C22.79 20.4599 23 19.7499 23 18.9999C23 16.7899 21.21 14.9999 19 14.9999ZM20.5 19.7299H19.75V20.5099C19.75 20.9199 19.41 21.2599 19 21.2599C18.59 21.2599 18.25 20.9199 18.25 20.5099V19.7299H17.5C17.09 19.7299 16.75 19.3899 16.75 18.9799C16.75 18.5699 17.09 18.2299 17.5 18.2299H18.25V17.5199C18.25 17.1099 18.59 16.7699 19 16.7699C19.41 16.7699 19.75 17.1099 19.75 17.5199V18.2299H20.5C20.91 18.2299 21.25 18.5699 21.25 18.9799C21.25 19.3899 20.91 19.7299 20.5 19.7299Z" fill="#141414"/>
</svg>
