<svg width="24" height="24" viewBox="0 0 24 24" fill="none" xmlns="http://www.w3.org/2000/svg">
<path d="M19.63 7.23991C19.93 7.70991 19.77 8.33991 19.29 8.62991L18.7 8.97991L5.59004 16.8399C5.11004 17.1299 4.48003 16.9699 4.20003 16.4799C3.20003 14.7399 2.75004 12.6199 3.14004 10.3999C3.80004 6.62991 6.90003 3.62991 10.69 3.08991C14.44 2.55991 17.83 4.35991 19.63 7.23991Z" fill="#141414"/>
<path d="M20.89 13.4299C20.21 17.6799 16.45 20.9299 12.14 20.9999C10.24 21.0299 8.48003 20.4799 7.02003 19.4899C6.40003 19.0799 6.42003 18.1599 7.06003 17.7799L19.47 10.4899C20.12 10.1099 20.92 10.5499 20.98 11.2999C21.03 11.9999 21 12.7099 20.89 13.4299Z" fill="#141414"/>
</svg>
