<svg width="24" height="24" viewBox="0 0 24 24" fill="none" xmlns="http://www.w3.org/2000/svg">
<path d="M20.3617 15.0656C19.7425 14.637 18.99 14.3798 18.1899 14.3798C17.2945 14.3798 16.4658 14.6941 15.8086 15.218C14.9323 15.9133 14.3798 16.9897 14.3798 18.1899C14.3798 18.9043 14.5798 19.5806 14.9323 20.1521C14.9704 20.2188 15.018 20.2854 15.0751 20.3521C15.7419 21.3428 16.8849 22 18.1899 22C19.1519 22 20.0283 21.6476 20.695 21.0475C20.9903 20.7998 21.2475 20.495 21.4475 20.1521C21.8 19.5806 22 18.9043 22 18.1899C22 16.8944 21.3523 15.7514 20.3617 15.0656ZM19.7139 19.6949C19.5711 19.8378 19.3901 19.9044 19.2091 19.9044C19.0281 19.9044 18.8471 19.8378 18.7043 19.6949L18.1994 19.19L17.6755 19.7139C17.5326 19.8568 17.3517 19.9235 17.1707 19.9235C16.9897 19.9235 16.8087 19.8568 16.6659 19.7139C16.3896 19.4377 16.3896 18.9805 16.6659 18.7043L17.1897 18.1804L16.6849 17.6755C16.4087 17.3993 16.4087 16.9421 16.6849 16.6658C16.9611 16.3896 17.4183 16.3896 17.6946 16.6658L18.1994 17.1707L18.6757 16.6944C18.9519 16.4182 19.4091 16.4182 19.6854 16.6944C19.9616 16.9706 19.9616 17.4279 19.6854 17.7041L19.2091 18.1804L19.7139 18.6852C19.9902 18.9614 19.9902 19.4091 19.7139 19.6949Z" fill="#141414"/>
<path d="M20.9046 9.85526C20.1616 5.61651 16.5134 2.33028 12.2176 2.02547C6.40714 1.60636 1.60641 6.41663 2.02552 12.2175C2.33033 16.5134 5.61654 20.1521 9.85529 20.8951C10.9507 21.0856 12.0175 21.0856 13.0367 20.9141C13.332 20.8665 13.5035 20.5426 13.3892 20.2759C13.1034 19.6282 12.951 18.9138 12.951 18.1804C12.951 16.5706 13.6654 15.0846 14.9227 14.094C15.8467 13.351 17.0088 12.9415 18.1899 12.9415C18.9329 12.9415 19.6377 13.0939 20.2759 13.3796C20.5522 13.5034 20.8665 13.3225 20.9236 13.0272C21.0951 12.0175 21.0951 10.9507 20.9046 9.85526ZM13.9035 13.0177L11.6175 14.3321C10.1982 15.1513 9.03611 14.4845 9.03611 12.8367V10.1982C9.03611 8.55982 10.1982 7.88352 11.6175 8.7027L13.9035 10.0172C15.3228 10.8554 15.3228 12.189 13.9035 13.0177Z" fill="#141414"/>
</svg>
