<svg width="24" height="24" viewBox="0 0 24 24" fill="none" xmlns="http://www.w3.org/2000/svg">
<path d="M7.9625 2.72289V5.61446H7.25C7.003 5.61446 6.7655 5.6241 6.5375 5.66265V2.72289C6.5375 2.32771 6.8605 2 7.25 2C7.6395 2 7.9625 2.32771 7.9625 2.72289Z" fill="#141414"/>
<path d="M16.75 5.61446H7.25C7.003 5.61446 6.7655 5.6241 6.5375 5.66265C4.0865 5.95181 2.5 7.79277 2.5 10.4337V17.1807C2.5 20.0723 4.4 22 7.25 22H16.75C19.6 22 21.5 20.0723 21.5 17.1807V10.4337C21.5 7.54217 19.6 5.61446 16.75 5.61446ZM8.086 16.2169C6.775 16.2169 5.711 15.1374 5.711 13.8072C5.711 12.4771 6.775 11.3976 8.086 11.3976C9.397 11.3976 10.461 12.4771 10.461 13.8072C10.461 15.1374 9.397 16.2169 8.086 16.2169ZM14.261 16.4578H13.786C13.3965 16.4578 13.0735 16.1301 13.0735 15.7349C13.0735 15.3398 13.3965 15.012 13.786 15.012H14.261C14.6505 15.012 14.9735 15.3398 14.9735 15.7349C14.9735 16.1301 14.6505 16.4578 14.261 16.4578ZM17.586 16.4578H17.111C16.7215 16.4578 16.3985 16.1301 16.3985 15.7349C16.3985 15.3398 16.7215 15.012 17.111 15.012H17.586C17.9755 15.012 18.2985 15.3398 18.2985 15.7349C18.2985 16.1301 17.9755 16.4578 17.586 16.4578ZM17.586 12.6024H13.786C13.3965 12.6024 13.0735 12.2747 13.0735 11.8795C13.0735 11.4843 13.3965 11.1566 13.786 11.1566H17.586C17.9755 11.1566 18.2985 11.4843 18.2985 11.8795C18.2985 12.2747 17.9755 12.6024 17.586 12.6024Z" fill="#141414"/>
</svg>
