<svg width="24" height="24" viewBox="0 0 24 24" fill="none" xmlns="http://www.w3.org/2000/svg">
<path d="M20.4742 6.7128C20.8075 7.23492 20.6298 7.93478 20.0965 8.25694L19.4411 8.64575L4.87691 17.3774C4.34367 17.6995 3.64379 17.5218 3.33274 16.9775C2.22182 15.0445 1.7219 12.6894 2.15516 10.2232C2.88837 6.03515 6.33222 2.70247 10.5426 2.10259C14.7086 1.51381 18.4746 3.51342 20.4742 6.7128Z" fill="#141414"/>
<path d="M21.874 13.5892C21.1186 18.3105 16.9415 21.9209 12.1534 21.9987C10.0427 22.032 8.08747 21.421 6.46553 20.3213C5.77676 19.8658 5.79898 18.8438 6.50996 18.4216L20.2965 10.3232C21.0186 9.90107 21.9073 10.3899 21.974 11.223C22.0295 12.0007 21.9962 12.7894 21.874 13.5892Z" fill="#141414"/>
</svg>
