<svg width="24" height="24" viewBox="0 0 24 24" fill="none" xmlns="http://www.w3.org/2000/svg">
<path d="M21.019 15.6476C20.3333 14.8667 19.3143 14.381 18.1905 14.381C16.0857 14.381 14.381 16.0857 14.381 18.1905C14.381 18.9048 14.581 19.581 14.9333 20.1524C15.1238 20.4762 15.3714 20.7714 15.6571 21.019C16.3238 21.6286 17.2095 22 18.1905 22C19.581 22 20.7905 21.2571 21.4476 20.1524C21.8 19.581 22 18.9048 22 18.1905C22 17.219 21.6286 16.3238 21.019 15.6476ZM19.7143 19.6952C19.5714 19.8381 19.3905 19.9048 19.2095 19.9048C19.0286 19.9048 18.8476 19.8381 18.7048 19.6952L18.2 19.1905L17.6762 19.7143C17.5333 19.8571 17.3524 19.9238 17.1714 19.9238C16.9905 19.9238 16.8095 19.8571 16.6667 19.7143C16.3905 19.4381 16.3905 18.981 16.6667 18.7048L17.1905 18.181L16.6857 17.6762C16.4095 17.4 16.4095 16.9429 16.6857 16.6667C16.9619 16.3905 17.419 16.3905 17.6952 16.6667L18.2 17.1714L18.6762 16.6952C18.9524 16.419 19.4095 16.419 19.6857 16.6952C19.9619 16.9714 19.9619 17.4286 19.6857 17.7048L19.2095 18.181L19.7143 18.6857C19.9905 18.9619 19.9905 19.4095 19.7143 19.6952Z" fill="#141414"/>
<path d="M11.7429 11.5905C11.3524 11.5905 11.0381 11.9048 11.0381 12.2952C11.0381 12.6857 11.3524 13 11.7429 13C12.1333 13 12.4476 12.6857 12.4476 12.2952C12.4476 11.9048 12.1333 11.5905 11.7429 11.5905Z" fill="#141414"/>
<path d="M6.53333 12.5333C6.14286 12.5333 5.82857 12.8476 5.82857 13.2381C5.82857 13.6286 6.14286 13.9429 6.53333 13.9429C6.92381 13.9429 7.2381 13.6286 7.2381 13.2381C7.2381 12.8476 6.92381 12.5333 6.53333 12.5333Z" fill="#141414"/>
<path d="M15.5143 2H7.53333C7.26667 2 7.00952 2.00952 6.7619 2.04762C3.7619 2.32381 2 4.33333 2 7.53333V15.5143C2 18.7143 3.7619 20.7238 6.7619 21C7.00952 21.0381 7.26667 21.0476 7.53333 21.0476H12.9524C13.3238 21.0476 13.5619 20.6286 13.419 20.2857C13.1429 19.6286 12.9524 18.8667 12.9524 18.1905C12.9524 15.3048 15.3048 12.9524 18.1905 12.9524C18.9143 12.9524 19.619 13.0952 20.2667 13.381C20.619 13.5333 21.0476 13.2952 21.0476 12.9143V7.53333C21.0476 4.06667 18.981 2 15.5143 2ZM13.8857 7.76191V12.2952C13.8857 12.3048 13.8762 12.3143 13.8762 12.3333C13.8571 13.4952 12.9143 14.4381 11.7429 14.4381C10.5619 14.4381 9.60952 13.4762 9.60952 12.3048C9.60952 11.1238 10.5714 10.1714 11.7429 10.1714C11.9905 10.1714 12.2286 10.219 12.4571 10.3048V8.69524L8.67619 9.72381V13.2476C8.67619 13.2571 8.66667 13.2667 8.66667 13.2762C8.64762 14.4381 7.70476 15.3714 6.53333 15.3714C5.35238 15.3714 4.4 14.4095 4.4 13.2381C4.4 12.0667 5.3619 11.1048 6.53333 11.1048C6.78095 11.1048 7.01905 11.1524 7.2381 11.2381V7.51429C7.2381 6.62857 7.79048 5.91429 8.6381 5.68571L11.4762 4.90476C12.3619 4.66667 12.9048 4.90476 13.2095 5.13333C13.6476 5.46667 13.8667 6.00952 13.8667 6.73333V7.76191H13.8857Z" fill="#141414"/>
</svg>
