<svg width="24" height="24" viewBox="0 0 24 24" fill="none" xmlns="http://www.w3.org/2000/svg">
<path d="M4.47327 16.7818C4.29661 16.7818 4.11994 16.7172 3.98047 16.5788C2.70665 15.305 2 13.6251 2 11.8437C2 8.14246 5.02185 5.13344 8.74105 5.13344L14.3849 5.1519L13.3715 4.19197C13.0925 3.9243 13.0832 3.49048 13.3529 3.21358C13.6225 2.93667 14.0595 2.92744 14.3384 3.19512L16.6072 5.35496C16.8117 5.5488 16.8768 5.85339 16.7745 6.11183C16.6722 6.37028 16.4119 6.54565 16.1237 6.54565L8.74105 6.52719C5.79358 6.52719 3.3947 8.91779 3.3947 11.853C3.3947 13.2652 3.95258 14.6035 4.96606 15.6096C5.2357 15.8773 5.2357 16.3203 4.96606 16.588C4.82659 16.7172 4.64993 16.7818 4.47327 16.7818Z" fill="#141414"/>
<path d="M10.1358 21C9.95909 21 9.79172 20.9354 9.65225 20.8062L7.38354 18.6463C7.17899 18.4525 7.1139 18.1479 7.21618 17.8895C7.31846 17.631 7.5788 17.4556 7.86704 17.4556L15.2589 17.4741C18.2064 17.4741 20.6053 15.0835 20.6053 12.1483C20.6053 10.7361 20.0474 9.39775 19.0339 8.39167C18.7643 8.124 18.7643 7.68095 19.0339 7.41328C19.3036 7.14561 19.7499 7.14561 20.0195 7.41328C21.2934 8.68703 22 10.3669 22 12.1483C22 15.8496 18.9781 18.8586 15.2589 18.8586L9.61506 18.8402L10.6285 19.8001C10.9075 20.0678 10.9168 20.5016 10.6471 20.7785C10.4984 20.9262 10.3217 21 10.1358 21Z" fill="#141414"/>
<path d="M9.20595 15.2312H14.7848C16.57 15.2312 18.0391 13.7821 18.0391 12.0006C18.0391 10.2285 16.5793 8.7701 14.7848 8.7701H9.20595C7.42073 8.7701 5.95165 10.2192 5.95165 12.0006C5.95165 13.7821 7.41144 15.2312 9.20595 15.2312Z" fill="#141414"/>
</svg>
