<svg width="24" height="24" viewBox="0 0 24 24" fill="none" xmlns="http://www.w3.org/2000/svg">
<path d="M20.0667 2H17.2667C16.0571 2 15.3333 2.72381 15.3333 3.93333V6.73333C15.3333 7.94286 16.0571 8.66667 17.2667 8.66667H20.0667C21.2762 8.66667 22 7.94286 22 6.73333V3.93333C22 2.72381 21.2762 2 20.0667 2ZM20.5429 6.34286C20.781 6.58095 20.781 6.97143 20.5429 7.20952C20.419 7.32381 20.2667 7.38095 20.1048 7.38095C19.9524 7.38095 19.8 7.32381 19.6762 7.20952L18.6667 6.2L17.6667 7.20952C17.5429 7.32381 17.3905 7.38095 17.2286 7.38095C17.0762 7.38095 16.9238 7.32381 16.8 7.20952C16.5619 6.97143 16.5619 6.58095 16.8 6.34286L17.8095 5.33333L16.8 4.33333C16.5619 4.09524 16.5619 3.70476 16.8 3.46667C17.0381 3.22857 17.4286 3.22857 17.6667 3.46667L18.6667 4.47619L19.6762 3.46667C19.9143 3.22857 20.3048 3.22857 20.5429 3.46667C20.781 3.70476 20.781 4.09524 20.5429 4.33333L19.5333 5.33333L20.5429 6.34286Z" fill="#141414"/>
<path d="M8.66667 10.9333C9.91851 10.9333 10.9333 9.91851 10.9333 8.66667C10.9333 7.41482 9.91851 6.4 8.66667 6.4C7.41482 6.4 6.4 7.41482 6.4 8.66667C6.4 9.91851 7.41482 10.9333 8.66667 10.9333Z" fill="#141414"/>
<path d="M20.0667 8.66667H19.619V13.0571L19.4952 12.9524C18.7524 12.3143 17.5524 12.3143 16.8095 12.9524L12.8476 16.3524C12.1048 16.9905 10.9048 16.9905 10.1619 16.3524L9.83809 16.0857C9.1619 15.4952 8.08571 15.4381 7.32381 15.9524L3.7619 18.3429C3.55238 17.8095 3.42857 17.1905 3.42857 16.4667V8.48571C3.42857 5.8 4.84762 4.38095 7.53333 4.38095H15.3333V3.93333C15.3333 3.55238 15.4 3.22857 15.5524 2.95238H7.53333C4.06667 2.95238 2 5.01905 2 8.48571V16.4667C2 17.5048 2.18095 18.4095 2.53333 19.1714C3.35238 20.981 5.10476 22 7.53333 22H15.5143C18.981 22 21.0476 19.9333 21.0476 16.4667V8.44762C20.7714 8.6 20.4476 8.66667 20.0667 8.66667Z" fill="#141414"/>
</svg>
