<svg width="24" height="24" viewBox="0 0 24 24" fill="none" xmlns="http://www.w3.org/2000/svg">
<path d="M3.91 17.1799C3.72 17.1799 3.53 17.1099 3.38 16.9599C2.01 15.5799 1.25 13.7599 1.25 11.8299C1.25 7.81993 4.5 4.55993 8.5 4.55993L14.57 4.57993L13.48 3.53993C13.18 3.24993 13.17 2.77993 13.46 2.47993C13.75 2.17993 14.22 2.16993 14.52 2.45993L16.96 4.79993C17.18 5.00993 17.25 5.33993 17.14 5.61993C17.03 5.89993 16.75 6.08993 16.44 6.08993L8.5 6.06993C5.33 6.06993 2.75 8.65993 2.75 11.8399C2.75 13.3699 3.35 14.8199 4.44 15.9099C4.73 16.1999 4.73 16.6799 4.44 16.9699C4.29 17.1099 4.1 17.1799 3.91 17.1799Z" fill="#141414"/>
<path d="M10 21.7499C9.81 21.7499 9.63 21.6799 9.48 21.5399L7.04 19.1999C6.82 18.9899 6.75 18.6599 6.86 18.3799C6.98 18.0999 7.26 17.9499 7.56 17.9099L15.51 17.9299C18.68 17.9299 21.26 15.3399 21.26 12.1599C21.26 10.6299 20.66 9.17993 19.57 8.08993C19.28 7.79993 19.28 7.31993 19.57 7.02993C19.86 6.73993 20.34 6.73993 20.63 7.02993C22 8.40993 22.76 10.2299 22.76 12.1599C22.76 16.1699 19.51 19.4299 15.51 19.4299L9.44 19.4099L10.53 20.4499C10.83 20.7399 10.84 21.2099 10.55 21.5099C10.39 21.6699 10.2 21.7499 10 21.7499Z" fill="#141414"/>
<path d="M12.25 15.4199C11.84 15.4199 11.5 15.0799 11.5 14.6699V11.2799L11.31 11.4899C11.03 11.7999 10.56 11.8199 10.25 11.5499C9.94 11.2799 9.92 10.7999 10.19 10.4899L11.69 8.81993C11.9 8.58993 12.23 8.50993 12.52 8.61993C12.81 8.73993 13 9.00993 13 9.32993V14.6799C13 15.0899 12.66 15.4199 12.25 15.4199Z" fill="#141414"/>
</svg>
