<svg width="24" height="24" viewBox="0 0 24 24" fill="none" xmlns="http://www.w3.org/2000/svg">
<path d="M21.75 17.98C21.75 17.96 21.74 17.94 21.74 17.92C21.73 17.84 21.72 17.76 21.69 17.69C21.65 17.6 21.6 17.53 21.54 17.46C21.54 17.46 21.54 17.45 21.53 17.45C21.46 17.38 21.38 17.33 21.29 17.29C21.2 17.25 21.1 17.23 21 17.23L16.33 17.25C16.33 17.25 16.33 17.25 16.32 17.25C15.72 17.25 15.14 16.97 14.78 16.49L13.56 14.92C13.31 14.59 12.84 14.53 12.51 14.79C12.18 15.05 12.12 15.51 12.38 15.84L13.6 17.41C14.25 18.25 15.27 18.75 16.33 18.75H16.34L19.19 18.74L18.48 19.45C18.19 19.74 18.19 20.22 18.48 20.51C18.63 20.66 18.82 20.73 19.01 20.73C19.2 20.73 19.39 20.66 19.54 20.51L21.54 18.51C21.61 18.44 21.66 18.36 21.7 18.27C21.73 18.17 21.75 18.07 21.75 17.98Z" fill="#141414"/>
<path d="M8.42 6.68997C7.77 5.78997 6.73 5.25997 5.62 5.25997C5.61 5.25997 5.61 5.25997 5.6 5.25997L3 5.26997C2.59 5.26997 2.25 5.60997 2.25 6.01997C2.25 6.42997 2.59 6.76997 3 6.76997L5.61 6.75997H5.62C6.25 6.75997 6.84 7.05997 7.2 7.56997L8.28 9.06997C8.43 9.26997 8.66 9.37997 8.89 9.37997C9.04 9.37997 9.2 9.32997 9.33 9.23997C9.67 8.98997 9.74 8.51997 9.5 8.18997L8.42 6.68997Z" fill="#141414"/>
<path d="M21.74 6.07997C21.74 6.05997 21.75 6.03997 21.75 6.02997C21.75 5.92997 21.73 5.82997 21.69 5.73997C21.65 5.64997 21.6 5.56997 21.53 5.49997L19.53 3.49997C19.24 3.20997 18.76 3.20997 18.47 3.49997C18.18 3.78997 18.18 4.26997 18.47 4.55997L19.18 5.26997L16.45 5.25997C16.44 5.25997 16.44 5.25997 16.43 5.25997C15.28 5.25997 14.2 5.82997 13.56 6.79997L7.17 16.38C6.81 16.92 6.2 17.25 5.55 17.25H5.54L3 17.23C2.59 17.23 2.25 17.56 2.25 17.98C2.25 18.39 2.58 18.73 3 18.73L5.55 18.74C5.56 18.74 5.56 18.74 5.57 18.74C6.73 18.74 7.8 18.17 8.44 17.2L14.83 7.61997C15.19 7.07997 15.8 6.74997 16.45 6.74997H16.46L21 6.76997C21.1 6.76997 21.19 6.74997 21.29 6.70997C21.38 6.66997 21.46 6.61997 21.53 6.54997C21.53 6.54997 21.53 6.53997 21.54 6.53997C21.6 6.46997 21.66 6.39997 21.69 6.30997C21.72 6.23997 21.73 6.15997 21.74 6.07997Z" fill="#141414"/>
</svg>
