<svg width="24" height="24" viewBox="0 0 24 24" fill="none" xmlns="http://www.w3.org/2000/svg">
<path d="M21.2889 7.31111L3.71111 17.8667C3.03333 18.2778 2.12222 17.8667 2.03333 17.0778C2.01111 16.8667 2 16.6556 2 16.4444V7.55556C2 4.22222 4.22222 2 7.55556 2H16.4444C19.7778 2 21.1444 3.71111 21.7889 6.05556C21.9222 6.54444 21.7111 7.05556 21.2889 7.31111Z" fill="#141414"/>
<path d="M22 10.9889V16.4444C22 19.7778 19.7778 22 16.4444 22H7.55556C6.53333 22 5.56667 21.7222 4.74444 21.2333C4.03333 20.8222 4.07778 19.7778 4.77778 19.3556L20.3111 10.0333C21.0556 9.58889 22 10.1222 22 10.9889Z" fill="#141414"/>
</svg>
