<svg width="24" height="24" viewBox="0 0 24 24" fill="none" xmlns="http://www.w3.org/2000/svg">
<path d="M22 18.1629C22 18.1423 21.9897 18.1217 21.9897 18.101C21.9795 18.0185 21.9692 17.936 21.9385 17.8637C21.8974 17.7709 21.8462 17.6987 21.7846 17.6265C21.7846 17.6265 21.7846 17.6161 21.7744 17.6161C21.7026 17.5439 21.6205 17.4923 21.5282 17.4511C21.4359 17.4098 21.3333 17.3892 21.2308 17.3892L16.441 17.4098C16.441 17.4098 16.441 17.4098 16.4308 17.4098C15.8154 17.4098 15.2205 17.1209 14.8513 16.6257L13.6 15.006C13.3436 14.6656 12.8615 14.6037 12.5231 14.8719C12.1846 15.1401 12.1231 15.6147 12.3897 15.9552L13.641 17.5749C14.3077 18.4415 15.3538 18.9573 16.441 18.9573H16.4513L19.3744 18.947L18.6462 19.6795C18.3487 19.9787 18.3487 20.4739 18.6462 20.773C18.8 20.9278 18.9949 21 19.1897 21C19.3846 21 19.5795 20.9278 19.7333 20.773L21.7846 18.7097C21.8564 18.6375 21.9077 18.555 21.9487 18.4621C21.9795 18.3589 22 18.2558 22 18.1629Z" fill="#141414"/>
<path d="M8.32821 6.5154C7.66154 5.5869 6.59487 5.04012 5.45641 5.04012C5.44615 5.04012 5.44615 5.04012 5.4359 5.04012L2.76923 5.05044C2.34872 5.05044 2 5.4012 2 5.82419C2 6.24717 2.34872 6.59794 2.76923 6.59794L5.44615 6.58762H5.45641C6.10256 6.58762 6.70769 6.89712 7.07692 7.42327L8.18462 8.97077C8.33846 9.1771 8.57436 9.29059 8.81026 9.29059C8.9641 9.29059 9.12821 9.239 9.26154 9.14615C9.61026 8.88824 9.68205 8.40335 9.4359 8.0629L8.32821 6.5154Z" fill="#141414"/>
<path d="M21.9897 5.88609C21.9897 5.86545 22 5.84482 22 5.8345C22 5.73134 21.9795 5.62817 21.9385 5.53532C21.8974 5.44247 21.8462 5.35994 21.7744 5.28772L19.7231 3.22439C19.4256 2.9252 18.9333 2.9252 18.6359 3.22439C18.3385 3.52357 18.3385 4.01877 18.6359 4.31795L19.3641 5.05044L16.5641 5.04012C16.5538 5.04012 16.5538 5.04012 16.5436 5.04012C15.3641 5.04012 14.2564 5.62817 13.6 6.62889L7.04615 16.5123C6.67692 17.0694 6.05128 17.4098 5.38462 17.4098H5.37436L2.76923 17.3892C2.34872 17.3892 2 17.7296 2 18.1629C2 18.5859 2.33846 18.9367 2.76923 18.9367L5.38462 18.947C5.39487 18.947 5.39487 18.947 5.40513 18.947C6.59487 18.947 7.69231 18.3589 8.34872 17.3582L14.9026 7.47485C15.2718 6.91775 15.8974 6.5773 16.5641 6.5773H16.5744L21.2308 6.59794C21.3333 6.59794 21.4256 6.5773 21.5282 6.53604C21.6205 6.49477 21.7026 6.44319 21.7744 6.37097C21.7744 6.37097 21.7744 6.36065 21.7846 6.36065C21.8462 6.28844 21.9077 6.21622 21.9385 6.12337C21.9692 6.05115 21.9795 5.96862 21.9897 5.88609Z" fill="#141414"/>
</svg>
