<svg width="24" height="24" viewBox="0 0 24 24" fill="none" xmlns="http://www.w3.org/2000/svg">
<path d="M16.1971 2H7.8129C4.17108 2 2 4.17 2 7.81V16.18C2 19.83 4.17108 22 7.8129 22H16.1871C19.8289 22 22 19.83 22 16.19V7.81C22.01 4.17 19.8389 2 16.1971 2ZM17.7679 14.68C18.098 14.93 18.1681 15.4 17.9179 15.73C17.7679 15.93 17.5477 16.03 17.3176 16.03C17.1576 16.03 17.0075 15.98 16.8674 15.88L12.9154 12.93L10.5042 14.73C10.5142 14.83 10.5343 14.93 10.5343 15.03C10.5343 16.3 9.50374 17.33 8.23311 17.33C6.96247 17.33 5.93196 16.3 5.93196 15.03C5.93196 13.76 6.96247 12.73 8.23311 12.73C8.85341 12.73 9.40369 12.98 9.81389 13.37L11.6548 11.99L9.8239 10.62C9.41369 11.02 8.84341 11.27 8.2231 11.27C6.95247 11.27 5.92195 10.24 5.92195 8.97C5.92195 7.7 6.95247 6.67 8.2231 6.67C9.49373 6.67 10.5242 7.7 10.5242 8.97C10.5242 9.07 10.5042 9.16 10.4942 9.25L12.8954 11.05L16.8474 8.1C17.1776 7.85 17.6478 7.92 17.8979 8.25C18.148 8.58 18.078 9.05 17.7478 9.3L14.1461 11.99L17.7679 14.68Z" fill="#141414"/>
</svg>
