<svg width="24" height="24" viewBox="0 0 24 24" fill="none" xmlns="http://www.w3.org/2000/svg">
<path d="M21.8012 20.819L21.1154 20.1333C21.4678 19.6 21.6773 18.9524 21.6773 18.2667C21.6773 16.381 20.1534 14.8571 18.2676 14.8571C16.3818 14.8571 14.8579 16.381 14.8579 18.2667C14.8579 20.1524 16.3818 21.6762 18.2676 21.6762C18.9629 21.6762 19.601 21.4667 20.1344 21.1143L20.8202 21.8C20.9535 21.9333 21.1345 22 21.3059 22C21.4869 22 21.6583 21.9333 21.7916 21.8C22.0678 21.5238 22.0678 21.0857 21.8012 20.819Z" fill="#141414"/>
<path d="M11.7434 11.5905C11.3529 11.5905 11.0386 11.9048 11.0386 12.2952C11.0386 12.6857 11.3529 13 11.7434 13C12.1339 13 12.4482 12.6857 12.4482 12.2952C12.4482 11.9048 12.1339 11.5905 11.7434 11.5905Z" fill="#141414"/>
<path d="M6.5336 12.5333C6.1431 12.5333 5.8288 12.8476 5.8288 13.2381C5.8288 13.6286 6.1431 13.9429 6.5336 13.9429C6.9241 13.9429 7.2384 13.6286 7.2384 13.2381C7.2384 12.8476 6.9241 12.5333 6.5336 12.5333Z" fill="#141414"/>
<path d="M15.5151 2H7.53366C7.26698 2 7.00982 2.00952 6.76218 2.04762C3.76201 2.32381 2 4.33333 2 7.53333V15.5143C2 18.7143 3.76201 20.7238 6.76218 21C7.00982 21.0381 7.26698 21.0476 7.53366 21.0476H12.953C13.3245 21.0476 13.5626 20.6286 13.4197 20.2857C13.1435 19.6286 12.953 18.8667 12.953 18.1905C12.953 15.3048 15.3055 12.9524 18.1914 12.9524C18.9153 12.9524 19.6201 13.0952 20.2677 13.381C20.6201 13.5333 21.0487 13.2952 21.0487 12.9143V7.53333C21.0487 4.06667 18.982 2 15.5151 2ZM13.8864 7.76191V12.2952C13.8864 12.3048 13.8769 12.3143 13.8769 12.3333C13.8578 13.4952 12.9149 14.4381 11.7434 14.4381C10.5624 14.4381 9.60997 13.4762 9.60997 12.3048C9.60997 11.1238 10.5719 10.1714 11.7434 10.1714C11.9911 10.1714 12.2292 10.219 12.4578 10.3048V8.69524L8.67658 9.72381V13.2476C8.67658 13.2571 8.66706 13.2667 8.66706 13.2762C8.64801 14.4381 7.7051 15.3714 6.5336 15.3714C5.35258 15.3714 4.40014 14.4095 4.40014 13.2381C4.40014 12.0667 5.3621 11.1048 6.5336 11.1048C6.78123 11.1048 7.01934 11.1524 7.2384 11.2381V7.51429C7.2384 6.62857 7.79082 5.91429 8.63849 5.68571L11.4767 4.90476C12.3625 4.66667 12.9054 4.90476 13.2102 5.13333C13.6483 5.46667 13.8674 6.00952 13.8674 6.73333V7.76191H13.8864Z" fill="#141414"/>
</svg>
