<svg width="24" height="24" viewBox="0 0 24 24" fill="none" xmlns="http://www.w3.org/2000/svg">
<path d="M16.1971 2H7.8129C4.17108 2 2 4.17 2 7.81V16.18C2 19.83 4.17108 22 7.8129 22H16.1871C19.8289 22 22 19.83 22 16.19V7.81C22.01 4.17 19.8389 2 16.1971 2ZM6.50224 12.57H9.27362C9.68383 12.57 10.024 12.91 10.024 13.32C10.024 13.73 9.68383 14.07 9.27362 14.07H6.50224C6.09204 14.07 5.75187 13.73 5.75187 13.32C5.75187 12.91 6.09204 12.57 6.50224 12.57ZM12.9755 17.83H6.50224C6.09204 17.83 5.75187 17.49 5.75187 17.08C5.75187 16.67 6.09204 16.33 6.50224 16.33H12.9755C13.3857 16.33 13.7258 16.67 13.7258 17.08C13.7258 17.49 13.3957 17.83 12.9755 17.83ZM17.5077 17.83H15.6568C15.2466 17.83 14.9064 17.49 14.9064 17.08C14.9064 16.67 15.2466 16.33 15.6568 16.33H17.5077C17.9179 16.33 18.2581 16.67 18.2581 17.08C18.2581 17.49 17.9179 17.83 17.5077 17.83ZM17.5077 14.07H11.975C11.5648 14.07 11.2246 13.73 11.2246 13.32C11.2246 12.91 11.5648 12.57 11.975 12.57H17.5077C17.9179 12.57 18.2581 12.91 18.2581 13.32C18.2581 13.73 17.9179 14.07 17.5077 14.07Z" fill="#141414"/>
</svg>
