<svg width="24" height="24" viewBox="0 0 24 24" fill="none" xmlns="http://www.w3.org/2000/svg">
<path d="M19.4348 5.85L13.5504 2.42C12.5894 1.86 11.4007 1.86 10.4298 2.42L4.55531 5.85C3.59439 6.41 3 7.45 3 8.58V15.42C3 16.54 3.59439 17.58 4.55531 18.15L10.4397 21.58C11.4007 22.14 12.5894 22.14 13.5603 21.58L19.4447 18.15C20.4056 17.59 21 16.55 21 15.42V8.58C20.9901 7.45 20.3957 6.42 19.4348 5.85ZM14.224 13.4L12.1635 14.6C10.8459 15.37 9.7661 14.74 9.7661 13.2V10.8C9.7661 9.26 10.8459 8.63 12.1635 9.4L14.224 10.6C15.5416 11.37 15.5416 12.63 14.224 13.4Z" fill="#141414"/>
</svg>
