<svg width="24" height="24" viewBox="0 0 24 24" fill="none" xmlns="http://www.w3.org/2000/svg">
<path d="M20.9268 6.33657C20.5268 6.12286 19.6878 5.89943 18.5463 6.696L17.1122 7.70629C17.0049 4.68514 15.6878 3.5 12.4878 3.5H6.63415C3.29756 3.5 2 4.792 2 8.11429V15.8857C2 18.12 3.21951 20.5 6.63415 20.5H12.4878C15.6878 20.5 17.0049 19.3149 17.1122 16.2937L18.5463 17.304C19.1512 17.7314 19.678 17.8674 20.0976 17.8674C20.4585 17.8674 20.7415 17.7606 20.9268 17.6634C21.3268 17.4594 22 16.9057 22 15.5166V8.48343C22 7.09429 21.3268 6.54057 20.9268 6.33657ZM11.0244 11.3977C10.0195 11.3977 9.19024 10.5817 9.19024 9.57143C9.19024 8.56114 10.0195 7.74514 11.0244 7.74514C12.0293 7.74514 12.8585 8.56114 12.8585 9.57143C12.8585 10.5817 12.0293 11.3977 11.0244 11.3977Z" fill="#141414"/>
</svg>
