<svg width="24" height="24" viewBox="0 0 24 24" fill="none" xmlns="http://www.w3.org/2000/svg">
<path d="M21.0286 15.019C20.9905 14.9619 20.9429 14.9048 20.8952 14.8571C20.1238 13.9714 18.981 13.4286 17.7143 13.4286C16.5143 13.4286 15.419 13.9238 14.6381 14.7238C13.8857 15.4952 13.4286 16.5524 13.4286 17.7143C13.4286 18.5143 13.6571 19.2762 14.0476 19.9238C14.2667 20.2857 14.5429 20.619 14.8667 20.8952C14.9143 20.9429 14.9619 20.981 15.019 21.0286C15.019 21.0286 15.019 21.0286 15.0286 21.0286C15.7524 21.6381 16.6857 22 17.7143 22C19.2762 22 20.6381 21.1619 21.381 19.9238C21.6 19.5524 21.7714 19.1429 21.8762 18.7143C21.9619 18.3905 22 18.0571 22 17.7143C22 16.6952 21.6381 15.7524 21.0286 15.019ZM19.3619 19.3429C19.219 19.4857 19.0381 19.5524 18.8571 19.5524C18.6762 19.5524 18.4952 19.4857 18.3524 19.3429L17.7238 18.7143L17.0667 19.3714C16.9238 19.5143 16.7429 19.581 16.5619 19.581C16.381 19.581 16.2 19.5143 16.0571 19.3714C15.781 19.0952 15.781 18.6381 16.0571 18.3619L16.7143 17.7048L16.0857 17.0762C15.8095 16.8 15.8095 16.3429 16.0857 16.0667C16.3619 15.7905 16.819 15.7905 17.0952 16.0667L17.7238 16.6952L18.3238 16.0952C18.6 15.819 19.0571 15.819 19.3333 16.0952C19.6095 16.3714 19.6095 16.8286 19.3333 17.1048L18.7333 17.7048L19.3619 18.3333C19.6476 18.6095 19.6476 19.0571 19.3619 19.3429Z" fill="#141414"/>
<path d="M14.1238 5.67619V2.47619C14.1238 2.20952 13.9143 2 13.6476 2H9.4C9.13333 2 8.92381 2.20952 8.92381 2.47619V5.67619C8.92381 5.94286 9.13333 6.15238 9.4 6.15238H13.6476C13.9143 6.15238 14.1238 5.94286 14.1238 5.67619Z" fill="#141414"/>
<path d="M7 2.01905C4.5619 2.17143 2.89524 3.42857 2.27619 5.52381C2.18095 5.8381 2.40952 6.15238 2.73333 6.15238H7.01905C7.28571 6.15238 7.49524 5.94286 7.49524 5.67619V2.49524C7.49524 2.22857 7.26667 2 7 2.01905Z" fill="#141414"/>
<path d="M16.0476 2.00952C18.4857 2.1619 20.1524 3.41905 20.7714 5.51429C20.8667 5.82857 20.6381 6.14286 20.3143 6.14286H16.0286C15.7619 6.14286 15.5524 5.93333 15.5524 5.66667V2.48571C15.5524 2.21905 15.781 1.99048 16.0476 2.00952Z" fill="#141414"/>
<path d="M21.0476 8.05714V12.2286C21.0476 12.581 20.6762 12.8095 20.3619 12.6476C19.5619 12.2286 18.6476 12 17.7143 12C16.181 12 14.6857 12.6286 13.619 13.7238C12.5714 14.7905 12 16.2095 12 17.7143C12 18.4857 12.3048 19.4762 12.6857 20.3048C12.8381 20.6381 12.6095 21.0476 12.2381 21.0476H7.53333C4.47619 21.0476 2 18.5714 2 15.5143V8.05714C2 7.79048 2.20952 7.58095 2.47619 7.58095H20.5714C20.8381 7.58095 21.0476 7.79048 21.0476 8.05714Z" fill="#141414"/>
</svg>
