<svg width="24" height="24" viewBox="0 0 24 24" fill="none" xmlns="http://www.w3.org/2000/svg">
<path d="M17.5876 16.5113C17.4387 16.5113 17.2991 16.4637 17.1689 16.3687C16.8618 16.1312 16.7966 15.6845 17.0293 15.371C18.2018 13.7746 18.4531 11.6555 17.6993 9.82158C17.5504 9.46049 17.7179 9.04238 18.0715 8.89035C18.4252 8.73831 18.8346 8.90935 18.9835 9.27044C19.9327 11.57 19.607 14.2402 18.146 16.2357C18.0064 16.4162 17.8017 16.5113 17.5876 16.5113Z" fill="#141414"/>
<path d="M19.2906 18.8868C19.1417 18.8868 19.0021 18.8393 18.8719 18.7443C18.5648 18.5068 18.4996 18.0601 18.7323 17.7466C20.7238 15.0384 21.1611 11.4085 19.8769 8.2822C19.728 7.9211 19.8955 7.503 20.2492 7.35096C20.6028 7.19892 21.0122 7.36997 21.1611 7.73106C22.6408 11.323 22.1383 15.485 19.849 18.6018C19.7187 18.7918 19.5047 18.8868 19.2906 18.8868Z" fill="#141414"/>
<path d="M13.9024 12.9099C14.4887 12.3112 15.4938 12.7388 15.4938 13.5845V16.3687C15.4938 18.0031 14.9168 19.2289 13.8838 19.8181C13.465 20.0556 12.9997 20.1697 12.5158 20.1697C11.7713 20.1697 10.971 19.9131 10.1521 19.3905L9.55651 19.0104C9.05398 18.6873 8.97023 17.9651 9.389 17.5375L13.9024 12.9099Z" fill="#141414"/>
<path d="M21.096 2.7138C20.8168 2.42873 20.3608 2.42873 20.0816 2.7138L15.4752 7.41748C15.4193 5.8971 14.861 4.75681 13.8745 4.19617C12.8322 3.60703 11.5015 3.75906 10.1428 4.62378L7.43473 6.35321C7.24861 6.46724 7.03457 6.53376 6.82053 6.53376H5.48977C3.2377 6.53376 2 7.79757 2 10.0971V13.8981C2 16.1977 3.2377 17.4615 5.48977 17.4615H5.63866L2.90269 20.2552C2.6235 20.5403 2.6235 21.0059 2.90269 21.2909C3.05158 21.424 3.2284 21.5 3.41452 21.5C3.60064 21.5 3.77745 21.424 3.91704 21.2814L21.096 3.74006C21.3845 3.45499 21.3845 2.99887 21.096 2.7138Z" fill="#141414"/>
</svg>
