<svg width="24" height="24" viewBox="0 0 24 24" fill="none" xmlns="http://www.w3.org/2000/svg">
<path d="M21.0286 15C20.2476 14.0381 19.0571 13.4286 17.7143 13.4286C16.7048 13.4286 15.7714 13.781 15.0381 14.3714C14.0476 15.1524 13.4286 16.3619 13.4286 17.7143C13.4286 18.5143 13.6571 19.2762 14.0476 19.9238C14.3048 20.3524 14.6286 20.7238 15.0095 21.0286H15.019C15.7524 21.6381 16.6952 22 17.7143 22C18.8 22 19.781 21.6 20.5333 20.9333C20.8667 20.6476 21.1524 20.3048 21.381 19.9238C21.7714 19.2762 22 18.5143 22 17.7143C22 16.6857 21.6381 15.7333 21.0286 15ZM19.8667 17.181L17.581 19.2952C17.4476 19.419 17.2667 19.4857 17.0952 19.4857C16.9143 19.4857 16.7333 19.419 16.5905 19.2762L15.5333 18.219C15.2571 17.9429 15.2571 17.4857 15.5333 17.2095C15.8095 16.9333 16.2667 16.9333 16.5429 17.2095L17.1143 17.781L18.8952 16.1333C19.181 15.8667 19.6381 15.8857 19.9048 16.1714C20.181 16.4667 20.1619 16.9143 19.8667 17.181Z" fill="#141414"/>
<path d="M14.1238 5.67619V2.47619C14.1238 2.20952 13.9143 2 13.6476 2H9.4C9.13333 2 8.92381 2.20952 8.92381 2.47619V5.67619C8.92381 5.94286 9.13333 6.15238 9.4 6.15238H13.6476C13.9143 6.15238 14.1238 5.94286 14.1238 5.67619Z" fill="#141414"/>
<path d="M7 2.01905C4.5619 2.17143 2.89524 3.42857 2.27619 5.52381C2.18095 5.8381 2.40952 6.15238 2.73333 6.15238H7.01905C7.28571 6.15238 7.49524 5.94286 7.49524 5.67619V2.49524C7.49524 2.22857 7.26667 2 7 2.01905Z" fill="#141414"/>
<path d="M16.0476 2.00952C18.4857 2.1619 20.1524 3.41905 20.7714 5.51429C20.8667 5.82857 20.6381 6.14286 20.3143 6.14286H16.0286C15.7619 6.14286 15.5524 5.93333 15.5524 5.66667V2.48571C15.5524 2.21905 15.781 1.99048 16.0476 2.00952Z" fill="#141414"/>
<path d="M21.0476 8.05714V12.2286C21.0476 12.581 20.6762 12.8095 20.3619 12.6476C19.5619 12.2286 18.6476 12 17.7143 12C16.181 12 14.6857 12.6286 13.619 13.7238C12.5714 14.7905 12 16.2095 12 17.7143C12 18.4857 12.3048 19.4762 12.6857 20.3048C12.8381 20.6381 12.6095 21.0476 12.2381 21.0476H7.53333C4.47619 21.0476 2 18.5714 2 15.5143V8.05714C2 7.79048 2.20952 7.58095 2.47619 7.58095H20.5714C20.8381 7.58095 21.0476 7.79048 21.0476 8.05714Z" fill="#141414"/>
</svg>
