<svg width="24" height="24" viewBox="0 0 24 24" fill="none" xmlns="http://www.w3.org/2000/svg">
<path d="M19.33 16.75C19.17 16.75 19.02 16.7 18.88 16.6C18.55 16.35 18.48 15.88 18.73 15.55C20.3 13.46 20.3 10.54 18.73 8.44997C18.48 8.11997 18.55 7.64997 18.88 7.39997C19.21 7.14997 19.68 7.21997 19.93 7.54997C21.9 10.17 21.9 13.83 19.93 16.45C19.79 16.65 19.56 16.75 19.33 16.75Z" fill="#141414"/>
<path d="M15.35 3.77997C14.23 3.15997 12.8 3.31997 11.34 4.22997L8.42002 6.05997C8.22002 6.17997 7.99002 6.24997 7.76002 6.24997H6.33002C3.91002 6.24997 2.58002 7.57997 2.58002 9.99997V14C2.58002 16.42 3.91002 17.75 6.33002 17.75H7.76002C7.99002 17.75 8.22002 17.82 8.42002 17.94L11.34 19.77C12.22 20.32 13.08 20.59 13.88 20.59C14.4 20.59 14.9 20.47 15.35 20.22C16.46 19.6 17.08 18.31 17.08 16.59V7.40997C17.08 5.68997 16.46 4.39997 15.35 3.77997Z" fill="#141414"/>
</svg>
