<svg width="24" height="24" viewBox="0 0 24 24" fill="none" xmlns="http://www.w3.org/2000/svg">
<path d="M17.5288 7.78807C17.5384 7.85459 17.5384 7.93061 17.5288 7.99712C17.5288 7.93061 17.5192 7.86409 17.5192 7.79757L17.5288 7.78807Z" fill="#141414"/>
<path d="M17.0855 6.82833L4.12479 19.609C2.77572 18.7633 2.24572 17.2524 2.24572 15.7986V8.19667C2.24572 4.94686 3.52734 3.68305 6.82293 3.68305H12.6047C15.3895 3.68305 16.729 4.58577 17.0855 6.82833Z" fill="#141414"/>
<path d="M21.0557 2.7138C20.7666 2.42873 20.2944 2.42873 20.0053 2.7138L2.21682 20.2552C1.92773 20.5403 1.92773 21.0059 2.21682 21.2909C2.36136 21.424 2.55408 21.5 2.73717 21.5C2.9299 21.5 3.11298 21.424 3.25753 21.2814L21.0557 3.74006C21.3447 3.45499 21.3447 2.99887 21.0557 2.7138Z" fill="#141414"/>
<path d="M22 8.55776V15.4375C22 16.7963 21.3255 17.338 20.94 17.5375C20.7569 17.6325 20.4678 17.7371 20.1113 17.7371C19.6969 17.7371 19.1862 17.604 18.5888 17.1859L17.1626 16.1977C17.0952 18.2977 16.4206 19.495 14.8885 19.9986C14.2717 20.2172 13.5105 20.3122 12.595 20.3122H6.8133C6.58203 20.3122 6.3604 20.3027 6.12913 20.2742L20.3329 6.27719C20.5835 6.2962 20.7858 6.37222 20.94 6.45774C21.3255 6.65729 22 7.19892 22 8.55776Z" fill="#141414"/>
</svg>
