<svg width="24" height="24" viewBox="0 0 24 24" fill="none" xmlns="http://www.w3.org/2000/svg">
<path d="M21.0286 15C20.2476 14.0381 19.0571 13.4286 17.7143 13.4286C16.7048 13.4286 15.7714 13.781 15.0381 14.3714C14.0476 15.1524 13.4286 16.3619 13.4286 17.7143C13.4286 19.0571 14.0381 20.2476 15 21.0286C15.7333 21.6381 16.6857 22 17.7143 22C18.8 22 19.781 21.5905 20.5429 20.9333C21.4286 20.1429 22 19 22 17.7143C22 16.6857 21.6381 15.7333 21.0286 15ZM18.6952 17.981C18.6952 18.2286 18.5619 18.4667 18.3524 18.5905L17.0095 19.3905C16.8952 19.4571 16.7714 19.4952 16.6381 19.4952C16.4 19.4952 16.1619 19.3714 16.0286 19.1524C15.8286 18.8095 15.9333 18.3714 16.2762 18.1714L17.2667 17.581V16.381C17.2667 15.9905 17.5905 15.6667 17.981 15.6667C18.3714 15.6667 18.6952 15.9905 18.6952 16.381V17.981Z" fill="#141414"/>
<path d="M14.1238 5.67619V2.47619C14.1238 2.20952 13.9143 2 13.6476 2H9.4C9.13333 2 8.92381 2.20952 8.92381 2.47619V5.67619C8.92381 5.94286 9.13333 6.15238 9.4 6.15238H13.6476C13.9143 6.15238 14.1238 5.94286 14.1238 5.67619Z" fill="#141414"/>
<path d="M7 2.01905C4.5619 2.17143 2.89524 3.42857 2.27619 5.52381C2.18095 5.8381 2.40952 6.15238 2.73333 6.15238H7.01905C7.28571 6.15238 7.49524 5.94286 7.49524 5.67619V2.49524C7.49524 2.22857 7.26667 2 7 2.01905Z" fill="#141414"/>
<path d="M16.0476 2.00952C18.4857 2.1619 20.1524 3.41905 20.7714 5.51429C20.8667 5.82857 20.6381 6.14286 20.3143 6.14286H16.0286C15.7619 6.14286 15.5524 5.93333 15.5524 5.66667V2.48571C15.5524 2.21905 15.781 1.99048 16.0476 2.00952Z" fill="#141414"/>
<path d="M21.0476 8.05714V12.2286C21.0476 12.581 20.6762 12.8095 20.3619 12.6476C19.5619 12.2286 18.6476 12 17.7143 12C16.181 12 14.6857 12.6286 13.619 13.7238C12.5714 14.7905 12 16.2095 12 17.7143C12 18.4857 12.3048 19.4762 12.6857 20.3048C12.8381 20.6381 12.6095 21.0476 12.2381 21.0476H7.53333C4.47619 21.0476 2 18.5714 2 15.5143V8.05714C2 7.79048 2.20952 7.58095 2.47619 7.58095H20.5714C20.8381 7.58095 21.0476 7.79048 21.0476 8.05714Z" fill="#141414"/>
</svg>
