<svg width="24" height="24" viewBox="0 0 24 24" fill="none" xmlns="http://www.w3.org/2000/svg">
<path d="M18 16.7499C17.84 16.7499 17.69 16.6999 17.55 16.5999C17.22 16.3499 17.15 15.8799 17.4 15.5499C18.66 13.8699 18.93 11.6399 18.12 9.70988C17.96 9.32988 18.14 8.88988 18.52 8.72988C18.9 8.56988 19.34 8.74988 19.5 9.12988C20.52 11.5499 20.17 14.3599 18.6 16.4599C18.45 16.6499 18.23 16.7499 18 16.7499Z" fill="#141414"/>
<path d="M19.83 19.2499C19.67 19.2499 19.52 19.1999 19.38 19.0999C19.05 18.8499 18.98 18.3799 19.23 18.0499C21.37 15.1999 21.84 11.3799 20.46 8.08988C20.3 7.70988 20.48 7.26988 20.86 7.10988C21.24 6.94988 21.68 7.12988 21.84 7.50988C23.43 11.2899 22.89 15.6699 20.43 18.9499C20.29 19.1499 20.06 19.2499 19.83 19.2499Z" fill="#141414"/>
<path d="M14.04 12.9599C14.67 12.3299 15.75 12.7799 15.75 13.6699V16.5999C15.75 18.3199 15.13 19.6099 14.02 20.2299C13.57 20.4799 13.07 20.5999 12.55 20.5999C11.75 20.5999 10.89 20.3299 10.01 19.7799L9.37 19.3799C8.83 19.0399 8.74 18.2799 9.19 17.8299L14.04 12.9599Z" fill="#141414"/>
<path d="M21.77 2.22988C21.47 1.92988 20.98 1.92988 20.68 2.22988L15.73 7.17988C15.67 5.57988 15.07 4.37988 14.01 3.78988C12.89 3.16988 11.46 3.32988 10 4.23988L7.09 6.05988C6.89 6.17988 6.66 6.24988 6.43 6.24988H5C2.58 6.24988 1.25 7.57988 1.25 9.99988V13.9999C1.25 16.4199 2.58 17.7499 5 17.7499H5.16L2.22 20.6899C1.92 20.9899 1.92 21.4799 2.22 21.7799C2.38 21.9199 2.57 21.9999 2.77 21.9999C2.97 21.9999 3.16 21.9199 3.31 21.7699L21.77 3.30988C22.08 3.00988 22.08 2.52988 21.77 2.22988Z" fill="#141414"/>
</svg>
