<svg width="24" height="24" viewBox="0 0 24 24" fill="none" xmlns="http://www.w3.org/2000/svg">
<path d="M21.3023 12.6991H17.5814C17.2 12.6991 16.8837 12.3825 16.8837 12.0007C16.8837 11.6189 17.2 11.3023 17.5814 11.3023H21.3023C21.6837 11.3023 22 11.6189 22 12.0007C22 12.3825 21.6837 12.6991 21.3023 12.6991Z" fill="#141414"/>
<path d="M13.8791 4.34597C12.8372 3.76861 11.507 3.91761 10.1488 4.76503L7.43256 6.46918C7.24651 6.58093 7.03256 6.64612 6.8186 6.64612H5.48837C3.23721 6.64612 2 7.88466 2 10.1382V13.8632C2 16.1168 3.23721 17.3553 5.48837 17.3553H6.8186C7.03256 17.3553 7.24651 17.4205 7.43256 17.5322L10.1488 19.2364C10.9674 19.7486 11.7674 20 12.5116 20C12.9953 20 13.4605 19.8883 13.8791 19.6554C14.9116 19.0781 15.4884 17.8768 15.4884 16.2751V7.72635C15.4884 6.12463 14.9116 4.92334 13.8791 4.34597Z" fill="#141414"/>
</svg>
