<svg width="24" height="24" viewBox="0 0 24 24" fill="none" xmlns="http://www.w3.org/2000/svg">
<path d="M21.3023 11.3023H20.1395V10.1382C20.1395 9.75644 19.8233 9.43982 19.4419 9.43982C19.0605 9.43982 18.7442 9.75644 18.7442 10.1382V11.3023H17.5814C17.2 11.3023 16.8837 11.6189 16.8837 12.0007C16.8837 12.3825 17.2 12.6991 17.5814 12.6991H18.7442V13.8632C18.7442 14.245 19.0605 14.5616 19.4419 14.5616C19.8233 14.5616 20.1395 14.245 20.1395 13.8632V12.6991H21.3023C21.6837 12.6991 22 12.3825 22 12.0007C22 11.6189 21.6837 11.3023 21.3023 11.3023Z" fill="#141414"/>
<path d="M13.8791 4.34597C12.8372 3.76861 11.507 3.91761 10.1488 4.76503L7.43256 6.46918C7.24651 6.58093 7.03256 6.64612 6.8186 6.64612H5.48837C3.23721 6.64612 2 7.88466 2 10.1382V13.8632C2 16.1168 3.23721 17.3553 5.48837 17.3553H6.8186C7.03256 17.3553 7.24651 17.4205 7.43256 17.5322L10.1488 19.2364C10.9674 19.7486 11.7674 20 12.5116 20C12.9953 20 13.4605 19.8883 13.8791 19.6554C14.9116 19.0781 15.4884 17.8768 15.4884 16.2751V7.72635C15.4884 6.12463 14.9116 4.92334 13.8791 4.34597Z" fill="#141414"/>
</svg>
