<svg width="24" height="24" viewBox="0 0 24 24" fill="none" xmlns="http://www.w3.org/2000/svg">
<path d="M17.74 7.56988C17.75 7.63988 17.75 7.71988 17.74 7.78988C17.74 7.71988 17.73 7.64988 17.73 7.57988L17.74 7.56988Z" fill="#141414"/>
<path d="M17.28 6.55988L3.83 20.0099C2.43 19.1199 1.88 17.5299 1.88 15.9999V7.99988C1.88 4.57988 3.21 3.24988 6.63 3.24988H12.63C15.52 3.24988 16.91 4.19988 17.28 6.55988Z" fill="#141414"/>
<path d="M21.4 2.22988C21.1 1.92988 20.61 1.92988 20.31 2.22988L1.85 20.6899C1.55 20.9899 1.55 21.4799 1.85 21.7799C2 21.9199 2.2 21.9999 2.39 21.9999C2.59 21.9999 2.78 21.9199 2.93 21.7699L21.4 3.30988C21.7 3.00988 21.7 2.52988 21.4 2.22988Z" fill="#141414"/>
<path d="M22.38 8.37988V15.6199C22.38 17.0499 21.68 17.6199 21.28 17.8299C21.09 17.9299 20.79 18.0399 20.42 18.0399C19.99 18.0399 19.46 17.8999 18.84 17.4599L17.36 16.4199C17.29 18.6299 16.59 19.8899 15 20.4199C14.36 20.6499 13.57 20.7499 12.62 20.7499H6.62C6.38 20.7499 6.15 20.7399 5.91 20.7099L20.65 5.97988C20.91 5.99988 21.12 6.07988 21.28 6.16988C21.68 6.37988 22.38 6.94988 22.38 8.37988Z" fill="#141414"/>
</svg>
