<svg width="24" height="24" viewBox="0 0 24 24" fill="none" xmlns="http://www.w3.org/2000/svg">
<path d="M18.4717 2.43247C17.1586 1.71076 15.4821 1.89701 13.7703 2.95628L10.3469 5.08648C10.1124 5.22616 9.84276 5.30765 9.5731 5.30765H7.89655C5.05931 5.30765 3.5 6.85582 3.5 9.6728V14.329C3.5 17.1459 5.05931 18.6941 7.89655 18.6941H9.5731C9.84276 18.6941 10.1124 18.7756 10.3469 18.9153L13.7703 21.0455C14.8021 21.6857 15.8103 22 16.7483 22C17.3579 22 17.9441 21.8603 18.4717 21.5693C19.7731 20.8476 20.5 19.346 20.5 17.3438V6.65794C20.5 4.65578 19.7731 3.15417 18.4717 2.43247Z" fill="#141414"/>
</svg>
