<svg width="24" height="24" viewBox="0 0 24 24" fill="none" xmlns="http://www.w3.org/2000/svg">
<path d="M7.79962 22C5.14973 22 2.98981 19.8818 2.98981 17.2611V14.4631C2.98981 13.803 3.64979 13.3596 4.27976 13.5764C4.53975 13.665 4.79974 13.7241 5.06973 13.7635C5.18973 13.7833 5.30972 13.803 5.42972 13.803C5.57971 13.8227 5.7397 13.8325 5.8897 13.8325C6.99965 13.8325 8.09961 13.4286 8.96958 12.7291C9.79954 13.4286 10.8695 13.8325 12.0095 13.8325C13.1494 13.8325 14.2094 13.4483 15.0393 12.7389C15.8993 13.4286 16.9793 13.8325 18.0792 13.8325C18.2492 13.8325 18.4292 13.8227 18.5892 13.803C18.7092 13.7931 18.8092 13.7833 18.9192 13.7635C19.2192 13.7241 19.4892 13.6453 19.7591 13.5567C20.3791 13.3498 21.0291 13.803 21.0291 14.4433V17.2611C21.0291 19.8719 18.8792 22 16.2193 22H7.79962Z" fill="#141414"/>
<path d="M21.9791 8.64039L21.6991 6.0197C21.2991 3.16256 19.9791 2 17.1592 2H6.81966C3.99977 2 2.68982 3.16256 2.27984 6.04926L2.01985 8.65025C1.91986 9.66503 2.19984 10.6502 2.80982 11.4187C3.53979 12.3547 4.65975 12.8867 5.9097 12.8867C7.11965 12.8867 8.2796 12.2857 9.00957 11.33C9.65955 12.2857 10.7795 12.8867 12.0195 12.8867C13.2594 12.8867 14.3494 12.3153 15.0093 11.3695C15.7493 12.3054 16.8893 12.8867 18.0892 12.8867C19.3692 12.8867 20.5191 12.3251 21.2391 11.3399C21.8191 10.5813 22.0791 9.62562 21.9791 8.64039ZM13.4994 7.7931H12.7494V8.56158C12.7494 8.97537 12.4094 9.30049 11.9995 9.30049C11.5895 9.30049 11.2495 8.97537 11.2495 8.56158V7.7931H10.4995C10.0895 7.7931 9.74954 7.46798 9.74954 7.05419C9.74954 6.65025 10.0895 6.31527 10.4995 6.31527H11.2495V5.61576C11.2495 5.21182 11.5895 4.87685 11.9995 4.87685C12.4094 4.87685 12.7494 5.21182 12.7494 5.61576V6.31527H13.4994C13.9094 6.31527 14.2494 6.65025 14.2494 7.05419C14.2494 7.46798 13.9094 7.7931 13.4994 7.7931Z" fill="#141414"/>
</svg>
