<svg width="24" height="24" viewBox="0 0 24 24" fill="none" xmlns="http://www.w3.org/2000/svg">
<path d="M19.24 5.58006H18.84L15.46 2.20006C15.19 1.93006 14.75 1.93006 14.47 2.20006C14.2 2.47006 14.2 2.91006 14.47 3.19006L16.86 5.58006H7.14L9.53 3.19006C9.8 2.92006 9.8 2.48006 9.53 2.20006C9.26 1.93006 8.82 1.93006 8.54 2.20006L5.17 5.58006H4.77C3.87 5.58006 2 5.58006 2 8.14006C2 9.11006 2.2 9.75006 2.62 10.1701C2.86 10.4201 3.15 10.5501 3.46 10.6201C3.75 10.6901 4.06 10.7001 4.36 10.7001H19.64C19.95 10.7001 20.24 10.6801 20.52 10.6201C21.36 10.4201 22 9.82006 22 8.14006C22 5.58006 20.13 5.58006 19.24 5.58006Z" fill="#141414"/>
<path d="M19.09 12.0001H4.91C4.29 12.0001 3.82 12.5501 3.92 13.1601L4.76 18.3001C5.04 20.0201 5.79 22.0001 9.12 22.0001H14.73C18.1 22.0001 18.7 20.3101 19.06 18.4201L20.07 13.1901C20.19 12.5701 19.72 12.0001 19.09 12.0001ZM14.88 16.0501L11.63 19.0501C11.49 19.1801 11.31 19.2501 11.12 19.2501C10.93 19.2501 10.74 19.1801 10.59 19.0301L9.09 17.5301C8.8 17.2401 8.8 16.7601 9.09 16.4701C9.39 16.1801 9.86 16.1801 10.16 16.4701L11.15 17.4601L13.87 14.9501C14.17 14.6701 14.65 14.6901 14.93 14.9901C15.21 15.3001 15.19 15.7701 14.88 16.0501Z" fill="#141414"/>
</svg>
