<svg width="24" height="24" viewBox="0 0 24 24" fill="none" xmlns="http://www.w3.org/2000/svg">
<path d="M20.1009 8.96153C19.419 8.22161 18.3911 7.79166 16.9664 7.64168V6.88177C16.9664 5.51193 16.3761 4.19209 15.338 3.27219C14.2898 2.3323 12.9261 1.89235 11.5115 2.02234C9.07921 2.25231 7.03364 4.56204 7.03364 7.06175V7.64168C5.60886 7.79166 4.58099 8.22161 3.89913 8.96153C2.91196 10.0414 2.9425 11.4812 3.05444 12.4811L3.76683 18.0505C3.98055 20.0002 4.78453 22 9.16062 22H14.8394C19.2155 22 20.0195 20.0002 20.2332 18.0605L20.9456 12.4711C21.0575 11.4812 21.088 10.0414 20.1009 8.96153ZM11.654 3.41218C12.6717 3.32219 13.6385 3.63215 14.3916 4.30207C15.1345 4.96199 15.5518 5.90188 15.5518 6.88177V7.58169H8.44824V7.06175C8.44824 5.28196 9.94425 3.57216 11.654 3.41218ZM12 18.5804C9.87301 18.5804 8.14293 16.8806 8.14293 14.7908C8.14293 12.7011 9.87301 11.0013 12 11.0013C14.127 11.0013 15.8571 12.7011 15.8571 14.7908C15.8571 16.8806 14.127 18.5804 12 18.5804Z" fill="#141414"/>
<path d="M13.6283 15.3108L13.0889 14.7808L13.5978 14.2809C13.8929 13.9909 13.8929 13.511 13.5978 13.221C13.3027 12.9311 12.8142 12.9311 12.519 13.221L12.0102 13.721L11.4708 13.191C11.1757 12.9011 10.6872 12.9011 10.392 13.191C10.0969 13.481 10.0969 13.9609 10.392 14.2509L10.9314 14.7808L10.3717 15.3308C10.0766 15.6207 10.0766 16.1007 10.3717 16.3907C10.5243 16.5406 10.7177 16.6106 10.9111 16.6106C11.1044 16.6106 11.2978 16.5406 11.4504 16.3907L12.0102 15.8407L12.5496 16.3707C12.7022 16.5206 12.8956 16.5906 13.0889 16.5906C13.2823 16.5906 13.4757 16.5206 13.6283 16.3707C13.9234 16.0807 13.9234 15.6107 13.6283 15.3108Z" fill="#141414"/>
</svg>
