<svg width="24" height="24" viewBox="0 0 24 24" fill="none" xmlns="http://www.w3.org/2000/svg">
<path d="M20.1009 8.96153C19.419 8.22161 18.3911 7.79166 16.9664 7.64168V6.88177C16.9664 5.51193 16.3761 4.19209 15.338 3.27219C14.2898 2.3323 12.9261 1.89235 11.5115 2.02234C9.07921 2.25231 7.03364 4.56204 7.03364 7.06175V7.64168C5.60886 7.79166 4.58099 8.22161 3.89913 8.96153C2.91196 10.0414 2.9425 11.4812 3.05444 12.4811L3.76683 18.0505C3.98055 20.0002 4.78453 22 9.16062 22H14.8394C19.2155 22 20.0195 20.0002 20.2332 18.0605L20.9456 12.4711C21.0575 11.4812 21.088 10.0414 20.1009 8.96153ZM11.654 3.41218C12.6717 3.32219 13.6385 3.63215 14.3916 4.30207C15.1345 4.96199 15.5518 5.90188 15.5518 6.88177V7.58169H8.44824V7.06175C8.44824 5.28196 9.94425 3.57216 11.654 3.41218ZM12 18.5804C9.87301 18.5804 8.14293 16.8806 8.14293 14.7908C8.14293 12.7011 9.87301 11.0013 12 11.0013C14.127 11.0013 15.8571 12.7011 15.8571 14.7908C15.8571 16.8806 14.127 18.5804 12 18.5804Z" fill="#141414"/>
<path d="M10.9823 16.5806C10.7279 16.5806 10.4735 16.4506 10.331 16.2207C10.1173 15.8707 10.2292 15.4008 10.5956 15.1908L11.5013 14.6609V13.581C11.5013 13.171 11.8473 12.8311 12.2646 12.8311C12.6819 12.8311 13.0177 13.161 13.0177 13.581V15.0808C13.0177 15.3408 12.8752 15.5908 12.6513 15.7207L11.3792 16.4706C11.2571 16.5406 11.1146 16.5806 10.9823 16.5806Z" fill="#141414"/>
</svg>
