<svg width="24" height="24" viewBox="0 0 24 24" fill="none" xmlns="http://www.w3.org/2000/svg">
<path d="M19.24 5.58006H18.84L15.46 2.20006C15.19 1.93006 14.75 1.93006 14.47 2.20006C14.2 2.47006 14.2 2.91006 14.47 3.19006L16.86 5.58006H7.14L9.53 3.19006C9.8 2.92006 9.8 2.48006 9.53 2.20006C9.26 1.93006 8.82 1.93006 8.54 2.20006L5.17 5.58006H4.77C3.87 5.58006 2 5.58006 2 8.14006C2 9.11006 2.2 9.75006 2.62 10.1701C2.86 10.4201 3.15 10.5501 3.46 10.6201C3.75 10.6901 4.06 10.7001 4.36 10.7001H19.64C19.95 10.7001 20.24 10.6801 20.52 10.6201C21.36 10.4201 22 9.82006 22 8.14006C22 5.58006 20.13 5.58006 19.24 5.58006Z" fill="#141414"/>
<path d="M19.05 12.0001H4.87C4.25 12.0001 3.78 12.5501 3.88 13.1601L4.72 18.3001C5 20.0201 5.75 22.0001 9.08 22.0001H14.69C18.06 22.0001 18.66 20.3101 19.02 18.4201L20.03 13.1901C20.15 12.5701 19.68 12.0001 19.05 12.0001ZM12 19.5001C9.66 19.5001 7.75 17.5901 7.75 15.2501C7.75 14.8401 8.09 14.5001 8.5 14.5001C8.91 14.5001 9.25 14.8401 9.25 15.2501C9.25 16.7701 10.48 18.0001 12 18.0001C13.52 18.0001 14.75 16.7701 14.75 15.2501C14.75 14.8401 15.09 14.5001 15.5 14.5001C15.91 14.5001 16.25 14.8401 16.25 15.2501C16.25 17.5901 14.34 19.5001 12 19.5001Z" fill="#141414"/>
</svg>
