<svg width="24" height="24" viewBox="0 0 24 24" fill="none" xmlns="http://www.w3.org/2000/svg">
<path d="M20.1024 8.96153C19.4205 8.22161 18.3925 7.79166 16.9676 7.64168V6.88177C16.9676 5.51193 16.3773 4.19209 15.3391 3.27219C14.2908 2.3323 12.927 1.89235 11.5123 2.02234C9.07975 2.25231 7.034 4.56204 7.034 7.06175V7.64168C5.60909 7.79166 4.58113 8.22161 3.89921 8.96153C2.91196 10.0414 2.94249 11.4812 3.05445 12.4811L3.7669 18.0505C3.98063 20.0002 4.78469 22 9.16117 22H14.8404C19.2169 22 20.021 20.0002 20.2347 18.0605L20.9471 12.4711C21.0591 11.4812 21.0795 10.0414 20.1024 8.96153ZM11.6547 3.41218C12.6725 3.32219 13.6394 3.63215 14.3926 4.30207C15.1356 4.96199 15.5529 5.90188 15.5529 6.88177V7.58169H8.44872V7.06175C8.44872 5.28196 9.94487 3.57216 11.6547 3.41218ZM8.35712 13.151H8.34694C7.78716 13.151 7.32915 12.7011 7.32915 12.1512C7.32915 11.6012 7.78716 11.1513 8.34694 11.1513C8.9169 11.1513 9.37491 11.6012 9.37491 12.1512C9.37491 12.7011 8.9169 13.151 8.35712 13.151ZM15.4816 13.151H15.4715C14.9117 13.151 14.4537 12.7011 14.4537 12.1512C14.4537 11.6012 14.9117 11.1513 15.4715 11.1513C16.0414 11.1513 16.4994 11.6012 16.4994 12.1512C16.4994 12.7011 16.0414 13.151 15.4816 13.151Z" fill="#141414"/>
</svg>
