<svg width="24" height="24" viewBox="0 0 24 24" fill="none" xmlns="http://www.w3.org/2000/svg">
<path d="M21.4814 8.64458L21.2166 6.02272C20.8331 3.16422 19.5823 2 16.9071 2H7.08283C4.39851 2 3.15678 3.16422 2.76418 6.05111L2.51766 8.65405C2.42635 9.66682 2.69113 10.6512 3.26634 11.4179C3.96025 12.3549 5.0285 12.885 6.21545 12.885C7.36587 12.885 8.47065 12.2887 9.16455 11.3327C9.78542 12.2887 10.8445 12.885 12.0224 12.885C13.2002 12.885 14.2319 12.3171 14.8619 11.3706C15.5649 12.3076 16.6514 12.885 17.7836 12.885C18.9979 12.885 20.0936 12.3266 20.7784 11.3422C21.3262 10.585 21.5727 9.62896 21.4814 8.64458Z" fill="#141414"/>
<path d="M11.4289 16.5859C10.2693 16.7089 9.39281 17.7312 9.39281 18.9427V21.5362C9.39281 21.7918 9.59368 22 9.8402 22H14.1954C14.4419 22 14.6428 21.7918 14.6428 21.5362V19.274C14.6519 17.2958 13.5289 16.3587 11.4289 16.5859Z" fill="#141414"/>
<path d="M20.5775 14.4468V17.2674C20.5775 19.8798 18.5323 22 16.0123 22C15.7658 22 15.5649 21.7918 15.5649 21.5362V19.274C15.5649 18.0625 15.2088 17.116 14.5149 16.4723C13.9032 15.8949 13.0723 15.611 12.0406 15.611C11.8124 15.611 11.5841 15.6204 11.3376 15.6488C9.71237 15.8192 8.47978 17.239 8.47978 18.9427V21.5362C8.47978 21.7918 8.27891 22 8.03239 22C5.51241 22 3.46721 19.8798 3.46721 17.2674V14.4657C3.46721 13.8031 4.09721 13.3583 4.69068 13.576C4.9372 13.6611 5.18372 13.7274 5.43937 13.7653C5.54893 13.7842 5.66763 13.8031 5.77719 13.8031C5.92328 13.8221 6.06936 13.8315 6.21545 13.8315C7.27457 13.8315 8.31543 13.4245 9.13716 12.7241C9.92237 13.4245 10.945 13.8315 12.0224 13.8315C13.1089 13.8315 14.1132 13.4434 14.8984 12.743C15.7201 13.434 16.7427 13.8315 17.7836 13.8315C17.948 13.8315 18.1123 13.8221 18.2675 13.8031C18.3771 13.7937 18.4775 13.7842 18.5779 13.7653C18.861 13.7274 19.1166 13.6422 19.3723 13.557C19.9658 13.3488 20.5775 13.8031 20.5775 14.4468Z" fill="#141414"/>
</svg>
