<svg width="24" height="24" viewBox="0 0 24 24" fill="none" xmlns="http://www.w3.org/2000/svg">
<path d="M19.24 5.58006H18.84L15.46 2.20006C15.19 1.93006 14.75 1.93006 14.47 2.20006C14.2 2.47006 14.2 2.91006 14.47 3.19006L16.86 5.58006H7.14L9.53 3.19006C9.8 2.92006 9.8 2.48006 9.53 2.20006C9.26 1.93006 8.82 1.93006 8.54 2.20006L5.17 5.58006H4.77C3.87 5.58006 2 5.58006 2 8.14006C2 9.11006 2.2 9.75006 2.62 10.1701C2.86 10.4201 3.15 10.5501 3.46 10.6201C3.75 10.6901 4.06 10.7001 4.36 10.7001H19.64C19.95 10.7001 20.24 10.6801 20.52 10.6201C21.36 10.4201 22 9.82006 22 8.14006C22 5.58006 20.13 5.58006 19.24 5.58006Z" fill="#141414"/>
<path d="M19.09 12.0001H4.91C4.29 12.0001 3.82 12.5501 3.92 13.1601L4.76 18.3001C5.04 20.0201 5.79 22.0001 9.12 22.0001H14.73C18.1 22.0001 18.7 20.3101 19.06 18.4201L20.07 13.1901C20.19 12.5701 19.72 12.0001 19.09 12.0001ZM13.92 18.8901C13.78 19.0401 13.59 19.1101 13.39 19.1101C13.2 19.1101 13.01 19.0401 12.86 18.8901L12.02 18.0401L11.14 18.9201C10.99 19.0701 10.8 19.1401 10.61 19.1401C10.41 19.1401 10.22 19.0701 10.08 18.9201C9.78 18.6301 9.78 18.1601 10.08 17.8601L10.96 16.9801L10.11 16.1401C9.81 15.8401 9.81 15.3701 10.11 15.0801C10.4 14.7801 10.87 14.7801 11.17 15.0801L12.02 15.9201L12.83 15.1101C13.13 14.8101 13.6 14.8101 13.89 15.1101C14.19 15.4001 14.19 15.8701 13.89 16.1701L13.08 16.9801L13.92 17.8301C14.22 18.1301 14.22 18.6001 13.92 18.8901Z" fill="#141414"/>
</svg>
