<svg width="24" height="24" viewBox="0 0 24 24" fill="none" xmlns="http://www.w3.org/2000/svg">
<path d="M22.36 8.27L22.07 5.5C21.65 2.48 20.28 1.25 17.35 1.25H6.59002C3.65002 1.25 2.29002 2.48 1.86002 5.53L1.59002 8.28C1.49002 9.35 1.78002 10.39 2.41002 11.2C3.17002 12.19 4.34002 12.75 5.64002 12.75C6.90002 12.75 8.11002 12.12 8.87002 11.11C9.55002 12.12 10.71 12.75 12 12.75C13.29 12.75 14.42 12.15 15.11 11.15C15.88 12.14 17.07 12.75 18.31 12.75C19.64 12.75 20.84 12.16 21.59 11.12C22.19 10.32 22.46 9.31 22.36 8.27Z" fill="#141414"/>
<path d="M11.35 16.66C10.08 16.79 9.12002 17.87 9.12002 19.15V21.89C9.12002 22.16 9.34002 22.38 9.61002 22.38H14.38C14.65 22.38 14.87 22.16 14.87 21.89V19.5C14.88 17.41 13.65 16.42 11.35 16.66Z" fill="#141414"/>
<path d="M21.37 14.4V17.38C21.37 20.14 19.13 22.38 16.37 22.38C16.1 22.38 15.88 22.16 15.88 21.89V19.5C15.88 18.22 15.49 17.22 14.73 16.54C14.06 15.93 13.15 15.63 12.02 15.63C11.77 15.63 11.52 15.64 11.25 15.67C9.47002 15.85 8.12002 17.35 8.12002 19.15V21.89C8.12002 22.16 7.90002 22.38 7.63002 22.38C4.87002 22.38 2.63002 20.14 2.63002 17.38V14.42C2.63002 13.72 3.32002 13.25 3.97002 13.48C4.24002 13.57 4.51002 13.64 4.79002 13.68C4.91002 13.7 5.04002 13.72 5.16002 13.72C5.32002 13.74 5.48002 13.75 5.64002 13.75C6.80002 13.75 7.94002 13.32 8.84002 12.58C9.70002 13.32 10.82 13.75 12 13.75C13.19 13.75 14.29 13.34 15.15 12.6C16.05 13.33 17.17 13.75 18.31 13.75C18.49 13.75 18.67 13.74 18.84 13.72C18.96 13.71 19.07 13.7 19.18 13.68C19.49 13.64 19.77 13.55 20.05 13.46C20.7 13.24 21.37 13.72 21.37 14.4Z" fill="#141414"/>
</svg>
