<svg width="24" height="24" viewBox="0 0 24 24" fill="none" xmlns="http://www.w3.org/2000/svg">
<path d="M7.79997 22.1501C5.14997 22.1501 2.98997 20.0001 2.98997 17.3401V14.5001C2.98997 13.8301 3.64997 13.3801 4.27997 13.6001C4.53997 13.6901 4.79997 13.7501 5.06997 13.7901C5.18997 13.8101 5.30997 13.8301 5.42997 13.8301C5.57997 13.8501 5.73997 13.8601 5.88997 13.8601C6.99997 13.8601 8.09997 13.4501 8.96997 12.7401C9.79997 13.4501 10.87 13.8601 12.01 13.8601C13.15 13.8601 14.21 13.4701 15.04 12.7501C15.9 13.4501 16.98 13.8601 18.08 13.8601C18.25 13.8601 18.43 13.8501 18.59 13.8301C18.71 13.8201 18.81 13.8101 18.92 13.7901C19.22 13.7501 19.49 13.6701 19.76 13.5801C20.38 13.3701 21.03 13.8301 21.03 14.4801V17.3401C21.03 19.9901 18.88 22.1501 16.22 22.1501H7.79997Z" fill="#141414"/>
<path d="M21.98 8.5901L21.7 5.9301C21.3 3.0301 19.98 1.8501 17.17 1.8501H6.81997C3.99997 1.8501 2.68997 3.0301 2.27997 5.9601L2.01997 8.6001C1.91997 9.6301 2.19997 10.6301 2.80997 11.4101C3.53997 12.3601 4.65997 12.9001 5.90997 12.9001C7.11997 12.9001 8.27997 12.2901 9.01997 11.3201C9.66997 12.2901 10.78 12.9001 12.02 12.9001C13.26 12.9001 14.35 12.3201 15.01 11.3601C15.75 12.3101 16.9 12.9001 18.09 12.9001C19.37 12.9001 20.52 12.3301 21.24 11.3301C21.82 10.5601 22.08 9.5901 21.98 8.5901ZM13.5 7.7301H10.5C10.09 7.7301 9.74997 7.4001 9.74997 6.9801C9.74997 6.5701 10.09 6.2301 10.5 6.2301H13.5C13.91 6.2301 14.25 6.5701 14.25 6.9801C14.25 7.4001 13.91 7.7301 13.5 7.7301Z" fill="#141414"/>
</svg>
