<svg width="24" height="24" viewBox="0 0 24 24" fill="none" xmlns="http://www.w3.org/2000/svg">
<path d="M16.5334 22C17.4376 22 18.1707 21.2626 18.1707 20.3529C18.1707 19.4433 17.4376 18.7059 16.5334 18.7059C15.6292 18.7059 14.8962 19.4433 14.8962 20.3529C14.8962 21.2626 15.6292 22 16.5334 22Z" fill="#141414"/>
<path d="M9.04893 22C9.95315 22 10.6862 21.2626 10.6862 20.3529C10.6862 19.4433 9.95315 18.7059 9.04893 18.7059C8.14471 18.7059 7.4117 19.4433 7.4117 20.3529C7.4117 21.2626 8.14471 22 9.04893 22Z" fill="#141414"/>
<path d="M5.85867 4.53176L5.67155 6.83765C5.63413 7.28 5.98029 7.64706 6.42 7.64706H20.7435C21.1364 7.64706 21.4638 7.34588 21.4919 6.95059C21.6135 5.28471 20.3505 3.92941 18.6946 3.92941H7.19652C7.10296 3.51529 6.91585 3.12 6.62583 2.79059C6.15805 2.29176 5.50315 2 4.82955 2H3.20167C2.81809 2 2.5 2.32 2.5 2.70588C2.5 3.09176 2.81809 3.41176 3.20167 3.41176H4.82955C5.11957 3.41176 5.39089 3.53412 5.58735 3.74118C5.78382 3.95765 5.87738 4.24 5.85867 4.53176Z" fill="#141414"/>
<path d="M20.5189 9.05882H6.1674C5.77447 9.05882 5.45637 9.36 5.41895 9.74588L5.08215 13.84C4.95117 15.4494 6.20482 16.8235 7.80464 16.8235H18.2081C19.6114 16.8235 20.8464 15.6659 20.9493 14.2541L21.258 9.85882C21.2954 9.42588 20.9586 9.05882 20.5189 9.05882Z" fill="#141414"/>
</svg>
