<svg width="24" height="24" viewBox="0 0 24 24" fill="none" xmlns="http://www.w3.org/2000/svg">
<path d="M15.9835 9.22892C15.5749 9.22892 15.2361 8.90121 15.2361 8.50602V5.13253C15.2361 4.09157 14.5684 3.44578 13.4921 3.44578H10.5023C9.42596 3.44578 8.75824 4.09157 8.75824 5.13253V8.50602C8.75824 8.90121 8.4194 9.22892 8.01079 9.22892C7.60219 9.22892 7.26335 8.90121 7.26335 8.50602V5.13253C7.26335 3.29157 8.59878 2 10.5023 2H13.4921C15.3956 2 16.731 3.29157 16.731 5.13253V8.50602C16.731 8.90121 16.3921 9.22892 15.9835 9.22892Z" fill="#141414"/>
<path d="M8.01079 17.9325C7.60219 17.9325 7.26335 17.6048 7.26335 17.2096C7.26335 16.8048 7.60219 16.4867 8.01079 16.4867H19.7307C20.0297 16.4867 20.2589 16.2361 20.229 15.947L19.5513 10.4627C19.3122 8.59277 18.9733 7.06024 15.5849 7.06024H8.40943C5.02101 7.06024 4.68217 8.59277 4.45295 10.4627L3.55602 17.6916C3.26701 20.0627 4.02442 22 7.52246 22H16.4719C19.6211 22 20.5479 20.4289 20.4981 18.3855C20.4881 18.1253 20.2689 17.9325 19.9998 17.9325H8.01079Z" fill="#141414"/>
</svg>
