<svg width="24" height="24" viewBox="0 0 24 24" fill="none" xmlns="http://www.w3.org/2000/svg">
<path d="M21.3023 4.36761H2.69767C2.31628 4.36761 2 4.05762 2 3.6838C2 3.30999 2.31628 3 2.69767 3H21.3023C21.6837 3 22 3.30999 22 3.6838C22 4.05762 21.6837 4.36761 21.3023 4.36761Z" fill="#141414"/>
<path d="M4.25116 3.6838V14.5973C4.25116 15.4908 4.67907 16.3387 5.41395 16.8767L10.2605 20.4324C11.293 21.1892 12.7163 21.1892 13.7488 20.4324L18.5954 16.8767C19.3302 16.3387 19.7581 15.4908 19.7581 14.5973V3.6838H4.25116ZM15.7209 13.9409H8.27907C7.89767 13.9409 7.5814 13.6309 7.5814 13.2571C7.5814 12.8832 7.89767 12.5733 8.27907 12.5733H15.7209C16.1023 12.5733 16.4186 12.8832 16.4186 13.2571C16.4186 13.6309 16.1023 13.9409 15.7209 13.9409ZM15.7209 9.38217H8.27907C7.89767 9.38217 7.5814 9.07218 7.5814 8.69837C7.5814 8.32455 7.89767 8.01456 8.27907 8.01456H15.7209C16.1023 8.01456 16.4186 8.32455 16.4186 8.69837C16.4186 9.07218 16.1023 9.38217 15.7209 9.38217Z" fill="#141414"/>
</svg>
