<svg width="24" height="24" viewBox="0 0 24 24" fill="none" xmlns="http://www.w3.org/2000/svg">
<path d="M14.4282 2H9.57176C8.49713 2 7.61883 2.882 7.61883 3.974V4.961C7.61883 6.053 8.4868 6.935 9.56142 6.935H14.4282C15.5029 6.935 16.3708 6.053 16.3708 4.961V3.974C16.3812 2.882 15.5029 2 14.4282 2Z" fill="#141414"/>
<path d="M17.4145 4.961C17.4145 6.6305 16.0712 7.9955 14.4282 7.9955H9.57176C7.92882 7.9955 6.58553 6.6305 6.58553 4.961C6.58553 4.373 5.96556 4.0055 5.44891 4.2785C3.99196 5.066 3 6.6305 3 8.426V18.3065C3 20.8895 5.07692 23 7.61883 23H16.3812C18.9231 23 21 20.8895 21 18.3065V8.426C21 6.6305 20.008 5.066 18.5511 4.2785C18.0344 4.0055 17.4145 4.373 17.4145 4.961ZM15.4512 13.2665L11.318 17.4665C11.163 17.624 10.9667 17.6975 10.7704 17.6975C10.5741 17.6975 10.3777 17.624 10.2227 17.4665L8.67279 15.8915C8.37313 15.587 8.37313 15.083 8.67279 14.7785C8.97245 14.474 9.46843 14.474 9.76808 14.7785L10.7704 15.797L14.3559 12.1535C14.6556 11.849 15.1516 11.849 15.4512 12.1535C15.7509 12.458 15.7509 12.962 15.4512 13.2665Z" fill="#141414"/>
</svg>
