<svg width="24" height="24" viewBox="0 0 24 24" fill="none" xmlns="http://www.w3.org/2000/svg">
<path d="M14.8291 2.2C14.449 1.80952 13.7909 2.07619 13.7909 2.61905V5.94286C13.7909 7.33333 14.9403 8.48571 16.3401 8.48571C17.2208 8.49524 18.4444 8.49524 19.4919 8.49524C20.0203 8.49524 20.2984 7.85714 19.9276 7.47619C18.5927 6.09524 16.2011 3.60952 14.8291 2.2Z" fill="#141414"/>
<path d="M13.865 18.4381C11.6866 18.6 11.6866 21.8381 13.865 22H19.0191C19.6402 22 20.252 21.7619 20.7063 21.3333C22.2358 19.9619 21.4201 17.219 19.4085 16.9619C18.6854 12.4952 12.4004 14.1905 13.8836 18.4476" fill="#141414"/>
<path d="M20.113 10.7524V13.8476C20.113 14.1333 19.7051 14.2667 19.5012 14.0667C19.0562 13.619 18.5093 13.2762 17.8789 13.0762C16.3216 12.581 14.5139 13.0667 13.3922 14.2857C12.6414 15.0857 12.2613 16.1048 12.2706 17.2095C12.2706 17.3905 12.1871 17.5524 12.0481 17.6571C11.3065 18.2381 10.843 19.1524 10.843 20.2095C10.843 20.2857 10.843 20.3619 10.8523 20.4381C10.8708 20.7429 10.6576 21.0381 10.3517 21.0381H7.66339C4.80823 21.0381 2.5 19.1333 2.5 15.7333V7.30476C2.5 3.90476 4.80823 2 7.66339 2H11.5939C12.1037 2 12.5209 2.42857 12.5209 2.95238V5.70476C12.5209 7.97143 14.3007 9.8 16.507 9.8H19.186C19.6958 9.8 20.113 10.2286 20.113 10.7524Z" fill="#141414"/>
</svg>
