<svg width="24" height="24" viewBox="0 0 24 24" fill="none" xmlns="http://www.w3.org/2000/svg">
<path d="M14.4282 2H9.57176C8.49713 2 7.61883 2.84 7.61883 3.88V4.82C7.61883 5.86 8.4868 6.7 9.56142 6.7H14.4282C15.5029 6.7 16.3708 5.86 16.3708 4.82V3.88C16.3812 2.84 15.5029 2 14.4282 2Z" fill="#141414"/>
<path d="M17.4145 4.82C17.4145 6.41 16.0712 7.71 14.4282 7.71H9.57176C7.92882 7.71 6.58553 6.41 6.58553 4.82C6.58553 4.26 5.96556 3.91 5.44891 4.17C3.99196 4.92 3 6.41 3 8.12V17.53C3 19.99 5.07692 22 7.61883 22H16.3812C18.9231 22 21 19.99 21 17.53V8.12C21 6.41 20.008 4.92 18.5511 4.17C18.0344 3.91 17.4145 4.26 17.4145 4.82ZM15.6475 17.53C15.4925 17.68 15.2962 17.75 15.0999 17.75C14.9036 17.75 14.7072 17.68 14.5522 17.53L9.67509 12.81V14C9.67509 14.41 9.32377 14.75 8.90012 14.75C8.47646 14.75 8.12514 14.41 8.12514 14V11C8.12514 10.59 8.47646 10.25 8.90012 10.25H12C12.4237 10.25 12.775 10.59 12.775 11C12.775 11.41 12.4237 11.75 12 11.75H10.7704L15.6475 16.47C15.9472 16.76 15.9472 17.24 15.6475 17.53Z" fill="#141414"/>
</svg>
