<svg width="24" height="24" viewBox="0 0 24 24" fill="none" xmlns="http://www.w3.org/2000/svg">
<path d="M14.4282 2H9.57176C8.49713 2 7.61883 2.84 7.61883 3.88V4.82C7.61883 5.86 8.4868 6.7 9.56142 6.7H14.4282C15.5029 6.7 16.3708 5.86 16.3708 4.82V3.88C16.3812 2.84 15.5029 2 14.4282 2Z" fill="#141414"/>
<path d="M17.4145 4.82C17.4145 6.41 16.0712 7.71 14.4282 7.71H9.57176C7.92882 7.71 6.58553 6.41 6.58553 4.82C6.58553 4.26 5.96556 3.91 5.44891 4.17C3.99196 4.92 3 6.41 3 8.12V17.53C3 19.99 5.07692 22 7.61883 22H16.3812C18.9231 22 21 19.99 21 17.53V8.12C21 6.41 20.008 4.92 18.5511 4.17C18.0344 3.91 17.4145 4.26 17.4145 4.82ZM12.3927 16.95H7.86682C7.44317 16.95 7.09185 16.61 7.09185 16.2C7.09185 15.79 7.44317 15.45 7.86682 15.45H12.3927C12.8163 15.45 13.1676 15.79 13.1676 16.2C13.1676 16.61 12.8163 16.95 12.3927 16.95ZM15.0999 12.95H7.86682C7.44317 12.95 7.09185 12.61 7.09185 12.2C7.09185 11.79 7.44317 11.45 7.86682 11.45H15.0999C15.5235 11.45 15.8749 11.79 15.8749 12.2C15.8749 12.61 15.5235 12.95 15.0999 12.95Z" fill="#141414"/>
</svg>
