<svg width="24" height="24" viewBox="0 0 24 24" fill="none" xmlns="http://www.w3.org/2000/svg">
<path d="M14.2933 2H9.70666C8.69173 2 7.86223 2.84 7.86223 3.88V4.82C7.86223 5.86 8.68198 6.7 9.6969 6.7H14.2933C15.3083 6.7 16.128 5.86 16.128 4.82V3.88C16.1378 2.84 15.3083 2 14.2933 2Z" fill="#141414"/>
<path d="M17.1137 4.82C17.1137 6.41 15.845 7.71 14.2933 7.71H9.70666C8.15499 7.71 6.88634 6.41 6.88634 4.82C6.88634 4.26 6.3008 3.91 5.81286 4.17C4.43685 4.92 3.5 6.41 3.5 8.12V17.53C3.5 19.99 5.46154 22 7.86223 22H16.1378C18.5385 22 20.5 19.99 20.5 17.53V8.12C20.5 6.41 19.5631 4.92 18.1871 4.17C17.6992 3.91 17.1137 4.26 17.1137 4.82ZM15.6596 17C15.6596 17.41 15.3278 17.75 14.9277 17.75H12C11.5999 17.75 11.2681 17.41 11.2681 17C11.2681 16.59 11.5999 16.25 12 16.25H13.1613L8.55511 11.53C8.2721 11.24 8.2721 10.76 8.55511 10.47C8.83812 10.18 9.30654 10.18 9.58955 10.47L14.1958 15.19V14C14.1958 13.59 14.5276 13.25 14.9277 13.25C15.3278 13.25 15.6596 13.59 15.6596 14V17Z" fill="#141414"/>
</svg>
