<svg width="24" height="24" viewBox="0 0 24 24" fill="none" xmlns="http://www.w3.org/2000/svg">
<path d="M14.4282 2H9.57176C8.49713 2 7.61883 2.84 7.61883 3.88V4.82C7.61883 5.86 8.4868 6.7 9.56142 6.7H14.4282C15.5029 6.7 16.3708 5.86 16.3708 4.82V3.88C16.3812 2.84 15.5029 2 14.4282 2Z" fill="#141414"/>
<path d="M17.4145 4.82C17.4145 6.41 16.0712 7.71 14.4282 7.71H9.57176C7.92882 7.71 6.58553 6.41 6.58553 4.82C6.58553 4.26 5.96556 3.91 5.44891 4.17C3.99196 4.92 3 6.41 3 8.12V17.53C3 19.99 5.07692 22 7.61883 22H16.3812C18.9231 22 21 19.99 21 17.53V8.12C21 6.41 20.008 4.92 18.5511 4.17C18.0344 3.91 17.4145 4.26 17.4145 4.82ZM14.6142 16.69C14.4592 16.84 14.2629 16.91 14.0666 16.91C13.8703 16.91 13.6739 16.84 13.5189 16.69L12.0207 15.24L10.4811 16.73C10.3261 16.88 10.1297 16.95 9.93341 16.95C9.73708 16.95 9.54076 16.88 9.38576 16.73C9.08611 16.44 9.08611 15.96 9.38576 15.67L10.9254 14.18L9.4271 12.73C9.12744 12.44 9.12744 11.96 9.4271 11.67C9.72675 11.38 10.2227 11.38 10.5224 11.67L12.0207 13.12L13.4673 11.72C13.7669 11.43 14.2629 11.43 14.5626 11.72C14.8622 12.01 14.8622 12.49 14.5626 12.78L13.116 14.18L14.6142 15.63C14.9139 15.92 14.9139 16.39 14.6142 16.69Z" fill="#141414"/>
</svg>
