<svg width="24" height="24" viewBox="0 0 24 24" fill="none" xmlns="http://www.w3.org/2000/svg">
<path d="M21 8.12V17.53C21 19.99 18.9231 22 16.3812 22H7.61883C5.07692 22 3 19.99 3 17.53V8.12C3 6.41 3.99196 4.92 5.44891 4.17C5.95522 3.91 6.58553 4.26 6.58553 4.82C6.58553 6.41 7.92882 7.71 9.57176 7.71H14.4282C16.0712 7.71 17.4145 6.41 17.4145 4.82C17.4145 4.26 18.0344 3.91 18.5511 4.17C20.008 4.92 21 6.41 21 8.12Z" fill="#141414"/>
<path d="M14.4282 2H9.57176C8.49713 2 7.61883 2.84 7.61883 3.88V4.82C7.61883 5.86 8.4868 6.7 9.56142 6.7H14.4282C15.5029 6.7 16.3708 5.86 16.3708 4.82V3.88C16.3812 2.84 15.5029 2 14.4282 2Z" fill="#141414"/>
</svg>
