<svg width="24" height="24" viewBox="0 0 24 24" fill="none" xmlns="http://www.w3.org/2000/svg">
<path d="M14.35 2H9.64999C8.60999 2 7.75999 2.84 7.75999 3.88V4.82C7.75999 5.86 8.59999 6.7 9.63999 6.7H14.35C15.39 6.7 16.23 5.86 16.23 4.82V3.88C16.24 2.84 15.39 2 14.35 2Z" fill="#141414"/>
<path d="M17.24 4.82C17.24 6.41 15.94 7.71 14.35 7.71H9.64999C8.05999 7.71 6.75999 6.41 6.75999 4.82C6.75999 4.26 6.15999 3.91 5.65999 4.17C4.24999 4.92 3.28999 6.41 3.28999 8.12V17.53C3.28999 19.99 5.29999 22 7.75999 22H16.24C18.7 22 20.71 19.99 20.71 17.53V8.12C20.71 6.41 19.75 4.92 18.34 4.17C17.84 3.91 17.24 4.26 17.24 4.82ZM14.53 16.69C14.38 16.84 14.19 16.91 14 16.91C13.81 16.91 13.62 16.84 13.47 16.69L12.02 15.24L10.53 16.73C10.38 16.88 10.19 16.95 9.99999 16.95C9.80999 16.95 9.61999 16.88 9.46999 16.73C9.17999 16.44 9.17999 15.96 9.46999 15.67L10.96 14.18L9.50999 12.73C9.21999 12.44 9.21999 11.96 9.50999 11.67C9.79999 11.38 10.28 11.38 10.57 11.67L12.02 13.12L13.42 11.72C13.71 11.43 14.19 11.43 14.48 11.72C14.77 12.01 14.77 12.49 14.48 12.78L13.08 14.18L14.53 15.63C14.82 15.92 14.82 16.39 14.53 16.69Z" fill="#141414"/>
</svg>
