<svg width="24" height="24" viewBox="0 0 24 24" fill="none" xmlns="http://www.w3.org/2000/svg">
<path d="M20.71 8.12V17.53C20.71 19.99 18.7 22 16.24 22H7.76001C5.30001 22 3.29001 19.99 3.29001 17.53V8.12C3.29001 6.41 4.25001 4.92 5.66001 4.17C6.15001 3.91 6.76001 4.26 6.76001 4.82C6.76001 6.41 8.06001 7.71 9.65001 7.71H14.35C15.94 7.71 17.24 6.41 17.24 4.82C17.24 4.26 17.84 3.91 18.34 4.17C19.75 4.92 20.71 6.41 20.71 8.12Z" fill="#141414"/>
<path d="M14.35 2H9.65001C8.61001 2 7.76001 2.84 7.76001 3.88V4.82C7.76001 5.86 8.60001 6.7 9.64001 6.7H14.35C15.39 6.7 16.23 5.86 16.23 4.82V3.88C16.24 2.84 15.39 2 14.35 2Z" fill="#141414"/>
</svg>
