<svg width="24" height="24" viewBox="0 0 24 24" fill="none" xmlns="http://www.w3.org/2000/svg">
<path d="M16.1971 2H7.8129C4.17108 2 2 4.17 2 7.81V16.18C2 19.83 4.17108 22 7.8129 22H16.1871C19.8289 22 22 19.83 22 16.19V7.81C22.01 4.17 19.8389 2 16.1971 2ZM10.9545 17.51C10.6643 17.8 10.114 18.08 9.71384 18.14L7.25262 18.49C7.16257 18.5 7.07253 18.51 6.98248 18.51C6.57228 18.51 6.19209 18.37 5.92195 18.1C5.59179 17.77 5.45172 17.29 5.53176 16.76L5.88193 14.3C5.94196 13.89 6.2121 13.35 6.51225 13.06L10.9745 8.6C11.0545 8.81 11.1346 9.02 11.2446 9.26C11.3447 9.47 11.4547 9.69 11.5748 9.89C11.6748 10.06 11.7849 10.22 11.8749 10.34C11.985 10.51 12.115 10.67 12.1951 10.76C12.2451 10.83 12.2851 10.88 12.3051 10.9C12.5553 11.2 12.8454 11.48 13.0955 11.69C13.1656 11.76 13.2056 11.8 13.2256 11.81C13.3757 11.93 13.5257 12.05 13.6558 12.14C13.8159 12.26 13.976 12.37 14.1461 12.46C14.3462 12.58 14.5663 12.69 14.7864 12.8C15.0165 12.9 15.2266 12.99 15.4367 13.06L10.9545 17.51ZM17.3777 11.09L16.4572 12.02C16.3972 12.08 16.3171 12.11 16.2371 12.11C16.2071 12.11 16.1671 12.11 16.147 12.1C14.116 11.52 12.4952 9.9 11.9149 7.87C11.8849 7.76 11.9149 7.64 11.995 7.57L12.9254 6.64C14.4462 5.12 15.8969 5.15 17.3877 6.64C18.148 7.4 18.5182 8.13 18.5182 8.89C18.5082 9.61 18.138 10.33 17.3777 11.09Z" fill="#141414"/>
</svg>
