<svg width="24" height="24" viewBox="0 0 24 24" fill="none" xmlns="http://www.w3.org/2000/svg">
<path d="M21.2308 22H2.76923C2.34872 22 2 21.6599 2 21.2498C2 20.8396 2.34872 20.4995 2.76923 20.4995H21.2308C21.6513 20.4995 22 20.8396 22 21.2498C22 21.6599 21.6513 22 21.2308 22Z" fill="#141414"/>
<path d="M19.2 3.47427C17.2103 1.53367 15.2615 1.48365 13.2205 3.47427L11.9795 4.68464C11.8769 4.78467 11.8359 4.94472 11.8769 5.08476C12.6564 7.73559 14.8308 9.85624 17.5487 10.6165C17.5897 10.6265 17.6308 10.6365 17.6718 10.6365C17.7846 10.6365 17.8872 10.5965 17.9692 10.5164L19.2 9.30607C20.2154 8.32577 20.7077 7.37547 20.7077 6.41518C20.7179 5.42487 20.2256 4.46457 19.2 3.47427Z" fill="#141414"/>
<path d="M15.7026 11.5268C15.4051 11.3867 15.118 11.2467 14.841 11.0866C14.6154 10.9566 14.4 10.8165 14.1846 10.6665C14.0103 10.5565 13.8051 10.3964 13.6103 10.2364C13.5897 10.2264 13.5179 10.1663 13.4359 10.0863C13.0974 9.80623 12.7179 9.44611 12.3795 9.04599C12.3487 9.02598 12.2974 8.95596 12.2256 8.86593C12.1231 8.7459 11.9487 8.54584 11.7949 8.31576C11.6718 8.16572 11.5282 7.94565 11.3949 7.72558C11.2308 7.4555 11.0872 7.18541 10.9436 6.90533C10.9219 6.85992 10.9008 6.81474 10.8805 6.76982C10.7291 6.4364 10.2833 6.33892 10.0189 6.59676L4.14359 12.327C4.01026 12.457 3.88718 12.7071 3.85641 12.8772L3.30256 16.7084C3.2 17.3886 3.39487 18.0288 3.82564 18.4589C4.19487 18.809 4.70769 18.9991 5.26154 18.9991C5.38462 18.9991 5.50769 18.9891 5.63077 18.9691L9.56923 18.4289C9.75385 18.3989 10.0103 18.2788 10.1333 18.1488L16.0013 12.4257C16.2676 12.1661 16.1671 11.7205 15.8209 11.5764C15.7819 11.5602 15.7425 11.5436 15.7026 11.5268Z" fill="#141414"/>
</svg>
