<svg width="24" height="24" viewBox="0 0 24 24" fill="none" xmlns="http://www.w3.org/2000/svg">
<path d="M3.6685 2H11.392C12.038 2 12.5605 2.53333 12.5605 3.19048V4.49524C12.5605 4.97143 12.266 5.5619 11.9715 5.85714L9.4635 8.12381C9.112 8.41905 8.884 9.00952 8.884 9.48571V12.0381C8.884 12.3905 8.6465 12.8667 8.3615 13.0476L7.535 13.5905C6.775 14.0667 5.7205 13.5333 5.7205 12.581V9.42857C5.7205 9.00952 5.483 8.47619 5.255 8.18095L3.032 5.8C2.7375 5.50476 2.5 4.97143 2.5 4.61905V3.24762C2.5 2.53333 3.0225 2 3.6685 2Z" fill="#141414"/>
<path d="M16.75 2.95238H14.47C14.204 2.95238 13.995 3.1619 13.995 3.42857C13.995 3.88571 13.995 4.49524 13.995 4.49524C13.995 5.4381 13.4915 6.36191 12.9975 6.86667L10.4135 9.18095C10.385 9.24762 10.3375 9.34286 10.309 9.41905V12.0381C10.309 12.9048 9.796 13.8476 9.093 14.2762L8.314 14.781C7.877 15.0571 7.3925 15.1905 6.908 15.1905C6.471 15.1905 6.034 15.0762 5.635 14.8571C5.14341 14.5842 4.77224 14.1724 4.54545 13.6891C4.42957 13.4422 4.4 13.1662 4.4 12.8933V10.7714C4.4 10.6476 4.3525 10.5238 4.2575 10.4381L3.3075 9.48571C3.013 9.18095 2.5 9.39048 2.5 9.81905V17.2381C2.5 19.8667 4.628 22 7.25 22H16.75C19.372 22 21.5 19.8667 21.5 17.2381V7.71429C21.5 5.08571 19.372 2.95238 16.75 2.95238ZM17.7 17.9524H11.05C10.6605 17.9524 10.3375 17.6286 10.3375 17.2381C10.3375 16.8476 10.6605 16.5238 11.05 16.5238H17.7C18.0895 16.5238 18.4125 16.8476 18.4125 17.2381C18.4125 17.6286 18.0895 17.9524 17.7 17.9524ZM17.7 14.1429H12.95C12.5605 14.1429 12.2375 13.819 12.2375 13.4286C12.2375 13.0381 12.5605 12.7143 12.95 12.7143H17.7C18.0895 12.7143 18.4125 13.0381 18.4125 13.4286C18.4125 13.819 18.0895 14.1429 17.7 14.1429Z" fill="#141414"/>
</svg>
