<svg width="24" height="24" viewBox="0 0 24 24" fill="none" xmlns="http://www.w3.org/2000/svg">
<path d="M7.70238 4.06897V2.68966C7.70238 2.31264 7.39476 2 7.02381 2C6.65286 2 6.34524 2.31264 6.34524 2.68966V4.12414C6.57143 4.09655 6.77952 4.06897 7.02381 4.06897H7.70238Z" fill="#141414"/>
<path d="M14.9405 4.12414V2.68966C14.9405 2.31264 14.6329 2 14.2619 2C13.891 2 13.5833 2.31264 13.5833 2.68966V4.06897H14.2619C14.5062 4.06897 14.7143 4.09655 14.9405 4.12414Z" fill="#141414"/>
<path d="M19.9529 14.6161C19.2562 14.0552 18.3786 13.7241 17.4286 13.7241C16.4786 13.7241 15.5829 14.0644 14.8862 14.6345C13.9452 15.3885 13.3571 16.5655 13.3571 17.8621C13.3571 18.6345 13.5743 19.3793 13.9452 19.9862C14.2348 20.4644 14.6057 20.8874 15.049 21.2092C15.7186 21.7057 16.5329 22 17.4286 22C18.46 22 19.3919 21.6138 20.1067 20.9701C20.4233 20.7034 20.6948 20.3724 20.9119 19.9954C21.2829 19.3793 21.5 18.6345 21.5 17.8621C21.5 16.5471 20.8938 15.3701 19.9529 14.6161ZM17.4286 19.8299C17.4286 18.7448 16.56 17.8621 15.4924 17.8621C16.56 17.8621 17.4286 16.9793 17.4286 15.8943C17.4286 16.9793 18.2971 17.8621 19.3648 17.8621C18.2971 17.8621 17.4286 18.7448 17.4286 19.8299Z" fill="#141414"/>
<path d="M14.9405 4.12414V5.44828C14.9405 5.82529 14.6329 6.13793 14.2619 6.13793C13.891 6.13793 13.5833 5.82529 13.5833 5.44828V4.06897H7.70238V5.44828C7.70238 5.82529 7.39476 6.13793 7.02381 6.13793C6.65286 6.13793 6.34524 5.82529 6.34524 5.44828V4.12414C3.67619 4.37241 2.5 6.11954 2.5 8.66667V16.4828C2.5 19.2414 3.85714 21.0805 7.02381 21.0805H10.7605C11.4481 21.0805 11.9095 20.2989 11.7376 19.6184C11.611 19.1218 11.5476 18.6069 11.5476 18.092C11.5476 16.1793 12.389 14.4138 13.8457 13.246C14.9043 12.3724 16.2614 11.8851 17.6548 11.8851H17.691C18.261 11.8851 18.7857 11.4621 18.7857 10.8828V8.66667C18.7857 6.11954 17.6095 4.37241 14.9405 4.12414ZM8.83333 16.2529H7.02381C6.65286 16.2529 6.34524 15.9402 6.34524 15.5632C6.34524 15.1862 6.65286 14.8736 7.02381 14.8736H8.83333C9.20429 14.8736 9.5119 15.1862 9.5119 15.5632C9.5119 15.9402 9.20429 16.2529 8.83333 16.2529ZM11.5476 11.6552H7.02381C6.65286 11.6552 6.34524 11.3425 6.34524 10.9655C6.34524 10.5885 6.65286 10.2759 7.02381 10.2759H11.5476C11.9186 10.2759 12.2262 10.5885 12.2262 10.9655C12.2262 11.3425 11.9186 11.6552 11.5476 11.6552Z" fill="#141414"/>
</svg>
