<svg width="24" height="24" viewBox="0 0 24 24" fill="none" xmlns="http://www.w3.org/2000/svg">
<path d="M20.9 9.84999L21.49 19.74C21.51 20.01 21.38 20.19 21.31 20.27C21.23 20.36 21.06 20.5 20.78 20.5H18.05L20.21 9.84999H20.9ZM22 5.99999L21.99 6.01999C22.01 6.25999 21.99 6.50999 21.93 6.75999L14.56 20.29C14.32 21.3 13.42 22 12.38 22H20.78C22.07 22 23.09 20.91 22.99 19.62L22 5.99999Z" fill="#141414"/>
<path d="M11.45 2.23999C11.55 1.83999 11.3 1.42999 10.9 1.32999C10.5 1.23999 10.09 1.47999 9.99 1.87999L9.49 3.94999H11.03L11.45 2.23999Z" fill="#141414"/>
<path d="M18.05 2.20999C18.14 1.79999 17.88 1.40999 17.47 1.31999C17.07 1.22999 16.67 1.48999 16.58 1.89999L16.13 3.96999H17.67L18.05 2.20999Z" fill="#141414"/>
<path d="M21.82 5.32999C21.49 4.52999 20.71 3.95999 19.75 3.95999H17.67L17.11 6.54999C17.03 6.89999 16.72 7.13999 16.38 7.13999C16.33 7.13999 16.27 7.13999 16.22 7.11999C15.82 7.02999 15.56 6.62999 15.64 6.22999L16.13 3.94999H11.03L10.4 6.54999C10.32 6.88999 10.01 7.11999 9.67 7.11999C9.61 7.11999 9.55 7.10999 9.49 7.09999C9.09 6.99999 8.84 6.59999 8.94 6.18999L9.48 3.93999H7.45C6.47 3.93999 5.6 4.57999 5.31 5.51999L1.1 19.07C0.659999 20.52 1.73 22 3.24 22H16.38C17.42 22 18.32 21.3 18.56 20.29L21.93 6.75999C21.99 6.50999 22.01 6.25999 21.99 6.01999C21.97 5.77999 21.92 5.53999 21.82 5.32999ZM14.7 16.75H6.7C6.29 16.75 5.95 16.41 5.95 16C5.95 15.59 6.29 15.25 6.7 15.25H14.7C15.11 15.25 15.45 15.59 15.45 16C15.45 16.41 15.11 16.75 14.7 16.75ZM15.7 12.75H7.7C7.29 12.75 6.95 12.41 6.95 12C6.95 11.59 7.29 11.25 7.7 11.25H15.7C16.11 11.25 16.45 11.59 16.45 12C16.45 12.41 16.11 12.75 15.7 12.75Z" fill="#141414"/>
</svg>
