<svg width="24" height="24" viewBox="0 0 24 24" fill="none" xmlns="http://www.w3.org/2000/svg">
<path d="M20.0935 10.3466L20.63 19.4254C20.6482 19.6732 20.53 19.8385 20.4663 19.9119C20.3936 19.9945 20.239 20.123 19.9844 20.123H17.5022L19.4662 10.3466H20.0935ZM21.0937 6.81245L21.0846 6.83081C21.1028 7.05113 21.0846 7.28062 21.0301 7.51011L14.329 19.9303C14.1108 20.8574 13.2925 21.5 12.3469 21.5H19.9844C21.1573 21.5 22.0848 20.4994 21.9938 19.3152L21.0937 6.81245Z" fill="#141414"/>
<path d="M11.5013 3.36088C11.5922 2.99369 11.3649 2.61732 11.0012 2.52553C10.6375 2.44291 10.2647 2.66322 10.1738 3.03041L9.71918 4.93061H11.1194L11.5013 3.36088Z" fill="#141414"/>
<path d="M17.5022 3.33334C17.5841 2.95697 17.3477 2.59896 16.9749 2.51635C16.6112 2.43373 16.2475 2.6724 16.1656 3.04877L15.7565 4.94897H17.1567L17.5022 3.33334Z" fill="#141414"/>
<path d="M20.93 6.19741C20.63 5.46304 19.9208 4.93979 19.0479 4.93979H17.1567L16.6475 7.31734C16.5748 7.63863 16.2929 7.85894 15.9838 7.85894C15.9383 7.85894 15.8838 7.85894 15.8383 7.84058C15.4746 7.75796 15.2382 7.39078 15.311 7.02359L15.7565 4.93061H11.1194L10.5466 7.31734C10.4738 7.62945 10.192 7.84058 9.88284 7.84058C9.82829 7.84058 9.77373 7.8314 9.71918 7.82222C9.35548 7.73043 9.12817 7.36324 9.2191 6.98687L9.71008 4.92143H7.86434C6.97329 4.92143 6.18225 5.50893 5.91858 6.37183L2.0907 18.8103C1.69064 20.1414 2.66352 21.5 4.03646 21.5H15.9838C16.9294 21.5 17.7477 20.8574 17.9659 19.9303L21.0301 7.51011C21.0846 7.28062 21.1028 7.05113 21.0846 6.83081C21.0664 6.6105 21.021 6.39019 20.93 6.19741ZM14.4563 16.6806H7.18241C6.80963 16.6806 6.50049 16.3685 6.50049 15.9922C6.50049 15.6158 6.80963 15.3037 7.18241 15.3037H14.4563C14.8291 15.3037 15.1382 15.6158 15.1382 15.9922C15.1382 16.3685 14.8291 16.6806 14.4563 16.6806ZM15.3655 13.0088H8.09165C7.71886 13.0088 7.40972 12.6967 7.40972 12.3203C7.40972 11.9439 7.71886 11.6318 8.09165 11.6318H15.3655C15.7383 11.6318 16.0474 11.9439 16.0474 12.3203C16.0474 12.6967 15.7383 13.0088 15.3655 13.0088Z" fill="#141414"/>
</svg>
