<svg width="24" height="24" viewBox="0 0 24 24" fill="none" xmlns="http://www.w3.org/2000/svg">
<path d="M8.93056 4.16867V2.72289C8.93056 2.32771 8.60944 2 8.22222 2C7.835 2 7.51389 2.32771 7.51389 2.72289V4.22651C7.75 4.19759 7.96722 4.16867 8.22222 4.16867H8.93056Z" fill="#141414"/>
<path d="M16.4861 4.22651V2.72289C16.4861 2.32771 16.165 2 15.7778 2C15.3906 2 15.0694 2.32771 15.0694 2.72289V4.16867H15.7778C16.0328 4.16867 16.25 4.19759 16.4861 4.22651Z" fill="#141414"/>
<path d="M16.4861 4.22651V5.61446C16.4861 6.00964 16.165 6.33735 15.7778 6.33735C15.3906 6.33735 15.0694 6.00964 15.0694 5.61446V4.16867H8.93056V5.61446C8.93056 6.00964 8.60944 6.33735 8.22222 6.33735C7.835 6.33735 7.51389 6.00964 7.51389 5.61446V4.22651C4.72778 4.48675 3.5 6.31807 3.5 8.98795V17.1807C3.5 20.0723 4.91667 22 8.22222 22H15.7778C19.0833 22 20.5 20.0723 20.5 17.1807V8.98795C20.5 6.31807 19.2722 4.48675 16.4861 4.22651ZM12 16.9398H8.22222C7.835 16.9398 7.51389 16.612 7.51389 16.2169C7.51389 15.8217 7.835 15.494 8.22222 15.494H12C12.3872 15.494 12.7083 15.8217 12.7083 16.2169C12.7083 16.612 12.3872 16.9398 12 16.9398ZM15.7778 12.1205H8.22222C7.835 12.1205 7.51389 11.7928 7.51389 11.3976C7.51389 11.0024 7.835 10.6747 8.22222 10.6747H15.7778C16.165 10.6747 16.4861 11.0024 16.4861 11.3976C16.4861 11.7928 16.165 12.1205 15.7778 12.1205Z" fill="#141414"/>
</svg>
