<svg width="24" height="24" viewBox="0 0 24 24" fill="none" xmlns="http://www.w3.org/2000/svg">
<path d="M6.84878 2H3.98049C2.74146 2 2 2.72381 2 3.93333V6.73333C2 7.94286 2.74146 8.66667 3.98049 8.66667H6.84878C8.0878 8.66667 8.82927 7.94286 8.82927 6.73333V3.93333C8.82927 2.72381 8.0878 2 6.84878 2ZM7.33659 6.34286C7.58049 6.58095 7.58049 6.97143 7.33659 7.20952C7.20976 7.32381 7.0439 7.38095 6.8878 7.38095C6.73171 7.38095 6.57561 7.32381 6.44878 7.20952L5.40488 6.2L4.39024 7.20952C4.26341 7.32381 4.10732 7.38095 3.93171 7.38095C3.77561 7.38095 3.61951 7.32381 3.49268 7.20952C3.24878 6.97143 3.24878 6.58095 3.49268 6.34286L4.53659 5.33333L3.50244 4.33333C3.25854 4.09524 3.25854 3.70476 3.50244 3.46667C3.74634 3.22857 4.14634 3.22857 4.39024 3.46667L5.40488 4.47619L6.43902 3.46667C6.68293 3.22857 7.08293 3.22857 7.32683 3.46667C7.57073 3.70476 7.57073 4.09524 7.32683 4.33333L6.30244 5.33333L7.33659 6.34286Z" fill="#141414"/>
<path d="M22 16.1143C22 16.2571 21.9512 16.4 21.8244 16.5238C20.4098 17.9143 17.8927 20.3905 16.4488 21.8095C16.322 21.9429 16.1561 22 15.9902 22C15.6683 22 15.3561 21.7524 15.3561 21.3905V18.0571C15.3561 16.6667 16.5659 15.5143 18.0488 15.5143C18.9756 15.5048 20.2634 15.5048 21.3659 15.5048C21.7463 15.5048 22 15.8 22 16.1143Z" fill="#141414"/>
<path d="M22 16.1143C22 16.2571 21.9512 16.4 21.8244 16.5238C20.4098 17.9143 17.8927 20.3905 16.4488 21.8095C16.322 21.9429 16.1561 22 15.9902 22C15.6683 22 15.3561 21.7524 15.3561 21.3905V18.0571C15.3561 16.6667 16.5659 15.5143 18.0488 15.5143C18.9756 15.5048 20.2634 15.5048 21.3659 15.5048C21.7463 15.5048 22 15.8 22 16.1143Z" fill="#141414"/>
<path d="M17.2488 2.95238H11.2683C10.7317 2.95238 10.2927 3.38095 10.2927 3.90476V7.2381C10.2927 8.81905 8.98537 10.0952 7.36585 10.0952H4.43902C3.90244 10.0952 3.46341 10.5238 3.46341 11.0476V17.3619C3.46341 19.9238 5.59024 22 8.21463 22H12.9171C13.4537 22 13.8927 21.5714 13.8927 21.0476V18.0571C13.8927 15.8667 15.7561 14.0857 18.0488 14.0857C18.5659 14.0762 19.8244 14.0762 21.0244 14.0762C21.561 14.0762 22 13.6571 22 13.1238V7.59048C22 5.02857 19.8732 2.95238 17.2488 2.95238ZM9.53171 17.2476H6.9561C6.5561 17.2476 6.22439 16.9238 6.22439 16.5333C6.22439 16.1333 6.5561 15.8095 6.9561 15.8095H9.53171C9.95122 15.8095 10.2634 16.1333 10.2634 16.5333C10.2634 16.9238 9.95122 17.2476 9.53171 17.2476ZM12.2537 13.7143H6.9561C6.5561 13.7143 6.22439 13.3905 6.22439 13C6.22439 12.6 6.5561 12.2762 6.9561 12.2762H12.2537C12.6537 12.2762 12.9951 12.6 12.9951 13C12.9951 13.3905 12.6537 13.7143 12.2537 13.7143Z" fill="#141414"/>
</svg>
