<svg width="24" height="24" viewBox="0 0 24 24" fill="none" xmlns="http://www.w3.org/2000/svg">
<path d="M21.0703 20.2797H10.7868C10.2766 20.2797 9.85714 19.8577 9.85714 19.3445C9.85714 18.8313 10.2766 18.4094 10.7868 18.4094H21.0703C21.5805 18.4094 22 18.8313 22 19.3445C22 19.8691 21.5805 20.2797 21.0703 20.2797Z" fill="#141414"/>
<path d="M21.0703 13.1062H10.7868C10.2766 13.1062 9.85714 12.6843 9.85714 12.1711C9.85714 11.6579 10.2766 11.2359 10.7868 11.2359H21.0703C21.5805 11.2359 22 11.6579 22 12.1711C22 12.6843 21.5805 13.1062 21.0703 13.1062Z" fill="#141414"/>
<path d="M21.0703 5.92137H10.7868C10.2766 5.92137 9.85714 5.4994 9.85714 4.98619C9.85714 4.47299 10.2766 4.05102 10.7868 4.05102H21.0703C21.5805 4.05102 22 4.47299 22 4.98619C22 5.4994 21.5805 5.92137 21.0703 5.92137Z" fill="#141414"/>
<path d="M3.96145 7.47239C3.71202 7.47239 3.47392 7.36975 3.30385 7.19868L2.27211 6.16086C1.9093 5.79592 1.9093 5.20288 2.27211 4.83793C2.63492 4.47299 3.22449 4.47299 3.5873 4.83793L3.96145 5.21429L6.38776 2.77371C6.75057 2.40876 7.34014 2.40876 7.70295 2.77371C8.06576 3.13866 8.06576 3.73169 7.70295 4.09664L4.61905 7.19868C4.43764 7.36975 4.21088 7.47239 3.96145 7.47239Z" fill="#141414"/>
<path d="M3.96145 14.6573C3.72336 14.6573 3.48526 14.566 3.30385 14.3836L2.27211 13.3457C1.9093 12.9808 1.9093 12.3878 2.27211 12.0228C2.63492 11.6579 3.22449 11.6579 3.5873 12.0228L3.96145 12.3992L6.38776 9.95858C6.75057 9.59364 7.34014 9.59364 7.70295 9.95858C8.06576 10.3235 8.06576 10.9166 7.70295 11.2815L4.61905 14.3836C4.43764 14.566 4.19955 14.6573 3.96145 14.6573Z" fill="#141414"/>
<path d="M3.96145 21.5C3.72336 21.5 3.48526 21.4088 3.30385 21.2263L2.27211 20.1885C1.9093 19.8235 1.9093 19.2305 2.27211 18.8655C2.63492 18.5006 3.22449 18.5006 3.5873 18.8655L3.96145 19.2419L6.38776 16.8013C6.75057 16.4364 7.34014 16.4364 7.70295 16.8013C8.06576 17.1663 8.06576 17.7593 7.70295 18.1243L4.61905 21.2263C4.43764 21.4088 4.19955 21.5 3.96145 21.5Z" fill="#141414"/>
</svg>
