<svg width="24" height="24" viewBox="0 0 24 24" fill="none" xmlns="http://www.w3.org/2000/svg">
<path d="M22 16.8529C22 17.2147 21.6837 17.5147 21.3023 17.5147H14.7907V17.7353C14.7907 19.0588 13.9535 19.5 12.9302 19.5H7.34884C6.32558 19.5 5.48837 19.0588 5.48837 17.7353V17.5147H2.69767C2.31628 17.5147 2 17.2147 2 16.8529C2 16.4912 2.31628 16.1912 2.69767 16.1912H5.48837V15.9706C5.48837 14.6471 6.32558 14.2059 7.34884 14.2059H12.9302C13.9535 14.2059 14.7907 14.6471 14.7907 15.9706V16.1912H21.3023C21.6837 16.1912 22 16.4912 22 16.8529Z" fill="#141414"/>
<path d="M22 7.14706C22 7.50882 21.6837 7.80882 21.3023 7.80882H18.5116V8.02941C18.5116 9.35294 17.6744 9.79412 16.6512 9.79412H11.0698C10.0465 9.79412 9.2093 9.35294 9.2093 8.02941V7.80882H2.69767C2.31628 7.80882 2 7.50882 2 7.14706C2 6.78529 2.31628 6.48529 2.69767 6.48529H9.2093V6.26471C9.2093 4.94118 10.0465 4.5 11.0698 4.5H16.6512C17.6744 4.5 18.5116 4.94118 18.5116 6.26471V6.48529H21.3023C21.6837 6.48529 22 6.78529 22 7.14706Z" fill="#141414"/>
</svg>
