<svg width="24" height="24" viewBox="0 0 24 24" fill="none" xmlns="http://www.w3.org/2000/svg">
<path d="M21.3 7.61411H15.72C15.33 7.61411 15.02 7.30651 15.02 6.91952C15.02 6.53253 15.33 6.22492 15.72 6.22492H21.3C21.69 6.22492 22 6.53253 22 6.91952C22 7.30651 21.69 7.61411 21.3 7.61411Z" fill="#141414"/>
<path d="M6.42 7.61411H2.7C2.31 7.61411 2 7.30651 2 6.91952C2 6.53253 2.31 6.22492 2.7 6.22492H6.42C6.81 6.22492 7.12 6.53253 7.12 6.91952C7.12 7.30651 6.8 7.61411 6.42 7.61411Z" fill="#141414"/>
<path d="M10.14 10.839C12.3215 10.839 14.09 9.0842 14.09 6.91952C14.09 4.75483 12.3215 3 10.14 3C7.95848 3 6.19 4.75483 6.19 6.91952C6.19 9.0842 7.95848 10.839 10.14 10.839Z" fill="#141414"/>
<path d="M21.3 17.7652H17.58C17.19 17.7652 16.88 17.4576 16.88 17.0706C16.88 16.6836 17.19 16.376 17.58 16.376H21.3C21.69 16.376 22 16.6836 22 17.0706C22 17.4576 21.69 17.7652 21.3 17.7652Z" fill="#141414"/>
<path d="M8.28 17.7652H2.7C2.31 17.7652 2 17.4576 2 17.0706C2 16.6836 2.31 16.376 2.7 16.376H8.28C8.67 16.376 8.98 16.6836 8.98 17.0706C8.98 17.4576 8.66 17.7652 8.28 17.7652Z" fill="#141414"/>
<path d="M13.86 21C16.0415 21 17.81 19.2452 17.81 17.0805C17.81 14.9158 16.0415 13.161 13.86 13.161C11.6785 13.161 9.91 14.9158 9.91 17.0805C9.91 19.2452 11.6785 21 13.86 21Z" fill="#141414"/>
</svg>
