<svg width="24" height="24" viewBox="0 0 24 24" fill="none" xmlns="http://www.w3.org/2000/svg">
<path d="M7.75 5.02326H7.51389V2.69767C7.51389 2.31628 7.19278 2 6.80556 2C6.41833 2 6.09722 2.31628 6.09722 2.69767V5.02326H5.86111C4.35944 5.02326 3.5 5.86977 3.5 7.34884V12.9302C3.5 14.4093 4.35944 15.2558 5.86111 15.2558H6.09722V21.3023C6.09722 21.6837 6.41833 22 6.80556 22C7.19278 22 7.51389 21.6837 7.51389 21.3023V15.2558H7.75C9.25167 15.2558 10.1111 14.4093 10.1111 12.9302V7.34884C10.1111 5.86977 9.25167 5.02326 7.75 5.02326Z" fill="#141414"/>
<path d="M18.1389 8.74419H17.9028V2.69767C17.9028 2.31628 17.5817 2 17.1944 2C16.8072 2 16.4861 2.31628 16.4861 2.69767V8.74419H16.25C14.7483 8.74419 13.8889 9.5907 13.8889 11.0698V16.6512C13.8889 18.1302 14.7483 18.9767 16.25 18.9767H16.4861V21.3023C16.4861 21.6837 16.8072 22 17.1944 22C17.5817 22 17.9028 21.6837 17.9028 21.3023V18.9767H18.1389C19.6406 18.9767 20.5 18.1302 20.5 16.6512V11.0698C20.5 9.5907 19.6406 8.74419 18.1389 8.74419Z" fill="#141414"/>
</svg>
