<svg width="24" height="24" viewBox="0 0 24 24" fill="none" xmlns="http://www.w3.org/2000/svg">
<path d="M16.1971 2H7.8129C4.17108 2 2 4.17 2 7.81V16.18C2 19.83 4.17108 22 7.8129 22H16.1871C19.8289 22 22 19.83 22 16.19V7.81C22.01 4.17 19.8389 2 16.1971 2ZM7.67283 5.5C7.67283 5.09 8.013 4.75 8.4232 4.75C8.83341 4.75 9.17357 5.09 9.17357 5.5V9.4C9.17357 9.81 8.83341 10.15 8.4232 10.15C8.013 10.15 7.67283 9.81 7.67283 9.4V5.5ZM9.52657 16.4313C9.32303 16.5216 9.17357 16.7132 9.17357 16.9358V18.5C9.17357 18.91 8.83341 19.25 8.4232 19.25C8.013 19.25 7.67283 18.91 7.67283 18.5V16.9358C7.67283 16.7132 7.52335 16.5216 7.31988 16.4311C6.36493 16.0064 5.70184 15.058 5.70184 13.95C5.70184 12.45 6.92245 11.22 8.4232 11.22C9.92395 11.22 11.1546 12.44 11.1546 13.95C11.1546 15.0582 10.4834 16.0066 9.52657 16.4313ZM16.3371 18.5C16.3371 18.91 15.997 19.25 15.5868 19.25C15.1766 19.25 14.8364 18.91 14.8364 18.5V14.6C14.8364 14.19 15.1766 13.85 15.5868 13.85C15.997 13.85 16.3371 14.19 16.3371 14.6V18.5ZM15.5868 12.77C14.086 12.77 12.8554 11.55 12.8554 10.04C12.8554 8.93185 13.5266 7.98342 14.4834 7.55873C14.6869 7.46839 14.8364 7.27681 14.8364 7.05421V5.5C14.8364 5.09 15.1766 4.75 15.5868 4.75C15.997 4.75 16.3371 5.09 16.3371 5.5V7.06421C16.3371 7.28681 16.4866 7.47835 16.6901 7.56885C17.645 7.9936 18.3081 8.94195 18.3081 10.05C18.3081 11.55 17.0875 12.77 15.5868 12.77Z" fill="#141414"/>
</svg>
