<svg width="24" height="24" viewBox="0 0 24 24" fill="none" xmlns="http://www.w3.org/2000/svg">
<path d="M18.3204 8.32353C18.8058 8.32353 19.1942 7.93137 19.1942 7.44118V2.88235C19.1942 2.39216 18.8058 2 18.3204 2C17.835 2 17.4466 2.39216 17.4466 2.88235V7.44118C17.4466 7.92157 17.8447 8.32353 18.3204 8.32353Z" fill="#141414"/>
<path d="M12 15.6765C11.5146 15.6765 11.1262 16.0686 11.1262 16.5588V21.1176C11.1262 21.6078 11.5146 22 12 22C12.4854 22 12.8738 21.6078 12.8738 21.1176V16.5588C12.8738 16.0784 12.4854 15.6765 12 15.6765Z" fill="#141414"/>
<path d="M5.67961 8.32353C6.16505 8.32353 6.5534 7.93137 6.5534 7.44118V2.88235C6.5534 2.39216 6.16505 2 5.67961 2C5.19417 2 4.80583 2.39216 4.80583 2.88235V7.44118C4.80583 7.92157 5.19417 8.32353 5.67961 8.32353Z" fill="#141414"/>
<path d="M7.48544 10.2059H3.87379C3.38835 10.2059 3 10.598 3 11.0882C3 11.5784 3.38835 11.9706 3.87379 11.9706H4.80583V21.1176C4.80583 21.6078 5.19417 22 5.67961 22C6.16505 22 6.5534 21.6078 6.5534 21.1176V11.9706H7.48544C7.97087 11.9706 8.35922 11.5784 8.35922 11.0882C8.35922 10.598 7.96116 10.2059 7.48544 10.2059Z" fill="#141414"/>
<path d="M20.1262 10.2059H16.5146C16.0291 10.2059 15.6408 10.598 15.6408 11.0882C15.6408 11.5784 16.0291 11.9706 16.5146 11.9706H17.4466V21.1176C17.4466 21.6078 17.835 22 18.3204 22C18.8058 22 19.1942 21.6078 19.1942 21.1176V11.9706H20.1262C20.6117 11.9706 21 11.5784 21 11.0882C21 10.598 20.6117 10.2059 20.1262 10.2059Z" fill="#141414"/>
<path d="M13.8058 12.0294H12.8738V2.88235C12.8738 2.39216 12.4854 2 12 2C11.5146 2 11.1262 2.39216 11.1262 2.88235V12.0294H10.1942C9.70874 12.0294 9.32039 12.4216 9.32039 12.9118C9.32039 13.402 9.70874 13.7941 10.1942 13.7941H13.8058C14.2913 13.7941 14.6796 13.402 14.6796 12.9118C14.6796 12.4216 14.2913 12.0294 13.8058 12.0294Z" fill="#141414"/>
</svg>
