<svg width="24" height="24" viewBox="0 0 24 24" fill="none" xmlns="http://www.w3.org/2000/svg">
<path d="M12 16C14.3119 16 16.186 14.2091 16.186 12C16.186 9.79086 14.3119 8 12 8C9.68811 8 7.81395 9.79086 7.81395 12C7.81395 14.2091 9.68811 16 12 16Z" fill="#141414"/>
<path d="M10.1395 12.6667H2.69767C2.31628 12.6667 2 12.3644 2 12C2 11.6356 2.31628 11.3333 2.69767 11.3333H10.1395C10.5209 11.3333 10.8372 11.6356 10.8372 12C10.8372 12.3644 10.5209 12.6667 10.1395 12.6667Z" fill="#141414"/>
<path d="M21.3023 12.6667H13.8605C13.4791 12.6667 13.1628 12.3644 13.1628 12C13.1628 11.6356 13.4791 11.3333 13.8605 11.3333H21.3023C21.6837 11.3333 22 11.6356 22 12C22 12.3644 21.6837 12.6667 21.3023 12.6667Z" fill="#141414"/>
</svg>
