<svg width="24" height="24" viewBox="0 0 24 24" fill="none" xmlns="http://www.w3.org/2000/svg">
<path d="M5 14C3.89455 14 3 13.1055 3 12C3 10.8945 3.89455 10 5 10C6.10545 10 7 10.8945 7 12C7 13.1055 6.10545 14 5 14Z" fill="#141414"/>
<path d="M12 14C10.8945 14 10 13.1055 10 12C10 10.8945 10.8945 10 12 10C13.1055 10 14 10.8945 14 12C14 13.1055 13.1055 14 12 14Z" fill="#141414"/>
<path d="M19 14C17.8945 14 17 13.1055 17 12C17 10.8945 17.8945 10 19 10C20.1055 10 21 10.8945 21 12C21 13.1055 20.1055 14 19 14Z" fill="#141414"/>
</svg>
