<svg width="24" height="24" viewBox="0 0 24 24" fill="none" xmlns="http://www.w3.org/2000/svg">
<path d="M17.8659 8.49835C19.5968 8.49835 21 7.04365 21 5.24918C21 3.45471 19.5968 2 17.8659 2C16.135 2 14.7318 3.45471 14.7318 5.24918C14.7318 7.04365 16.135 8.49835 17.8659 8.49835Z" fill="#141414"/>
<path d="M6.13412 8.49835C7.86504 8.49835 9.26824 7.04365 9.26824 5.24918C9.26824 3.45471 7.86504 2 6.13412 2C4.40319 2 3 3.45471 3 5.24918C3 7.04365 4.40319 8.49835 6.13412 8.49835Z" fill="#141414"/>
<path d="M17.8659 22C19.5968 22 21 20.5453 21 18.7508C21 16.9564 19.5968 15.5016 17.8659 15.5016C16.135 15.5016 14.7318 16.9564 14.7318 18.7508C14.7318 20.5453 16.135 22 17.8659 22Z" fill="#141414"/>
<path d="M6.13412 22C7.86504 22 9.26824 20.5453 9.26824 18.7508C9.26824 16.9564 7.86504 15.5016 6.13412 15.5016C4.40319 15.5016 3 16.9564 3 18.7508C3 20.5453 4.40319 22 6.13412 22Z" fill="#141414"/>
</svg>
