<svg width="24" height="24" viewBox="0 0 24 24" fill="none" xmlns="http://www.w3.org/2000/svg">
<path d="M18.8113 5.41793L13.7372 2.42755C12.7655 1.85748 11.2443 1.85748 10.2726 2.42755L5.1494 5.43793C3.11778 6.8381 3 7.04813 3 9.27841V14.7091C3 16.9394 3.11778 17.1594 5.18866 18.5796L10.2628 21.5699C10.7535 21.86 11.3817 22 12 22C12.6183 22 13.2465 21.86 13.7274 21.5699L18.8506 18.5596C20.8822 17.1594 21 16.9494 21 14.7191V9.27841C21 7.04813 20.8822 6.8381 18.8113 5.41793ZM12 15.2492C10.2432 15.2492 8.81025 13.789 8.81025 11.9987C8.81025 10.2085 10.2432 8.74834 12 8.74834C13.7568 8.74834 15.1897 10.2085 15.1897 11.9987C15.1897 13.789 13.7568 15.2492 12 15.2492Z" fill="#141414"/>
</svg>
