<svg width="24" height="24" viewBox="0 0 24 24" fill="none" xmlns="http://www.w3.org/2000/svg">
<path d="M20.091 9.34927C18.2819 9.34927 17.5422 8.12879 18.4418 6.63179C18.9615 5.7641 18.6517 4.65804 17.7421 4.16222L16.013 3.21826C15.2234 2.77011 14.2039 3.03709 13.7341 3.79036L13.6242 3.97152C12.7246 5.46852 11.2454 5.46852 10.3358 3.97152L10.2259 3.79036C9.77611 3.03709 8.75662 2.77011 7.96702 3.21826L6.23788 4.16222C5.32834 4.65804 5.01849 5.77364 5.53823 6.64133C6.44778 8.12879 5.70815 9.34927 3.89905 9.34927C2.85957 9.34927 2 10.1597 2 11.1609V12.8391C2 13.8307 2.84958 14.6507 3.89905 14.6507C5.70815 14.6507 6.44778 15.8712 5.53823 17.3682C5.01849 18.2359 5.32834 19.342 6.23788 19.8378L7.96702 20.7817C8.75662 21.2299 9.77611 20.9629 10.2459 20.2096L10.3558 20.0285C11.2554 18.5315 12.7346 18.5315 13.6442 20.0285L13.7541 20.2096C14.2239 20.9629 15.2434 21.2299 16.033 20.7817L17.7621 19.8378C18.6717 19.342 18.9815 18.2264 18.4618 17.3682C17.5522 15.8712 18.2919 14.6507 20.101 14.6507C21.1404 14.6507 22 13.8403 22 12.8391V11.1609C21.99 10.1693 21.1404 9.34927 20.091 9.34927ZM11.995 15.0989C10.2059 15.0989 8.74663 13.7068 8.74663 12C8.74663 10.2932 10.2059 8.90112 11.995 8.90112C13.7841 8.90112 15.2434 10.2932 15.2434 12C15.2434 13.7068 13.7841 15.0989 11.995 15.0989Z" fill="#141414"/>
</svg>
