<svg width="24" height="24" viewBox="0 0 24 24" fill="none" xmlns="http://www.w3.org/2000/svg">
<path d="M18.51 8.24999C19.01 8.24999 19.41 7.84999 19.41 7.34999V2.69999C19.41 2.19999 19.01 1.79999 18.51 1.79999C18.01 1.79999 17.61 2.19999 17.61 2.69999V7.34999C17.61 7.83999 18.02 8.24999 18.51 8.24999Z" fill="#141414"/>
<path d="M12 15.75C11.5 15.75 11.1 16.15 11.1 16.65V21.3C11.1 21.8 11.5 22.2 12 22.2C12.5 22.2 12.9 21.8 12.9 21.3V16.65C12.9 16.16 12.5 15.75 12 15.75Z" fill="#141414"/>
<path d="M5.49 8.24999C5.99 8.24999 6.39 7.84999 6.39 7.34999V2.69999C6.39 2.19999 5.99 1.79999 5.49 1.79999C4.99 1.79999 4.59 2.19999 4.59 2.69999V7.34999C4.59 7.83999 4.99 8.24999 5.49 8.24999Z" fill="#141414"/>
<path d="M7.35 10.17H3.63C3.13 10.17 2.73 10.57 2.73 11.07C2.73 11.57 3.13 11.97 3.63 11.97H4.59V21.3C4.59 21.8 4.99 22.2 5.49 22.2C5.99 22.2 6.39 21.8 6.39 21.3V11.97H7.35C7.85 11.97 8.25 11.57 8.25 11.07C8.25 10.57 7.84 10.17 7.35 10.17Z" fill="#141414"/>
<path d="M20.37 10.17H16.65C16.15 10.17 15.75 10.57 15.75 11.07C15.75 11.57 16.15 11.97 16.65 11.97H17.61V21.3C17.61 21.8 18.01 22.2 18.51 22.2C19.01 22.2 19.41 21.8 19.41 21.3V11.97H20.37C20.87 11.97 21.27 11.57 21.27 11.07C21.27 10.57 20.87 10.17 20.37 10.17Z" fill="#141414"/>
<path d="M13.86 12.03H12.9V2.69999C12.9 2.19999 12.5 1.79999 12 1.79999C11.5 1.79999 11.1 2.19999 11.1 2.69999V12.03H10.14C9.64 12.03 9.24 12.43 9.24 12.93C9.24 13.43 9.64 13.83 10.14 13.83H13.86C14.36 13.83 14.76 13.43 14.76 12.93C14.76 12.43 14.36 12.03 13.86 12.03Z" fill="#141414"/>
</svg>
