<svg width="24" height="24" viewBox="0 0 24 24" fill="none" xmlns="http://www.w3.org/2000/svg">
<path opacity="0.97" d="M16.1971 2H7.8129C4.17108 2 2 4.17 2 7.81V16.18C2 19.83 4.17108 22 7.8129 22H16.1871C19.8289 22 22 19.83 22 16.19V7.81C22.01 4.17 19.8389 2 16.1971 2ZM8.31315 16.31C7.59279 16.31 7.00249 15.72 7.00249 15C7.00249 14.28 7.59279 13.69 8.31315 13.69C9.0335 13.69 9.6238 14.28 9.6238 15C9.6238 15.72 9.0335 16.31 8.31315 16.31ZM12.005 10.31C11.2846 10.31 10.6943 9.72 10.6943 9C10.6943 8.28 11.2846 7.69 12.005 7.69C12.7253 7.69 13.3156 8.28 13.3156 9C13.3156 9.72 12.7253 10.31 12.005 10.31ZM15.6968 16.31C14.9765 16.31 14.3862 15.72 14.3862 15C14.3862 14.28 14.9765 13.69 15.6968 13.69C16.4172 13.69 17.0075 14.28 17.0075 15C17.0075 15.72 16.4172 16.31 15.6968 16.31Z" fill="#141414"/>
</svg>
