<svg width="24" height="24" viewBox="0 0 24 24" fill="none" xmlns="http://www.w3.org/2000/svg">
<path d="M20.2908 10.6286C19.9082 10.6286 19.591 10.3122 19.591 9.93067V7.25998L11.9953 3.47261L4.39969 7.25998V9.93067C4.39969 10.3122 4.08242 10.6286 3.69984 10.6286C3.31726 10.6286 3 10.3122 3 9.93067V6.83192C3 6.57136 3.14934 6.32942 3.39195 6.20845L11.6874 2.07677C11.8833 1.97441 12.1167 1.97441 12.3126 2.07677L20.608 6.20845C20.8413 6.32942 21 6.57136 21 6.83192V9.93067C20.9907 10.3122 20.6734 10.6286 20.2908 10.6286Z" fill="#141414"/>
<path d="M11.9953 22C11.8834 22 11.7807 21.9721 11.6874 21.9256L3.39195 17.7939C3.15867 17.6729 3 17.431 3 17.1704V14.0717C3 13.6901 3.31726 13.3737 3.69984 13.3737C4.08242 13.3737 4.39969 13.6901 4.39969 14.0717V16.7424L11.9953 20.5297L19.591 16.7424V14.0717C19.591 13.6901 19.9082 13.3737 20.2908 13.3737C20.6734 13.3737 20.9907 13.6901 20.9907 14.0717V17.1704C20.9907 17.431 20.8413 17.6729 20.5987 17.7939L12.3033 21.9256C12.21 21.9721 12.1073 22 11.9953 22Z" fill="#141414"/>
<path d="M16.1384 11.9965C16.1384 9.71665 14.2815 7.86484 11.9953 7.86484C9.70918 7.86484 7.85226 9.71665 7.85226 11.9965C7.85226 14.0437 9.35461 15.7373 11.3142 16.063C11.3142 16.091 11.3048 16.1096 11.3048 16.1282V21.3021C11.3048 21.6836 11.6221 22 12.0047 22C12.3873 22 12.7045 21.6836 12.7045 21.3021V16.1282C12.7045 16.1003 12.6952 16.0817 12.6952 16.063C14.6454 15.7373 16.1384 14.0437 16.1384 11.9965Z" fill="#141414"/>
</svg>
