<svg width="24" height="24" viewBox="0 0 24 24" fill="none" xmlns="http://www.w3.org/2000/svg">
<path fill-rule="evenodd" clip-rule="evenodd" d="M19.2203 19.1597C19.8195 18.2597 20.043 17.7997 20.5 16.7897C17.1282 15.5297 16.59 10.7998 19.9211 8.98985C18.9055 7.72988 17.4735 6.9999 16.1228 6.9999C15.1478 6.9999 14.4775 7.24991 13.8783 7.4799C13.3705 7.6699 12.9135 7.83988 12.3448 7.83988C11.7354 7.83988 11.1972 7.6499 10.6284 7.4499C10.0089 7.22991 9.35893 6.9999 8.54645 6.9999C7.03322 6.9999 5.41843 7.90988 4.39268 9.46985C2.95054 11.6698 3.20444 15.7897 5.53015 19.3097C6.36293 20.5696 7.48009 21.9796 8.93239 21.9996C9.54174 22.0096 9.93782 21.8296 10.3745 21.6396C10.8722 21.4196 11.4104 21.1796 12.3549 21.1796C13.2994 21.1696 13.8275 21.4196 14.3252 21.6396C14.7517 21.8296 15.1377 22.0096 15.7369 21.9996C17.2095 21.9796 18.3876 20.4196 19.2203 19.1597Z" fill="#141414"/>
<path fill-rule="evenodd" clip-rule="evenodd" d="M15.9095 2C16.072 3.09998 15.615 4.18997 15.0158 4.94995C14.376 5.76994 13.2588 6.40991 12.1823 6.36991C11.9893 5.30993 12.487 4.21995 13.0963 3.48996C13.7768 2.68998 14.9244 2.07 15.9095 2Z" fill="#141414"/>
</svg>
