<svg width="24" height="24" viewBox="0 0 24 24" fill="none" xmlns="http://www.w3.org/2000/svg">
<path d="M9.2093 18.5H3.62791C2.73488 18.5 2 17.7393 2 16.8148V7.18519C2 6.26074 2.73488 5.5 3.62791 5.5H8.27907C10.2047 5.5 11.7674 7.11778 11.7674 9.11111C11.7674 10.103 11.3767 10.9985 10.7535 11.6533C11.907 12.2408 12.6977 13.4733 12.6977 14.8889C12.6977 16.8822 11.1349 18.5 9.2093 18.5ZM3.39535 12.7222V16.8148C3.39535 16.9496 3.49767 17.0556 3.62791 17.0556H9.2093C10.3628 17.0556 11.3023 16.083 11.3023 14.8889C11.3023 13.6948 10.3628 12.7222 9.2093 12.7222H3.39535ZM3.39535 11.2778H8.27907C9.43256 11.2778 10.3721 10.3052 10.3721 9.11111C10.3721 7.91704 9.43256 6.94444 8.27907 6.94444H3.62791C3.49767 6.94444 3.39535 7.05037 3.39535 7.18519V11.2778Z" fill="#141414"/>
<path d="M19.1349 18.5H17.5814C15.1442 18.5 13.1628 16.4489 13.1628 13.9259C13.1628 11.403 15.1442 9.35185 17.5814 9.35185C20.0186 9.35185 22 11.403 22 13.9259C22 14.3207 21.6837 14.6481 21.3023 14.6481H14.6419C14.9582 16.0252 16.1581 17.0556 17.5814 17.0556H19.1349C19.5163 17.0556 19.8325 17.383 19.8325 17.7778C19.8325 18.1726 19.5163 18.5 19.1349 18.5ZM14.6419 13.2037H20.5302C20.2139 11.8267 19.014 10.7963 17.5907 10.7963C16.1675 10.7963 14.9582 11.8267 14.6419 13.2037Z" fill="#141414"/>
<path d="M18.9767 8.38889H16.186C15.8047 8.38889 15.4884 8.06148 15.4884 7.66667C15.4884 7.27185 15.8047 6.94444 16.186 6.94444H18.9767C19.3581 6.94444 19.6744 7.27185 19.6744 7.66667C19.6744 8.06148 19.3581 8.38889 18.9767 8.38889Z" fill="#141414"/>
</svg>
