<svg width="24" height="24" viewBox="0 0 24 24" fill="none" xmlns="http://www.w3.org/2000/svg">
<path d="M11.6478 2.14552L6.24706 7.54761C6.04288 7.75185 6.04288 8.06842 6.24706 8.27266L7.56405 9.58999C7.76824 9.79423 8.08473 9.79423 8.28892 9.58999L11.6478 6.23028C11.852 6.02604 12.1685 6.02604 12.3726 6.23028L15.7315 9.58999C15.9357 9.79423 16.2522 9.79423 16.4564 9.58999L17.7733 8.27266C17.9775 8.06842 17.9775 7.75185 17.7733 7.54761L12.3726 2.14552C12.1685 1.95149 11.8417 1.95149 11.6478 2.14552Z" fill="#141414"/>
<path d="M11.6478 21.8545L6.24706 16.4524C6.04288 16.2481 6.04288 15.9316 6.24706 15.7273L7.56405 14.41C7.76824 14.2058 8.08473 14.2058 8.28892 14.41L11.6478 17.7697C11.852 17.974 12.1685 17.974 12.3726 17.7697L15.7315 14.41C15.9357 14.2058 16.2522 14.2058 16.4564 14.41L17.7733 15.7273C17.9775 15.9316 17.9775 16.2481 17.7733 16.4524L12.3726 21.8545C12.1685 22.0485 11.8417 22.0485 11.6478 21.8545Z" fill="#141414"/>
<path d="M20.2746 10.0597L21.8469 11.6324C22.051 11.8366 22.051 12.1532 21.8469 12.3574L20.2746 13.93C20.0705 14.1343 19.754 14.1343 19.5498 13.93L17.9775 12.3574C17.7734 12.1532 17.7734 11.8366 17.9775 11.6324L19.5498 10.0597C19.754 9.86571 20.0807 9.86571 20.2746 10.0597Z" fill="#141414"/>
<path d="M4.45023 10.0597L6.02246 11.6324C6.22664 11.8366 6.22664 12.1532 6.02246 12.3574L4.45023 13.93C4.24604 14.1343 3.92955 14.1343 3.72536 13.93L2.15314 12.3574C1.94895 12.1532 1.94895 11.8366 2.15314 11.6324L3.72536 10.0597C3.92955 9.86571 4.25625 9.86571 4.45023 10.0597Z" fill="#141414"/>
<path d="M12.3624 9.83508L14.1695 11.6426C14.3737 11.8468 14.3737 12.1634 14.1695 12.3676L12.3624 14.1751C12.1582 14.3794 11.8418 14.3794 11.6376 14.1751L9.83052 12.3676C9.62633 12.1634 9.62633 11.8468 9.83052 11.6426L11.6376 9.83508C11.8418 9.63084 12.1685 9.63084 12.3624 9.83508Z" fill="#141414"/>
</svg>
