<svg width="24" height="24" viewBox="0 0 24 24" fill="none" xmlns="http://www.w3.org/2000/svg">
<path d="M16.5134 10.2917C16.9998 10.2917 17.3941 9.90443 17.3941 9.42672C17.3941 8.94901 16.9998 8.56175 16.5134 8.56175C16.027 8.56175 15.6327 8.94901 15.6327 9.42672C15.6327 9.90443 16.027 10.2917 16.5134 10.2917Z" fill="#141414"/>
<path d="M16.5134 15.4815C16.9998 15.4815 17.3941 15.0942 17.3941 14.6165C17.3941 14.1388 16.9998 13.7516 16.5134 13.7516C16.027 13.7516 15.6327 14.1388 15.6327 14.6165C15.6327 15.0942 16.027 15.4815 16.5134 15.4815Z" fill="#141414"/>
<path d="M18.8032 12.8866C19.2895 12.8866 19.6838 12.4993 19.6838 12.0216C19.6838 11.5439 19.2895 11.1567 18.8032 11.1567C18.3168 11.1567 17.9225 11.5439 17.9225 12.0216C17.9225 12.4993 18.3168 12.8866 18.8032 12.8866Z" fill="#141414"/>
<path d="M7.39848 10.2917C7.88486 10.2917 8.27915 9.90443 8.27915 9.42672C8.27915 8.94901 7.88486 8.56175 7.39848 8.56175C6.9121 8.56175 6.51781 8.94901 6.51781 9.42672C6.51781 9.90443 6.9121 10.2917 7.39848 10.2917Z" fill="#141414"/>
<path d="M7.39848 15.4815C7.88486 15.4815 8.27915 15.0942 8.27915 14.6165C8.27915 14.1388 7.88486 13.7516 7.39848 13.7516C6.9121 13.7516 6.51781 14.1388 6.51781 14.6165C6.51781 15.0942 6.9121 15.4815 7.39848 15.4815Z" fill="#141414"/>
<path d="M5.10876 12.8866C5.59514 12.8866 5.98943 12.4993 5.98943 12.0216C5.98943 11.5439 5.59514 11.1567 5.10876 11.1567C4.62238 11.1567 4.22809 11.5439 4.22809 12.0216C4.22809 12.4993 4.62238 12.8866 5.10876 12.8866Z" fill="#141414"/>
<path d="M15.4126 7.00481C15.899 7.00481 16.2933 6.61755 16.2933 6.13984C16.2933 5.66213 15.899 5.27487 15.4126 5.27487C14.9262 5.27487 14.5319 5.66213 14.5319 6.13984C14.5319 6.61755 14.9262 7.00481 15.4126 7.00481Z" fill="#141414"/>
<path d="M8.54337 7.00481C9.02975 7.00481 9.42404 6.61755 9.42404 6.13984C9.42404 5.66213 9.02975 5.27487 8.54337 5.27487C8.05699 5.27487 7.6627 5.66213 7.6627 6.13984C7.6627 6.61755 8.05699 7.00481 8.54337 7.00481Z" fill="#141414"/>
<path d="M12.022 7.69678C12.5084 7.69678 12.9027 7.30952 12.9027 6.83181C12.9027 6.3541 12.5084 5.96684 12.022 5.96684C11.5356 5.96684 11.1413 6.3541 11.1413 6.83181C11.1413 7.30952 11.5356 7.69678 12.022 7.69678Z" fill="#141414"/>
<path d="M15.4126 18.9414C15.899 18.9414 16.2933 18.5541 16.2933 18.0764C16.2933 17.5987 15.899 17.2114 15.4126 17.2114C14.9262 17.2114 14.5319 17.5987 14.5319 18.0764C14.5319 18.5541 14.9262 18.9414 15.4126 18.9414Z" fill="#141414"/>
<path d="M8.54337 18.9414C9.02975 18.9414 9.42404 18.5541 9.42404 18.0764C9.42404 17.5987 9.02975 17.2114 8.54337 17.2114C8.05699 17.2114 7.6627 17.5987 7.6627 18.0764C7.6627 18.5541 8.05699 18.9414 8.54337 18.9414Z" fill="#141414"/>
<path d="M12.022 18.2494C12.5084 18.2494 12.9027 17.8621 12.9027 17.3844C12.9027 16.9067 12.5084 16.5195 12.022 16.5195C11.5356 16.5195 11.1413 16.9067 11.1413 17.3844C11.1413 17.8621 11.5356 18.2494 12.022 18.2494Z" fill="#141414"/>
<path d="M13.5191 10.5079C14.1271 10.5079 14.62 10.0239 14.62 9.42672C14.62 8.82958 14.1271 8.34551 13.5191 8.34551C12.9112 8.34551 12.4183 8.82958 12.4183 9.42672C12.4183 10.0239 12.9112 10.5079 13.5191 10.5079Z" fill="#141414"/>
<path d="M10.4368 10.5079C11.0448 10.5079 11.5376 10.0239 11.5376 9.42672C11.5376 8.82958 11.0448 8.34551 10.4368 8.34551C9.82883 8.34551 9.33597 8.82958 9.33597 9.42672C9.33597 10.0239 9.82883 10.5079 10.4368 10.5079Z" fill="#141414"/>
<path d="M15.0603 13.1028C15.6683 13.1028 16.1612 12.6188 16.1612 12.0216C16.1612 11.4245 15.6683 10.9404 15.0603 10.9404C14.4523 10.9404 13.9595 11.4245 13.9595 12.0216C13.9595 12.6188 14.4523 13.1028 15.0603 13.1028Z" fill="#141414"/>
<path d="M8.89563 13.1028C9.50361 13.1028 9.99647 12.6188 9.99647 12.0216C9.99647 11.4245 9.50361 10.9404 8.89563 10.9404C8.28766 10.9404 7.79479 11.4245 7.79479 12.0216C7.79479 12.6188 8.28766 13.1028 8.89563 13.1028Z" fill="#141414"/>
<path d="M10.4368 15.6977C11.0448 15.6977 11.5376 15.2137 11.5376 14.6165C11.5376 14.0194 11.0448 13.5353 10.4368 13.5353C9.82883 13.5353 9.33597 14.0194 9.33597 14.6165C9.33597 15.2137 9.82883 15.6977 10.4368 15.6977Z" fill="#141414"/>
<path d="M13.5191 15.6977C14.1271 15.6977 14.62 15.2137 14.62 14.6165C14.62 14.0194 14.1271 13.5353 13.5191 13.5353C12.9112 13.5353 12.4183 14.0194 12.4183 14.6165C12.4183 15.2137 12.9112 15.6977 13.5191 15.6977Z" fill="#141414"/>
<path d="M11.978 4.52234C11.5464 4.52234 11.203 4.18501 11.203 3.76117C11.203 3.33734 11.5464 3 11.978 3C12.4095 3 12.753 3.33734 12.753 3.76117C12.753 4.18501 12.4095 4.52234 11.978 4.52234Z" fill="#141414"/>
<path d="M16.6015 4.75589C16.2316 4.75589 15.9322 4.4618 15.9322 4.10716C15.9322 3.75252 16.2316 3.45843 16.5927 3.45843C16.9538 3.45843 17.262 3.75252 17.262 4.10716C17.262 4.4618 16.9714 4.75589 16.6015 4.75589Z" fill="#141414"/>
<path d="M7.35446 4.75589C6.99339 4.75589 6.69396 4.4618 6.69396 4.10716C6.69396 3.75252 6.98458 3.45843 7.35446 3.45843H7.36328C7.72435 3.45843 8.02378 3.75252 8.02378 4.10716C8.02378 4.4618 7.72434 4.75589 7.35446 4.75589Z" fill="#141414"/>
<path d="M11.978 21C11.5464 21 11.203 20.6627 11.203 20.2388C11.203 19.815 11.5464 19.4777 11.978 19.4777C12.4095 19.4777 12.753 19.815 12.753 20.2388C12.753 20.6627 12.4095 21 11.978 21Z" fill="#141414"/>
<path d="M16.6015 20.5416C16.2316 20.5416 15.9322 20.2475 15.9322 19.8928C15.9322 19.5382 16.2316 19.2441 16.5927 19.2441C16.9538 19.2441 17.262 19.5382 17.262 19.8928C17.262 20.2475 16.9714 20.5416 16.6015 20.5416Z" fill="#141414"/>
<path d="M7.35446 20.5416C6.99339 20.5416 6.69396 20.2475 6.69396 19.8928C6.69396 19.5382 6.98458 19.2441 7.35446 19.2441H7.36328C7.72435 19.2441 8.02378 19.5382 8.02378 19.8928C8.02378 20.2475 7.72434 20.5416 7.35446 20.5416Z" fill="#141414"/>
<path d="M2.77497 12.7828C2.35225 12.7828 2 12.4455 2 12.0303V12.0216C2 11.6064 2.34344 11.2605 2.77497 11.2605C3.20649 11.2605 3.54996 11.5978 3.54996 12.0216C3.54996 12.4455 3.19769 12.7828 2.77497 12.7828Z" fill="#141414"/>
<path d="M4.71245 16.9952C4.35138 16.9952 4.05195 16.7098 4.05195 16.3465V16.3378C4.05195 15.9832 4.35138 15.6891 4.71245 15.6891C5.07353 15.6891 5.37295 15.9832 5.37295 16.3378C5.37295 16.6925 5.07353 16.9952 4.71245 16.9952Z" fill="#141414"/>
<path d="M4.71245 8.35416C4.35138 8.35416 4.05195 8.06007 4.05195 7.70543C4.05195 7.35079 4.35138 7.0567 4.71245 7.0567C5.07353 7.0567 5.37295 7.34214 5.37295 7.69678V7.70543C5.37295 8.06007 5.07353 8.35416 4.71245 8.35416Z" fill="#141414"/>
<path d="M21.225 12.7828C20.8023 12.7828 20.45 12.4455 20.45 12.0303V12.0216C20.45 11.6064 20.7935 11.2605 21.225 11.2605C21.6565 11.2605 22 11.5978 22 12.0216C22 12.4455 21.6477 12.7828 21.225 12.7828Z" fill="#141414"/>
<path d="M19.2875 16.9952C18.9264 16.9952 18.627 16.7098 18.627 16.3465V16.3378C18.627 15.9832 18.9264 15.6891 19.2875 15.6891C19.6486 15.6891 19.948 15.9832 19.948 16.3378C19.948 16.6925 19.6486 16.9952 19.2875 16.9952Z" fill="#141414"/>
<path d="M19.2875 8.35416C18.9264 8.35416 18.627 8.06007 18.627 7.70543C18.627 7.35079 18.9264 7.0567 19.2875 7.0567C19.6486 7.0567 19.948 7.34214 19.948 7.70543V7.71408C19.948 8.06007 19.6486 8.35416 19.2875 8.35416Z" fill="#141414"/>
</svg>
