<svg width="24" height="24" viewBox="0 0 24 24" fill="none" xmlns="http://www.w3.org/2000/svg">
<path d="M12 6.00005L6.44004 10.0001L3.19004 7.80004C2.61004 7.41004 2.60005 6.57006 3.17005 6.16006L7.00003 3.40005C7.34003 3.16005 7.80005 3.15006 8.14005 3.38006L12 6.00005Z" fill="#141414"/>
<path d="M20.81 7.80006L17.56 10.0001L12 6.00005L15.86 3.39008C16.21 3.16008 16.66 3.16007 17 3.41007L20.83 6.17008C21.4 6.57008 21.39 7.41006 20.81 7.80006Z" fill="#141414"/>
<path d="M12 14.0001L7.56004 17.0001L3.16005 13.8401C2.60005 13.4301 2.61003 12.5901 3.18003 12.2001L6.43003 10.0001L12 14.0001Z" fill="#141414"/>
<path d="M20.81 12.2001C21.39 12.5901 21.4 13.4301 20.83 13.8401L16.43 17.0001L11.99 14.0001L17.55 10.0001L20.81 12.2001Z" fill="#141414"/>
<path d="M18.68 17.3401C18.81 17.2401 19 17.3401 19 17.5001V18.2301C19 18.6201 18.77 18.9701 18.42 19.1401L12.42 21.9101C12.15 22.0301 11.85 22.0301 11.58 21.9101L5.58002 19.1401C5.23002 18.9701 5.00003 18.6201 5.00003 18.2301V17.5001C5.00003 17.3401 5.18004 17.2401 5.32004 17.3401L7.25003 18.7301C7.42003 18.8501 7.65004 18.8601 7.82004 18.7401L11.72 16.1001C11.89 15.9901 12.11 15.9901 12.28 16.1001L16.18 18.7401C16.35 18.8601 16.58 18.8501 16.75 18.7301L18.68 17.3401Z" fill="#141414"/>
</svg>
