<svg width="24" height="24" viewBox="0 0 24 24" fill="none" xmlns="http://www.w3.org/2000/svg">
<path d="M7.0128 3.5H15.9568C19.9856 3.5 22 6 22 9.5V12C22 17 18.9784 20.5 13.4388 20.5H3.80989L4.87752 16.25H12.3711C15.9568 16.25 17.7194 14 17.7194 10.94V10.75C17.7194 9 16.964 7.75 14.6978 7.75H5.94516L7.0128 3.5Z" fill="#141414"/>
<path d="M12.3409 10.23H4.57536C3.48758 10.23 2.54081 10.97 2.26886 12.01L2.01706 13.03C1.92641 13.4 2.20843 13.76 2.59117 13.76H10.3567C11.4445 13.76 12.3913 13.02 12.6632 11.98L12.915 10.96C13.0157 10.59 12.7236 10.23 12.3409 10.23Z" fill="#141414"/>
</svg>
