<svg width="24" height="24" viewBox="0 0 24 24" fill="none" xmlns="http://www.w3.org/2000/svg">
<path fill-rule="evenodd" clip-rule="evenodd" d="M15.8766 20.9195C15.9067 21.0796 15.8166 21.2496 15.6665 21.3097C14.536 21.7599 13.2954 22 12.0148 22C9.80373 22 7.76273 21.2896 6.11193 20.069C5.97187 19.969 5.93188 19.7689 6.02192 19.6188C6.57219 18.6383 8.72317 15.4867 13.4755 13.7259C13.6555 13.6558 13.8556 13.7459 13.9157 13.9259C15.1062 17.1175 15.6665 19.8189 15.8766 20.9195Z" fill="#141414"/>
<path fill-rule="evenodd" clip-rule="evenodd" d="M21.8196 13.886C21.3593 16.3472 19.9786 18.4883 18.0477 19.949C17.8376 20.1091 17.5375 19.989 17.4875 19.7389C17.2774 18.6583 16.7671 16.3272 15.7866 13.5558C15.7166 13.3457 15.8567 13.1156 16.0768 13.0855C18.568 12.7854 20.749 13.2656 21.5694 13.4857C21.7395 13.5458 21.8496 13.7159 21.8196 13.886Z" fill="#141414"/>
<path fill-rule="evenodd" clip-rule="evenodd" d="M21.5895 11.8149C20.569 11.6348 17.9677 11.2546 15.3064 11.5448C15.1463 11.5648 15.0063 11.4747 14.9362 11.3246C14.8962 11.2346 14.8662 11.1446 14.8262 11.0545C14.6661 10.6843 14.496 10.3041 14.326 9.93396C14.2359 9.75387 14.326 9.53375 14.506 9.45371C17.3074 8.2431 18.8681 6.68232 19.4784 5.98197C19.6285 5.81188 19.8887 5.82191 20.0287 6.002C21.1793 7.53276 21.8896 9.40368 21.9996 11.4247C22.0096 11.6748 21.8096 11.8549 21.5895 11.8149Z" fill="#141414"/>
<path fill-rule="evenodd" clip-rule="evenodd" d="M18.4379 4.78139C17.9177 5.41171 16.457 6.91244 13.6856 8.01299C13.5256 8.08303 13.3355 8.01299 13.2454 7.85291C11.9648 5.53175 10.6041 3.58077 9.97382 2.70033C9.82375 2.49023 9.94384 2.19009 10.194 2.15007C10.7742 2.05002 11.3845 2 12.0048 2C14.426 2 16.6571 2.86042 18.3879 4.30114C18.538 4.4112 18.558 4.63132 18.4379 4.78139Z" fill="#141414"/>
<path fill-rule="evenodd" clip-rule="evenodd" d="M11.0143 8.83342C7.22252 9.78389 3.87087 9.91396 2.65028 9.93397C2.42017 9.93397 2.25012 9.71386 2.31015 9.49375C3.0305 6.69235 4.9514 4.35118 7.48262 3.06053C7.63269 2.98049 7.82279 3.03051 7.92283 3.17058C8.44308 3.89094 9.85376 5.92197 11.2344 8.31317C11.3445 8.51327 11.2445 8.77339 11.0143 8.83342Z" fill="#141414"/>
<path fill-rule="evenodd" clip-rule="evenodd" d="M12.9152 11.5948C13.0053 11.7849 12.8952 12.015 12.6951 12.085C8.26301 13.5157 5.61173 17.0675 4.81135 18.2881C4.68129 18.4882 4.40115 18.4982 4.25108 18.3182C2.85041 16.5973 2 14.6263 2 12.2351V12.055C2 11.8549 2.16006 11.6948 2.36016 11.7048C3.62076 11.7549 7.73276 11.5848 12.0048 10.3541C12.1649 10.3041 12.3449 10.3842 12.415 10.5343C12.5851 10.8844 12.7551 11.2346 12.9152 11.5948Z" fill="#141414"/>
</svg>
