<svg width="24" height="24" viewBox="0 0 24 24" fill="none" xmlns="http://www.w3.org/2000/svg">
<path d="M9.45376 20.3117C9.61271 20.7919 9.12651 21.2321 8.71513 20.972L5.76997 19.1811C5.23703 18.8509 4.9098 18.0605 5.022 17.4202L5.90088 12.7479C6.00372 12.1976 6.7143 12.1476 6.89195 12.6678L9.45376 20.3117Z" fill="#141414"/>
<path d="M18.2238 19.1811L15.2693 20.982C14.8579 21.2321 14.3717 20.8019 14.5307 20.3217L17.1018 12.6078C17.2795 12.0875 17.9901 12.1376 18.0929 12.6878L18.9812 17.4202C19.084 18.0605 18.7568 18.8509 18.2238 19.1811Z" fill="#141414"/>
<path d="M16.7465 7.31516C16.9709 7.61531 17.0364 8.01551 16.9149 8.37569L12.4831 21.6323C12.3241 22.1226 11.679 22.1226 11.52 21.6323L7.08828 8.38569C6.96673 8.02551 7.03217 7.62531 7.25656 7.32516L10.8282 2.62281C11.4733 1.7924 12.5392 1.7924 13.1937 2.62281L16.7465 7.31516Z" fill="#141414"/>
</svg>
