<svg width="24" height="24" viewBox="0 0 24 24" fill="none" xmlns="http://www.w3.org/2000/svg">
<path d="M12 2H8.74997C6.95417 2 5.5 3.49073 5.5 5.33165C5.5 7.17258 6.95417 8.66334 8.74997 8.66334H12V2Z" fill="#141414"/>
<path d="M12 8.67335H8.74997C6.95417 8.67335 5.5 10.1641 5.5 12.005C5.5 13.8459 6.95417 15.3367 8.74997 15.3367H12V8.67335Z" fill="#141414"/>
<path d="M12 15.3367H8.74997C6.95417 15.3367 5.5 16.8274 5.5 18.6683C5.5 20.5093 6.95417 22 8.74997 22C10.5458 22 12 20.5093 12 18.6683V15.3367Z" fill="#141414"/>
<path d="M12 2H15.25C17.0458 2 18.5 3.49073 18.5 5.33165C18.5 7.17258 17.0458 8.66334 15.25 8.66334H12V2Z" fill="#141414"/>
<path d="M15.25 8.67335C17.0458 8.67335 18.5 10.1641 18.5 12.005C18.5 13.8459 17.0458 15.3367 15.25 15.3367C13.4542 15.3367 12 13.8459 12 12.005C12 10.1641 13.4542 8.67335 15.25 8.67335Z" fill="#141414"/>
</svg>
