<svg width="24" height="24" viewBox="0 0 24 24" fill="none" xmlns="http://www.w3.org/2000/svg">
<path d="M21.4073 13.154L18.6262 14.5693C18.4362 14.6711 18.2061 14.6304 18.046 14.4777L16.1753 12.5736C15.9752 12.37 15.9752 12.0544 16.1753 11.8507L18.076 9.91613C18.2261 9.7634 18.4662 9.72268 18.6562 9.8245L21.4073 11.2296C22.1976 11.6165 22.1976 12.7569 21.4073 13.154Z" fill="#141414"/>
<path d="M16.3054 8.61284C16.6155 8.76557 16.6755 9.18305 16.4354 9.42742L14.0545 11.8507C13.8544 12.0544 13.5443 12.0544 13.3443 11.8507L6.20158 4.58078C5.80143 4.1735 6.2716 3.51168 6.78179 3.76623L16.3054 8.61284Z" fill="#141414"/>
<path d="M2 20.4851V3.51169C2 3.06368 2.5302 2.82948 2.85032 3.14512L11.6236 11.81C11.8337 12.0136 11.8237 12.3496 11.6136 12.5533L2.84032 20.8618C2.5202 21.1672 2 20.9331 2 20.4851Z" fill="#141414"/>
<path d="M16.2754 15.7708L6.88183 20.5563C6.37164 20.8109 5.90146 20.1491 6.30161 19.7418L13.3543 12.5635C13.5543 12.3598 13.8644 12.3598 14.0645 12.5635L16.4154 14.9562C16.6455 15.2006 16.5755 15.6181 16.2754 15.7708Z" fill="#141414"/>
</svg>
