<svg width="24" height="24" viewBox="0 0 24 24" fill="none" xmlns="http://www.w3.org/2000/svg">
<path d="M6.08698 16.77L4.46648 19.59C4.34933 19.8 4.04665 19.8 3.91974 19.59L2.26998 16.77C2.14307 16.55 2.29924 16.28 2.54329 16.28H5.81361C6.05766 16.28 6.20412 16.56 6.08698 16.77Z" fill="#141414"/>
<path d="M11.7002 8.41L7.84413 14.88C7.75627 15.03 7.60009 15.11 7.43414 15.11H2.48469C2.11373 15.11 1.87944 14.71 2.06492 14.39L8.37133 3.73001C8.55681 3.42001 9.01561 3.41001 9.20109 3.73001L11.7002 7.94C11.7881 8.08 11.7881 8.26 11.7002 8.41Z" fill="#141414"/>
<path d="M13.6819 14.49H10.2847C10.0895 14.49 9.96256 14.27 10.0602 14.09L11.7588 11.14C11.8564 10.97 12.1005 10.97 12.1981 11.14L13.8967 14.09C14.0041 14.27 13.8772 14.49 13.6819 14.49Z" fill="#141414"/>
<path d="M13.6234 3.39999L12.2079 5.87C12.1103 6.04 11.8565 6.04 11.7588 5.87L10.3433 3.39999C10.2457 3.21999 10.3629 3 10.5679 3H13.3989C13.6039 3 13.721 3.21999 13.6234 3.39999Z" fill="#141414"/>
<path d="M21.931 14.37C22.1262 14.7 21.8822 15.12 21.5112 15.12H16.757C16.5911 15.12 16.4447 15.03 16.3568 14.89L12.6374 8.42001C12.5496 8.27001 12.5496 8.09 12.6374 7.94L15.0487 3.73001C15.2244 3.42001 15.6734 3.41001 15.8492 3.73001C17.0402 5.84001 20.6814 12.18 21.931 14.37Z" fill="#141414"/>
<path d="M21.6967 16.77C21.1598 17.7 20.5838 18.7 20.0567 19.61C19.9298 19.83 19.6271 19.82 19.5002 19.6L17.8797 16.77C17.7528 16.55 17.909 16.27 18.1628 16.27H21.4136C21.6674 16.28 21.8236 16.55 21.6967 16.77Z" fill="#141414"/>
<path d="M17.8797 21H6.08697C5.73553 21 5.52074 20.61 5.69646 20.3L7.97107 16.34C8.04917 16.2 8.19563 16.11 8.36158 16.11H15.6051C15.7613 16.11 15.9175 16.2 15.9956 16.34L18.2702 20.3C18.4459 20.61 18.2312 21 17.8797 21Z" fill="#141414"/>
</svg>
