<svg width="24" height="24" viewBox="0 0 24 24" fill="none" xmlns="http://www.w3.org/2000/svg">
<path d="M10.9212 13.8926L12.7906 17.0358L10.9309 20.1791H7.17254L5.32243 17.0547L7.2016 13.8926H10.9212Z" fill="#141414"/>
<path d="M10.6015 13.9681H7.28877C7.11441 13.9681 6.95944 14.0625 6.87226 14.2041L5.21589 16.9981C5.12871 17.1396 5.12871 17.3284 5.21589 17.47L6.87226 20.264C6.95944 20.4056 7.11441 20.5 7.28877 20.5H10.6015C10.7759 20.5 10.9309 20.4056 11.018 20.264L12.6744 17.47C12.7616 17.3284 12.7616 17.1396 12.6744 16.9981L11.018 14.2041C10.9309 14.053 10.7759 13.9681 10.6015 13.9681Z" fill="#141414"/>
<path d="M21.9346 11.7593C22.0218 11.9103 22.0218 12.0991 21.9346 12.2501L17.1592 20.3018C17.0914 20.4245 16.9558 20.5 16.8105 20.5C16.5006 20.5 16.3068 20.1696 16.4618 19.9148L19.6486 14.5344C19.7358 14.3834 19.7358 14.1946 19.6486 14.0436L15.3866 6.85092C15.2994 6.69989 15.1348 6.6055 14.9507 6.6055H6.417C6.23296 6.6055 6.07797 6.69989 5.9811 6.85092L2.81366 12.2124C2.64899 12.4956 2.23247 12.4956 2.05812 12.2124C1.98063 12.0802 1.98063 11.9198 2.05812 11.7876L6.82384 3.74542C6.90134 3.59439 7.07567 3.5 7.25972 3.5H16.7427C16.9268 3.5 17.0817 3.59439 17.1786 3.74542L21.9346 11.7593Z" fill="#141414"/>
<path d="M17.9148 14.5344L14.5245 20.2546C14.4373 20.4056 14.2727 20.5 14.0886 20.5H13.5075C13.12 20.5 12.8778 20.0941 13.0716 19.7637L14.4276 17.4795C14.5148 17.3284 14.5148 17.1396 14.4276 16.9886L11.9092 12.741C11.8123 12.59 11.638 12.4956 11.4539 12.4956H6.417C6.23295 12.4956 6.07796 12.59 5.9811 12.741L4.625 15.0253C4.43128 15.3556 3.94696 15.3556 3.75323 15.0253L3.46265 14.5439C3.37547 14.3928 3.37547 14.2041 3.46265 14.053L6.8432 8.33287C6.93038 8.18185 7.09503 8.08745 7.27907 8.08745H14.0499C14.2339 8.08745 14.3889 8.18185 14.4858 8.33287L17.876 14.053C17.9922 14.1946 17.9922 14.3928 17.9148 14.5344Z" fill="#141414"/>
</svg>
