<svg width="24" height="24" viewBox="0 0 24 24" fill="none" xmlns="http://www.w3.org/2000/svg">
<path d="M19.9524 6.23623L13.0741 2.2869C12.4074 1.90437 11.5926 1.90437 10.9259 2.2869L4.04761 6.23623C3.40211 6.60842 3 7.29077 3 8.01447V15.9855C3 16.7196 3.40211 17.3916 4.04761 17.7638L10.9259 21.7131C11.5926 22.0956 12.4074 22.0956 13.0741 21.7131L19.9524 17.7638C20.5979 17.3916 21 16.7092 21 15.9855V8.01447C21 7.29077 20.5979 6.60842 19.9524 6.23623ZM17.709 15.7684L12.418 18.87C12.291 18.9424 12.1534 18.9837 12.0053 18.9837C11.8571 18.9837 11.7196 18.9424 11.5926 18.87L6.30158 15.7684C5.92063 15.5513 5.80422 15.0757 6.02644 14.7035C6.24866 14.3314 6.73546 14.2176 7.11642 14.4347L11.9947 17.2985L15.7408 15.0964L13.7725 13.9385L13.0847 14.6105C12.926 14.7656 12.7249 14.8379 12.5238 14.8379C12.3227 14.8379 12.1217 14.7656 11.963 14.6105C11.6561 14.3107 11.6561 13.8144 11.963 13.5146L12.3651 13.1217L10.4603 12.0052L9.91008 12.5428C9.75135 12.6979 9.55026 12.7702 9.3492 12.7702C9.14814 12.7702 8.94712 12.6979 8.78839 12.5428C8.48151 12.243 8.48151 11.7467 8.78839 11.4469L9.06347 11.1781L6.30158 9.55493C6.05819 9.41019 5.92064 9.16206 5.92064 8.89326C5.92064 8.62445 6.06878 8.36599 6.30158 8.23159L11.5926 5.13001C11.8466 4.98527 12.164 4.98527 12.4074 5.13001L17.6984 8.23159C18.0794 8.4487 18.1958 8.92427 17.9736 9.29646C17.7513 9.65831 17.2645 9.78237 16.8836 9.56526L12.0053 6.70146L8.25929 8.90359L10.2275 10.0615L10.9153 9.3895C11.2222 9.08968 11.7302 9.08968 12.0371 9.3895C12.344 9.68932 12.344 10.1856 12.0371 10.4854L11.635 10.8783L13.5397 11.9948L14.0899 11.4572C14.3968 11.1574 14.9048 11.1574 15.2117 11.4572C15.5186 11.757 15.5186 12.2533 15.2117 12.5531L14.9365 12.8219L17.6984 14.4451C17.9418 14.5898 18.0794 14.8379 18.0794 15.1067C18.0794 15.3755 17.9418 15.634 17.709 15.7684Z" fill="#141414"/>
</svg>
