<svg width="24" height="24" viewBox="0 0 24 24" fill="none" xmlns="http://www.w3.org/2000/svg">
<path d="M20.4521 5.07692C19.6012 5.07692 18.9144 4.38974 18.9144 3.53846C18.9144 2.68718 19.6012 2 20.4521 2H20.4623C21.3132 2 22 2.68718 22 3.53846C22 4.38974 21.3029 5.07692 20.4521 5.07692Z" fill="#141414"/>
<path d="M3.53767 22C2.68683 22 2 21.3128 2 20.4615C2 19.6103 2.68683 18.9231 3.53767 18.9231H3.5479C4.39875 18.9231 5.08558 19.6103 5.08558 20.4615C5.08558 21.3128 4.38852 22 3.53767 22Z" fill="#141414"/>
<path d="M5.86468 16.5128C5.6084 16.5128 5.35214 16.3795 5.20862 16.1436C4.45003 14.9026 4.03997 13.4667 4.03997 12C4.03997 7.62051 7.60738 4.05128 11.9846 4.05128C13.43 4.05128 14.8447 4.44103 16.0748 5.17949C16.4336 5.39488 16.5566 5.86667 16.3414 6.2359C16.1261 6.59488 15.6545 6.71795 15.2855 6.50256C14.2911 5.90769 13.1533 5.58974 11.9949 5.58974C8.45823 5.58974 5.58791 8.46154 5.58791 12C5.58791 13.1795 5.91593 14.3385 6.531 15.3436C6.75652 15.7026 6.64376 16.1744 6.27472 16.4C6.14145 16.482 5.99794 16.5128 5.86468 16.5128Z" fill="#141414"/>
<path d="M11.9846 19.9487C10.5084 19.9487 9.0733 19.5385 7.83291 18.7795C7.47411 18.5539 7.36135 18.0821 7.57663 17.7231C7.80215 17.3641 8.2737 17.2513 8.63249 17.4667C9.63711 18.0821 10.7955 18.4103 11.9846 18.4103C15.5213 18.4103 18.3916 15.5385 18.3916 12C18.3916 10.8205 18.0635 9.66155 17.4485 8.65642C17.2229 8.29744 17.3357 7.82565 17.7048 7.60001C18.0635 7.38462 18.5351 7.48719 18.7606 7.85642C19.5192 9.1077 19.9293 10.5333 19.9293 12.0103C19.9293 16.3795 16.3619 19.9487 11.9846 19.9487Z" fill="#141414"/>
</svg>
