<svg width="24" height="24" viewBox="0 0 24 24" fill="none" xmlns="http://www.w3.org/2000/svg">
<path d="M15.6764 16.4756H13.9713C12.6267 16.4756 11.5354 15.4198 11.5354 14.1188C11.5354 13.7323 11.8667 13.4118 12.2662 13.4118C12.6657 13.4118 12.9969 13.7323 12.9969 14.1188C12.9969 14.6373 13.4354 15.0615 13.9713 15.0615H15.6764C16.2123 15.0615 16.6508 14.6373 16.6508 14.1188C16.6508 13.6003 16.2123 13.1761 15.6764 13.1761H13.9713C12.6267 13.1761 11.5354 12.1202 11.5354 10.8192C11.5354 9.51828 12.6267 8.46242 13.9713 8.46242H15.6764C17.021 8.46242 18.1123 9.51828 18.1123 10.8192C18.1123 11.2058 17.781 11.5263 17.3815 11.5263C16.9821 11.5263 16.6508 11.2058 16.6508 10.8192C16.6508 10.3007 16.2123 9.87652 15.6764 9.87652H13.9713C13.4354 9.87652 12.9969 10.3007 12.9969 10.8192C12.9969 11.3377 13.4354 11.762 13.9713 11.762H15.6764C17.021 11.762 18.1123 12.8178 18.1123 14.1188C18.1123 15.4198 17.021 16.4756 15.6764 16.4756Z" fill="#141414"/>
<path d="M12.5098 22C12.2272 22 11.9446 21.934 11.6816 21.7926L10.2395 21.1233C9.87897 20.9536 9.72309 20.5293 9.89848 20.1805C10.0739 19.8317 10.5026 19.6809 10.8728 19.8506L12.3441 20.5388C12.4513 20.5953 12.5487 20.5953 12.6169 20.5576L20.4118 16.3719C20.4897 16.3342 20.5385 16.2494 20.5385 16.1645V7.84965C20.5385 7.7648 20.4897 7.68938 20.4118 7.64225L12.6169 3.45652C12.539 3.41881 12.4513 3.41881 12.3831 3.45652L4.58821 7.64225C4.51026 7.67996 4.46154 7.7648 4.46154 7.84965V16.1645C4.46154 16.2494 4.51026 16.3248 4.58821 16.3719L7.03386 17.6823C7.41386 17.8897 7.86206 17.8803 8.24206 17.6635C8.62206 17.4466 8.84615 17.0695 8.84615 16.6453L8.85591 9.16946C8.85591 8.78294 9.18719 8.46242 9.58668 8.46242C9.98616 8.46242 10.3174 8.78294 10.3174 9.16946L10.3077 16.6453C10.3077 17.5692 9.81078 18.4082 8.98258 18.8796C8.15437 19.3509 7.16055 19.3604 6.3226 18.9078L3.87695 17.5975C3.33131 17.3052 3 16.749 3 16.1551V7.84021C3 7.24629 3.33131 6.69008 3.87695 6.39784L11.6718 2.21211C12.1882 1.9293 12.8118 1.9293 13.3282 2.21211L21.1231 6.39784C21.6688 6.69008 22 7.24629 22 7.84021V16.1551C22 16.749 21.6688 17.3052 21.1231 17.5975L13.3282 21.7832C13.0749 21.9246 12.7923 22 12.5098 22Z" fill="#141414"/>
</svg>
