<svg width="24" height="24" viewBox="0 0 24 24" fill="none" xmlns="http://www.w3.org/2000/svg">
<path d="M19.9897 2H4.01028C3.40231 2 2.93621 2.52111 3.00714 3.11236L4.83103 19.3669C4.87157 19.7678 5.16545 20.1085 5.56063 20.2187L11.7213 21.9624C11.9037 22.0125 12.0963 22.0125 12.2787 21.9624L18.4394 20.2187C18.8345 20.1085 19.1183 19.7678 19.169 19.3669L20.9929 3.11236C21.0638 2.52111 20.5977 2 19.9897 2ZM11.3667 16.0198C11.3667 16.2603 11.2553 16.4808 11.0627 16.6211C10.931 16.7213 10.7689 16.7714 10.6067 16.7714C10.5358 16.7714 10.4649 16.7614 10.3939 16.7413L7.2325 15.8394C6.82719 15.7192 6.59419 15.3083 6.71578 14.9074C6.82724 14.5066 7.25281 14.2861 7.65812 14.3963L9.84678 15.0177V7.02066C9.84678 6.60979 10.1913 6.26907 10.6067 6.26907C11.0222 6.26907 11.3667 6.60979 11.3667 7.02066V16.0198ZM17.3248 15.1279C17.3248 15.4686 17.0917 15.7693 16.7472 15.8595L13.0994 16.7614C13.0386 16.7814 12.9778 16.7814 12.917 16.7814C12.5725 16.7814 12.2685 16.5509 12.1773 16.2102C12.076 15.8093 12.3192 15.3985 12.7346 15.2983L15.8049 14.5366V12.833L13.4845 13.1637C13.2616 13.1938 13.0487 13.1337 12.8765 12.9833C12.7144 12.843 12.613 12.6326 12.613 12.4121V7.45159C12.613 7.0808 12.8866 6.76011 13.2615 6.71001L16.4534 6.25905C16.8688 6.19892 17.2538 6.48954 17.3146 6.90041C17.3754 7.31129 17.0816 7.6921 16.6661 7.75223L14.1229 8.113V11.5503L16.4432 11.2196C16.6662 11.1895 16.8789 11.2497 17.0512 11.4C17.2133 11.5403 17.3146 11.7507 17.3146 11.9712V15.1279H17.3248Z" fill="#141414"/>
</svg>
