<svg width="24" height="24" viewBox="0 0 24 24" fill="none" xmlns="http://www.w3.org/2000/svg">
<path d="M12.005 2.5C6.48224 2.5 2 6.58701 2 11.6194C2 14.4754 3.44071 17.0162 5.68183 18.6904V20.5124C5.68183 21.2707 6.50223 21.7434 7.17257 21.3691L9.03354 20.3351C9.97401 20.601 10.9645 20.7388 11.995 20.7388C17.5177 20.7388 22 16.6519 22 11.6194C22.01 6.58701 17.5278 2.5 12.005 2.5ZM15.5168 10.8119L13.0155 13.7565C12.8554 13.9436 12.5953 13.983 12.3852 13.8648L11.3747 13.2838C11.2646 13.2247 11.1346 13.205 11.0045 13.2345L8.99348 13.7171C8.52325 13.8254 8.18308 13.2838 8.49323 12.9194L11.0345 9.94523C11.1846 9.76797 11.4447 9.71873 11.6548 9.82706L12.8354 10.4376C12.9455 10.4967 13.0755 10.5066 13.1956 10.477L15.0165 10.0142C15.4767 9.896 15.8269 10.4475 15.5168 10.8119Z" fill="#141414"/>
</svg>
