<svg width="24" height="24" viewBox="0 0 24 24" fill="none" xmlns="http://www.w3.org/2000/svg">
<path d="M15.0703 18.0165L14.0606 20.2902C13.8007 20.8638 13.4208 21.3656 12.9109 21.7138C12.391 22.0723 11.7112 22.103 11.1714 21.7548C9.53186 20.6896 5.9529 17.9551 3.78351 13.2131C3.70353 13.0492 3.92344 12.8853 4.0634 12.9878C4.63324 13.3974 5.24305 13.6842 5.91286 13.8481C6.32274 13.9403 6.74267 13.9812 7.14256 13.9812C9.00204 13.9812 10.6815 13.0082 11.8012 12.1684C12.1311 11.9226 12.571 11.8714 12.9109 12.0865C14.0306 12.8034 14.7804 13.6637 15.1503 14.6367C15.7901 16.3573 15.0903 17.9448 15.0703 18.0165Z" fill="#141414"/>
<path d="M16.8498 18.1906C16.7698 18.2828 16.6099 18.1804 16.6499 18.0677C17.0898 16.5724 17.6596 12.6293 12.561 10.1303C12.2511 9.97666 12.0212 9.68989 11.9812 9.34167C11.3614 3.64719 16.1501 2.623 16.1501 2.623C16.54 2.54106 16.9498 2.54106 17.3297 2.65372C18.4094 2.95074 19.5091 3.36042 20.6188 3.91348C21.5685 4.3846 22.1183 5.40879 21.9784 6.48419C21.6485 9.02417 20.5488 13.9198 16.8498 18.1906Z" fill="#141414"/>
<path d="M10.5615 10.161L10.5916 10.3659C10.6615 10.755 10.5016 11.1545 10.1816 11.3593C8.03225 12.742 4.51322 13.7866 2.36382 7.73369C2.16388 7.18063 2.04393 6.77096 2.00394 6.17693C1.95395 5.39855 2.38383 4.50751 3.06364 4.17977C4.82315 3.33994 8.54214 1.87535 13.0309 2.00849C13.2308 2.01873 13.3008 2.28502 13.1408 2.39768C11.4113 3.7496 9.92172 6.18717 10.5615 10.161Z" fill="#141414"/>
</svg>
