<svg width="24" height="24" viewBox="0 0 24 24" fill="none" xmlns="http://www.w3.org/2000/svg">
<path d="M8.11151 21.759C8.09212 21.759 8.07272 21.759 8.06303 21.759C7.68484 21.7301 7.38424 21.4217 7.38424 21.0361C7.38424 20.4867 7.45212 19.9759 7.59757 19.5036L9.33333 7.43614C9.39152 7.04096 9.76 6.77108 10.1576 6.81928C10.5552 6.87711 10.8364 7.24337 10.7782 7.63855L9.40121 17.1904C10.6036 16.4675 11.9127 16.4578 11.9903 16.4578C15.5976 16.4578 18.5358 13.5373 18.5358 9.95181C18.5358 6.36626 15.5976 3.44578 11.9903 3.44578C8.38303 3.44578 5.44485 6.36626 5.44485 9.95181C5.44485 11.012 5.70666 12.0627 6.20121 12.988C6.38545 13.3446 6.2497 13.7783 5.90061 13.9614C5.54182 14.1446 5.10545 14.0096 4.92121 13.6626C4.32 12.5253 4 11.2434 4 9.95181C4 5.56626 7.58788 2 12 2C16.4121 2 20 5.56626 20 9.95181C20 14.3373 16.4121 17.9036 12 17.9036C11.9127 17.9036 9.85697 17.9422 9.12 19.5904C9.09091 19.6675 9.05212 19.7446 9.03272 19.8217L8.84848 21.1325C8.78061 21.4988 8.4703 21.759 8.11151 21.759Z" fill="#141414"/>
<path d="M13.9297 22C13.6776 22 13.4255 21.894 13.2412 21.7205C13.0667 21.5373 12.96 21.2867 12.96 21.0361C12.96 20.9108 12.9891 20.7855 13.0376 20.6699C13.0861 20.5446 13.1539 20.4482 13.2412 20.3518C13.5127 20.0819 13.9394 19.9952 14.2982 20.1494C14.4242 20.1976 14.5212 20.2651 14.6182 20.3518C14.7055 20.4482 14.7733 20.5446 14.8218 20.6699C14.8703 20.7855 14.8994 20.9108 14.8994 21.0361C14.8994 21.2867 14.7927 21.5373 14.6182 21.7205C14.5212 21.8072 14.4242 21.8747 14.2982 21.9229C14.1818 21.9711 14.0558 22 13.9297 22Z" fill="#141414"/>
</svg>
