<svg width="24" height="24" viewBox="0 0 24 24" fill="none" xmlns="http://www.w3.org/2000/svg">
<path d="M18.479 7C18.479 7.18 18.4689 7.34999 18.4487 7.51999C18.3274 8.96999 17.6807 10.28 16.7005 11.24C15.6092 12.33 14.0935 13 12.416 13H9.25319C8.74794 13 8.32355 13.37 8.25281 13.86L7.48483 19.14C7.4242 19.53 7.14127 19.85 6.76739 19.95C6.67644 19.99 6.5855 20 6.48445 20H4.51398C3.88747 20 3.41255 19.45 3.5136 18.84L5.92866 4.51001C6.17118 3.06001 7.43432 2 8.91974 2H13.4265C16.2155 2 18.479 4.24 18.479 7Z" fill="#141414"/>
<path d="M20.5 11C20.5 12.38 19.9341 13.63 19.0247 14.54C18.1051 15.44 16.842 16 15.4475 16H13.275C12.7798 16 12.3554 16.35 12.2746 16.84L11.547 21.16C11.4662 21.65 11.0418 22 10.5466 22H7.5859C7.40401 22 7.24232 21.96 7.10085 21.88C6.87854 21.76 7.02002 21.47 7.26253 21.37C8.17198 21.08 8.83892 20.31 8.98038 19.35L9.62708 14.93C9.6675 14.68 9.87973 14.5 10.1222 14.5H12.4161C14.4471 14.5 16.357 13.72 17.7717 12.31C18.6104 11.49 19.2369 10.48 19.6006 9.39001C19.6815 9.14001 20.015 9.09 20.1261 9.32C20.3686 9.84 20.5 10.4 20.5 11Z" fill="#141414"/>
</svg>
