<svg width="24" height="24" viewBox="0 0 24 24" fill="none" xmlns="http://www.w3.org/2000/svg">
<path d="M9.49375 8.75338H8.24312V11.2546H9.49375C10.1841 11.2546 10.7444 10.6944 10.7444 10.004C10.7444 9.31366 10.1841 8.75338 9.49375 8.75338Z" fill="#141414"/>
<path d="M16.1871 2H7.8129C4.17108 2 2 4.17108 2 7.81291V16.1871C2 19.8289 4.17108 22 7.8129 22H16.1871C19.8289 22 22 19.8289 22 16.1871V7.81291C22 4.17108 19.8289 2 16.1871 2ZM9.49375 12.7554H8.24312V16.007C8.24312 16.4172 7.90295 16.7574 7.49274 16.7574C7.08254 16.7574 6.74237 16.4172 6.74237 16.007V8.00301C6.74237 7.5928 7.08254 7.25263 7.49274 7.25263H9.49375C11.0145 7.25263 12.2451 8.48325 12.2451 10.004C12.2451 11.5248 11.0145 12.7554 9.49375 12.7554ZM15.2466 12.7554C16.3472 12.7554 17.2476 13.6558 17.2476 14.7564C17.2476 15.8569 16.3472 16.7574 15.2466 16.7574H13.996C13.5858 16.7574 13.2456 16.4172 13.2456 16.007C13.2456 15.5968 13.5858 15.2566 13.996 15.2566H15.2466C15.5268 15.2566 15.7469 15.0365 15.7469 14.7564C15.7469 14.4762 15.5268 14.2561 15.2466 14.2561C14.1461 14.2561 13.2456 13.3557 13.2456 12.2551C13.2456 11.1546 14.1461 10.2541 15.2466 10.2541H16.4972C16.9075 10.2541 17.2476 10.5943 17.2476 11.0045C17.2476 11.4147 16.9075 11.7549 16.4972 11.7549H15.2466C14.9665 11.7549 14.7464 11.975 14.7464 12.2551C14.7464 12.5353 14.9665 12.7554 15.2466 12.7554Z" fill="#141414"/>
</svg>
