<svg width="24" height="24" viewBox="0 0 24 24" fill="none" xmlns="http://www.w3.org/2000/svg">
<path d="M20.4897 6.63376L12.4853 2.12935C12.1851 1.95688 11.8149 1.95688 11.5147 2.12935L3.51029 6.63376C3.19012 6.81637 3 7.15115 3 7.51638V16.4643C3 16.8295 3.20012 17.1745 3.51029 17.3469L11.5347 21.8716C11.8249 22.034 12.1751 22.0441 12.4652 21.8919L16.4975 19.8528C16.8077 19.6905 17.1779 19.7107 17.478 19.9035L19.4691 21.1716C20.1395 21.5977 21 21.1108 21 20.3093V17.6614C21 17.2962 20.7999 16.9513 20.4897 16.7788L17.488 15.0947C17.1879 14.9223 16.8177 14.9223 16.5175 15.0947L12.4853 17.3672C12.1851 17.5397 11.8149 17.5397 11.5147 17.3672L7.51252 15.115C7.19234 14.9324 7.00223 14.5976 7.00223 14.2324V9.78888C7.00223 9.42366 7.20235 9.07871 7.51252 8.90625L11.5147 6.65404C11.8149 6.48157 12.1851 6.48157 12.4853 6.65404L16.4875 8.90625C16.8077 9.08886 16.9978 9.42366 16.9978 9.78888V12.8933C16.9978 13.715 17.9083 14.1918 18.5687 13.7252L20.5698 12.315C20.8399 12.1222 21 11.8179 21 11.4831V7.53667C21 7.1613 20.7999 6.81637 20.4897 6.63376Z" fill="#141414"/>
<path d="M15.8571 10.3976V13.5933C15.8571 13.9484 15.667 14.273 15.3568 14.4455L12.4652 16.0788C12.1751 16.2411 11.8149 16.2411 11.5248 16.0788L8.63314 14.4455C8.32296 14.273 8.13286 13.9484 8.13286 13.5933V10.3976C8.13286 10.0425 8.32296 9.71786 8.63314 9.5454L11.5248 7.91204C11.8149 7.74972 12.1751 7.74972 12.4652 7.91204L15.3568 9.5454C15.667 9.71786 15.8571 10.0425 15.8571 10.3976Z" fill="#141414"/>
</svg>
