<svg width="24" height="24" viewBox="0 0 24 24" fill="none" xmlns="http://www.w3.org/2000/svg">
<path d="M20.8897 3H4.77713C4.43265 3 4.0993 3.15882 3.88817 3.42353L2.22135 5.54118C1.67686 6.24 2.19912 7.23529 3.11031 7.23529H19.2229C19.5673 7.23529 19.9007 7.07647 20.1118 6.81176L21.7786 4.69412C22.3231 3.99529 21.8009 3 20.8897 3Z" fill="#141414"/>
<path d="M3.11031 9.88235H19.2229C19.5673 9.88235 19.9007 10.0412 20.1118 10.3059L21.7786 12.4235C22.3231 13.1224 21.8009 14.1176 20.8897 14.1176H4.77713C4.43265 14.1176 4.0993 13.9588 3.88817 13.6941L2.22135 11.5765C1.67686 10.8776 2.19912 9.88235 3.11031 9.88235Z" fill="#141414"/>
<path d="M20.8897 16.7647H4.77713C4.43265 16.7647 4.0993 16.9235 3.88817 17.1882L2.22135 19.3059C1.67686 20.0047 2.19912 21 3.11031 21H19.2229C19.5673 21 19.9007 20.8412 20.1118 20.5765L21.7786 18.4588C22.3231 17.76 21.8009 16.7647 20.8897 16.7647Z" fill="#141414"/>
</svg>
