<svg width="24" height="24" viewBox="0 0 24 24" fill="none" xmlns="http://www.w3.org/2000/svg">
<path d="M16.1871 2H7.81292C4.1711 2 2 4.17108 2 7.81291V16.1871C2 19.8289 4.1711 22 7.81292 22H16.1871C19.8289 22 22 19.8289 22 16.1871V7.81291C22 4.17108 19.8289 2 16.1871 2ZM10.9945 7.50275C10.9945 7.78289 10.7744 8.00301 10.4943 8.00301H8.9935C8.44322 8.00301 7.993 8.45323 7.993 9.00351V10.5043C7.993 10.7844 7.77289 11.0045 7.49275 11.0045H5.49175C5.21161 11.0045 4.9915 10.7844 4.9915 10.5043V9.00351C4.9915 6.7924 6.7824 5.0015 8.9935 5.0015H10.4943C10.7744 5.0015 10.9945 5.22161 10.9945 5.50175V7.50275ZM18.9985 15.0065C18.9985 17.2176 17.2076 19.0085 14.9965 19.0085H13.4958C13.2156 19.0085 12.9955 18.7884 12.9955 18.5083V16.5073C12.9955 16.2271 13.2156 16.007 13.4958 16.007H14.9965C15.5468 16.007 15.997 15.5568 15.997 15.0065V13.5058C15.997 13.2256 16.2171 13.0055 16.4972 13.0055H18.4982C18.7784 13.0055 18.9985 13.2256 18.9985 13.5058V15.0065Z" fill="#141414"/>
</svg>
