<svg width="24" height="24" viewBox="0 0 24 24" fill="none" xmlns="http://www.w3.org/2000/svg">
<path d="M14.4674 2.25073C13.2796 2.25073 12.3139 3.21503 12.3139 4.40115V8.87561C12.3139 10.0617 13.2796 11.0261 14.4674 11.0261C15.6552 11.0261 16.621 10.0617 16.621 8.87561V4.40115C16.621 3.22468 15.6552 2.25073 14.4674 2.25073Z" fill="#141414"/>
<path d="M19.914 7.29411C18.8807 7.29411 18.0406 8.13307 18.0406 9.1649V10.6789C18.0406 10.8814 18.2047 11.0453 18.4075 11.0453H19.9237C20.957 11.0453 21.7972 10.2064 21.7972 9.17455C21.7972 8.14272 20.9474 7.29411 19.914 7.29411Z" fill="#141414"/>
<path d="M8.63447 7.1784H4.15355C2.96571 7.1784 2 8.14273 2 9.32884C2 10.515 2.96571 11.4793 4.15355 11.4793H8.63447C9.82231 11.4793 10.788 10.515 10.788 9.32884C10.788 8.14273 9.82231 7.1784 8.63447 7.1784Z" fill="#141414"/>
<path d="M8.91453 2C7.88121 2 7.04105 2.83896 7.04105 3.87078C7.04105 4.90261 7.88121 5.74157 8.91453 5.74157H10.4307C10.6335 5.74157 10.7977 5.57763 10.7977 5.37512V3.86113C10.788 2.8486 9.94784 2 8.91453 2Z" fill="#141414"/>
<path d="M9.53258 13.0029C8.34475 13.0029 7.37904 13.9672 7.37904 15.1533V19.6278C7.37904 20.8139 8.34475 21.7782 9.53258 21.7782C10.7204 21.7782 11.6861 20.8139 11.6861 19.6278V15.1533C11.6861 13.9672 10.7204 13.0029 9.53258 13.0029Z" fill="#141414"/>
<path d="M5.60212 13.0029H4.08594C3.05262 13.0029 2.21246 13.8419 2.21246 14.8737C2.21246 15.9055 3.05262 16.7445 4.08594 16.7445C5.11926 16.7445 5.95943 15.9055 5.95943 14.8737V13.3597C5.95943 13.1668 5.79527 13.0029 5.60212 13.0029Z" fill="#141414"/>
<path d="M19.8465 12.5593H15.3655C14.1777 12.5593 13.212 13.5236 13.212 14.7097C13.212 15.8959 14.1777 16.8602 15.3655 16.8602H19.8465C21.0343 16.8602 22 15.8959 22 14.7097C22 13.5236 21.0343 12.5593 19.8465 12.5593Z" fill="#141414"/>
<path d="M15.0855 18.2488H13.5693C13.3665 18.2488 13.2023 18.4127 13.2023 18.6153V20.1292C13.2023 21.1611 14.0425 22 15.0758 22C16.1091 22 16.9493 21.1611 16.9493 20.1292C16.959 19.0878 16.1188 18.2488 15.0855 18.2488Z" fill="#141414"/>
</svg>
