<svg width="24" height="24" viewBox="0 0 24 24" fill="none" xmlns="http://www.w3.org/2000/svg">
<path d="M16.1871 2H7.81291C4.17108 2 2 4.17108 2 7.81291V16.1871C2 19.8289 4.17108 22 7.81291 22H16.1871C19.8289 22 22 19.8289 22 16.1871V7.81291C22 4.17108 19.8289 2 16.1871 2ZM10.7644 16.4972C10.7644 17.1676 10.2141 17.7179 9.54375 17.7179H7.09251C6.42218 17.7179 5.87193 17.1676 5.87193 16.4972V7.51277C5.87193 6.84243 6.42218 6.29216 7.09251 6.29216H9.54375C10.2141 6.29216 10.7644 6.84243 10.7644 7.51277V16.4972ZM18.1181 12.6553C18.1181 13.1956 17.6779 13.6358 17.1376 13.6358H14.1961C13.6558 13.6358 13.2156 13.1956 13.2156 12.6553V7.26264C13.2156 6.72237 13.6558 6.28214 14.1961 6.28214H17.1376C17.6779 6.28214 18.1181 6.72237 18.1181 7.26264V12.6553Z" fill="#141414"/>
</svg>
