<svg width="24" height="24" viewBox="0 0 24 24" fill="none" xmlns="http://www.w3.org/2000/svg">
<path d="M19.5879 10.5317C20.121 10.4317 20.4902 11.0218 20.1621 11.4418L13.0357 20.2935C12.6768 20.7436 11.9386 20.4535 12.0001 19.8934L12.7179 12.292C12.7384 12.042 12.9332 11.8319 13.1895 11.7819L19.5879 10.5317Z" fill="#141414"/>
<path d="M21.8847 7.69114C22.1103 7.93118 21.9872 8.32125 21.6693 8.39127L13.0152 10.0816C12.4512 10.1916 12.0821 9.52148 12.4923 9.1214L17.6396 4.10046C17.8755 3.87042 18.2549 3.88042 18.4804 4.11046L21.8847 7.69114Z" fill="#141414"/>
<path d="M14.7583 3.19029C15.2402 3.2503 15.4351 3.82041 15.0967 4.16047L11.4464 7.72114C11.2311 7.93118 10.8824 7.94118 10.6466 7.74114L5.17114 2.99025C4.74049 2.62018 5.06856 1.93005 5.63251 2.00006L14.7583 3.19029Z" fill="#141414"/>
<path d="M10.6876 10.0716C10.9645 10.3116 11.0978 10.6617 11.0773 11.0118L10.1955 21.4737C10.1442 22.0738 9.29316 22.1939 9.06758 21.6338L2.04376 3.96043C1.81818 3.40033 2.51546 2.93024 2.97688 3.33031L10.6876 10.0716Z" fill="#141414"/>
</svg>
