<svg width="24" height="24" viewBox="0 0 24 24" fill="none" xmlns="http://www.w3.org/2000/svg">
<path fill-rule="evenodd" clip-rule="evenodd" d="M20.5093 2H5.04131C4.71114 2 4.39099 2.17001 4.21089 2.45001L2.67009 4.75C2.56003 4.91 2.5 5.10999 2.5 5.29999V18C2.5 18.55 2.95023 19 3.50052 19H5.50155C6.05184 19 6.50207 19.45 6.50207 20V21C6.50207 21.55 6.9523 22 7.50259 22H8.96335C9.29352 22 9.61367 21.83 9.79377 21.55L11.2045 19.44C11.3946 19.16 11.7048 18.99 12.0349 18.99H16.087C16.3572 18.99 16.6073 18.88 16.7974 18.7L21.2097 14.29C21.3998 14.1 21.4998 13.85 21.4998 13.58V3C21.5098 2.45 21.0596 2 20.5093 2ZM10.7943 12.86C10.7943 13.18 10.5342 13.43 10.224 13.43H9.08341C8.76324 13.43 8.51311 13.17 8.51311 12.86V7.14999C8.51311 6.82999 8.77325 6.57999 9.08341 6.57999H10.224C10.5442 6.57999 10.7943 6.83999 10.7943 7.14999V12.86ZM16.5072 12.86C16.5072 13.18 16.2471 13.43 15.9369 13.43H14.7964C14.4762 13.43 14.2261 13.17 14.2261 12.86V7.14999C14.2261 6.82999 14.4862 6.57999 14.7964 6.57999H15.9369C16.2571 6.57999 16.5072 6.83999 16.5072 7.14999V12.86Z" fill="#141414"/>
</svg>
