<svg width="24" height="24" viewBox="0 0 24 24" fill="none" xmlns="http://www.w3.org/2000/svg">
<path d="M21.7102 9.93031L19.3101 5.19115C18.8401 4.25709 17.5901 3.5 16.5301 3.5H7.47003C6.41002 3.5 5.16001 4.25709 4.69001 5.19115L2.28997 9.93031C1.70997 11.0709 2.02997 12.6932 2.97998 13.5486L9.91006 19.7331C11.0601 20.7556 12.9301 20.7556 14.0801 19.7331L21.0102 13.5486C21.9702 12.6932 22.2902 11.061 21.7102 9.93031ZM16.0001 9.29121H12.7501V14.4532C12.7501 14.8563 12.4101 15.1906 12.0001 15.1906C11.5901 15.1906 11.2501 14.8563 11.2501 14.4532V9.29121H8.00004C7.59003 9.29121 7.25003 8.95691 7.25003 8.55379C7.25003 8.15067 7.59003 7.81637 8.00004 7.81637H16.0001C16.4101 7.81637 16.7501 8.15067 16.7501 8.55379C16.7501 8.95691 16.4101 9.29121 16.0001 9.29121Z" fill="#141414"/>
</svg>
