<svg width="24" height="24" viewBox="0 0 24 24" fill="none" xmlns="http://www.w3.org/2000/svg">
<path d="M16.86 5H19.21C19.39 5 19.5501 5.1 19.6401 5.25L22.05 9.45C22.14 9.6 22.14 9.79 22.05 9.94L17.4101 18.24C17.2201 18.58 16.7401 18.58 16.5401 18.25L15.2801 16.14C15.1901 15.98 15.1901 15.79 15.2801 15.64L18.5401 9.94C18.6301 9.79 18.6301 9.6 18.5401 9.44L16.4101 5.74001C16.2401 5.42001 16.48 5 16.86 5Z" fill="#141414"/>
<path d="M9.86004 5H12.21C12.39 5 12.5501 5.1 12.6401 5.25L15.05 9.45C15.14 9.6 15.14 9.79 15.05 9.94L10.4101 18.24C10.2201 18.58 9.74006 18.58 9.54006 18.25L8.28006 16.14C8.19005 15.98 8.19005 15.79 8.28006 15.64L11.5401 9.94C11.6301 9.79 11.6301 9.6 11.5401 9.44L9.41006 5.74001C9.24006 5.42001 9.48004 5 9.86004 5Z" fill="#141414"/>
<path d="M1.80005 5H5.01007C5.19007 5 5.36007 5.1 5.45007 5.25L7.87006 9.53999C7.96006 9.68999 7.96006 9.87999 7.87006 10.04L6.75006 11.96C6.56006 12.29 6.08008 12.29 5.89008 11.96L1.80005 5Z" fill="#141414"/>
</svg>
