<svg width="24" height="24" viewBox="0 0 24 24" fill="none" xmlns="http://www.w3.org/2000/svg">
<path d="M21.9861 11.4104C21.6461 5.61044 16.3761 1.14045 10.3061 2.14045C6.12614 2.83045 2.77615 6.22043 2.12615 10.4004C1.74615 12.8204 2.24617 15.1104 3.33617 17.0004L2.44616 20.3104C2.24616 21.0604 2.93614 21.7404 3.67614 21.5304L6.93615 20.6304C8.41615 21.5004 10.1461 22.0004 11.9961 22.0004C17.6361 22.0004 22.3161 17.0304 21.9861 11.4104ZM16.8862 15.7204C16.7962 15.9004 16.6861 16.0704 16.5461 16.2304C16.2961 16.5004 16.0261 16.7004 15.7261 16.8204C15.4261 16.9504 15.0961 17.0104 14.7461 17.0104C14.2361 17.0104 13.6861 16.8904 13.1161 16.6404C12.5361 16.3904 11.9662 16.0604 11.3962 15.6504C10.8162 15.2304 10.2762 14.7604 9.75616 14.2504C9.23616 13.7304 8.77613 13.1804 8.35613 12.6104C7.94613 12.0404 7.61615 11.4704 7.37615 10.9004C7.13615 10.3304 7.01617 9.78044 7.01617 9.26044C7.01617 8.92044 7.07616 8.59044 7.19616 8.29044C7.31616 7.98044 7.50618 7.70045 7.77618 7.45045C8.09618 7.13045 8.44615 6.98045 8.81615 6.98045C8.95615 6.98045 9.09613 7.01044 9.22613 7.07044C9.35613 7.13044 9.47615 7.22044 9.56615 7.35044L10.7261 8.99043C10.8161 9.12043 10.8861 9.23043 10.9261 9.34043C10.9761 9.45043 10.9961 9.55043 10.9961 9.65043C10.9961 9.77043 10.9562 9.89045 10.8862 10.0104C10.8162 10.1304 10.7261 10.2504 10.6061 10.3704L10.2261 10.7704C10.1661 10.8304 10.1462 10.8904 10.1462 10.9704C10.1462 11.0104 10.1561 11.0504 10.1661 11.0904C10.1861 11.1304 10.1962 11.1604 10.2062 11.1904C10.2962 11.3604 10.4561 11.5704 10.6761 11.8304C10.9061 12.0904 11.1462 12.3604 11.4062 12.6204C11.6762 12.8904 11.9362 13.1304 12.2062 13.3604C12.4662 13.5804 12.6861 13.7304 12.8561 13.8204C12.8861 13.8304 12.9162 13.8504 12.9462 13.8604C12.9862 13.8804 13.0262 13.8804 13.0762 13.8804C13.1662 13.8804 13.2262 13.8504 13.2862 13.7904L13.6661 13.4104C13.7961 13.2804 13.9162 13.1904 14.0262 13.1304C14.1462 13.0604 14.2562 13.0204 14.3862 13.0204C14.4862 13.0204 14.5862 13.0404 14.6962 13.0904C14.8062 13.1404 14.9261 13.2004 15.0461 13.2904L16.7062 14.4704C16.8362 14.5604 16.9261 14.6704 16.9861 14.7904C17.0361 14.9204 17.0662 15.0404 17.0662 15.1804C17.0062 15.3504 16.9662 15.5404 16.8862 15.7204Z" fill="#141414"/>
</svg>
