<svg width="24" height="24" viewBox="0 0 24 24" fill="none" xmlns="http://www.w3.org/2000/svg">
<path d="M21.09 6.98002C20.24 6.04002 18.83 5.57002 16.76 5.57002H16.52V5.53002C16.52 3.85002 16.52 1.77002 12.76 1.77002H11.24C7.47998 1.77002 7.47998 3.85002 7.47998 5.53002V5.57002H7.23998C5.16998 5.57002 3.74998 6.04002 2.90998 6.98002C1.91998 8.09002 1.94998 9.56002 2.04998 10.57L2.05998 10.64L2.12906 11.446C2.14226 11.5999 2.2258 11.7392 2.35552 11.8232C2.6392 12.0068 2.94103 12.1995 3.22998 12.36C3.36998 12.45 3.51998 12.53 3.66998 12.61C4.79998 13.23 6.00998 13.72 7.24998 14.06C7.27998 16.65 9.39998 18.75 12 18.75C14.62 18.75 16.75 16.62 16.75 14V13.96C18.01 13.58 19.22 13.05 20.35 12.39C20.41 12.36 20.45 12.33 20.5 12.3C20.8946 12.0855 21.304 11.8048 21.6775 11.54C21.7938 11.4575 21.8688 11.329 21.8841 11.1873L21.95 10.58C21.96 10.52 21.96 10.47 21.97 10.4C22.05 9.40002 22.03 8.02002 21.09 6.98002ZM8.90998 5.53002C8.90998 3.83002 8.90998 3.19002 11.24 3.19002H12.76C15.09 3.19002 15.09 3.83002 15.09 5.53002V5.57002H8.90998V5.53002ZM12 17.25C10.35 17.25 8.97998 16.01 8.77998 14.41C8.75998 14.28 8.74998 14.14 8.74998 14C8.74998 12.21 10.21 10.75 12 10.75C13.79 10.75 15.25 12.21 15.25 14C15.25 14.12 15.24 14.23 15.23 14.34V14.35C15.05 15.98 13.67 17.25 12 17.25Z" fill="#141414"/>
<path d="M11.43 16.03C11.24 16.03 11.05 15.96 10.9 15.81L9.91 14.83C9.62 14.54 9.62 14.06 9.91 13.77C10.2 13.48 10.68 13.48 10.97 13.77L11.45 14.25L13.06 12.77C13.36 12.49 13.84 12.51 14.12 12.81C14.4 13.11 14.38 13.59 14.08 13.87L11.95 15.84C11.79 15.96 11.61 16.03 11.43 16.03Z" fill="#141414"/>
<path d="M21.0416 13.7311C21.2903 13.5929 21.6129 13.7931 21.587 14.0765L21.2316 17.9611C21.0216 19.9611 20.2016 22.0011 15.8016 22.0011H8.18156C3.78156 22.0011 2.96156 19.9611 2.76156 17.9711L2.41569 14.2678C2.38884 13.9802 2.69635 13.786 2.95156 13.9211C3.73156 14.3511 4.54156 14.7311 5.37156 15.0311C5.68156 15.1411 5.90156 15.4011 5.99156 15.7211C6.74156 18.3211 9.16156 20.2511 12.0016 20.2511C14.8916 20.2511 17.3316 18.2811 18.0416 15.5811C18.1216 15.2611 18.3416 15.0011 18.6516 14.8811C19.4916 14.5511 20.2916 14.1611 21.0416 13.7311Z" fill="#141414"/>
</svg>
