<svg width="24" height="24" viewBox="0 0 24 24" fill="none" xmlns="http://www.w3.org/2000/svg">
<path d="M21.0903 7.09282C20.2401 6.17396 18.8199 5.71453 16.7595 5.71453H16.5195V5.67543C16.5195 4.03322 16.5195 2 12.7589 2H11.2386C7.47801 2 7.47801 4.04299 7.47801 5.67543V5.72431H7.23797C5.16763 5.72431 3.7574 6.18373 2.90726 7.10259C1.91709 8.17785 1.9471 9.62456 2.04712 10.6118L2.05712 10.6803L2.13459 11.4753C2.14885 11.6217 2.22953 11.7539 2.35544 11.8344C2.59529 11.9878 2.9967 12.2407 3.23731 12.3714C3.37734 12.4593 3.52736 12.5375 3.67739 12.6157C5.38767 13.5346 7.26798 14.1504 9.17829 14.4535C9.26831 15.3723 9.67838 16.4476 11.8687 16.4476C14.0591 16.4476 14.4892 15.3821 14.5592 14.4339C16.5995 14.1113 18.5698 13.4173 20.3501 12.4007C20.4102 12.3714 20.4502 12.342 20.5002 12.3127C20.8969 12.0935 21.3086 11.8234 21.6838 11.5589C21.7969 11.4792 21.8691 11.356 21.8845 11.2206L21.9004 11.081L21.9504 10.6216C21.9604 10.563 21.9604 10.5141 21.9704 10.4457C22.0504 9.45839 22.0304 8.10943 21.0903 7.09282ZM13.0889 13.7887C13.0889 14.8249 13.0889 14.9813 11.8587 14.9813C10.6285 14.9813 10.6285 14.7956 10.6285 13.7985V12.5669H13.0889V13.7887ZM8.90825 5.67543C8.90825 4.01367 8.90825 3.39784 11.2386 3.39784H12.7589C15.0893 3.39784 15.0893 4.02344 15.0893 5.67543V5.72431H8.90825V5.67543Z" fill="#141414"/>
<path d="M20.8738 13.6953C21.2274 13.5308 21.6347 13.8048 21.5993 14.186L21.2403 18.0509C21.0303 20.0059 20.2102 22 15.8094 22H8.18818C3.78745 22 2.96732 20.0059 2.75728 18.0606L2.41652 14.3971C2.38147 14.0203 2.77949 13.7467 3.13218 13.9026C4.27179 14.4065 6.37528 15.3006 7.67466 15.6332C7.839 15.6752 7.97192 15.7902 8.04387 15.9406C8.65094 17.2095 9.96759 17.8847 11.8688 17.8847C13.7512 17.8847 15.0845 17.1835 15.6936 15.9115C15.7656 15.761 15.8987 15.646 16.0631 15.6038C17.4429 15.2489 19.6819 14.2496 20.8738 13.6953Z" fill="#141414"/>
</svg>
