<svg width="24" height="24" viewBox="0 0 24 24" fill="none" xmlns="http://www.w3.org/2000/svg">
<path d="M11.13 15.88C10.88 15.88 10.63 15.75 10.49 15.52C10.28 15.17 10.39 14.7 10.75 14.49L11.64 13.96V12.88C11.64 12.47 11.98 12.13 12.39 12.13C12.8 12.13 13.14 12.47 13.14 12.88V14.38C13.14 14.64 13 14.89 12.78 15.02L11.53 15.77C11.39 15.84 11.26 15.88 11.13 15.88Z" fill="#141414"/>
<path d="M21.09 6.98002C20.24 6.04002 18.83 5.57002 16.76 5.57002H16.52V5.53002C16.52 3.85002 16.52 1.77002 12.76 1.77002H11.24C7.47998 1.77002 7.47998 3.85002 7.47998 5.53002V5.57002H7.23998C5.16998 5.57002 3.74998 6.04002 2.90998 6.98002C1.91998 8.09002 1.94998 9.56002 2.04998 10.57L2.05998 10.64L2.12906 11.446C2.14226 11.5999 2.2258 11.7392 2.35552 11.8232C2.6392 12.0068 2.94103 12.1995 3.22998 12.36C3.36998 12.45 3.51998 12.53 3.66998 12.61C4.79998 13.23 6.00998 13.72 7.24998 14.06C7.27998 16.65 9.39998 18.75 12 18.75C14.62 18.75 16.75 16.62 16.75 14V13.96C18.01 13.58 19.22 13.05 20.35 12.39C20.41 12.36 20.45 12.33 20.5 12.3C20.8948 12.0854 21.3044 11.8045 21.6782 11.5395C21.7941 11.4573 21.8689 11.3293 21.8846 11.1881L21.9 11.05L21.95 10.58C21.96 10.52 21.96 10.47 21.97 10.4C22.05 9.40002 22.03 8.02002 21.09 6.98002ZM8.90998 5.53002C8.90998 3.83002 8.90998 3.19002 11.24 3.19002H12.76C15.09 3.19002 15.09 3.83002 15.09 5.53002V5.57002H8.90998V5.53002ZM12 17.25C10.35 17.25 8.97998 16.01 8.77998 14.41C8.75998 14.28 8.74998 14.14 8.74998 14C8.74998 12.21 10.21 10.75 12 10.75C13.79 10.75 15.25 12.21 15.25 14C15.25 14.12 15.24 14.23 15.23 14.34V14.35C15.05 15.98 13.67 17.25 12 17.25Z" fill="#141414"/>
<path d="M21.04 13.73C21.2887 13.5918 21.6114 13.792 21.5854 14.0754L21.23 17.96C21.02 19.96 20.2 22 15.8 22H8.17998C3.77998 22 2.95998 19.96 2.75998 17.97L2.41411 14.2667C2.38725 13.9792 2.69476 13.7849 2.94998 13.92C3.72998 14.35 4.53998 14.73 5.36998 15.03C5.67998 15.14 5.89998 15.4 5.98998 15.72C6.73997 18.32 9.15997 20.25 12 20.25C14.89 20.25 17.33 18.28 18.04 15.58C18.12 15.26 18.34 15 18.65 14.88C19.49 14.55 20.29 14.16 21.04 13.73Z" fill="#141414"/>
</svg>
