<svg width="24" height="24" viewBox="0 0 24 24" fill="none" xmlns="http://www.w3.org/2000/svg">
<path d="M13.5719 20.1578C13.3117 20.2678 13.0315 20.3678 12.7313 20.4678L11.1502 20.9877C7.17754 22.2677 5.08611 21.1977 3.79523 17.2279L2.51436 13.2781C1.23349 9.30825 2.29421 7.20834 6.26692 5.92839L7.80796 5.41842C7.61783 5.8984 7.45773 6.44837 7.30762 7.06834L6.32696 11.2582C5.22621 15.968 6.8373 18.5678 11.5505 19.6878L13.2317 20.0878C13.3417 20.1178 13.4618 20.1378 13.5719 20.1578Z" fill="#141414"/>
<path d="M17.1943 3.20851L15.5232 2.81853C12.1809 2.02856 10.1896 2.67854 9.01879 5.09843C8.71858 5.7084 8.47842 6.44837 8.27828 7.29833L7.29762 11.4882C6.31695 15.668 7.60783 17.7279 11.7807 18.7178L13.4618 19.1178C14.0422 19.2578 14.5826 19.3478 15.0829 19.3878C18.205 19.6878 19.8662 18.2279 20.7067 14.618L21.6874 10.4382C22.6681 6.25838 21.3872 4.18847 17.1943 3.20851Z" fill="#141414"/>
</svg>
