<svg width="24" height="24" viewBox="0 0 24 24" fill="none" xmlns="http://www.w3.org/2000/svg">
<path d="M16.8876 15.6391C17.5641 15.1992 18.4528 15.6791 18.4528 16.4789V17.7686C18.4528 19.0382 17.4531 20.3979 16.2514 20.7978L13.03 21.8575C12.4645 22.0475 11.5456 22.0475 10.9901 21.8575L7.76879 20.7978C6.55699 20.3979 5.56736 19.0382 5.56736 17.7686V16.4689C5.56736 15.6791 6.45601 15.1992 7.1225 15.6291L9.20275 16.9688C10.0005 17.4986 11.0103 17.7586 12.0202 17.7586C13.03 17.7586 14.0398 17.4986 14.8376 16.9688L16.8876 15.6391Z" fill="#141414"/>
<path d="M20.0685 6.46138L14.0196 2.53237C12.929 1.82254 11.1315 1.82254 10.0409 2.53237L3.96173 6.46138C2.01276 7.71107 2.01276 10.5404 3.96173 11.8L5.57746 12.8398L10.0409 15.7191C11.1315 16.4289 12.929 16.4289 14.0196 15.7191L19.8363 11.94V14.9992C19.8363 15.4091 20.1796 15.7491 20.5936 15.7491C21.0077 15.7491 21.351 15.4091 21.351 14.9992V10.0805C21.7549 8.7908 21.3409 7.29118 20.0685 6.46138Z" fill="#141414"/>
</svg>
