<svg width="24" height="24" viewBox="0 0 24 24" fill="none" xmlns="http://www.w3.org/2000/svg">
<path d="M20 11.9999V17.9999C20 20.2099 18.21 21.9999 16 21.9999H8C5.79 21.9999 4 20.2099 4 17.9999V11.9999C4 11.4499 4.45 10.9999 5 10.9999H6.97C7.52 10.9999 7.97 11.4499 7.97 11.9999V15.1399C7.97 15.8799 8.38 16.5599 9.03 16.9099C9.32 17.0699 9.64 17.1499 9.97 17.1499C10.35 17.1499 10.73 17.0399 11.06 16.8199L12.01 16.1999L12.89 16.7899C13.5 17.1999 14.28 17.2499 14.93 16.8999C15.59 16.5499 16 15.8799 16 15.1299V11.9999C16 11.4499 16.45 10.9999 17 10.9999H19C19.55 10.9999 20 11.4499 20 11.9999Z" fill="#141414"/>
<path d="M21.5 6.99994V7.99994C21.5 9.09994 20.97 9.99994 19.5 9.99994H4.5C2.97 9.99994 2.5 9.09994 2.5 7.99994V6.99994C2.5 5.89994 2.97 4.99994 4.5 4.99994H19.5C20.97 4.99994 21.5 5.89994 21.5 6.99994Z" fill="#141414"/>
<path d="M11.64 4.99994H6.12C5.78 4.62994 5.79 4.05994 6.15 3.69994L7.57 2.27994C7.94 1.90994 8.55 1.90994 8.92 2.27994L11.64 4.99994Z" fill="#141414"/>
<path d="M17.87 4.99994H12.35L15.07 2.27994C15.44 1.90994 16.05 1.90994 16.42 2.27994L17.84 3.69994C18.2 4.05994 18.21 4.62994 17.87 4.99994Z" fill="#141414"/>
<path d="M13.97 10.9999C14.52 10.9999 14.97 11.4499 14.97 11.9999V15.1299C14.97 15.9299 14.08 16.4099 13.42 15.9599L12.52 15.3599C12.19 15.1399 11.76 15.1399 11.42 15.3599L10.48 15.9799C9.82 16.4199 8.94 15.9399 8.94 15.1499V11.9999C8.94 11.4499 9.39 10.9999 9.94 10.9999H13.97Z" fill="#141414"/>
</svg>
