<svg width="24" height="24" viewBox="0 0 24 24" fill="none" xmlns="http://www.w3.org/2000/svg">
<path d="M12.699 19.9548C12.9739 20.0187 12.9991 20.3786 12.7313 20.4678L11.1502 20.9877C7.17753 22.2677 5.08611 21.1977 3.79523 17.2279L2.51436 13.2781C1.23349 9.30825 2.29421 7.20834 6.26691 5.92839L6.79127 5.75487C7.19441 5.62146 7.58674 6.0255 7.47227 6.43416C7.41552 6.63672 7.36094 6.84812 7.30762 7.06835L6.32696 11.2582C5.22621 15.968 6.8373 18.5678 11.5505 19.6878L12.699 19.9548Z" fill="#141414"/>
<path d="M17.1943 3.20851L15.5232 2.81853C12.1809 2.02856 10.1896 2.67854 9.01879 5.09843C8.71858 5.7084 8.47842 6.44837 8.27828 7.29834L7.29762 11.4882C6.31695 15.668 7.60783 17.7279 11.7807 18.7178L13.4618 19.1178C14.0422 19.2578 14.5826 19.3478 15.0829 19.3878C18.205 19.6878 19.8662 18.2279 20.7067 14.618L21.6874 10.4382C22.6681 6.25838 21.3872 4.18847 17.1943 3.20851ZM15.3131 13.3281C15.223 13.6681 14.9228 13.888 14.5826 13.888C14.5225 13.888 14.4625 13.878 14.3924 13.868L11.4805 13.1281C11.0802 13.0281 10.84 12.6181 10.9401 12.2181C11.0402 11.8181 11.4504 11.5781 11.8507 11.6781L14.7627 12.4181C15.173 12.5181 15.4131 12.9281 15.3131 13.3281ZM18.2451 9.94822C18.155 10.2882 17.8548 10.5082 17.5146 10.5082C17.4545 10.5082 17.3945 10.4982 17.3244 10.4882L12.4711 9.25825C12.0709 9.15825 11.8307 8.74827 11.9308 8.34829C12.0308 7.94831 12.4411 7.70832 12.8414 7.80831L17.6947 9.03826C18.105 9.12826 18.3451 9.53824 18.2451 9.94822Z" fill="#141414"/>
</svg>
