<svg width="24" height="24" viewBox="0 0 24 24" fill="none" xmlns="http://www.w3.org/2000/svg">
<path d="M22 5.19004V17.1898C22 18.1688 21.2104 19.067 20.2409 19.1881L19.931 19.2285C18.2919 19.4505 15.983 20.1368 14.1239 20.924C13.4743 21.1965 12.7546 20.702 12.7546 19.9854V5.94696C12.7546 5.57355 12.9645 5.23041 13.2944 5.04875C15.1234 4.0496 17.8921 3.16148 19.7711 3H19.8311C21.0305 3 22 3.97896 22 5.19004Z" fill="#141414"/>
<path d="M10.7156 5.04875C8.88656 4.0496 6.11794 3.16148 4.23888 3H4.16892C2.96952 3 2 3.97896 2 5.19004V17.1898C2 18.1688 2.78961 19.067 3.75912 19.1881L4.06897 19.2285C5.70815 19.4505 8.01699 20.1368 9.87606 20.924C10.5257 21.1965 11.2454 20.702 11.2454 19.9854V5.94696C11.2454 5.56346 11.0455 5.23041 10.7156 5.04875ZM5.0085 8.10673H7.25737C7.66717 8.10673 8.007 8.44987 8.007 8.86365C8.007 9.28753 7.66717 9.62058 7.25737 9.62058H5.0085C4.5987 9.62058 4.25887 9.28753 4.25887 8.86365C4.25887 8.44987 4.5987 8.10673 5.0085 8.10673ZM8.007 12.6483H5.0085C4.5987 12.6483 4.25887 12.3152 4.25887 11.8914C4.25887 11.4776 4.5987 11.1344 5.0085 11.1344H8.007C8.41679 11.1344 8.75662 11.4776 8.75662 11.8914C8.75662 12.3152 8.41679 12.6483 8.007 12.6483Z" fill="#141414"/>
</svg>
