<svg width="24" height="24" viewBox="0 0 24 24" fill="none" xmlns="http://www.w3.org/2000/svg">
<path d="M13.4676 14.5945L12.9436 14.0705L13.4379 13.5762C13.7246 13.2896 13.7246 12.815 13.4379 12.5283C13.1512 12.2417 12.6767 12.2417 12.39 12.5283L11.8957 13.0226L11.3718 12.4987C11.0851 12.212 10.6106 12.212 10.3239 12.4987C10.0372 12.7854 10.0372 13.2599 10.3239 13.5466L10.8478 14.0705L10.3041 14.6142C10.0174 14.9009 10.0174 15.3755 10.3041 15.6621C10.4524 15.8104 10.6402 15.8796 10.8281 15.8796C11.0159 15.8796 11.2037 15.8104 11.352 15.6621L11.8957 15.1184L12.4197 15.6424C12.568 15.7907 12.7558 15.8599 12.9436 15.8599C13.1315 15.8599 13.3193 15.7907 13.4676 15.6424C13.7543 15.3557 13.7543 14.891 13.4676 14.5945Z" fill="#141414"/>
<path d="M20.872 7.15049C20.0317 6.22123 18.6378 5.75659 16.5915 5.75659H16.3542V5.71705C16.3542 4.05624 16.3542 2 12.6372 2H11.1345C7.41747 2 7.41747 4.05624 7.41747 5.71705V5.75659H7.18022C5.13386 5.75659 3.73008 6.22123 2.89968 7.15049C1.92098 8.24781 1.95064 9.70102 2.0495 10.6995L2.05939 10.7687L2.12768 11.5654C2.14072 11.7176 2.22331 11.8553 2.35155 11.9383C2.632 12.1198 2.93038 12.3103 3.21602 12.469C3.35442 12.558 3.50271 12.6371 3.65099 12.7162C4.76809 13.3291 5.96427 13.8135 7.1901 14.1496C7.21976 16.71 9.31554 18.786 11.8858 18.786C14.4759 18.786 16.5816 16.6804 16.5816 14.0903V14.0508C17.8272 13.6751 19.0234 13.1512 20.1405 12.4987C20.1998 12.469 20.2393 12.4394 20.2888 12.4097C20.6791 12.1976 21.084 11.9199 21.4535 11.6579C21.5681 11.5767 21.6421 11.4501 21.6576 11.3105L21.6728 11.174L21.7222 10.7094C21.7321 10.6501 21.7321 10.6006 21.742 10.5314C21.821 9.54284 21.8013 8.17861 20.872 7.15049ZM8.83114 5.71705C8.83114 4.03647 8.83114 3.40378 11.1345 3.40378H12.6372C14.9405 3.40378 14.9405 4.03647 14.9405 5.71705V5.75659H8.83114V5.71705ZM11.8858 17.3032C10.2547 17.3032 8.90034 16.0773 8.70262 14.4956C8.68285 14.3671 8.67297 14.2287 8.67297 14.0903C8.67297 12.3207 10.1163 10.8774 11.8858 10.8774C13.6554 10.8774 15.0987 12.3207 15.0987 14.0903C15.0987 14.2089 15.0888 14.3177 15.0789 14.4264V14.4363C14.901 16.0477 13.5368 17.3032 11.8858 17.3032Z" fill="#141414"/>
<path d="M20.8241 13.8245C21.07 13.6879 21.389 13.8858 21.3634 14.1659L21.012 18.0061C20.8044 19.9833 19.9937 22 15.644 22H8.11102C3.76128 22 2.95065 19.9833 2.75293 18.016L2.41102 14.355C2.38447 14.0708 2.68846 13.8787 2.94076 14.0123C3.71185 14.4374 4.5126 14.813 5.33312 15.1096C5.63958 15.2184 5.85707 15.4754 5.94604 15.7917C6.68747 18.362 9.07983 20.27 11.8874 20.27C14.7444 20.27 17.1565 18.3225 17.8584 15.6533C17.9375 15.337 18.155 15.08 18.4614 14.9613C19.2918 14.6351 20.0827 14.2496 20.8241 13.8245Z" fill="#141414"/>
</svg>
