<svg width="24" height="24" viewBox="0 0 24 24" fill="none" xmlns="http://www.w3.org/2000/svg">
<path d="M11.1315 15.9496C10.8815 15.9496 10.6315 15.8211 10.4914 15.5937C10.2814 15.2477 10.3914 14.783 10.7515 14.5754L11.6416 14.0514V12.9837C11.6416 12.5783 11.9817 12.2422 12.3918 12.2422C12.8018 12.2422 13.1419 12.5783 13.1419 12.9837V14.4666C13.1419 14.7237 13.0019 14.9708 12.7818 15.0994L11.5316 15.8408C11.3916 15.91 11.2616 15.9496 11.1315 15.9496Z" fill="#141414"/>
<path d="M21.0932 7.15077C20.2431 6.22145 18.8328 5.7568 16.7625 5.7568H16.5224V5.71725C16.5224 4.05635 16.5224 2 12.7618 2H11.2416C7.48094 2 7.48094 4.05635 7.48094 5.71725V5.7568H7.2409C5.17056 5.7568 3.75033 6.22145 2.91019 7.15077C1.92002 8.24815 1.95003 9.70143 2.05005 10.6999L2.06005 10.7692L2.12914 11.566C2.14234 11.7182 2.22589 11.8559 2.35564 11.9389C2.63937 12.1204 2.94125 12.3109 3.23024 12.4696C3.37026 12.5586 3.52029 12.6377 3.67031 12.7168C4.8005 13.3297 6.0107 13.8141 7.2509 14.1503C7.28091 16.7108 9.40126 18.7869 12.0017 18.7869C14.6221 18.7869 16.7525 16.6812 16.7525 14.091V14.0514C18.0127 13.6757 19.2229 13.1518 20.3531 12.4993C20.4131 12.4696 20.4531 12.4399 20.5031 12.4103C20.898 12.1981 21.3077 11.9204 21.6815 11.6584C21.7974 11.5772 21.8723 11.4506 21.888 11.311L21.9033 11.1745L21.9533 10.7098C21.9633 10.6505 21.9633 10.6011 21.9733 10.5319C22.0534 9.54325 22.0333 8.17894 21.0932 7.15077ZM8.91118 5.71725C8.91118 4.03658 8.91118 3.40386 11.2416 3.40386H12.7618C15.0922 3.40386 15.0922 4.03658 15.0922 5.71725V5.7568H8.91118V5.71725ZM12.0017 17.304C10.3514 17.304 8.98119 16.0781 8.78116 14.4963C8.76115 14.3678 8.75115 14.2294 8.75115 14.091C8.75115 12.3213 10.2114 10.8779 12.0017 10.8779C13.792 10.8779 15.2522 12.3213 15.2522 14.091C15.2522 14.2096 15.2422 14.3183 15.2322 14.4271V14.437C15.0522 16.0484 13.672 17.304 12.0017 17.304Z" fill="#141414"/>
<path d="M21.0432 13.824C21.2919 13.6874 21.6147 13.8854 21.5887 14.1655L21.2332 18.0059C21.0232 19.9832 20.203 22 15.8023 22H8.18106C3.78033 22 2.9602 19.9832 2.76016 18.0158L2.41424 14.3546C2.38738 14.0703 2.69494 13.8783 2.95019 14.0119C3.73032 14.437 4.54046 14.8127 5.37059 15.1092C5.68064 15.218 5.90068 15.475 5.9907 15.7914C6.74082 18.3618 9.16122 20.2699 12.0017 20.2699C14.8922 20.2699 17.3326 18.3223 18.0427 15.653C18.1227 15.3366 18.3427 15.0796 18.6528 14.9609C19.4929 14.6347 20.2931 14.2491 21.0432 13.824Z" fill="#141414"/>
</svg>
