<svg width="24" height="24" viewBox="0 0 24 24" fill="none" xmlns="http://www.w3.org/2000/svg">
<path d="M21.0932 7.15049C20.2431 6.22123 18.8328 5.75659 16.7625 5.75659H16.5224V5.71705C16.5224 4.05624 16.5224 2 12.7618 2H11.2416C7.48094 2 7.48094 4.05624 7.48094 5.71705V5.75659H7.2409C5.17056 5.75659 3.75033 6.22123 2.91019 7.15049C1.92002 8.24781 1.95003 9.70102 2.05005 10.6995L2.06005 10.7687L2.12914 11.5654C2.14234 11.7176 2.22589 11.8553 2.35564 11.9383C2.63937 12.1198 2.94125 12.3103 3.23024 12.469C3.37026 12.558 3.52029 12.6371 3.67031 12.7162C4.8005 13.3291 6.0107 13.8135 7.2509 14.1496C7.28091 16.71 9.40126 18.786 12.0017 18.786C14.6221 18.786 16.7525 16.6804 16.7525 14.0903V14.0508C18.0127 13.6751 19.2229 13.1512 20.3531 12.4987C20.4131 12.469 20.4531 12.4394 20.5031 12.4097C20.8978 12.1977 21.3072 11.9202 21.6808 11.6583C21.7971 11.5768 21.8721 11.4498 21.8875 11.3097L21.9533 10.7094C21.9633 10.6501 21.9633 10.6006 21.9733 10.5314C22.0534 9.54284 22.0333 8.17861 21.0932 7.15049ZM8.91118 5.71705C8.91118 4.03647 8.91118 3.40378 11.2416 3.40378H12.7618C15.0922 3.40378 15.0922 4.03647 15.0922 5.71705V5.75659H8.91118V5.71705ZM12.0017 17.3032C10.3514 17.3032 8.98119 16.0773 8.78116 14.4956C8.76115 14.3671 8.75115 14.2287 8.75115 14.0903C8.75115 12.3207 10.2114 10.8774 12.0017 10.8774C13.792 10.8774 15.2522 12.3207 15.2522 14.0903C15.2522 14.2089 15.2422 14.3177 15.2322 14.4264V14.4363C15.0522 16.0477 13.672 17.3032 12.0017 17.3032Z" fill="#141414"/>
<path d="M11.4316 16.0971C11.2416 16.0971 11.0515 16.0279 10.9015 15.8796L9.91135 14.9108C9.6213 14.6241 9.6213 14.1496 9.91135 13.8629C10.2014 13.5762 10.6815 13.5762 10.9715 13.8629L11.4516 14.3374L13.0619 12.8744C13.3619 12.5975 13.842 12.6173 14.122 12.9139C14.4021 13.2105 14.3821 13.685 14.082 13.9618L11.9517 15.9093C11.7917 16.0279 11.6116 16.0971 11.4316 16.0971Z" fill="#141414"/>
<path d="M21.0448 13.8245C21.2935 13.6879 21.6162 13.8858 21.5903 14.1659L21.2348 18.0061C21.0247 19.9833 20.2046 22 15.8039 22H8.18262C3.78189 22 2.96176 19.9833 2.76173 18.016L2.4158 14.355C2.38894 14.0708 2.6965 13.8787 2.95176 14.0123C3.73189 14.4374 4.54202 14.813 5.37216 15.1096C5.68221 15.2184 5.90224 15.4754 5.99226 15.7917C6.74238 18.362 9.16278 20.27 12.0033 20.27C14.8937 20.27 17.3341 18.3225 18.0443 15.6533C18.1243 15.337 18.3443 15.08 18.6544 14.9613C19.4945 14.6351 20.2946 14.2496 21.0448 13.8245Z" fill="#141414"/>
</svg>
