<svg width="24" height="24" viewBox="0 0 24 24" fill="none" xmlns="http://www.w3.org/2000/svg">
<path d="M21.3023 20.6047H20.3721V14.7907C20.3721 10.1674 16.6233 6.4186 12 6.4186C7.37674 6.4186 3.62791 10.1674 3.62791 14.7907V20.6047H2.69767C2.31628 20.6047 2 20.9209 2 21.3023C2 21.6837 2.31628 22 2.69767 22H21.3023C21.6837 22 22 21.6837 22 21.3023C22 20.9209 21.6837 20.6047 21.3023 20.6047Z" fill="#141414"/>
<path d="M12 4.32558C11.6186 4.32558 11.3023 4.0093 11.3023 3.62791V2.69767C11.3023 2.31628 11.6186 2 12 2C12.3814 2 12.6977 2.31628 12.6977 2.69767V3.62791C12.6977 4.0093 12.3814 4.32558 12 4.32558Z" fill="#141414"/>
<path d="M5.48837 6.18605C5.31163 6.18605 5.13488 6.12093 4.99535 5.9814L4.06512 5.05116C3.79535 4.7814 3.79535 4.33488 4.06512 4.06512C4.33488 3.79535 4.7814 3.79535 5.05116 4.06512L5.9814 4.99535C6.25116 5.26512 6.25116 5.71163 5.9814 5.9814C5.84186 6.12093 5.66512 6.18605 5.48837 6.18605Z" fill="#141414"/>
<path d="M18.5116 6.18605C18.3349 6.18605 18.1581 6.12093 18.0186 5.9814C17.7488 5.71163 17.7488 5.26512 18.0186 4.99535L18.9488 4.06512C19.2186 3.79535 19.6651 3.79535 19.9349 4.06512C20.2047 4.33488 20.2047 4.7814 19.9349 5.05116L19.0047 5.9814C18.8651 6.12093 18.6884 6.18605 18.5116 6.18605Z" fill="#141414"/>
</svg>
