<svg width="24" height="24" viewBox="0 0 24 24" fill="none" xmlns="http://www.w3.org/2000/svg">
<path d="M18.4125 8.50602V10.5301C17.9945 10.4723 17.5195 10.4434 16.9875 10.4337V8.50602C16.9875 5.46988 16.142 3.44578 12 3.44578C7.858 3.44578 7.0125 5.46988 7.0125 8.50602V10.4337C6.4805 10.4434 6.0055 10.4723 5.5875 10.5301V8.50602C5.5875 5.71084 6.2525 2 12 2C17.7475 2 18.4125 5.71084 18.4125 8.50602Z" fill="#141414"/>
<path d="M18.4125 10.5301C17.9945 10.4723 17.5195 10.4434 16.9875 10.4337H7.0125C6.4805 10.4434 6.0055 10.4723 5.5875 10.5301C3.165 10.8289 2.5 12.0337 2.5 15.253V17.1807C2.5 21.0361 3.45 22 7.25 22H16.75C20.55 22 21.5 21.0361 21.5 17.1807V15.253C21.5 12.0337 20.835 10.8289 18.4125 10.5301ZM8.8745 16.9012C8.694 17.0747 8.447 17.1807 8.2 17.1807C8.0765 17.1807 7.953 17.1518 7.839 17.1036C7.7155 17.0554 7.6205 16.988 7.5255 16.9012C7.3545 16.7181 7.25 16.4675 7.25 16.2169C7.25 16.0916 7.2785 15.9663 7.326 15.8506C7.3735 15.7349 7.44 15.6289 7.5255 15.5325C7.6205 15.4458 7.7155 15.3783 7.839 15.3301C8.1905 15.1759 8.6085 15.2627 8.8745 15.5325C8.96 15.6289 9.0265 15.7349 9.074 15.8506C9.1215 15.9663 9.15 16.0916 9.15 16.2169C9.15 16.4675 9.0455 16.7181 8.8745 16.9012ZM12.874 16.5831C12.8265 16.6988 12.76 16.8048 12.6745 16.9012C12.494 17.0747 12.247 17.1807 12 17.1807C11.7435 17.1807 11.506 17.0747 11.3255 16.9012C11.24 16.8048 11.1735 16.6988 11.126 16.5831C11.0785 16.4675 11.05 16.3422 11.05 16.2169C11.05 15.9566 11.1545 15.7157 11.3255 15.5325C11.677 15.1759 12.3135 15.1759 12.6745 15.5325C12.8455 15.7157 12.95 15.9566 12.95 16.2169C12.95 16.3422 12.9215 16.4675 12.874 16.5831ZM16.4745 16.9012C16.294 17.0747 16.047 17.1807 15.8 17.1807C15.553 17.1807 15.306 17.0747 15.1255 16.9012C14.9545 16.7181 14.85 16.4771 14.85 16.2169C14.85 15.9566 14.9545 15.7157 15.1255 15.5325C15.4865 15.1759 16.123 15.1759 16.4745 15.5325C16.5125 15.5807 16.5505 15.6289 16.5885 15.6867C16.6265 15.7349 16.655 15.7928 16.674 15.8506C16.7025 15.9084 16.7215 15.9663 16.731 16.0241C16.7405 16.0916 16.75 16.159 16.75 16.2169C16.75 16.4675 16.6455 16.7181 16.4745 16.9012Z" fill="#141414"/>
</svg>
