<svg width="24" height="24" viewBox="0 0 24 24" fill="none" xmlns="http://www.w3.org/2000/svg">
<path d="M21.25 9.17659C18.94 5.57414 15.56 3.5 12 3.5C10.22 3.5 8.49 4.01605 6.91 4.97869C5.33 5.95126 3.91 7.3704 2.75 9.17659C1.75 10.7347 1.75 13.2653 2.75 14.8234C5.06 18.4358 8.44 20.5 12 20.5C13.78 20.5 15.51 19.9839 17.09 19.0213C18.67 18.0487 20.09 16.6296 21.25 14.8234C22.25 13.2752 22.25 10.7347 21.25 9.17659ZM12 16.0143C9.76 16.0143 7.96 14.218 7.96 12.005C7.96 9.79189 9.76 7.99562 12 7.99562C14.24 7.99562 16.04 9.79189 16.04 12.005C16.04 14.218 14.24 16.0143 12 16.0143Z" fill="#141414"/>
<path d="M12 9.16667C10.43 9.16667 9.15 10.437 9.15 12.005C9.15 13.563 10.43 14.8333 12 14.8333C13.57 14.8333 14.86 13.563 14.86 12.005C14.86 10.4469 13.57 9.16667 12 9.16667Z" fill="#141414"/>
</svg>
