<svg width="24" height="24" viewBox="0 0 24 24" fill="none" xmlns="http://www.w3.org/2000/svg">
<path d="M21.2623 9.17679C20.9724 8.71668 20.6625 8.28657 20.3427 7.88647C19.9728 7.41635 19.2731 7.37634 18.8533 7.79645L15.8545 10.7972C16.0744 11.4574 16.1144 12.2176 15.9144 13.0078C15.5646 14.4181 14.425 15.5584 13.0156 15.9085C12.2259 16.1085 11.4662 16.0685 10.8065 15.8485C10.8065 15.8485 9.37705 17.2788 8.34746 18.3091C7.84766 18.8092 8.0076 19.6894 8.67733 19.9495C9.7469 20.3596 10.8565 20.5696 11.996 20.5696C13.7753 20.5696 15.5046 20.0495 17.084 19.0793C18.6933 18.079 20.1427 16.6087 21.3123 14.7382C22.2619 13.2278 22.2119 10.6872 21.2623 9.17679Z" fill="#141414"/>
<path d="M14.0152 9.97699L9.97681 14.018C9.46702 13.4979 9.13715 12.7777 9.13715 11.9975C9.13715 10.4271 10.4166 9.13678 11.996 9.13678C12.7757 9.13678 13.4954 9.46687 14.0152 9.97699Z" fill="#141414"/>
<path d="M18.2435 5.74594L14.8549 9.13678C14.1252 8.3966 13.1156 7.95649 11.996 7.95649C9.7569 7.95649 7.95762 9.76694 7.95762 11.9975C7.95762 13.1178 8.40744 14.128 9.13715 14.8582L5.7585 18.2491H5.7485C4.63895 17.3488 3.61935 16.1985 2.7497 14.8382C1.7501 13.2678 1.7501 10.7172 2.7497 9.14679C3.90924 7.32633 5.32867 5.89597 6.90804 4.91573C8.48741 3.95549 10.2167 3.42536 11.996 3.42536C14.2251 3.42536 16.3843 4.24556 18.2435 5.74594Z" fill="#141414"/>
<path d="M14.8549 11.9975C14.8549 13.5679 13.5754 14.8582 11.996 14.8582C11.936 14.8582 11.886 14.8582 11.8261 14.8382L14.8349 11.8275C14.8549 11.8875 14.8549 11.9375 14.8549 11.9975Z" fill="#141414"/>
<path d="M21.7621 2.22506C21.4622 1.92498 20.9724 1.92498 20.6725 2.22506L2.22991 20.6897C1.93003 20.9897 1.93003 21.4799 2.22991 21.7799C2.37985 21.92 2.56977 22 2.76969 22C2.96961 22 3.15954 21.92 3.30948 21.7699L21.7621 3.30533C22.072 3.00525 22.072 2.52513 21.7621 2.22506Z" fill="#141414"/>
</svg>
