<svg width="24" height="24" viewBox="0 0 24 24" fill="none" xmlns="http://www.w3.org/2000/svg">
<path d="M21.3023 9.90698C20.9209 9.90698 20.6047 9.5907 20.6047 9.2093V7.34884C20.6047 4.94884 19.0512 3.39535 16.6512 3.39535H14.7907C14.4093 3.39535 14.093 3.07907 14.093 2.69767C14.093 2.31628 14.4093 2 14.7907 2H16.6512C19.8512 2 22 4.14884 22 7.34884V9.2093C22 9.5907 21.6837 9.90698 21.3023 9.90698Z" fill="#141414"/>
<path d="M2.69767 9.90698C2.31628 9.90698 2 9.5907 2 9.2093V7.34884C2 4.14884 4.14884 2 7.34884 2H9.2093C9.5907 2 9.90698 2.31628 9.90698 2.69767C9.90698 3.07907 9.5907 3.39535 9.2093 3.39535H7.34884C4.94884 3.39535 3.39535 4.94884 3.39535 7.34884V9.2093C3.39535 9.5907 3.07907 9.90698 2.69767 9.90698Z" fill="#141414"/>
<path d="M16.6512 22H14.7907C14.4093 22 14.093 21.6837 14.093 21.3023C14.093 20.9209 14.4093 20.6047 14.7907 20.6047H16.6512C19.0512 20.6047 20.6047 19.0512 20.6047 16.6512V14.7907C20.6047 14.4093 20.9209 14.093 21.3023 14.093C21.6837 14.093 22 14.4093 22 14.7907V16.6512C22 19.8512 19.8512 22 16.6512 22Z" fill="#141414"/>
<path d="M9.2093 22H7.34884C4.14884 22 2 19.8512 2 16.6512V14.7907C2 14.4093 2.31628 14.093 2.69767 14.093C3.07907 14.093 3.39535 14.4093 3.39535 14.7907V16.6512C3.39535 19.0512 4.94884 20.6047 7.34884 20.6047H9.2093C9.5907 20.6047 9.90698 20.9209 9.90698 21.3023C9.90698 21.6837 9.5907 22 9.2093 22Z" fill="#141414"/>
<path d="M12 10.0186C11.5442 10.0186 11.1628 10.3907 11.1628 10.8558V13.1535C11.1628 13.6186 11.5349 13.9907 12 13.9907C12.4651 13.9907 12.8372 13.6186 12.8372 13.1535V10.8558C12.8372 10.3907 12.4558 10.0186 12 10.0186Z" fill="#141414"/>
<path d="M15.2837 7.72093C14.9674 7.40465 14.6047 7.13488 14.214 6.91163C14.0837 6.84651 13.9442 6.7814 13.8047 6.71628C13.6651 6.66047 13.5256 6.60465 13.3767 6.56744C13.2279 6.52093 13.0791 6.48372 12.9302 6.44651C12.9209 6.44651 12.9023 6.44651 12.893 6.43721C12.6047 6.3814 12.307 6.35349 12.0093 6.35349H11.9907C11.693 6.35349 11.4047 6.3814 11.1163 6.43721C11.0791 6.44651 11.0419 6.44651 11.014 6.46512C10.8837 6.49302 10.7535 6.52093 10.6233 6.56744C10.4651 6.60465 10.307 6.66977 10.1488 6.73488C10.0279 6.7907 9.90698 6.85581 9.79535 6.91163C9.65581 6.98605 9.53488 7.06977 9.40465 7.15349C9.16279 7.32093 8.93023 7.50698 8.71628 7.72093C8.61395 7.82326 8.51163 7.93488 8.4186 8.04651C8.32558 8.16744 8.23256 8.27907 8.14884 8.4093C8.06512 8.53023 7.9907 8.66047 7.91628 8.7907C7.56279 9.45116 7.35814 10.2047 7.35814 11.0047V12.9953C7.35814 14.6047 8.17674 16.0186 9.40465 16.8465C9.51628 16.9302 9.63721 16.9953 9.75814 17.0698L10.2698 17.3116C10.5302 17.414 10.8 17.4977 11.0698 17.5535C11.3674 17.6093 11.6744 17.6465 11.9907 17.6465C12 17.6465 12 17.6465 12.0093 17.6465C12.3256 17.6465 12.6326 17.6093 12.9302 17.5535C13.2093 17.4977 13.4791 17.414 13.7395 17.3116C13.9163 17.2372 14.0837 17.1535 14.2419 17.0698C15.6744 16.2791 16.6419 14.7442 16.6419 12.9953V11.0047C16.6419 9.72093 16.1209 8.55814 15.2837 7.72093ZM14.2326 13.1535C14.2326 14.3814 13.2279 15.386 12 15.386C10.7721 15.386 9.76744 14.3814 9.76744 13.1535V10.8558C9.76744 9.62791 10.7721 8.62326 12 8.62326C13.2279 8.62326 14.2326 9.62791 14.2326 10.8558V13.1535Z" fill="#141414"/>
</svg>
