<svg width="24" height="24" viewBox="0 0 24 24" fill="none" xmlns="http://www.w3.org/2000/svg">
<path d="M19.7881 4.213C16.8288 1.26233 12.03 1.26233 9.09078 4.213C7.02131 6.26347 6.40147 9.21413 7.20126 11.8147L2.50246 16.5158C2.17254 16.8559 1.9426 17.526 2.01258 18.0061L2.31251 20.1866C2.42248 20.9068 3.09231 21.5869 3.81213 21.687L5.99157 21.987C6.47145 22.057 7.14128 21.837 7.48119 21.4869L8.30098 20.6667C8.50093 20.4767 8.50093 20.1566 8.30098 19.9566L6.36148 18.0161C6.07155 17.7261 6.07155 17.246 6.36148 16.9559C6.6514 16.6658 7.13128 16.6658 7.42121 16.9559L9.37071 18.9063C9.56066 19.0964 9.88058 19.0964 10.0705 18.9063L12.19 16.7959C14.7793 17.606 17.7286 16.9759 19.7881 14.9254C22.7373 11.9748 22.7373 7.16367 19.7881 4.213ZM14.4994 11.9948C13.1198 11.9948 12 10.8745 12 9.4942C12 8.11389 13.1198 6.99363 14.4994 6.99363C15.8791 6.99363 16.9988 8.11389 16.9988 9.4942C16.9988 10.8745 15.8791 11.9948 14.4994 11.9948Z" fill="#141414"/>
</svg>
