<svg width="24" height="24" viewBox="0 0 24 24" fill="none" xmlns="http://www.w3.org/2000/svg">
<path d="M13.2556 12C13.9463 12 14.5062 11.4404 14.5062 10.75C14.5062 10.0596 13.9463 9.5 13.2556 9.5C12.5649 9.5 12.005 10.0596 12.005 10.75C12.005 11.4404 12.5649 12 13.2556 12Z" fill="#141414"/>
<path d="M16.1971 2H7.8129C4.17108 2 2 4.17 2 7.81V16.18C2 19.83 4.17108 22 7.8129 22H16.1871C19.8289 22 22 19.83 22 16.19V7.81C22.01 4.17 19.8389 2 16.1971 2ZM15.8969 13.47C14.8664 14.49 13.3957 14.81 12.095 14.4L11.0345 15.45C10.9445 15.54 10.7844 15.54 10.6843 15.45L9.71384 14.48C9.57377 14.34 9.33365 14.34 9.18358 14.48C9.0335 14.62 9.04351 14.86 9.18358 15.01L10.1541 15.98C10.2541 16.08 10.2541 16.24 10.1541 16.33L9.74386 16.74C9.57377 16.92 9.24361 17.03 9.00349 17L7.91295 16.85C7.55277 16.8 7.2226 16.46 7.16257 16.1L7.0125 15.01C6.97248 14.77 7.09254 14.44 7.25262 14.27L9.60379 11.92C9.20359 10.62 9.51374 9.15 10.5443 8.12C12.015 6.65 14.4162 6.65 15.8969 8.12C17.3777 9.59 17.3777 11.99 15.8969 13.47Z" fill="#141414"/>
</svg>
