<svg width="24" height="24" viewBox="0 0 24 24" fill="none" xmlns="http://www.w3.org/2000/svg">
<path d="M13.6306 15.72C13.6306 16.62 12.9009 17.35 12.0012 17.35C11.3615 17.35 10.8117 16.98 10.5518 16.45L12.731 14.27C13.2608 14.53 13.6306 15.08 13.6306 15.72Z" fill="#141414"/>
<path d="M21.7676 2.23C21.4677 1.93 20.9779 1.93 20.678 2.23L17.8691 5.04C17.0993 3.02 15.1301 2 12.0012 2C6.37336 2 5.7236 5.58 5.7236 8.28V9.53C5.7336 9.53 5.7436 9.53 5.75359 9.53C2.92465 9.87 2.005 11.28 2.005 14.79V16.65C2.005 18.25 2.19493 19.41 2.67475 20.24L2.22492 20.69C1.92503 20.99 1.92503 21.48 2.22492 21.78C2.38486 21.92 2.57478 22 2.77471 22C2.97463 22 3.16456 21.92 3.31451 21.77L21.7676 3.31C22.0775 3.01 22.0775 2.53 21.7676 2.23ZM7.35299 9.44C7.27302 9.44 7.20305 9.44 7.12308 9.44V8.28C7.12308 5.35 7.95277 3.4 12.0012 3.4C15.4 3.4 16.4696 4.7 16.7695 6.15L13.4807 9.44H7.35299Z" fill="#141414"/>
<path d="M21.9975 14.79V16.65C21.9975 20.75 20.748 22 16.6495 22H7.41297C6.5233 22 6.08347 20.92 6.71323 20.29L9.53218 17.47C9.60215 17.57 9.68212 17.66 9.76209 17.75C10.4618 18.51 11.5014 18.91 12.651 18.67C12.741 18.65 12.8309 18.63 12.9209 18.59C13.0109 18.57 13.0908 18.54 13.1708 18.5C13.3707 18.43 13.5607 18.32 13.7406 18.19C13.8106 18.15 13.8705 18.1 13.9205 18.05C14.0705 17.93 14.2104 17.79 14.3304 17.64C14.3804 17.59 14.4303 17.53 14.4703 17.46C14.6003 17.28 14.7102 17.09 14.7802 16.89C14.8202 16.81 14.8502 16.73 14.8702 16.64C14.9102 16.55 14.9302 16.46 14.9501 16.37C15.1901 15.22 14.7902 14.18 14.0305 13.48C13.9505 13.4 13.8506 13.32 13.7506 13.25L16.8694 10.13C16.9194 10.08 16.9594 10.04 17.0094 10C17.4092 9.67 17.919 9.51 18.4288 9.55C18.5188 9.56 18.6188 9.57 18.7087 9.59C18.8787 9.62 19.0486 9.66 19.2085 9.7C19.3685 9.74 19.5184 9.79 19.6684 9.84C19.9583 9.95 20.2082 10.08 20.4381 10.23C20.668 10.38 20.8579 10.56 21.0379 10.77C21.1278 10.88 21.2178 11 21.2878 11.13C21.3577 11.24 21.4177 11.36 21.4777 11.49C21.5377 11.62 21.5877 11.76 21.6376 11.9C21.6976 12.07 21.7476 12.26 21.7876 12.46C21.8276 12.6 21.8476 12.75 21.8775 12.91C21.8975 13.06 21.9175 13.22 21.9375 13.39C21.9775 13.81 21.9975 14.28 21.9975 14.79Z" fill="#141414"/>
</svg>
