<svg width="24" height="24" viewBox="0 0 24 24" fill="none" xmlns="http://www.w3.org/2000/svg">
<path d="M12 14.2919C13.2227 14.2919 14.214 13.2659 14.214 12.0001C14.214 10.7344 13.2227 9.70833 12 9.70833C10.7773 9.70833 9.78605 10.7344 9.78605 12.0001C9.78605 13.2659 10.7773 14.2919 12 14.2919Z" fill="#141414"/>
<path d="M19.4419 18.5C19.293 18.5 19.1535 18.4519 19.0233 18.3556C18.7163 18.1148 18.6512 17.6622 18.8837 17.3445C20.0093 15.7941 20.6047 13.9453 20.6047 12.0001C20.6047 10.055 20.0093 8.20613 18.8837 6.65579C18.6512 6.33802 18.7163 5.88544 19.0233 5.6447C19.3302 5.40397 19.7674 5.47137 20 5.78915C21.3116 7.58985 22 9.73721 22 12.0001C22 14.263 21.3116 16.4104 20 18.2111C19.8605 18.4037 19.6558 18.5 19.4419 18.5Z" fill="#141414"/>
<path d="M4.55814 18.5C4.34419 18.5 4.13954 18.4037 4 18.2111C2.68837 16.4104 2 14.263 2 12.0001C2 9.73721 2.68837 7.58985 4 5.78915C4.23256 5.47137 4.66977 5.40397 4.97674 5.6447C5.28372 5.88544 5.34884 6.33802 5.11628 6.65579C3.9907 8.20613 3.39535 10.055 3.39535 12.0001C3.39535 13.9453 3.9907 15.7941 5.11628 17.3445C5.34884 17.6622 5.28372 18.1148 4.97674 18.3556C4.85581 18.4519 4.70698 18.5 4.55814 18.5Z" fill="#141414"/>
<path d="M16.4651 16.1889C16.3163 16.1889 16.1767 16.1408 16.0465 16.0445C15.7395 15.8038 15.6744 15.3512 15.907 15.0334C16.5488 14.1571 16.8837 13.1075 16.8837 12.0001C16.8837 10.8927 16.5488 9.84314 15.907 8.96686C15.6744 8.64909 15.7395 8.1965 16.0465 7.95577C16.3535 7.71503 16.7907 7.78244 17.0233 8.10021C17.8419 9.23648 18.2791 10.5846 18.2791 12.0001C18.2791 13.4157 17.8419 14.7734 17.0233 15.9001C16.8837 16.0926 16.6791 16.1889 16.4651 16.1889Z" fill="#141414"/>
<path d="M7.53488 16.1889C7.32093 16.1889 7.11628 16.0926 6.97674 15.9001C6.15814 14.7734 5.72093 13.4157 5.72093 12.0001C5.72093 10.5846 6.15814 9.22685 6.97674 8.10021C7.2093 7.78244 7.64651 7.71503 7.95349 7.95577C8.26047 8.1965 8.32558 8.64909 8.09302 8.96686C7.45116 9.84314 7.11628 10.8927 7.11628 12.0001C7.11628 13.1075 7.45116 14.1571 8.09302 15.0334C8.32558 15.3512 8.26047 15.8038 7.95349 16.0445C7.83256 16.1408 7.68372 16.1889 7.53488 16.1889Z" fill="#141414"/>
</svg>
