<svg width="24" height="24" viewBox="0 0 24 24" fill="none" xmlns="http://www.w3.org/2000/svg">
<path d="M19.0103 6.97568V9.47974C19.0103 10.1881 18.3073 10.647 17.6531 10.3976C16.833 10.0883 15.925 9.96857 14.9681 10.0683C12.6444 10.3277 10.2621 12.6123 9.87153 14.9767C9.54933 16.942 10.1644 18.7777 11.3458 20.0746C11.8828 20.6732 11.5216 21.6409 10.7307 21.7306C10.057 21.8104 9.39311 21.7905 9.0221 21.5112L3.65211 17.4109C3.01747 16.9221 2.5 15.8646 2.5 15.0465V6.97568C2.5 5.84836 3.33967 4.6113 4.36485 4.21225L9.73484 2.15713C10.2914 1.94762 11.2091 1.94762 11.7657 2.15713L17.1357 4.21225C18.1706 4.6113 19.0103 5.84836 19.0103 6.97568Z" fill="#141414"/>
<path d="M15.6418 11.5349C13.2205 11.5349 11.2482 13.5501 11.2482 16.0242C11.2482 18.4983 13.2205 20.5135 15.6418 20.5135C18.0632 20.5135 20.0355 18.4983 20.0355 16.0242C20.0355 13.5401 18.0632 11.5349 15.6418 11.5349Z" fill="#141414"/>
<path d="M20.5236 22C20.26 22 20.0159 21.8903 19.8304 21.7107C19.7914 21.6608 19.7425 21.6109 19.7133 21.5511C19.6742 21.5012 19.6449 21.4413 19.6254 21.3815C19.5961 21.3216 19.5766 21.2618 19.5668 21.2019C19.557 21.1321 19.5473 21.0722 19.5473 21.0024C19.5473 20.8727 19.5766 20.743 19.6254 20.6233C19.6742 20.4936 19.7425 20.3938 19.8304 20.2941C20.055 20.0646 20.3967 19.9549 20.7091 20.0247C20.7775 20.0347 20.8361 20.0546 20.8947 20.0845C20.9532 20.1045 21.0118 20.1344 21.0606 20.1743C21.1192 20.2043 21.168 20.2541 21.2169 20.2941C21.3047 20.3938 21.3731 20.4936 21.4219 20.6233C21.4707 20.743 21.5 20.8727 21.5 21.0024C21.5 21.2618 21.3926 21.5211 21.2169 21.7107C21.168 21.7506 21.1192 21.7905 21.0606 21.8304C21.0118 21.8703 20.9532 21.9002 20.8947 21.9202C20.8361 21.9501 20.7775 21.9701 20.7091 21.98C20.6506 21.99 20.5822 22 20.5236 22Z" fill="#141414"/>
</svg>
