<svg width="24" height="24" viewBox="0 0 24 24" fill="none" xmlns="http://www.w3.org/2000/svg">
<path d="M2.69767 9.90698C2.31628 9.90698 2 9.5907 2 9.2093V6.88372C2 4.18605 4.19535 2 6.88372 2H9.2093C9.5907 2 9.90698 2.31628 9.90698 2.69767C9.90698 3.07907 9.5907 3.39535 9.2093 3.39535H6.88372C4.95814 3.39535 3.39535 4.95814 3.39535 6.88372V9.2093C3.39535 9.5907 3.07907 9.90698 2.69767 9.90698Z" fill="#141414"/>
<path d="M21.3023 9.90698C20.9209 9.90698 20.6047 9.5907 20.6047 9.2093V6.88372C20.6047 4.95814 19.0419 3.39535 17.1163 3.39535H14.7907C14.4093 3.39535 14.093 3.07907 14.093 2.69767C14.093 2.31628 14.4093 2 14.7907 2H17.1163C19.8047 2 22 4.18605 22 6.88372V9.2093C22 9.5907 21.6837 9.90698 21.3023 9.90698Z" fill="#141414"/>
<path d="M17.1163 22H15.7209C15.3395 22 15.0233 21.6837 15.0233 21.3023C15.0233 20.9209 15.3395 20.6047 15.7209 20.6047H17.1163C19.0419 20.6047 20.6047 19.0419 20.6047 17.1163V15.7209C20.6047 15.3395 20.9209 15.0233 21.3023 15.0233C21.6837 15.0233 22 15.3395 22 15.7209V17.1163C22 19.814 19.8047 22 17.1163 22Z" fill="#141414"/>
<path d="M9.2093 22H6.88372C4.19535 22 2 19.814 2 17.1163V14.7907C2 14.4093 2.31628 14.093 2.69767 14.093C3.07907 14.093 3.39535 14.4093 3.39535 14.7907V17.1163C3.39535 19.0419 4.95814 20.6047 6.88372 20.6047H9.2093C9.5907 20.6047 9.90698 20.9209 9.90698 21.3023C9.90698 21.6837 9.5907 22 9.2093 22Z" fill="#141414"/>
<path d="M8.74419 11.4233C10.2238 11.4233 11.4233 10.2238 11.4233 8.74419C11.4233 7.26458 10.2238 6.06512 8.74419 6.06512C7.26458 6.06512 6.06512 7.26458 6.06512 8.74419C6.06512 10.2238 7.26458 11.4233 8.74419 11.4233Z" fill="#141414"/>
<path d="M7.81395 17.9349C8.77981 17.9349 9.56279 17.1519 9.56279 16.186C9.56279 15.2202 8.77981 14.4372 7.81395 14.4372C6.8481 14.4372 6.06512 15.2202 6.06512 16.186C6.06512 17.1519 6.8481 17.9349 7.81395 17.9349Z" fill="#141414"/>
<path d="M16.186 9.56279C17.1519 9.56279 17.9349 8.77981 17.9349 7.81395C17.9349 6.8481 17.1519 6.06512 16.186 6.06512C15.2202 6.06512 14.4372 6.8481 14.4372 7.81395C14.4372 8.77981 15.2202 9.56279 16.186 9.56279Z" fill="#141414"/>
<path d="M15.2558 17.9349C16.7354 17.9349 17.9349 16.7354 17.9349 15.2558C17.9349 13.7762 16.7354 12.5767 15.2558 12.5767C13.7762 12.5767 12.5767 13.7762 12.5767 15.2558C12.5767 16.7354 13.7762 17.9349 15.2558 17.9349Z" fill="#141414"/>
</svg>
