<svg width="24" height="24" viewBox="0 0 24 24" fill="none" xmlns="http://www.w3.org/2000/svg">
<path d="M18.54 4.12L13.04 2.06C12.47 1.85 11.54 1.85 10.97 2.06L5.47005 4.12C4.41005 4.52 3.55005 5.76 3.55005 6.89V14.99C3.55005 15.8 4.08005 16.87 4.73005 17.35L10.23 21.46C11.2 22.19 12.79 22.19 13.76 21.46L19.26 17.35C19.91 16.86 20.4401 15.8 20.4401 14.99V6.89C20.4501 5.76 19.59 4.52 18.54 4.12ZM14.68 13.97C14.53 14.12 14.34 14.19 14.15 14.19C13.96 14.19 13.77 14.12 13.62 13.97L12.03 12.38L10.39 14.02C10.24 14.17 10.05 14.24 9.86005 14.24C9.67005 14.24 9.48005 14.17 9.33005 14.02C9.04005 13.73 9.04005 13.25 9.33005 12.96L10.97 11.32L9.37005 9.72C9.08005 9.43 9.08005 8.95 9.37005 8.66C9.66005 8.37 10.14 8.37 10.43 8.66L12.02 10.25L13.57 8.7C13.86 8.41 14.34 8.41 14.63 8.7C14.92 8.99 14.92 9.47 14.63 9.76L13.08 11.31L14.67 12.9C14.97 13.2 14.97 13.67 14.68 13.97Z" fill="#141414"/>
</svg>
