<svg width="24" height="24" viewBox="0 0 24 24" fill="none" xmlns="http://www.w3.org/2000/svg">
<path d="M18.2 4.20592L12.9899 2.15668C12.4499 1.94777 11.5689 1.94777 11.029 2.15668L5.81882 4.20592C4.81468 4.60383 4 5.83735 4 6.96145V15.0192C4 15.8249 4.50207 16.8893 5.11782 17.3668L10.328 21.4554C11.2469 22.1815 12.7531 22.1815 13.6719 21.4554L18.8821 17.3668C19.4978 16.8794 19.9999 15.8249 19.9999 15.0192V6.96145C20.0094 5.83735 19.1947 4.60383 18.2 4.20592ZM15.3013 9.77667L11.2279 14.0542C11.0858 14.2034 10.9058 14.2731 10.7258 14.2731C10.5459 14.2731 10.3659 14.2034 10.2238 14.0542L8.70809 12.4427C8.43337 12.1542 8.43337 11.6767 8.70809 11.3882C8.9828 11.0997 9.43751 11.0997 9.71223 11.3882L10.7353 12.4626L14.3066 8.71226C14.5814 8.42378 15.0361 8.42378 15.3108 8.71226C15.5855 9.00075 15.5855 9.48819 15.3013 9.77667Z" fill="#141414"/>
</svg>
