<svg width="24" height="24" viewBox="0 0 24 24" fill="none" xmlns="http://www.w3.org/2000/svg">
<path d="M21 11.1171V6.72486C21 5.90445 20.3737 4.97399 19.596 4.66383L13.9697 2.38269C12.7071 1.87244 11.2828 1.87244 10.0202 2.38269L4.39394 4.66383C3.62626 4.97399 3 5.90445 3 6.72486V11.1171C3 16.0095 6.58586 20.5918 11.4848 21.9325C11.8182 22.0225 12.1818 22.0225 12.5152 21.9325C17.4141 20.5918 21 16.0095 21 11.1171ZM12.7576 12.8679V15.4992C12.7576 15.9095 12.4141 16.2496 12 16.2496C11.5859 16.2496 11.2424 15.9095 11.2424 15.4992V12.8679C10.2222 12.5478 9.47475 11.6073 9.47475 10.4967C9.47475 9.11606 10.6061 7.9955 12 7.9955C13.3939 7.9955 14.5253 9.11606 14.5253 10.4967C14.5253 11.6173 13.7778 12.5478 12.7576 12.8679Z" fill="#141414"/>
</svg>
