<svg width="24" height="24" viewBox="0 0 24 24" fill="none" xmlns="http://www.w3.org/2000/svg">
<path d="M19.3572 4.72422L5.82548 18.1886L4.72534 17.3726C4.07526 16.8849 3.54519 15.8301 3.54519 15.0141V6.9633C3.54519 5.83879 4.4053 4.6048 5.45543 4.20674L10.9561 2.15674C11.5262 1.94775 12.4663 1.94775 13.0364 2.15674L18.5371 4.20674C18.8271 4.31621 19.1071 4.49533 19.3572 4.72422Z" fill="#141414"/>
<path d="M20.4473 15.0141C20.4473 15.8301 19.9172 16.8849 19.2672 17.3726L13.7665 21.4626C12.7863 22.1791 11.2061 22.1791 10.226 21.4626L8.46581 20.159C7.97575 19.8007 7.92574 19.0842 8.35579 18.6563L18.7371 8.32666C19.3672 7.69971 20.4473 8.14753 20.4473 9.03321V15.0141Z" fill="#141414"/>
<path d="M21.7675 2.32591C21.4674 2.02737 20.9774 2.02737 20.6773 2.32591L2.22503 20.6964C1.92499 20.9949 1.92499 21.4825 2.22503 21.7811C2.37505 21.9204 2.56507 22 2.7651 22C2.96512 22 3.15514 21.9204 3.30516 21.7711L21.7675 3.40067C22.0775 3.10213 22.0775 2.62446 21.7675 2.32591Z" fill="#141414"/>
</svg>
