<svg width="24" height="24" viewBox="0 0 24 24" fill="none" xmlns="http://www.w3.org/2000/svg">
<path d="M19.36 4.64L5.83 18.17L4.73 17.35C4.08 16.86 3.55 15.8 3.55 14.98V6.89C3.55 5.76 4.41 4.52 5.46 4.12L10.96 2.06C11.53 1.85 12.47 1.85 13.04 2.06L18.54 4.12C18.83 4.23 19.11 4.41 19.36 4.64Z" fill="#141414"/>
<path d="M20.45 14.98C20.45 15.8 19.92 16.86 19.27 17.35L13.77 21.46C12.79 22.18 11.21 22.18 10.23 21.46L8.47001 20.15C7.98001 19.79 7.93 19.07 8.36 18.64L18.74 8.26C19.37 7.63 20.45 8.08 20.45 8.97V14.98Z" fill="#141414"/>
<path d="M21.77 2.23C21.47 1.93 20.98 1.93 20.68 2.23L2.23 20.69C1.93 20.99 1.93 21.48 2.23 21.78C2.38 21.92 2.57 22 2.77 22C2.97 22 3.16 21.92 3.31 21.77L21.77 3.31C22.08 3.01 22.08 2.53 21.77 2.23Z" fill="#141414"/>
</svg>
