<svg width="24" height="24" viewBox="0 0 24 24" fill="none" xmlns="http://www.w3.org/2000/svg">
<path d="M21.3023 9.90698C20.9209 9.90698 20.6047 9.5907 20.6047 9.2093V7.34884C20.6047 4.94884 19.0512 3.39535 16.6512 3.39535H7.34884C4.94884 3.39535 3.39535 4.94884 3.39535 7.34884V9.2093C3.39535 9.5907 3.07907 9.90698 2.69767 9.90698C2.31628 9.90698 2 9.5907 2 9.2093V7.34884C2 4.14884 4.14884 2 7.34884 2H16.6512C19.8512 2 22 4.14884 22 7.34884V9.2093C22 9.5907 21.6837 9.90698 21.3023 9.90698Z" fill="#141414"/>
<path d="M16.6512 22H7.34884C4.14884 22 2 19.8512 2 16.6512V14.7907C2 14.4093 2.31628 14.093 2.69767 14.093C3.07907 14.093 3.39535 14.4093 3.39535 14.7907V16.6512C3.39535 19.0512 4.94884 20.6047 7.34884 20.6047H16.6512C19.0512 20.6047 20.6047 19.0512 20.6047 16.6512V14.7907C20.6047 14.4093 20.9209 14.093 21.3023 14.093C21.6837 14.093 22 14.4093 22 14.7907V16.6512C22 19.8512 19.8512 22 16.6512 22Z" fill="#141414"/>
<path d="M21.3023 12.6977H2.69767C2.31628 12.6977 2 12.3814 2 12C2 11.6186 2.31628 11.3023 2.69767 11.3023H21.3023C21.6837 11.3023 22 11.6186 22 12C22 12.3814 21.6837 12.6977 21.3023 12.6977Z" fill="#141414"/>
<path d="M16.186 9.2093H7.81395C7.55349 9.2093 7.34884 9.00465 7.34884 8.74419V6.88372C7.34884 6.11163 7.97209 5.48837 8.74419 5.48837H15.2558C16.0279 5.48837 16.6512 6.11163 16.6512 6.88372V8.74419C16.6512 9.00465 16.4465 9.2093 16.186 9.2093Z" fill="#141414"/>
<path d="M16.186 14.7907H7.81395C7.55349 14.7907 7.34884 14.9953 7.34884 15.2558V17.1163C7.34884 17.8884 7.97209 18.5116 8.74419 18.5116H15.2558C16.0186 18.5116 16.6512 17.8884 16.6512 17.1163V15.2558C16.6512 14.9953 16.4465 14.7907 16.186 14.7907Z" fill="#141414"/>
</svg>
