<svg width="24" height="24" viewBox="0 0 24 24" fill="none" xmlns="http://www.w3.org/2000/svg">
<path d="M18.2 4.20592L12.9899 2.15668C12.4499 1.94777 11.5689 1.94777 11.029 2.15668L5.81882 4.20592C4.81468 4.60383 4 5.83735 4 6.96145V15.0192C4 15.8249 4.50207 16.8893 5.11782 17.3668L10.328 21.4554C11.2469 22.1815 12.7531 22.1815 13.6719 21.4554L18.8821 17.3668C19.4978 16.8794 19.9999 15.8249 19.9999 15.0192V6.96145C20.0094 5.83735 19.1947 4.60383 18.2 4.20592ZM14.5435 14.0045C14.4014 14.1537 14.2214 14.2233 14.0414 14.2233C13.8614 14.2233 13.6814 14.1537 13.5393 14.0045L12.0331 12.4228L10.4795 14.0542C10.3374 14.2034 10.1575 14.2731 9.97747 14.2731C9.79748 14.2731 9.6175 14.2034 9.4754 14.0542C9.20068 13.7657 9.20068 13.2882 9.4754 12.9998L11.029 11.3683L9.51329 9.77667C9.23858 9.48819 9.23858 9.01069 9.51329 8.72221C9.78801 8.43372 10.2427 8.43372 10.5174 8.72221L12.0236 10.3039L13.492 8.762C13.7667 8.47351 14.2214 8.47351 14.4961 8.762C14.7708 9.05049 14.7708 9.52798 14.4961 9.81646L13.0278 11.3584L14.534 12.9401C14.8182 13.2385 14.8182 13.706 14.5435 14.0045Z" fill="#141414"/>
</svg>
