<svg width="24" height="24" viewBox="0 0 24 24" fill="none" xmlns="http://www.w3.org/2000/svg">
<path d="M20.5 6.95812V8.78835C20.5 9.42843 20.1968 10.0285 19.6712 10.3985L8.55351 18.4596C7.83591 18.9796 6.85553 18.9796 6.14804 18.4496L4.69263 17.3694C4.03567 16.8794 3.5 15.8192 3.5 15.0091V6.95812C3.5 5.83798 4.3692 4.59782 5.43044 4.20778L10.959 2.15752C11.5351 1.94749 12.4649 1.94749 13.041 2.15752L18.5696 4.20778C19.6308 4.59782 20.5 5.83798 20.5 6.95812Z" fill="#141414"/>
<path d="M18.893 12.3388C19.56 11.8587 20.5 12.3288 20.5 13.1489V15.0291C20.5 15.8392 19.9643 16.8894 19.3074 17.3794L13.7788 21.4699C13.2937 21.82 12.6468 22 12 22C11.3532 22 10.7063 21.82 10.2212 21.4599L9.38228 20.8399C8.8365 20.4398 8.8365 19.6297 9.39239 19.2297L18.893 12.3388Z" fill="#141414"/>
</svg>
