<svg width="24" height="24" viewBox="0 0 24 24" fill="none" xmlns="http://www.w3.org/2000/svg">
<path d="M18.3954 5.67046L6.54347 17.4119C6.09927 17.852 5.35222 17.792 4.98878 17.2719C3.73696 15.4617 3 13.3214 3 11.1211V6.73059C3 5.91049 3.62591 4.98037 4.39316 4.67033L10.0163 2.39005C11.2883 1.86998 12.7016 1.86998 13.9736 2.39005L18.0623 4.04025C18.7285 4.31029 18.9002 5.1704 18.3954 5.67046Z" fill="#141414"/>
<path d="M19.3444 7.04063C20.0006 6.49056 21 6.96062 21 7.81073V11.1211C21 16.0118 17.4162 20.5923 12.5199 21.9325C12.1868 22.0225 11.8233 22.0225 11.4801 21.9325C10.0466 21.5324 8.71397 20.8624 7.57319 19.9822C7.08861 19.6122 7.03814 18.9121 7.46214 18.4821C9.66293 16.2518 16.1038 9.75097 19.3444 7.04063Z" fill="#141414"/>
</svg>
