<svg width="24" height="24" viewBox="0 0 24 24" fill="none" xmlns="http://www.w3.org/2000/svg">
<path d="M2.69767 9.90698C2.31628 9.90698 2 9.5907 2 9.2093V6.88372C2 4.18605 4.19535 2 6.88372 2H9.2093C9.5907 2 9.90698 2.31628 9.90698 2.69767C9.90698 3.07907 9.5907 3.39535 9.2093 3.39535H6.88372C4.95814 3.39535 3.39535 4.95814 3.39535 6.88372V9.2093C3.39535 9.5907 3.07907 9.90698 2.69767 9.90698Z" fill="#141414"/>
<path d="M21.3023 9.90698C20.9209 9.90698 20.6047 9.5907 20.6047 9.2093V6.88372C20.6047 4.95814 19.0419 3.39535 17.1163 3.39535H14.7907C14.4093 3.39535 14.093 3.07907 14.093 2.69767C14.093 2.31628 14.4093 2 14.7907 2H17.1163C19.8047 2 22 4.18605 22 6.88372V9.2093C22 9.5907 21.6837 9.90698 21.3023 9.90698Z" fill="#141414"/>
<path d="M17.1163 22H15.7209C15.3395 22 15.0233 21.6837 15.0233 21.3023C15.0233 20.9209 15.3395 20.6047 15.7209 20.6047H17.1163C19.0419 20.6047 20.6047 19.0419 20.6047 17.1163V15.7209C20.6047 15.3395 20.9209 15.0233 21.3023 15.0233C21.6837 15.0233 22 15.3395 22 15.7209V17.1163C22 19.814 19.8047 22 17.1163 22Z" fill="#141414"/>
<path d="M9.2093 22H6.88372C4.19535 22 2 19.814 2 17.1163V14.7907C2 14.4093 2.31628 14.093 2.69767 14.093C3.07907 14.093 3.39535 14.4093 3.39535 14.7907V17.1163C3.39535 19.0419 4.95814 20.6047 6.88372 20.6047H9.2093C9.5907 20.6047 9.90698 20.9209 9.90698 21.3023C9.90698 21.6837 9.5907 22 9.2093 22Z" fill="#141414"/>
<path d="M9.2093 5.72093H7.34884C6.28837 5.72093 5.72093 6.27907 5.72093 7.34884V9.2093C5.72093 10.2791 6.28837 10.8372 7.34884 10.8372H9.2093C10.2698 10.8372 10.8372 10.2791 10.8372 9.2093V7.34884C10.8372 6.27907 10.2698 5.72093 9.2093 5.72093Z" fill="#141414"/>
<path d="M16.6512 5.72093H14.7907C13.7302 5.72093 13.1628 6.27907 13.1628 7.34884V9.2093C13.1628 10.2791 13.7302 10.8372 14.7907 10.8372H16.6512C17.7116 10.8372 18.2791 10.2791 18.2791 9.2093V7.34884C18.2791 6.27907 17.7116 5.72093 16.6512 5.72093Z" fill="#141414"/>
<path d="M9.2093 13.1628H7.34884C6.28837 13.1628 5.72093 13.7209 5.72093 14.7907V16.6512C5.72093 17.7209 6.28837 18.2791 7.34884 18.2791H9.2093C10.2698 18.2791 10.8372 17.7209 10.8372 16.6512V14.7907C10.8372 13.7209 10.2698 13.1628 9.2093 13.1628Z" fill="#141414"/>
<path d="M16.6512 13.1628H14.7907C13.7302 13.1628 13.1628 13.7209 13.1628 14.7907V16.6512C13.1628 17.7209 13.7302 18.2791 14.7907 18.2791H16.6512C17.7116 18.2791 18.2791 17.7209 18.2791 16.6512V14.7907C18.2791 13.7209 17.7116 13.1628 16.6512 13.1628Z" fill="#141414"/>
</svg>
