<svg width="24" height="24" viewBox="0 0 24 24" fill="none" xmlns="http://www.w3.org/2000/svg">
<path d="M18.33 5.67L6.58996 17.41C6.14996 17.85 5.40996 17.79 5.04996 17.27C3.80996 15.46 3.07996 13.32 3.07996 11.12V6.73C3.07996 5.91 3.69996 4.98 4.45996 4.67L10.03 2.39C11.29 1.87 12.69 1.87 13.95 2.39L18 4.04C18.66 4.31 18.83 5.17 18.33 5.67Z" fill="#141414"/>
<path d="M19.27 7.04C19.92 6.49 20.91 6.96 20.91 7.81V11.12C20.91 16.01 17.36 20.59 12.51 21.93C12.18 22.02 11.82 22.02 11.48 21.93C10.06 21.53 8.73996 20.86 7.60996 19.98C7.12996 19.61 7.07996 18.91 7.49996 18.48C9.67996 16.25 16.06 9.75 19.27 7.04Z" fill="#141414"/>
</svg>
