<svg width="24" height="24" viewBox="0 0 24 24" fill="none" xmlns="http://www.w3.org/2000/svg">
<path d="M18.7919 4.10382L13.5698 2.23265C12.7012 1.92245 11.2779 1.92245 10.4093 2.23265L5.18721 4.10382C3.98372 4.53408 3 5.89493 3 7.1157V14.5503C3 15.7311 3.81628 17.2821 4.81046 17.9925L9.31046 21.2045C10.786 22.2652 13.214 22.2652 14.6895 21.2045L19.1895 17.9925C20.1837 17.2821 21 15.7311 21 14.5503V7.1157C20.9791 5.89493 19.9953 4.53408 18.7919 4.10382ZM11.9163 7.02564C13.1512 7.02564 14.1558 7.98624 14.1558 9.16698C14.1558 10.3277 13.2035 11.2583 12 11.2983H11.9581C11.9372 11.2983 11.9163 11.2983 11.8953 11.2983C10.6395 11.2583 9.69767 10.3277 9.69767 9.16698C9.68721 7.98624 10.6919 7.02564 11.9163 7.02564ZM14.2814 16.3615C13.643 16.7617 12.8163 16.9719 11.9895 16.9719C11.1628 16.9719 10.3256 16.7717 9.69767 16.3615C9.10116 15.9812 8.77674 15.4609 8.76628 14.8906C8.76628 14.3302 9.10116 13.7899 9.69767 13.4096C10.964 12.6091 13.0256 12.6091 14.2919 13.4096C14.8884 13.7899 15.2233 14.3102 15.2233 14.8806C15.2128 15.4409 14.8779 15.9812 14.2814 16.3615Z" fill="#141414"/>
</svg>
