<svg width="24" height="24" viewBox="0 0 24 24" fill="none" xmlns="http://www.w3.org/2000/svg">
<path d="M13.996 13.2556H9.99399C9.58379 13.2556 9.24362 13.5958 9.24362 14.006C9.24362 14.4162 9.58379 14.7564 9.99399 14.7564H13.996C14.4062 14.7564 14.7464 14.4162 14.7464 14.006C14.7464 13.5958 14.4062 13.2556 13.996 13.2556Z" fill="#141414"/>
<path d="M9.99399 10.7544H11.995C12.4052 10.7544 12.7454 10.4142 12.7454 10.004C12.7454 9.5938 12.4052 9.25363 11.995 9.25363H9.99399C9.58379 9.25363 9.24362 9.5938 9.24362 10.004C9.24362 10.4142 9.58379 10.7544 9.99399 10.7544Z" fill="#141414"/>
<path d="M16.1871 2H7.81291C4.17108 2 2 4.17108 2 7.81291V16.1871C2 19.8289 4.17108 22 7.81291 22H16.1871C19.8289 22 22 19.8289 22 16.1871V7.81291C22 4.17108 19.8289 2 16.1871 2ZM17.998 15.0065C17.998 17.0075 16.9975 18.008 14.9965 18.008H8.99349C6.99249 18.008 5.99199 17.0075 5.99199 15.0065V9.00351C5.99199 7.0025 6.99249 6.002 8.99349 6.002H12.9955C14.9965 6.002 15.997 7.0025 15.997 9.00351V10.004C15.997 10.5543 16.4472 11.0045 16.9975 11.0045C17.5478 11.0045 17.998 11.4547 17.998 12.005V15.0065Z" fill="#141414"/>
</svg>
