<svg width="24" height="24" viewBox="0 0 24 24" fill="none" xmlns="http://www.w3.org/2000/svg">
<path d="M12.6091 12.6667H10.6364V15.04H12.6091C13.2818 15.04 13.8182 14.5067 13.8182 13.8578C13.8182 13.2089 13.2727 12.6667 12.6091 12.6667Z" fill="#141414"/>
<path d="M12.6091 8.95999H10.6364V11.3333H12.6091C13.2818 11.3333 13.8182 10.8 13.8182 10.1511C13.8182 9.50223 13.2727 8.95999 12.6091 8.95999Z" fill="#141414"/>
<path d="M22 11.1111C20.9182 11.1111 19.9545 10.4356 19.6091 9.42223C19.3909 8.77334 19.2727 8.08888 19.2727 7.40443V6.66667C19.2727 5.19111 18.0545 4 16.5455 4H7.45455C5.94545 4 4.72727 5.19111 4.72727 6.66667V7.41333C4.72727 8.09777 4.61819 8.77332 4.39091 9.4311C4.04546 10.4355 3.08182 11.12 2 11.12V12.8978C3.08182 12.8978 4.04546 13.5733 4.39091 14.5867C4.6091 15.2356 4.72727 15.92 4.72727 16.5956V17.3333C4.72727 18.8089 5.94545 20 7.45455 20H16.5455C18.0545 20 19.2727 18.8089 19.2727 17.3333V16.5867C19.2727 15.9022 19.3818 15.2267 19.6091 14.5778C19.9545 13.5733 20.9182 12.8889 22 12.8889V11.1111ZM15.1818 13.8489C15.1818 15.2355 14.0273 16.3644 12.6091 16.3644H9.95455C9.58182 16.3644 9.27273 16.0622 9.27273 15.6978V8.29332C9.27273 7.92888 9.58182 7.62665 9.95455 7.62665H12.6091C14.0273 7.62665 15.1818 8.75556 15.1818 10.1422C15.1818 10.8711 14.8637 11.5378 14.3455 11.9911C14.8637 12.4622 15.1818 13.12 15.1818 13.8489Z" fill="#141414"/>
</svg>
