<svg width="24" height="24" viewBox="0 0 24 24" fill="none" xmlns="http://www.w3.org/2000/svg">
<path d="M11.3823 2.14546L6.12457 7.40258C5.92038 7.60674 5.92038 7.92319 6.12457 8.12735L7.89078 9.89333C8.09497 10.0975 8.41145 10.0975 8.61563 9.89333L13.8734 4.63621C14.0776 4.43205 14.0776 4.11561 13.8734 3.91145L12.1072 2.14546C11.903 1.95151 11.5865 1.95151 11.3823 2.14546Z" fill="#141414"/>
<path d="M15.364 6.13679L6.12457 15.375C5.92038 15.5792 5.92038 15.8956 6.12457 16.0998L7.89078 17.8658C8.09497 18.0699 8.41145 18.0699 8.61563 17.8658L17.855 8.62754C18.0592 8.42338 18.0592 8.10693 17.855 7.90277L16.0888 6.13679C15.8949 5.93263 15.5681 5.93263 15.364 6.13679Z" fill="#141414"/>
<path d="M19.3558 10.1179L10.1164 19.3561C9.91222 19.5603 9.91222 19.8767 10.1164 20.0809L11.8826 21.8469C12.0868 22.051 12.4033 22.051 12.6075 21.8469L21.8469 12.6087C22.051 12.4045 22.051 12.088 21.8469 11.8839L20.0807 10.1179C19.8765 9.91374 19.5498 9.91374 19.3558 10.1179Z" fill="#141414"/>
<path d="M3.91936 13.8744L2.15314 12.1085C1.94895 11.9043 1.94895 11.5879 2.15314 11.3837L3.91936 9.61771C4.12354 9.41355 4.44002 9.41355 4.64421 9.61771L6.41043 11.3837C6.61461 11.5879 6.61461 11.9043 6.41043 12.1085L4.64421 13.8744C4.44002 14.0786 4.11333 14.0786 3.91936 13.8744Z" fill="#141414"/>
</svg>
