<svg width="24" height="24" viewBox="0 0 24 24" fill="none" xmlns="http://www.w3.org/2000/svg">
<path d="M7.92897 5.33938L11.0597 8.53689C11.5799 9.0681 12.4301 9.0681 12.9502 8.53689L16.081 5.33938C16.9212 4.48127 16.3311 3 15.1308 3H8.8692C7.67891 3 7.07875 4.48127 7.92897 5.33938Z" fill="#141414"/>
<path d="M7.92897 18.6606L11.0597 15.4631C11.5799 14.9319 12.4301 14.9319 12.9502 15.4631L16.081 18.6606C16.9212 19.5187 16.3311 21 15.1308 21H8.8692C7.67891 21 7.07875 19.5187 7.92897 18.6606Z" fill="#141414"/>
<path d="M2.15754 11.4177L4.44815 7.74007C4.80824 7.15778 5.60845 7.06583 6.08857 7.55618L9.68944 11.2338C10.0995 11.6527 10.0995 12.3371 9.68944 12.756L6.08857 16.4336C5.60845 16.924 4.81824 16.832 4.44815 16.2497L2.15754 12.5721C1.94749 12.2247 1.94749 11.7753 2.15754 11.4177Z" fill="#141414"/>
<path d="M21.8425 11.4177L19.5519 7.74007C19.1918 7.15778 18.3916 7.06583 17.9114 7.55618L14.3106 11.2338C13.9005 11.6527 13.9005 12.3371 14.3106 12.756L17.9114 16.4336C18.3916 16.924 19.1818 16.832 19.5519 16.2497L21.8425 12.5721C22.0525 12.2247 22.0525 11.7753 21.8425 11.4177Z" fill="#141414"/>
</svg>
