<svg width="24" height="24" viewBox="0 0 24 24" fill="none" xmlns="http://www.w3.org/2000/svg">
<path d="M6.65445 9.10145L11.6514 6.98251C11.8713 6.89255 12.1228 6.89255 12.3323 6.98251L17.3293 9.10145C17.7693 9.29135 18.1778 8.78161 17.874 8.42179L12.6361 2.31484C12.2799 1.89505 11.6933 1.89505 11.3371 2.31484L6.09921 8.42179C5.80588 8.78161 6.21447 9.29135 6.65445 9.10145Z" fill="#141414"/>
<path d="M6.65446 14.8986L11.6618 17.0175C11.8818 17.1074 12.1333 17.1074 12.3428 17.0175L17.3502 14.8986C17.7902 14.7086 18.1987 15.2184 17.8949 15.5782L12.6571 21.6852C12.3009 22.1049 11.7143 22.1049 11.3581 21.6852L6.12019 15.5782C5.80591 15.2184 6.204 14.7086 6.65446 14.8986Z" fill="#141414"/>
<path d="M11.7666 9.49125L7.44014 11.5502C7.05253 11.7301 7.05253 12.2599 7.44014 12.4398L11.7666 14.4988C11.9133 14.5687 12.0913 14.5687 12.238 14.4988L16.5645 12.4398C16.9521 12.2599 16.9521 11.7301 16.5645 11.5502L12.238 9.49125C12.0809 9.42129 11.9133 9.42129 11.7666 9.49125Z" fill="#141414"/>
</svg>
