<svg width="24" height="24" viewBox="0 0 24 24" fill="none" xmlns="http://www.w3.org/2000/svg">
<path d="M8.74545 14.3266L10.3687 15.0803C11.4071 15.5619 12.5968 15.5619 13.6453 15.0803L15.2685 14.3266C16.7203 13.6566 18.0612 15.4781 17.053 16.7553L13.5646 21.1835C12.7077 22.2722 11.3063 22.2722 10.4392 21.1835L6.96095 16.7553C5.94267 15.4781 7.28357 13.6566 8.74545 14.3266Z" fill="#141414"/>
<path d="M8.54382 11.4373C8.24136 11.6676 8.28169 12.1491 8.62448 12.3271L10.9937 13.5519C11.5482 13.845 12.4455 13.845 12.99 13.5519L15.3592 12.3271C15.6919 12.1491 15.7323 11.6781 15.4399 11.4373L12.3044 8.98765C12.1229 8.85156 11.881 8.85156 11.6995 8.98765L8.54382 11.4373Z" fill="#141414"/>
<path d="M17.9301 7.84659L13.726 2.40297C13.6453 2.29828 13.5546 2.20407 13.4638 2.10985C13.2017 1.84814 12.8287 2.08891 12.8287 2.46578V6.96724C12.8287 7.13473 12.8992 7.29176 13.0303 7.38597L17.2143 10.6521L17.3958 10.7882C17.5773 10.9243 17.8293 10.9243 17.9805 10.7568C18.6863 9.96123 18.6762 8.80969 17.9301 7.84659Z" fill="#141414"/>
<path d="M6.06366 7.9408L10.2477 2.41344C10.3283 2.30875 10.409 2.21454 10.4997 2.12032C10.7619 1.85861 11.1349 2.08891 11.1349 2.47625V7.05098C11.1349 7.21848 11.0643 7.36504 10.9332 7.46972L6.76939 10.7882L6.598 10.9243C6.41652 11.0604 6.16448 11.0604 6.00317 10.8825C5.31759 10.0764 5.32767 8.92484 6.06366 7.9408Z" fill="#141414"/>
</svg>
