<svg width="24" height="24" viewBox="0 0 24 24" fill="none" xmlns="http://www.w3.org/2000/svg">
<path d="M5 10.5028V16.3893C5 16.6965 5.13066 16.9938 5.34533 17.192L10.348 21.7407C11.0013 22.3353 12 21.8398 12 20.938V16.8749H16.5827C17.4693 16.8749 17.9174 15.7353 17.292 15.0614L12 9.44243H5.99867C5.44801 9.43252 5 9.90817 5 10.5028Z" fill="#141414"/>
<path d="M18.0013 2H7.41732C6.53065 2 6.08264 3.13964 6.70798 3.81352L12 9.43251H18.0013C18.552 9.43251 19 8.95682 19 8.37213V3.06038C19 2.47569 18.552 2 18.0013 2Z" fill="#141414"/>
</svg>
