<svg width="24" height="24" viewBox="0 0 24 24" fill="none" xmlns="http://www.w3.org/2000/svg">
<path d="M21.9388 11.07C21.8877 10.56 21.449 10.18 20.9286 10.18H13.2245C12.6633 10.18 12.2041 10.63 12.2041 11.18V12.89C12.2041 13.44 12.6633 13.89 13.2245 13.89H17.8265C17.7143 14.81 17.102 16.2 15.7449 17.13C14.8775 17.72 13.7245 18.13 12.2041 18.13C12.1326 18.13 12.0714 18.13 12 18.12C9.39796 18.04 7.19388 16.33 6.39796 13.98C6.18368 13.35 6.06123 12.69 6.06123 12C6.06123 11.31 6.18368 10.64 6.38776 10.02C6.44898 9.83999 6.52041 9.66001 6.60204 9.48001C7.54082 7.41001 9.59184 5.95 12 5.88C12.0612 5.87 12.1326 5.87 12.2041 5.87C13.6633 5.87 14.7551 6.33999 15.5204 6.85999C15.9184 7.12999 16.449 7.06999 16.7959 6.73999L18.2143 5.38C18.6633 4.95 18.6224 4.21999 18.1122 3.85999C16.4898 2.68999 14.5102 2 12.2041 2C12.1326 2 12.0714 2.00001 12 2.01001C8.09184 2.08001 4.73469 4.30001 3.09184 7.51001C2.39796 8.87001 2 10.39 2 12C2 13.61 2.39796 15.13 3.09184 16.49H3.10204C4.7449 19.7 8.10204 21.92 12 21.99C12.0714 22 12.1326 22 12.2041 22C14.9592 22 17.2755 21.11 18.9592 19.58C20.8878 17.83 22 15.27 22 12.22C22 11.79 21.9796 11.42 21.9388 11.07Z" fill="#141414"/>
</svg>
