<svg width="24" height="24" viewBox="0 0 24 24" fill="none" xmlns="http://www.w3.org/2000/svg">
<path d="M19.9897 2H4.01028C3.40231 2 2.93621 2.52111 3.00714 3.11236L4.83103 19.3669C4.87157 19.7678 5.16545 20.1085 5.56063 20.2187L11.7213 21.9624C11.9037 22.0125 12.0963 22.0125 12.2787 21.9624L18.4394 20.2187C18.8345 20.1085 19.1183 19.7678 19.169 19.3669L20.9929 3.11236C21.0638 2.52111 20.5977 2 19.9897 2ZM16.3115 7.51171H8.54981L8.88415 10.5181H15.8049C16.0177 10.5181 16.2203 10.6083 16.3723 10.7686C16.5142 10.929 16.5851 11.1394 16.5648 11.3499L16.0582 16.3605C16.0278 16.6712 15.815 16.9217 15.511 17.0119L11.9646 18.014C11.8936 18.0341 11.8227 18.0441 11.7518 18.0441C11.6808 18.0441 11.6099 18.0341 11.5389 18.014L7.99246 17.0119C7.66821 16.9217 7.44531 16.6211 7.44531 16.2904V14.2861C7.44531 13.8752 7.78983 13.5345 8.20527 13.5345C8.62072 13.5345 8.96523 13.8752 8.96523 14.2861V15.7192L11.7518 16.5108L14.5889 15.7091L14.9638 12.0313H8.20527C7.82023 12.0313 7.49598 11.7407 7.44531 11.3599L6.93867 6.8503C6.91841 6.63986 6.97921 6.42941 7.1312 6.26907C7.27306 6.10873 7.48584 6.01853 7.69863 6.01853H16.3115C16.727 6.01853 17.0715 6.35926 17.0715 6.77013C17.0715 7.181 16.727 7.51171 16.3115 7.51171Z" fill="#141414"/>
</svg>
