<svg width="24" height="24" viewBox="0 0 24 24" fill="none" xmlns="http://www.w3.org/2000/svg">
<path d="M16.1356 9.99665C16.1356 9.99665 15.9865 10.9982 12.9051 15.0043C10.0125 18.7801 14.1973 21.6545 14.6943 21.985C14.7241 22.005 14.7539 22.005 14.7937 21.985C15.4696 21.5643 22.9943 16.6869 16.1356 9.99665Z" fill="#141414"/>
<path d="M13.75 7.78327C13.75 5.47975 12.8554 3.37654 11.9608 2.1747C11.6626 1.87424 11.1656 1.97439 11.0662 2.37501C10.6686 3.8773 9.47577 7.0822 6.59313 10.888C2.9153 15.6954 6.29494 20.9033 9.77398 21.9049C11.6626 22.4056 9.27699 20.9033 8.97878 17.7986C8.68058 13.8926 13.75 10.9882 13.75 7.78327Z" fill="#141414"/>
</svg>
