<svg width="24" height="24" viewBox="0 0 24 24" fill="none" xmlns="http://www.w3.org/2000/svg">
<path d="M16.1971 2H7.8129C4.17108 2 2 4.17108 2 7.81291V16.1871C2 19.8289 4.17108 22 7.8129 22H16.1871C19.8289 22 22 19.8289 22 16.1871V7.81291C22.01 4.17108 19.8389 2 16.1971 2ZM13.0655 16.6873C12.9855 16.7174 12.9054 16.7274 12.8254 16.7274C12.5152 16.7274 12.2151 16.5273 12.115 16.2171L11.4047 14.086H8.32315L7.34266 16.2872C7.17258 16.6673 6.73236 16.8374 6.35217 16.6673C5.97198 16.4973 5.80189 16.057 5.97198 15.6769L9.50374 7.74286C9.6338 7.46272 9.90394 7.27263 10.2241 7.30264C10.5343 7.31265 10.8044 7.52276 10.9044 7.81291L13.5458 15.7469C13.6658 16.1271 13.4557 16.5573 13.0655 16.6873ZM17.1075 15.977C17.1075 16.3872 16.7674 16.7274 16.3572 16.7274C15.9469 16.7274 15.6068 16.3872 15.6068 15.977V10.6843C15.6068 10.2741 15.9469 9.93396 16.3572 9.93396C16.7674 9.93396 17.1075 10.2741 17.1075 10.6843V15.977ZM17.2776 8.42323C17.2276 8.54329 17.1576 8.65332 17.0575 8.74337C16.9675 8.83341 16.8574 8.91345 16.7373 8.96348C16.6173 9.0135 16.4872 9.03352 16.3572 9.03352C16.087 9.03352 15.8369 8.93346 15.6468 8.74337C15.5568 8.65332 15.4767 8.54329 15.4267 8.42323C15.3767 8.29316 15.3567 8.17309 15.3567 8.03302C15.3567 7.90295 15.3767 7.77288 15.4267 7.65282C15.4867 7.53276 15.5568 7.4227 15.6468 7.33266C15.7368 7.23261 15.8469 7.16257 15.967 7.11254C16.3371 6.96247 16.7874 7.05252 17.0575 7.33266C17.1576 7.4227 17.2276 7.53276 17.2776 7.65282C17.3276 7.77288 17.3577 7.90295 17.3577 8.03302C17.3577 8.17309 17.3276 8.30317 17.2776 8.42323Z" fill="#141414"/>
<path d="M8.98348 12.5753H10.9044L10.084 10.114L8.98348 12.5753Z" fill="#141414"/>
</svg>
