<svg width="24" height="24" viewBox="0 0 24 24" fill="none" xmlns="http://www.w3.org/2000/svg">
<path d="M17.5138 8.68824C18.1859 8.29811 19.0094 8.80829 18.9999 9.61855L18.962 15.0403C18.9526 15.8606 18.1101 16.3608 17.4475 15.9406L13.0175 13.1397C12.3549 12.7196 12.3738 11.6992 13.0459 11.3091L17.5138 8.68824Z" fill="#141414"/>
<path d="M18.8674 6.26744C19.0094 6.64756 18.7917 7.03769 18.4509 7.23776L13.1217 10.3488C12.3644 10.7889 11.4746 10.0787 11.664 9.19841L12.8188 3.66658C12.9607 2.96635 13.7085 2.62625 14.2954 2.97636L18.006 5.21709C18.4131 5.46717 18.7065 5.8373 18.8674 6.26744Z" fill="#141414"/>
<path d="M12.0142 2.65625L10.0547 11.9593C10.0263 12.0993 10.0263 12.2494 10.0547 12.3995L11.6923 21.0823C11.8059 21.6825 11.3232 22.2527 10.8499 21.8826L5.84247 18.1113C5.31238 17.7112 5 17.071 5 16.3908V7.0777C5 6.31745 5.37864 5.61722 6.01284 5.23709L11.0203 2.22611C11.1623 2.13608 11.3137 2.07605 11.4651 2.02603C11.8248 1.89599 12.0899 2.27612 12.0142 2.65625Z" fill="#141414"/>
<path d="M17.3339 16.8009C17.9492 17.191 17.9871 18.1213 17.4097 18.5615L14.125 21.0823C13.5382 21.5325 12.6957 21.1923 12.5537 20.4321L11.5882 15.2304C11.4178 14.3301 12.336 13.6499 13.0838 14.12L17.3339 16.8009Z" fill="#141414"/>
</svg>
