<svg width="24" height="24" viewBox="0 0 24 24" fill="none" xmlns="http://www.w3.org/2000/svg">
<path d="M22 6.28005V17.7101C22 17.8901 21.91 18.05 21.76 18.14L18.87 19.87C18.71 19.96 18.52 19.96 18.36 19.87L8.75002 14.28C8.60002 14.19 8.50002 14.0301 8.50002 13.8501V12.5201C8.50002 12.1301 8.92001 11.89 9.26001 12.09L17.75 17.18C18.08 17.38 18.51 17.14 18.51 16.75V8.42005C18.51 8.24005 18.42 8.08005 18.27 7.99005L14.19 5.54004C13.87 5.35004 13.87 4.88004 14.19 4.68004L16.76 3.13005C16.92 3.03005 17.12 3.03005 17.28 3.13005L21.78 5.83005C21.91 5.94005 22 6.11005 22 6.28005Z" fill="#141414"/>
<path d="M11.29 18.43L7.26001 20.8501C7.10001 20.9501 6.90002 20.9501 6.75002 20.8501L2.25002 18.15C2.10002 18.06 2.01001 17.9001 2.01001 17.7201V6.29004C2.01001 6.11004 2.10002 5.95005 2.25002 5.86005L6.75002 3.16005C6.91002 3.06005 7.11001 3.06005 7.26001 3.16005L16.76 8.86005C16.91 8.95005 17 9.11004 17 9.29004V14.12C17 14.51 16.58 14.7501 16.24 14.5501L7.75002 9.46006C7.42002 9.26006 6.99002 9.50005 6.99002 9.89005V14.72C6.99002 14.9001 7.08001 15.06 7.23001 15.15L11.27 17.5801C11.61 17.7701 11.61 18.23 11.29 18.43Z" fill="#141414"/>
</svg>
