<svg width="24" height="24" viewBox="0 0 24 24" fill="none" xmlns="http://www.w3.org/2000/svg">
<path d="M12 4.95222C11.9 4.95222 11.8 4.94238 11.71 4.9227C11.61 4.90301 11.52 4.87348 11.43 4.84395C11.34 4.80458 11.25 4.75537 11.17 4.70615C11.09 4.6471 11.01 4.58804 10.94 4.51914C10.66 4.24354 10.5 3.86951 10.5 3.4758C10.5 3.08209 10.66 2.70806 10.94 2.43246C11.01 2.36356 11.09 2.3045 11.17 2.24545C11.25 2.19623 11.34 2.14701 11.43 2.11748C11.52 2.07811 11.61 2.04859 11.71 2.0289C12.19 1.93047 12.71 2.08796 13.06 2.43246C13.34 2.70806 13.5 3.08209 13.5 3.4758C13.5 3.86951 13.34 4.24354 13.06 4.51914C12.78 4.79474 12.39 4.95222 12 4.95222Z" fill="#141414"/>
<path d="M12 9.38149C11.9 9.38149 11.8 9.37165 11.71 9.35196C11.61 9.33228 11.52 9.30275 11.43 9.27322C11.34 9.23385 11.25 9.18463 11.17 9.13542C11.09 9.07636 11.01 9.0173 10.94 8.9484C10.66 8.6728 10.5 8.29878 10.5 7.90507C10.5 7.51135 10.66 7.13733 10.94 6.86173C11.01 6.79283 11.09 6.73377 11.17 6.67471C11.25 6.6255 11.34 6.57628 11.43 6.54675C11.52 6.50738 11.61 6.47786 11.71 6.45817C11.9 6.4188 12.1 6.4188 12.29 6.45817C12.39 6.47786 12.48 6.50738 12.57 6.54675C12.66 6.57628 12.75 6.6255 12.83 6.67471C12.91 6.73377 12.99 6.79283 13.06 6.86173C13.34 7.13733 13.5 7.51135 13.5 7.90507C13.5 8.29878 13.34 8.6728 13.06 8.9484C12.99 9.0173 12.91 9.07636 12.83 9.13542C12.75 9.18463 12.66 9.23385 12.57 9.27322C12.48 9.30275 12.39 9.33228 12.29 9.35196C12.2 9.37165 12.1 9.38149 12 9.38149Z" fill="#141414"/>
<path d="M12 13.3186C11.9 13.3186 11.8 13.3088 11.71 13.2891C11.61 13.2694 11.52 13.2399 11.43 13.2104C11.34 13.171 11.25 13.1218 11.17 13.0726C11.09 13.0135 11.01 12.9544 10.94 12.8855C10.87 12.8166 10.81 12.7477 10.75 12.6592C10.7 12.5804 10.65 12.4918 10.61 12.4033C10.58 12.3147 10.55 12.2261 10.53 12.1276C10.51 12.0391 10.5 11.9406 10.5 11.8422C10.5 11.4485 10.66 11.0745 10.94 10.7989C11.01 10.73 11.09 10.6709 11.17 10.6118C11.25 10.5626 11.34 10.5134 11.43 10.474C11.52 10.4445 11.61 10.415 11.71 10.3953C12.19 10.2969 12.71 10.4544 13.06 10.7989C13.34 11.0745 13.5 11.4485 13.5 11.8422C13.5 11.9406 13.49 12.0391 13.47 12.1276C13.45 12.2261 13.42 12.3147 13.38 12.4033C13.35 12.4918 13.3 12.5804 13.25 12.6592C13.19 12.7477 13.13 12.8166 13.06 12.8855C12.99 12.9544 12.91 13.0135 12.83 13.0726C12.75 13.1218 12.66 13.171 12.57 13.2104C12.48 13.2399 12.39 13.2694 12.29 13.2891C12.2 13.3088 12.1 13.3186 12 13.3186Z" fill="#141414"/>
<path d="M12 16.7636C11.74 16.7636 11.48 16.6553 11.29 16.4782C11.11 16.2912 11 16.0352 11 15.7793C11 15.5234 11.11 15.2675 11.29 15.0805C11.52 14.8541 11.87 14.7557 12.19 14.8147C12.26 14.8246 12.32 14.8443 12.38 14.8738C12.44 14.8935 12.5 14.923 12.55 14.9624C12.61 15.0017 12.66 15.0411 12.71 15.0805C12.89 15.2675 13 15.5234 13 15.7793C13 16.0352 12.89 16.2912 12.71 16.4782C12.66 16.5176 12.61 16.5569 12.55 16.5963C12.5 16.6357 12.44 16.6652 12.38 16.6849C12.32 16.7144 12.26 16.7341 12.19 16.7439C12.13 16.7538 12.06 16.7636 12 16.7636Z" fill="#141414"/>
<path d="M12 19.9625C11.9 19.9625 11.8 19.9428 11.71 19.9035C11.62 19.8641 11.54 19.8149 11.47 19.746C11.4 19.6771 11.34 19.5983 11.31 19.5098C11.27 19.4212 11.25 19.3227 11.25 19.2243C11.25 19.0275 11.33 18.8405 11.47 18.7027C11.54 18.6338 11.62 18.5845 11.71 18.5452C11.9 18.4664 12.1 18.4664 12.29 18.5452C12.38 18.5845 12.46 18.6338 12.53 18.7027C12.6 18.7715 12.65 18.8503 12.69 18.9389C12.73 19.0275 12.75 19.1259 12.75 19.2243C12.75 19.3227 12.73 19.4212 12.69 19.5098C12.65 19.5983 12.6 19.6771 12.53 19.746C12.46 19.8149 12.38 19.8641 12.29 19.9035C12.19 19.9428 12.1 19.9625 12 19.9625Z" fill="#141414"/>
<path d="M12 22C11.87 22 11.74 21.9508 11.65 21.8523C11.55 21.7638 11.5 21.6358 11.5 21.5079C11.5 21.3799 11.55 21.2519 11.65 21.1634C11.83 20.9763 12.17 20.9763 12.35 21.1634C12.45 21.2519 12.5 21.3799 12.5 21.5079C12.5 21.6358 12.45 21.7638 12.35 21.8523C12.26 21.9508 12.13 22 12 22Z" fill="#141414"/>
<path d="M3.5 9.38149C3.1 9.38149 2.72 9.224 2.44 8.9484C2.16 8.67281 2 8.29878 2 7.90507C2 7.5212 2.16 7.13733 2.44 6.86173C2.99 6.31053 4 6.31053 4.56 6.86173C4.84 7.13733 5 7.5212 5 7.90507C5 8.29878 4.84 8.67281 4.56 8.9484C4.49 9.0173 4.41002 9.07636 4.33002 9.13542C4.25002 9.18463 4.16001 9.23385 4.07001 9.26338C3.98001 9.30275 3.88998 9.33228 3.78998 9.35196C3.69998 9.37165 3.6 9.38149 3.5 9.38149Z" fill="#141414"/>
<path d="M20.5 9.38149C20.11 9.38149 19.72 9.224 19.44 8.9484C19.16 8.6728 19 8.28894 19 7.90507C19 7.80664 19.01 7.70822 19.03 7.61963C19.05 7.5212 19.08 7.4326 19.11 7.34402C19.15 7.25543 19.2 7.16685 19.25 7.08811C19.31 7.00937 19.37 6.93063 19.44 6.86173C19.51 6.79283 19.59 6.73377 19.67 6.67471C19.75 6.6255 19.84 6.57628 19.93 6.54675C20.02 6.50738 20.11 6.47786 20.21 6.45817C20.4 6.4188 20.6 6.4188 20.79 6.45817C20.89 6.47786 20.98 6.50738 21.07 6.54675C21.16 6.57628 21.25 6.6255 21.33 6.67471C21.41 6.73377 21.49 6.79283 21.56 6.86173C21.63 6.93063 21.69 7.00937 21.75 7.08811C21.8 7.16685 21.85 7.25543 21.88 7.34402C21.92 7.4326 21.95 7.5212 21.97 7.61963C21.99 7.70822 22 7.80664 22 7.90507C22 8.29878 21.84 8.6728 21.56 8.9484C21.49 9.0173 21.41 9.07636 21.33 9.13542C21.25 9.18463 21.16 9.23385 21.07 9.27322C20.98 9.30275 20.89 9.33228 20.79 9.35196C20.69 9.37165 20.6 9.38149 20.5 9.38149Z" fill="#141414"/>
<path d="M20.5 12.8265C20.44 12.8265 20.37 12.8166 20.31 12.8068C20.24 12.7969 20.18 12.7773 20.12 12.7477C20.06 12.728 20 12.6985 19.94 12.6591C19.89 12.6296 19.84 12.5804 19.79 12.541C19.75 12.4918 19.7 12.4426 19.67 12.3934C19.63 12.3343 19.6 12.2753 19.58 12.2162C19.55 12.1572 19.53 12.0981 19.52 12.039C19.51 11.9701 19.5 11.9111 19.5 11.8422C19.5 11.5863 19.61 11.3304 19.79 11.1433C19.84 11.104 19.89 11.0646 19.94 11.0252C20 10.9859 20.06 10.9563 20.12 10.9367C20.18 10.9071 20.24 10.8874 20.31 10.8776C20.43 10.8481 20.56 10.8481 20.69 10.8776C20.76 10.8874 20.82 10.9071 20.88 10.9367C20.94 10.9563 21 10.9859 21.05 11.0252C21.11 11.0646 21.16 11.104 21.21 11.1433C21.39 11.3304 21.5 11.5863 21.5 11.8422C21.5 11.9111 21.49 11.9701 21.48 12.039C21.47 12.0981 21.45 12.1572 21.42 12.2162C21.4 12.2753 21.37 12.3343 21.33 12.3934C21.29 12.4426 21.25 12.4918 21.21 12.541C21.16 12.5804 21.11 12.6296 21.05 12.6591C21 12.6985 20.94 12.728 20.88 12.7477C20.82 12.7773 20.76 12.7969 20.69 12.8068C20.63 12.8166 20.56 12.8265 20.5 12.8265Z" fill="#141414"/>
<path d="M3.5 12.8265C3.24 12.8265 2.97998 12.7182 2.78998 12.541C2.60998 12.354 2.5 12.0981 2.5 11.8422C2.5 11.5863 2.60998 11.3304 2.78998 11.1434C3.06998 10.8678 3.51 10.7792 3.88 10.9367C4.01 10.9859 4.11002 11.0548 4.21002 11.1434C4.39002 11.3304 4.5 11.5863 4.5 11.8422C4.5 12.0981 4.39002 12.354 4.21002 12.541C4.02002 12.7182 3.76 12.8265 3.5 12.8265Z" fill="#141414"/>
<path d="M20.5 15.5333C20.3 15.5333 20.11 15.4545 19.97 15.3167C19.83 15.1789 19.75 14.9919 19.75 14.7951C19.75 14.6966 19.77 14.608 19.81 14.5096C19.85 14.421 19.9 14.3423 19.97 14.2734C20.18 14.0667 20.51 13.9978 20.79 14.1159C20.88 14.1553 20.96 14.2045 21.03 14.2734C21.1 14.3423 21.15 14.421 21.19 14.5096C21.23 14.608 21.25 14.6966 21.25 14.7951C21.25 14.9919 21.17 15.1789 21.03 15.3167C20.96 15.3856 20.88 15.4348 20.79 15.4742C20.69 15.5136 20.6 15.5333 20.5 15.5333Z" fill="#141414"/>
<path d="M3.5 15.5332C3.3 15.5332 3.10997 15.4545 2.96997 15.3167C2.89997 15.2478 2.84 15.1691 2.81 15.0805C2.77 14.9919 2.75 14.8935 2.75 14.795C2.75 14.6966 2.77 14.608 2.81 14.5096C2.84 14.421 2.89997 14.3423 2.96997 14.2734C3.23997 13.9978 3.75003 13.9978 4.03003 14.2734C4.10003 14.3423 4.15 14.421 4.19 14.5096C4.23 14.608 4.25 14.6966 4.25 14.795C4.25 14.8935 4.23 14.9919 4.19 15.0805C4.15 15.1691 4.10003 15.2478 4.03003 15.3167C3.89003 15.4545 3.7 15.5332 3.5 15.5332Z" fill="#141414"/>
<path d="M20.5 17.994C20.43 17.994 20.37 17.9841 20.31 17.9546C20.25 17.9349 20.19 17.8955 20.15 17.8463C20.05 17.7577 20 17.6298 20 17.5018C20 17.3739 20.05 17.2459 20.15 17.1573C20.33 16.9703 20.67 16.9703 20.85 17.1573C20.95 17.2459 21 17.3739 21 17.5018C21 17.6298 20.95 17.7577 20.85 17.8463C20.76 17.9448 20.63 17.994 20.5 17.994Z" fill="#141414"/>
<path d="M3.5 17.994C3.37 17.994 3.24002 17.9448 3.15002 17.8463C3.05002 17.7577 3 17.6298 3 17.5018C3 17.3739 3.05002 17.2459 3.15002 17.1573C3.33002 16.9703 3.66998 16.9703 3.84998 17.1573C3.94998 17.2459 4 17.3739 4 17.5018C4 17.6298 3.94998 17.7577 3.84998 17.8463C3.75998 17.9448 3.63 17.994 3.5 17.994Z" fill="#141414"/>
<path d="M7.75 7.16686C7.65 7.16686 7.55002 7.15701 7.46002 7.13733C7.36002 7.11764 7.26999 7.08812 7.17999 7.04875C7.07999 7.01922 6.99998 6.97 6.91998 6.92078C6.82998 6.86173 6.76 6.80267 6.69 6.73377C6.41 6.45817 6.25 6.0743 6.25 5.69043C6.25 5.30656 6.41 4.92269 6.69 4.64709C7.25 4.0959 8.25 4.0959 8.81 4.64709C9.09 4.92269 9.25 5.29672 9.25 5.69043C9.25 6.08414 9.09 6.45817 8.81 6.73377C8.74 6.80267 8.66002 6.86173 8.58002 6.92078C8.50002 6.97 8.41001 7.01922 8.32001 7.04875C8.23001 7.08812 8.13998 7.11764 8.03998 7.13733C7.94998 7.15701 7.85 7.16686 7.75 7.16686Z" fill="#141414"/>
<path d="M16.25 7.16685C16.15 7.16685 16.05 7.15701 15.96 7.13733C15.86 7.11764 15.77 7.08812 15.68 7.04875C15.59 7.01922 15.5 6.97 15.42 6.92078C15.34 6.86173 15.26 6.80267 15.19 6.73377C15.12 6.66487 15.06 6.58613 15 6.50739C14.95 6.42864 14.9 6.34006 14.86 6.25148C14.83 6.16289 14.8 6.07429 14.78 5.97587C14.76 5.88728 14.75 5.78886 14.75 5.69043C14.75 5.30656 14.91 4.92269 15.19 4.64709C15.26 4.57819 15.34 4.51913 15.42 4.46008C15.5 4.41086 15.59 4.36164 15.68 4.33212C15.77 4.29274 15.86 4.26322 15.96 4.24353C16.15 4.20416 16.35 4.20416 16.54 4.24353C16.64 4.26322 16.73 4.29274 16.82 4.33212C16.91 4.36164 17 4.41086 17.08 4.46008C17.16 4.51913 17.24 4.57819 17.31 4.64709C17.59 4.92269 17.75 5.30656 17.75 5.69043C17.75 5.78886 17.74 5.88728 17.72 5.97587C17.7 6.07429 17.67 6.16289 17.64 6.25148C17.6 6.34006 17.55 6.42864 17.5 6.50739C17.44 6.58613 17.38 6.66487 17.31 6.73377C17.24 6.80267 17.16 6.86173 17.08 6.92078C17 6.97 16.91 7.01922 16.82 7.04875C16.73 7.08812 16.64 7.11764 16.54 7.13733C16.45 7.15701 16.35 7.16685 16.25 7.16685Z" fill="#141414"/>
<path d="M7.75 11.3501C7.65 11.3501 7.55002 11.3402 7.46002 11.3205C7.36002 11.3008 7.26999 11.2713 7.17999 11.2418C7.08999 11.2024 6.99998 11.1532 6.91998 11.104C6.82998 11.0449 6.76 10.9859 6.69 10.917C6.41 10.6414 6.25 10.2575 6.25 9.87363C6.25 9.47992 6.41 9.10589 6.69 8.8303C7.25 8.2791 8.25 8.2791 8.81 8.8303C9.09 9.10589 9.25 9.47992 9.25 9.87363C9.25 10.2673 9.09 10.6414 8.81 10.917C8.53 11.1926 8.14 11.3501 7.75 11.3501Z" fill="#141414"/>
<path d="M16.25 11.3501C16.15 11.3501 16.05 11.3402 15.96 11.3205C15.86 11.3008 15.77 11.2713 15.68 11.2319C15.59 11.2024 15.5 11.1532 15.42 11.104C15.34 11.0449 15.26 10.9859 15.19 10.917C15.12 10.8481 15.06 10.7693 15 10.6906C14.95 10.6118 14.9 10.5233 14.86 10.4347C14.83 10.3461 14.8 10.2575 14.78 10.1591C14.76 10.0705 14.75 9.97206 14.75 9.87363C14.75 9.48976 14.91 9.10589 15.19 8.83029C15.26 8.76139 15.34 8.70234 15.42 8.64328C15.5 8.59406 15.59 8.54485 15.68 8.51532C15.77 8.47595 15.86 8.44642 15.96 8.42674C16.15 8.38736 16.35 8.38736 16.54 8.42674C16.64 8.44642 16.73 8.47595 16.82 8.51532C16.91 8.54485 17 8.59406 17.08 8.64328C17.16 8.70234 17.24 8.76139 17.31 8.83029C17.59 9.10589 17.75 9.48976 17.75 9.87363C17.75 9.97206 17.74 10.0705 17.72 10.1591C17.7 10.2575 17.67 10.3461 17.64 10.4347C17.6 10.5233 17.55 10.6118 17.5 10.6906C17.44 10.7693 17.38 10.8481 17.31 10.917C17.24 10.9859 17.16 11.0449 17.08 11.104C17 11.1532 16.91 11.2024 16.82 11.2319C16.73 11.2713 16.64 11.3008 16.54 11.3205C16.45 11.3402 16.35 11.3501 16.25 11.3501Z" fill="#141414"/>
<path d="M7.75 14.795C7.62 14.795 7.49 14.7655 7.37 14.7163C7.24 14.6671 7.12998 14.5982 7.03998 14.5096C6.94998 14.4112 6.88002 14.3029 6.83002 14.1848C6.78002 14.0667 6.75 13.9387 6.75 13.8108C6.75 13.5549 6.85998 13.2989 7.03998 13.1119C7.40998 12.7477 8.09002 12.7477 8.46002 13.1119C8.64002 13.2989 8.75 13.5549 8.75 13.8108C8.75 13.9387 8.71998 14.0667 8.66998 14.1848C8.61998 14.3029 8.55002 14.4112 8.46002 14.5096C8.27002 14.6868 8.01 14.795 7.75 14.795Z" fill="#141414"/>
<path d="M16.25 14.795C15.99 14.795 15.73 14.6868 15.54 14.5096C15.36 14.3226 15.25 14.0667 15.25 13.8108C15.25 13.5549 15.36 13.2989 15.54 13.1119C15.91 12.7477 16.58 12.7477 16.96 13.1119C17.14 13.2989 17.25 13.5549 17.25 13.8108C17.25 13.8797 17.24 13.9387 17.23 14.0076C17.22 14.0667 17.2 14.1257 17.17 14.1848C17.15 14.2439 17.12 14.3029 17.08 14.3521C17.04 14.4112 17 14.4604 16.96 14.5096C16.77 14.6868 16.51 14.795 16.25 14.795Z" fill="#141414"/>
<path d="M7.75 17.7479C7.55 17.7479 7.35997 17.6692 7.21997 17.5314C7.14997 17.4625 7.1 17.3837 7.06 17.2951C7.02 17.2065 7 17.1081 7 17.0097C7 16.9113 7.02 16.8227 7.06 16.7242C7.1 16.6357 7.14997 16.5569 7.21997 16.488C7.28997 16.4191 7.37002 16.3699 7.46002 16.3305C7.64002 16.2518 7.84998 16.2518 8.03998 16.3305C8.12998 16.3699 8.21003 16.4191 8.28003 16.488C8.42003 16.6258 8.5 16.8128 8.5 17.0097C8.5 17.1081 8.48 17.2065 8.44 17.2951C8.4 17.3837 8.35003 17.4625 8.28003 17.5314C8.14003 17.6692 7.95 17.7479 7.75 17.7479Z" fill="#141414"/>
<path d="M16.25 17.7479C16.15 17.7479 16.05 17.7282 15.96 17.6888C15.87 17.6495 15.79 17.6003 15.72 17.5314C15.65 17.4625 15.59 17.3837 15.56 17.2951C15.52 17.2065 15.5 17.1081 15.5 17.0097C15.5 16.9113 15.52 16.8128 15.56 16.7242C15.6 16.6357 15.65 16.5569 15.72 16.488C15.79 16.4191 15.87 16.3699 15.96 16.3305C16.14 16.2518 16.35 16.2518 16.54 16.3305C16.63 16.3699 16.71 16.4191 16.78 16.488C16.85 16.5569 16.9 16.6357 16.94 16.7242C16.98 16.8128 17 16.9113 17 17.0097C17 17.1081 16.98 17.2065 16.94 17.2951C16.9 17.3837 16.85 17.4625 16.78 17.5314C16.64 17.6692 16.45 17.7479 16.25 17.7479Z" fill="#141414"/>
<path d="M7.75 19.9625C7.62 19.9625 7.49002 19.9133 7.40002 19.8149C7.30002 19.7263 7.25 19.5983 7.25 19.4704C7.25 19.3424 7.30002 19.2145 7.40002 19.1259C7.58002 18.9389 7.91998 18.9389 8.09998 19.1259C8.19998 19.2145 8.25 19.3424 8.25 19.4704C8.25 19.5983 8.19998 19.7263 8.09998 19.8149C8.00998 19.9133 7.88 19.9625 7.75 19.9625Z" fill="#141414"/>
<path d="M16.25 19.9625C16.18 19.9625 16.12 19.9527 16.06 19.9232C16 19.9035 15.94 19.8641 15.9 19.8149C15.85 19.7755 15.81 19.7165 15.79 19.6574C15.76 19.5983 15.75 19.5393 15.75 19.4704C15.75 19.3424 15.8 19.2145 15.9 19.1259C16.08 18.9389 16.42 18.9389 16.6 19.1259C16.7 19.2145 16.75 19.3424 16.75 19.4704C16.75 19.5393 16.74 19.5983 16.71 19.6574C16.69 19.7165 16.65 19.7755 16.6 19.8149C16.51 19.9133 16.38 19.9625 16.25 19.9625Z" fill="#141414"/>
</svg>
