<svg width="24" height="24" viewBox="0 0 24 24" fill="none" xmlns="http://www.w3.org/2000/svg">
<path d="M14.439 17.6842H3.70732C3.30732 17.6842 2.97561 17.3621 2.97561 16.9737C2.97561 16.5853 3.30732 16.2632 3.70732 16.2632H14.439C17.8049 16.2632 20.5366 13.6105 20.5366 10.3421C20.5366 7.07368 17.8049 4.42105 14.439 4.42105H9.56098C9.16098 4.42105 8.82927 4.09895 8.82927 3.71053C8.82927 3.32211 9.16098 3 9.56098 3H14.439C18.6049 3 22 6.29684 22 10.3421C22 14.3874 18.6049 17.6842 14.439 17.6842Z" fill="#141414"/>
<path d="M13.7659 14.7379H8.09756C7.69756 14.7379 7.36585 14.4158 7.36585 14.0274C7.36585 13.6389 7.69756 13.3168 8.09756 13.3168H13.7659C15.3463 13.3168 16.6341 12.0663 16.6341 10.5316C16.6341 8.99684 15.3463 7.74631 13.7659 7.74631H3.38535C2.98535 7.74631 2.65364 7.42421 2.65364 7.03578C2.65364 6.64736 2.98535 6.32526 3.38535 6.32526H13.7659C16.1561 6.32526 18.0976 8.21052 18.0976 10.5316C18.0976 12.8526 16.1561 14.7379 13.7659 14.7379Z" fill="#141414"/>
<path d="M8.58537 11.5263H5.65854C5.25854 11.5263 4.92683 11.2042 4.92683 10.8158C4.92683 10.4274 5.25854 10.1053 5.65854 10.1053H8.58537C8.98537 10.1053 9.31707 10.4274 9.31707 10.8158C9.31707 11.2042 8.98537 11.5263 8.58537 11.5263Z" fill="#141414"/>
<path d="M6.63415 21H2.73171C2.33171 21 2 20.6779 2 20.2895C2 19.9011 2.33171 19.5789 2.73171 19.5789H6.63415C7.03415 19.5789 7.36585 19.9011 7.36585 20.2895C7.36585 20.6779 7.03415 21 6.63415 21Z" fill="#141414"/>
</svg>
