<svg width="24" height="24" viewBox="0 0 24 24" fill="none" xmlns="http://www.w3.org/2000/svg">
<path d="M21.5906 11.3571L16.9847 8.77037C16.7492 8.64104 16.4524 8.64104 16.217 8.77037L11.6111 11.3571C11.6111 11.3571 11.611 11.367 11.6008 11.367L7.38382 13.7348L3.54554 11.5759V7.2681L7.38382 5.10921L11.2221 7.2681V8.40227C11.2221 8.81017 11.5701 9.14843 11.9898 9.14843C12.4094 9.14843 12.7574 8.81017 12.7574 8.40227V6.83036C12.7574 6.56174 12.6141 6.31302 12.3685 6.18369L7.76253 3.597C7.52712 3.46767 7.23029 3.46767 6.99487 3.597L2.38894 6.18369C2.15352 6.31302 2 6.56174 2 6.83036V12.0037C2 12.2723 2.14329 12.5211 2.38894 12.6504L6.99487 15.2371C7.1177 15.3067 7.25076 15.3366 7.38382 15.3366C7.51688 15.3366 7.64995 15.3067 7.77278 15.2371L12.3787 12.6504C12.3787 12.6504 12.3787 12.6405 12.3889 12.6405L16.6059 10.2726L20.4442 12.4315V16.7394L16.6059 18.8982L12.7676 16.7394V15.5256C12.7676 15.1177 12.4196 14.7794 12 14.7794C11.5803 14.7794 11.2323 15.1177 11.2323 15.5256V17.1672C11.2323 17.4358 11.3756 17.6845 11.6213 17.8138L16.2272 20.4005C16.35 20.4702 16.4831 20.5 16.6162 20.5C16.7492 20.5 16.8823 20.4702 17.0051 20.4005L21.611 17.8138C21.8465 17.6845 22 17.4358 22 17.1672V11.9938C21.9693 11.7351 21.826 11.4864 21.5906 11.3571Z" fill="#141414"/>
<path d="M4.3132 8.27293V10.5711C4.3132 10.9293 4.50767 11.2576 4.82497 11.4366L6.87205 12.5808C7.18935 12.7598 7.5783 12.7598 7.8956 12.5808L9.94268 11.4366C10.26 11.2576 10.4544 10.9293 10.4544 10.5711V8.27293C10.4544 7.91478 10.26 7.58647 9.94268 7.40739L7.8956 6.26328C7.5783 6.0842 7.18935 6.0842 6.87205 6.26328L4.82497 7.40739C4.50767 7.58647 4.3132 7.91478 4.3132 8.27293Z" fill="#141414"/>
<path d="M13.5251 13.4463V15.7445C13.5251 16.1026 13.7195 16.4309 14.0368 16.61L16.0839 17.7541C16.4012 17.9332 16.7902 17.9332 17.1075 17.7541L19.1546 16.61C19.4719 16.4309 19.6663 16.1026 19.6663 15.7445V13.4463C19.6663 13.0882 19.4719 12.7598 19.1546 12.5808L17.1075 11.4366C16.7902 11.2576 16.4012 11.2576 16.0839 11.4366L14.0368 12.5808C13.7195 12.7598 13.5251 13.0882 13.5251 13.4463Z" fill="#141414"/>
</svg>
