<svg width="24" height="24" viewBox="0 0 24 24" fill="none" xmlns="http://www.w3.org/2000/svg">
<path d="M11.9953 22C6.48163 22 2 17.5163 2 12C2 10.614 2.27895 9.28372 2.82754 8.01861C2.9856 7.66512 3.3947 7.50698 3.74803 7.65582C4.10135 7.81396 4.25943 8.22326 4.11066 8.57675C3.64576 9.65582 3.40401 10.8093 3.40401 12C3.40401 16.7442 7.26268 20.6047 12.0047 20.6047C16.7466 20.6047 20.6053 16.7442 20.6053 12C20.6053 7.25581 16.7466 3.39535 12.0047 3.39535C10.8052 3.39535 9.63364 3.63721 8.54577 4.12093C8.20174 4.27907 7.78334 4.12092 7.62528 3.76744C7.46721 3.41395 7.62528 3.00465 7.97861 2.84652C9.25243 2.28838 10.6007 2 12.0047 2C17.5184 2 22 6.48372 22 12C22 17.5163 17.5091 22 11.9953 22Z" fill="#141414"/>
<path d="M15.7145 15.0233V12C15.7145 9.81395 13.9479 8.04651 11.7629 8.04651C9.57787 8.04651 7.81125 9.81395 7.81125 12C7.81125 14.186 9.57787 15.9535 11.7629 15.9535H14.7847C15.2961 15.9535 15.7145 15.5349 15.7145 15.0233Z" fill="#141414"/>
<path d="M5.48675 7.23721C6.45216 7.23721 7.23478 6.45423 7.23478 5.48837C7.23478 4.52252 6.45216 3.73953 5.48675 3.73953C4.52134 3.73953 3.73872 4.52252 3.73872 5.48837C3.73872 6.45423 4.52134 7.23721 5.48675 7.23721Z" fill="#141414"/>
</svg>
