<svg width="24" height="24" viewBox="0 0 24 24" fill="none" xmlns="http://www.w3.org/2000/svg">
<path d="M21.9146 5.04889C21.7285 4.70889 21.3007 4.57666 20.9659 4.76555L5.21023 13.5678C5.09862 13.0578 5.02421 12.5289 5.02421 12C5.02421 8.09 8.1493 4.91667 11.9999 4.91667C13.3113 4.91667 14.5855 5.285 15.683 5.98389C16.0086 6.19166 16.4364 6.08778 16.641 5.75722C16.8456 5.42667 16.7433 4.99222 16.4178 4.78444C15.097 3.94389 13.5717 3.5 11.9999 3.5C7.38663 3.5 3.62908 7.31556 3.62908 12C3.62908 12.765 3.73139 13.5206 3.92671 14.2572C3.92671 14.2667 3.93602 14.2667 3.93602 14.2761L2.36417 15.1544C2.02934 15.3433 1.89914 15.7778 2.08516 16.1178C2.21537 16.3539 2.44786 16.4861 2.69899 16.4861C2.8106 16.4861 2.9315 16.4578 3.03381 16.4011L21.6355 6.01223C21.9704 5.82334 22.1006 5.38889 21.9146 5.04889Z" fill="#141414"/>
<path d="M21.9146 8.35444C21.7285 8.01444 21.3007 7.88222 20.9659 8.07111L19.0034 9.16667C18.9755 9.18556 18.9383 9.195 18.9104 9.22333L2.36417 18.46C2.02934 18.6489 1.89914 19.0833 2.08516 19.4233C2.21537 19.6594 2.44786 19.7917 2.69899 19.7917C2.8106 19.7917 2.9315 19.7633 3.03381 19.7067L18.8732 10.8572C18.929 11.235 18.9755 11.6128 18.9755 12C18.9755 15.91 15.8504 19.0833 11.9999 19.0833C10.6791 19.0833 9.40493 18.7056 8.29813 18.0067C7.9726 17.7989 7.54473 17.9028 7.34011 18.2333C7.13549 18.5639 7.22849 18.9983 7.56332 19.2061C8.89335 20.0561 10.428 20.5 12.0092 20.5C16.6224 20.5 20.3799 16.6844 20.3799 12C20.3799 11.3672 20.2869 10.7533 20.1567 10.1489L21.6449 9.31778C21.9704 9.12889 22.1006 8.69444 21.9146 8.35444Z" fill="#141414"/>
</svg>
