<svg width="24" height="24" viewBox="0 0 24 24" fill="none" xmlns="http://www.w3.org/2000/svg">
<path d="M13.996 9.75388H12.7454V8.50325C12.7454 8.09305 12.4052 7.75288 11.995 7.75288C11.5848 7.75288 11.2446 8.09305 11.2446 8.50325V9.75388H9.99399C9.58379 9.75388 9.24362 10.094 9.24362 10.5043C9.24362 10.9145 9.58379 11.2546 9.99399 11.2546H13.996C14.4062 11.2546 14.7464 10.9145 14.7464 10.5043C14.7464 10.094 14.4062 9.75388 13.996 9.75388Z" fill="#141414"/>
<path d="M13.996 12.7554H9.99399C9.58379 12.7554 9.24362 13.0955 9.24362 13.5058C9.24362 13.916 9.58379 14.2561 9.99399 14.2561H11.2446V15.5068C11.2446 15.917 11.5848 16.2571 11.995 16.2571C12.4052 16.2571 12.7454 15.917 12.7454 15.5068V14.2561H13.996C14.4062 14.2561 14.7464 13.916 14.7464 13.5058C14.7464 13.0955 14.4062 12.7554 13.996 12.7554Z" fill="#141414"/>
<path d="M16.1871 2H7.81291C4.17108 2 2 4.17108 2 7.8129V16.1871C2 19.8289 4.17108 22 7.81291 22H16.1871C19.8289 22 22 19.8289 22 16.1871V7.8129C22 4.17108 19.8289 2 16.1871 2ZM16.9975 16.1571C16.9975 17.1776 16.1671 18.008 15.1466 18.008H8.84339C7.82288 18.008 6.99249 17.1776 6.99249 16.1571V7.85293C6.99249 6.83242 7.82288 6.002 8.84339 6.002H15.1466C16.1671 6.002 16.9975 6.83242 16.9975 7.85293V16.1571Z" fill="#141414"/>
</svg>
