<svg width="24" height="24" viewBox="0 0 24 24" fill="none" xmlns="http://www.w3.org/2000/svg">
<path d="M10.2854 3.63263L2.13902 11.6752C1.95366 11.8582 1.95366 12.1418 2.13902 12.3248L10.2854 20.3674C10.582 20.651 11.0732 20.4497 11.0732 20.0471V17.6774C11.0732 17.5584 11.0269 17.4395 10.9342 17.3571L5.83688 12.3248C5.65152 12.1418 5.65152 11.8582 5.83688 11.6752L10.9342 6.64287C11.0176 6.56053 11.0732 6.44158 11.0732 6.32263V3.95287C11.0732 3.55028 10.5727 3.34899 10.2854 3.63263Z" fill="#141414"/>
<path d="M13.7146 3.63263L21.861 11.6752C22.0463 11.8582 22.0463 12.1418 21.861 12.3248L13.7146 20.3674C13.4273 20.651 12.9268 20.4497 12.9268 20.0471V17.6774C12.9268 17.5584 12.9731 17.4395 13.0658 17.3571L18.1631 12.3248C18.3485 12.1418 18.3485 11.8582 18.1631 11.6752L13.0658 6.64287C12.9824 6.56053 12.9268 6.44158 12.9268 6.32263V3.95287C12.9268 3.55028 13.4273 3.34899 13.7146 3.63263Z" fill="#141414"/>
<path d="M10.2854 10.0374L8.62651 11.6752C8.44115 11.8582 8.44115 12.1418 8.62651 12.3248L10.2854 13.9626C10.582 14.2462 11.0732 14.0449 11.0732 13.6424V10.3576C11.0732 9.95505 10.5727 9.75375 10.2854 10.0374Z" fill="#141414"/>
</svg>
