<svg width="24" height="24" viewBox="0 0 24 24" fill="none" xmlns="http://www.w3.org/2000/svg">
<path d="M18 6.3866C17.86 6.3866 17.42 6.41694 17.42 6.84145C17.42 7.13456 17.64 7.30638 18 7.30638C18.36 7.30638 18.58 7.13456 18.58 6.84145C18.58 6.5079 18.28 6.3866 18 6.3866Z" fill="#141414"/>
<path d="M18 5.5477C18.27 5.5477 18.44 5.39609 18.44 5.16362C18.44 4.88061 18.21 4.78965 18 4.78965C17.79 4.78965 17.56 4.89072 17.56 5.16362C17.56 5.39609 17.73 5.5477 18 5.5477Z" fill="#141414"/>
<path d="M18 2C15.9 2 14.19 3.62729 14.02 5.69931C14 5.81049 14 5.93177 14 6.04296C14 8.27669 15.79 10.0859 18 10.0859C18.35 10.0859 18.68 10.0455 19 9.95451C20.73 9.50978 22 7.92293 22 6.04296C22 3.80922 20.21 2 18 2ZM18 8.26659C17.01 8.26659 16.4 7.76123 16.4 6.94253C16.4 6.54834 16.58 6.19457 16.9 5.95199C16.66 5.73974 16.53 5.44661 16.53 5.11306C16.53 4.33479 17.12 3.81932 17.99 3.81932C18.86 3.81932 19.45 4.3449 19.45 5.11306C19.45 5.44661 19.33 5.73974 19.08 5.95199C19.41 6.18446 19.59 6.53823 19.59 6.94253C19.6 7.76123 18.99 8.26659 18 8.26659Z" fill="#141414"/>
<path d="M18 11.602C16.85 11.602 15.78 11.2483 14.9 10.6317C14.83 10.5812 14.74 10.6317 14.74 10.7126L14.75 15.5843C14.75 16.0088 14.41 16.3424 14 16.3424C13.59 16.3424 13.25 16.0088 13.25 15.5843V10.5913C13.25 10.2577 13.47 9.97474 13.77 9.87366C13.85 9.84334 13.9 9.73215 13.84 9.6715C13.01 8.70119 12.5 7.43778 12.5 6.05307C12.5 5.88125 12.51 5.69929 12.53 5.52747C12.53 5.48704 12.54 5.45673 12.54 5.4163C12.57 5.18383 12.45 4.96145 12.25 4.86038L11.35 4.42577C10.81 4.17308 10.19 4.17308 9.64999 4.42577L3.14999 7.51863C2.44999 7.85217 2 8.55968 2 9.34806V16.8882C2 17.6766 2.44999 18.3841 3.14999 18.7176L9.64999 21.8105C10.19 22.0632 10.81 22.0632 11.35 21.8105L17.85 18.7176C18.55 18.3841 19 17.6766 19 16.8882V12.1276C19 11.8143 18.71 11.5717 18.4 11.5919C18.27 11.602 18.14 11.602 18 11.602ZM11.75 13.6235C11.75 15.1598 10.52 16.403 9 16.403C7.48 16.403 6.25 15.1598 6.25 13.6235V10.5913C6.25 10.1769 6.59 9.83323 7 9.83323C7.41 9.83323 7.75 10.1769 7.75 10.5913V13.6235C7.75 14.3209 8.31 14.8869 9 14.8869C9.69 14.8869 10.25 14.3209 10.25 13.6235V10.5913C10.25 10.1769 10.59 9.83323 11 9.83323C11.41 9.83323 11.75 10.1769 11.75 10.5913V13.6235Z" fill="#141414"/>
</svg>
