<svg width="24" height="24" viewBox="0 0 24 24" fill="none" xmlns="http://www.w3.org/2000/svg">
<path d="M12.0197 22C11.7765 22 11.5431 21.8747 11.4069 21.6723L2.61372 8.17831C2.39973 7.84096 2.497 7.39758 2.82772 7.1759C3.16816 6.96385 3.61561 7.0506 3.83933 7.38795L12.0099 19.9373L20.1514 7.38795C20.3654 7.0506 20.8226 6.9542 21.163 7.16625C21.5034 7.3783 21.6007 7.83132 21.3867 8.16867L12.6325 21.6626C12.4963 21.8747 12.2726 22 12.0197 22Z" fill="#141414"/>
<path d="M4.16034 3.92771H5.93062C6.09597 3.92771 6.24189 4.00482 6.33916 4.13976L11.6306 11.9952C11.8252 12.2843 12.2434 12.2843 12.4379 11.9952L17.7294 4.13976C17.8169 4.00482 17.9726 3.92771 18.1379 3.92771H19.9082C20.2973 3.92771 20.521 4.3518 20.3168 4.66987L12.4574 16.7952C12.2629 17.094 11.8349 17.094 11.6403 16.7952L3.78097 4.66987C3.5378 4.3518 3.77126 3.92771 4.16034 3.92771Z" fill="#141414"/>
<path d="M9.51014 3.44578C9.07243 3.29157 8.68334 3.78313 8.94596 4.16868L11.6209 8.1494C11.8154 8.43856 12.2337 8.43856 12.4282 8.1494L15.1031 4.17832C15.3658 3.79278 14.9767 3.30121 14.539 3.45543L13.1966 3.92771V2.48193C13.1966 2.21205 12.9826 2 12.7103 2H11.3485C11.0762 2 10.8622 2.21205 10.8622 2.48193V3.92771L9.51014 3.44578Z" fill="#141414"/>
</svg>
