<svg width="24" height="24" viewBox="0 0 24 24" fill="none" xmlns="http://www.w3.org/2000/svg">
<path fill-rule="evenodd" clip-rule="evenodd" d="M20.8 2.01921L12.8 3.65541C12.33 3.74744 12 4.16673 12 4.65759V9.95475C12 10.5172 12.45 10.9774 13 10.9774H21C21.55 10.9774 22 10.5172 22 9.95475V3.02139C22 2.37714 21.42 1.89649 20.8 2.01921Z" fill="#141414"/>
<path fill-rule="evenodd" clip-rule="evenodd" d="M20.8 21.9808L12.8 20.3446C12.33 20.2526 12 19.8333 12 19.3424V14.0452C12 13.4828 12.45 13.0226 13 13.0226H21C21.55 13.0226 22 13.4828 22 14.0452V20.9786C22 21.6229 21.42 22.1035 20.8 21.9808Z" fill="#141414"/>
<path fill-rule="evenodd" clip-rule="evenodd" d="M8.78998 4.3917L2.78998 5.69042C2.32998 5.79268 2 6.21196 2 6.6926V9.95476C2 10.5172 2.45 10.9774 3 10.9774H9C9.55 10.9774 10 10.5172 10 9.95476V5.38364C10 4.73939 9.40998 4.24853 8.78998 4.3917Z" fill="#141414"/>
<path fill-rule="evenodd" clip-rule="evenodd" d="M8.78998 19.6083L2.78998 18.3096C2.32998 18.2073 2 17.788 2 17.3074V14.0452C2 13.4828 2.45 13.0226 3 13.0226H9C9.55 13.0226 10 13.4828 10 14.0452V18.6164C10 19.2606 9.40998 19.7515 8.78998 19.6083Z" fill="#141414"/>
</svg>
