<svg width="24" height="24" viewBox="0 0 24 24" fill="none" xmlns="http://www.w3.org/2000/svg">
<path d="M15.1666 13.7759C15.1666 14.3362 15.6268 14.7964 16.1871 14.7964H17.2076V12.7654H16.1871C15.6268 12.7554 15.1666 13.2156 15.1666 13.7759Z" fill="#141414"/>
<path d="M16.1871 2H7.81292C4.1711 2 2 4.17108 2 7.81291V16.1871C2 19.8289 4.1711 22 7.81292 22H16.1871C19.8289 22 22 19.8289 22 16.1871V7.81291C22 4.17108 19.8289 2 16.1871 2ZM12.2751 15.0665C12.5353 15.3867 12.4852 15.8669 12.1551 16.1171C12.015 16.2271 11.8549 16.2771 11.6848 16.2771C11.4647 16.2771 11.2446 16.1771 11.0946 15.997L8.85343 13.1956L6.61231 15.997C6.46223 16.1771 6.24212 16.2771 6.02201 16.2771C5.86193 16.2771 5.69185 16.2271 5.55178 16.1171C5.23162 15.8569 5.17159 15.3867 5.43172 15.0665L7.88294 12.005L5.43172 8.94348C5.17159 8.62332 5.22161 8.14309 5.55178 7.89296C5.87194 7.63283 6.35218 7.68285 6.60231 8.01302L8.84343 10.8144L11.0845 8.01302C11.3447 7.69286 11.8149 7.63283 12.1351 7.89296C12.4552 8.15309 12.5153 8.62332 12.2551 8.94348L9.8039 12.005L12.2751 15.0665ZM18.7084 15.5368C18.7084 15.947 18.3682 16.2872 17.958 16.2872H16.1871C14.7964 16.2872 13.6658 15.1566 13.6658 13.7659C13.6658 12.3752 14.7964 11.2446 16.1871 11.2446H17.2076V8.46323C17.2076 8.05302 17.5478 7.71285 17.958 7.71285C18.3682 7.71285 18.7084 8.05302 18.7084 8.46323V15.5368Z" fill="#141414"/>
</svg>
