<svg width="24" height="24" viewBox="0 0 24 24" fill="none" xmlns="http://www.w3.org/2000/svg">
<path d="M5.45753 2H4.04803C3.11839 2 2.64858 3.1317 3.30833 3.79269L9.03611 9.5313C10.6755 11.1738 13.3245 11.1738 14.9638 9.5313L20.6917 3.79269C21.3514 3.1317 20.8816 2 19.952 2H18.5425C17.7128 2 16.9131 2.3305 16.3234 2.92138L12.7447 6.50676C12.3349 6.91738 11.6751 6.91738 11.2653 6.50676L7.68665 2.92138C7.08688 2.3305 6.28721 2 5.45753 2Z" fill="#141414"/>
<path d="M5.45753 22H4.04803C3.11839 22 2.64858 20.8683 3.30833 20.2073L9.03611 14.4687C10.6755 12.8262 13.3245 12.8262 14.9638 14.4687L20.6917 20.2073C21.3514 20.8683 20.8816 22 19.952 22H18.5425C17.7128 22 16.9131 21.6695 16.3234 21.0786L12.7447 17.4932C12.3349 17.0826 11.6751 17.0826 11.2653 17.4932L7.68665 21.0786C7.08688 21.6695 6.28721 22 5.45753 22Z" fill="#141414"/>
</svg>
